<?xml version="1.0" encoding="utf-8"?>
<!-- Generator: Adobe Illustrator 23.0.5, SVG Export Plug-In . SVG Version: 6.00 Build 0)  -->
<svg version="1.1" id="Layer_1" xmlns="http://www.w3.org/2000/svg" xmlns:xlink="http://www.w3.org/1999/xlink" x="0px" y="0px"
	 viewBox="0 0 512 512" style="enable-background:new 0 0 512 512;" xml:space="preserve">
<style type="text/css">
	.st0{fill:#EDF6FF;}
	.st1{fill:#EBEBEB;}
	.st2{fill:#A6A4BD;}
	.st3{fill:#B3B1C7;}
	.st4{fill:#525353;}
	.st5{fill:#64616D;}
	.st6{fill:#817F89;}
	.st7{fill:#908F97;}
	.st8{fill:#E1E0E8;}
	.st9{fill:#9FC5D4;}
	.st10{fill:#3A3F47;}
	.st11{fill:#ECECEC;}
	.st12{fill:url(#SVGID_1_);}
	.st13{fill:url(#SVGID_2_);}
	.st14{fill:url(#SVGID_3_);}
	.st15{fill:url(#SVGID_4_);}
	.st16{fill:url(#SVGID_5_);}
	.st17{fill:#FF364D;}
	.st18{fill:#6C3E36;}
	.st19{fill:url(#SVGID_6_);}
	.st20{fill:url(#SVGID_7_);}
	.st21{fill:url(#SVGID_8_);}
	.st22{fill:url(#SVGID_9_);}
	.st23{fill:url(#SVGID_10_);}
	.st24{fill:url(#SVGID_11_);}
	.st25{fill:#F2CBBC;}
	.st26{fill:#D4BCAB;}
	.st27{fill:#FEB9B8;}
	.st28{fill:url(#SVGID_12_);}
	.st29{fill:#754942;}
	.st30{fill:url(#SVGID_13_);}
	.st31{fill:url(#SVGID_14_);}
	.st32{fill:#232424;}
	.st33{fill:#3A393F;}
	.st34{fill:#4079FF;}
	.st35{clip-path:url(#SVGID_17_);}
	.st36{clip-path:url(#SVGID_18_);fill:url(#SVGID_19_);}
	.st37{opacity:0.44;fill:url(#SVGID_20_);enable-background:new    ;}
	.st38{fill:#BCBEDB;}
	.st39{fill:url(#SVGID_21_);}
	.st40{fill:#A2CBFA;}
	.st41{fill:url(#SVGID_22_);}
	.st42{fill:url(#SVGID_23_);}
	.st43{fill:#6696FF;}
	.st44{fill:#C7DFFF;}
	.st45{fill:url(#SVGID_24_);}
	.st46{fill:url(#SVGID_25_);}
	.st47{fill:url(#SVGID_26_);}
	.st48{fill:#FF5F71;}
	.st49{clip-path:url(#SVGID_29_);}
	.st50{clip-path:url(#SVGID_30_);fill:url(#SVGID_31_);}
	.st51{opacity:0.53;fill:url(#SVGID_32_);enable-background:new    ;}
	.st52{clip-path:url(#SVGID_35_);}
	.st53{clip-path:url(#SVGID_36_);fill:url(#SVGID_37_);}
	.st54{opacity:0.53;fill:url(#SVGID_38_);enable-background:new    ;}
	.st55{opacity:0.81;}
	.st56{fill:#4BB0C1;}
	.st57{fill:#80E1FF;}
	.st58{fill:#FFFFFF;}
	.st59{fill:#FF9729;}
	.st60{fill:#53546C;}
	.st61{fill:#F5F5F5;}
	.st62{fill:#AAF7B4;}
	.st63{fill:url(#SVGID_39_);}
	.st64{fill:#D2F7D7;}
	.st65{fill:#A0E1A1;}
	.st66{fill:url(#SVGID_40_);}
	.st67{fill:url(#SVGID_41_);}
	.st68{fill:#77C474;}
	.st69{fill:#9CC5FF;}
	.st70{fill:#443339;}
	.st71{fill:#5B4C51;}
	.st72{fill:#73ADFF;}
	.st73{fill:url(#SVGID_42_);}
	.st74{fill:#3B7EA8;}
	.st75{fill:url(#SVGID_43_);}
	.st76{fill:url(#SVGID_44_);}
	.st77{fill:#2F6385;}
	.st78{fill:url(#SVGID_45_);}
	.st79{fill:#88A2B3;}
	.st80{fill:url(#SVGID_46_);}
	.st81{fill:url(#SVGID_47_);}
	.st82{fill:#CFCFCF;}
	.st83{fill:#FD6A76;}
	.st84{fill:url(#SVGID_48_);}
	.st85{fill:#FD939A;}
	.st86{fill:#EB3F59;}
	.st87{fill:url(#SVGID_49_);}
	.st88{fill:url(#SVGID_50_);}
	.st89{fill:#B63B5A;}
	.st90{fill:url(#SVGID_51_);}
	.st91{fill:url(#SVGID_52_);}
	.st92{fill:url(#SVGID_53_);}
	.st93{fill:#FFDB87;}
	.st94{fill:url(#SVGID_54_);}
	.st95{fill:#FFEA91;}
	.st96{fill:#DFB03E;}
	.st97{fill:url(#SVGID_55_);}
	.st98{fill:url(#SVGID_56_);}
	.st99{fill:#D39117;}
</style>
<g>
	<g>
		
			<ellipse transform="matrix(5.422618e-03 -1 1 5.422618e-03 -111.8656 620.5104)" class="st0" cx="256" cy="366.5" rx="100.4" ry="174"/>
	</g>
	<g>
		
			<ellipse transform="matrix(5.422419e-03 -1 1 5.422419e-03 -153.7858 696.0117)" class="st0" cx="273" cy="425.3" rx="80.7" ry="139.8"/>
	</g>
	<g>
		<g>
			<polygon class="st1" points="250.9,302 274.8,288.2 400.7,360.9 376.8,374.7 			"/>
			<polygon class="st2" points="258.6,301.5 258.6,15.4 376.8,83.6 376.8,369.8 			"/>
			<polygon class="st3" points="258.6,301.5 258.6,18.9 374.6,85.9 374.6,368.5 			"/>
			<path class="st4" d="M289.9,55.8V41.5c0-1.7,1.9-2.8,3.4-2L342.7,68c1.8,1,2.8,2.9,2.8,4.9v14.3c0,1.7-1.9,2.8-3.4,2l-49.4-28.5
				C291,59.7,289.9,57.8,289.9,55.8z"/>
			<polygon class="st5" points="393,74.2 376.8,83.6 376.8,369.8 393,360.4 			"/>
			<polygon class="st6" points="393,74.2 376.8,83.6 258.6,15.4 274.8,6 			"/>
			<polygon class="st7" points="261.4,13.8 274.8,6 390.3,72.6 376.8,80.4 			"/>
			<polygon class="st8" points="369.9,109.7 369.9,358.9 325.4,333.2 299.5,318.2 286.2,310.6 265.5,298.6 265.5,49.4 315,77.9 
				362.2,105.2 			"/>
			<path class="st9" d="M329.9,312.8c-0.7,0.5-1.4,1.8-2.2,2.3c-7.7,4.4-18.9,4.7-28.3,2.3l-13.3-7.7c-4-5.4-2.2-11.9,5.5-16.3
				c7-4,17-4.5,25.8-2.9c3.8,0.7,7.4,1.1,10.4,2.8C337,298.7,337.7,307,329.9,312.8z"/>
			
				<ellipse transform="matrix(1 -5.423905e-03 5.423905e-03 1 -1.6152 1.8361)" class="st9" cx="337.7" cy="298.7" rx="25.6" ry="14.8"/>
			<g>
				<g>
					<path class="st10" d="M330.3,291.1c-0.6,0.9-0.4,1.5-0.3,2c0,0.5,0.1,0.8,0.3,1.2c0.3,0.4,2.9,2.4,3.3,2.5s0.9,0,0.9,0
						s1.1,0.4,1.9,1.4s1.7,3,3,4.3s4.7,3.9,6.5,4.2c1.8,0.3,4.1-1,4.7-1.8s0.5-1.9,0.4-2.8s-13.8-9.8-13.8-9.9
						C337.1,292.2,330.3,291.1,330.3,291.1z"/>
					<path class="st10" d="M303.3,305.3c-0.3,2-0.8,2-0.8,2.6c0.1,0.6-0.1,2.7,1.9,4.1c1.9,1.4,3.8,1.7,5.7,1.6
						c1.9,0,2.4-1.1,2.7-1.6c0.3-0.6,0.8-2.6,0.8-4.4s-0.6-4.1-0.6-4.1L303.3,305.3z"/>
					<path class="st11" d="M342.8,291.4c-1.7-1.6-3-2.1-3.8-2.6s-4.8-1.7-6.3-1.3c-1.5,0.4-1.8-0.2-2.4,0.8c-0.5,1-0.3,2.5-0.3,3.4
						s3.3,2.7,4.2,3.6c0.9,0.8,3.8,5.2,5.1,6.8c1.3,1.6,5.7,4.3,7.3,4.3c1.6,0,3.4-1.1,3.8-2.3c0.4-1.2,0.8-1.4-0.5-3.8
						c-1.3-2.5-4.5-5.8-5.6-6.9C343.3,292.4,342.8,291.4,342.8,291.4z"/>
					
						<linearGradient id="SVGID_1_" gradientUnits="userSpaceOnUse" x1="-104.2937" y1="68.6465" x2="-92.4578" y2="68.6465" gradientTransform="matrix(0.9963 8.600000e-02 8.600000e-02 -0.9963 427.7376 364.0679)">
						<stop  offset="4.947920e-02" style="stop-color:#FEB9B8"/>
						<stop  offset="0.9922" style="stop-color:#FEA5A4"/>
					</linearGradient>
					<path class="st12" d="M330.2,281.3c1,4.1,0.1,7.9,0.4,9c0.2,1.2,3.5,3.4,6.4,3.8s3.7-0.2,4.1-1c0.3-0.7-0.3-2.5-1.4-3.6
						s-1.3-2.6-1.4-3.3c-0.1-0.7-0.3-5.1-0.2-5.5C338,280.3,330.2,281.3,330.2,281.3z"/>
					<path class="st11" d="M312.4,294c0.9,0.4,1.8,0.8,1.5,3.8c-0.4,3-0.1,5.1-0.3,9.1c-0.3,4-0.5,5.2-2.7,5.9
						c-2.2,0.6-5.6-0.3-6.8-2.1c-1.2-1.8-1.3-4.6-1-7c0.4-2.4,1-4.3,1.5-5.5s2.1-4.1,3-4.6C308.2,293,312.4,294,312.4,294z"/>
					
						<linearGradient id="SVGID_2_" gradientUnits="userSpaceOnUse" x1="-128.4671" y1="61.379" x2="-119.8239" y2="61.379" gradientTransform="matrix(0.9963 8.600000e-02 8.600000e-02 -0.9963 427.7376 364.0679)">
						<stop  offset="4.947920e-02" style="stop-color:#FEB9B8"/>
						<stop  offset="0.9922" style="stop-color:#FEA5A4"/>
					</linearGradient>
					<path class="st13" d="M305.6,285.2c0.3,3.6,0.4,8.1,0.1,10.6c-0.3,2.4-0.6,3.1,0,3.8c0.6,0.7,3.1,1,4.8,0.4
						c1.7-0.6,2.5-1.1,2.7-2.4s-0.5-6-0.8-7.1s0-5.3,0-6C312.5,283.7,305.6,285.2,305.6,285.2z"/>
					
						<linearGradient id="SVGID_3_" gradientUnits="userSpaceOnUse" x1="235.4578" y1="276.4099" x2="256.7817" y2="276.4099" gradientTransform="matrix(1 0 0 -1 87.3168 512)">
						<stop  offset="4.947920e-02" style="stop-color:#FEB9B8"/>
						<stop  offset="0.9922" style="stop-color:#FEA5A4"/>
					</linearGradient>
					<path class="st14" d="M341.1,233.3c-1.8,9.5-1.7,12.7-1.6,20.1s-1.6,28.7-1.6,28.7s-1.1,4.3-4.6,2.9c-1.3-0.5-2.7-1.3-2.9-2
						c-0.2-1-2.7-20.8-3.4-24.4c-0.7-3.6,0.4-10.1,0.4-12.8c0-1.4-4.8-30.4-4.8-37.9c0.1-7.4,0.1-14.4,0.1-14.4l16.6-7.6
						c2.5,5.4,4.2,11.1,4.6,16.5C344.4,207.9,342.9,223.9,341.1,233.3z"/>
					
						<linearGradient id="SVGID_4_" gradientUnits="userSpaceOnUse" x1="215.7204" y1="273.3934" x2="240.9328" y2="273.3934" gradientTransform="matrix(1 0 0 -1 87.3168 512)">
						<stop  offset="4.947920e-02" style="stop-color:#FEB9B8"/>
						<stop  offset="0.9922" style="stop-color:#FEA5A4"/>
					</linearGradient>
					<path class="st15" d="M312.6,188.2c-3.2,1.6-4.1,3-4.8,4.4c-0.7,1.4-2.6,7.1-3.2,10.6c-0.6,3.4-2.2,15.2-1.2,23.2
						s3,22.9,2.7,26.4c-0.4,3.5-1.8,5.6-1.2,12.5c0.5,7,0.7,21,1,22.7s1.5,0.7,3.7,0.9c2.2,0.1,2.3-2.3,3-4c0.6-1.7,4.5-25,4.9-28.2
						s2.4-19.8,2.7-22.4c0.3-2.6,3.4-15.3,3.9-19.1c0.5-3.9,4.8-16.8,4.2-20.7S312.6,188.2,312.6,188.2z"/>
					
						<linearGradient id="SVGID_5_" gradientUnits="userSpaceOnUse" x1="251.8214" y1="359.5401" x2="264.8502" y2="359.5401" gradientTransform="matrix(1 0 0 -1 87.3168 512)">
						<stop  offset="4.947920e-02" style="stop-color:#FEB9B8"/>
						<stop  offset="0.9922" style="stop-color:#FEA5A4"/>
					</linearGradient>
					<path class="st16" d="M351.3,158.6c-0.8,0.9-2.1,2.3-3.3,2.9c-0.8,0.5-1.6,0.6-2.1,0.1l-0.1-0.1c-1.3-1.4-2.9-3-4.1-4.2l0,0
						c-0.9-0.9-1.5-1.5-1.5-1.5s-2.9-13.2,0.8-12.8c3.6,0.4,5.4,2.6,7.1,4.7c1.7,2,3.5,4.4,3.5,4.4
						C352.3,154.6,352.6,157,351.3,158.6z"/>
					<path class="st17" d="M339.1,183.9l-29.9,1.8c-1.8,0.7-5.2,7.4-6.2,27.4c-0.5,10.8,0.9,24.3-0.6,33.7
						c12.7,13.1,36.9,0.9,38.5-4.5c0.8-7.7,2.3-20.1,3.8-35.3C345.3,200.2,344.2,187.5,339.1,183.9z"/>
					<path class="st17" d="M338.6,173c-1.4,4,2.3,14,2,15.9s-5,7.1-15.8,7.4c-10.8,0.3-15.7-3.6-16.6-6c-0.9-2.5,1-5.6,1-8.4
						c0.2-10.7-4.4-14.7-6.1-20.6c-1.7-5.9-2.3-14.4-0.9-15.6c1.4-1.2,5.4-2.1,9.7-3.4c4.3-1.3,6.9-0.9,9.7-1.3
						c2.8-0.4,6.8-0.4,11.4,0.3c0,0,6.2,0.7,8,1.8s1.6,1.7,1.6,10.6c0,4.5-0.7,8.9-2.8,15.7c-0.1,0.1-0.1,0.2-0.1,0.2
						C339.3,170.6,339,171.8,338.6,173z"/>
					<path class="st18" d="M324.4,110.1c0-5.6,11.9-5.7,13.4,2.7s-4,24.4,5.5,25.9c-4.8,4.9-16.5,3.4-17.5,0.1
						C324.8,135.4,324.4,110.1,324.4,110.1z"/>
					<path class="st17" d="M330.8,112.4c0.9-2.1-5.3-5-6.5-2.5c-1.1,2.5,4,4.8,4.4,4.3C329.2,113.8,330.8,112.4,330.8,112.4z"/>
					
						<linearGradient id="SVGID_6_" gradientUnits="userSpaceOnUse" x1="215.0832" y1="354.3683" x2="220.1292" y2="354.3683" gradientTransform="matrix(1 0 0 -1 87.3168 512)">
						<stop  offset="4.947920e-02" style="stop-color:#FEB9B8"/>
						<stop  offset="0.9922" style="stop-color:#FEA5A4"/>
					</linearGradient>
					<path class="st19" d="M302.4,145.3c1-0.5,3,4.2,3.7,9s2.1,15.4,0.8,15.7c-3-6.4-4.4-8.6-4.5-13.3
						C302.4,152.1,302.4,145.3,302.4,145.3z"/>
					
						<linearGradient id="SVGID_7_" gradientUnits="userSpaceOnUse" x1="220.1832" y1="356.5677" x2="250.4747" y2="356.5677" gradientTransform="matrix(1 0 0 -1 87.3168 512)">
						<stop  offset="4.947920e-02" style="stop-color:#FEB9B8"/>
						<stop  offset="0.9922" style="stop-color:#FEA5A4"/>
					</linearGradient>
					<path class="st20" d="M307.5,143.4c2.2,1.8,5.1,11.1,6.2,14.5s6.2,11.9,11.9,12.6c9.2-4,10.8-13.8,11.4-16.7
						c0.8-3.5,0.8-8.4,0.5-10.2c-0.1-0.9-0.8-1.8-0.8-1.8s-6.3-1.7-13.7-1.4C315.8,140.6,307.5,143.4,307.5,143.4z"/>
					
						<linearGradient id="SVGID_8_" gradientUnits="userSpaceOnUse" x1="237.4835" y1="377.0795" x2="231.9445" y2="359.8923" gradientTransform="matrix(1 0 0 -1 87.3168 512)">
						<stop  offset="4.947920e-02" style="stop-color:#FEB9B8"/>
						<stop  offset="0.9922" style="stop-color:#FEA5A4"/>
					</linearGradient>
					<path class="st21" d="M330.5,144.7c0,0.1,0,0.1-0.1,0.2l0,0c-0.9,3.5-3.6,6.4-6.7,6.3c-1.5,0-3.2-0.9-4.6-1.9
						c-1.6-1.2-2.9-2.7-3.2-3.5c-0.3-0.7-0.1-1.8-0.1-3.2c0-0.4,0-0.9,0-1.4s-0.1-1.1-0.2-1.6c-0.1-0.6-0.3-1.2-0.6-1.8l8.7-10.6
						c0,0,5.8,4,5.3,6.3c-0.2,1.4-0.2,2.9-0.1,4.1c0.1,0.8,0.2,1.5,0.2,1.7C329.4,139.9,331.3,141.1,330.5,144.7z"/>
					
						<linearGradient id="SVGID_9_" gradientUnits="userSpaceOnUse" x1="201.4472" y1="319.1338" x2="222.843" y2="355.083" gradientTransform="matrix(1 0 0 -1 87.3168 512)">
						<stop  offset="4.947920e-02" style="stop-color:#FEB9B8"/>
						<stop  offset="0.9922" style="stop-color:#FEA5A4"/>
					</linearGradient>
					<path class="st22" d="M315.2,190.8c0,0.2,0,0.4-0.1,0.5c-0.1,0.3-0.2,0.4-0.5,0.5l0,0c-0.3,0-0.8,0.1-0.8,0.1s0.3,0.4,0.3,0.6
						c0,0.2,0.1,0.7-0.5,1c-0.1,0-0.2,0.1-0.2,0.1c-0.9,0.2-4.4,0.2-4.8,0.2l0,0c-0.4,0-2.1,0.2-2.2,0.3c0,0-0.1,0.1-0.1,0.2
						c-0.1,0.2-0.1,0.5-0.1,0.5s0,0.3,0.3,0.4l0,0c0.3,0.1,1.8,0.4,2.2,0.5c0.4,0.1,2.5,0.2,2.7,0.3s0.6,0.4,0.4,1
						c-0.2,0.5-0.8,0.6-1.7,0.5l-0.6-0.1c-1.2-0.1-3.5-0.3-4.1-0.4c-0.5-0.1-1.1,0.1-1.4,0.1s-1,0.7-2,0.7s-4.9-2.1-5.7-3.3
						c-0.8-1.2-8.1-7.1-13.6-13c-5.5-5.8-6-8.2-6.2-9.7c-0.2-0.9,1.1-3.3,2.8-5.6l0,0c0.9-1.2,1.9-2.4,2.8-3.2
						c2.5-2.3,7.4-7,9.2-8.8l0,0c0.1-0.1,0.2-0.2,0.3-0.3l1.9,1l4.5,2.3c0,0,0.5,4,0.5,5.4c0,0.2,0,0.4-0.1,0.4
						c-0.2,0.2-1.9,1.5-3.7,2.8c-0.1,0-0.1,0.1-0.2,0.1c-0.2,0.1-0.3,0.2-0.5,0.4c0,0,0,0-0.1,0c-1.2,0.9-2.3,1.8-2.9,2.5
						c-0.1,0.1-0.2,0.2-0.3,0.3c-1.2,1.6-3.7,3.7-3.7,3.8s0.5,1.5,3,5.3c2.6,3.8,10,11.4,10.1,11.7l0.1,0.1c0.2,0.2,0.7,0.1,1.5-0.2
						c1-0.4,5.4-3.7,5.4-3.7s1.4-0.5,1.8-0.7c0.4-0.1,2.6-0.2,2.6-0.2s1,0.1,1.4,0.4c0.2,0.1,0.2,0.4,0.1,0.6c0,0.3-0.2,0.6-0.4,0.8
						c-0.4,0.2-1.3,0.2-1.5,0.2s-2.1,0.4-2.5,0.5s-1.2,0.8-1.3,0.9c-0.1,0-0.4,0.3-0.7,0.5c-0.2,0.1-0.4,0.2-0.4,0.3l0,0h0.1l0,0
						c0.7,0,3.3-0.5,3.3-0.5s3.9,0.6,4.2,0.7C314.4,190,315.3,190.3,315.2,190.8z"/>
					
						<linearGradient id="SVGID_10_" gradientUnits="userSpaceOnUse" x1="192.0376" y1="324.7341" x2="213.4334" y2="360.6834" gradientTransform="matrix(1 0 0 -1 87.3168 512)">
						<stop  offset="4.947920e-02" style="stop-color:#FEB9B8"/>
						<stop  offset="0.9922" style="stop-color:#FEA5A4"/>
					</linearGradient>
					<path class="st23" d="M304,158c-0.1,0.3-0.1,0.5-0.2,0.7c-1.1,2.2-5.2,4.5-5.2,4.5s-0.2,0-0.5,0c-0.8-0.1-2.6-0.4-4.1-1.8
						c-2.1-2-2.8-6.4-2.6-6.9l0,0c0.4-0.7,7.3-7.3,11.1-9C304,146.4,306.5,153.9,304,158z"/>
					
						<linearGradient id="SVGID_11_" gradientUnits="userSpaceOnUse" x1="248.7867" y1="338.1227" x2="272.7278" y2="338.1227" gradientTransform="matrix(1 0 0 -1 87.3168 512)">
						<stop  offset="4.947920e-02" style="stop-color:#FEB9B8"/>
						<stop  offset="0.9922" style="stop-color:#FEA5A4"/>
					</linearGradient>
					<path class="st24" d="M359.3,169.7c-0.5,1.6-3,6.1-5.7,9.9c-2.7,3.8-5.5,8-6.3,9.1c-0.8,1-1.5,3.6-1.9,4.1
						c-0.4,0.4-1.9,1.8-2.3,2.1c-0.4,0.2-2.7,0.6-2.9,0.4c-0.2-0.1-0.4-0.6-0.3-0.9c0-0.1,0.1-0.2,0.1-0.2c0.3-0.3,1.9-0.7,2.5-0.9
						c0.5-0.2,1.4-1.1,1.6-1.4l0,0l0,0c-0.1,0-0.2,0.1-0.4,0.3l-0.1,0.1c-0.3,0.2-0.6,0.5-0.7,0.5c-0.1,0.1-0.4,0.1-0.8,0.2l0,0
						c-0.2,0-0.4,0.1-0.7,0.1c-0.7,0.1-2.6,0.7-3.1,0.5s-0.5-1.1-0.2-1.4c0.2-0.3,1.5-0.6,2.2-0.7l0,0c0.2-0.1,0.4-0.1,0.4-0.1
						c0.2,0,1.3-0.5,1.3-0.5l0.5-1.1l-1.8,0.5l-0.8,0.2c0,0-2.9,0.9-3.3,0.9c-0.5,0-0.6-0.6-0.4-1.1c0.2-0.4,2.8-1.3,3.1-1.4
						c0.2-0.1,0.6-0.4,1-0.7c0.5-0.3,1-0.7,1-0.7s0.2-0.7,0-0.8c-0.1-0.1-1.6,0-1.6,0s-1.6,0.4-2,0.4c-0.1,0-0.2-0.1-0.3-0.2
						c-0.1-0.2-0.2-0.5,0.1-0.8c0.3-0.4,2-1.1,2-1.1s1.6-0.4,1.9-0.3c0.3,0.2,1.4,1.4,1.6,1.1c0,0,0.1-0.1,0.1-0.2
						c0.4-0.8,2-3.7,3.2-6.4c1.4-3,4.3-10.6,4.3-10.6s-0.1-0.8-1.2-2.5c-0.1-0.1-0.2-0.3-0.3-0.4c-0.1-0.2-0.3-0.4-0.4-0.5
						c-0.4-0.5-0.9-1-1.3-1.4l-0.1-0.1c-0.1-0.1-0.2-0.3-0.4-0.4l0,0c-0.4-0.4-0.8-0.9-1.2-1.3l-0.1-0.1c-0.4-0.5-0.8-1-1.1-1.5
						c0,0,0.1-1,0.2-2.1c0-0.4,0.1-0.7,0.2-1.1c0.2-1.2,0.5-2.3,0.9-2.8c0.9-1.1,5.6-2,5.6-2s2.5,3.1,3.7,4.5s3.9,5.4,4.5,7.2
						C360.4,165.6,359.8,168.2,359.3,169.7z"/>
					<path class="st25" d="M356,167c-0.8,0.9-2.1,1.4-3.3,1.6c-0.3,0.1-0.6,0.1-0.9,0.3c-0.5,0.4-0.6,1.2-0.8,1.8
						c-0.3,0.7-0.5,1.5-0.8,2.2c-0.6,1.5-1.2,3-1.9,4.4c-0.1,0.7-0.8,1.6-1.1,2.2c-0.4,0.8-0.8,1.5-1.2,2.3
						c-0.8,1.4-1.7,2.6-2.2,4.2c-0.2-0.2-0.3-0.3-0.5-0.5c0.4-0.8,2-3.7,3.2-6.4c1.4-3,4.3-10.6,4.3-10.6s-0.1-0.8-1.2-2.5
						c-0.1-0.1-0.2-0.3-0.3-0.4c-0.1-0.2-0.3-0.4-0.4-0.5c-0.4-0.5-0.9-1-1.3-1.4l-0.1-0.1c-0.1-0.1-0.2-0.3-0.4-0.4l0,0
						c-0.4-0.4-0.8-0.9-1.2-1.3l-0.1-0.1c-1.3-1.4-2.9-3-4.1-4.2l0,0c0.1-1.4,0.3-2.7,0.6-4c0.1,0.6,0.2,1.3,0.4,1.8
						c0.2,0.5,0.6,1,1,1.4c0.4,0.5,0.8,0.9,1.2,1.4c1,1.2,2,2.4,3,3.6l0.1,0.1c1.2,1.4,2.4,2.5,3.2,4.2c0.4,0.9,1.4,1.6,2.5,1.6
						c0.3,0,0.7-0.1,1-0.2C355.2,167.1,355.6,167.1,356,167z"/>
					<path class="st26" d="M341.3,187.3c0,0,0.2-0.7,0-0.8c-0.1-0.1-1.6,0-1.6,0s-1.6,0.4-2,0.4c-0.1,0-0.2-0.1-0.3-0.2
						c0.3,0,0.6-0.1,0.9-0.2c0.9-0.1,1.7-0.4,2.5-0.5c0.2,0,0.9-0.2,1.1-0.1c0.3,0.2-0.1,1.2-0.3,1.5c-0.4,0.3-0.8,0.4-1.3,0.5
						C340.9,187.6,341.3,187.3,341.3,187.3z"/>
					<path class="st26" d="M340.8,190c0.8-0.3,1.5-0.7,2.2-1.2c-0.1,1-0.3,2.1-1.5,2.3c-0.4,0.1-0.8,0-1.2,0
						c0.2-0.1,0.4-0.1,0.4-0.1c0.2,0,1.3-0.5,1.3-0.5l0.5-1.1L340.8,190z"/>
					<path class="st26" d="M342.2,192.7c0.5-0.2,1-0.4,1.5-0.7c-0.3,0.2-0.6,0.4-0.7,0.5C342.8,192.6,342.6,192.6,342.2,192.7z"/>
					<path class="st26" d="M344.7,191.2c-0.2,0.5-0.6,1-0.9,1.5c-0.7,1-2.1,1.1-3.2,1.4c-0.2,0-0.4,0.1-0.6,0.2
						c0-0.1,0.1-0.2,0.1-0.2c0.3-0.3,1.9-0.7,2.5-0.9c0.5-0.2,1.4-1.2,1.6-1.4l0,0C344.3,191.5,344.5,191.4,344.7,191.2z"/>
					<path class="st27" d="M355.6,168.1c-0.8,0.3-1.6,0.5-2.3,1c-1.6,1-2.3,2.8-3,4.5c-1.3,3.6-2.7,7.1-4.3,10.6
						c-0.3,0.6-0.6,1.2-0.7,1.9s0.1,1.4,0.6,1.9c0.1,0.1,0.1,0.1,0.2,0.1c0.2,0,0.3-0.1,0.5-0.2c1-1,1.9-2.2,2.7-3.4
						c0.4-0.6,0.7-1.3,1.1-1.9c0.4-0.5,0.8-0.9,1.1-1.4c1.8-2.8,3.6-5.6,5.4-8.5c0,0.1-0.1,0.2-0.1,0.3c0.3-0.7,0.9-1.4,1.3-2.1
						c0.4-0.8,0.7-1.6,0.9-2.4c0.2-0.9,0.7-2.6-0.8-1.9C357.2,167,356.5,167.7,355.6,168.1z"/>
					<path class="st27" d="M353.3,154.4c-0.5,1.2-0.3,2.5-0.7,3.8c-0.2,0.9-0.8,1.7-1.2,2.6c-1.4,2.4,1.7,4.5,3.5,5.4
						c0.6,0.3,1,0.8,1.6,1.1c1.5,0.8,3.1-1,3.1-2.4c0-0.8-0.4-1.6-0.8-2.3C357.1,159.6,355.5,156.9,353.3,154.4z"/>
					<path class="st25" d="M304,158c-0.1,0.3-0.1,0.5-0.2,0.7c-1.1,2.2-5.2,4.5-5.2,4.5c-0.2,0.2-1.9,1.5-3.7,2.8
						c-0.1,0-0.1,0.1-0.2,0.1c-0.1,0.1-0.3,0.2-0.5,0.4c0,0,0,0-0.1,0c-1,0.8-2.1,1.5-2.9,2.5c-0.1,0.1-0.2,0.2-0.3,0.3
						c-1.2,1.6-3.7,3.7-3.7,3.8s0.5,1.5,3,5.3c2.6,3.8,10,11.4,10.1,11.7l0.1,0.1l0,0c0,0-0.7,0-0.7-0.1c-1.9-1.8-8.9-8.9-12.2-14.7
						c-0.7-1.3-1.4-1.9-2.7-2.6c-1-0.5,0.1-0.8,0.6-0.9c0.7-0.2,1.4-0.5,2.1-0.8c1.2-0.5,2-1.3,2.9-2.2c1.6-1.4,3.3-2.9,5.1-4.1
						c0.9-0.6,1.7-1.3,2.6-1.9c0.2-0.1,0.4-0.3,0.5-0.4c0.5-0.4,1.1-0.8,1.6-1.3c0.9-0.7,1.7-1.4,2.5-2.2
						C303.2,158.9,303.7,158.5,304,158z"/>
					<path class="st26" d="M306.6,189.6c-0.1,0-0.2,0.1-0.3,0.1C306.4,189.7,306.4,189.7,306.6,189.6
						C306.5,189.6,306.6,189.6,306.6,189.6z"/>
					<path class="st26" d="M306.5,195.2c-0.3,0-0.7,0-1,0c0-0.4,0.4-0.7,0.8-0.8c-0.1,0.2-0.1,0.5-0.1,0.5S306.2,195.1,306.5,195.2z
						"/>
					<path class="st25" d="M309.7,197.5l0.5,0.1l-0.6-0.1c-1.2-0.1-3.5-0.3-4.1-0.4c-0.5-0.1-1.1,0.1-1.4,0.1s-1,0.7-2,0.7
						s-4.9-2.1-5.7-3.3c-0.8-1.2-8.1-7.1-13.6-12.9c-5.5-5.8-5.9-8.2-6.2-9.7c-0.2-0.9,1.1-3.4,2.7-5.6c-0.6,1.1-1.1,2.2-1.4,3.3
						c-0.6,2.2,0.1,4.2,1.2,6.1c1,1.8,2.5,3.7,3.9,5.2c1,1.1,1.9,2.1,3,3.1s2.3,1.9,3.3,2.9c1.2,1.1,2.2,2.3,3.4,3.5
						c0.8,0.8,1.7,1.5,2.5,2.3c0.7,0.7,1.2,1.9,2,2.5c0.7,0.5,1.8,0.8,2.5,1.2c0.8,0.4,1.8,0.8,2.7,0.7c1-0.1,1.9-0.6,2.9-0.6
						c0.8,0,1.7,0.1,2.4,0.4C308.4,197.4,309,197.4,309.7,197.5z"/>
					<path class="st26" d="M307.7,188.8c-0.1,0-0.4,0.3-0.7,0.5c0.4-0.4,0.7-0.8,1.1-1.2c1-0.8,2.4-0.8,3.7-1.1
						c0.6-0.1,1.2-0.3,1.7-0.6c0,0.3-0.2,0.6-0.4,0.8c-0.4,0.2-1.3,0.2-1.5,0.2s-2.1,0.4-2.5,0.5C308.5,188,307.8,188.8,307.7,188.8
						z"/>
					<path class="st26" d="M312.4,193.5c0.4,0,0.8,0,1.2,0c-0.1,0-0.1,0.1-0.2,0.1c-0.9,0.2-4.4,0.2-4.8,0.2
						C309.9,193.6,311.2,193.5,312.4,193.5z"/>
					<path class="st25" d="M315.2,191.4c-0.1,0.3-0.2,0.4-0.5,0.5l0,0c-2.8-0.4-5.6-0.1-8.4,0.1c1.3-0.4,2.7-0.7,4-0.7
						c1.2,0,2.5,0.2,3.7,0.3C314.4,191.4,314.8,191.4,315.2,191.4z"/>
					<path class="st27" d="M283,164.2c-0.9,1-1.8,2-2.4,3.3c-0.3,0.8-0.5,1.7-0.1,2.5c0.3,0.5,0.8,0.9,1.4,1.1
						c0.6,0.2,1.2,0.2,1.8,0.1c3.4-0.3,6.5-2.2,8.5-4.9c0.6-0.8,1.1-1.6,0.9-2.6c-0.1-0.8-0.6-1.5-1.1-2.2c-0.3-0.5-0.6-1-0.9-1.5
						c-0.2-0.5-0.4-1.2-0.7-1.6c-0.7-0.9-1.7,0.2-2.2,0.7C286.5,160.6,284.7,162.3,283,164.2z"/>
					<path class="st27" d="M289.1,179.7c-0.8-1.5-1.5-3-2.4-4.4s-2.5-2.5-3.9-3.2c-0.7-0.4-1.6-0.7-2.3-0.3
						c-0.7,0.4-0.9,1.5-0.7,2.3c0.3,2,1.6,3.7,2.8,5.3c0.8,1.1,1.7,2.2,2.6,3.2c0.8,0.9,1.6,1.7,2.5,2.5c0.6,0.6,1.3,1.2,2,1.8
						c0.7,0.5,2.9,2.6,3.5,3.1c1.5,1.2,3,2.4,4.5,3.6c-0.1-0.1-0.2-0.2-0.2-0.2c0.2,0.1,0.5,0.1,0.8,0.1c0.1,0,0.2,0,0.2,0
						c0.1,0,0.1-0.1,0.1-0.2C299.3,190.9,291.3,183.4,289.1,179.7z"/>
					<path class="st25" d="M327.7,137.9c-0.6,1.5-1.6,2.8-2.9,3.7c-1.2,0.8-2.5,1.3-3.8,1.9c-1.5,0.7-2.9,1.8-4.5,1.1
						c-0.1-0.1-0.2-0.1-0.3-0.2c-0.4-0.3-0.8-0.5-1-0.9c0-0.5,0-0.9,0-1.5c0-0.5-0.1-1.1-0.3-1.7c0.2-0.5,0.6-0.9,1.1-1.2
						c1-0.5,1.6-1.6,2.3-2.4c0.8-0.9,1.7-1.8,2.7-2.5c0.8-0.6,1.6-1,2.5-1.5c1-0.6,2.2-1.3,3.4-1.2c0.3,0,0.7,0.2,0.9,0.5
						c0.1,0.2,0.1,0.4,0.2,0.7C328.2,134.4,328.3,136.2,327.7,137.9z"/>
					
						<linearGradient id="SVGID_12_" gradientUnits="userSpaceOnUse" x1="-137.7043" y1="225.2057" x2="-116.1125" y2="225.2057" gradientTransform="matrix(0.9963 8.600000e-02 8.600000e-02 -0.9963 427.7376 364.0679)">
						<stop  offset="4.947920e-02" style="stop-color:#FEB9B8"/>
						<stop  offset="0.9922" style="stop-color:#FEA5A4"/>
					</linearGradient>
					<path class="st28" d="M315.3,115.9c-2.6,0.5-4,1.5-4.6,4.3s-1,10.1-0.4,13.1c0.7,3,3.4,9.4,5.6,9.8c2.2,0.4,9.6-2.5,11.6-4.6
						s3.4-9.7,3.6-10.7s1.6-5.2,0.3-7.6c-1.3-2.4-2.6-5.2-4.6-5.6C324.8,114.1,315.3,115.9,315.3,115.9z"/>
					<path class="st29" d="M329.4,129.2c-0.1-0.3-0.9-1.3-1.2-3.7c-0.3-2.4-0.3-3.6-1.3-5.4s-3.9-1.5-6.3-1.4s-5.1-0.2-5.9-0.6
						s-1.6-0.2-2.2,0.1c-0.6,0.3-1.7,1.5-1.8,1.9c-0.1,0.5-0.6,4.9-0.6,4.9s0-3.3,0-4.5s-0.2-2.3,2.3-5.8s5.9-5.3,10.2-5.3
						c4.2,0,9.7,2.3,11.3,6.3c1.6,4,1.8,5.5,1.1,8.1c-0.7,2.6-1.6,5.5-2.8,6.5c-1.2,1,0.6-3.2,0.2-3.7s-2-0.4-2.2,0.6
						c-0.3,1-0.3,2.8-0.4,2.9C329.5,130.3,329.4,129.2,329.4,129.2z"/>
					
						<linearGradient id="SVGID_13_" gradientUnits="userSpaceOnUse" x1="-117.8438" y1="225.2196" x2="-114.2497" y2="225.2196" gradientTransform="matrix(0.9963 8.600000e-02 8.600000e-02 -0.9963 427.7376 364.0679)">
						<stop  offset="4.947920e-02" style="stop-color:#FEB9B8"/>
						<stop  offset="0.9922" style="stop-color:#FEA5A4"/>
					</linearGradient>
					<path class="st30" d="M330.5,127.5c1-1.2,1.7-1.4,2.4-1.1c0.8,0.3,0.6,3.2-0.4,4.8c-1.1,1.6-2.6,2.2-2.9,1.7
						c-0.4-0.4,0.2-2.3,0.3-2.8C329.9,129.6,330.5,127.5,330.5,127.5z"/>
				</g>
				
					<linearGradient id="SVGID_14_" gradientUnits="userSpaceOnUse" x1="252.358" y1="355.8" x2="255.2421" y2="355.8" gradientTransform="matrix(1 0 0 -1 87.3168 512)">
					<stop  offset="4.947920e-02" style="stop-color:#FEB9B8"/>
					<stop  offset="0.9922" style="stop-color:#FEA5A4"/>
				</linearGradient>
				<path class="st31" d="M342.6,153.6c0,4.5-0.7,8.9-2.8,15.7c-0.1,0.1-0.1,0.2-0.1,0.2s1.6-8.7,2-13.4c0.4-4.6,0.7-12.2-0.7-13.2
					C342.8,144.1,342.5,144.7,342.6,153.6z"/>
				<path class="st27" d="M300.6,147.7c-0.9,0.8-1.7,1.7-2.6,2.5c-1.8,1.6-3.5,3.3-5.4,4.8c-1.5,1.2-3.1,2.5-4.1,4.2
					c-0.4,0.6-0.7,1.4-0.7,2.1c0.1,1.4,1.3,2.3,2.4,3.1c0.6,0.4,1.4,1,2.1,0.9c0.6-0.1,1.4-0.9,1.8-1.3c1.5-1.1,3.1-2,4.5-3.1
					c0.1-0.1,0.3-0.2,0.4-0.4c1.7-1.4,3.2-3,4.7-4.5c1.6-1.6,1.2-4,0.4-6c-0.4-0.9-0.8-1.8-1.4-2.6
					C302.1,146.5,301.6,146.9,300.6,147.7z"/>
				<path class="st27" d="M344.7,145.5c-0.1-0.1-0.2-0.2-0.3-0.2c-0.3-0.1-0.6,0.3-0.8,0.6c-0.6,1.2-0.8,2.5-0.5,3.8
					c0.1,0.7,0.4,1.3,0.7,2c0.5,1.2,1,2.4,1.6,3.6c0.4,0.8,0.8,1.6,1.4,2.3s1.5,1.3,2.1,2s1.1,1.5,1.7,2.2c0.4,0.6,0.9,1.2,1.6,1.3
					c0.8,0.1,1.5-0.4,1.9-1.1c0.3-0.7,0.4-1.5,0.3-2.3c-0.2-2.7-1.1-5.2-2.9-7.2C349.3,150,347.1,147.7,344.7,145.5z"/>
			</g>
			<path class="st32" d="M327.3,77.9l-19.1-11c-3.1-1.8-5.7-6.7-5.7-10.9v-0.9c0-4.2,2.5-6.1,5.7-4.3l19.1,11
				c3.1,1.8,5.7,6.7,5.7,10.9v0.9C332.9,77.8,330.4,79.7,327.3,77.9z"/>
			<polygon class="st33" points="362.2,105.2 265.5,238.6 265.5,137.5 315,77.9 			"/>
			<polygon class="st33" points="369.9,141.7 369.9,281.4 325.4,333.2 299.5,318.2 286.2,310.6 265.5,298.6 265.5,287.2 			"/>
			<polygon class="st34" points="324.4,69.5 311,61.7 311,59.3 324.4,67 			"/>
			<g>
				<g>
					<defs>
						<polygon id="SVGID_15_" points="1,1 2,1 1,2 						"/>
					</defs>
					<defs>
						<polygon id="SVGID_16_" points="-1,-1 -2,-1 -1,-2 						"/>
					</defs>
					<clipPath id="SVGID_17_">
						<use xlink:href="#SVGID_15_"  style="overflow:visible;"/>
					</clipPath>
					<clipPath id="SVGID_18_" class="st35">
						<use xlink:href="#SVGID_16_"  style="overflow:visible;"/>
					</clipPath>
					
						<linearGradient id="SVGID_19_" gradientUnits="userSpaceOnUse" x1="125.4002" y1="264.8069" x2="231.2413" y2="448.129" gradientTransform="matrix(1 0 0 -1 87.3168 512)">
						<stop  offset="0" style="stop-color:#000000"/>
						<stop  offset="3.933666e-03" style="stop-color:#030303"/>
						<stop  offset="8.934170e-02" style="stop-color:#3D3D3D"/>
						<stop  offset="0.1769" style="stop-color:#717171"/>
						<stop  offset="0.2646" style="stop-color:#9C9C9C"/>
						<stop  offset="0.3526" style="stop-color:#C0C0C0"/>
						<stop  offset="0.4408" style="stop-color:#DCDCDC"/>
						<stop  offset="0.5295" style="stop-color:#EFEFEF"/>
						<stop  offset="0.6191" style="stop-color:#FBFBFB"/>
						<stop  offset="0.7108" style="stop-color:#FFFFFF"/>
					</linearGradient>
					<polygon class="st36" points="311,59.3 168.5,226.2 253,275 324.4,69.5 324.4,67 					"/>
				</g>
			</g>
			
				<linearGradient id="SVGID_20_" gradientUnits="userSpaceOnUse" x1="125.4002" y1="264.8069" x2="231.2413" y2="448.129" gradientTransform="matrix(1 0 0 -1 87.3168 512)">
				<stop  offset="0" style="stop-color:#00DDFF"/>
				<stop  offset="0.2633" style="stop-color:#00D7F9"/>
				<stop  offset="0.7108" style="stop-color:#00D3F6"/>
			</linearGradient>
			<polygon class="st37" points="311,59.3 168.5,226.2 253,275 324.4,69.5 324.4,67 			"/>
			
				<ellipse transform="matrix(1 -5.420645e-03 5.420645e-03 1 -1.9619 1.1659)" class="st38" cx="214.1" cy="362.5" rx="37.4" ry="21.6"/>
			<g>
				<g>
					<path class="st10" d="M192.2,354.4c-1,1.9-0.9,1.8-0.9,3c0,1.1,0.3,1.7,0.8,2.3c0.5,0.6,2.7,1.3,4.3,0.8s4-3.2,4.2-3.8
						c0.2-0.6,0.7-2.1,0.7-2.1l3.6-2l3.7-2.5l2.2-3.1l-1.2-2.3l-6.5,1.9L192.2,354.4z"/>
					<path class="st10" d="M208,371.1c-0.3,1.3-0.4,1.8-0.4,1.8s-0.3,1.7,0.3,3s2.8,1.8,3.7,1.7c0.9,0,5.5-0.2,6.2-0.6
						s2.1-0.5,2.1-0.5s7.6,0,9.1-0.2c1.4-0.2,5.1-1.1,6.7-2.2c1.6-1.1,2.1-2.1,2.3-2.6c0.2-0.6,0.5-1.7-0.1-2.4
						C237.3,368.5,208,371.1,208,371.1z"/>
					
						<linearGradient id="SVGID_21_" gradientUnits="userSpaceOnUse" x1="-3.2632" y1="245.7501" x2="24.7797" y2="245.7501" gradientTransform="matrix(0.9998 1.900000e-02 1.900000e-02 -0.9998 161.8914 477.4981)">
						<stop  offset="4.947920e-02" style="stop-color:#FEB9B8"/>
						<stop  offset="0.9922" style="stop-color:#FEA5A4"/>
					</linearGradient>
					<path class="st39" d="M191,247.1c-0.2,2-1.9,4.1-1.9,4.1s-0.9-0.7-3.8-1.9c-2.8-1.2-12.5-8-14.6-9.8c-2-1.9-7-6.2-7.5-7.5
						c-0.1-0.4-0.1-1,0.1-1.7c0.4-1.7,1.7-4,3.3-6.4c2.4-3.4,6.6-8.2,9.3-10.9c0,0,2.8,3.5,4.4,6.4c0.8,1.5,1.4,2.9,1.1,3.5
						c-0.9,1.7-6,7.4-6,7.4s0.1,0.4,0.4,1c0,0.1,0.1,0.1,0.1,0.2c0.4,0.9,1.1,2.2,2.1,3.1c1.6,1.6,7.3,7.7,8.5,8.4
						C187.8,243.7,191.3,245.1,191,247.1z"/>
					<path class="st26" d="M181.6,222.8c-0.9,1.7-6,7.4-6,7.4s0.1,0.4,0.4,1c0,0.1,0.1,0.1,0.1,0.2l0,0c-0.7,0.6-1.6,1.1-2.4,1.6
						c-0.5,0.3-1,0.6-1.5,0.9c3.4-2.8,5.8-6.5,7.6-10.5c0.5-1.1-1.6-1.9-1-3.3c0.3-0.6,1.1-0.8,1.9-0.7
						C181.4,220.9,181.9,222.2,181.6,222.8z"/>
					<path class="st26" d="M191,247.1c-0.2,2-1.9,4.1-1.9,4.1s-0.9-0.7-3.8-1.9c-2.8-1.2-12.5-8-14.6-9.8c-2-1.9-7-6.2-7.5-7.5
						c-0.1-0.4-0.1-1,0.1-1.7c1.8,2.9,4.1,5.8,6.8,7.9c1.4,1,2.7,2.1,4.1,3.2c3.6,2.8,7.2,5.6,11.4,7.5c0.6,0.3,2.4,1.2,2.3-0.1
						c-0.1-0.6-0.1-1.1-0.2-1.7c-0.3-2.5-2.5-3.6-4-5.3c-2.3-2.6-4.7-5-6.9-7.7c-0.5-0.5-1.2-1.2-1.6-1.8c-0.3-0.6,0.1-0.8,0.6-1
						c0.4,0.9,1.2,2.3,2.2,3.3c1.6,1.6,7.3,7.7,8.5,8.4C187.8,243.7,191.3,245.1,191,247.1z"/>
					<path class="st27" d="M169.4,221.9c-1.5,2.1-2.9,4.3-3.8,6.8c-0.2,0.5-0.3,0.9-0.3,1.4c0,1.3,1,2.5,2.1,3.3
						c0.4,0.3,0.7,0.6,1.2,0.7c0.6,0.2,1.3-0.1,1.9-0.5c0.5-0.4,0.9-1,1.3-1.5c1.5-2.1,3-4.1,4.4-6.2c0.4-0.6,0.8-1.2,0.7-1.9
						c-0.1-0.5-0.5-1-0.9-1.4c-0.7-0.8-1.2-1.7-1.6-2.6c-0.2-0.6-0.3-2.3-1-2.4c-0.7-0.2-1.6,1.1-2,1.6
						C170.7,220.1,170,221,169.4,221.9z"/>
					<path class="st27" d="M172.3,234.3C172.3,234.4,172.3,234.4,172.3,234.3c-0.9,0.3-1.9,0.6-2,1.6c-0.1,0.7,0.5,1.4,1.1,1.9
						c0.6,0.6,1.3,1.1,1.9,1.7c2.2,2,4.4,3.6,7.1,4.8c0.9,0.4,1.9,0.8,2.8,1.3c0-0.9-0.6-1.7-1.1-2.5c-0.8-1.3-1.2-2.8-1.8-4.3
						c-0.7-1.6-2.3-2.8-3.5-4.1c-0.5-0.6-1-1.5-1.9-1.5C174,233.2,173.2,234,172.3,234.3z"/>
					<path class="st40" d="M185.5,204.5c-4.8-1.5-10.9,8.6-11.5,10s0.6,5.5,2.3,7.3s6.6,2.9,7.8,2.1
						C185.4,223.1,185.5,204.5,185.5,204.5z"/>
					<path class="st11" d="M193.5,349.4c0,0-1.4,1.3-1.8,3.3c-0.4,2-0.6,3.3-0.1,4.6c0.5,1.3,1.8,2.3,4.2,1.3
						c2.4-1.1,4.1-3.7,4.7-4.6c0.7-0.9,3.4-2.7,3.4-2.7s5.9-4.5,5.6-5.7c-0.2-1.2-5.6-0.9-6.5-0.4s-1.4,0.7-3,1
						C198.5,346.4,193.5,349.4,193.5,349.4z"/>
					
						<linearGradient id="SVGID_22_" gradientUnits="userSpaceOnUse" x1="27.4922" y1="129.6662" x2="37.9229" y2="129.6662" gradientTransform="matrix(0.9998 1.900000e-02 1.900000e-02 -0.9998 161.8914 477.4981)">
						<stop  offset="4.947920e-02" style="stop-color:#FEB9B8"/>
						<stop  offset="0.9922" style="stop-color:#FEA5A4"/>
					</linearGradient>
					<path class="st41" d="M191.9,347.7c0.9,2.2,0.5,3.6,0.5,4.9s0.3,2.3,1.8,2.4c1.5,0.2,3.5,0.1,5.1-2.3c1.6-2.3,2.8-3.7,3-4.8
						c0.2-1.1-0.5-1.6-0.8-1.8c-0.3-0.1-2-0.3-2.3-2.5s-2.9-1.7-2.9-1.7L191.9,347.7z"/>
					<path class="st34" d="M190,248.6c-1.8,3.3-4.9,10-5.5,16.9s-0.3,8.5,0.9,12.6s3.2,17.5,3.2,19.9s-0.1,11-0.7,16.3
						c-0.6,5.3-1.6,4.9-0.5,17.1c1.1,12.1,2.3,17.5,2.8,18.4c0.6,0.9,3.9,0.7,6.8-1c2.9-1.7,3.5-3.2,3.6-4.2s1.4-18.7,2-22.2
						s3.9-33.3,3.5-37.9c-0.4-4.5-2.3-32.3-3.3-34.5C201.9,247.8,190,248.6,190,248.6z"/>
					<path class="st26" d="M193.4,276.1c-0.2,4.6-0.3,9.3,0.8,13.8c0.7,2.8,1.8,5.4,2.5,8.2c0.4,1.7,0.7,3.4,0.9,5.1
						c1.8,15.6-2,31.4-1.4,47.1c0,1.1,0.8,2.4,2,2.5c1.1,0.1,2.2-0.5,3-1.4c0.7-0.9,1.2-1.9,1.7-3c1.1-2.1,2.4-4,3.4-6.2
						c1.5-3.3,1.9-6.9,2.3-10.5c1.5-15.4,1-31-1.4-46.3c-0.5-2.9-1-5.9-1.6-8.8c-0.3-1.4-0.7-2.9-1.4-4.1s-1.9-2.3-3.4-2.6
						c-1.6-0.3-3.2,0.5-4.4,1.7C195.1,272.8,193.4,274.5,193.4,276.1z"/>
					<path class="st11" d="M222.4,364.9c3.7,0.6,13.1,1.8,13.8,2s2.3,2.3,1.7,3.9c-0.5,1.6-1.7,2.3-4.3,3.7c-2.7,1.3-8.8,1.8-11,1.3
						c-2.2-0.4-4.3,0-5.8-0.1c-1.4-0.1-7.1,0.7-8.5-1.2c-1.3-1.9-0.3-4.8-0.2-5.8s0.6-2.6,1.4-3.2C210.5,364.9,216,364,222.4,364.9z
						"/>
					
						<linearGradient id="SVGID_23_" gradientUnits="userSpaceOnUse" x1="43.7905" y1="113.0778" x2="61.2102" y2="113.0778" gradientTransform="matrix(0.9998 1.900000e-02 1.900000e-02 -0.9998 161.8914 477.4981)">
						<stop  offset="4.947920e-02" style="stop-color:#FEB9B8"/>
						<stop  offset="0.9922" style="stop-color:#FEA5A4"/>
					</linearGradient>
					<path class="st42" d="M207.9,359.6c1,3.6,0.6,8.2,1.1,10c0.5,1.7,3.7,2.5,7.8,2.2c4-0.4,7.2-1.1,8.1-3c0.8-1.9,0-2.3-0.2-2.8
						s-4.6-1-5.4-2.5c-0.8-1.6-2.2-4.5-2.2-4.5L207.9,359.6z"/>
					<path class="st34" d="M194.1,252.8c-2.9,6.4-6.2,12-5.9,17.8c0.3,5.8,2.2,11.9,4.4,15.3c2.1,3.4,6.6,8.7,6.8,10.8
						c0.2,2.1,2.6,19.1,2.2,29.4c-0.4,10.4-0.3,14.8,0.3,21.2c0.6,6.3,1.5,14.6,2,14.9s5.3,0.6,9.4,0.2c4.2-0.4,5.1-2.4,5.1-2.4
						s-0.5-20.3,0.1-26.5c0.5-6.2,3-34,3.8-40.7s2.4-36.9-1.7-40.3C216.6,249.1,194.1,252.8,194.1,252.8z"/>
					<g>
						<path class="st43" d="M214.1,362.2c-0.9-21.6,0.2-33.2,1.7-47.9c0.4-3.6,0.7-7.4,1.1-11.5l0.4-4c1.7-19.4,2.8-31-2.4-45.7
							l0.6-0.2c5.3,14.7,4.2,26.5,2.4,45.9l-0.4,4c-0.4,4.2-0.7,7.9-1.1,11.5c-1.4,14.6-2.6,26.2-1.7,47.8L214.1,362.2z"/>
					</g>
					<path class="st44" d="M205.3,210.3c-4.1-2.7-12.6-5.5-14.9-5.7c-2.2-0.2-4.2-0.6-6.8,0.4s-5.4,3.8-5,8.1
						c0.4,4.4,0.8,5.8,3.4,13.4c2.7,7.6,4.7,13.3,6.1,19c1.4,5.8,1.2,6.2,1.9,6.9c0.7,0.6,3.7,2.5,10.8,4c7,1.5,12.8-0.7,14.3-2.1
						c1.5-1.4,1.9-7,2.9-10c1-2.9,3.7-9.3,3.8-11.8c0-2.6-3.9-11.7-5.1-13.7c-1.3-2-1.3-2.9-2.9-3.9
						C212.1,213.9,205.3,210.3,205.3,210.3z"/>
					<path class="st26" d="M210.7,259.8c0,0.6,0.4,2.1,1.3,1.8c0.6-0.2,0.5-1.4,0.7-1.9c0.5-2.4,1.5-4.7,1.9-7.1
						c1.6-8.2-0.2-16.6-2.1-24.8c-0.2-0.8-0.4-1.6-0.9-2.3c-0.5-0.6-1.1-1-1.8-1.3c-0.9-0.3-1.8-0.5-2.7-0.3s-2,0.5-2.2,1.4
						c-0.3,1.6-0.6,3.1-0.8,4.7c-0.2,1-0.3,2.1-0.2,3.1s0.3,2,0.5,2.9c0.4,1.6,0.7,3,1.4,4.6c0.8,1.6,1.6,3.1,2,4.8
						c0.4,1.6,0.6,3.1,1.1,4.7C210,253.3,210.5,256.5,210.7,259.8z"/>
					
						<linearGradient id="SVGID_24_" gradientUnits="userSpaceOnUse" x1="37.2104" y1="231.3865" x2="58.0085" y2="231.3865" gradientTransform="matrix(0.9998 1.900000e-02 1.900000e-02 -0.9998 161.8914 477.4981)">
						<stop  offset="4.947920e-02" style="stop-color:#FEB9B8"/>
						<stop  offset="0.9922" style="stop-color:#FEA5A4"/>
					</linearGradient>
					<path class="st45" d="M224.2,252.6c-0.1,2-1.1,5.2-1.8,6.7s-5.7,7.3-5.7,7.3s-1.1,2-3.5,1.6c-2.4-0.3-3.1-2.5-4.5-3.9
						c-0.6-0.6-1-1.5-1.3-2.3c-0.3-1-0.4-1.9-0.5-2.4c0-0.3-0.3-0.6-0.6-1c-0.5-0.6-1.2-1.1-1.7-1.6c-0.1-0.1-0.2-0.2-0.2-0.2
						c-0.7-0.7-1.6-1.9-0.9-2.7c0.7-0.8,1.5-0.2,2.1,0.3c0.6,0.4,1.7,1.7,2,2.1s2.4,0.7,2.4,0.7s1.4-0.3,1.7-0.9
						c0.4-0.6,0.9-3.6,0.7-5.3c-0.1-1.7-6.4-15.1-7.3-17c-0.8-2,0.2-5.6,0.2-5.6l4.9-2.6c0,0,8,0.2,8.6,1.8s0.7,5.8,1.2,10
						c0.4,3.3,2.8,9.5,3.7,12.9C224,251.5,224.2,252.2,224.2,252.6z"/>
					
						<linearGradient id="SVGID_25_" gradientUnits="userSpaceOnUse" x1="21.2141" y1="285.9608" x2="46.9852" y2="285.9608" gradientTransform="matrix(0.9998 1.900000e-02 1.900000e-02 -0.9998 161.8914 477.4981)">
						<stop  offset="4.947920e-02" style="stop-color:#FEB9B8"/>
						<stop  offset="0.9922" style="stop-color:#FEA5A4"/>
					</linearGradient>
					<path class="st46" d="M214.2,192.5c-0.3,2.5-0.9,4-1.4,4.9c-0.4,0.7-0.8,1-0.8,1l-3.1,1c0,0-2.2,1.4-2.6,1.8
						c-0.1,0.1-0.2,0.4-0.3,0.7c-0.2,0.7-0.4,1.9-0.6,3.2c-0.3,1.9-1.1,5.5-1.3,5.5s-0.7-0.2-6.2-0.9s-9.4-1.9-9.7-2.9
						s1.9-2.3,2.7-4.5c0.8-2.3,0.6-7.5-0.7-12l5.6-6.7c0,0,11.9-9.8,14-9.5s3.3,4.7,3.7,6.7C213.9,182.7,214.7,187.9,214.2,192.5z"
						/>
					<path class="st29" d="M209.6,192.9c0,0,0.2-2.6-0.3-3.3c-0.4-0.7-1.8-1.7-2.9-0.5c-1.2,1.2-3.2,2.7-3.9,6
						c-0.7,3.2-1.1,4.5-2.3,5.2c-1.2,0.8-4.7-0.3-5.4-0.7c-0.8-0.5-3,1-3.8,0.6s-2.9-1.7-3.5-3.2s-2.7-6-3.2-10.9s-2.1-11.5,4-13.7
						c4.6-3.2,10.1-3.4,11.5-2.5c2.6-0.4,7.4,0.7,9.1,2.1c1.7,1.3,4.2,3.5,3.7,6.8c-0.5,3.2-1.3,5.8-1.3,5.8s0.7,2.1-0.1,4.4
						C210.6,191.2,209.6,192.9,209.6,192.9z"/>
					
						<linearGradient id="SVGID_26_" gradientUnits="userSpaceOnUse" x1="38.0676" y1="286.3305" x2="41.018" y2="286.3305" gradientTransform="matrix(0.9998 1.900000e-02 1.900000e-02 -0.9998 161.8914 477.4981)">
						<stop  offset="4.947920e-02" style="stop-color:#FEB9B8"/>
						<stop  offset="0.9922" style="stop-color:#FEA5A4"/>
					</linearGradient>
					<path class="st47" d="M208.3,193.5c0,1.1-0.3,2-1.1,2.1c-0.8,0-1.5-2.5-1.8-4.3c-0.2-1.8,0.8-2.7,1.5-2.9c0.8-0.3,1,1.3,0.9,2
						C207.7,191.1,208.3,193.5,208.3,193.5z"/>
					<path class="st26" d="M206.5,258.7c-0.5-0.6-1.2-1.1-1.7-1.6c0.2,0,0.3,0,0.4,0C205.8,257.4,206.3,258,206.5,258.7z"/>
					<path class="st26" d="M224.2,252.6c-0.1,2-1.1,5.2-1.8,6.7s-5.7,7.3-5.7,7.3s-1.1,2-3.5,1.6c-2.4-0.3-3.1-2.5-4.5-3.9
						c-0.6-0.6-1-1.5-1.3-2.3c0.4,0.5,1,0.9,1.5,1.5c0.8,0.9,1.2,2,1.9,2.9c0.6,1,1.6,1.8,2.8,1.8c1.1-0.1,1.9-0.9,2.6-1.7
						c1.4-1.6,2.6-3.4,3.3-5.5c0.2-0.5,0.4-0.9,0-1.4c-0.5-0.6-1.2-1-1.8-1.5s-1.2-1.2-1.6-1.9c0.3,0.3,0.7,0.6,1,0.8
						c0.4,0.2,0.8,0.5,1.2,0.5c0.8,0.1,1.5-0.3,2.3-0.6c0.5-0.2,1-0.3,1.4-0.6c1.2-0.8,1.4-2.6,1.6-3.8c0.1-0.7,0.1-1.4,0.1-2.1
						C224,251.5,224.2,252.2,224.2,252.6z"/>
					<path class="st27" d="M210.3,235.9c0.2,1.6,0.5,3.1,0.9,4.7c0.4,1.4,1.1,2.9,1.3,4.4c0.2,1.2,0.2,2.3,0.5,3.5
						c0.4,1.4,0.9,2.8,1.7,4c0.3,0.6,0.8,1.1,1.3,1.4c0.4,0.3,1,0.5,1.5,0.6c1.2,0.3,2.4,0.3,3.6,0c0.2,0,0.4-0.1,0.5-0.2
						c0.2-0.2,0.3-0.5,0.3-0.8c0.5-6.2-2.3-12.2-3.2-18.3c-0.2-1.6-0.5-3.3-0.6-4.9c0-0.2,0-0.3-0.1-0.5c-0.2-0.3-0.6-0.3-0.9-0.3
						c-1.3,0-2.7-0.2-3.9,0c-1.3,0.2-2.3,1.3-2.7,2.6C210.1,233.3,210.2,234.6,210.3,235.9z"/>
					<path class="st27" d="M216.9,259.3c-0.5-0.8-0.8-1.7-0.9-2.6c-0.1-0.5,0-1,0.1-1.6c0.1-1.7,0.2-4-0.8-5.5
						c-0.1-0.1-0.2-0.3-0.4-0.2c-0.1,0-0.2,0.2-0.2,0.3c-0.4,1.3-0.3,2.8-0.6,4.2c-0.3,1.3-1,2.4-1.6,3.6c-0.8,1.5-1.1,3.3-1.3,4.9
						c-0.1,0.5-0.1,0.9,0,1.4c0.2,1.1,1.2,2,2.3,2.4c0.1,0,0.3,0.1,0.4,0.1c0.2,0,0.3-0.2,0.4-0.3c1.1-1.1,1.9-2.5,2.6-3.9
						c0.3-0.5,0.5-1,0.5-1.5C217.4,260.1,217.1,259.7,216.9,259.3z"/>
					<path class="st26" d="M212.9,197.4c-0.4,0.7-0.8,1-0.8,1l-3.1,1c0,0-2.2,1.4-2.6,1.8c-0.1,0.1-0.2,0.4-0.3,0.7
						c0.1-1.1,0.2-2.2,0.1-3.3c0.1,0.9,1,0.8,1.6,0.6c0.8-0.3,1.7-0.5,2.5-0.7c0.1,0,0.2-0.1,0.3-0.1
						C211.4,198,212.1,197.7,212.9,197.4z"/>
					<path class="st40" d="M208.6,214.7c-3,0.6-6.8,4.8-6.3,9s2,9.2,2.8,10.4c2.5-4.5,9.6-5.5,10.5-5.5s3.3-0.1,4,1.1
						c0.7,1.1,0.8,1.5,0.8,1.5s-0.6-2.8-1.4-6.5c-0.8-3.7-2.5-7.9-5-9.1C211.5,214.3,208.6,214.7,208.6,214.7z"/>
				</g>
				<path class="st18" d="M190.2,172.5c-3.4-1.7-9-4.3-12.2,0.5s-2.8,11.1,1.4,19.1c4.3,8.1,5,23.2-0.3,26.7s-5.6,2.3-5.6,2.3
					s6,7.5,17.9,0.2s3.1-25.4,1.8-27.2c-4.1-6.1-6.3-12.9-4.8-14.4c1.5-1.6,2.4-2.2,2.4-2.2S193.3,172.6,190.2,172.5z"/>
				<path class="st48" d="M188.7,171.8c0.9,0.3,1.4,1.6,1.4,3.1s-0.9,3.1-1.3,3.7c-0.4,0.6-0.6,0.6-0.8,1.5
					c-0.3,0.8-0.1,1.3-0.1,1.3s2.6,0.3,3.6-0.3c2.3-1.4,2.7-2.4,3.2-4.9c0.5-2.6-0.9-4.9-2.4-5.7c-1.5-0.7-2.9-0.6-3.6-0.2
					c-0.8,0.3-1,1-1,1L188.7,171.8z"/>
			</g>
			<g>
				<g>
					<defs>
						<polygon id="SVGID_27_" points="1,1 2,1 1,2 						"/>
					</defs>
					<defs>
						<polygon id="SVGID_28_" points="-1,-1 -2,-1 -1,-2 						"/>
					</defs>
					<clipPath id="SVGID_29_">
						<use xlink:href="#SVGID_27_"  style="overflow:visible;"/>
					</clipPath>
					<clipPath id="SVGID_30_" class="st49">
						<use xlink:href="#SVGID_28_"  style="overflow:visible;"/>
					</clipPath>
					
						<linearGradient id="SVGID_31_" gradientUnits="userSpaceOnUse" x1="123.4644" y1="226.6372" x2="123.4644" y2="295.8628" gradientTransform="matrix(1 0 0 -1 87.3168 512)">
						<stop  offset="0" style="stop-color:#FFFFFF"/>
						<stop  offset="8.587855e-02" style="stop-color:#F7F7F7"/>
						<stop  offset="0.2181" style="stop-color:#E2E2E2"/>
						<stop  offset="0.3802" style="stop-color:#BEBEBE"/>
						<stop  offset="0.566" style="stop-color:#8D8D8D"/>
						<stop  offset="0.7717" style="stop-color:#4E4E4E"/>
						<stop  offset="0.9912" style="stop-color:#030303"/>
						<stop  offset="1" style="stop-color:#000000"/>
					</linearGradient>
					<path class="st50" d="M168.3,275.3c23.3,13.5,61.3,13.4,84.7-0.2c23.5-13.6,23.6-35.5,0.3-48.9c-23.3-13.5-61.3-13.4-84.7,0.2
						C145.1,239.9,144.9,261.8,168.3,275.3z"/>
				</g>
			</g>
			
				<linearGradient id="SVGID_32_" gradientUnits="userSpaceOnUse" x1="123.4644" y1="226.6372" x2="123.4644" y2="295.8628" gradientTransform="matrix(1 0 0 -1 87.3168 512)">
				<stop  offset="0" style="stop-color:#00C2E3"/>
				<stop  offset="1" style="stop-color:#00C2E3"/>
			</linearGradient>
			<path class="st51" d="M168.3,275.3c23.3,13.5,61.3,13.4,84.7-0.2c23.5-13.6,23.6-35.5,0.3-48.9c-23.3-13.5-61.3-13.4-84.7,0.2
				C145.1,239.9,144.9,261.8,168.3,275.3z"/>
			<g>
				<g>
					<defs>
						<polygon id="SVGID_33_" points="1,1 2,1 1,2 						"/>
					</defs>
					<defs>
						<polygon id="SVGID_34_" points="-1,-1 -2,-1 -1,-2 						"/>
					</defs>
					<clipPath id="SVGID_35_">
						<use xlink:href="#SVGID_33_"  style="overflow:visible;"/>
					</clipPath>
					<clipPath id="SVGID_36_" class="st52">
						<use xlink:href="#SVGID_34_"  style="overflow:visible;"/>
					</clipPath>
					
						<linearGradient id="SVGID_37_" gradientUnits="userSpaceOnUse" x1="123.5046" y1="110.6372" x2="123.5046" y2="261.8" gradientTransform="matrix(1 0 0 -1 87.3168 512)">
						<stop  offset="0" style="stop-color:#FFFFFF"/>
						<stop  offset="9.247699e-02" style="stop-color:#F7F7F7"/>
						<stop  offset="0.2348" style="stop-color:#E2E2E2"/>
						<stop  offset="0.4093" style="stop-color:#BEBEBE"/>
						<stop  offset="0.6092" style="stop-color:#8D8D8D"/>
						<stop  offset="0.8275" style="stop-color:#505050"/>
						<stop  offset="1" style="stop-color:#1A1A1A"/>
					</linearGradient>
					<path class="st53" d="M253,275.1c-23.5,13.6-61.4,13.6-84.7,0.2c-6-3.5-10.5-7.5-13.4-11.9c-0.4,0.7-4-12.7-4-12.7
						s-0.2,113.7,0.1,117.8c0.6,8.3,6.4,16.5,17.3,22.8c23.3,13.5,61.3,13.4,84.7-0.2c10.9-6.3,16.7-14.4,17.6-22.5
						c0.4-3.6,0.1-118.4,0.1-118.4s-3.2,14.1-4,12.8C263.7,267.4,259.2,271.6,253,275.1z"/>
				</g>
			</g>
			
				<linearGradient id="SVGID_38_" gradientUnits="userSpaceOnUse" x1="123.5046" y1="110.6372" x2="123.5046" y2="261.8" gradientTransform="matrix(1 0 0 -1 87.3168 512)">
				<stop  offset="0" style="stop-color:#00C2E3"/>
				<stop  offset="1" style="stop-color:#00C2E3"/>
			</linearGradient>
			<path class="st54" d="M253,275.1c-23.5,13.6-61.4,13.6-84.7,0.2c-6-3.5-10.5-7.5-13.4-11.9c-0.4,0.7-4-12.7-4-12.7
				s-0.2,113.7,0.1,117.8c0.6,8.3,6.4,16.5,17.3,22.8c23.3,13.5,61.3,13.4,84.7-0.2c10.9-6.3,16.7-14.4,17.6-22.5
				c0.4-3.6,0.1-118.4,0.1-118.4s-3.2,14.1-4,12.8C263.7,267.4,259.2,271.6,253,275.1z"/>
			<g>
				<g class="st55">
					<path class="st56" d="M330.5,246.1L292.3,224c-5.4-3.1-9.8-11.5-9.8-18.7l0,0c0-7.2,4.4-10.5,9.8-7.4l38.2,22.1
						c5.4,3.1,9.8,11.5,9.8,18.7l0,0C340.3,245.9,335.9,249.2,330.5,246.1z"/>
					<path class="st57" d="M334.4,248.1c-1.4,0-2.8-0.4-4.3-1.3l-38.2-22.1c-5.6-3.2-10.2-11.9-10.2-19.4c0-4.1,1.4-7.2,3.8-8.6
						c2-1.2,4.6-1,7.2,0.5l38.2,22.1c5.6,3.2,10.2,11.9,10.2,19.4c0,4.1-1.4,7.2-3.8,8.6C336.4,247.8,335.4,248.1,334.4,248.1z
						 M288.4,197.6c-0.8,0-1.5,0.2-2.1,0.5c-1.9,1.1-3,3.7-3,7.2c0,6.9,4.2,15,9.4,18l38.2,22.1c2.1,1.2,4.1,1.4,5.6,0.5
						c1.9-1.1,3-3.7,3-7.2c0-6.9-4.2-15-9.4-18l-38.2-22.1C290.7,198,289.5,197.6,288.4,197.6z"/>
				</g>
				<g>
					<path class="st58" d="M294.1,208.8v1.6l-1.9-1.1v5.7l-1.6-0.9v-5.7l-1.9-1.1v-1.6L294.1,208.8z"/>
					<path class="st58" d="M298.5,218.6l-0.9-2.5l0,0l-1.2-0.7v2l-1.6-0.9v-7.2l2.8,1.6c1.7,1,2.6,2.4,2.6,4c0,1.1-0.4,1.7-1.1,1.7
						l1.3,3.1L298.5,218.6z M296.4,213.8l1.2,0.7c0.7,0.4,1,0.2,1-0.5s-0.4-1.3-1-1.7l-1.2-0.7V213.8z"/>
					<path class="st58" d="M304.5,219.7v2.3l-1.6-0.9v-2.3l-2.3-6.3l1.6,0.9l1.5,4l1.5-2.3l1.6,0.9L304.5,219.7z"/>
					<path class="st58" d="M311.4,218.8l2.8,6v-4.3l1.5,0.9v7.2l-1.4-0.8l-2.9-6v4.3l-1.5-0.9V218L311.4,218.8z"/>
					<path class="st58" d="M323.4,229.3c0,2.1-1.5,2.9-3.4,1.7c-1.9-1.1-3.4-3.5-3.4-5.7c0-2.1,1.5-2.8,3.4-1.7
						C322,224.8,323.4,227.2,323.4,229.3z M318.3,226.4c0,1.2,0.8,2.5,1.7,3.1c0.9,0.5,1.7,0.1,1.7-1.1c0-1.2-0.8-2.5-1.7-3
						C319.1,224.8,318.3,225.2,318.3,226.4z"/>
					<path class="st58" d="M325.3,226.8l1.2,5.9l1.2-4.5l1.6,0.9l1.2,5.9l1.2-4.5l1.7,1l-2.1,6l-1.7-1l-1.1-5.5l-1.2,4.2l-1.7-1
						l-2.1-8.4L325.3,226.8z"/>
				</g>
			</g>
		</g>
		<g>
			<g>
				<polygon class="st34" points="361.9,228.5 353.7,223.8 353.7,214.4 361.9,219.1 				"/>
				<path class="st57" d="M362.3,229.1l-8.9-5.1v-10.2l8.9,5.1V229.1z M354.1,223.6l7.5,4.3v-8.6l-7.5-4.3V223.6z"/>
			</g>
			<g>
				<polygon class="st59" points="361.9,243.2 353.7,238.4 353.7,229 361.9,233.7 				"/>
				<path class="st57" d="M362.3,243.8l-8.9-5.1v-10.2l8.9,5.1V243.8z M354.1,238.2l7.5,4.3v-8.6l-7.5-4.3V238.2z"/>
			</g>
			<g>
				<polygon class="st17" points="364.1,263.4 351.6,256.2 351.6,241.9 364.1,249.1 				"/>
				<path class="st57" d="M364.4,264l-13.1-7.6v-15.1l13.1,7.6V264z M352,256l11.8,6.8v-13.5l-11.8-6.8V256z"/>
			</g>
			<g>
				<polygon class="st60" points="361.9,275.7 353.7,270.9 353.7,261.5 361.9,266.3 				"/>
				<path class="st57" d="M362.3,276.3l-8.9-5.1V261l8.9,5.1V276.3z M354.1,270.7l7.5,4.3v-8.6l-7.5-4.3V270.7z"/>
			</g>
		</g>
	</g>
	<g>
		<path class="st1" d="M246.4,491.7l-26.5-15.3c-2.4-1.4-3.8-3.3-3.8-5.3c0-1.7,1-3.2,2.8-4.3l123.8-70.7c1.6-0.9,3.9-1.5,6.3-1.5
			c2.9,0,5.8,0.7,8,2l26.5,15.3c2.4,1.4,3.8,3.3,3.8,5.3c0,1.7-1,3.2-2.8,4.3l-123.8,70.7c-1.6,0.9-3.9,1.5-6.3,1.5
			C251.5,493.7,248.6,492.9,246.4,491.7z"/>
		<g>
			<g>
				<path class="st61" d="M364.5,404.1l-3.8,2.2v-72.6c0-6-4.3-8.5-9.5-5.4l-57.2,33v-4.4l57.2-33c7.4-4.3,13.4-0.8,13.4,7.6v72.6
					H364.5z"/>
			</g>
			<g>
				<path class="st61" d="M349.2,399.3c0-1,0.7-2.3,1.6-2.8c0.5-0.3,0.9-0.3,1.2-0.1l0,0l27.3,15.8l-0.3,0.4c0,0.1,0,0.1,0,0.2
					c0,1-0.7,2.3-1.6,2.8c-0.1,0-0.1,0.1-0.2,0.1l-0.3,0.4l-27.2-15.8h-0.1l0,0l0,0C349.4,400.1,349.2,399.8,349.2,399.3z"/>
				<path class="st61" d="M379.8,413.3c0,1-0.7,2.3-1.6,2.8s-1.6,0.1-1.6-0.9s0.7-2.3,1.6-2.8C379,411.8,379.8,412.2,379.8,413.3z"
					/>
				<path class="st61" d="M379.8,413.3c0,1-0.7,2.2-1.6,2.8c-0.9,0.5-1.6,0.1-1.6-0.9s0.7-2.2,1.6-2.8
					C379.1,411.9,379.8,412.3,379.8,413.3z"/>
			</g>
		</g>
		<g>
			<g>
				<g>
					<g>
						<path class="st62" d="M365.4,365c-1.3,0.7-6.8-1.1-14.1-4.5c-4.4-2.1-9.4-4.7-14.5-7.6c-3.8-2.2-7.2-4.3-10.1-6.3
							c-7.9-5.2-12.5-9.4-11-10.2c1.4-0.8,8,1.5,16.5,5.7c3.8,1.8,7.9,4,12.1,6.5c3.1,1.8,6,3.6,8.6,5.2l0,0
							C361.7,359.4,367,364.1,365.4,365z"/>
						
							<linearGradient id="SVGID_39_" gradientUnits="userSpaceOnUse" x1="2223.4143" y1="131.3833" x2="2275.5217" y2="131.3833" gradientTransform="matrix(-1 0 0 -1 2591.0247 512)">
							<stop  offset="0" style="stop-color:#8FD496"/>
							<stop  offset="3.498029e-02" style="stop-color:#99E1A1"/>
							<stop  offset="9.105949e-02" style="stop-color:#A3EDAC"/>
							<stop  offset="0.1649" style="stop-color:#A8F5B2"/>
							<stop  offset="0.3242" style="stop-color:#AAF7B4"/>
						</linearGradient>
						<path class="st63" d="M314.5,395.4l1-58.7l50.2,27.7l0.9,58.5l0,0v0.2l0,0c0,0.4-0.2,0.7-0.5,0.9c-2.7,2.2-16.4-2.6-30.5-10.8
							C323,406,314.2,398.5,314.5,395.4L314.5,395.4z"/>
						<path class="st64" d="M353.2,359.5l-0.3,0.3c-0.3,0.3-0.5,0.6-0.9,1c-2.3,2.6-6.5,6.7-11.4,6.7c-1.5,0-2.9-0.4-4.3-1.2
							c-5.4-3.1-8.1-11.7-8.8-15.7c-0.3-1.6-0.3-2.8-0.2-3.7c0.2-1.8,0.8-2.5,1-2.8c1-1.1,2.5-1.7,4.5-1.8c3.8,1.8,7.9,4,12.1,6.5
							c3.1,1.8,6,3.6,8.6,5.2l0,0c0.3,0.6,0.5,1.2,0.6,1.8C354.4,357.3,354,358.6,353.2,359.5z"/>
						<path class="st65" d="M329.7,347.5c-0.2,4.2,2.9,14,7.8,16.9c2.7,1.6,5.6,0.7,8-0.8c2-1.3,3.8-3.1,4.9-4.4
							c0.4-0.4,0.7-0.8,0.9-1.1l0.1-0.1c0.2-0.2,0.3-0.5,0.4-0.8c0.1-0.7-0.1-1.5-0.6-2.3c-0.2-0.3-0.4-0.7-0.7-1l0,0
							c-0.6-0.8-1.3-1.6-2.3-2.4c-1.2-1.1-2.7-2.1-4.4-3.1c-3-1.7-6-2.8-8.5-3.3c-0.1,0-0.3,0-0.4-0.1c-0.4-0.1-0.8-0.1-1.2-0.1
							c0,0,0,0-0.1,0c-1-0.1-1.9,0-2.6,0.3c-0.4,0.1-0.7,0.4-1,0.6c-0.1,0.1-0.2,0.2-0.2,0.4C329.8,346.5,329.7,346.9,329.7,347.5z"
							/>
						
							<linearGradient id="SVGID_40_" gradientUnits="userSpaceOnUse" x1="2278.137" y1="152.8623" x2="2279.793" y2="174.9104" gradientTransform="matrix(-1 0 0 -1 2591.0247 512)">
							<stop  offset="0" style="stop-color:#8DD995"/>
							<stop  offset="0.154" style="stop-color:#98DE9C"/>
							<stop  offset="0.3242" style="stop-color:#A0E1A1"/>
						</linearGradient>
						<path class="st66" d="M301.7,343c0,0-0.1,6.8,2.4,10.5c2.6,3.8,4.9,5.1,8.5,5.1c0.9,0,2.7-1.6,2.7-1.6
							c-0.2-15.6,3.4-20.1,6-19.7C321.3,337.3,310,330.5,301.7,343z"/>
						
							<linearGradient id="SVGID_41_" gradientUnits="userSpaceOnUse" x1="2230.7847" y1="131.3535" x2="2217.5627" y2="137.9645" gradientTransform="matrix(-1 0 0 -1 2591.0247 512)">
							<stop  offset="0" style="stop-color:#8DD995"/>
							<stop  offset="0.154" style="stop-color:#98DE9C"/>
							<stop  offset="0.3242" style="stop-color:#A0E1A1"/>
						</linearGradient>
						<path class="st67" d="M381.1,389.3c0.1,3-11.6,3.7-15.5,0.7l-2.3-4.6c-2.4-6.2-2.9-16.5-2.1-21.9c0.2-1.5,1.5-2.9,0.4-3.5
							C360.8,359.5,380.5,368.1,381.1,389.3z"/>
						<path class="st68" d="M345.5,363.5c-2.4,1.6-5.2,2.4-8,0.8c-5.9-3.4-9.1-16.6-7.4-18.6c0.9-1,2.8-1.2,5.3-0.7
							c-4.1,0-4.3,2.6-3.5,5.2s3.6,8.6,8.2,11.4C342.5,362.9,344.4,363.4,345.5,363.5z"/>
					</g>
				</g>
				<polygon class="st69" points="330,382.1 324.8,381.2 319.5,376 319.5,364 330,370 				"/>
				<g>
					<g>
						<path class="st70" d="M329.9,346.1c7.4,2.9,14.3,6.7,21.5,11.8c0.2-0.2,0.3-0.5,0.4-0.8c0.1-0.7-0.1-1.5-0.6-2.3
							c-0.2-0.1-0.4-0.3-0.5-0.4c-0.7-0.5-1.4-0.9-2-1.4c-4.6-3.1-9.1-5.6-13.7-7.7c-0.4-0.2-0.7-0.3-1.1-0.5c0,0,0,0-0.1,0l0,0
							c-1-0.1-1.9,0-2.6,0.3c-0.4,0.1-0.7,0.4-1,0.6C330.1,345.8,330,346,329.9,346.1z"/>
					</g>
					<path class="st70" d="M334.9,345.4l1.7,1l9.5,5.5l2.8,1.6l2,1.1l-1.5-6.6c-0.9-2.1-2.4-3.9-4-4.9l-4.9-2.8
						c-1.3-0.7-2.5-0.9-3.3-0.4c-0.3,0.1-1.6,0.7-1.8,1l0,0L334.9,345.4z M337.9,346.3L337.9,346.3l0.3-0.9l0,0l0.6-2
						c0.3,0.1,0.6,0.2,1,0.4l3,1.7c1,0.6,1.9,1.7,2.5,3l0.4,1.6l0.2,0.8L337.9,346.3z"/>
				</g>
				<g>
					<g>
						<path class="st71" d="M329.7,347.5c7.1,2.9,13.8,6.6,20.7,11.6c0.4-0.4,0.7-0.8,0.9-1.1l0.1-0.1c0.2-0.2,0.3-0.5,0.4-0.8
							c-0.9-0.7-1.8-1.3-2.7-1.9c-5.3-3.7-10.5-6.7-15.8-9.1c-0.7-0.3-1.5-0.7-2.2-1c-0.4,0.1-0.7,0.4-1,0.6
							c-0.1,0.1-0.2,0.2-0.2,0.4C329.8,346.5,329.7,346.9,329.7,347.5z"/>
					</g>
					<path class="st71" d="M333.3,346.2l15.9,9.2v-0.2l-0.4-1.8l-0.1-0.4l-0.4-1.6l-0.6-2.6c-0.9-2.1-2.4-3.9-4-4.9l-4.9-2.8
						c-0.9-0.5-1.7-0.7-2.5-0.6c-0.4,0-0.8,0.2-1.2,0.4l0,0c-0.2,0.1-0.3,0.2-0.4,0.4l-1,3.4l0,0l-0.4,1.3V346.2z M345.8,350.8
						l-7.8-4.5v-0.1l0.2-0.8l0,0l0.6-2c0.3,0.1,0.6,0.2,1,0.4l3,1.7c1,0.6,1.9,1.7,2.5,3l0.4,1.6L345.8,350.8z"/>
					<path class="st70" d="M336.4,346.9l9.8,5.6v-0.1l-0.1-0.6l-0.1-0.5l-0.1-0.3l-0.1-0.2l-7.8-4.5v-0.1l0.2-0.8l0,0l0.6-2
						c-0.2,0-0.4,0-0.6,0c-0.4,0-0.7,0.2-1,0.5l-0.6,2.1l0,0l-0.1,0.4L336.4,346.9L336.4,346.9z"/>
				</g>
				<g>
					<path class="st58" d="M341.4,341.8c0,0.7,1.3,0.6,1.3,0.1v-1.3c0-1.3-0.5-2.9-1.2-4.2c-2.7-4.6-3.2-7.1-1.7-8
						c1.4-0.8,3.1,0.5,4.2,2c1.3,1.8,2.3,4.5,1.5,6v0.1c-0.3,0.8,0.5,1.5,1.2,1.2l0,0c1.1-2.1-0.2-5.7-1.9-8.1
						c-1.9-2.6-4.2-3.7-5.8-2.8c-2.1,1.2-1.5,4.6,1.7,10.1c0.6,1,0.9,2,0.9,3v1.9H341.4z"/>
				</g>
			</g>
		</g>
		<g>
			<g>
				<g>
					<path class="st72" d="M349.9,373.5c-1.3,0.7-6.8-1.1-14.1-4.5c-4.4-2.1-9.4-4.7-14.5-7.6c-3.8-2.2-7.2-4.3-10.1-6.3
						c-7.9-5.2-12.5-9.4-11-10.2c1.4-0.8,8,1.5,16.5,5.7c3.8,1.8,7.9,4,12.1,6.5c3.1,1.8,6,3.6,8.6,5.2l0,0
						C346.2,367.9,351.5,372.6,349.9,373.5z"/>
					
						<linearGradient id="SVGID_42_" gradientUnits="userSpaceOnUse" x1="2238.9307" y1="122.8833" x2="2291.0381" y2="122.8833" gradientTransform="matrix(-1 0 0 -1 2591.0247 512)">
						<stop  offset="0" style="stop-color:#4A74AB"/>
						<stop  offset="2.159713e-02" style="stop-color:#5482BF"/>
						<stop  offset="5.464983e-02" style="stop-color:#5F91D6"/>
						<stop  offset="9.254827e-02" style="stop-color:#689EE9"/>
						<stop  offset="0.1376" style="stop-color:#6EA7F5"/>
						<stop  offset="0.1967" style="stop-color:#72ACFD"/>
						<stop  offset="0.3242" style="stop-color:#73ADFF"/>
					</linearGradient>
					<path class="st73" d="M299,403.9l1-58.7l50.2,27.7l0.9,58.5l0,0v0.2l0,0c0,0.4-0.2,0.7-0.5,0.9c-2.7,2.2-16.4-2.6-30.5-10.8
						C307.5,414.5,298.7,407,299,403.9L299,403.9z"/>
					<path class="st69" d="M337.7,368l-0.3,0.3c-0.3,0.3-0.5,0.6-0.9,1c-2.3,2.6-6.5,6.7-11.4,6.7c-1.5,0-2.9-0.4-4.3-1.2
						c-5.4-3.1-8.1-11.7-8.8-15.7c-0.3-1.6-0.3-2.8-0.2-3.7c0.2-1.8,0.8-2.5,1-2.8c1-1.1,2.5-1.7,4.5-1.8c3.8,1.8,7.9,4,12.1,6.5
						c3.1,1.8,6,3.6,8.6,5.2l0,0c0.3,0.6,0.5,1.2,0.6,1.8C338.8,365.8,338.5,367.1,337.7,368z"/>
					<path class="st74" d="M314.2,356c-0.2,4.2,2.9,14,7.8,16.9c2.7,1.6,5.6,0.7,8-0.8c2-1.3,3.8-3.1,4.9-4.4
						c0.4-0.4,0.7-0.8,0.9-1.1l0.1-0.1c0.2-0.2,0.3-0.5,0.4-0.8c0.1-0.7-0.1-1.5-0.6-2.3c-0.2-0.3-0.4-0.7-0.7-1l0,0
						c-0.6-0.8-1.3-1.6-2.3-2.4c-1.2-1.1-2.7-2.1-4.4-3.1c-3-1.7-6-2.8-8.5-3.3c-0.1,0-0.3,0-0.4-0.1c-0.4-0.1-0.8-0.1-1.2-0.1
						c0,0,0,0-0.1,0c-1-0.1-1.9,0-2.6,0.3c-0.4,0.1-0.7,0.4-1,0.6c-0.1,0.1-0.2,0.2-0.2,0.4C314.3,355,314.2,355.4,314.2,356z"/>
					
						<linearGradient id="SVGID_43_" gradientUnits="userSpaceOnUse" x1="2293.636" y1="144.3523" x2="2295.2922" y2="166.4006" gradientTransform="matrix(-1 0 0 -1 2591.0247 512)">
						<stop  offset="0" style="stop-color:#476FA3"/>
						<stop  offset="2.679681e-02" style="stop-color:#4973A5"/>
						<stop  offset="0.2056" style="stop-color:#5687B3"/>
						<stop  offset="0.3242" style="stop-color:#5B8FB8"/>
					</linearGradient>
					<path class="st75" d="M286.2,351.5c0,0-0.1,6.8,2.4,10.5c2.6,3.8,4.9,5.1,8.5,5.1c0.9,0,2.7-1.6,2.7-1.6
						c-0.2-15.6,3.4-20.1,6-19.7C305.7,345.8,294.5,339,286.2,351.5z"/>
					
						<linearGradient id="SVGID_44_" gradientUnits="userSpaceOnUse" x1="2246.3025" y1="122.8447" x2="2233.0808" y2="129.4556" gradientTransform="matrix(-1 0 0 -1 2591.0247 512)">
						<stop  offset="0" style="stop-color:#476FA3"/>
						<stop  offset="2.679681e-02" style="stop-color:#4973A5"/>
						<stop  offset="0.2056" style="stop-color:#5687B3"/>
						<stop  offset="0.3242" style="stop-color:#5B8FB8"/>
					</linearGradient>
					<path class="st76" d="M365.6,397.8c0.1,3-11.6,3.7-15.5,0.7l-2.3-4.6c-2.4-6.2-2.9-16.5-2.1-21.9c0.2-1.5,1.5-2.9,0.4-3.5
						C345.3,368,364.9,376.6,365.6,397.8z"/>
					<path class="st77" d="M330,372c-2.4,1.6-5.2,2.4-8,0.8c-5.9-3.4-9.1-16.6-7.4-18.6c0.9-1,2.8-1.2,5.3-0.7
						c-4.1,0-4.3,2.6-3.5,5.2s3.6,8.6,8.2,11.4C327,371.5,328.8,371.9,330,372z"/>
				</g>
			</g>
			<polygon class="st69" points="314.5,390.6 309.3,389.8 304,384.5 304,372.5 314.5,378.5 			"/>
			<g>
				<g>
					<path class="st70" d="M314.4,354.6c7.4,2.9,14.3,6.7,21.5,11.8c0.2-0.2,0.3-0.5,0.4-0.8c0.1-0.7-0.1-1.5-0.6-2.3
						c-0.2-0.1-0.4-0.3-0.5-0.4c-0.7-0.5-1.4-0.9-2-1.4c-4.6-3.1-9.1-5.6-13.7-7.7c-0.4-0.2-0.7-0.3-1.1-0.5c0,0,0,0-0.1,0l0,0
						c-1-0.1-1.9,0-2.6,0.3c-0.4,0.1-0.7,0.4-1,0.6C314.6,354.3,314.5,354.5,314.4,354.6z"/>
				</g>
				<path class="st70" d="M319.4,353.9l1.7,1l9.5,5.5l2.8,1.6l2,1.1l-1.5-6.6c-0.9-2.1-2.4-3.9-4-4.9l-4.9-2.8
					c-1.3-0.7-2.5-0.9-3.3-0.4c-0.3,0.1-1.6,0.7-1.8,1l0,0L319.4,353.9z M322.4,354.8L322.4,354.8l0.3-0.9l0,0l0.6-2
					c0.3,0.1,0.6,0.2,1,0.4l3,1.7c1,0.6,1.9,1.7,2.5,3l0.4,1.6l0.2,0.8L322.4,354.8z"/>
			</g>
			<g>
				<g>
					<path class="st71" d="M314.2,356c7.1,2.9,13.8,6.6,20.7,11.6c0.4-0.4,0.7-0.8,0.9-1.1l0.1-0.1c0.2-0.2,0.3-0.5,0.4-0.8
						c-0.9-0.6-1.8-1.3-2.7-1.9c-5.3-3.7-10.5-6.7-15.8-9.1c-0.7-0.3-1.5-0.7-2.2-1c-0.4,0.1-0.7,0.4-1,0.6
						c-0.1,0.1-0.2,0.2-0.2,0.4C314.3,355,314.2,355.4,314.2,356z"/>
				</g>
				<path class="st71" d="M317.8,354.7l15.9,9.2v-0.2l-0.4-1.8l-0.1-0.4l-0.4-1.6l-0.6-2.6c-0.9-2.1-2.4-3.9-4-4.9l-4.9-2.8
					c-0.9-0.5-1.7-0.7-2.5-0.6c-0.4,0-0.8,0.2-1.2,0.4l0,0c-0.2,0.1-0.3,0.2-0.4,0.4l-1,3.4l0,0l-0.4,1.3V354.7z M330.3,359.3
					l-7.8-4.5v-0.1l0.2-0.8l0,0l0.6-2c0.3,0.1,0.6,0.2,1,0.4l3,1.7c1,0.6,1.9,1.7,2.5,3l0.4,1.6L330.3,359.3z"/>
				<path class="st70" d="M320.9,355.4l9.8,5.6v-0.1l-0.1-0.6l-0.1-0.5l-0.1-0.3l-0.1-0.2l-7.8-4.5v-0.1l0.2-0.8l0,0l0.6-2
					c-0.2,0-0.4,0-0.6,0c-0.4,0-0.7,0.2-1,0.5l-0.6,2.1l0,0l-0.1,0.4L320.9,355.4L320.9,355.4z"/>
			</g>
			<g>
				<path class="st58" d="M325.9,350.4c0,0.7,1.3,0.6,1.3,0.1v-1.3c0-1.3-0.5-2.9-1.2-4.2c-2.7-4.6-3.2-7.1-1.7-8
					c1.4-0.8,3.1,0.5,4.2,2c1.3,1.8,2.3,4.5,1.5,6v0.1c-0.3,0.8,0.5,1.5,1.2,1.2l0,0c1.1-2.1-0.2-5.7-1.9-8.1
					c-1.9-2.6-4.2-3.7-5.8-2.8c-2.1,1.2-1.5,4.6,1.7,10.1c0.6,1,0.9,2,0.9,3v1.9H325.9z"/>
			</g>
		</g>
		<g>
			<g>
				<g>
					<g>
						<path class="st58" d="M335.8,382.7c-1.3,0.7-6.8-1.1-14.1-4.5c-4.4-2.1-9.4-4.7-14.5-7.6c-3.8-2.2-7.2-4.3-10.1-6.3
							c-7.9-5.2-12.5-9.4-11-10.2c1.4-0.8,8,1.5,16.5,5.7c3.8,1.8,7.9,4,12.1,6.5c3.1,1.8,6,3.6,8.6,5.2l0,0
							C332.1,377.2,337.4,381.8,335.8,382.7z"/>
						
							<linearGradient id="SVGID_45_" gradientUnits="userSpaceOnUse" x1="2253.022" y1="113.5833" x2="2305.1294" y2="113.5833" gradientTransform="matrix(-1 0 0 -1 2591.0247 512)">
							<stop  offset="0" style="stop-color:#DEDEDE"/>
							<stop  offset="3.062289e-02" style="stop-color:#E9E9E9"/>
							<stop  offset="8.755610e-02" style="stop-color:#F5F5F5"/>
							<stop  offset="0.1625" style="stop-color:#FDFDFD"/>
							<stop  offset="0.3242" style="stop-color:#FFFFFF"/>
						</linearGradient>
						<path class="st78" d="M284.9,413.2l1-58.7l50.2,27.7l0.9,58.5l0,0v0.2l0,0c0,0.4-0.2,0.7-0.5,0.9c-2.7,2.2-16.4-2.6-30.5-10.8
							C293.4,423.8,284.6,416.2,284.9,413.2L284.9,413.2z"/>
						<path class="st58" d="M323.6,377.3l-0.3,0.3c-0.3,0.3-0.5,0.6-0.9,1c-2.3,2.6-6.5,6.7-11.4,6.7c-1.5,0-2.9-0.4-4.3-1.2
							c-5.4-3.1-8.1-11.7-8.8-15.7c-0.3-1.6-0.3-2.8-0.2-3.7c0.2-1.8,0.8-2.5,1-2.8c1-1.1,2.5-1.7,4.5-1.8c3.8,1.8,7.9,4,12.1,6.5
							c3.1,1.8,6,3.6,8.6,5.2l0,0c0.3,0.6,0.5,1.2,0.6,1.8C324.7,375,324.4,376.3,323.6,377.3z"/>
						<path class="st79" d="M300.1,365.2c-0.2,4.2,2.9,14,7.8,16.9c2.7,1.6,5.6,0.7,8-0.8c2-1.3,3.8-3.1,4.9-4.4
							c0.4-0.4,0.7-0.8,0.9-1.1l0.1-0.1c0.2-0.2,0.3-0.5,0.4-0.8c0.1-0.7-0.1-1.5-0.6-2.3c-0.2-0.3-0.4-0.7-0.7-1l0,0
							c-0.6-0.8-1.3-1.6-2.3-2.4c-1.2-1.1-2.7-2.1-4.4-3.1c-3-1.7-6-2.8-8.5-3.3c-0.1,0-0.3,0-0.4-0.1c-0.4-0.1-0.8-0.1-1.2-0.1
							c0,0,0,0-0.1,0c-1-0.1-1.9,0-2.6,0.3c-0.4,0.1-0.7,0.4-1,0.6c-0.1,0.1-0.2,0.2-0.2,0.4C300.2,364.2,300.1,364.6,300.1,365.2z"
							/>
						
							<linearGradient id="SVGID_46_" gradientUnits="userSpaceOnUse" x1="2307.7422" y1="135.1325" x2="2309.3982" y2="157.1806" gradientTransform="matrix(-1 0 0 -1 2591.0247 512)">
							<stop  offset="0" style="stop-color:#E3E3E3"/>
							<stop  offset="0.3242" style="stop-color:#EAEAEA"/>
						</linearGradient>
						<path class="st80" d="M272.1,360.8c0,0-0.1,6.8,2.4,10.5c2.6,3.8,4.9,5.1,8.5,5.1c0.9,0,2.7-1.6,2.7-1.6
							c-0.2-15.6,3.4-20.1,6-19.7C291.6,355,280.4,348.2,272.1,360.8z"/>
						
							<linearGradient id="SVGID_47_" gradientUnits="userSpaceOnUse" x1="2260.4028" y1="113.6445" x2="2247.1809" y2="120.2555" gradientTransform="matrix(-1 0 0 -1 2591.0247 512)">
							<stop  offset="0" style="stop-color:#E3E3E3"/>
							<stop  offset="0.3242" style="stop-color:#EAEAEA"/>
						</linearGradient>
						<path class="st81" d="M351.5,407c0.1,3-11.6,3.7-15.5,0.7l-2.3-4.6c-2.4-6.2-2.9-16.5-2.1-21.9c0.2-1.5,1.5-2.9,0.4-3.5
							C331.2,377.2,350.8,385.8,351.5,407z"/>
						<path class="st82" d="M315.9,381.2c-2.4,1.6-5.2,2.4-8,0.8c-5.9-3.4-9.1-16.6-7.4-18.6c0.9-1,2.8-1.2,5.3-0.7
							c-4.1,0-4.3,2.6-3.5,5.2s3.6,8.6,8.2,11.4C312.9,380.7,314.7,381.1,315.9,381.2z"/>
					</g>
				</g>
				<polygon class="st69" points="300.4,399.8 295.2,399 289.9,393.7 289.9,381.7 300.4,387.7 				"/>
				<g>
					<g>
						<path class="st70" d="M300.3,363.9c7.4,2.9,14.3,6.7,21.5,11.8c0.2-0.2,0.3-0.5,0.4-0.8c0.1-0.7-0.1-1.5-0.6-2.3
							c-0.2-0.1-0.4-0.3-0.5-0.4c-0.7-0.5-1.4-0.9-2-1.4c-4.6-3.1-9.1-5.6-13.7-7.7c-0.4-0.2-0.7-0.3-1.1-0.5c0,0,0,0-0.1,0l0,0
							c-1-0.1-1.9,0-2.6,0.3c-0.4,0.1-0.7,0.4-1,0.6C300.5,363.6,300.4,363.7,300.3,363.9z"/>
					</g>
					<path class="st70" d="M305.3,363.1l1.7,1l9.5,5.5l2.8,1.6l2,1.1l-1.5-6.6c-0.9-2.1-2.4-3.9-4-4.9l-4.9-2.8
						c-1.3-0.7-2.5-0.9-3.3-0.4c-0.3,0.1-1.6,0.7-1.8,1l0,0L305.3,363.1z M308.3,364L308.3,364l0.3-0.9l0,0l0.6-2
						c0.3,0.1,0.6,0.2,1,0.4l3,1.7c1,0.6,1.9,1.7,2.5,3l0.4,1.6l0.2,0.8L308.3,364z"/>
				</g>
				<g>
					<g>
						<path class="st71" d="M300.1,365.2c7.1,2.9,13.8,6.6,20.7,11.6c0.4-0.4,0.7-0.8,0.9-1.1l0.1-0.1c0.2-0.2,0.3-0.5,0.4-0.8
							c-0.9-0.6-1.8-1.3-2.7-1.9c-5.3-3.7-10.5-6.7-15.8-9.1c-0.7-0.3-1.5-0.7-2.2-1c-0.4,0.1-0.7,0.4-1,0.6
							c-0.1,0.1-0.2,0.2-0.2,0.4C300.2,364.2,300.1,364.6,300.1,365.2z"/>
					</g>
					<path class="st71" d="M303.7,363.9l15.9,9.2v-0.2l-0.4-1.8l-0.1-0.4l-0.4-1.6l-0.6-2.6c-0.9-2.1-2.4-3.9-4-4.9l-4.9-2.8
						c-0.9-0.5-1.7-0.7-2.5-0.6c-0.4,0-0.8,0.2-1.2,0.4l0,0c-0.2,0.1-0.3,0.2-0.4,0.4l-1,3.4l0,0l-0.4,1.3V363.9z M316.2,368.5
						l-7.8-4.5v-0.1l0.2-0.8l0,0l0.6-2c0.3,0.1,0.6,0.2,1,0.4l3,1.7c1,0.6,1.9,1.7,2.5,3l0.4,1.6L316.2,368.5z"/>
					<path class="st70" d="M306.8,364.6l9.8,5.6v-0.1l-0.1-0.6l-0.1-0.5l-0.1-0.3l-0.1-0.2l-7.8-4.5v-0.1l0.2-0.8l0,0l0.6-2
						c-0.2,0-0.4,0-0.6,0c-0.4,0-0.7,0.2-1,0.5l-0.6,2.1l0,0l-0.1,0.4L306.8,364.6L306.8,364.6z"/>
				</g>
				<g>
					<path class="st58" d="M311.8,359.6c0,0.7,1.3,0.6,1.3,0.1v-1.3c0-1.3-0.5-2.9-1.2-4.2c-2.7-4.6-3.2-7.1-1.7-8
						c1.4-0.8,3.1,0.5,4.2,2c1.3,1.8,2.3,4.5,1.5,6v0.1c-0.3,0.8,0.5,1.5,1.2,1.2l0,0c1.1-2.1-0.2-5.7-1.9-8.1
						c-1.9-2.6-4.2-3.7-5.8-2.8c-2.1,1.2-1.5,4.6,1.7,10.1c0.6,1,0.9,2,0.9,3v1.9H311.8z"/>
				</g>
			</g>
		</g>
		<g>
			<g>
				<g>
					<g>
						<path class="st83" d="M319,391c-1.3,0.7-6.8-1.1-14.1-4.5c-4.4-2.1-9.4-4.7-14.5-7.6c-3.8-2.2-7.2-4.3-10.1-6.3
							c-7.9-5.2-12.5-9.4-11-10.2c1.4-0.8,8,1.5,16.5,5.7c3.8,1.8,7.9,4,12.1,6.5c3.1,1.8,6,3.6,8.6,5.2l0,0
							C315.3,385.5,320.6,390.1,319,391z"/>
						
							<linearGradient id="SVGID_48_" gradientUnits="userSpaceOnUse" x1="2269.8518" y1="105.3833" x2="2321.9592" y2="105.3833" gradientTransform="matrix(-1 0 0 -1 2591.0247 512)">
							<stop  offset="0" style="stop-color:#DB5764"/>
							<stop  offset="3.285283e-02" style="stop-color:#E75E6A"/>
							<stop  offset="8.933867e-02" style="stop-color:#F36571"/>
							<stop  offset="0.1638" style="stop-color:#FB6975"/>
							<stop  offset="0.3242" style="stop-color:#FD6A76"/>
						</linearGradient>
						<path class="st84" d="M268.1,421.4l1-58.7l50.2,27.7l0.9,58.5l0,0v0.2l0,0c0,0.4-0.2,0.7-0.5,0.9c-2.7,2.2-16.4-2.6-30.5-10.8
							C276.6,432,267.8,424.5,268.1,421.4L268.1,421.4z"/>
						<path class="st85" d="M306.7,385.6l-0.3,0.3c-0.3,0.3-0.5,0.6-0.9,1c-2.3,2.6-6.5,6.7-11.4,6.7c-1.5,0-2.9-0.4-4.3-1.2
							c-5.4-3.1-8.1-11.7-8.8-15.7c-0.3-1.6-0.3-2.8-0.2-3.7c0.2-1.8,0.8-2.5,1-2.8c1-1.1,2.5-1.7,4.5-1.8c3.8,1.8,7.9,4,12.1,6.5
							c3.1,1.8,6,3.6,8.6,5.2l0,0c0.3,0.6,0.5,1.2,0.6,1.8C307.9,383.3,307.6,384.6,306.7,385.6z"/>
						<path class="st86" d="M283.3,373.5c-0.2,4.2,2.9,14,7.8,16.9c2.7,1.6,5.6,0.7,8-0.8c2-1.3,3.8-3.1,4.9-4.4
							c0.4-0.4,0.7-0.8,0.9-1.1l0.1-0.1c0.2-0.2,0.3-0.5,0.4-0.8c0.1-0.7-0.1-1.5-0.6-2.3c-0.2-0.3-0.4-0.7-0.7-1l0,0
							c-0.6-0.8-1.3-1.6-2.3-2.4c-1.2-1.1-2.7-2.1-4.4-3.1c-3-1.7-6-2.8-8.5-3.3c-0.1,0-0.3,0-0.4-0.1c-0.4-0.1-0.8-0.1-1.2-0.1
							c0,0,0,0-0.1,0c-1-0.1-1.9,0-2.6,0.3c-0.4,0.1-0.7,0.4-1,0.6c-0.1,0.1-0.2,0.2-0.2,0.4C283.4,372.5,283.3,372.9,283.3,373.5z"
							/>
						
							<linearGradient id="SVGID_49_" gradientUnits="userSpaceOnUse" x1="2324.5356" y1="126.8481" x2="2326.1919" y2="148.8962" gradientTransform="matrix(-1 0 0 -1 2591.0247 512)">
							<stop  offset="0" style="stop-color:#E65452"/>
							<stop  offset="3.313603e-02" style="stop-color:#E85657"/>
							<stop  offset="0.2082" style="stop-color:#EF606B"/>
							<stop  offset="0.3242" style="stop-color:#F26473"/>
						</linearGradient>
						<path class="st87" d="M255.3,369c0,0-0.1,6.8,2.4,10.5c2.6,3.8,4.9,5.1,8.5,5.1c0.9,0,2.7-1.6,2.7-1.6
							c-0.2-15.6,3.4-20.1,6-19.7C274.8,363.3,263.6,356.5,255.3,369z"/>
						
							<linearGradient id="SVGID_50_" gradientUnits="userSpaceOnUse" x1="2277.2217" y1="105.3352" x2="2263.9998" y2="111.9461" gradientTransform="matrix(-1 0 0 -1 2591.0247 512)">
							<stop  offset="0" style="stop-color:#E65452"/>
							<stop  offset="3.313603e-02" style="stop-color:#E85657"/>
							<stop  offset="0.2082" style="stop-color:#EF606B"/>
							<stop  offset="0.3242" style="stop-color:#F26473"/>
						</linearGradient>
						<path class="st88" d="M334.7,415.3c0.1,3-11.6,3.7-15.5,0.7l-2.3-4.6c-2.4-6.2-2.9-16.5-2.1-21.9c0.2-1.5,1.5-2.9,0.4-3.5
							C314.4,385.5,334,394.1,334.7,415.3z"/>
						<path class="st89" d="M299.1,389.5c-2.4,1.6-5.2,2.4-8,0.8c-5.9-3.4-9.1-16.6-7.4-18.6c0.9-1,2.8-1.2,5.3-0.7
							c-4.1,0-4.3,2.6-3.5,5.2s3.6,8.6,8.2,11.4C296.1,389,297.9,389.4,299.1,389.5z"/>
					</g>
				</g>
				<polygon class="st69" points="283.6,408.1 278.3,407.3 273.1,402 273.1,390 283.6,396 				"/>
				<g>
					<g>
						<path class="st70" d="M283.5,372.1c7.4,2.9,14.3,6.7,21.5,11.8c0.2-0.2,0.3-0.5,0.4-0.8c0.1-0.7-0.1-1.5-0.6-2.3
							c-0.2-0.1-0.4-0.3-0.5-0.4c-0.7-0.5-1.4-0.9-2-1.4c-4.6-3.1-9.1-5.6-13.7-7.7c-0.4-0.2-0.7-0.3-1.1-0.5c0,0,0,0-0.1,0l0,0
							c-1-0.1-1.9,0-2.6,0.3c-0.4,0.1-0.7,0.4-1,0.6C283.6,371.8,283.6,372,283.5,372.1z"/>
					</g>
					<path class="st70" d="M288.4,371.4l1.7,1l9.5,5.5l2.8,1.6l2,1.1l-1.5-6.6c-0.9-2.1-2.4-3.9-4-4.9l-4.9-2.8
						c-1.3-0.7-2.5-0.9-3.3-0.4c-0.3,0.1-1.6,0.7-1.8,1l0,0L288.4,371.4z M291.5,372.3L291.5,372.3l0.3-0.9l0,0l0.6-2
						c0.3,0.1,0.6,0.2,1,0.4l3,1.7c1,0.6,1.9,1.7,2.5,3l0.4,1.6l0.2,0.8L291.5,372.3z"/>
				</g>
				<g>
					<g>
						<path class="st71" d="M283.3,373.5c7.1,2.9,13.8,6.6,20.7,11.6c0.4-0.4,0.7-0.8,0.9-1.1l0.1-0.1c0.2-0.2,0.3-0.5,0.4-0.8
							c-0.9-0.6-1.8-1.3-2.7-1.9c-5.3-3.7-10.5-6.7-15.8-9.1c-0.7-0.3-1.5-0.7-2.2-1c-0.4,0.1-0.7,0.4-1,0.6
							c-0.1,0.1-0.2,0.2-0.2,0.4C283.4,372.5,283.3,372.9,283.3,373.5z"/>
					</g>
					<path class="st71" d="M286.9,372.2l15.9,9.2v-0.2l-0.4-1.8l-0.1-0.4l-0.4-1.6l-0.6-2.6c-0.9-2.1-2.4-3.9-4-4.9l-4.9-2.8
						c-0.9-0.5-1.7-0.7-2.5-0.6c-0.4,0-0.8,0.2-1.2,0.4l0,0c-0.2,0.1-0.3,0.2-0.4,0.4l-1,3.4l0,0l-0.4,1.3V372.2z M299.3,376.8
						l-7.8-4.5v-0.1l0.2-0.8l0,0l0.6-2c0.3,0.1,0.6,0.2,1,0.4l3,1.7c1,0.6,1.9,1.7,2.5,3l0.4,1.6L299.3,376.8z"/>
					<path class="st70" d="M289.9,372.9l9.8,5.6v-0.1l-0.1-0.6l-0.1-0.5l-0.1-0.3l-0.1-0.2l-7.8-4.5v-0.1l0.2-0.8l0,0l0.6-2
						c-0.2,0-0.4,0-0.6,0c-0.4,0-0.7,0.2-1,0.5l-0.6,2.1l0,0l-0.1,0.4L289.9,372.9L289.9,372.9z"/>
				</g>
				<g>
					<path class="st58" d="M294.9,367.9c0,0.7,1.3,0.6,1.3,0.1v-1.3c0-1.3-0.5-2.9-1.2-4.2c-2.7-4.6-3.2-7.1-1.7-8
						c1.4-0.8,3.1,0.5,4.2,2c1.3,1.8,2.3,4.5,1.5,6v0.1c-0.3,0.8,0.5,1.5,1.2,1.2l0,0c1.1-2.1-0.2-5.7-1.9-8.1
						c-1.9-2.6-4.2-3.7-5.8-2.8c-2.1,1.2-1.5,4.6,1.7,10.1c0.6,1,0.9,2,0.9,3v1.9H294.9z"/>
				</g>
			</g>
		</g>
		<g>
			<g>
				<g>
					<g>
						<path class="st72" d="M303.5,400.5c-1.3,0.7-6.8-1.1-14.1-4.5c-4.4-2.1-9.4-4.7-14.5-7.6c-3.8-2.2-7.2-4.3-10.1-6.3
							c-7.9-5.2-12.5-9.4-11-10.2c1.4-0.8,8,1.5,16.5,5.7c3.8,1.8,7.9,4,12.1,6.5c3.1,1.8,6,3.6,8.6,5.2l0,0
							C299.8,394.9,305.1,399.6,303.5,400.5z"/>
						
							<linearGradient id="SVGID_51_" gradientUnits="userSpaceOnUse" x1="2285.2896" y1="95.8833" x2="2337.3928" y2="95.8833" gradientTransform="matrix(-1 0 0 -1 2591.0247 512)">
							<stop  offset="0" style="stop-color:#4A74AB"/>
							<stop  offset="2.159713e-02" style="stop-color:#5482BF"/>
							<stop  offset="5.464983e-02" style="stop-color:#5F91D6"/>
							<stop  offset="9.254827e-02" style="stop-color:#689EE9"/>
							<stop  offset="0.1376" style="stop-color:#6EA7F5"/>
							<stop  offset="0.1967" style="stop-color:#72ACFD"/>
							<stop  offset="0.3242" style="stop-color:#73ADFF"/>
						</linearGradient>
						<path class="st90" d="M252.6,430.9l1-58.7l50.2,27.7l0.9,58.5l0,0v0.2l0,0c0,0.4-0.2,0.7-0.5,0.9c-2.7,2.2-16.4-2.6-30.5-10.8
							C261.1,441.5,252.4,434,252.6,430.9L252.6,430.9z"/>
						<path class="st69" d="M291.3,395l-0.3,0.3c-0.3,0.3-0.5,0.6-0.9,1c-2.3,2.6-6.5,6.7-11.4,6.7c-1.5,0-2.9-0.4-4.3-1.2
							c-5.4-3.1-8.1-11.7-8.8-15.7c-0.3-1.6-0.3-2.8-0.2-3.7c0.2-1.8,0.8-2.5,1-2.8c1-1.1,2.5-1.7,4.5-1.8c3.8,1.8,7.9,4,12.1,6.5
							c3.1,1.8,6,3.6,8.6,5.2l0,0c0.3,0.6,0.5,1.2,0.6,1.8C292.5,392.8,292.1,394.1,291.3,395z"/>
						<path class="st74" d="M267.8,383c-0.2,4.2,2.9,14,7.8,16.9c2.7,1.6,5.6,0.7,8-0.8c2-1.3,3.8-3.1,4.9-4.4
							c0.4-0.4,0.7-0.8,0.9-1.1l0.1-0.1c0.2-0.2,0.3-0.5,0.4-0.8c0.1-0.7-0.1-1.5-0.6-2.3c-0.2-0.3-0.4-0.7-0.7-1l0,0
							c-0.6-0.8-1.3-1.6-2.3-2.4c-1.2-1.1-2.7-2.1-4.4-3.1c-3-1.7-6-2.8-8.5-3.3c-0.1,0-0.3,0-0.4-0.1c-0.4-0.1-0.8-0.1-1.2-0.1
							c0,0,0,0-0.1,0c-1-0.1-1.9,0-2.6,0.3c-0.4,0.1-0.7,0.4-1,0.6c-0.1,0.1-0.2,0.2-0.2,0.4C267.9,382,267.8,382.4,267.8,383z"/>
						
							<linearGradient id="SVGID_52_" gradientUnits="userSpaceOnUse" x1="2339.9375" y1="117.3733" x2="2341.5938" y2="139.4213" gradientTransform="matrix(-1 0 0 -1 2591.0247 512)">
							<stop  offset="0" style="stop-color:#476FA3"/>
							<stop  offset="2.679681e-02" style="stop-color:#4973A5"/>
							<stop  offset="0.2056" style="stop-color:#5687B3"/>
							<stop  offset="0.3242" style="stop-color:#5B8FB8"/>
						</linearGradient>
						<path class="st91" d="M239.9,378.5c0,0-0.1,6.8,2.4,10.5c2.6,3.8,4.9,5.1,8.5,5.1c0.9,0,2.7-1.6,2.7-1.6
							c-0.2-15.6,3.4-20.1,6-19.7C259.4,372.8,248.1,366,239.9,378.5z"/>
						
							<linearGradient id="SVGID_53_" gradientUnits="userSpaceOnUse" x1="2292.6438" y1="95.8259" x2="2279.4219" y2="102.4368" gradientTransform="matrix(-1 0 0 -1 2591.0247 512)">
							<stop  offset="0" style="stop-color:#476FA3"/>
							<stop  offset="2.679681e-02" style="stop-color:#4973A5"/>
							<stop  offset="0.2056" style="stop-color:#5687B3"/>
							<stop  offset="0.3242" style="stop-color:#5B8FB8"/>
						</linearGradient>
						<path class="st92" d="M319.3,424.8c0.1,3-11.6,3.7-15.5,0.7l-2.3-4.6c-2.4-6.2-2.9-16.5-2.1-21.9c0.2-1.5,1.5-2.9,0.4-3.5
							C298.9,395,318.6,403.6,319.3,424.8z"/>
						<path class="st77" d="M283.7,399c-2.4,1.6-5.2,2.4-8,0.8c-5.9-3.4-9.1-16.6-7.4-18.6c0.9-1,2.8-1.2,5.3-0.7
							c-4.1,0-4.3,2.6-3.5,5.2s3.6,8.6,8.2,11.4C280.6,398.4,282.5,398.9,283.7,399z"/>
					</g>
				</g>
				<polygon class="st69" points="268.2,417.5 262.9,416.7 257.7,411.5 257.7,399.5 268.2,405.5 				"/>
				<g>
					<g>
						<path class="st70" d="M268.1,381.6c7.4,2.9,14.3,6.7,21.5,11.8c0.2-0.2,0.3-0.5,0.4-0.8c0.1-0.7-0.1-1.5-0.6-2.3
							c-0.2-0.1-0.4-0.3-0.5-0.4c-0.7-0.5-1.4-0.9-2-1.4c-4.6-3.1-9.1-5.6-13.7-7.7c-0.4-0.2-0.7-0.3-1.1-0.5c0,0,0,0-0.1,0l0,0
							c-1-0.1-1.9,0-2.6,0.3c-0.4,0.1-0.7,0.4-1,0.6C268.2,381.3,268.1,381.5,268.1,381.6z"/>
					</g>
					<path class="st70" d="M273,380.9l1.7,1l9.5,5.5l2.8,1.6l2,1.1l-1.5-6.6c-0.9-2.1-2.4-3.9-4-4.9l-4.9-2.8
						c-1.3-0.7-2.5-0.9-3.3-0.4c-0.3,0.1-1.6,0.7-1.8,1l0,0L273,380.9z M276.1,381.8L276.1,381.8l0.3-0.9l0,0l0.6-2
						c0.3,0.1,0.6,0.2,1,0.4l3,1.7c1,0.6,1.9,1.7,2.5,3l0.4,1.6l0.2,0.8L276.1,381.8z"/>
				</g>
				<g>
					<g>
						<path class="st71" d="M267.8,383c7.1,2.9,13.8,6.6,20.7,11.6c0.4-0.4,0.7-0.8,0.9-1.1l0.1-0.1c0.2-0.2,0.3-0.5,0.4-0.8
							c-0.9-0.7-1.8-1.3-2.7-1.9c-5.3-3.7-10.5-6.7-15.8-9.1c-0.7-0.3-1.5-0.7-2.2-1c-0.4,0.1-0.7,0.4-1,0.6
							c-0.1,0.1-0.2,0.2-0.2,0.4C267.9,382,267.8,382.4,267.8,383z"/>
					</g>
					<path class="st71" d="M271.5,381.7l15.9,9.2v-0.2l-0.4-1.8l-0.1-0.4l-0.4-1.6l-0.6-2.6c-0.9-2.1-2.4-3.9-4-4.9l-4.9-2.8
						c-0.9-0.5-1.7-0.7-2.5-0.6c-0.4,0-0.8,0.2-1.2,0.4l0,0c-0.2,0.1-0.3,0.2-0.4,0.4l-1,3.4l0,0l-0.4,1.3V381.7z M283.9,386.3
						l-7.8-4.5v-0.1l0.2-0.8l0,0l0.6-2c0.3,0.1,0.6,0.2,1,0.4l3,1.7c1,0.6,1.9,1.7,2.5,3l0.4,1.6L283.9,386.3z"/>
					<path class="st70" d="M274.5,382.4l9.8,5.6v-0.1l-0.1-0.6l-0.1-0.5l-0.1-0.3l-0.1-0.2l-7.8-4.5v-0.1l0.2-0.8l0,0l0.6-2
						c-0.2,0-0.4,0-0.6,0c-0.4,0-0.7,0.2-1,0.5l-0.6,2.1l0,0l-0.1,0.4L274.5,382.4L274.5,382.4z"/>
				</g>
				<g>
					<path class="st58" d="M279.5,377.3c0,0.7,1.3,0.6,1.3,0.1v-1.3c0-1.3-0.5-2.9-1.2-4.2c-2.7-4.6-3.2-7.1-1.7-8
						c1.4-0.8,3.1,0.5,4.2,2c1.3,1.8,2.3,4.5,1.5,6v0.1c-0.3,0.8,0.5,1.5,1.2,1.2l0,0c1.1-2.1-0.2-5.7-1.9-8.1
						c-1.9-2.6-4.2-3.7-5.8-2.8c-2.1,1.2-1.5,4.6,1.7,10.1c0.6,1,0.9,2,0.9,3v1.9H279.5z"/>
				</g>
			</g>
		</g>
		<g>
			<g>
				<g>
					<g>
						<path class="st93" d="M288.1,409.6c-1.3,0.7-6.8-1.1-14.1-4.5c-4.4-2.1-9.4-4.7-14.5-7.6c-3.8-2.2-7.2-4.3-10.1-6.3
							c-7.9-5.2-12.5-9.4-11-10.2c1.4-0.8,8,1.5,16.5,5.7c3.8,1.8,7.9,4,12.1,6.5c3.1,1.8,6,3.6,8.6,5.2l0,0
							C284.4,404,289.7,408.7,288.1,409.6z"/>
						
							<linearGradient id="SVGID_54_" gradientUnits="userSpaceOnUse" x1="2300.7493" y1="86.7833" x2="2352.8567" y2="86.7833" gradientTransform="matrix(-1 0 0 -1 2591.0247 512)">
							<stop  offset="0" style="stop-color:#D9A233"/>
							<stop  offset="2.159713e-02" style="stop-color:#E2B047"/>
							<stop  offset="5.464983e-02" style="stop-color:#EDBF5E"/>
							<stop  offset="9.254827e-02" style="stop-color:#F5CC71"/>
							<stop  offset="0.1376" style="stop-color:#FBD57D"/>
							<stop  offset="0.1967" style="stop-color:#FEDA85"/>
							<stop  offset="0.3242" style="stop-color:#FFDB87"/>
						</linearGradient>
						<path class="st94" d="M237.2,440l1-58.7l50.2,27.7l0.9,58.5l0,0v0.2l0,0c0,0.4-0.2,0.7-0.5,0.9c-2.7,2.2-16.4-2.6-30.5-10.8
							C245.7,450.6,236.9,443.1,237.2,440L237.2,440z"/>
						<path class="st95" d="M275.8,404.1l-0.3,0.3c-0.3,0.3-0.5,0.6-0.9,1c-2.3,2.6-6.5,6.7-11.4,6.7c-1.5,0-2.9-0.4-4.3-1.2
							c-5.4-3.1-8.1-11.7-8.8-15.7c-0.3-1.6-0.3-2.8-0.2-3.7c0.2-1.8,0.8-2.5,1-2.8c1-1.1,2.5-1.7,4.5-1.8c3.8,1.8,7.9,4,12.1,6.5
							c3.1,1.8,6,3.6,8.6,5.2l0,0c0.3,0.6,0.5,1.2,0.6,1.8C277,401.9,276.7,403.2,275.8,404.1z"/>
						<path class="st96" d="M252.4,392.1c-0.2,4.2,2.9,14,7.8,16.9c2.7,1.6,5.6,0.7,8-0.8c2-1.3,3.8-3.1,4.9-4.4
							c0.4-0.4,0.7-0.8,0.9-1.1l0.1-0.1c0.2-0.2,0.3-0.5,0.4-0.8c0.1-0.7-0.1-1.5-0.6-2.3c-0.2-0.3-0.4-0.7-0.7-1l0,0
							c-0.6-0.8-1.3-1.6-2.3-2.4c-1.2-1.1-2.7-2.1-4.4-3.1c-3-1.7-6-2.8-8.5-3.3c-0.1,0-0.3,0-0.4-0.1c-0.4-0.1-0.8-0.1-1.2-0.1
							c0,0,0,0-0.1,0c-1-0.1-1.9,0-2.6,0.3c-0.4,0.1-0.7,0.4-1,0.6c-0.1,0.1-0.2,0.2-0.2,0.4C252.5,391.1,252.4,391.5,252.4,392.1z"
							/>
						
							<linearGradient id="SVGID_55_" gradientUnits="userSpaceOnUse" x1="2355.4365" y1="108.2605" x2="2357.0928" y2="130.3086" gradientTransform="matrix(-1 0 0 -1 2591.0247 512)">
							<stop  offset="0" style="stop-color:#EB9D38"/>
							<stop  offset="0.1908" style="stop-color:#F2B046"/>
							<stop  offset="0.3242" style="stop-color:#F5B84C"/>
						</linearGradient>
						<path class="st97" d="M224.4,387.6c0,0-0.1,6.8,2.4,10.5c2.6,3.8,4.9,5.1,8.5,5.1c0.9,0,2.7-1.6,2.7-1.6
							c-0.2-15.6,3.4-20.1,6-19.7C243.9,381.9,232.7,375.1,224.4,387.6z"/>
						
							<linearGradient id="SVGID_56_" gradientUnits="userSpaceOnUse" x1="2308.1147" y1="86.7387" x2="2294.8926" y2="93.3497" gradientTransform="matrix(-1 0 0 -1 2591.0247 512)">
							<stop  offset="0" style="stop-color:#EB9D38"/>
							<stop  offset="0.1908" style="stop-color:#F2B046"/>
							<stop  offset="0.3242" style="stop-color:#F5B84C"/>
						</linearGradient>
						<path class="st98" d="M303.8,433.9c0.1,3-11.6,3.7-15.5,0.7L286,430c-2.4-6.2-2.9-16.5-2.1-21.9c0.2-1.5,1.5-2.9,0.4-3.5
							C283.5,404.1,303.1,412.7,303.8,433.9z"/>
						<path class="st99" d="M268.2,408.1c-2.4,1.6-5.2,2.4-8,0.8c-5.9-3.4-9.1-16.6-7.4-18.6c0.9-1,2.8-1.2,5.3-0.7
							c-4.1,0-4.3,2.6-3.5,5.2s3.6,8.6,8.2,11.4C265.2,407.5,267,408,268.2,408.1z"/>
					</g>
				</g>
				<polygon class="st95" points="252.7,426.7 247.4,425.9 242.2,420.6 242.2,408.6 252.7,414.6 				"/>
				<g>
					<g>
						<path class="st70" d="M252.6,390.7c7.4,2.9,14.3,6.7,21.5,11.8c0.2-0.2,0.3-0.5,0.4-0.8c0.1-0.7-0.1-1.5-0.6-2.3
							c-0.2-0.1-0.4-0.3-0.5-0.4c-0.7-0.5-1.4-0.9-2-1.4c-4.6-3.1-9.1-5.6-13.7-7.7c-0.4-0.2-0.7-0.3-1.1-0.5c0,0,0,0-0.1,0l0,0
							c-1-0.1-1.9,0-2.6,0.3c-0.4,0.1-0.7,0.4-1,0.6C252.7,390.4,252.7,390.6,252.6,390.7z"/>
					</g>
					<path class="st70" d="M257.6,390l1.7,1l9.5,5.5l2.8,1.6l2,1.1l-1.5-6.6c-0.9-2.1-2.4-3.9-4-4.9l-4.9-2.8
						c-1.3-0.7-2.5-0.9-3.3-0.4c-0.3,0.1-1.6,0.7-1.8,1l0,0L257.6,390z M260.6,390.9L260.6,390.9l0.3-0.9l0,0l0.6-2
						c0.3,0.1,0.6,0.2,1,0.4l3,1.7c1,0.6,1.9,1.7,2.5,3l0.4,1.6l0.2,0.8L260.6,390.9z"/>
				</g>
				<g>
					<g>
						<path class="st71" d="M252.4,392.1c7.1,2.9,13.8,6.6,20.7,11.6c0.4-0.4,0.7-0.8,0.9-1.1l0.1-0.1c0.2-0.2,0.3-0.5,0.4-0.8
							c-0.9-0.7-1.8-1.3-2.7-1.9c-5.3-3.7-10.5-6.7-15.8-9.1c-0.7-0.3-1.5-0.7-2.2-1c-0.4,0.1-0.7,0.4-1,0.6
							c-0.1,0.1-0.2,0.2-0.2,0.4C252.5,391.1,252.4,391.5,252.4,392.1z"/>
					</g>
					<path class="st71" d="M256,390.8l15.9,9.2v-0.2l-0.4-1.8l-0.1-0.4L271,396l-0.6-2.6c-0.9-2.1-2.4-3.9-4-4.9l-4.9-2.8
						c-0.9-0.5-1.7-0.7-2.5-0.6c-0.4,0-0.8,0.2-1.2,0.4l0,0c-0.2,0.1-0.3,0.2-0.4,0.4l-1,3.4l0,0l-0.4,1.3V390.8z M268.4,395.4
						l-7.8-4.5v-0.1l0.2-0.8l0,0l0.6-2c0.3,0.1,0.6,0.2,1,0.4l3,1.7c1,0.6,1.9,1.7,2.5,3l0.4,1.6L268.4,395.4z"/>
					<path class="st70" d="M259,391.5l9.8,5.6V397l-0.1-0.6l-0.1-0.5l-0.1-0.3l-0.1-0.2l-7.8-4.5v-0.1l0.2-0.8l0,0l0.6-2
						c-0.2,0-0.4,0-0.6,0c-0.4,0-0.7,0.2-1,0.5l-0.6,2.1l0,0l-0.1,0.4L259,391.5L259,391.5z"/>
				</g>
				<g>
					<path class="st58" d="M264.1,386.5c0,0.7,1.3,0.6,1.3,0.1v-1.3c0-1.3-0.5-2.9-1.2-4.2c-2.7-4.6-3.2-7.1-1.7-8
						c1.4-0.8,3.1,0.5,4.2,2c1.3,1.8,2.3,4.5,1.5,6v0.1c-0.3,0.8,0.5,1.5,1.2,1.2l0,0c1.1-2.1-0.2-5.7-1.9-8.1
						c-1.9-2.6-4.2-3.7-5.8-2.8c-2.1,1.2-1.5,4.6,1.7,10.1c0.6,1,0.9,2,0.9,3v1.9H264.1z"/>
				</g>
			</g>
		</g>
		<g>
			<g>
				<path class="st61" d="M224.8,471.3c0-1,0.7-2.3,1.6-2.8c0.5-0.3,0.9-0.3,1.2-0.1l0,0l27.3,15.8l-0.3,0.4c0,0.1,0,0.1,0,0.2
					c0,1-0.7,2.3-1.6,2.8c-0.1,0-0.1,0.1-0.2,0.1l-0.3,0.4l-27.2-15.8h-0.1l0,0l0,0C225,472.1,224.8,471.7,224.8,471.3z"/>
				<path class="st61" d="M255.4,485.2c0,1-0.7,2.3-1.6,2.8c-0.9,0.5-1.6,0.1-1.6-0.9s0.7-2.3,1.6-2.8
					C254.6,483.8,255.4,484.2,255.4,485.2z"/>
				<path class="st61" d="M255.4,485.2c0,1-0.7,2.2-1.6,2.8c-0.9,0.5-1.6,0.1-1.6-0.9s0.7-2.2,1.6-2.8
					C254.6,483.8,255.4,484.2,255.4,485.2z"/>
			</g>
			<path class="st61" d="M351.2,323.9l-57.2,33l-44.5,25.7c-7.4,4.2-13.4,14.6-13.4,23v72.6l3.8-2.2v-72.6c0-6,4.3-13.4,9.5-16.5
				l44.5-25.7l0,0l57.2-33c0.5-0.3,1-0.5,1.6-0.7c0-1.5,0-2.9,0.1-4.4C352.2,323.4,351.7,323.6,351.2,323.9z"/>
		</g>
	</g>
</g>
</svg>
