<?xml version="1.0" encoding="utf-8"?>
<!-- Generator: Adobe Illustrator 23.0.5, SVG Export Plug-In . SVG Version: 6.00 Build 0)  -->
<svg version="1.1" id="Layer_1" xmlns="http://www.w3.org/2000/svg" xmlns:xlink="http://www.w3.org/1999/xlink" x="0px" y="0px"
	 viewBox="0 0 512 512" style="enable-background:new 0 0 512 512;" xml:space="preserve">
<style type="text/css">
	.st0{fill:#EDF6FF;}
	.st1{opacity:0.5;fill:#C0E0FC;}
	.st2{opacity:0.5;fill:#77BAF2;}
	.st3{opacity:0.5;fill:#FBE54F;}
	.st4{opacity:0.5;fill:#FFFFFF;}
	.st5{clip-path:url(#SVGID_2_);}
	.st6{fill:#A9D5ED;}
	.st7{fill:#70B9F9;}
	.st8{fill:url(#SVGID_3_);}
	.st9{fill:url(#SVGID_4_);}
	.st10{fill:#193D7C;}
	.st11{fill:url(#SVGID_5_);}
	.st12{fill:#FFFFFF;}
	.st13{fill:#D6EDFC;}
	.st14{fill:#0053FC;}
	.st15{fill:url(#SVGID_6_);}
	.st16{fill:url(#SVGID_7_);}
	.st17{fill:#4B6DFF;}
	.st18{fill:none;}
	.st19{fill:#FFA409;}
	.st20{fill:#FF9300;}
	.st21{fill:#FF8300;}
	.st22{fill:url(#SVGID_8_);}
	.st23{fill:#3FB6FF;}
	.st24{fill:url(#SVGID_9_);}
	.st25{fill:url(#SVGID_10_);}
	.st26{fill:url(#SVGID_11_);}
	.st27{fill:url(#SVGID_12_);}
	.st28{fill:url(#SVGID_13_);}
	.st29{fill:url(#SVGID_14_);}
	.st30{fill:url(#SVGID_15_);}
	.st31{fill:url(#SVGID_16_);}
	.st32{fill:url(#SVGID_17_);}
	.st33{fill:url(#SVGID_18_);}
	.st34{fill:url(#SVGID_19_);}
	.st35{fill:url(#SVGID_20_);}
	.st36{fill:url(#SVGID_21_);}
	.st37{fill:url(#SVGID_22_);}
	.st38{fill:url(#SVGID_23_);}
	.st39{fill:url(#SVGID_24_);}
	.st40{fill:url(#SVGID_25_);}
	.st41{fill:url(#SVGID_26_);}
	.st42{fill:url(#SVGID_27_);}
	.st43{fill:url(#SVGID_28_);}
	.st44{fill:url(#SVGID_29_);}
	.st45{fill:url(#SVGID_30_);}
	.st46{fill:url(#SVGID_31_);}
	.st47{fill:url(#SVGID_32_);}
	.st48{fill:url(#SVGID_33_);}
	.st49{fill:url(#SVGID_34_);}
	.st50{fill:url(#SVGID_35_);}
	.st51{fill:url(#SVGID_36_);}
	.st52{fill:url(#SVGID_37_);}
	.st53{fill:#2E5082;}
	.st54{fill:url(#SVGID_38_);}
	.st55{fill:url(#SVGID_39_);}
	.st56{fill:url(#SVGID_40_);}
	.st57{fill:url(#SVGID_41_);}
	.st58{fill:url(#SVGID_42_);}
	.st59{fill:url(#SVGID_43_);}
</style>
<g>
	<path class="st0" d="M144,117.2c-31.6,41.7-53.2,64.3-49,122.1c4,55.6-39.4,78-29.5,149.3c9.9,71.3,77.8,98.1,145.1,97.8
		c67.8-0.3,94.1-4.8,121.1-64.7c29.6-65.7,54.6-58.2,87.1-79.6c39.9-26.3,53.1-105.3,31.5-173.3C428.7,100.9,232.6,0.2,144,117.2z"
		/>
	<path class="st1" d="M305.3,282.8L65.2,314.6c-0.4,0.1-0.8-0.2-0.8-0.6L44.6,165.3c-0.1-0.4,0.2-0.8,0.6-0.8l240.1-31.8
		c0.4-0.1,0.8,0.2,0.8,0.6L305.9,282C305.9,282.4,305.7,282.7,305.3,282.8z"/>
	<path class="st2" d="M204.6,205.7l-136,18c-0.2,0-0.4-0.1-0.5-0.4l-11.2-84.3c0-0.2,0.1-0.4,0.4-0.5l136-18c0.2,0,0.4,0.1,0.5,0.4
		l11.2,84.3C205,205.5,204.8,205.7,204.6,205.7z"/>
	<path class="st3" d="M317.4,299.1l-136,18c-0.2,0-0.4-0.1-0.5-0.4l-11.2-84.3c0-0.2,0.1-0.4,0.4-0.5l136-18c0.2,0,0.4,0.1,0.5,0.4
		l11.2,84.3C317.8,298.9,317.7,299.1,317.4,299.1z"/>
	<path class="st4" d="M240.5,210.9l-26.2,3.5c-0.2,0-0.3-0.1-0.3-0.3l-8.1-61.2c0-0.2,0.1-0.3,0.3-0.3l26.2-3.5
		c0.2,0,0.3,0.1,0.3,0.3l8.1,61.2C240.7,210.7,240.6,210.8,240.5,210.9z"/>
	<path class="st4" d="M165.4,287.8l-87.3,11.5c-0.2,0-0.3-0.1-0.3-0.3l-8.1-61.2c0-0.2,0.1-0.3,0.3-0.3l87.3-11.5
		c0.2,0,0.3,0.1,0.3,0.3l8.1,61.2C165.7,287.6,165.6,287.8,165.4,287.8z"/>
	<path class="st4" d="M274.4,206.4l-26.2,3.5c-0.2,0-0.3-0.1-0.3-0.3l-8.1-61.2c0-0.2,0.1-0.3,0.3-0.3l26.2-3.5
		c0.2,0,0.3,0.1,0.3,0.3l8.1,61.2C274.7,206.3,274.6,206.4,274.4,206.4z"/>
	<g>
		<defs>
			<path id="SVGID_1_" d="M144,117.2c-31.6,41.7-53.2,64.3-49,122.1c4,55.6-39.4,78-29.5,149.3c9.9,71.3,77.8,98.1,145.1,97.8
				c67.8-0.3,94.1-4.8,121.1-64.7c29.6-65.7,54.6-58.2,87.1-79.6c39.9-26.3,53.1-105.3,31.5-173.3C428.7,100.9,232.6,0.2,144,117.2z
				"/>
		</defs>
		<clipPath id="SVGID_2_">
			<use xlink:href="#SVGID_1_"  style="overflow:visible;"/>
		</clipPath>
		<g class="st5">
			<path class="st6" d="M311,228.9c0,0,2.9-1.6,8.8,0.5c5.6,1.9-7,12-7,12l-4.8-9.9L311,228.9z"/>
			<path class="st7" d="M237.4,224.7c0,0-6.4,1.8-6.6,9.2c-0.3,7.4,2.6,14.3,5.2,19.1c2.6,4.8,4.4,9,4.3,12.2
				c-0.1,3.3-2.3,3.1-3.5,0.4c-1.3-2.6-1.9-9.4-4.8-12.4c-2.9-3-5.7-3.6-7.9-2.4c0,0-0.9,0.7-0.8,2.5c0.1,1.9,1,4.8,2.3,10.1
				c1.4,5.3,2,13.1,4.7,17.3c2.7,4.2,10.3,9,13.4,12.4c3.1,3.4,10.6,8.3,23.8,26.6c13.3,18.2,23.7,34.7,38.8,47.9
				c15.1,13.3,34.7,8.9,34.7,8.9l-13.5-49c0,0-31.3-12.5-41.7-20.9c-9.6-7.8-24.7-22.3-25.5-28.6c-0.8-6.3,3.9-20.1-0.5-28.9
				C255.3,240.3,244.9,224.7,237.4,224.7z"/>
			<linearGradient id="SVGID_3_" gradientUnits="userSpaceOnUse" x1="311.4839" y1="349.0302" x2="236.4486" y2="245.8567">
				<stop  offset="0" style="stop-color:#5B9AF1"/>
				<stop  offset="1" style="stop-color:#70B9F9;stop-opacity:0"/>
			</linearGradient>
			<path class="st8" d="M237.4,224.7c0,0-6.4,1.8-6.6,9.2c-0.3,7.4,2.6,14.3,5.2,19.1c2.6,4.8,4.4,9,4.3,12.2
				c-0.1,3.3-2.3,3.1-3.5,0.4c-1.3-2.6-1.9-9.4-4.8-12.4c-2.9-3-5.7-3.6-7.9-2.4c0,0-0.9,0.7-0.8,2.5c0.1,1.9,1,4.8,2.3,10.1
				c1.4,5.3,2,13.1,4.7,17.3c2.7,4.2,10.3,9,13.4,12.4c3.1,3.4,10.6,8.3,23.8,26.6c13.3,18.2,23.7,34.7,38.8,47.9
				c15.1,13.3,34.7,8.9,34.7,8.9l-13.5-49c0,0-31.3-12.5-41.7-20.9c-9.6-7.8-24.7-22.3-25.5-28.6c-0.8-6.3,3.9-20.1-0.5-28.9
				C255.3,240.3,244.9,224.7,237.4,224.7z"/>
			<path class="st7" d="M385.2,216.8c-7-10.2-30.5-17.2-48.1-9.8c0,0-18.8,12.1-25.8,29.3c-7,17.2-17.2,43-8.2,57.4
				c2.6,4.2,7.5,8.2,13.9,11.1l0,0c0,0,0,0,0.1,0c0.2,0.1,0.3,0.1,0.5,0.2c2.2,1,9.9,4.7,10.4,9.8c0.5,6-1.8,12.2-1.8,12.2
				s15.1,6.4,29.7,4.3c0,0,1-15.4,10.4-26.2c2.4-2.7,0.4-4.1-3.8-4.6c5.1-3.1,10.1-7.3,14.9-12.7C406.7,255.1,392.2,227,385.2,216.8
				z"/>
			<linearGradient id="SVGID_4_" gradientUnits="userSpaceOnUse" x1="299.5864" y1="267.9195" x2="395.0223" y2="267.9195">
				<stop  offset="0" style="stop-color:#5B9AF1"/>
				<stop  offset="1" style="stop-color:#70B9F9;stop-opacity:0"/>
			</linearGradient>
			<path class="st9" d="M385.2,216.8c-7-10.2-30.5-17.2-48.1-9.8c0,0-18.8,12.1-25.8,29.3c-7,17.2-17.2,43-8.2,57.4
				c2.6,4.2,7.5,8.2,13.9,11.1l0,0c0,0,0,0,0.1,0c0.2,0.1,0.3,0.1,0.5,0.2c2.2,1,9.9,4.7,10.4,9.8c0.5,6-1.8,12.2-1.8,12.2
				s15.1,6.4,29.7,4.3c0,0,1-15.4,10.4-26.2c2.4-2.7,0.4-4.1-3.8-4.6c5.1-3.1,10.1-7.3,14.9-12.7C406.7,255.1,392.2,227,385.2,216.8
				z"/>
			<path class="st10" d="M322.3,172.2c0,0-27.4,31.7-2,60.6c9.6,10.9,17.6,11.8,18,18c0.4,6.2-7.6,15.2,1.6,22.3
				c4,3.1-11.2,32.6-7.9,35.5c3.2,2.8,8.7,6.8,23.6,6.4s37.4-22.1,46.1-40.6c6.6-14.1,10.2-36.3-1.2-52
				c-11.3-15.6-9.8-10.2-13.3-22.3c-3.5-12.1-19.5-4.3-25-12.5C356.7,179.3,339.5,149.2,322.3,172.2z"/>
			<linearGradient id="SVGID_5_" gradientUnits="userSpaceOnUse" x1="309.5125" y1="239.3163" x2="407.7892" y2="239.3163">
				<stop  offset="0" style="stop-color:#192765"/>
				<stop  offset="1" style="stop-color:#193D7C;stop-opacity:0"/>
			</linearGradient>
			<path class="st11" d="M322.3,172.2c0,0-27.4,31.7-2,60.6c9.6,10.9,17.6,11.8,18,18c0.4,6.2-7.6,15.2,1.6,22.3
				c4,3.1-11.2,32.6-7.9,35.5c3.2,2.8,8.7,6.8,23.6,6.4s37.4-22.1,46.1-40.6c6.6-14.1,10.2-36.3-1.2-52
				c-11.3-15.6-9.8-10.2-13.3-22.3c-3.5-12.1-19.5-4.3-25-12.5C356.7,179.3,339.5,149.2,322.3,172.2z"/>
			<path class="st12" d="M326.7,262.7c-1.9,6.8-4.6,13.8-11.1,14c-3,0.1-6.9-1.6-10.3-3.9c-4.1-2.7-7.6-6.2-8.3-8.6
				c-2.5-8.4,3.4-26.1,10.8-33c1-1,2.1-1.7,3.2-2.2c0,0-3.9,3,11.1,14.6C328.4,248.4,328.8,255,326.7,262.7z"/>
			<path class="st13" d="M326.7,262.7c-1.9,6.8-4.6,13.8-11.1,14c-3,0.1-6.9-1.6-10.3-3.9c1.8,0.9,5,2.7,7.7-2.1
				c1.7-3.1,7.3-18,5.3-23c-2-5.1-8-10.3-10-13.5c-0.6-1-0.7-2-0.5-2.9c1-1,2.1-1.7,3.2-2.2c0,0-3.9,3,11.1,14.6
				C328.4,248.4,328.8,255,326.7,262.7z"/>
			<path class="st13" d="M317,268.1c0,0,37.2,30.3,70.7,27.5c3.9-0.3,9-9,9.3-12.3c0,0-50.5-0.7-74.9-28.6L317,268.1z"/>
			<path class="st14" d="M373.6,331.2c0,0,16.8,5.9,22.4,34.6c5.5,28.3-10.6,50.8-22.4,75s-14.9,45.3-14.9,45.3h-104
				c0,0-15.5-134.3,48.1-159.9C302.9,326.3,347.8,318.9,373.6,331.2z"/>
			<linearGradient id="SVGID_6_" gradientUnits="userSpaceOnUse" x1="248.1373" y1="469.7507" x2="323.1726" y2="410.8687">
				<stop  offset="0" style="stop-color:#2284C6"/>
				<stop  offset="1" style="stop-color:#2284C6;stop-opacity:0"/>
			</linearGradient>
			<path class="st15" d="M373.6,331.2c0,0,16.8,5.9,22.4,34.6c5.5,28.3-10.6,50.8-22.4,75s-14.9,45.3-14.9,45.3h-104
				c0,0-15.5-134.3,48.1-159.9C302.9,326.3,347.8,318.9,373.6,331.2z"/>
			<path class="st7" d="M250,349.5c0,0-58.6,32.6-65.7,43.2c-7,10.7-6,16.4,0,21.4c6,5,52.6,9.9,101.3-12.5
				c48.7-22.4,29.7-53.2,18.8-57.8C293.5,339.1,269.9,338.1,250,349.5z"/>
			<linearGradient id="SVGID_7_" gradientUnits="userSpaceOnUse" x1="265.1443" y1="396.5058" x2="219.0289" y2="356.6432">
				<stop  offset="0" style="stop-color:#5B9AF1"/>
				<stop  offset="1" style="stop-color:#70B9F9;stop-opacity:0"/>
			</linearGradient>
			<path class="st16" d="M250,349.5c0,0-58.6,32.6-65.7,43.2c-7,10.7-6,16.4,0,21.4c6,5,52.6,9.9,101.3-12.5
				c48.7-22.4,29.7-53.2,18.8-57.8C293.5,339.1,269.9,338.1,250,349.5z"/>
			<path class="st7" d="M182.4,412.3c0,0-30.1-26.3-41.6-65.4c-11.5-39.1-21.4-65.7-21.4-65.7l16.9-8.1c0,0,3.1,15.6,9.9,24.5
				c6.8,8.9,30.8,37,40.7,52.1c9.9,15.1,10.6,28.5,17.9,26.8"/>
			<path class="st14" d="M241.4,346.7c0,0,11.2,48.5,28.9,65.7c0,0,58.1-18.2,62-45.6c3.9-27.4-5.1-37.1-23.1-40.2
				C291.1,323.5,241.4,346.7,241.4,346.7z"/>
			<path class="st7" d="M137.7,278.5c0,0-1.6-6.9,0-13.6c1.6-6.8,2.4-18.8-0.7-22.4c-2-2.3-5.1-3.5-7.1-4.2
				c-1.4-0.4-2.4-1.5-2.9-2.8c-1.3-3.7-3.7-10.9-4.1-14.9c-0.5-5.5-0.3-7.7-0.8-9.5c-0.5-1.8-4.9-2.3-5.6,7.9
				c-0.6,8.5-0.1,10.4,0,11.5c0.4,4-1,5.4-3.7,8.5c-2.6,3-5.3,7.4-4.9,12.3c0.8,9.2,3.3,11.9,6.3,17.8c2.9,5.9,5.3,12.3,5.3,12.3
				l10.2,4.5L137.7,278.5z"/>
		</g>
	</g>
	<path class="st0" d="M412.3,354.9c0,0-57.9,18-60.3,51.8s17.6,35.1,30.2,28c12.6-7.1,7.8-36.6,27.8-50.8S432.4,346.6,412.3,354.9z"
		/>
	<path class="st0" d="M138.1,96c0,0,28.1-31.4,70.9-42.9c20-5.4,33.9-24.3,19-41.4c-13.3-15.2-67.8,0.6-95,32.9
		C109.2,72.9,109.6,110.6,138.1,96z"/>
</g>
<g>
	<g id="Group_938_3_" transform="translate(-953.348 -232.003)">
		<g id="Group_931_3_">
			<path id="Path_8573_3_" class="st17" d="M1430.6,572c-1.3,1.8-2.4,3.7-3.3,5.7l-0.4-0.1c-2.4-0.3-4.8-0.4-7.2-0.1
				c-0.7,0.1-3.4,0.5-4.2,0.7c-2.6,0.6-4.5,1.4-6.7,2.6c-0.1,0.1-0.2,0.1-0.2,0.1c-1.6-1.5-3.3-2.9-5.2-4.1
				c6.9-5.2,15.6-7.2,24.1-5.6c0.9,0.2,1.8,0.4,2.7,0.7L1430.6,572z"/>
			<path id="Path_8574_3_" class="st17" d="M1450.8,604c-0.6,3.5-1.8,6.8-3.5,9.8c-1,1.6-2.1,3.2-3.3,4.6c-2.9,3.3-6.5,5.9-10.5,7.7
				c-4.4,1.9-9.3,2.8-14.1,2.5c-4.4-0.3-8.7-1.5-12.5-3.6c-1.6-0.9-3.2-2-4.7-3.2c-7.8-6.4-11.6-16.5-9.9-26.5
				c0.3-1.8,0.8-3.7,1.4-5.4c0.3-0.8,0.7-1.7,0.9-2.1c1.5,3.6,3.2,6.7,3.8,7.8c0,0.1,0,0.1-0.1,0.2c-1.4,4.7-1.8,9-1.3,13.5
				c0,0.1,0,0.1,0,0.2c0.2,1.3,0.3,2,0.7,2.7c1.1,2.5,3.8,5,7.5,7.2c6.2,3.6,14.1,5.6,19.7,5c5.8-0.6,13.8-5.5,18.6-11.5
				c0.8-1,1.4-1.9,2.1-3c0.4-0.8,1.1-2,1-2c0,0,0,0,0,0c0,0,0-0.1,0-0.1c0,0,0,0,0-0.1c0,0,0,0,0-0.1s0,0,0-0.1c0,0,0,0,0-0.1
				c0,0,0,0,0,0s0,0,0-0.1c0,0,0,0,0-0.1c0,0,0,0,0,0c0-0.1,0-0.2,0.1-0.2c0.1-0.2,0.5-1.3,0.5-1.5c0.3-1.3,0.5-2.4,0.4-3.4
				c0-0.5-0.1-1.4-0.2-1.7c0,0,0-0.1-0.1-0.2c-0.1-0.2-0.1-0.5-0.2-0.7c-0.1-0.4-0.2-1-0.3-1.3c-1.1-4.1-2.8-7.3-5.4-10.5
				c-0.1-0.1-0.2-0.2-0.3-0.3c0,0,0,0,0-0.1l0,0c0.1-0.9,0.7-4.6,0.9-8.9l0,0l0.2,0.2c0.3,0.3,1.1,1.1,1.5,1.5
				c1.7,1.9,3.1,3.9,4.2,6.2C1450.8,592,1451.8,598.1,1450.8,604z"/>
			<path id="Path_8575_3_" d="M1437.1,595.2c0,0.2-0.4,0.7-0.7,1.1c-1.1,1.1-3.2,2.4-5.4,3.2c-1.3,0.5-2.6,0.7-3,0.6
				c-0.3-0.1-0.3-0.2-0.3-0.5c0.1-0.7,0.6-1.6,1.4-2.4c0.4-0.4,2.2-2,3-2.7c1.4-1.1,2.5-1.8,3.3-2.1c0.3-0.1,0.6-0.1,0.7-0.1
				c0.2,0,0.4,0.5,0.6,1.1C1436.9,593.6,1437.1,595,1437.1,595.2z"/>
			<path id="Path_8576_3_" d="M1416.2,602c0,0.1-0.3,0.3-0.6,0.4s-1.3,0.2-1.8,0.3c-2,0.1-4.1-0.1-5.7-0.6c-0.9-0.3-1.6-0.6-2.1-0.9
				l-0.3-0.2l-0.1-0.3c-0.2-0.6-0.3-1.5-0.3-1.9c0-0.3,0-0.6,0.1-0.9c0.1-0.1,0.1-0.1,0.4-0.2c0.4-0.1,0.7-0.1,1.3,0
				c1.2,0.1,3,0.7,5.2,1.5c1.9,0.7,2.6,1.1,3.2,1.7C1415.9,601.3,1416.2,601.8,1416.2,602z"/>
			<path id="Path_8577_3_" d="M1431.3,612.4c0,0,0,0.5-0.1,1s-0.1,1-0.1,1c-0.1,0-0.2,0.1-0.3,0.1l-0.3,0.1l-0.2,1
				c-0.1,0.6-0.2,1.1-0.3,1.2l0,0.1l-0.2-0.3l-0.2-0.3l-0.4-2.5l-0.1,0c-0.1,0.1-1.2,0.4-1.7,0.5c-2,0.6-4,0.9-6,0.9
				c-0.3,0-0.6,0-0.6,0c0,0,0.1,0.6,0.3,1.3l0.3,1.3l-0.1,0.3c-0.1,0.1-0.1,0.3-0.1,0.3c0,0-0.1-0.1-0.4-0.5
				c-0.3-0.4-0.6-0.8-0.8-1.3l-0.1-0.3l-0.3,0.1l-0.3,0.1l-0.1-0.3c-0.1-0.2-0.2-0.4-0.2-0.6l-0.1-0.3l-0.3-0.2
				c-0.2-0.1-0.3-0.2-0.3-0.2c-0.1,0-0.1-0.1-0.1-0.1l0-0.1l1.1-0.2l1.1-0.2l0.1,0.1l0.1,0.1l0.4-0.1c0.2,0,0.9-0.1,1.5-0.2l1.1-0.2
				l0.2-0.5l0.2-0.5l0.4-0.1l-0.2-0.9l-0.2-0.9l-0.5-0.1c-1.7-0.4-2.8-1.1-3.4-2c-0.1-0.2-0.1-0.3-0.3-1.2c-0.2-0.9-0.2-1-0.2-1.2
				c0-0.5,0.3-0.9,0.8-1.1c0.1-0.1,0.6-0.1,2.7-0.5l2.5-0.4l0.3,0.1c0.4,0.1,0.5,0.2,0.8,0.4c0.3,0.3,0.4,0.5,0.5,1
				c0.1,0.8,0.2,1.5,0.2,1.8c-0.1,0.4-0.2,0.8-0.3,1.1c-0.4,0.7-1.1,1.4-1.8,1.8l-0.2,0.1l0.2,1l0.2,1l0.2,0l0.2,0l0.3,0.4l0.3,0.4
				l1.2-0.2c0.7-0.1,1.3-0.2,1.3-0.2c0.1,0,0.1,0,0.2-0.2l0.1-0.2l1-0.2C1431.1,612.4,1431.3,612.4,1431.3,612.4z"/>
			<path id="Path_8578_3_" d="M1427,615.9c-0.2,0.1-0.3,0.2-0.3,0.2c0,0-0.2-0.1-0.3-0.2l-0.3-0.2l-0.2,0.3
				c-0.4,0.7-0.5,0.7-0.6,0.8c-0.2,0.1-0.3,0-0.7-0.4c-0.2-0.2-0.4-0.4-0.4-0.4s-0.1,0-0.3,0l-0.3,0l-0.1,0.3l-0.1,0.3l-0.2,0
				c-0.2,0-0.3-0.1-0.5-0.1l-0.3-0.1l-0.1-0.5l2.4-0.4l2.4-0.4l0.1,0.2C1427.3,615.6,1427.3,615.6,1427,615.9z"/>
		</g>
		<path id="Path_8579_3_" class="st12" d="M1447.7,600.7c0,0,0-0.1-0.1-0.2c-2.2,0.2-8.5,1.1-13.4,6.9c0,0-3.4-8.2-12.1-6.7
			c-8.7,1.5-10.5,10.7-10.5,10.7c-5.8-4.4-12.3-2.9-14.6-2.1c0,0.1,0,0.1,0,0.2c0.2,1.3,0.3,2,0.7,2.7c1.1,2.5,3.8,5,7.5,7.2
			c6.2,3.6,14.1,5.6,19.7,5c5.8-0.6,13.8-5.5,18.6-11.5c0.8-0.9,1.4-1.9,2.1-3c0.4-0.8,1.1-2,1-2c0,0,0,0,0,0c0,0,0-0.1,0-0.1
			c0,0,0,0,0-0.1c0,0,0,0,0-0.1c0,0,0,0,0-0.1c0,0,0,0,0-0.1s0,0,0,0c0,0,0,0,0-0.1c0,0,0,0,0-0.1s0,0,0,0c0-0.1,0-0.2,0.1-0.2
			c0.1-0.2,0.5-1.3,0.5-1.5c0.3-1.3,0.5-2.4,0.4-3.4C1447.9,601.9,1447.8,600.9,1447.7,600.7z M1427,615.9c-0.2,0.1-0.3,0.2-0.3,0.2
			c0,0-0.2-0.1-0.3-0.2l-0.3-0.2l-0.2,0.3c-0.4,0.7-0.5,0.7-0.6,0.8c-0.2,0.1-0.3,0-0.7-0.4c-0.2-0.2-0.4-0.4-0.4-0.4s-0.1,0-0.3,0
			l-0.3,0l-0.1,0.3l-0.1,0.3l-0.2,0c-0.2,0-0.3-0.1-0.5-0.1l-0.3-0.1l-0.1-0.5l2.4-0.4l2.4-0.4l0.1,0.2
			C1427.3,615.6,1427.3,615.6,1427,615.9z M1431.2,613.4c0,0.5-0.1,1-0.1,1c-0.1,0-0.2,0.1-0.3,0.1l-0.3,0.1l-0.2,1
			c-0.1,0.6-0.2,1.1-0.3,1.2l0,0.1l-0.2-0.3l-0.2-0.3l-0.4-2.5l-0.1,0c-0.1,0.1-1.2,0.4-1.7,0.5c-2,0.6-4,0.9-6,0.9
			c-0.3,0-0.6,0-0.6,0c0,0,0.1,0.6,0.3,1.3l0.3,1.3l-0.1,0.3c-0.1,0.1-0.1,0.3-0.1,0.3c0,0-0.1-0.1-0.4-0.5
			c-0.3-0.4-0.6-0.8-0.8-1.3l-0.1-0.3l-0.3,0.1l-0.3,0.1l-0.1-0.3c-0.1-0.2-0.2-0.4-0.2-0.6l-0.1-0.3l-0.3-0.2
			c-0.2-0.1-0.3-0.2-0.3-0.2c-0.1,0-0.1-0.1-0.1-0.1l0-0.1l1.1-0.2l1.1-0.2l0.1,0.1l0.1,0.1l0.4-0.1c0.2,0,0.9-0.1,1.5-0.2l1.1-0.2
			l0.2-0.5l0.2-0.5l0.4-0.1l-0.2-0.9l-0.2-0.9l-0.5-0.1c-1.7-0.4-2.8-1.1-3.4-2c-0.1-0.2-0.1-0.3-0.3-1.2c-0.2-0.9-0.2-1-0.2-1.2
			c0-0.5,0.3-0.9,0.8-1.1c0.1-0.1,0.6-0.1,2.7-0.5l2.5-0.4l0.3,0.1c0.4,0.1,0.5,0.2,0.8,0.4c0.3,0.3,0.4,0.5,0.5,1
			c0.1,0.8,0.2,1.5,0.2,1.8c-0.1,0.4-0.2,0.8-0.3,1.1c-0.4,0.7-1.1,1.4-1.8,1.8l-0.2,0.1l0.2,1l0.2,1l0.2,0l0.2,0l0.3,0.4l0.3,0.4
			l1.2-0.2c0.7-0.1,1.3-0.2,1.3-0.2c0.1,0,0.1,0,0.2-0.2l0.1-0.2l1-0.2c0.8-0.1,1-0.2,1.1-0.1
			C1431.3,612.4,1431.3,612.9,1431.2,613.4z"/>
		<path id="Path_8580_3_" class="st18" d="M1397,609.4c-0.6,0.2-0.9,0.3-0.9,0.3"/>
		<path id="Path_8581_3_" class="st18" d="M1448.5,600.5c0,0-0.3,0-0.8,0"/>
		<path id="Path_8582_3_" class="st19" d="M1447.5,599.8c-0.1-0.4-0.2-1-0.3-1.3c-1.1-4.1-2.8-7.3-5.4-10.5
			c-0.1-0.1-0.2-0.2-0.3-0.3c0,0,0,0,0-0.1l0,0c0.1-0.9,0.7-4.6,0.9-8.9c0.3-5.7-0.1-12.3-2.8-13.8c0,0-4.2,0.4-8.9,6.9
			c-1.3,1.8-2.4,3.7-3.3,5.7l-0.4-0.1c-2.4-0.3-4.8-0.4-7.2-0.1c-0.7,0.1-3.4,0.5-4.2,0.7c-2.6,0.6-4.5,1.4-6.7,2.6
			c-0.1,0.1-0.2,0.1-0.2,0.1c-1.6-1.5-3.3-2.9-5.2-4.1c-6.8-4.5-11.1-3.4-11.1-3.4c-2.2,2.4-0.1,9,2.2,14.5c1.5,3.6,3.2,6.7,3.8,7.8
			c0,0.1,0,0.1-0.1,0.2c-1.4,4.7-1.8,9-1.3,13.5c2.3-0.8,8.8-2.3,14.6,2.1c0,0,1.7-9.1,10.5-10.7s12.1,6.7,12.1,6.7
			c4.9-5.8,11.2-6.8,13.4-6.9C1447.6,600.4,1447.6,600.1,1447.5,599.8z M1399.5,591.9c0,0-4.9-7.9-4.9-12.9l0,0
			c0-0.8,0.1-1.6,0.5-2.2c0,0,3.9-0.3,11.4,5.5c0,0-1.1,0.8-2.4,2.3c0,0,0,0,0,0C1402.5,586.2,1400.7,588.7,1399.5,591.9
			L1399.5,591.9z M1416.2,602c0,0.1-0.3,0.3-0.6,0.4s-1.3,0.2-1.8,0.3c-2,0.1-4.1-0.1-5.7-0.6c-0.9-0.3-1.6-0.6-2.1-0.9l-0.3-0.2
			l-0.1-0.3c-0.2-0.6-0.3-1.5-0.3-1.9c0-0.3,0-0.6,0.1-0.9c0.1-0.1,0.1-0.1,0.4-0.2c0.4-0.1,0.7-0.1,1.3,0c1.2,0.1,3,0.7,5.2,1.5
			c1.9,0.7,2.6,1.1,3.2,1.7C1415.9,601.3,1416.2,601.8,1416.2,602z M1437.1,595.2c0,0.2-0.4,0.7-0.7,1.1c-1.1,1.1-3.2,2.4-5.4,3.2
			c-1.3,0.5-2.6,0.7-3,0.6c-0.3-0.1-0.3-0.2-0.3-0.5c0.1-0.7,0.6-1.6,1.4-2.4c0.4-0.4,2.2-2,3-2.7c1.4-1.1,2.5-1.8,3.3-2.1
			c0.3-0.1,0.6-0.1,0.7-0.1c0.2,0,0.4,0.5,0.6,1.1C1436.9,593.6,1437.1,595,1437.1,595.2z M1432.7,579.5L1432.7,579.5
			c-1.8-1-3-1.3-3-1.3c4.8-8,8.4-9,8.4-9c0.5,0.5,0.9,1.1,1.2,1.9l0,0c1.7,4.7-0.1,13.8-0.1,13.8
			C1437.5,582.7,1435.2,580.8,1432.7,579.5L1432.7,579.5z"/>
		<path id="Path_8583_3_" class="st18" d="M1427.3,577.6C1427.3,577.6,1427.3,577.7,1427.3,577.6"/>
		<path id="Path_8584_3_" class="st18" d="M1441.5,587.7c0,0.1,0,0.2,0,0.2"/>
		<g id="Group_934_3_">
			<g id="Group_933_3_">
				<g id="Group_932_3_">
					<path id="Path_8585_3_" class="st20" d="M1439.4,571.1c-0.7,0-4.1,0.6-6.6,8.4l0,0c-1.7-0.9-3-1.3-3-1.3c4.8-8,8.4-9,8.4-9
						C1438.7,569.6,1439.1,570.3,1439.4,571.1z"/>
				</g>
				<path id="Path_8586_3_" class="st21" d="M1439.3,584.9c-1.8-2.2-4-4-6.6-5.4c2.5-7.8,5.9-8.4,6.6-8.4l0,0
					C1441.1,575.8,1439.3,584.9,1439.3,584.9z"/>
				<path id="Path_8587_3_" class="st21" d="M1439.5,571.1c0,0-0.1,0-0.1,0L1439.5,571.1z"/>
			</g>
		</g>
		<path id="Path_8588_3_" class="st18" d="M1409,581.2c-0.1-0.1-0.2-0.2-0.3-0.3"/>
		<path id="Path_8589_3_" class="st18" d="M1398.4,595.7c0.2,0.3,0.2,0.4,0.2,0.4"/>
		<g id="Group_937_3_">
			<g id="Group_936_3_">
				<g id="Group_935_3_">
					<path id="Path_8590_3_" class="st20" d="M1406.4,582.3c0,0-1.1,0.8-2.4,2.3c0,0,0,0,0,0c-5.2-6.4-8.7-5.8-9.4-5.6
						c0-0.8,0.1-1.6,0.5-2.2C1395.1,576.8,1399,576.5,1406.4,582.3z"/>
				</g>
				<path id="Path_8591_3_" class="st21" d="M1404,584.6c-1.5,1.6-3.3,4.1-4.5,7.4c0,0-4.9-7.9-4.9-12.9l0,0
					C1395.3,578.8,1398.8,578.1,1404,584.6z"/>
				<path id="Path_8592_3_" class="st21" d="M1394.6,579c0,0-0.1,0-0.1,0.1L1394.6,579z"/>
			</g>
		</g>
		<path id="Path_8593_3_" class="st12" d="M1430.9,591.2c0,0-2.9,0.7-2.9-1.6c0-2.3,2.2-3,2.8-3c0.7,0,3.4,0.4,3.2,2.4
			c-0.1,2-0.8,1.7-1.2,1.9C1432.6,591,1430.9,591.2,1430.9,591.2z"/>
		<path id="Path_8594_3_" class="st12" d="M1409.4,595c0,0-2.9,0.7-2.9-1.6s2.2-3,2.8-3c0.7,0,3.4,0.4,3.2,2.4
			c-0.1,2-0.8,1.7-1.2,1.9C1411.1,594.8,1409.4,595,1409.4,595z"/>
	</g>
	<g>
		<g>
			<g>
				
					<radialGradient id="SVGID_8_" cx="490.4214" cy="392.6059" r="9.7054" gradientTransform="matrix(0.897 -0.1421 3.108531e-02 0.2158 12.9563 339.1564)" gradientUnits="userSpaceOnUse">
					<stop  offset="0" style="stop-color:#525458"/>
					<stop  offset="1" style="stop-color:#2B2D31"/>
				</radialGradient>
				<path class="st22" d="M486.8,352.6l-40.8,6.9c0,0,0.6-0.5,1.6-1c0.7-0.4,1.5-0.8,2.3-1.1c0.2-0.1,0.4-0.1,0.5-0.2
					c2.2-0.7,8.2-1.2,15.4-2.4c7.2-1.3,14.2-3,16.1-3c0.2,0,0.3,0,0.4,0c1,0,1.8,0.1,2.5,0.2C486.2,352.3,486.8,352.6,486.8,352.6z"
					/>
				<path class="st23" d="M482.5,351.8c-1.5,0.3-3.5,0.7-5.8,1.2c-3.2,0.7-7.1,1.6-11,2.3c-4.1,0.7-7.9,1.2-10.9,1.5
					c-2,0.2-3.6,0.4-4.9,0.6c-0.8,0.3-1.6,0.7-2.3,1.1c0.3-0.1,0.6-0.2,0.8-0.3c1.2-0.4,3.5-0.6,6.4-1c3-0.4,6.8-0.8,10.9-1.5
					c3.9-0.7,7.8-1.6,11-2.3c3.5-0.8,6.3-1.4,7.5-1.4c0.2,0,0.5,0,0.7,0C484.3,351.9,483.5,351.8,482.5,351.8z"/>
			</g>
			<g>
				
					<linearGradient id="SVGID_9_" gradientUnits="userSpaceOnUse" x1="468.0252" y1="373.1782" x2="468.0252" y2="348.3018" gradientTransform="matrix(0.9847 -0.1745 0.1745 0.9847 -56.8049 87.2906)">
					<stop  offset="0" style="stop-color:#2C2E32"/>
					<stop  offset="8.428930e-02" style="stop-color:#55575B"/>
					<stop  offset="0.3288" style="stop-color:#2A2C30"/>
					<stop  offset="0.521" style="stop-color:#54565A"/>
					<stop  offset="1" style="stop-color:#26252B"/>
				</linearGradient>
				<path class="st24" d="M489.5,356c-1.7-4.1-3.6-4.4-9.2-3.1c-2.6,0.6-5.7,1.3-8.4,1.9c-3.8,0.8-7.7,1.5-11.6,2.1
					c-2.7,0.4-5.9,0.8-8.5,1.1c-5.7,0.7-7.4,1.6-7.6,6.1c-0.2,4.5,1.6,11.9,5.3,11.9c3.6,0,11.1-1.6,15.8-2.6c2.5-0.5,5.1-1,7.6-1.4
					c4.8-0.7,13.3-1.9,15.8-3C492,367.6,491.2,360.2,489.5,356z"/>
				
					<radialGradient id="SVGID_10_" cx="491.0213" cy="408.0021" r="18.9837" gradientTransform="matrix(0.8944 -0.1585 0.2295 1.295 -65.3505 -86.1358)" gradientUnits="userSpaceOnUse">
					<stop  offset="0" style="stop-color:#3FB6FF"/>
					<stop  offset="9.795301e-02" style="stop-color:#3EB1F8"/>
					<stop  offset="0.2456" style="stop-color:#3BA3E3"/>
					<stop  offset="0.4245" style="stop-color:#378CC1"/>
					<stop  offset="0.6278" style="stop-color:#316C92"/>
					<stop  offset="0.8489" style="stop-color:#294356"/>
					<stop  offset="1" style="stop-color:#24252A"/>
				</radialGradient>
				<path class="st25" d="M481.9,369.6c-3.1,0.6-6.6,1.1-9.1,1.4c-1.3,0.2-2.6,0.4-3.9,0.6c-1.3,0.2-2.6,0.5-3.9,0.7l-0.4,0.1
					c-2.4,0.5-5.4,1.1-8.2,1.6c-3.1,0.6-5.4,0.8-6.8,0.8c-0.8,0-1.9-1.1-2.8-3.6c-0.8-2.2-1.3-5.1-1.2-7.3c0.1-3.5,1-4.1,4.2-4.7
					c0.6-0.1,1.2-0.2,2.1-0.3c2.2-0.3,5.1-0.6,8.6-1.1c2-0.3,3.9-0.6,5.9-0.9c1.9-0.3,3.9-0.7,5.8-1.1c3.4-0.7,6.3-1.4,8.4-1.9
					c0.8-0.2,1.5-0.3,2-0.4c3.2-0.6,4.3-0.3,5.6,2.9c0.9,2.1,1.4,4.9,1.4,7.2c0,2.8-0.8,4.2-1.5,4.5
					C487.5,368.4,485.9,368.9,481.9,369.6C481.9,369.6,481.9,369.6,481.9,369.6z"/>
				
					<radialGradient id="SVGID_11_" cx="496.04" cy="395.5472" r="28.3263" gradientTransform="matrix(0.8944 -0.1585 0.119 0.6715 -20.2697 168.2601)" gradientUnits="userSpaceOnUse">
					<stop  offset="0" style="stop-color:#525458"/>
					<stop  offset="1" style="stop-color:#2B2D31"/>
				</radialGradient>
				<path class="st26" d="M481.8,369.3c-3.1,0.6-6.6,1.1-9.1,1.4c-1.3,0.2-2.6,0.4-3.9,0.6c-1.3,0.2-2.6,0.5-3.9,0.8l-0.4,0.1
					c-2.4,0.5-5.4,1.1-8.2,1.6c-3.1,0.6-5.4,0.8-6.8,0.8c-0.5,0-1.6-0.9-2.5-3.4c-0.8-2.2-1.2-5-1.1-7.3c0.1-3.3,0.9-3.8,3.9-4.3
					c0.6-0.1,1.2-0.2,2-0.3c2.2-0.3,5.1-0.6,8.6-1.1c2-0.3,3.9-0.6,5.9-0.9c2-0.3,3.9-0.7,5.9-1.2c3.4-0.7,6.3-1.4,8.4-1.9
					c0.8-0.2,1.4-0.3,2-0.4c3-0.5,3.9-0.3,5.1,2.8c0.8,2,1.4,4.8,1.4,7.1c0,2.7-0.8,4-1.3,4.2C487.4,368.1,486,368.6,481.8,369.3z"
					/>
				
					<radialGradient id="SVGID_12_" cx="512.2478" cy="882.0284" r="13.2608" gradientTransform="matrix(0.8544 -0.1441 6.329291e-03 3.903987e-02 22.7701 396.5021)" gradientUnits="userSpaceOnUse">
					<stop  offset="0.1947" style="stop-color:#3FACFF"/>
					<stop  offset="0.2658" style="stop-color:#3591D7"/>
					<stop  offset="0.41" style="stop-color:#225E8C"/>
					<stop  offset="0.5389" style="stop-color:#143650"/>
					<stop  offset="0.6478" style="stop-color:#091924"/>
					<stop  offset="0.7324" style="stop-color:#02070A"/>
					<stop  offset="0.7824" style="stop-color:#000000"/>
				</radialGradient>
				<path class="st27" d="M477.3,355.2c0.1,0.5-4.9,1.8-11.2,2.9c-6.3,1.1-11.4,1.5-11.5,1s4.9-1.8,11.2-2.9
					C472.1,355.1,477.2,354.7,477.3,355.2z"/>
				
					<radialGradient id="SVGID_13_" cx="512.492" cy="920.5038" r="13.2608" gradientTransform="matrix(0.8544 -0.1441 6.329291e-03 3.903987e-02 24.8918 409.5885)" gradientUnits="userSpaceOnUse">
					<stop  offset="0.1946" style="stop-color:#3FACFF"/>
					<stop  offset="0.2657" style="stop-color:#3591D7"/>
					<stop  offset="0.4099" style="stop-color:#225E8C"/>
					<stop  offset="0.5389" style="stop-color:#143650"/>
					<stop  offset="0.6478" style="stop-color:#091924"/>
					<stop  offset="0.7324" style="stop-color:#02070A"/>
					<stop  offset="0.7824" style="stop-color:#000000"/>
				</radialGradient>
				<path class="st28" d="M479.9,369.7c0.1,0.5-4.9,1.8-11.2,2.9c-6.3,1.1-11.4,1.5-11.5,1c-0.1-0.5,4.9-1.8,11.2-2.9
					C474.6,369.7,479.8,369.2,479.9,369.7z"/>
			</g>
		</g>
	</g>
</g>
<g>
	<g id="Group_938_1_" transform="translate(-953.348 -232.003)">
		<g id="Group_931_1_">
			<path id="Path_8573_1_" class="st17" d="M1368.8,390.7c-1,0.3-1.9,0.7-2.8,1.2l-0.1-0.1c-0.8-0.8-1.7-1.5-2.7-2.1
				c-0.3-0.2-1.4-0.7-1.8-0.9c-1.2-0.5-2.1-0.7-3.2-0.9c0,0-0.1,0-0.1,0c-0.2-1-0.4-2-0.8-3c4.1,0,7.9,1.7,10.7,4.7
				c0.3,0.3,0.6,0.7,0.8,1L1368.8,390.7z"/>
			<path id="Path_8574_1_" class="st17" d="M1367.4,408.5c-1.2,1.2-2.6,2.1-4.1,2.7c-0.8,0.3-1.7,0.6-2.5,0.8c-2,0.4-4.1,0.4-6.1,0
				c-2.2-0.5-4.3-1.6-6-3c-1.6-1.3-2.8-3-3.7-4.9c-0.4-0.8-0.7-1.7-0.9-2.5c-1.1-4.6,0.3-9.5,3.7-12.8c0.6-0.6,1.3-1.2,2.1-1.6
				c0.3-0.2,0.7-0.5,0.9-0.5c-0.4,1.8-0.7,3.4-0.8,4c0,0-0.1,0-0.1,0.1c-1.8,1.4-3.2,2.9-4.3,4.7c0,0,0,0,0,0.1
				c-0.3,0.5-0.4,0.8-0.5,1.2c-0.3,1.3,0,2.9,0.8,4.8c1.3,3.1,3.8,6.1,6,7.5c2.4,1.4,6.8,1.8,10.2,0.9c0.6-0.1,1.1-0.3,1.6-0.5
				c0.4-0.2,1-0.5,1-0.5c0,0,0,0,0,0c0,0,0,0,0,0c0,0,0,0,0,0c0,0,0,0,0,0c0,0,0,0,0,0c0,0,0,0,0,0s0,0,0,0c0,0,0,0,0,0c0,0,0,0,0,0
				c0,0,0,0,0,0c0,0,0.1,0,0.1-0.1c0.1-0.1,0.5-0.4,0.6-0.4c0.5-0.4,0.8-0.8,1.1-1.2c0.1-0.2,0.4-0.6,0.4-0.7c0,0,0,0,0-0.1
				c0-0.1,0.1-0.2,0.1-0.3c0.1-0.2,0.2-0.4,0.2-0.6c0.7-1.9,1-3.5,0.9-5.5c0-0.1,0-0.1,0-0.2c0,0,0,0,0,0l0,0
				c0.3-0.3,1.6-1.6,2.8-3.1l0,0l0,0.1c0,0.2,0.1,0.7,0.1,1c0.1,1.2,0,2.3-0.2,3.5C1370.8,403.9,1369.5,406.5,1367.4,408.5z"/>
			<path id="Path_8575_1_" d="M1364.7,401.3c0,0.1-0.3,0.2-0.6,0.2c-0.7,0.1-1.9,0-2.9-0.3c-0.6-0.2-1.2-0.4-1.3-0.6
				c-0.1-0.1-0.1-0.2,0-0.3c0.2-0.3,0.7-0.4,1.2-0.5c0.3,0,1.4-0.1,1.9-0.2c0.8,0,1.5,0,1.9,0.1c0.1,0,0.3,0.1,0.3,0.1
				c0.1,0.1,0,0.3-0.1,0.6C1365.1,400.6,1364.8,401.2,1364.7,401.3z"/>
			<path id="Path_8576_1_" d="M1354.9,398c0,0-0.2,0-0.3,0c-0.1,0-0.5-0.3-0.8-0.4c-0.8-0.5-1.5-1.2-2-1.8c-0.3-0.4-0.4-0.7-0.5-0.9
				l-0.1-0.2l0.1-0.2c0.1-0.3,0.3-0.7,0.4-0.8c0.1-0.1,0.2-0.2,0.3-0.3c0.1,0,0.1,0,0.2,0c0.2,0.1,0.3,0.2,0.5,0.4
				c0.4,0.4,0.9,1.1,1.5,2.1c0.5,0.8,0.7,1.1,0.7,1.5C1355,397.6,1355,397.9,1354.9,398z"/>
			<path id="Path_8577_1_" d="M1357.7,406.2c0,0-0.1,0.2-0.3,0.4s-0.3,0.3-0.3,0.4c0,0-0.1,0-0.1-0.1l-0.1-0.1l-0.4,0.3
				c-0.2,0.2-0.4,0.3-0.4,0.4l-0.1,0l0-0.2l0-0.2l0.5-1.1l0,0c-0.1,0-0.6-0.2-0.8-0.3c-0.9-0.3-1.7-0.8-2.5-1.3
				c-0.1-0.1-0.2-0.2-0.2-0.2c0,0-0.1,0.3-0.3,0.6l-0.3,0.6l-0.1,0.1c-0.1,0-0.1,0.1-0.1,0.1c0,0,0-0.1,0-0.3c0-0.2,0-0.5,0.1-0.7
				l0-0.1l-0.1-0.1l-0.1,0l0-0.2c0-0.1,0.1-0.2,0.1-0.3l0.1-0.1l-0.1-0.1c0-0.1-0.1-0.2-0.1-0.2c0,0,0-0.1,0-0.1l0,0l0.5,0.2
				l0.5,0.2l0,0.1l0,0.1l0.2,0.1c0.1,0.1,0.4,0.2,0.6,0.3l0.5,0.3l0.2-0.1l0.2-0.1l0.2,0.1l0.2-0.4l0.2-0.4l-0.2-0.2
				c-0.5-0.6-0.8-1.2-0.7-1.7c0-0.1,0-0.1,0.2-0.5c0.2-0.4,0.2-0.4,0.3-0.5c0.2-0.2,0.4-0.2,0.6-0.2c0.1,0,0.3,0.1,1.2,0.6l1.1,0.5
				l0.1,0.1c0.1,0.1,0.2,0.2,0.2,0.4c0,0.2,0,0.3-0.1,0.5c-0.2,0.3-0.3,0.6-0.4,0.7c-0.1,0.1-0.3,0.2-0.4,0.3
				c-0.3,0.2-0.8,0.2-1.2,0.2l-0.1,0l-0.2,0.4l-0.2,0.4l0.1,0.1l0.1,0.1l0,0.2l0,0.2l0.5,0.3c0.3,0.1,0.5,0.3,0.6,0.3c0,0,0,0,0.1,0
				l0.1,0l0.4,0.2C1357.6,406.1,1357.7,406.1,1357.7,406.2z"/>
			<path id="Path_8578_1_" d="M1355.1,406.2c-0.1,0-0.2,0-0.2,0c0,0,0-0.1-0.1-0.2l-0.1-0.1l-0.2,0.1c-0.4,0.1-0.4,0.1-0.5,0.1
				c-0.1,0-0.1-0.1-0.2-0.3c0-0.1,0-0.2,0-0.2s0,0-0.1-0.1l-0.1-0.1l-0.1,0.1l-0.1,0.1l-0.1-0.1c-0.1-0.1-0.1-0.1-0.2-0.2l-0.1-0.1
				l0.1-0.2l1,0.5l1,0.5l0,0.1C1355.3,406.2,1355.3,406.2,1355.1,406.2z"/>
		</g>
		<path id="Path_8579_1_" class="st12" d="M1367.2,406.4C1367.2,406.3,1367.2,406.3,1367.2,406.4c-0.8-0.7-3.5-2.1-7-1.2
			c0,0,1-4.1-2.7-5.9s-7,1.1-7,1.1c-1-3.3-3.9-4.5-4.9-4.9c0,0,0,0,0,0.1c-0.3,0.5-0.4,0.8-0.5,1.2c-0.3,1.3,0,2.9,0.8,4.8
			c1.3,3.1,3.8,6.1,6,7.5c2.4,1.4,6.8,1.8,10.2,0.9c0.6-0.1,1.1-0.3,1.6-0.5c0.4-0.2,1-0.5,1-0.5c0,0,0,0,0,0c0,0,0,0,0,0
			c0,0,0,0,0,0c0,0,0,0,0,0c0,0,0,0,0,0c0,0,0,0,0,0s0,0,0,0c0,0,0,0,0,0c0,0,0,0,0,0c0,0,0,0,0,0c0,0,0.1,0,0.1-0.1
			c0.1-0.1,0.5-0.4,0.6-0.4c0.5-0.4,0.8-0.8,1.1-1.2C1367,406.8,1367.2,406.5,1367.2,406.4z M1355.1,406.2c-0.1,0-0.2,0-0.2,0
			c0,0,0-0.1-0.1-0.2l-0.1-0.1l-0.2,0.1c-0.4,0.1-0.4,0.1-0.5,0.1c-0.1,0-0.1-0.1-0.2-0.3c0-0.1,0-0.2,0-0.2s0,0-0.1-0.1l-0.1-0.1
			l-0.1,0.1l-0.1,0.1l-0.1-0.1c-0.1-0.1-0.1-0.1-0.2-0.2l-0.1-0.1l0.1-0.2l1,0.5l1,0.5l0,0.1
			C1355.3,406.2,1355.3,406.2,1355.1,406.2z M1357.4,406.5c-0.2,0.2-0.3,0.3-0.3,0.4c0,0-0.1,0-0.1-0.1l-0.1-0.1l-0.4,0.3
			c-0.2,0.2-0.4,0.3-0.4,0.4l-0.1,0l0-0.2l0-0.2l0.5-1.1l0,0c-0.1,0-0.6-0.2-0.8-0.3c-0.9-0.3-1.7-0.8-2.5-1.3
			c-0.1-0.1-0.2-0.2-0.2-0.2c0,0-0.1,0.3-0.3,0.6l-0.3,0.6l-0.1,0.1c-0.1,0-0.1,0.1-0.1,0.1c0,0,0-0.1,0-0.3c0-0.2,0-0.5,0.1-0.7
			l0-0.1l-0.1-0.1l-0.1,0l0-0.2c0-0.1,0.1-0.2,0.1-0.3l0.1-0.1l-0.1-0.1c0-0.1-0.1-0.2-0.1-0.2c0,0,0-0.1,0-0.1l0,0l0.5,0.2l0.5,0.2
			l0,0.1l0,0.1l0.2,0.1c0.1,0.1,0.4,0.2,0.6,0.3l0.5,0.3l0.2-0.1l0.2-0.1l0.2,0.1l0.2-0.4l0.2-0.4l-0.2-0.2
			c-0.5-0.6-0.8-1.2-0.7-1.7c0-0.1,0-0.1,0.2-0.5c0.2-0.4,0.2-0.4,0.3-0.5c0.2-0.2,0.4-0.2,0.6-0.2c0.1,0,0.3,0.1,1.2,0.6l1.1,0.5
			l0.1,0.1c0.1,0.1,0.2,0.2,0.2,0.4c0,0.2,0,0.3-0.1,0.5c-0.2,0.3-0.3,0.6-0.4,0.7c-0.1,0.1-0.3,0.2-0.4,0.3
			c-0.3,0.2-0.8,0.2-1.2,0.2l-0.1,0l-0.2,0.4l-0.2,0.4l0.1,0.1l0.1,0.1l0,0.2l0,0.2l0.5,0.3c0.3,0.1,0.5,0.3,0.6,0.3c0,0,0,0,0.1,0
			l0.1,0l0.4,0.2c0.3,0.2,0.4,0.2,0.4,0.2C1357.7,406.2,1357.6,406.3,1357.4,406.5z"/>
		<path id="Path_8580_1_" class="st18" d="M1345.6,395.4c-0.3-0.1-0.4-0.1-0.4-0.1"/>
		<path id="Path_8581_1_" class="st18" d="M1367.6,406.5c0,0-0.1-0.1-0.3-0.2"/>
		<path id="Path_8582_1_" class="st19" d="M1367.4,405.9c0.1-0.2,0.2-0.4,0.2-0.6c0.7-1.9,1-3.5,0.9-5.5c0-0.1,0-0.1,0-0.2
			c0,0,0,0,0,0l0,0c0.3-0.3,1.6-1.6,2.8-3.1c1.7-2.1,3.4-4.7,2.8-6c0,0-1.7-1-5.3,0.1c-1,0.3-1.9,0.7-2.8,1.2l-0.1-0.1
			c-0.8-0.8-1.7-1.5-2.7-2.1c-0.3-0.2-1.4-0.7-1.8-0.9c-1.2-0.5-2.1-0.7-3.2-0.9c0,0-0.1,0-0.1,0c-0.2-1-0.4-2-0.8-3
			c-1.3-3.6-3.2-4.4-3.2-4.4c-1.5,0.3-2.6,3.4-3.2,6.1c-0.4,1.8-0.7,3.4-0.8,4c0,0-0.1,0-0.1,0.1c-1.8,1.4-3.2,2.9-4.3,4.7
			c1.1,0.4,4,1.6,4.9,4.9c0,0,3.2-3,7-1.1s2.7,5.9,2.7,5.9c3.5-0.8,6.1,0.6,7,1.2C1367.3,406.2,1367.3,406.1,1367.4,405.9z
			 M1351.4,389.5c0,0,0.4-4.4,1.8-6.3l0,0c0.2-0.3,0.5-0.6,0.8-0.7c0,0,1.6,1,2.8,5.3c0,0-0.6,0-1.6,0.2c0,0,0,0,0,0
			C1354.2,388.2,1352.8,388.6,1351.4,389.5L1351.4,389.5z M1354.9,398c0,0-0.2,0-0.3,0c-0.1,0-0.5-0.3-0.8-0.4
			c-0.8-0.5-1.5-1.2-2-1.8c-0.3-0.4-0.4-0.7-0.5-0.9l-0.1-0.2l0.1-0.2c0.1-0.3,0.3-0.7,0.4-0.8c0.1-0.1,0.2-0.2,0.3-0.3
			c0.1,0,0.1,0,0.2,0c0.2,0.1,0.3,0.2,0.5,0.4c0.4,0.4,0.9,1.1,1.5,2.1c0.5,0.8,0.7,1.1,0.7,1.5C1355,397.6,1355,397.9,1354.9,398z
			 M1364.7,401.3c0,0.1-0.3,0.2-0.6,0.2c-0.7,0.1-1.9,0-2.9-0.3c-0.6-0.2-1.2-0.4-1.3-0.6c-0.1-0.1-0.1-0.2,0-0.3
			c0.2-0.3,0.7-0.4,1.2-0.5c0.3,0,1.4-0.1,1.9-0.2c0.8,0,1.5,0,1.9,0.1c0.1,0,0.3,0.1,0.3,0.1c0.1,0.1,0,0.3-0.1,0.6
			C1365.1,400.6,1364.8,401.2,1364.7,401.3z M1367.5,394.1L1367.5,394.1c-0.4-0.9-0.8-1.3-0.8-1.3c4.1-1.7,5.7-1,5.7-1
			c0.1,0.3,0,0.7-0.1,1.1l0,0c-0.7,2.3-3.9,5.2-3.9,5.2C1368.4,396.6,1368.1,395.3,1367.5,394.1L1367.5,394.1z"/>
		<path id="Path_8583_1_" class="st18" d="M1366,391.9C1366,391.9,1366,391.9,1366,391.9"/>
		<path id="Path_8584_1_" class="st18" d="M1368.5,399.7C1368.4,399.7,1368.4,399.7,1368.5,399.7"/>
		<g id="Group_934_1_">
			<g id="Group_933_1_">
				<g id="Group_932_1_">
					<path id="Path_8585_1_" class="st20" d="M1372.4,392.8c-0.3-0.2-1.7-0.9-4.9,1.3l0,0c-0.4-0.8-0.8-1.3-0.8-1.3
						c4.1-1.7,5.7-1,5.7-1C1372.5,392,1372.5,392.4,1372.4,392.8z"/>
				</g>
				<path id="Path_8586_1_" class="st21" d="M1368.5,398c-0.1-1.3-0.4-2.7-1-3.9c3.2-2.2,4.6-1.5,4.9-1.3l0,0
					C1371.7,395.1,1368.5,398,1368.5,398z"/>
				<path id="Path_8587_1_" class="st21" d="M1372.4,392.8C1372.4,392.8,1372.4,392.8,1372.4,392.8L1372.4,392.8z"/>
			</g>
		</g>
		<path id="Path_8588_1_" class="st18" d="M1358,388.1c0-0.1,0-0.1,0-0.2"/>
		<path id="Path_8589_1_" class="st18" d="M1350,390.6c0,0.2,0,0.2,0,0.2"/>
		<g id="Group_937_1_">
			<g id="Group_936_1_">
				<g id="Group_935_1_">
					<path id="Path_8590_1_" class="st20" d="M1356.8,387.8c0,0-0.6,0-1.6,0.2c0,0,0,0,0,0c-0.2-3.9-1.6-4.6-2-4.7
						c0.2-0.3,0.5-0.6,0.8-0.7C1354,382.5,1355.6,383.5,1356.8,387.8z"/>
				</g>
				<path id="Path_8591_1_" class="st21" d="M1355.2,388c-1,0.2-2.4,0.6-3.8,1.5c0,0,0.4-4.4,1.8-6.3l0,0
					C1353.5,383.3,1355,384.1,1355.2,388z"/>
				<path id="Path_8592_1_" class="st21" d="M1353.2,383.2C1353.2,383.2,1353.2,383.2,1353.2,383.2L1353.2,383.2z"/>
			</g>
		</g>
		<path id="Path_8593_1_" class="st12" d="M1363.5,398c0,0-1.3-0.5-0.6-1.4s1.7-0.5,1.9-0.4c0.3,0.2,1.1,1.1,0.5,1.8s-0.8,0.4-1,0.4
			S1363.5,398,1363.5,398z"/>
		<path id="Path_8594_1_" class="st12" d="M1354.3,393.4c0,0-1.3-0.5-0.6-1.4s1.7-0.5,1.9-0.4s1.1,1.1,0.5,1.8
			c-0.6,0.7-0.8,0.4-1,0.4C1355,393.8,1354.3,393.4,1354.3,393.4z"/>
	</g>
	<g>
		<g>
			<g>
				
					<radialGradient id="SVGID_14_" cx="460.9854" cy="97.1339" r="4.5726" gradientTransform="matrix(0.8047 0.4209 -0.1038 0.1917 45.963 -52.0664)" gradientUnits="userSpaceOnUse">
					<stop  offset="0" style="stop-color:#525458"/>
					<stop  offset="1" style="stop-color:#2B2D31"/>
				</radialGradient>
				<path class="st29" d="M415.5,166.1l-17.4-8.9c0,0,0.4,0,0.9,0.1c0.4,0,0.8,0.1,1.2,0.2c0.1,0,0.2,0.1,0.3,0.1
					c1,0.4,3.4,1.9,6.5,3.4c3.1,1.5,6.2,2.8,6.9,3.4c0.1,0,0.1,0.1,0.2,0.1c0.4,0.3,0.7,0.6,0.9,0.8
					C415.4,165.8,415.5,166.1,415.5,166.1z"/>
				<path class="st23" d="M414.1,164.6c-0.6-0.3-1.5-0.7-2.5-1.2c-1.4-0.6-3.1-1.4-4.8-2.2c-1.8-0.9-3.3-1.8-4.5-2.5
					c-0.8-0.5-1.5-0.9-2-1.1c-0.4-0.1-0.8-0.2-1.2-0.2c0.1,0,0.3,0.1,0.4,0.1c0.6,0.2,1.5,0.7,2.7,1.4c1.2,0.7,2.8,1.6,4.6,2.5
					c1.7,0.8,3.4,1.6,4.8,2.2c1.6,0.7,2.8,1.3,3.2,1.6c0.1,0.1,0.2,0.1,0.3,0.2C414.8,165.2,414.5,164.9,414.1,164.6z"/>
			</g>
			<g>
				
					<linearGradient id="SVGID_15_" gradientUnits="userSpaceOnUse" x1="440.8995" y1="161.4539" x2="440.8995" y2="149.7337" gradientTransform="matrix(0.8944 0.4473 -0.4473 0.8944 80.9627 -172.7004)">
					<stop  offset="0" style="stop-color:#2C2E32"/>
					<stop  offset="8.428930e-02" style="stop-color:#55575B"/>
					<stop  offset="0.3288" style="stop-color:#2A2C30"/>
					<stop  offset="0.521" style="stop-color:#54565A"/>
					<stop  offset="1" style="stop-color:#26252B"/>
				</linearGradient>
				<path class="st30" d="M415.6,168.2c0.5-2-0.1-2.7-2.6-3.8c-1.1-0.5-2.5-1.1-3.7-1.7c-1.7-0.8-3.3-1.6-5-2.5
					c-1.1-0.6-2.5-1.4-3.5-2c-2.4-1.3-3.3-1.5-4.6,0.2c-1.3,1.6-2.7,5-1.4,6c1.4,1,4.6,2.5,6.7,3.5c1.1,0.5,2.2,1.1,3.3,1.6
					c2,1.1,5.6,3,6.8,3.3C413.2,173.3,415.1,170.2,415.6,168.2z"/>
				
					<radialGradient id="SVGID_16_" cx="461.268" cy="104.3877" r="8.944" gradientTransform="matrix(0.8124 0.4063 -0.5883 1.1763 91.556 -145.0402)" gradientUnits="userSpaceOnUse">
					<stop  offset="0" style="stop-color:#3FB6FF"/>
					<stop  offset="9.795301e-02" style="stop-color:#3EB1F8"/>
					<stop  offset="0.2456" style="stop-color:#3BA3E3"/>
					<stop  offset="0.4245" style="stop-color:#378CC1"/>
					<stop  offset="0.6278" style="stop-color:#316C92"/>
					<stop  offset="0.8489" style="stop-color:#294356"/>
					<stop  offset="1" style="stop-color:#24252A"/>
				</radialGradient>
				<path class="st31" d="M408.9,171.2c-1.3-0.7-2.8-1.4-3.8-2c-0.5-0.3-1.1-0.6-1.6-0.9c-0.6-0.3-1.1-0.5-1.7-0.8l-0.2-0.1
					c-1.1-0.5-2.4-1.1-3.6-1.7c-1.3-0.7-2.3-1.2-2.8-1.6c-0.3-0.2-0.4-1-0.1-2.2c0.3-1,0.9-2.3,1.6-3.1c1-1.3,1.5-1.3,2.9-0.6
					c0.2,0.1,0.5,0.3,0.9,0.5c0.9,0.5,2.1,1.2,3.6,2c0.8,0.4,1.7,0.9,2.5,1.3c0.8,0.4,1.7,0.8,2.5,1.2c1.5,0.7,2.8,1.2,3.7,1.7
					c0.4,0.2,0.6,0.3,0.9,0.4c1.4,0.7,1.7,1.1,1.3,2.7c-0.3,1-0.9,2.2-1.5,3.1c-0.8,1.1-1.5,1.4-1.8,1.3
					C411.3,172.3,410.6,172,408.9,171.2C408.9,171.2,408.9,171.2,408.9,171.2z"/>
				
					<radialGradient id="SVGID_17_" cx="463.6325" cy="98.5197" r="13.3457" gradientTransform="matrix(0.8124 0.4063 -0.305 0.6099 61.9899 -85.9195)" gradientUnits="userSpaceOnUse">
					<stop  offset="0" style="stop-color:#525458"/>
					<stop  offset="1" style="stop-color:#2B2D31"/>
				</radialGradient>
				<path class="st32" d="M408.9,171c-1.3-0.7-2.8-1.4-3.8-2c-0.5-0.3-1.1-0.6-1.7-0.9c-0.6-0.3-1.1-0.5-1.7-0.8l-0.2-0.1
					c-1-0.5-2.4-1.1-3.6-1.7c-1.3-0.7-2.3-1.2-2.8-1.6c-0.2-0.1-0.3-0.8,0-2c0.3-1,0.9-2.2,1.6-3.1c1-1.2,1.4-1.2,2.7-0.6
					c0.2,0.1,0.5,0.3,0.8,0.5c0.9,0.5,2.1,1.2,3.6,2c0.8,0.4,1.7,0.9,2.5,1.3c0.8,0.4,1.7,0.8,2.5,1.2c1.5,0.7,2.8,1.2,3.7,1.7
					c0.4,0.2,0.6,0.3,0.9,0.4c1.3,0.6,1.6,1,1.2,2.5c-0.3,1-0.8,2.2-1.5,3.1c-0.8,1-1.4,1.3-1.7,1.2
					C411.4,172.2,410.7,171.9,408.9,171z"/>
				
					<radialGradient id="SVGID_18_" cx="477.7008" cy="353.8261" r="6.2477" gradientTransform="matrix(0.7717 0.3939 -1.820654e-02 3.510973e-02 44.1756 -38.6226)" gradientUnits="userSpaceOnUse">
					<stop  offset="0.1947" style="stop-color:#3FACFF"/>
					<stop  offset="0.2658" style="stop-color:#3591D7"/>
					<stop  offset="0.41" style="stop-color:#225E8C"/>
					<stop  offset="0.5389" style="stop-color:#143650"/>
					<stop  offset="0.6478" style="stop-color:#091924"/>
					<stop  offset="0.7324" style="stop-color:#02070A"/>
					<stop  offset="0.7824" style="stop-color:#000000"/>
				</radialGradient>
				<path class="st33" d="M411.2,164.4c-0.1,0.2-2.4-0.7-5-2.1c-2.7-1.4-4.7-2.6-4.6-2.9s2.4,0.7,5,2.1
					C409.2,162.9,411.3,164.2,411.2,164.4z"/>
				
					<radialGradient id="SVGID_19_" cx="477.8158" cy="371.9534" r="6.2477" gradientTransform="matrix(0.7717 0.3939 -1.820654e-02 3.510973e-02 41.3003 -33.0777)" gradientUnits="userSpaceOnUse">
					<stop  offset="0.1946" style="stop-color:#3FACFF"/>
					<stop  offset="0.2657" style="stop-color:#3591D7"/>
					<stop  offset="0.4099" style="stop-color:#225E8C"/>
					<stop  offset="0.5389" style="stop-color:#143650"/>
					<stop  offset="0.6478" style="stop-color:#091924"/>
					<stop  offset="0.7324" style="stop-color:#02070A"/>
					<stop  offset="0.7824" style="stop-color:#000000"/>
				</radialGradient>
				<path class="st34" d="M408.1,170.7c-0.1,0.2-2.4-0.7-5-2.1c-2.7-1.4-4.7-2.6-4.6-2.9c0.1-0.2,2.4,0.7,5,2.1
					C406.1,169.2,408.2,170.4,408.1,170.7z"/>
			</g>
		</g>
	</g>
</g>
<g>
	<g id="Group_938_2_" transform="translate(-953.348 -232.003)">
		<g id="Group_931_2_">
			<path id="Path_8573_2_" class="st17" d="M1197.5,319.4c-0.4,0.5-0.8,1.1-1.2,1.7l-0.1,0c-0.7-0.2-1.5-0.2-2.3-0.2
				c-0.2,0-1.1,0.1-1.3,0.1c-0.8,0.1-1.4,0.3-2.1,0.7c0,0-0.1,0-0.1,0c-0.5-0.5-1-1-1.5-1.4c2.3-1.5,5.1-1.9,7.7-1.2
				c0.3,0.1,0.6,0.2,0.8,0.3L1197.5,319.4z"/>
			<path id="Path_8574_2_" class="st17" d="M1203.1,329.9c-0.3,1.1-0.7,2.1-1.3,3c-0.3,0.5-0.7,0.9-1.1,1.4c-1,1-2.2,1.7-3.5,2.2
				c-1.4,0.5-3,0.7-4.5,0.5c-1.4-0.2-2.7-0.7-3.8-1.4c-0.5-0.3-1-0.7-1.4-1.1c-2.3-2.2-3.2-5.4-2.5-8.5c0.1-0.6,0.3-1.1,0.6-1.7
				c0.1-0.2,0.3-0.5,0.3-0.6c0.4,1.2,0.9,2.2,1,2.5c0,0,0,0,0,0.1c-0.5,1.4-0.8,2.8-0.7,4.2c0,0,0,0,0,0.1c0,0.4,0.1,0.6,0.1,0.9
				c0.3,0.8,1.1,1.6,2.2,2.4c1.9,1.3,4.3,2.1,6.1,2c1.8-0.1,4.4-1.4,6.1-3.2c0.3-0.3,0.5-0.6,0.7-0.9c0.2-0.2,0.4-0.6,0.4-0.6
				c0,0,0,0,0,0c0,0,0,0,0,0c0,0,0,0,0,0c0,0,0,0,0,0c0,0,0,0,0,0c0,0,0,0,0,0c0,0,0,0,0,0c0,0,0,0,0,0c0,0,0,0,0,0s0,0,0,0
				c0,0,0,0,0-0.1c0-0.1,0.2-0.4,0.2-0.5c0.1-0.4,0.2-0.7,0.2-1.1c0-0.2,0-0.5,0-0.5c0,0,0,0,0-0.1c0-0.1,0-0.1,0-0.2
				c0-0.1,0-0.3-0.1-0.4c-0.3-1.3-0.7-2.3-1.5-3.4c0,0-0.1-0.1-0.1-0.1c0,0,0,0,0,0l0,0c0.1-0.3,0.3-1.4,0.5-2.8l0,0l0,0.1
				c0.1,0.1,0.3,0.4,0.4,0.5c0.5,0.6,0.9,1.3,1.2,2C1203.3,326.1,1203.5,328,1203.1,329.9z"/>
			<path id="Path_8575_2_" d="M1199,326.8c0,0-0.1,0.2-0.3,0.3c-0.4,0.3-1.1,0.7-1.8,0.9c-0.4,0.1-0.8,0.2-0.9,0.1
				c-0.1,0-0.1-0.1-0.1-0.2c0-0.2,0.2-0.5,0.5-0.7c0.1-0.1,0.7-0.6,1-0.8c0.5-0.3,0.8-0.5,1.1-0.6c0.1,0,0.2,0,0.2,0
				c0.1,0,0.1,0.2,0.2,0.3C1198.9,326.3,1199,326.7,1199,326.8z"/>
			<path id="Path_8576_2_" d="M1192.3,328.5c0,0-0.1,0.1-0.2,0.1s-0.4,0-0.6,0c-0.6,0-1.3-0.1-1.8-0.3c-0.3-0.1-0.5-0.2-0.6-0.3
				l-0.1-0.1l0-0.1c0-0.2-0.1-0.5-0.1-0.6c0-0.1,0-0.2,0.1-0.3c0,0,0,0,0.1,0c0.1,0,0.2,0,0.4,0c0.4,0.1,0.9,0.3,1.6,0.6
				c0.6,0.3,0.8,0.4,1,0.6C1192.2,328.2,1192.3,328.4,1192.3,328.5z"/>
			<path id="Path_8577_2_" d="M1196.8,332.1c0,0,0,0.2,0,0.3s0,0.3,0,0.3c0,0-0.1,0-0.1,0l-0.1,0l-0.1,0.3c-0.1,0.2-0.1,0.3-0.1,0.4
				l0,0l-0.1-0.1l-0.1-0.1l-0.1-0.8l0,0c0,0-0.4,0.1-0.5,0.1c-0.6,0.1-1.3,0.2-1.9,0.2c-0.1,0-0.2,0-0.2,0c0,0,0,0.2,0,0.4l0.1,0.4
				l0,0.1c0,0,0,0.1,0,0.1c0,0,0,0-0.1-0.2c-0.1-0.1-0.2-0.3-0.2-0.4l0-0.1l-0.1,0l-0.1,0l0-0.1c0-0.1,0-0.1-0.1-0.2l0-0.1l-0.1-0.1
				c0,0-0.1-0.1-0.1-0.1c0,0,0,0,0,0l0,0l0.4,0l0.4,0l0,0l0,0l0.1,0c0.1,0,0.3,0,0.5,0l0.4,0l0.1-0.2l0.1-0.2l0.1,0l0-0.3l0-0.3
				l-0.2-0.1c-0.5-0.2-0.9-0.4-1-0.7c0-0.1,0-0.1-0.1-0.4c0-0.3,0-0.3,0-0.4c0-0.1,0.1-0.3,0.3-0.3c0,0,0.2,0,0.9-0.1l0.8-0.1l0.1,0
				c0.1,0,0.2,0.1,0.2,0.1c0.1,0.1,0.1,0.2,0.1,0.3c0,0.3,0,0.5,0,0.6c0,0.1-0.1,0.2-0.1,0.3c-0.1,0.2-0.4,0.4-0.6,0.5l-0.1,0l0,0.3
				l0,0.3l0.1,0l0.1,0l0.1,0.1l0.1,0.1l0.4,0c0.2,0,0.4,0,0.4,0c0,0,0,0,0.1-0.1l0-0.1l0.3,0
				C1196.7,332.1,1196.8,332.1,1196.8,332.1z"/>
			<path id="Path_8578_2_" d="M1195.3,333.1C1195.3,333.1,1195.2,333.1,1195.3,333.1c-0.1,0-0.1,0-0.2,0l-0.1-0.1l-0.1,0.1
				c-0.2,0.2-0.2,0.2-0.2,0.2c-0.1,0-0.1,0-0.2-0.1c-0.1-0.1-0.1-0.1-0.1-0.1s0,0-0.1,0l-0.1,0l0,0.1l0,0.1l-0.1,0
				c-0.1,0-0.1,0-0.2,0l-0.1,0l0-0.2l0.8-0.1l0.8-0.1l0,0.1C1195.4,333,1195.5,333,1195.3,333.1z"/>
		</g>
		<path id="Path_8579_2_" class="st12" d="M1202.2,328.8C1202.2,328.8,1202.2,328.7,1202.2,328.8c-0.7-0.1-2.7,0.1-4.4,1.8
			c0,0-0.9-2.7-3.6-2.4c-2.8,0.3-3.5,3.1-3.5,3.1c-1.7-1.5-3.8-1.2-4.5-1c0,0,0,0,0,0.1c0,0.4,0.1,0.6,0.1,0.9
			c0.3,0.8,1.1,1.6,2.2,2.4c1.9,1.3,4.3,2.1,6.1,2c1.8-0.1,4.4-1.4,6.1-3.2c0.3-0.3,0.5-0.6,0.7-0.9c0.2-0.2,0.4-0.6,0.4-0.6
			c0,0,0,0,0,0c0,0,0,0,0,0c0,0,0,0,0,0c0,0,0,0,0,0c0,0,0,0,0,0c0,0,0,0,0,0c0,0,0,0,0,0c0,0,0,0,0,0c0,0,0,0,0,0s0,0,0,0
			c0,0,0,0,0-0.1c0-0.1,0.2-0.4,0.2-0.5c0.1-0.4,0.2-0.7,0.2-1.1C1202.2,329.1,1202.2,328.8,1202.2,328.8z M1195.3,333.1
			C1195.3,333.1,1195.2,333.1,1195.3,333.1c-0.1,0-0.1,0-0.2,0l-0.1-0.1l-0.1,0.1c-0.2,0.2-0.2,0.2-0.2,0.2c-0.1,0-0.1,0-0.2-0.1
			c-0.1-0.1-0.1-0.1-0.1-0.1s0,0-0.1,0l-0.1,0l0,0.1l0,0.1l-0.1,0c-0.1,0-0.1,0-0.2,0l-0.1,0l0-0.2l0.8-0.1l0.8-0.1l0,0.1
			C1195.4,333,1195.5,333,1195.3,333.1z M1196.7,332.4c0,0.2,0,0.3,0,0.3c0,0-0.1,0-0.1,0l-0.1,0l-0.1,0.3c-0.1,0.2-0.1,0.3-0.1,0.4
			l0,0l-0.1-0.1l-0.1-0.1l-0.1-0.8l0,0c0,0-0.4,0.1-0.5,0.1c-0.6,0.1-1.3,0.2-1.9,0.2c-0.1,0-0.2,0-0.2,0c0,0,0,0.2,0,0.4l0.1,0.4
			l0,0.1c0,0,0,0.1,0,0.1c0,0,0,0-0.1-0.2c-0.1-0.1-0.2-0.3-0.2-0.4l0-0.1l-0.1,0l-0.1,0l0-0.1c0-0.1,0-0.1-0.1-0.2l0-0.1l-0.1-0.1
			c0,0-0.1-0.1-0.1-0.1c0,0,0,0,0,0l0,0l0.4,0l0.4,0l0,0l0,0l0.1,0c0.1,0,0.3,0,0.5,0l0.4,0l0.1-0.2l0.1-0.2l0.1,0l0-0.3l0-0.3
			l-0.2-0.1c-0.5-0.2-0.9-0.4-1-0.7c0-0.1,0-0.1-0.1-0.4c0-0.3,0-0.3,0-0.4c0-0.1,0.1-0.3,0.3-0.3c0,0,0.2,0,0.9-0.1l0.8-0.1l0.1,0
			c0.1,0,0.2,0.1,0.2,0.1c0.1,0.1,0.1,0.2,0.1,0.3c0,0.3,0,0.5,0,0.6c0,0.1-0.1,0.2-0.1,0.3c-0.1,0.2-0.4,0.4-0.6,0.5l-0.1,0l0,0.3
			l0,0.3l0.1,0l0.1,0l0.1,0.1l0.1,0.1l0.4,0c0.2,0,0.4,0,0.4,0c0,0,0,0,0.1-0.1l0-0.1l0.3,0c0.3,0,0.3,0,0.3,0
			C1196.8,332.1,1196.7,332.2,1196.7,332.4z"/>
		<path id="Path_8580_2_" class="st18" d="M1186.1,330.3c-0.2,0-0.3,0.1-0.3,0.1"/>
		<path id="Path_8581_2_" class="st18" d="M1202.4,328.7c0,0-0.1,0-0.3,0"/>
		<path id="Path_8582_2_" class="st19" d="M1202.1,328.5c0-0.1,0-0.3-0.1-0.4c-0.3-1.3-0.7-2.3-1.5-3.4c0,0-0.1-0.1-0.1-0.1
			c0,0,0,0,0,0l0,0c0.1-0.3,0.3-1.4,0.5-2.8c0.2-1.8,0.3-3.9-0.6-4.4c0,0-1.3,0-2.9,2c-0.4,0.5-0.8,1.1-1.2,1.7l-0.1,0
			c-0.7-0.2-1.5-0.2-2.3-0.2c-0.2,0-1.1,0.1-1.3,0.1c-0.8,0.1-1.4,0.3-2.1,0.7c0,0-0.1,0-0.1,0c-0.5-0.5-1-1-1.5-1.4
			c-2-1.6-3.4-1.3-3.4-1.3c-0.7,0.7-0.2,2.8,0.4,4.6c0.4,1.2,0.9,2.2,1,2.5c0,0,0,0,0,0.1c-0.5,1.4-0.8,2.8-0.7,4.2
			c0.7-0.2,2.8-0.5,4.5,1c0,0,0.7-2.8,3.5-3.1s3.6,2.4,3.6,2.4c1.7-1.7,3.7-1.9,4.4-1.9C1202.2,328.7,1202.1,328.6,1202.1,328.5z
			 M1187.3,324.9c0,0-1.4-2.6-1.2-4.2l0,0c0-0.3,0.1-0.5,0.2-0.7c0,0,1.2,0,3.4,2c0,0-0.4,0.2-0.8,0.7c0,0,0,0,0,0
			C1188.3,323.2,1187.7,323.9,1187.3,324.9L1187.3,324.9z M1192.3,328.5c0,0-0.1,0.1-0.2,0.1s-0.4,0-0.6,0c-0.6,0-1.3-0.1-1.8-0.3
			c-0.3-0.1-0.5-0.2-0.6-0.3l-0.1-0.1l0-0.1c0-0.2-0.1-0.5-0.1-0.6c0-0.1,0-0.2,0.1-0.3c0,0,0,0,0.1,0c0.1,0,0.2,0,0.4,0
			c0.4,0.1,0.9,0.3,1.6,0.6c0.6,0.3,0.8,0.4,1,0.6C1192.2,328.2,1192.3,328.4,1192.3,328.5z M1199,326.8c0,0-0.1,0.2-0.3,0.3
			c-0.4,0.3-1.1,0.7-1.8,0.9c-0.4,0.1-0.8,0.2-0.9,0.1c-0.1,0-0.1-0.1-0.1-0.2c0-0.2,0.2-0.5,0.5-0.7c0.1-0.1,0.7-0.6,1-0.8
			c0.5-0.3,0.8-0.5,1.1-0.6c0.1,0,0.2,0,0.2,0c0.1,0,0.1,0.2,0.2,0.3C1198.9,326.3,1199,326.7,1199,326.8z M1198,321.8L1198,321.8
			c-0.5-0.3-0.9-0.5-0.9-0.5c1.7-2.4,2.8-2.6,2.8-2.6c0.1,0.2,0.3,0.4,0.3,0.6l0,0c0.4,1.5-0.3,4.3-0.3,4.3
			C1199.4,322.9,1198.7,322.3,1198,321.8L1198,321.8z"/>
		<path id="Path_8583_2_" class="st18" d="M1196.3,321.1C1196.3,321.1,1196.3,321.1,1196.3,321.1"/>
		<path id="Path_8584_2_" class="st18" d="M1200.5,324.5C1200.5,324.6,1200.5,324.6,1200.5,324.5"/>
		<g id="Group_934_2_">
			<g id="Group_933_2_">
				<g id="Group_932_2_">
					<path id="Path_8585_2_" class="st20" d="M1200.2,319.3c-0.2,0-1.3,0.1-2.3,2.5l0,0c-0.5-0.3-0.9-0.5-0.9-0.5
						c1.7-2.4,2.8-2.6,2.8-2.6C1200,318.8,1200.1,319,1200.2,319.3z"/>
				</g>
				<path id="Path_8586_2_" class="st21" d="M1199.9,323.6c-0.5-0.7-1.2-1.4-1.9-1.8c1-2.4,2-2.5,2.3-2.5l0,0
					C1200.7,320.8,1199.9,323.6,1199.9,323.6z"/>
				<path id="Path_8587_2_" class="st21" d="M1200.3,319.3C1200.2,319.3,1200.2,319.3,1200.3,319.3L1200.3,319.3z"/>
			</g>
		</g>
		<path id="Path_8588_2_" class="st18" d="M1190.5,321.8c0,0-0.1-0.1-0.1-0.1"/>
		<path id="Path_8589_2_" class="st18" d="M1186.8,326.1c0,0.1,0.1,0.1,0.1,0.1"/>
		<g id="Group_937_2_">
			<g id="Group_936_2_">
				<g id="Group_935_2_">
					<path id="Path_8590_2_" class="st20" d="M1189.7,322.1c0,0-0.4,0.2-0.8,0.7c0,0,0,0,0,0c-1.5-2.1-2.6-2-2.8-2
						c0-0.3,0.1-0.5,0.2-0.7C1186.2,320.1,1187.4,320.1,1189.7,322.1z"/>
				</g>
				<path id="Path_8591_2_" class="st21" d="M1188.8,322.7c-0.5,0.5-1.1,1.2-1.6,2.2c0,0-1.4-2.6-1.2-4.2l0,0
					C1186.2,320.7,1187.3,320.6,1188.8,322.7z"/>
				<path id="Path_8592_2_" class="st21" d="M1186,320.8C1186,320.8,1186,320.8,1186,320.8L1186,320.8z"/>
			</g>
		</g>
		<path id="Path_8593_2_" class="st12" d="M1197.1,325.4c0,0-0.9,0.2-0.9-0.6c0-0.7,0.8-0.9,1-0.9c0.2,0,1,0.2,1,0.8
			c-0.1,0.6-0.3,0.5-0.4,0.6C1197.6,325.4,1197.1,325.4,1197.1,325.4z"/>
		<path id="Path_8594_2_" class="st12" d="M1190.3,326.1c0,0-0.9,0.2-0.9-0.6s0.8-0.9,1-0.9c0.2,0,1,0.2,1,0.8s-0.3,0.5-0.4,0.6
			C1190.8,326.1,1190.3,326.1,1190.3,326.1z"/>
	</g>
	<g>
		<g>
			<g>
				
					<radialGradient id="SVGID_20_" cx="296.4937" cy="-44.0644" r="3.0484" gradientTransform="matrix(0.9048 -7.783650e-02 1.562219e-02 0.2175 -27.6198 124.2113)" gradientUnits="userSpaceOnUse">
					<stop  offset="0" style="stop-color:#525458"/>
					<stop  offset="1" style="stop-color:#2B2D31"/>
				</radialGradient>
				<path class="st35" d="M246.8,91.6l-12.9,1.2c0,0,0.2-0.1,0.5-0.3c0.2-0.1,0.5-0.2,0.7-0.3c0.1,0,0.1,0,0.2,0
					c0.7-0.2,2.6-0.2,4.9-0.4c2.3-0.2,4.5-0.6,5.1-0.6c0,0,0.1,0,0.1,0c0.3,0,0.6,0.1,0.8,0.1C246.6,91.4,246.8,91.6,246.8,91.6z"/>
				<path class="st23" d="M245.5,91.2c-0.5,0-1.1,0.1-1.8,0.3c-1,0.1-2.3,0.3-3.5,0.5c-1.3,0.1-2.5,0.2-3.4,0.2
					c-0.6,0-1.1,0.1-1.5,0.1c-0.3,0.1-0.5,0.2-0.7,0.3c0.1,0,0.2-0.1,0.3-0.1c0.4-0.1,1.1-0.1,2-0.2c1,0,2.1-0.1,3.5-0.2
					c1.2-0.1,2.5-0.3,3.5-0.5c1.1-0.2,2-0.3,2.4-0.3c0.1,0,0.2,0,0.2,0C246,91.3,245.8,91.2,245.5,91.2z"/>
			</g>
			<g>
				
					<linearGradient id="SVGID_21_" gradientUnits="userSpaceOnUse" x1="291.3786" y1="62.1269" x2="291.3786" y2="54.3134" gradientTransform="matrix(0.9946 -0.1038 0.1038 0.9946 -55.4268 66.0362)">
					<stop  offset="0" style="stop-color:#2C2E32"/>
					<stop  offset="8.428930e-02" style="stop-color:#55575B"/>
					<stop  offset="0.3288" style="stop-color:#2A2C30"/>
					<stop  offset="0.521" style="stop-color:#54565A"/>
					<stop  offset="1" style="stop-color:#26252B"/>
				</linearGradient>
				<path class="st36" d="M247.6,92.7c-0.4-1.3-1-1.5-2.8-1.2c-0.8,0.1-1.8,0.3-2.7,0.4c-1.2,0.2-2.4,0.3-3.7,0.4
					c-0.9,0.1-1.9,0.1-2.7,0.2c-1.8,0.1-2.4,0.3-2.5,1.7c-0.2,1.4,0.2,3.8,1.4,3.9c1.1,0.1,3.5-0.3,5-0.5c0.8-0.1,1.6-0.2,2.4-0.3
					c1.5-0.1,4.2-0.3,5-0.6C248.1,96.4,248,94,247.6,92.7z"/>
				
					<radialGradient id="SVGID_22_" cx="296.6821" cy="-39.2285" r="5.9627" gradientTransform="matrix(0.9034 -9.432206e-02 0.1366 1.3081 -22.1773 174.1107)" gradientUnits="userSpaceOnUse">
					<stop  offset="0" style="stop-color:#3FB6FF"/>
					<stop  offset="9.795301e-02" style="stop-color:#3EB1F8"/>
					<stop  offset="0.2456" style="stop-color:#3BA3E3"/>
					<stop  offset="0.4245" style="stop-color:#378CC1"/>
					<stop  offset="0.6278" style="stop-color:#316C92"/>
					<stop  offset="0.8489" style="stop-color:#294356"/>
					<stop  offset="1" style="stop-color:#24252A"/>
				</radialGradient>
				<path class="st37" d="M244.9,96.8c-1,0.1-2.1,0.2-2.9,0.2c-0.4,0-0.8,0.1-1.2,0.1c-0.4,0-0.8,0.1-1.2,0.1l-0.1,0
					c-0.8,0.1-1.7,0.2-2.6,0.3c-1,0.1-1.7,0.1-2.2,0.1c-0.2,0-0.6-0.4-0.8-1.2c-0.2-0.7-0.3-1.6-0.2-2.3c0.1-1.1,0.4-1.3,1.4-1.4
					c0.2,0,0.4,0,0.7,0c0.7,0,1.6-0.1,2.7-0.2c0.6,0,1.2-0.1,1.9-0.2c0.6-0.1,1.2-0.1,1.9-0.2c1.1-0.2,2-0.3,2.7-0.4
					c0.3,0,0.5-0.1,0.6-0.1c1-0.1,1.3,0,1.7,1c0.2,0.7,0.3,1.6,0.3,2.3c-0.1,0.9-0.3,1.3-0.6,1.4C246.7,96.5,246.2,96.6,244.9,96.8
					C244.9,96.8,244.9,96.8,244.9,96.8z"/>
				
					<radialGradient id="SVGID_23_" cx="298.2585" cy="-43.1405" r="8.8971" gradientTransform="matrix(0.9034 -9.432206e-02 7.081787e-02 0.6783 -24.757 149.4043)" gradientUnits="userSpaceOnUse">
					<stop  offset="0" style="stop-color:#525458"/>
					<stop  offset="1" style="stop-color:#2B2D31"/>
				</radialGradient>
				<path class="st38" d="M244.9,96.7c-1,0.1-2.1,0.2-2.9,0.2c-0.4,0-0.8,0.1-1.2,0.1c-0.4,0-0.8,0.1-1.2,0.1l-0.1,0
					c-0.8,0.1-1.7,0.2-2.6,0.3c-1,0.1-1.7,0.1-2.1,0.1c-0.2,0-0.5-0.3-0.7-1.1c-0.2-0.7-0.3-1.6-0.2-2.3c0.1-1,0.4-1.2,1.3-1.3
					c0.2,0,0.4,0,0.6,0c0.7,0,1.6-0.1,2.7-0.2c0.6,0,1.2-0.1,1.9-0.2c0.6-0.1,1.2-0.1,1.9-0.2c1.1-0.2,2-0.3,2.7-0.4
					c0.3,0,0.5-0.1,0.6-0.1c0.9-0.1,1.2,0,1.5,1c0.2,0.7,0.3,1.5,0.3,2.3c-0.1,0.8-0.3,1.2-0.5,1.3
					C246.7,96.4,246.2,96.5,244.9,96.7z"/>
				
					<radialGradient id="SVGID_24_" cx="303.5672" cy="105.1135" r="4.1651" gradientTransform="matrix(0.8625 -8.285207e-02 3.529953e-03 3.939176e-02 -21.9916 113.5046)" gradientUnits="userSpaceOnUse">
					<stop  offset="0.1947" style="stop-color:#3FACFF"/>
					<stop  offset="0.2658" style="stop-color:#3591D7"/>
					<stop  offset="0.41" style="stop-color:#225E8C"/>
					<stop  offset="0.5389" style="stop-color:#143650"/>
					<stop  offset="0.6478" style="stop-color:#091924"/>
					<stop  offset="0.7324" style="stop-color:#02070A"/>
					<stop  offset="0.7824" style="stop-color:#000000"/>
				</radialGradient>
				<path class="st39" d="M243.8,92.1c0,0.2-1.6,0.5-3.6,0.6s-3.6,0.2-3.6,0s1.6-0.5,3.6-0.6S243.8,92,243.8,92.1z"/>
				
					<radialGradient id="SVGID_25_" cx="303.6439" cy="117.1983" r="4.1651" gradientTransform="matrix(0.8625 -8.285207e-02 3.529953e-03 3.939176e-02 -21.6199 117.652)" gradientUnits="userSpaceOnUse">
					<stop  offset="0.1946" style="stop-color:#3FACFF"/>
					<stop  offset="0.2657" style="stop-color:#3591D7"/>
					<stop  offset="0.4099" style="stop-color:#225E8C"/>
					<stop  offset="0.5389" style="stop-color:#143650"/>
					<stop  offset="0.6478" style="stop-color:#091924"/>
					<stop  offset="0.7324" style="stop-color:#02070A"/>
					<stop  offset="0.7824" style="stop-color:#000000"/>
				</radialGradient>
				<path class="st40" d="M244.3,96.8c0,0.2-1.6,0.5-3.6,0.6s-3.6,0.2-3.6,0s1.6-0.5,3.6-0.6S244.2,96.6,244.3,96.8z"/>
			</g>
		</g>
	</g>
</g>
<g>
	<g id="Group_938_4_" transform="translate(-953.348 -232.003)">
		<g id="Group_931_4_">
			<path id="Path_8573_4_" class="st17" d="M1189.6,686.9c-2.4,0.8-4.8,1.8-7.1,3.1l-0.4-0.3c-2-2-4.3-3.7-6.7-5.2
				c-0.7-0.4-3.6-1.9-4.5-2.3c-2.9-1.2-5.3-1.9-8.1-2.2c-0.1,0-0.2,0-0.3,0c-0.4-2.6-1.1-5.1-2-7.6c10.2-0.1,19.9,4.2,26.8,11.7
				c0.7,0.8,1.4,1.6,2.1,2.5L1189.6,686.9z"/>
			<path id="Path_8574_4_" class="st17" d="M1186.2,731.5c-3,2.9-6.5,5.2-10.3,6.9c-2.1,0.9-4.2,1.6-6.4,2.1
				c-5.1,1.1-10.3,1.1-15.4-0.1c-5.6-1.3-10.8-3.9-15.2-7.6c-4-3.4-7.1-7.5-9.3-12.3c-0.9-2-1.6-4.2-2.2-6.3
				c-2.8-11.6,0.7-23.8,9.2-32.1c1.6-1.5,3.3-2.9,5.2-4.1c0.9-0.6,1.9-1.1,2.3-1.4c-1.1,4.5-1.7,8.6-1.9,10.1
				c-0.1,0.1-0.1,0.1-0.2,0.2c-4.6,3.5-8,7.3-10.7,11.9c0,0.1-0.1,0.1-0.1,0.2c-0.8,1.4-1.1,2.1-1.3,3.1c-0.7,3.2,0.1,7.4,2.1,12.1
				c3.3,7.8,9.4,15.3,15.2,18.7c6,3.5,17,4.5,25.7,2.2c1.4-0.4,2.7-0.8,4.1-1.4c1-0.4,2.5-1.2,2.4-1.2c0,0,0,0,0.1,0
				c0,0,0.1,0,0.1,0c0,0,0,0,0.1,0c0,0,0.1,0,0.1,0s0,0,0.1,0c0,0,0.1,0,0.1,0c0,0,0,0,0,0c0,0,0.1,0,0.1,0c0,0,0,0,0.1,0
				c0,0,0,0,0.1,0c0.1-0.1,0.2-0.1,0.2-0.2c0.3-0.2,1.4-0.9,1.5-1c1.2-1,2.1-1.9,2.8-3c0.3-0.5,0.9-1.5,1-1.7c0,0,0-0.1,0.1-0.2
				c0.1-0.2,0.2-0.5,0.3-0.8c0.2-0.4,0.5-1.1,0.6-1.4c1.8-4.6,2.5-8.8,2.2-13.8c0-0.2,0-0.4,0-0.5c0,0,0-0.1,0-0.1l0,0
				c0.8-0.8,3.9-3.9,7.1-7.8l0,0l0,0.3c0.1,0.5,0.2,1.8,0.3,2.5c0.3,2.9,0.1,5.9-0.4,8.8C1194.6,720.2,1191.2,726.6,1186.2,731.5z"
				/>
			<path id="Path_8575_4_" d="M1179.3,713.5c-0.1,0.1-0.8,0.4-1.4,0.5c-1.8,0.3-4.7,0-7.4-0.8c-1.5-0.4-2.9-1.1-3.3-1.5
				c-0.2-0.3-0.2-0.4,0.1-0.7c0.6-0.6,1.6-1.1,3.1-1.3c0.7-0.1,3.5-0.3,4.8-0.4c2.1-0.1,3.7,0,4.7,0.4c0.3,0.1,0.7,0.3,0.7,0.4
				c0.1,0.2,0.1,0.8-0.2,1.4C1180.2,711.8,1179.5,713.3,1179.3,713.5z"/>
			<path id="Path_8576_4_" d="M1154.7,705.2c-0.1,0.1-0.5,0.1-0.8,0c-0.4-0.1-1.4-0.7-1.9-1c-1.9-1.3-3.8-3-5-4.6
				c-0.7-0.9-1.1-1.7-1.3-2.4l-0.1-0.4l0.2-0.4c0.3-0.7,0.8-1.7,1.1-2c0.2-0.3,0.5-0.5,0.7-0.7c0.1-0.1,0.1-0.1,0.5,0.1
				c0.4,0.2,0.8,0.5,1.3,0.9c1,1,2.4,2.8,3.9,5.2c1.3,2,1.7,2.8,1.8,3.8C1154.9,704.3,1154.8,705.1,1154.7,705.2z"/>
			<path id="Path_8577_4_" d="M1161.7,725.7c0,0-0.4,0.4-0.8,0.9c-0.4,0.5-0.8,0.9-0.8,0.9c-0.1,0-0.2-0.1-0.3-0.1l-0.3-0.2
				l-0.9,0.8c-0.5,0.4-1,0.9-1.1,0.9l-0.1,0.1l0-0.4l0-0.4l1.4-2.7l-0.1,0c-0.2,0-1.4-0.5-2-0.7c-2.2-0.9-4.4-2-6.4-3.3
				c-0.3-0.2-0.6-0.4-0.6-0.4s-0.3,0.6-0.7,1.4l-0.7,1.4l-0.3,0.2c-0.2,0.1-0.3,0.2-0.3,0.2c0,0-0.1-0.2-0.1-0.8
				c0-0.6,0.1-1.2,0.2-1.8l0.1-0.3l-0.3-0.1l-0.3-0.1l0.1-0.4c0.1-0.2,0.2-0.5,0.2-0.7l0.1-0.3l-0.1-0.4c-0.1-0.2-0.2-0.4-0.2-0.4
				c0-0.1,0-0.1,0-0.2l0.1-0.1l1.2,0.6l1.2,0.6l0,0.1l0,0.1l0.4,0.2c0.2,0.1,1,0.5,1.6,0.9l1.2,0.6l0.6-0.3l0.6-0.3l0.4,0.2l0.5-1
				l0.5-1l-0.4-0.5c-1.3-1.6-1.9-3-1.8-4.3c0-0.3,0.1-0.3,0.5-1.3c0.5-1,0.5-1.1,0.7-1.2c0.4-0.4,1-0.6,1.5-0.5
				c0.2,0,0.6,0.3,2.9,1.4l2.7,1.4l0.2,0.3c0.3,0.4,0.4,0.6,0.4,0.9c0.1,0.4,0,0.7-0.3,1.3c-0.4,0.9-0.9,1.6-1.1,1.8
				c-0.3,0.3-0.7,0.6-1.1,0.8c-0.8,0.4-2,0.6-3,0.4l-0.3,0l-0.5,1l-0.5,1l0.2,0.1l0.2,0.1l0.1,0.6l0.1,0.6l1.3,0.7
				c0.7,0.4,1.4,0.7,1.4,0.7c0.1,0.1,0.1,0.1,0.3,0l0.2-0.1l1.1,0.6C1161.5,725.6,1161.7,725.7,1161.7,725.7z"/>
			<path id="Path_8578_4_" d="M1155.1,726c-0.2,0-0.4,0-0.4,0c0,0-0.1-0.2-0.2-0.4l-0.2-0.3l-0.4,0.2c-0.9,0.3-1,0.4-1.1,0.3
				c-0.3-0.1-0.3-0.2-0.4-0.9c0-0.3-0.1-0.6-0.1-0.6s-0.1-0.1-0.3-0.2l-0.3-0.2l-0.3,0.2l-0.3,0.2l-0.2-0.2
				c-0.1-0.1-0.3-0.3-0.4-0.5l-0.2-0.3l0.3-0.6l2.6,1.3l2.6,1.3l-0.1,0.3C1155.7,725.9,1155.7,725.9,1155.1,726z"/>
		</g>
		<path id="Path_8579_4_" class="st12" d="M1185.5,726.3c0,0,0-0.1,0.1-0.2c-2.2-1.4-8.8-4.9-17.6-2.9c0,0,2.6-10.2-6.8-14.9
			c-9.4-4.7-17.5,2.8-17.5,2.8c-2.4-8.3-9.7-11.4-12.4-12.3c0,0.1-0.1,0.1-0.1,0.2c-0.8,1.4-1.1,2.1-1.3,3.1
			c-0.7,3.2,0.1,7.4,2.1,12.1c3.3,7.8,9.4,15.3,15.2,18.7c6,3.5,17,4.5,25.7,2.2c1.4-0.4,2.7-0.8,4.1-1.4c1-0.4,2.5-1.2,2.4-1.2
			c0,0,0,0,0.1,0c0,0,0.1,0,0.1,0c0,0,0,0,0.1,0c0,0,0.1,0,0.1,0c0,0,0,0,0.1,0c0,0,0.1,0,0.1,0c0,0,0,0,0,0c0,0,0.1,0,0.1,0
			s0,0,0.1,0c0,0,0,0,0.1,0c0.1-0.1,0.2-0.1,0.2-0.2c0.3-0.2,1.4-0.9,1.5-1c1.2-1,2.1-1.9,2.8-3
			C1184.9,727.5,1185.5,726.5,1185.5,726.3z M1155.1,726c-0.2,0-0.4,0-0.4,0c0,0-0.1-0.2-0.2-0.4l-0.2-0.3l-0.4,0.2
			c-0.9,0.3-1,0.4-1.1,0.3c-0.3-0.1-0.3-0.2-0.4-0.9c0-0.3-0.1-0.6-0.1-0.6s-0.1-0.1-0.3-0.2l-0.3-0.2l-0.3,0.2l-0.3,0.2l-0.2-0.2
			c-0.1-0.1-0.3-0.3-0.4-0.5l-0.2-0.3l0.3-0.6l2.6,1.3l2.6,1.3l-0.1,0.3C1155.7,725.9,1155.7,725.9,1155.1,726z M1160.9,726.7
			c-0.4,0.5-0.8,0.9-0.8,0.9c-0.1,0-0.2-0.1-0.3-0.1l-0.3-0.2l-0.9,0.8c-0.5,0.4-1,0.9-1.1,0.9l-0.1,0.1l0-0.4l0-0.4l1.4-2.7l-0.1,0
			c-0.2,0-1.4-0.5-2-0.7c-2.2-0.9-4.4-2-6.4-3.3c-0.3-0.2-0.6-0.4-0.6-0.4s-0.3,0.6-0.7,1.4l-0.7,1.4l-0.3,0.2
			c-0.2,0.1-0.3,0.2-0.3,0.2c0,0-0.1-0.2-0.1-0.8c0-0.6,0.1-1.2,0.2-1.8l0.1-0.3l-0.3-0.1l-0.3-0.1l0.1-0.4c0.1-0.2,0.2-0.5,0.2-0.7
			l0.1-0.3l-0.1-0.4c-0.1-0.2-0.2-0.4-0.2-0.4c0-0.1,0-0.1,0-0.2l0.1-0.1l1.2,0.6l1.2,0.6l0,0.1l0,0.1l0.4,0.2
			c0.2,0.1,1,0.5,1.6,0.9l1.2,0.6l0.6-0.3l0.6-0.3l0.4,0.2l0.5-1l0.5-1l-0.4-0.5c-1.3-1.6-1.9-3-1.8-4.3c0-0.3,0.1-0.3,0.5-1.3
			c0.5-1,0.5-1.1,0.7-1.2c0.4-0.4,1-0.6,1.5-0.5c0.2,0,0.6,0.3,2.9,1.4l2.7,1.4l0.2,0.3c0.3,0.4,0.4,0.6,0.4,0.9
			c0.1,0.4,0,0.7-0.3,1.3c-0.4,0.9-0.9,1.6-1.1,1.8c-0.3,0.3-0.7,0.6-1.1,0.8c-0.8,0.4-2,0.6-3,0.4l-0.3,0l-0.5,1l-0.5,1l0.2,0.1
			l0.2,0.1l0.1,0.6l0.1,0.6l1.3,0.7c0.7,0.4,1.4,0.7,1.4,0.7c0.1,0.1,0.1,0.1,0.3,0l0.2-0.1l1.1,0.6c0.9,0.4,1.1,0.6,1.1,0.6
			C1161.7,725.8,1161.3,726.2,1160.9,726.7z"/>
		<path id="Path_8580_4_" class="st18" d="M1131.3,698.7c-0.7-0.2-1.1-0.3-1.1-0.3"/>
		<path id="Path_8581_4_" class="st18" d="M1186.4,726.6c0,0-0.3-0.2-0.8-0.6"/>
		<path id="Path_8582_4_" class="st19" d="M1186,725.2c0.2-0.4,0.5-1.1,0.6-1.4c1.8-4.6,2.5-8.8,2.2-13.8c0-0.2,0-0.4,0-0.5
			c0,0,0-0.1,0-0.1l0,0c0.8-0.8,3.9-3.9,7.1-7.8c4.3-5.2,8.6-11.7,7-15.1c0,0-4.3-2.6-13.3,0.3c-2.4,0.8-4.8,1.8-7.1,3.1l-0.4-0.3
			c-2-2-4.3-3.7-6.7-5.2c-0.7-0.4-3.6-1.9-4.5-2.3c-2.9-1.2-5.3-1.9-8.1-2.2c-0.1,0-0.2,0-0.3,0c-0.4-2.6-1.1-5.1-2-7.6
			c-3.3-9.1-8.1-11.1-8.1-11.1c-3.8,0.8-6.5,8.4-8.1,15.3c-1.1,4.5-1.7,8.6-1.9,10.1c-0.1,0.1-0.1,0.1-0.2,0.2
			c-4.6,3.5-8,7.3-10.7,11.9c2.7,0.9,10,4,12.4,12.3c0,0,8.1-7.4,17.5-2.8s6.8,14.9,6.8,14.9c8.8-2,15.4,1.5,17.6,2.9
			C1185.7,725.8,1185.8,725.5,1186,725.2z M1145.9,683.9c0,0,0.9-11,4.5-15.7l0,0c0.6-0.8,1.3-1.4,2-1.8c0,0,3.9,2.5,6.9,13.3
			c0,0-1.6,0-3.9,0.4c0,0,0,0,0,0C1152.8,680.6,1149.3,681.6,1145.9,683.9L1145.9,683.9z M1154.7,705.2c-0.1,0.1-0.5,0.1-0.8,0
			c-0.4-0.1-1.4-0.7-1.9-1c-1.9-1.3-3.8-3-5-4.6c-0.7-0.9-1.1-1.7-1.3-2.4l-0.1-0.4l0.2-0.4c0.3-0.7,0.8-1.7,1.1-2
			c0.2-0.3,0.5-0.5,0.7-0.7c0.1-0.1,0.1-0.1,0.5,0.1c0.4,0.2,0.8,0.5,1.3,0.9c1,1,2.4,2.8,3.9,5.2c1.3,2,1.7,2.8,1.8,3.8
			C1154.9,704.3,1154.8,705.1,1154.7,705.2z M1179.3,713.5c-0.1,0.1-0.8,0.4-1.4,0.5c-1.8,0.3-4.7,0-7.4-0.8
			c-1.5-0.4-2.9-1.1-3.3-1.5c-0.2-0.3-0.2-0.4,0.1-0.7c0.6-0.6,1.6-1.1,3.1-1.3c0.7-0.1,3.5-0.3,4.8-0.4c2.1-0.1,3.7,0,4.7,0.4
			c0.3,0.1,0.7,0.3,0.7,0.4c0.1,0.2,0.1,0.8-0.2,1.4C1180.2,711.8,1179.5,713.3,1179.3,713.5z M1186.3,695.5L1186.3,695.5
			c-1-2.2-1.9-3.4-1.9-3.4c10.2-4.2,14.4-2.6,14.4-2.6c0.1,0.8,0,1.7-0.2,2.7l0,0c-1.7,5.7-9.8,13.1-9.8,13.1
			C1188.5,701.9,1187.7,698.6,1186.3,695.5L1186.3,695.5z"/>
		<path id="Path_8583_4_" class="st18" d="M1182.5,689.9C1182.4,689.9,1182.4,690,1182.5,689.9"/>
		<path id="Path_8584_4_" class="st18" d="M1188.8,709.4c-0.1,0.1-0.2,0.2-0.2,0.2"/>
		<g id="Group_934_4_">
			<g id="Group_933_4_">
				<g id="Group_932_4_">
					<path id="Path_8585_4_" class="st20" d="M1198.5,692.2c-0.7-0.5-4.3-2.3-12.2,3.3l0,0c-1-2.1-1.9-3.4-1.9-3.4
						c10.2-4.2,14.4-2.6,14.4-2.6C1198.9,690.3,1198.8,691.2,1198.5,692.2z"/>
				</g>
				<path id="Path_8586_4_" class="st21" d="M1188.7,705.3c-0.2-3.4-1-6.7-2.4-9.8c7.9-5.6,11.5-3.8,12.2-3.3l0,0
					C1196.8,697.9,1188.7,705.3,1188.7,705.3z"/>
				<path id="Path_8587_4_" class="st21" d="M1198.6,692.3c0,0-0.1-0.1-0.1-0.1L1198.6,692.3z"/>
			</g>
		</g>
		<path id="Path_8588_4_" class="st18" d="M1162.5,680.4c0-0.2-0.1-0.4-0.1-0.6"/>
		<path id="Path_8589_4_" class="st18" d="M1142.2,686.6c-0.1,0.4-0.1,0.6-0.1,0.6"/>
		<g id="Group_937_4_">
			<g id="Group_936_4_">
				<g id="Group_935_4_">
					<path id="Path_8590_4_" class="st20" d="M1159.3,679.6c0,0-1.6,0-3.9,0.4c0,0,0,0,0,0c-0.4-9.8-4.1-11.6-5-11.9
						c0.6-0.8,1.3-1.4,2-1.8C1152.4,666.4,1156.4,668.8,1159.3,679.6z"/>
				</g>
				<path id="Path_8591_4_" class="st21" d="M1155.4,680.1c-2.6,0.5-6.1,1.6-9.5,3.8c0,0,0.9-11,4.5-15.7l0,0
					C1151.2,668.4,1155,670.3,1155.4,680.1z"/>
				<path id="Path_8592_4_" class="st21" d="M1150.4,668.1c-0.1,0-0.1,0-0.2,0L1150.4,668.1z"/>
			</g>
		</g>
		<path id="Path_8593_4_" class="st12" d="M1176.3,705.4c0,0-3.2-1.4-1.6-3.6c1.6-2.2,4.2-1.3,4.8-0.9s2.9,2.8,1.4,4.6
			c-1.5,1.8-2,1.1-2.4,1C1178,706.4,1176.3,705.4,1176.3,705.4z"/>
		<path id="Path_8594_4_" class="st12" d="M1153.2,693.8c0,0-3.2-1.4-1.6-3.6c1.6-2.2,4.2-1.3,4.8-0.9c0.6,0.4,2.9,2.8,1.4,4.6
			c-1.5,1.8-2,1.1-2.4,1C1154.9,694.8,1153.2,693.8,1153.2,693.8z"/>
	</g>
	<g>
		<g>
			<g>
				
					<radialGradient id="SVGID_26_" cx="418.9971" cy="615.5432" r="11.4762" gradientTransform="matrix(0.8047 0.4209 -0.1038 0.1917 -58.6927 165.3438)" gradientUnits="userSpaceOnUse">
					<stop  offset="0" style="stop-color:#525458"/>
					<stop  offset="1" style="stop-color:#2B2D31"/>
				</radialGradient>
				<path class="st41" d="M236.4,473.6l-43.5-22.2c0,0,0.9,0,2.2,0.2c0.9,0.1,1.9,0.3,2.9,0.6c0.2,0.1,0.4,0.1,0.6,0.2
					c2.6,0.9,8.6,4.7,16.4,8.6c7.8,3.9,15.6,7.1,17.4,8.5c0.1,0.1,0.3,0.2,0.4,0.3c0.9,0.7,1.7,1.4,2.2,2
					C236,472.9,236.4,473.6,236.4,473.6z"/>
				<path class="st23" d="M232.8,469.8c-1.6-0.8-3.8-1.8-6.4-2.9c-3.5-1.6-7.8-3.5-12-5.6c-4.4-2.2-8.3-4.4-11.4-6.2
					c-2.1-1.2-3.8-2.2-5.1-2.8c-1-0.3-2-0.5-2.9-0.6c0.3,0.1,0.7,0.2,1,0.3c1.4,0.5,3.8,1.9,6.7,3.6c3.1,1.8,7,4,11.4,6.2
					c4.2,2.1,8.5,4,12,5.6c3.9,1.8,7,3.1,8.1,3.9c0.2,0.2,0.5,0.3,0.7,0.5C234.5,471.2,233.8,470.5,232.8,469.8z"/>
			</g>
			<g>
				
					<linearGradient id="SVGID_27_" gradientUnits="userSpaceOnUse" x1="403.2861" y1="528.7383" x2="403.2861" y2="499.3232" gradientTransform="matrix(0.8944 0.4473 -0.4473 0.8944 80.9627 -172.7004)">
					<stop  offset="0" style="stop-color:#2C2E32"/>
					<stop  offset="8.428930e-02" style="stop-color:#55575B"/>
					<stop  offset="0.3288" style="stop-color:#2A2C30"/>
					<stop  offset="0.521" style="stop-color:#54565A"/>
					<stop  offset="1" style="stop-color:#26252B"/>
				</linearGradient>
				<path class="st42" d="M236.5,478.8c1.3-5.1-0.3-6.7-6.6-9.5c-2.9-1.2-6.3-2.8-9.3-4.1c-4.2-1.9-8.4-4-12.4-6.2
					c-2.8-1.6-6.2-3.4-8.9-5c-5.9-3.4-8.2-3.7-11.5,0.4c-3.3,4.1-6.9,12.5-3.4,15c3.4,2.5,11.6,6.3,16.8,8.7
					c2.8,1.3,5.5,2.7,8.2,4.1c5,2.7,14,7.6,17.1,8.3C230.7,491.5,235.2,483.9,236.5,478.8z"/>
				
					<radialGradient id="SVGID_28_" cx="419.7065" cy="633.7485" r="22.4474" gradientTransform="matrix(0.8124 0.4063 -0.5883 1.1763 241.4884 -444.847)" gradientUnits="userSpaceOnUse">
					<stop  offset="0" style="stop-color:#3FB6FF"/>
					<stop  offset="9.795301e-02" style="stop-color:#3EB1F8"/>
					<stop  offset="0.2456" style="stop-color:#3BA3E3"/>
					<stop  offset="0.4245" style="stop-color:#378CC1"/>
					<stop  offset="0.6278" style="stop-color:#316C92"/>
					<stop  offset="0.8489" style="stop-color:#294356"/>
					<stop  offset="1" style="stop-color:#24252A"/>
				</radialGradient>
				<path class="st43" d="M219.7,486.3c-3.3-1.7-7-3.6-9.6-5.1c-1.4-0.7-2.8-1.5-4.1-2.2c-1.4-0.7-2.8-1.4-4.2-2l-0.4-0.2
					c-2.6-1.2-5.9-2.7-9-4.2c-3.4-1.7-5.8-3-7.1-4c-0.7-0.5-1.1-2.4-0.2-5.4c0.8-2.6,2.4-5.7,4.1-7.8c2.6-3.2,3.9-3.2,7.3-1.5
					c0.6,0.3,1.3,0.7,2.2,1.2c2.3,1.3,5.3,3,8.9,5c2,1.1,4.1,2.2,6.2,3.3c2.1,1,4.2,2.1,6.4,3c3.8,1.7,6.9,3.1,9.3,4.2
					c0.9,0.4,1.6,0.7,2.2,1c3.4,1.7,4.2,2.7,3.2,6.7c-0.7,2.6-2.1,5.6-3.8,7.8c-2,2.7-3.7,3.4-4.6,3.2
					C225.8,489.1,224,488.4,219.7,486.3C219.7,486.3,219.7,486.3,219.7,486.3z"/>
				
					<radialGradient id="SVGID_29_" cx="425.6409" cy="619.0212" r="33.4946" gradientTransform="matrix(0.8124 0.4063 -0.305 0.6099 61.9899 -85.9195)" gradientUnits="userSpaceOnUse">
					<stop  offset="0" style="stop-color:#525458"/>
					<stop  offset="1" style="stop-color:#2B2D31"/>
				</radialGradient>
				<path class="st44" d="M219.9,485.9c-3.3-1.7-7-3.6-9.6-5.1c-1.4-0.7-2.8-1.5-4.2-2.2c-1.4-0.7-2.8-1.4-4.2-2l-0.4-0.2
					c-2.6-1.2-5.9-2.7-8.9-4.2c-3.3-1.7-5.7-3-7-4c-0.5-0.3-0.9-2,0-5c0.8-2.6,2.4-5.6,4-7.7c2.5-3.1,3.6-3,6.7-1.4
					c0.6,0.3,1.3,0.7,2.1,1.2c2.3,1.3,5.3,3,8.9,5c2.1,1.1,4.2,2.2,6.3,3.3c2.1,1,4.2,2.1,6.4,3c3.8,1.7,6.9,3.1,9.3,4.2
					c0.9,0.4,1.6,0.7,2.2,1c3.2,1.6,3.9,2.4,2.9,6.2c-0.6,2.5-2.1,5.6-3.7,7.7c-1.9,2.5-3.5,3.2-4.2,3.1
					C226,488.7,224.3,488.2,219.9,485.9z"/>
				
					<radialGradient id="SVGID_30_" cx="440.0509" cy="1280.6692" r="15.6803" gradientTransform="matrix(0.7717 0.3939 -1.820654e-02 3.510973e-02 -102.8398 244.8839)" gradientUnits="userSpaceOnUse">
					<stop  offset="0.1947" style="stop-color:#3FACFF"/>
					<stop  offset="0.2658" style="stop-color:#3591D7"/>
					<stop  offset="0.41" style="stop-color:#225E8C"/>
					<stop  offset="0.5389" style="stop-color:#143650"/>
					<stop  offset="0.6478" style="stop-color:#091924"/>
					<stop  offset="0.7324" style="stop-color:#02070A"/>
					<stop  offset="0.7824" style="stop-color:#000000"/>
				</radialGradient>
				<path class="st45" d="M225.5,469.4c-0.3,0.6-6-1.8-12.7-5.2c-6.7-3.4-11.9-6.6-11.6-7.2c0.3-0.6,6,1.8,12.7,5.2
					C220.6,465.6,225.8,468.8,225.5,469.4z"/>
				
					<radialGradient id="SVGID_31_" cx="440.3396" cy="1326.1644" r="15.6803" gradientTransform="matrix(0.7717 0.3939 -1.820654e-02 3.510973e-02 -110.0562 258.8001)" gradientUnits="userSpaceOnUse">
					<stop  offset="0.1946" style="stop-color:#3FACFF"/>
					<stop  offset="0.2657" style="stop-color:#3591D7"/>
					<stop  offset="0.4099" style="stop-color:#225E8C"/>
					<stop  offset="0.5389" style="stop-color:#143650"/>
					<stop  offset="0.6478" style="stop-color:#091924"/>
					<stop  offset="0.7324" style="stop-color:#02070A"/>
					<stop  offset="0.7824" style="stop-color:#000000"/>
				</radialGradient>
				<path class="st46" d="M217.7,485c-0.3,0.6-6-1.8-12.7-5.2c-6.7-3.4-11.9-6.6-11.6-7.2c0.3-0.6,6,1.8,12.7,5.2
					C212.8,481.2,218,484.4,217.7,485z"/>
			</g>
		</g>
	</g>
</g>
<g>
	<g id="Group_938_5_" transform="translate(-953.348 -232.003)">
		<g id="Group_931_5_">
			<path id="Path_8573_5_" class="st17" d="M1069.8,623.9c-0.4,1.6-0.7,3.2-0.8,4.9l-0.3,0.1c-1.8,0.4-3.5,1-5.1,1.9
				c-0.5,0.2-2.2,1.3-2.8,1.7c-1.6,1.1-2.8,2.2-4,3.6c0,0.1-0.1,0.1-0.1,0.2c-1.5-0.6-3.1-1.1-4.7-1.5c3.4-5.5,9-9.3,15.4-10.4
				c0.7-0.1,1.4-0.2,2.1-0.3L1069.8,623.9z"/>
			<path id="Path_8574_5_" class="st17" d="M1092.6,641c0.5,2.6,0.6,5.3,0.2,7.9c-0.2,1.4-0.6,2.8-1.1,4.1c-1.1,3.1-2.9,5.9-5.3,8.2
				c-2.6,2.6-5.8,4.5-9.2,5.6c-3.2,1-6.5,1.3-9.8,0.8c-1.4-0.2-2.8-0.5-4.1-1c-7.2-2.4-12.6-8.5-14.1-15.9c-0.3-1.4-0.4-2.8-0.5-4.2
				c0-0.6,0-1.4,0.1-1.7c2.1,2.1,4.1,3.9,4.8,4.5c0,0.1,0,0.1,0,0.2c0.3,3.6,1.2,6.8,2.7,9.8c0,0,0,0.1,0.1,0.1
				c0.5,0.9,0.7,1.3,1.2,1.7c1.5,1.4,4,2.5,7.2,3c5.3,0.9,11.4,0.2,15.2-1.8c3.9-2,8.2-7.6,10-13.1c0.3-0.9,0.5-1.7,0.7-2.6
				c0.1-0.7,0.2-1.7,0.2-1.7c0,0,0,0,0,0c0,0,0-0.1,0-0.1c0,0,0,0,0,0s0,0,0,0c0,0,0,0,0,0c0,0,0,0,0,0c0,0,0,0,0,0c0,0,0,0,0,0
				c0,0,0,0,0,0c0,0,0,0,0,0c0-0.1,0-0.1,0-0.2c0-0.2,0-1,0-1.2c-0.1-1-0.3-1.8-0.6-2.5c-0.1-0.4-0.5-1-0.6-1.1c0,0,0-0.1-0.1-0.1
				c-0.1-0.1-0.2-0.3-0.3-0.5c-0.2-0.3-0.4-0.6-0.6-0.8c-1.9-2.5-3.9-4.3-6.6-5.9c-0.1-0.1-0.2-0.1-0.3-0.2c0,0,0,0-0.1,0l0,0
				c-0.1-0.7-0.8-3.4-1.8-6.4l0,0l0.2,0.1c0.3,0.1,1.1,0.5,1.4,0.7c1.7,0.9,3.2,1.9,4.6,3.2C1089.4,632.6,1091.6,636.6,1092.6,641z"
				/>
			<path id="Path_8575_5_" d="M1080.6,638.5c0,0.1-0.1,0.6-0.2,0.9c-0.5,1.1-1.6,2.5-2.9,3.7c-0.8,0.7-1.6,1.2-1.9,1.2
				c-0.2,0-0.3,0-0.3-0.3c-0.1-0.5,0-1.3,0.3-2.1c0.2-0.4,1-2,1.4-2.7c0.7-1.2,1.3-2,1.8-2.4c0.2-0.1,0.4-0.3,0.4-0.3
				c0.1,0,0.4,0.2,0.7,0.6C1080,637.4,1080.5,638.3,1080.6,638.5z"/>
			<path id="Path_8576_5_" d="M1067.7,648.9c0,0.1-0.1,0.3-0.3,0.4s-0.8,0.5-1.2,0.7c-1.4,0.6-2.9,1-4.2,1.1c-0.7,0.1-1.3,0-1.7-0.1
				l-0.3-0.1l-0.2-0.2c-0.3-0.4-0.6-1-0.7-1.2c-0.1-0.2-0.1-0.4-0.1-0.6c0-0.1,0-0.1,0.2-0.2c0.3-0.2,0.5-0.2,0.9-0.4
				c0.9-0.2,2.3-0.3,4.1-0.3c1.5,0,2.1,0.1,2.7,0.3C1067.3,648.5,1067.7,648.8,1067.7,648.9z"/>
			<path id="Path_8577_5_" d="M1081.1,652.2c0,0,0.1,0.3,0.2,0.7s0.2,0.7,0.2,0.7c-0.1,0-0.1,0.1-0.2,0.1l-0.2,0.1l0.1,0.8
				c0.1,0.4,0.1,0.8,0.1,0.9l0,0.1l-0.2-0.1l-0.2-0.1l-1-1.6l0,0c-0.1,0.1-0.8,0.6-1,0.8c-1.2,0.9-2.6,1.7-4,2.3
				c-0.2,0.1-0.4,0.2-0.4,0.2c0,0,0.2,0.4,0.5,0.9l0.5,0.8l0,0.2c0,0.1,0,0.2,0,0.2c0,0-0.1,0-0.4-0.2c-0.3-0.2-0.6-0.4-0.9-0.7
				l-0.1-0.1l-0.2,0.1l-0.2,0.1l-0.2-0.2c-0.1-0.1-0.2-0.3-0.3-0.4l-0.1-0.2l-0.2,0c-0.1,0-0.3,0-0.3,0c0,0-0.1,0-0.1-0.1l0-0.1
				l0.7-0.4l0.7-0.4l0.1,0.1l0.1,0.1l0.3-0.1c0.1-0.1,0.6-0.3,1-0.6l0.8-0.4l0-0.4l0-0.4l0.3-0.2l-0.4-0.6l-0.4-0.6l-0.4,0.1
				c-1.3,0.2-2.3,0-2.9-0.5c-0.1-0.1-0.2-0.1-0.5-0.7c-0.4-0.6-0.4-0.6-0.4-0.8c-0.1-0.3,0-0.7,0.2-1c0.1-0.1,0.4-0.3,1.8-1.1l1.7-1
				l0.2,0c0.3,0,0.4,0,0.7,0.1c0.3,0.1,0.4,0.2,0.6,0.6c0.3,0.5,0.5,1,0.6,1.2c0.1,0.3,0.1,0.6,0.1,0.9c-0.1,0.6-0.4,1.3-0.8,1.7
				l-0.1,0.1l0.4,0.6l0.4,0.6l0.1-0.1l0.1-0.1l0.3,0.2l0.3,0.2l0.8-0.5c0.4-0.3,0.8-0.5,0.9-0.5c0.1,0,0.1,0,0.1-0.2l0-0.2l0.7-0.4
				C1081,652.2,1081.1,652.1,1081.1,652.2z"/>
			<path id="Path_8578_5_" d="M1079,655.8c-0.1,0.1-0.1,0.2-0.2,0.2c0,0-0.1,0-0.3,0l-0.2,0l-0.1,0.3c-0.1,0.6-0.1,0.6-0.2,0.7
				c-0.2,0.1-0.2,0.1-0.6-0.1c-0.2-0.1-0.4-0.2-0.4-0.2s-0.1,0-0.2,0.1l-0.2,0.1l0,0.2l0,0.2l-0.2,0c-0.1,0-0.3,0.1-0.4,0.1l-0.2,0
				l-0.2-0.3l1.6-0.9l1.6-0.9l0.1,0.2C1079.2,655.5,1079.2,655.5,1079,655.8z"/>
		</g>
		<path id="Path_8579_5_" class="st12" d="M1089.5,639.5c0,0,0-0.1-0.1-0.1c-1.5,0.7-5.7,3.1-7.6,8.5c0,0-4.6-4.9-10.3-1.4
			c-5.7,3.4-4.5,10.3-4.5,10.3c-5.3-1.5-9.4,1.3-10.8,2.5c0,0,0,0.1,0.1,0.1c0.5,0.9,0.7,1.3,1.2,1.7c1.5,1.4,4,2.5,7.2,3
			c5.3,0.9,11.4,0.2,15.2-1.8c3.9-2,8.2-7.6,10-13.1c0.3-0.9,0.5-1.7,0.7-2.6c0.1-0.7,0.2-1.7,0.2-1.7c0,0,0,0,0,0c0,0,0-0.1,0-0.1
			c0,0,0,0,0,0c0,0,0,0,0,0c0,0,0,0,0,0c0,0,0,0,0,0c0,0,0,0,0,0c0,0,0,0,0,0c0,0,0,0,0,0c0,0,0,0,0,0c0-0.1,0-0.1,0-0.2
			c0-0.2,0-1,0-1.2c-0.1-1-0.3-1.8-0.6-2.5C1090,640.3,1089.6,639.7,1089.5,639.5z M1079,655.8c-0.1,0.1-0.1,0.2-0.2,0.2
			c0,0-0.1,0-0.3,0l-0.2,0l-0.1,0.3c-0.1,0.6-0.1,0.6-0.2,0.7c-0.2,0.1-0.2,0.1-0.6-0.1c-0.2-0.1-0.4-0.2-0.4-0.2s-0.1,0-0.2,0.1
			l-0.2,0.1l0,0.2l0,0.2l-0.2,0c-0.1,0-0.3,0.1-0.4,0.1l-0.2,0l-0.2-0.3l1.6-0.9l1.6-0.9l0.1,0.2
			C1079.2,655.5,1079.2,655.5,1079,655.8z M1081.4,652.9c0.1,0.4,0.2,0.7,0.2,0.7c-0.1,0-0.1,0.1-0.2,0.1l-0.2,0.1l0.1,0.8
			c0.1,0.4,0.1,0.8,0.1,0.9l0,0.1l-0.2-0.1l-0.2-0.1l-1-1.6l0,0c-0.1,0.1-0.8,0.6-1,0.8c-1.2,0.9-2.6,1.7-4,2.3
			c-0.2,0.1-0.4,0.2-0.4,0.2c0,0,0.2,0.4,0.5,0.9l0.5,0.8l0,0.2c0,0.1,0,0.2,0,0.2c0,0-0.1,0-0.4-0.2c-0.3-0.2-0.6-0.4-0.9-0.7
			l-0.1-0.1l-0.2,0.1l-0.2,0.1l-0.2-0.2c-0.1-0.1-0.2-0.3-0.3-0.4l-0.1-0.2l-0.2,0c-0.1,0-0.3,0-0.3,0c0,0-0.1,0-0.1-0.1l0-0.1
			l0.7-0.4l0.7-0.4l0.1,0.1l0.1,0.1l0.3-0.1c0.1-0.1,0.6-0.3,1-0.6l0.8-0.4l0-0.4l0-0.4l0.3-0.2l-0.4-0.6l-0.4-0.6l-0.4,0.1
			c-1.3,0.2-2.3,0-2.9-0.5c-0.1-0.1-0.2-0.1-0.5-0.7c-0.4-0.6-0.4-0.6-0.4-0.8c-0.1-0.3,0-0.7,0.2-1c0.1-0.1,0.4-0.3,1.8-1.1l1.7-1
			l0.2,0c0.3,0,0.4,0,0.7,0.1c0.3,0.1,0.4,0.2,0.6,0.6c0.3,0.5,0.5,1,0.6,1.2c0.1,0.3,0.1,0.6,0.1,0.9c-0.1,0.6-0.4,1.3-0.8,1.7
			l-0.1,0.1l0.4,0.6l0.4,0.6l0.1-0.1l0.1-0.1l0.3,0.2l0.3,0.2l0.8-0.5c0.4-0.3,0.8-0.5,0.9-0.5c0.1,0,0.1,0,0.1-0.2l0-0.2l0.7-0.4
			c0.5-0.3,0.7-0.4,0.7-0.4C1081.1,652.2,1081.2,652.5,1081.4,652.9z"/>
		<path id="Path_8580_5_" class="st18" d="M1056.3,659.2c-0.3,0.3-0.5,0.5-0.5,0.5"/>
		<path id="Path_8581_5_" class="st18" d="M1090,639.2c0,0-0.2,0.1-0.6,0.2"/>
		<path id="Path_8582_5_" class="st19" d="M1089.1,639c-0.2-0.3-0.4-0.6-0.6-0.8c-1.9-2.5-3.9-4.3-6.6-5.9c-0.1-0.1-0.2-0.1-0.3-0.2
			c0,0,0,0-0.1,0l0,0c-0.1-0.7-0.8-3.4-1.8-6.4c-1.3-4.1-3.4-8.6-5.7-8.9c0,0-2.9,1.4-4.4,7.3c-0.4,1.6-0.7,3.2-0.8,4.9l-0.3,0.1
			c-1.8,0.4-3.5,1-5.1,1.9c-0.5,0.2-2.2,1.3-2.8,1.7c-1.6,1.1-2.8,2.2-4,3.6c0,0.1-0.1,0.1-0.1,0.2c-1.5-0.6-3.1-1.1-4.7-1.5
			c-6-1.3-8.7,0.6-8.7,0.6c-0.9,2.3,2.3,6.4,5.4,9.6c2.1,2.1,4.1,3.9,4.8,4.5c0,0.1,0,0.1,0,0.2c0.3,3.6,1.2,6.8,2.7,9.8
			c1.4-1.2,5.5-4,10.8-2.5c0,0-1.2-6.9,4.5-10.3s10.3,1.4,10.3,1.4c1.9-5.4,6-7.8,7.6-8.5C1089.4,639.3,1089.2,639.1,1089.1,639z
			 M1053.3,646.4c0,0-5.6-4.2-6.9-7.8l0,0c-0.2-0.6-0.3-1.2-0.3-1.7c0,0,2.7-1.3,9.5,0.8c0,0-0.5,0.8-1.1,2.3c0,0,0,0,0,0
			C1053.9,641.5,1053.2,643.8,1053.3,646.4L1053.3,646.4z M1067.7,648.9c0,0.1-0.1,0.3-0.3,0.4s-0.8,0.5-1.2,0.7
			c-1.4,0.6-2.9,1-4.2,1.1c-0.7,0.1-1.3,0-1.7-0.1l-0.3-0.1l-0.2-0.2c-0.3-0.4-0.6-1-0.7-1.2c-0.1-0.2-0.1-0.4-0.1-0.6
			c0-0.1,0-0.1,0.2-0.2c0.3-0.2,0.5-0.2,0.9-0.4c0.9-0.2,2.3-0.3,4.1-0.3c1.5,0,2.1,0.1,2.7,0.3
			C1067.3,648.5,1067.7,648.8,1067.7,648.9z M1080.6,638.5c0,0.1-0.1,0.6-0.2,0.9c-0.5,1.1-1.6,2.5-2.9,3.7
			c-0.8,0.7-1.6,1.2-1.9,1.2c-0.2,0-0.3,0-0.3-0.3c-0.1-0.5,0-1.3,0.3-2.1c0.2-0.4,1-2,1.4-2.7c0.7-1.2,1.3-2,1.8-2.4
			c0.2-0.1,0.4-0.3,0.4-0.3c0.1,0,0.4,0.2,0.7,0.6C1080,637.4,1080.5,638.3,1080.6,638.5z M1073.3,628.7L1073.3,628.7
			c-1.5-0.2-2.5-0.1-2.5-0.1c1.2-6.9,3.5-8.6,3.5-8.6c0.5,0.2,0.9,0.6,1.4,1l0,0c2.5,2.8,3.7,9.7,3.7,9.7
			C1077.5,629.6,1075.4,628.9,1073.3,628.7L1073.3,628.7z"/>
		<path id="Path_8583_5_" class="st18" d="M1069,628.8C1069,628.8,1069,628.8,1069,628.8"/>
		<path id="Path_8584_5_" class="st18" d="M1081.6,632.1c0,0.1,0,0.2,0,0.2"/>
		<g id="Group_934_5_">
			<g id="Group_933_5_">
				<g id="Group_932_5_">
					<path id="Path_8585_5_" class="st20" d="M1075.7,621c-0.5,0.2-2.7,1.5-2.4,7.7l0,0c-1.5-0.2-2.5-0.1-2.5-0.1
						c1.2-6.9,3.5-8.6,3.5-8.6C1074.8,620.1,1075.2,620.5,1075.7,621z"/>
				</g>
				<path id="Path_8586_5_" class="st21" d="M1079.3,630.7c-1.9-1.1-3.9-1.8-6.1-2c-0.3-6.2,1.9-7.5,2.4-7.7l0,0
					C1078.1,623.8,1079.3,630.7,1079.3,630.7z"/>
				<path id="Path_8587_5_" class="st21" d="M1075.8,620.9c0,0-0.1,0-0.1,0L1075.8,620.9z"/>
			</g>
		</g>
		<path id="Path_8588_5_" class="st18" d="M1057.1,636.3c-0.1,0-0.2-0.1-0.3-0.1"/>
		<path id="Path_8589_5_" class="st18" d="M1053.5,649.3c0.2,0.2,0.3,0.2,0.3,0.2"/>
		<g id="Group_937_5_">
			<g id="Group_936_5_">
				<g id="Group_935_5_">
					<path id="Path_8590_5_" class="st20" d="M1055.6,637.7c0,0-0.5,0.8-1.1,2.3c0,0,0,0,0,0c-5.4-3.1-7.6-1.7-8.1-1.4
						c-0.2-0.6-0.3-1.2-0.3-1.7C1046.1,636.9,1048.8,635.6,1055.6,637.7z"/>
				</g>
				<path id="Path_8591_5_" class="st21" d="M1054.5,640c-0.6,1.6-1.2,3.8-1.2,6.4c0,0-5.6-4.2-6.9-7.8l0,0
					C1046.8,638.3,1049.1,636.9,1054.5,640z"/>
				<path id="Path_8592_5_" class="st21" d="M1046.4,638.6C1046.3,638.6,1046.3,638.7,1046.4,638.6L1046.4,638.6z"/>
			</g>
		</g>
		<path id="Path_8593_5_" class="st12" d="M1075.2,637.4c0,0-1.8,1.3-2.5-0.4c-0.7-1.6,0.7-2.7,1.2-2.9c0.5-0.2,2.5-0.6,2.9,0.8
			c0.5,1.4-0.1,1.4-0.3,1.6S1075.2,637.4,1075.2,637.4z"/>
		<path id="Path_8594_5_" class="st12" d="M1061.1,645.9c0,0-1.8,1.3-2.5-0.4s0.7-2.7,1.2-2.9c0.5-0.2,2.5-0.6,2.9,0.8
			c0.5,1.4-0.1,1.4-0.3,1.6S1061.1,645.9,1061.1,645.9z"/>
	</g>
	<g>
		<g>
			<g>
				
					<radialGradient id="SVGID_32_" cx="296.223" cy="603.2822" r="7.2981" gradientTransform="matrix(0.7865 -0.4541 0.1063 0.1903 -185.4627 424.8967)" gradientUnits="userSpaceOnUse">
					<stop  offset="0" style="stop-color:#525458"/>
					<stop  offset="1" style="stop-color:#2B2D31"/>
				</radialGradient>
				<path class="st47" d="M126.5,398.3l-26.8,15.8c0,0,0.3-0.5,0.8-1.1c0.4-0.4,0.8-0.9,1.3-1.4c0.1-0.1,0.2-0.2,0.3-0.3
					c1.4-1.1,5.5-3,10.2-5.9c4.7-2.8,9.1-5.9,10.5-6.5c0.1,0,0.2-0.1,0.3-0.1c0.7-0.3,1.3-0.4,1.8-0.5
					C126,398.2,126.5,398.3,126.5,398.3z"/>
				<path class="st23" d="M123.2,398.8c-1,0.6-2.2,1.4-3.8,2.4c-2,1.3-4.5,3-7.1,4.5c-2.7,1.6-5.2,2.9-7.2,4
					c-1.3,0.7-2.4,1.3-3.3,1.8c-0.5,0.4-1,0.9-1.3,1.4c0.2-0.1,0.3-0.3,0.5-0.4c0.7-0.6,2.3-1.4,4.2-2.4c2-1.1,4.5-2.4,7.2-4
					c2.5-1.5,5.1-3.2,7.1-4.6c2.3-1.5,4.1-2.7,4.9-3c0.2-0.1,0.3-0.1,0.5-0.2C124.6,398.4,124,398.6,123.2,398.8z"/>
			</g>
			<g>
				
					<linearGradient id="SVGID_33_" gradientUnits="userSpaceOnUse" x1="291.4551" y1="512.0519" x2="291.4551" y2="493.3457" gradientTransform="matrix(0.8568 -0.5157 0.5157 0.8568 -394.1307 128.9689)">
					<stop  offset="0" style="stop-color:#2C2E32"/>
					<stop  offset="8.428930e-02" style="stop-color:#55575B"/>
					<stop  offset="0.3288" style="stop-color:#2A2C30"/>
					<stop  offset="0.521" style="stop-color:#54565A"/>
					<stop  offset="1" style="stop-color:#26252B"/>
				</linearGradient>
				<path class="st48" d="M129.4,399.9c-2.3-2.4-3.7-2.1-7.3,0.3c-1.6,1.1-3.7,2.5-5.4,3.6c-2.5,1.6-5,3.1-7.6,4.6
					c-1.8,1-3.9,2.2-5.7,3.1c-3.8,2-4.8,3.1-3.7,6.3c1.1,3.2,4.4,7.9,6.9,7c2.5-1,7.3-4.1,10.4-6.1c1.6-1.1,3.3-2.1,5-3
					c3.2-1.8,8.8-4.9,10.2-6.3C134.2,407.4,131.7,402.4,129.4,399.9z"/>
				
					<radialGradient id="SVGID_34_" cx="296.6741" cy="614.8597" r="14.2751" gradientTransform="matrix(0.7782 -0.4684 0.6782 1.1268 -531.7932 -142.1106)" gradientUnits="userSpaceOnUse">
					<stop  offset="0" style="stop-color:#3FB6FF"/>
					<stop  offset="9.795301e-02" style="stop-color:#3EB1F8"/>
					<stop  offset="0.2456" style="stop-color:#3BA3E3"/>
					<stop  offset="0.4245" style="stop-color:#378CC1"/>
					<stop  offset="0.6278" style="stop-color:#316C92"/>
					<stop  offset="0.8489" style="stop-color:#294356"/>
					<stop  offset="1" style="stop-color:#24252A"/>
				</radialGradient>
				<path class="st49" d="M127.6,411.5c-2,1.2-4.3,2.5-6,3.4c-0.9,0.5-1.7,1-2.6,1.5c-0.8,0.5-1.7,1-2.5,1.6l-0.2,0.2
					c-1.6,1-3.5,2.2-5.3,3.4c-2.1,1.2-3.6,2.1-4.6,2.4c-0.5,0.2-1.7-0.3-3-1.8c-1.1-1.3-2.2-3.2-2.8-4.8c-0.8-2.5-0.4-3.2,1.7-4.4
					c0.4-0.2,0.8-0.5,1.4-0.8c1.5-0.8,3.4-1.8,5.7-3.1c1.3-0.7,2.6-1.5,3.9-2.2c1.3-0.8,2.5-1.6,3.8-2.4c2.2-1.4,4-2.6,5.4-3.6
					c0.5-0.3,0.9-0.6,1.3-0.8c2.1-1.3,2.9-1.3,4.7,0.6c1.2,1.2,2.3,3.1,2.9,4.7c0.8,2,0.6,3.2,0.2,3.6
					C131.2,409.2,130.3,409.9,127.6,411.5C127.6,411.5,127.6,411.5,127.6,411.5z"/>
				
					<radialGradient id="SVGID_35_" cx="300.448" cy="605.494" r="21.3005" gradientTransform="matrix(0.7782 -0.4684 0.3517 0.5843 -331.0112 191.4733)" gradientUnits="userSpaceOnUse">
					<stop  offset="0" style="stop-color:#525458"/>
					<stop  offset="1" style="stop-color:#2B2D31"/>
				</radialGradient>
				<path class="st50" d="M127.5,411.3c-2,1.2-4.3,2.5-6,3.4c-0.9,0.5-1.7,1-2.6,1.5c-0.8,0.5-1.7,1-2.5,1.6l-0.2,0.2
					c-1.5,1-3.5,2.2-5.3,3.4c-2,1.2-3.6,2-4.5,2.4c-0.3,0.1-1.4-0.2-2.7-1.7c-1.1-1.3-2.2-3.2-2.8-4.8c-0.8-2.4-0.4-2.9,1.5-4.1
					c0.4-0.2,0.8-0.5,1.3-0.8c1.5-0.8,3.4-1.8,5.7-3.1c1.3-0.7,2.6-1.5,3.9-2.2c1.3-0.8,2.6-1.6,3.8-2.4c2.2-1.4,4-2.7,5.4-3.6
					c0.5-0.3,0.9-0.6,1.3-0.8c1.9-1.2,2.6-1.3,4.3,0.5c1.1,1.2,2.3,3,2.9,4.6c0.7,1.9,0.5,3,0.2,3.3
					C131.1,409,130.3,409.7,127.5,411.3z"/>
				
					<radialGradient id="SVGID_36_" cx="310.9873" cy="1257.8737" r="9.9717" gradientTransform="matrix(0.746 -0.4407 1.989629e-02 3.418054e-02 -143.9048 501.0656)" gradientUnits="userSpaceOnUse">
					<stop  offset="0.1947" style="stop-color:#3FACFF"/>
					<stop  offset="0.2658" style="stop-color:#3591D7"/>
					<stop  offset="0.41" style="stop-color:#225E8C"/>
					<stop  offset="0.5389" style="stop-color:#143650"/>
					<stop  offset="0.6478" style="stop-color:#091924"/>
					<stop  offset="0.7324" style="stop-color:#02070A"/>
					<stop  offset="0.7824" style="stop-color:#000000"/>
				</radialGradient>
				<path class="st51" d="M120.5,402.6c0.2,0.3-3,2.6-7.1,5c-4.1,2.4-7.6,4.1-7.8,3.8s3-2.6,7.1-5
					C116.8,404,120.3,402.3,120.5,402.6z"/>
				
					<radialGradient id="SVGID_37_" cx="311.171" cy="1286.8058" r="9.9717" gradientTransform="matrix(0.746 -0.4407 1.989629e-02 3.418054e-02 -138.8897 509.6812)" gradientUnits="userSpaceOnUse">
					<stop  offset="0.1946" style="stop-color:#3FACFF"/>
					<stop  offset="0.2657" style="stop-color:#3591D7"/>
					<stop  offset="0.4099" style="stop-color:#225E8C"/>
					<stop  offset="0.5389" style="stop-color:#143650"/>
					<stop  offset="0.6478" style="stop-color:#091924"/>
					<stop  offset="0.7324" style="stop-color:#02070A"/>
					<stop  offset="0.7824" style="stop-color:#000000"/>
				</radialGradient>
				<path class="st52" d="M126.3,412.2c0.2,0.3-3,2.6-7.1,5c-4.1,2.4-7.6,4.1-7.8,3.8c-0.2-0.3,3-2.6,7.1-5
					C122.6,413.5,126.1,411.8,126.3,412.2z"/>
			</g>
		</g>
	</g>
</g>
<g>
	<path class="st53" d="M89.7,206.9l-2.3-11c0-0.2-0.1-0.5-0.1-0.7c-0.1-0.3-0.1-0.5-0.1-0.8c0-0.2-0.1-0.5-0.1-0.7
		c0-0.2-0.1-0.4-0.1-0.5l0,0c0,0.2,0,0.6-0.1,1.1c0,0.5-0.1,1-0.2,1.4l-1.7,11.7l-2,0.3l-4.4-10.4c-0.3-0.6-0.5-1.2-0.7-1.7
		c-0.2-0.5-0.4-0.9-0.4-1.1l0,0c0,0.1,0,0.3,0.1,0.6c0,0.3,0,0.5,0.1,0.8c0,0.3,0,0.6,0.1,0.9c0,0.3,0,0.5,0.1,0.7l0.6,10.9
		l-2.2,0.3l-0.7-16.5l3.2-0.4l4.1,9.6c0.3,0.6,0.5,1.2,0.6,1.6c0.2,0.5,0.3,0.8,0.3,0.9l0,0c0-0.2,0-0.6,0.1-1c0-0.5,0.1-1,0.2-1.6
		l1.5-10.5l3.2-0.4l3.6,16.1L89.7,206.9z"/>
	<path class="st53" d="M95.9,206.1l-1.7-12.7l7.9-1.1l-0.1,1.9l-5.4,0.7l0.4,3.3l4.5-0.6l0.3,1.9l-4.4,0.6l0.5,3.8l5.9-0.8l0.3,1.9
		L95.9,206.1z"/>
	<path class="st53" d="M113.3,192.7l-3.7,0.5l1.5,10.8l-2.2,0.3l-1.5-10.8l-3.6,0.5l-0.3-1.9l9.8-1.3L113.3,192.7z"/>
	<path class="st53" d="M125,202.2l-1.6-3.1l-4.7,0.6l-0.8,3.5l-2.3,0.3l3-13.3l2.6-0.4l6.3,12.1L125,202.2z M120,191.8l-1.1,6
		l3.7-0.5L120,191.8z"/>
	<path class="st53" d="M145.8,194.5c0.1,0.6,0,1.2-0.1,1.8c-0.2,0.6-0.5,1.2-0.9,1.8c-0.4,0.6-1,1-1.8,1.5c-0.7,0.4-1.6,0.7-2.7,0.8
		c-0.9,0.1-1.9,0.1-2.8,0c-0.9-0.1-1.8-0.4-2.7-0.8l0.7-1.9c0.8,0.3,1.5,0.6,2.2,0.7c0.7,0.1,1.5,0.1,2.3,0c1.1-0.1,1.9-0.5,2.5-1.1
		c0.6-0.6,0.8-1.3,0.7-2.2c-0.2-1.3-1.2-2.1-3.1-2.4l-1.8-0.3c-1.3-0.2-2.3-0.6-3-1.1c-0.8-0.5-1.2-1.4-1.4-2.6
		c-0.1-0.7-0.1-1.4,0.1-2c0.2-0.6,0.5-1.2,0.9-1.6s0.9-0.9,1.6-1.2c0.6-0.3,1.3-0.5,2.1-0.6c0.9-0.1,1.8-0.1,2.7,0
		c0.9,0.1,1.7,0.4,2.5,0.8l-0.8,1.7c-0.8-0.4-1.5-0.6-2.1-0.7c-0.6-0.1-1.2-0.1-1.9,0c-0.9,0.1-1.6,0.4-2.1,1
		c-0.5,0.5-0.7,1.1-0.5,1.9c0.1,0.6,0.3,1,0.7,1.3c0.4,0.3,1.1,0.5,2,0.7l2,0.3c0.6,0.1,1.1,0.2,1.6,0.4c0.5,0.2,1,0.5,1.4,0.8
		c0.4,0.3,0.7,0.7,1,1.2C145.5,193.4,145.7,193.9,145.8,194.5z"/>
	<path class="st53" d="M157.4,197.8l-0.8-5.8l-5,0.7l0.8,5.8l-2.3,0.3l-1.7-12.7l2.3-0.3l0.7,5l5-0.7l-0.7-5l2.3-0.3l1.7,12.7
		L157.4,197.8z"/>
	<path class="st53" d="M164.1,196.9l-1.7-12.7l2.3-0.3l1.7,12.7L164.1,196.9z"/>
	<path class="st53" d="M180.1,191.1c0.1,0.7,0,1.4-0.4,2c-0.3,0.6-0.8,1.1-1.5,1.5c-0.2,0.1-0.4,0.2-0.6,0.3
		c-0.2,0.1-0.4,0.1-0.6,0.2c-0.2,0.1-0.5,0.1-0.7,0.1c-0.3,0-0.6,0.1-0.9,0.1l-4.4,0.6l-1.7-12.7l4.1-0.5c0.4-0.1,0.7-0.1,1-0.1
		c0.3,0,0.5,0,0.8,0c0.2,0,0.4,0,0.6,0c0.2,0,0.3,0,0.5,0.1c0.7,0.1,1.3,0.4,1.7,0.9c0.5,0.4,0.7,1,0.8,1.7c0,0.4,0,0.7-0.1,1
		c-0.1,0.3-0.2,0.6-0.4,0.9c-0.2,0.3-0.4,0.5-0.7,0.7c-0.3,0.2-0.6,0.4-0.9,0.5c0.4,0,0.8,0.1,1.2,0.2c0.4,0.1,0.7,0.3,1,0.5
		c0.3,0.2,0.6,0.5,0.8,0.9C179.9,190.3,180.1,190.7,180.1,191.1z M176.4,185.9c0-0.3-0.2-0.6-0.3-0.8c-0.2-0.2-0.4-0.3-0.7-0.4
		c-0.3-0.1-0.5-0.1-0.8-0.1c-0.3,0-0.6,0-0.9,0.1l-2,0.3l0.4,3.3l2.1-0.3c0.3,0,0.6-0.1,0.9-0.2c0.3-0.1,0.5-0.2,0.7-0.3
		c0.2-0.1,0.3-0.3,0.5-0.6C176.4,186.6,176.4,186.3,176.4,185.9z M177.6,191.3c-0.1-0.4-0.2-0.7-0.4-0.9c-0.2-0.2-0.4-0.4-0.7-0.5
		c-0.3-0.1-0.6-0.2-0.9-0.2c-0.3,0-0.7,0-1,0l-2.2,0.3l0.5,3.8l2.1-0.3c0.3,0,0.7-0.1,1-0.2c0.3-0.1,0.6-0.2,0.9-0.4
		c0.3-0.2,0.5-0.4,0.6-0.7C177.6,192.1,177.7,191.7,177.6,191.3z"/>
	<path class="st53" d="M191.8,193.2l-1.6-3.1l-4.7,0.6l-0.8,3.5l-2.3,0.3l3-13.3l2.6-0.4l6.3,12.1L191.8,193.2z M186.8,182.8l-1.1,6
		l3.7-0.5L186.8,182.8z"/>
</g>
<g id="Group_938" transform="translate(-953.348 -232.003)">
	<g id="Group_931">
		<path id="Path_8573" class="st17" d="M1091,371.9c-1,1.2-1.8,2.5-2.6,3.8l-0.3-0.1c-1.7-0.3-3.4-0.5-5.1-0.4c-0.5,0-2.4,0.2-3,0.3
			c-1.8,0.3-3.2,0.8-4.8,1.5c-0.1,0-0.1,0.1-0.2,0.1c-1.1-1.1-2.2-2.2-3.4-3.1c5.1-3.3,11.3-4.4,17.2-2.8c0.6,0.2,1.2,0.4,1.9,0.6
			L1091,371.9z"/>
		<path id="Path_8574" class="st17" d="M1103.7,395.3c-0.6,2.4-1.5,4.7-2.9,6.8c-0.8,1.1-1.6,2.1-2.5,3.1c-2.2,2.2-4.8,3.9-7.7,4.9
			c-3.2,1.2-6.7,1.5-10.1,1.1c-3.1-0.4-6-1.5-8.6-3.1c-1.1-0.7-2.2-1.6-3.1-2.5c-5.2-4.9-7.4-12.2-5.8-19.1c0.3-1.3,0.7-2.5,1.3-3.7
			c0.2-0.6,0.6-1.2,0.7-1.4c0.9,2.6,1.9,4.9,2.3,5.7c0,0,0,0.1-0.1,0.2c-1.2,3.2-1.7,6.3-1.5,9.4c0,0,0,0.1,0,0.1
			c0.1,0.9,0.1,1.4,0.3,2c0.7,1.8,2.4,3.7,5,5.4c4.2,2.8,9.7,4.6,13.6,4.5c4.1-0.2,10-3.2,13.6-7.2c0.6-0.6,1.1-1.3,1.6-2
			c0.4-0.5,0.9-1.4,0.8-1.4c0,0,0,0,0,0c0,0,0,0,0,0c0,0,0,0,0,0c0,0,0,0,0,0c0,0,0,0,0,0c0,0,0,0,0,0c0,0,0,0,0,0c0,0,0,0,0,0
			c0,0,0,0,0,0c0,0,0,0,0,0c0-0.1,0-0.1,0.1-0.2c0.1-0.2,0.4-0.9,0.4-1c0.3-0.9,0.4-1.6,0.5-2.4c0-0.4,0-1-0.1-1.2c0,0,0-0.1,0-0.1
			c0-0.1-0.1-0.3-0.1-0.5c0-0.3-0.1-0.7-0.2-0.9c-0.6-2.9-1.6-5.2-3.3-7.6c-0.1-0.1-0.1-0.2-0.2-0.3c0,0,0,0,0,0l0,0
			c0.1-0.6,0.7-3.2,1-6.2l0,0l0.1,0.1c0.2,0.2,0.7,0.8,1,1.1c1.1,1.4,2,2.9,2.7,4.5C1104.3,386.9,1104.6,391.2,1103.7,395.3z"/>
		<path id="Path_8575" d="M1094.4,388.5c0,0.1-0.3,0.5-0.6,0.7c-0.8,0.8-2.4,1.5-3.9,2c-0.9,0.3-1.8,0.4-2.1,0.3
			c-0.2-0.1-0.2-0.1-0.2-0.4c0.1-0.5,0.5-1.1,1.1-1.7c0.3-0.3,1.6-1.3,2.3-1.7c1-0.7,1.9-1.2,2.5-1.3c0.2,0,0.4-0.1,0.5-0.1
			c0.1,0,0.3,0.4,0.4,0.8C1094.3,387.4,1094.4,388.3,1094.4,388.5z"/>
		<path id="Path_8576" d="M1079.4,392.3c0,0.1-0.2,0.2-0.4,0.2c-0.2,0.1-0.9,0.1-1.3,0.1c-1.4,0-2.9-0.3-4-0.7
			c-0.6-0.2-1.1-0.5-1.4-0.8l-0.2-0.2l0-0.2c-0.1-0.4-0.1-1.1-0.1-1.3c0-0.2,0.1-0.4,0.1-0.6c0-0.1,0-0.1,0.3-0.1
			c0.3,0,0.5,0,0.9,0.1c0.8,0.2,2.1,0.6,3.6,1.3c1.3,0.6,1.8,0.9,2.2,1.3C1079.2,391.8,1079.4,392.2,1079.4,392.3z"/>
		<path id="Path_8577" d="M1089.6,400.3c0,0,0,0.3-0.1,0.7c-0.1,0.4-0.1,0.7-0.1,0.7c-0.1,0-0.1,0-0.2,0l-0.2,0l-0.2,0.7
			c-0.1,0.4-0.2,0.7-0.2,0.8l0,0.1l-0.2-0.2l-0.2-0.2l-0.2-1.8l-0.1,0c-0.1,0-0.9,0.2-1.2,0.3c-1.4,0.3-2.8,0.4-4.3,0.4
			c-0.2,0-0.4,0-0.4,0s0,0.4,0.1,0.9l0.1,0.9l-0.1,0.2c0,0.1-0.1,0.2-0.1,0.2c0,0-0.1-0.1-0.3-0.4c-0.2-0.3-0.3-0.6-0.5-0.9
			l-0.1-0.2l-0.2,0l-0.2,0l-0.1-0.2c0-0.1-0.1-0.3-0.1-0.4l0-0.2l-0.2-0.1c-0.1-0.1-0.2-0.1-0.2-0.2c0,0-0.1-0.1-0.1-0.1l0-0.1
			l0.8-0.1l0.8-0.1l0,0.1l0,0.1l0.3,0c0.2,0,0.7-0.1,1.1-0.1l0.8-0.1l0.2-0.3l0.2-0.3l0.3,0l-0.1-0.7l-0.1-0.7l-0.4-0.1
			c-1.2-0.4-1.9-0.9-2.3-1.6c-0.1-0.1-0.1-0.2-0.2-0.8c-0.1-0.6-0.1-0.7-0.1-0.8c0.1-0.3,0.3-0.6,0.6-0.7c0.1,0,0.4-0.1,1.9-0.2
			l1.8-0.2l0.2,0.1c0.3,0.1,0.4,0.2,0.5,0.3c0.2,0.2,0.2,0.3,0.3,0.7c0.1,0.6,0.1,1.1,0,1.3c-0.1,0.3-0.2,0.5-0.3,0.8
			c-0.3,0.5-0.8,0.9-1.3,1.2l-0.1,0.1l0.1,0.7l0.1,0.7l0.1,0l0.1,0l0.2,0.3l0.2,0.3l0.9-0.1c0.5-0.1,0.9-0.1,0.9-0.1
			c0.1,0,0.1,0,0.1-0.1l0.1-0.1l0.7-0.1C1089.4,400.3,1089.6,400.3,1089.6,400.3z"/>
		<path id="Path_8578" d="M1086.3,402.6c-0.1,0.1-0.2,0.1-0.2,0.1c0,0-0.1-0.1-0.2-0.1l-0.2-0.1l-0.2,0.2c-0.3,0.5-0.4,0.5-0.5,0.5
			c-0.2,0-0.2,0-0.5-0.3c-0.1-0.2-0.2-0.3-0.2-0.3s-0.1,0-0.2,0l-0.2,0l-0.1,0.2l-0.1,0.2l-0.2,0c-0.1,0-0.2-0.1-0.4-0.1l-0.2-0.1
			l0-0.4l1.7-0.2l1.7-0.2l0,0.2C1086.6,402.4,1086.6,402.4,1086.3,402.6z"/>
	</g>
	<path id="Path_8579" class="st12" d="M1101.7,392.9c0,0,0-0.1,0-0.1c-1.6,0-6,0.4-9.8,4.2c0,0-2-5.9-8.2-5.3c-6.2,0.7-7.9,7-7.9,7
		c-3.9-3.4-8.5-2.6-10.2-2.2c0,0,0,0.1,0,0.1c0.1,0.9,0.1,1.4,0.3,2c0.7,1.8,2.4,3.7,5,5.4c4.2,2.8,9.7,4.6,13.6,4.5
		c4.1-0.2,10-3.2,13.6-7.2c0.6-0.6,1.1-1.3,1.6-2c0.4-0.5,0.9-1.4,0.8-1.4c0,0,0,0,0,0c0,0,0,0,0,0c0,0,0,0,0,0c0,0,0,0,0,0
		c0,0,0,0,0,0c0,0,0,0,0,0c0,0,0,0,0,0c0,0,0,0,0,0c0,0,0,0,0,0c0,0,0,0,0,0c0-0.1,0-0.1,0.1-0.2c0.1-0.2,0.4-0.9,0.4-1
		c0.3-0.9,0.4-1.6,0.5-2.4C1101.8,393.7,1101.7,393.1,1101.7,392.9z M1086.3,402.6c-0.1,0.1-0.2,0.1-0.2,0.1c0,0-0.1-0.1-0.2-0.1
		l-0.2-0.1l-0.2,0.2c-0.3,0.5-0.4,0.5-0.5,0.5c-0.2,0-0.2,0-0.5-0.3c-0.1-0.2-0.2-0.3-0.2-0.3s-0.1,0-0.2,0l-0.2,0l-0.1,0.2
		l-0.1,0.2l-0.2,0c-0.1,0-0.2-0.1-0.4-0.1l-0.2-0.1l0-0.4l1.7-0.2l1.7-0.2l0,0.2C1086.6,402.4,1086.6,402.4,1086.3,402.6z
		 M1089.5,401.1c-0.1,0.4-0.1,0.7-0.1,0.7c-0.1,0-0.1,0-0.2,0l-0.2,0l-0.2,0.7c-0.1,0.4-0.2,0.7-0.2,0.8l0,0.1l-0.2-0.2l-0.2-0.2
		l-0.2-1.8l-0.1,0c-0.1,0-0.9,0.2-1.2,0.3c-1.4,0.3-2.8,0.4-4.3,0.4c-0.2,0-0.4,0-0.4,0s0,0.4,0.1,0.9l0.1,0.9l-0.1,0.2
		c0,0.1-0.1,0.2-0.1,0.2c0,0-0.1-0.1-0.3-0.4c-0.2-0.3-0.3-0.6-0.5-0.9l-0.1-0.2l-0.2,0l-0.2,0l-0.1-0.2c0-0.1-0.1-0.3-0.1-0.4
		l0-0.2l-0.2-0.1c-0.1-0.1-0.2-0.1-0.2-0.2c0,0-0.1-0.1-0.1-0.1l0-0.1l0.8-0.1l0.8-0.1l0,0.1l0,0.1l0.3,0c0.2,0,0.7-0.1,1.1-0.1
		l0.8-0.1l0.2-0.3l0.2-0.3l0.3,0l-0.1-0.7l-0.1-0.7l-0.4-0.1c-1.2-0.4-1.9-0.9-2.3-1.6c-0.1-0.1-0.1-0.2-0.2-0.8
		c-0.1-0.6-0.1-0.7-0.1-0.8c0.1-0.3,0.3-0.6,0.6-0.7c0.1,0,0.4-0.1,1.9-0.2l1.8-0.2l0.2,0.1c0.3,0.1,0.4,0.2,0.5,0.3
		c0.2,0.2,0.2,0.3,0.3,0.7c0.1,0.6,0.1,1.1,0,1.3c-0.1,0.3-0.2,0.5-0.3,0.8c-0.3,0.5-0.8,0.9-1.3,1.2l-0.1,0.1l0.1,0.7l0.1,0.7
		l0.1,0l0.1,0l0.2,0.3l0.2,0.3l0.9-0.1c0.5-0.1,0.9-0.1,0.9-0.1c0.1,0,0.1,0,0.1-0.1l0.1-0.1l0.7-0.1c0.6-0.1,0.7-0.1,0.7-0.1
		C1089.6,400.4,1089.5,400.7,1089.5,401.1z"/>
	<path id="Path_8580" class="st18" d="M1065.6,396.6c-0.4,0.1-0.6,0.2-0.6,0.2"/>
	<path id="Path_8581" class="st18" d="M1102.2,392.8c0,0-0.2,0-0.6,0"/>
	<path id="Path_8582" class="st19" d="M1101.6,392.2c0-0.3-0.1-0.7-0.2-0.9c-0.6-2.9-1.6-5.2-3.3-7.6c-0.1-0.1-0.1-0.2-0.2-0.3
		c0,0,0,0,0,0l0,0c0.1-0.6,0.7-3.2,1-6.2c0.5-4,0.5-8.6-1.4-9.8c0,0-3,0.1-6.6,4.5c-1,1.2-1.8,2.5-2.6,3.8l-0.3-0.1
		c-1.7-0.3-3.4-0.5-5.1-0.4c-0.5,0-2.4,0.2-3,0.3c-1.8,0.3-3.2,0.8-4.8,1.5c-0.1,0-0.1,0.1-0.2,0.1c-1.1-1.1-2.2-2.2-3.4-3.1
		c-4.6-3.5-7.7-2.9-7.7-2.9c-1.7,1.6-0.5,6.3,0.9,10.3c0.9,2.6,1.9,4.9,2.3,5.7c0,0,0,0.1-0.1,0.2c-1.2,3.2-1.7,6.3-1.5,9.4
		c1.7-0.4,6.3-1.2,10.2,2.2c0,0,1.6-6.3,7.9-7c6.2-0.7,8.2,5.3,8.2,5.3c3.7-3.9,8.2-4.2,9.8-4.2
		C1101.6,392.6,1101.6,392.4,1101.6,392.2z M1068.1,384.5c0,0-3.1-5.8-2.8-9.3l0,0c0-0.6,0.2-1.1,0.4-1.5c0,0,2.8,0,7.7,4.4
		c0,0-0.8,0.5-1.8,1.5c0,0,0,0,0,0C1070.5,380.6,1069.1,382.2,1068.1,384.5L1068.1,384.5z M1079.4,392.3c0,0.1-0.2,0.2-0.4,0.2
		c-0.2,0.1-0.9,0.1-1.3,0.1c-1.4,0-2.9-0.3-4-0.7c-0.6-0.2-1.1-0.5-1.4-0.8l-0.2-0.2l0-0.2c-0.1-0.4-0.1-1.1-0.1-1.3
		c0-0.2,0.1-0.4,0.1-0.6c0-0.1,0-0.1,0.3-0.1c0.3,0,0.5,0,0.9,0.1c0.8,0.2,2.1,0.6,3.6,1.3c1.3,0.6,1.8,0.9,2.2,1.3
		C1079.2,391.8,1079.4,392.2,1079.4,392.3z M1094.4,388.5c0,0.1-0.3,0.5-0.6,0.7c-0.8,0.8-2.4,1.5-3.9,2c-0.9,0.3-1.8,0.4-2.1,0.3
		c-0.2-0.1-0.2-0.1-0.2-0.4c0.1-0.5,0.5-1.1,1.1-1.7c0.3-0.3,1.6-1.3,2.3-1.7c1-0.7,1.9-1.2,2.5-1.3c0.2,0,0.4-0.1,0.5-0.1
		c0.1,0,0.3,0.4,0.4,0.8C1094.3,387.4,1094.4,388.3,1094.4,388.5z M1092.1,377.2L1092.1,377.2c-1.2-0.8-2.1-1.1-2.1-1.1
		c3.7-5.4,6.4-6,6.4-6c0.3,0.4,0.6,0.8,0.7,1.4l0,0c1,3.4-0.7,9.7-0.7,9.7C1095.3,379.7,1093.8,378.3,1092.1,377.2L1092.1,377.2z"/>
	<path id="Path_8583" class="st18" d="M1088.4,375.7C1088.4,375.7,1088.4,375.7,1088.4,375.7"/>
	<path id="Path_8584" class="st18" d="M1097.9,383.4c0,0.1,0,0.1,0,0.1"/>
	<g id="Group_934">
		<g id="Group_933">
			<g id="Group_932">
				<path id="Path_8585" class="st20" d="M1097.2,371.6c-0.5,0-2.9,0.2-5.1,5.6l0,0c-1.2-0.7-2-1.1-2-1.1c3.7-5.4,6.4-6,6.4-6
					C1096.7,370.6,1097,371.1,1097.2,371.6z"/>
			</g>
			<path id="Path_8586" class="st21" d="M1096.5,381.4c-1.2-1.6-2.7-3-4.4-4.1c2.2-5.4,4.5-5.6,5.1-5.6l0,0
				C1098.1,375,1096.5,381.4,1096.5,381.4z"/>
			<path id="Path_8587" class="st21" d="M1097.3,371.6C1097.2,371.6,1097.2,371.6,1097.3,371.6L1097.3,371.6z"/>
		</g>
	</g>
	<path id="Path_8588" class="st18" d="M1075.3,377.4c-0.1-0.1-0.2-0.2-0.2-0.3"/>
	<path id="Path_8589" class="st18" d="M1067.2,387c0.1,0.2,0.2,0.3,0.2,0.3"/>
	<g id="Group_937">
		<g id="Group_936">
			<g id="Group_935">
				<path id="Path_8590" class="st20" d="M1073.5,378c0,0-0.8,0.5-1.8,1.5c0,0,0,0,0,0c-3.4-4.8-5.8-4.5-6.4-4.4
					c0-0.6,0.2-1.1,0.4-1.5C1065.7,373.6,1068.5,373.6,1073.5,378z"/>
			</g>
			<path id="Path_8591" class="st21" d="M1071.6,379.5c-1.1,1.1-2.5,2.7-3.5,5c0,0-3.1-5.8-2.8-9.3l0,0
				C1065.8,375,1068.3,374.7,1071.6,379.5z"/>
			<path id="Path_8592" class="st21" d="M1065.3,375.1c0,0-0.1,0-0.1,0L1065.3,375.1z"/>
		</g>
	</g>
	<path id="Path_8593" class="st12" d="M1090.3,385.4c0,0-2.1,0.4-2-1.3c0.1-1.6,1.7-2,2.1-2c0.5,0,2.3,0.5,2.2,1.9
		c-0.2,1.4-0.7,1.2-0.9,1.3C1091.5,385.4,1090.3,385.4,1090.3,385.4z"/>
	<path id="Path_8594" class="st12" d="M1075,387.1c0,0-2.1,0.4-2-1.3s1.7-2,2.1-2c0.5,0,2.3,0.5,2.2,1.9c-0.2,1.4-0.7,1.2-0.9,1.3
		C1076.2,387.1,1075,387.1,1075,387.1z"/>
</g>
<g>
	<g>
		<g>
			
				<radialGradient id="SVGID_38_" cx="118.2349" cy="90.2952" r="8.0878" gradientTransform="matrix(0.7652 -6.997725e-02 1.420799e-02 0.1839 36.5979 140.9518)" gradientUnits="userSpaceOnUse">
				<stop  offset="0" style="stop-color:#525458"/>
				<stop  offset="1" style="stop-color:#2B2D31"/>
			</radialGradient>
			<path class="st54" d="M143.7,149.2l-29,3c0,0,0.5-0.3,1.2-0.6c0.5-0.2,1.1-0.5,1.7-0.6c0.1,0,0.3-0.1,0.4-0.1
				c1.6-0.4,5.8-0.4,11-1c5.1-0.6,10.1-1.5,11.5-1.4c0.1,0,0.2,0,0.3,0c0.7,0.1,1.3,0.2,1.7,0.3
				C143.3,148.9,143.7,149.2,143.7,149.2z"/>
			<path class="st23" d="M140.7,148.4c-1,0.1-2.5,0.3-4.1,0.6c-2.3,0.3-5.1,0.8-7.8,1.1c-2.9,0.3-5.6,0.5-7.7,0.6
				c-1.4,0.1-2.6,0.1-3.5,0.2c-0.6,0.2-1.2,0.4-1.7,0.6c0.2-0.1,0.4-0.1,0.6-0.2c0.9-0.2,2.5-0.3,4.5-0.4c2.1-0.1,4.8-0.3,7.8-0.6
				c2.8-0.3,5.6-0.7,7.8-1.1c2.5-0.4,4.5-0.7,5.3-0.7c0.2,0,0.3,0,0.5,0C142,148.6,141.4,148.5,140.7,148.4z"/>
		</g>
		<g>
			
				<linearGradient id="SVGID_39_" gradientUnits="userSpaceOnUse" x1="129.8814" y1="162.8128" x2="129.8814" y2="145.2722" gradientTransform="matrix(0.994 -0.1092 0.1092 0.994 -16.5195 15.1263)">
				<stop  offset="0" style="stop-color:#2C2E32"/>
				<stop  offset="8.428930e-02" style="stop-color:#55575B"/>
				<stop  offset="0.3288" style="stop-color:#2A2C30"/>
				<stop  offset="0.521" style="stop-color:#54565A"/>
				<stop  offset="1" style="stop-color:#26252B"/>
			</linearGradient>
			<path class="st55" d="M145.5,151.7c-1-3-2.3-3.3-6.3-2.6c-1.8,0.3-4.1,0.6-6,0.9c-2.7,0.4-5.5,0.7-8.2,0.9
				c-1.9,0.1-4.2,0.3-6.1,0.4c-4.1,0.2-5.3,0.8-5.6,3.9c-0.3,3.1,0.6,8.5,3.2,8.6c2.5,0.2,7.9-0.6,11.3-1.1c1.8-0.3,3.6-0.5,5.4-0.6
				c3.4-0.3,9.5-0.7,11.2-1.4C146.7,160,146.5,154.7,145.5,151.7z"/>
			
				<radialGradient id="SVGID_40_" cx="118.7349" cy="103.1255" r="15.8198" gradientTransform="matrix(0.7639 -8.391938e-02 0.1215 1.1062 26.3122 52.4934)" gradientUnits="userSpaceOnUse">
				<stop  offset="0" style="stop-color:#3FB6FF"/>
				<stop  offset="9.795301e-02" style="stop-color:#3EB1F8"/>
				<stop  offset="0.2456" style="stop-color:#3BA3E3"/>
				<stop  offset="0.4245" style="stop-color:#378CC1"/>
				<stop  offset="0.6278" style="stop-color:#316C92"/>
				<stop  offset="0.8489" style="stop-color:#294356"/>
				<stop  offset="1" style="stop-color:#24252A"/>
			</radialGradient>
			<path class="st56" d="M139.5,160.9c-2.2,0.2-4.7,0.4-6.5,0.6c-0.9,0.1-1.9,0.2-2.8,0.3c-0.9,0.1-1.8,0.2-2.8,0.3l-0.3,0
				c-1.7,0.2-3.8,0.5-5.9,0.8c-2.2,0.2-3.9,0.3-4.9,0.3c-0.5,0-1.3-0.9-1.8-2.7c-0.5-1.6-0.6-3.6-0.5-5.2c0.3-2.4,0.9-2.8,3.2-3.1
				c0.4,0,0.9-0.1,1.5-0.1c1.6-0.1,3.6-0.2,6.1-0.4c1.4-0.1,2.8-0.2,4.2-0.4c1.4-0.2,2.8-0.3,4.2-0.5c2.4-0.4,4.5-0.7,6-0.9
				c0.6-0.1,1-0.2,1.5-0.2c2.3-0.3,3,0,3.8,2.3c0.5,1.5,0.8,3.5,0.6,5.1c-0.1,2-0.8,2.9-1.3,3.1
				C143.5,160.4,142.3,160.6,139.5,160.9C139.5,160.9,139.5,160.9,139.5,160.9z"/>
			
				<radialGradient id="SVGID_41_" cx="122.9171" cy="92.7464" r="23.6053" gradientTransform="matrix(0.7639 -8.391938e-02 6.300744e-02 0.5736 32.3457 107.4172)" gradientUnits="userSpaceOnUse">
				<stop  offset="0" style="stop-color:#525458"/>
				<stop  offset="1" style="stop-color:#2B2D31"/>
			</radialGradient>
			<path class="st57" d="M139.5,160.7c-2.2,0.2-4.7,0.4-6.4,0.6c-0.9,0.1-1.9,0.2-2.8,0.3c-0.9,0.1-1.9,0.2-2.8,0.3l-0.3,0
				c-1.7,0.2-3.8,0.5-5.8,0.8c-2.2,0.2-3.8,0.3-4.8,0.3c-0.3,0-1.1-0.7-1.6-2.5c-0.5-1.6-0.6-3.6-0.5-5.2c0.2-2.3,0.8-2.6,2.9-2.9
				c0.4,0,0.9-0.1,1.4-0.1c1.6-0.1,3.6-0.2,6.1-0.4c1.4-0.1,2.8-0.2,4.2-0.4c1.4-0.2,2.8-0.3,4.2-0.5c2.4-0.4,4.5-0.7,6-0.9
				c0.6-0.1,1-0.2,1.4-0.2c2.1-0.2,2.7,0,3.5,2.2c0.5,1.5,0.7,3.5,0.6,5.1c-0.1,1.9-0.7,2.8-1.1,2.9
				C143.5,160.1,142.4,160.4,139.5,160.7z"/>
			
				<radialGradient id="SVGID_42_" cx="118.5442" cy="351.2668" r="11.0507" gradientTransform="matrix(0.7294 -7.402825e-02 3.166052e-03 3.331403e-02 41.3119 148.4725)" gradientUnits="userSpaceOnUse">
				<stop  offset="0.1947" style="stop-color:#3FACFF"/>
				<stop  offset="0.2658" style="stop-color:#3591D7"/>
				<stop  offset="0.41" style="stop-color:#225E8C"/>
				<stop  offset="0.5389" style="stop-color:#143650"/>
				<stop  offset="0.6478" style="stop-color:#091924"/>
				<stop  offset="0.7324" style="stop-color:#02070A"/>
				<stop  offset="0.7824" style="stop-color:#000000"/>
			</radialGradient>
			<path class="st58" d="M136.9,150.6c0,0.4-3.6,1-8,1.5c-4.5,0.5-8.1,0.5-8.1,0.1c0-0.4,3.6-1,8-1.5
				C133.2,150.3,136.9,150.2,136.9,150.6z"/>
			
				<radialGradient id="SVGID_43_" cx="118.7477" cy="383.3295" r="11.0507" gradientTransform="matrix(0.7294 -7.402825e-02 3.166052e-03 3.331403e-02 42.1963 157.7784)" gradientUnits="userSpaceOnUse">
				<stop  offset="0.1946" style="stop-color:#3FACFF"/>
				<stop  offset="0.2657" style="stop-color:#3591D7"/>
				<stop  offset="0.4099" style="stop-color:#225E8C"/>
				<stop  offset="0.5389" style="stop-color:#143650"/>
				<stop  offset="0.6478" style="stop-color:#091924"/>
				<stop  offset="0.7324" style="stop-color:#02070A"/>
				<stop  offset="0.7824" style="stop-color:#000000"/>
			</radialGradient>
			<path class="st59" d="M138.1,160.9c0,0.4-3.6,1-8,1.5c-4.5,0.5-8.1,0.5-8.1,0.1c0-0.4,3.6-1,8-1.5
				C134.4,160.6,138,160.6,138.1,160.9z"/>
		</g>
	</g>
</g>
</svg>
