<?xml version="1.0" encoding="utf-8"?>
<!-- Generator: Adobe Illustrator 23.0.5, SVG Export Plug-In . SVG Version: 6.00 Build 0)  -->
<svg version="1.1" id="Layer_1" xmlns="http://www.w3.org/2000/svg" xmlns:xlink="http://www.w3.org/1999/xlink" x="0px" y="0px"
	 viewBox="0 0 512 512" style="enable-background:new 0 0 512 512;" xml:space="preserve">
<style type="text/css">
	.st0{fill:#EDF6FF;}
	.st1{clip-path:url(#SVGID_2_);}
	.st2{fill:#193D7C;}
	.st3{fill:#70B9F9;}
	.st4{fill:url(#SVGID_3_);}
	.st5{fill:url(#SVGID_4_);}
	.st6{fill:#0053FC;}
	.st7{fill:url(#SVGID_5_);}
	.st8{fill:url(#SVGID_6_);}
	.st9{fill:url(#SVGID_7_);}
	.st10{fill:url(#SVGID_8_);}
	.st11{fill:url(#SVGID_9_);}
	.st12{fill:#D6EDFC;}
	.st13{fill:#FFFFFF;}
	.st14{fill:#4B6DFF;}
	.st15{fill:none;}
	.st16{fill:#FFA409;}
	.st17{fill:#FF9300;}
	.st18{fill:#FF8300;}
	.st19{fill:url(#SVGID_10_);}
	.st20{fill:#3FB6FF;}
	.st21{fill:url(#SVGID_11_);}
	.st22{fill:url(#SVGID_12_);}
	.st23{fill:url(#SVGID_13_);}
	.st24{fill:url(#SVGID_14_);}
	.st25{fill:url(#SVGID_15_);}
	.st26{fill:url(#SVGID_16_);}
	.st27{fill:url(#SVGID_17_);}
	.st28{fill:url(#SVGID_18_);}
	.st29{fill:url(#SVGID_19_);}
	.st30{fill:url(#SVGID_20_);}
	.st31{fill:url(#SVGID_21_);}
	.st32{fill:url(#SVGID_22_);}
	.st33{fill:url(#SVGID_23_);}
	.st34{fill:url(#SVGID_24_);}
	.st35{fill:url(#SVGID_25_);}
	.st36{fill:url(#SVGID_26_);}
	.st37{fill:url(#SVGID_27_);}
	.st38{fill:url(#SVGID_28_);}
	.st39{fill:url(#SVGID_29_);}
	.st40{fill:url(#SVGID_30_);}
	.st41{fill:url(#SVGID_31_);}
	.st42{fill:url(#SVGID_32_);}
	.st43{fill:url(#SVGID_33_);}
	.st44{fill:url(#SVGID_34_);}
	.st45{fill:url(#SVGID_35_);}
	.st46{fill:url(#SVGID_36_);}
	.st47{fill:url(#SVGID_37_);}
	.st48{fill:url(#SVGID_38_);}
	.st49{fill:url(#SVGID_39_);}
	.st50{fill:url(#SVGID_40_);}
	.st51{fill:url(#SVGID_41_);}
	.st52{fill:url(#SVGID_42_);}
	.st53{fill:url(#SVGID_43_);}
	.st54{fill:url(#SVGID_44_);}
	.st55{fill:url(#SVGID_45_);}
</style>
<g>
	<g>
		<path class="st0" d="M436.4,414.2c-21.2,54.4-109.7,52.2-141.8,42.6c-55.9-16.6-107.7,41.7-149.4,25.4
			c-66.2-25.9-19.1-82-60.1-108.6s-77.8-29.5-78.6-90c-0.4-30.4,32.4-63.9,61.1-103.3c9.9-13.6,18.8-29.5,24.8-49.7
			c0.6-2.2,1.3-4.4,2.1-6.6c24-72.4,101.8-120.8,178-117.8c159.2,6.3,205.4,150.2,168.4,224.2c-13,26,3.3,76.5,4,121.5
			C445.3,374.3,443.4,396.1,436.4,414.2z"/>
		<g>
			<g>
				<defs>
					<path id="SVGID_1_" d="M193.3,47.4c0,0-65.9,8.5-100.9,83.2c-35,74.6-91.7,92.8-85.9,153s37.7,63.4,78.6,90.1
						S81,451,145.2,482.3c40.2,19.6,93.5-42,149.4-25.4c32.1,9.5,120.6,11.7,141.9-42.7s-41.2-118.4-32-161
						C413.7,210.5,461,2,193.3,47.4z"/>
				</defs>
				<clipPath id="SVGID_2_">
					<use xlink:href="#SVGID_1_"  style="overflow:visible;"/>
				</clipPath>
				<g class="st1">
					<path class="st2" d="M213.1,85.1c0,0-22.2,19.3-4.9,56.5c8.8,19,19-29.9,19-29.9l8.1-27.6L213.1,85.1z"/>
					<path class="st3" d="M247.6,207.8c0,0,2.6,14.9,3.4,30.5c0.3,5.8-3.5,11-9.1,12.5c-3.9,1-9.1,2.5-15,4.4c0,0,12.3,21,41.4,21
						c28.2,0,38.4-19.2,38.4-19.2s-3.9-1.7-9.6-3.7c-6-2.1-10.2-7.6-10.5-14c-0.5-9.9-0.4-25.5,3.3-41.7
						C296.1,170.2,247.6,207.8,247.6,207.8z"/>
					
						<linearGradient id="SVGID_3_" gradientUnits="userSpaceOnUse" x1="254.3838" y1="280.0995" x2="287.6348" y2="280.0995" gradientTransform="matrix(1 0 0 -1 0 512)">
						<stop  offset="0" style="stop-color:#5B9AF1"/>
						<stop  offset="1" style="stop-color:#70B9F9;stop-opacity:0"/>
					</linearGradient>
					<path class="st4" d="M247.6,207.8c0,0,2.6,14.9,3.4,30.5c0.3,5.8-3.5,11-9.1,12.5c-3.9,1-9.1,2.5-15,4.4c0,0,12.3,21,41.4,21
						c28.2,0,38.4-19.2,38.4-19.2s-3.9-1.7-9.6-3.7c-6-2.1-10.2-7.6-10.5-14c-0.5-9.9-0.4-25.5,3.3-41.7
						C296.1,170.2,247.6,207.8,247.6,207.8z"/>
					<path class="st3" d="M81.5,360c0,0,4.6,13.1,30.7,11.5c26.2-1.6,65-24.5,65-24.5L150,292l-63.2,56.1L81.5,360z"/>
					
						<linearGradient id="SVGID_4_" gradientUnits="userSpaceOnUse" x1="149.3274" y1="141.6" x2="111.2041" y2="191.6922" gradientTransform="matrix(1 0 0 -1 0 512)">
						<stop  offset="0" style="stop-color:#5B9AF1"/>
						<stop  offset="1" style="stop-color:#70B9F9;stop-opacity:0"/>
					</linearGradient>
					<path class="st5" d="M81.5,360c0,0,4.6,13.1,30.7,11.5c26.2-1.6,65-24.5,65-24.5L150,292l-63.2,56.1L81.5,360z"/>
					<path class="st6" d="M234.6,248.2c0,0-57.8,14-99.9,48.8c0,0,3.5,34.7,30.1,62.9c0,0,28.2-13.5,41.1-23.9
						C218.8,325.6,234.6,248.2,234.6,248.2z"/>
					
						<linearGradient id="SVGID_5_" gradientUnits="userSpaceOnUse" x1="168.6067" y1="136.2641" x2="181.019" y2="216.0575" gradientTransform="matrix(1 0 0 -1 0 512)">
						<stop  offset="0" style="stop-color:#2284C6"/>
						<stop  offset="1" style="stop-color:#2284C6;stop-opacity:0"/>
					</linearGradient>
					<path class="st7" d="M234.6,248.2c0,0-57.8,14-99.9,48.8c0,0,3.5,34.7,30.1,62.9c0,0,28.2-13.5,41.1-23.9
						C218.8,325.6,234.6,248.2,234.6,248.2z"/>
					<path class="st6" d="M234.6,248.2c0,0,22.5,34,67.1,2.1c0,0,53.8,19.8,62.7,73c8.9,53.2-8,157.1-8,157.1H198
						c0,0-6.4-45.7-4.5-100.6C195,333.9,177.3,283.4,234.6,248.2z"/>
					
						<linearGradient id="SVGID_6_" gradientUnits="userSpaceOnUse" x1="339.4066" y1="42.0883" x2="255.4758" y2="152.0258" gradientTransform="matrix(1 0 0 -1 0 512)">
						<stop  offset="0" style="stop-color:#2284C6"/>
						<stop  offset="1" style="stop-color:#2284C6;stop-opacity:0"/>
					</linearGradient>
					<path class="st8" d="M234.6,248.2c0,0,22.5,34,67.1,2.1c0,0,53.8,19.8,62.7,73c8.9,53.2-8,157.1-8,157.1H198
						c0,0-6.4-45.7-4.5-100.6C195,333.9,177.3,283.4,234.6,248.2z"/>
					<path class="st3" d="M308.5,365.8c0,0,3.5,61.5,1.2,83.1s-6.5,31.5-6.5,31.5h32.5c0,0,29.7-50.4,29.7-111.9"/>
					
						<linearGradient id="SVGID_7_" gradientUnits="userSpaceOnUse" x1="366.9812" y1="88.9" x2="331.8907" y2="88.9" gradientTransform="matrix(1 0 0 -1 0 512)">
						<stop  offset="0" style="stop-color:#5B9AF1"/>
						<stop  offset="1" style="stop-color:#70B9F9;stop-opacity:0"/>
					</linearGradient>
					<path class="st9" d="M308.5,365.8c0,0,3.5,61.5,1.2,83.1s-6.5,31.5-6.5,31.5h32.5c0,0,29.7-50.4,29.7-111.9"/>
					<path class="st6" d="M328.3,278.7c0,0,14.8-3.1,29,19.9c14.2,23.1,16.6,74.9,16.6,74.9s-31.5,14-70.7,7.4
						c0,0-9.1-45.3-4.4-72.1C303.4,282,328.3,278.7,328.3,278.7z"/>
					<path class="st3" d="M115.6,339.4c0,0,31.6-35.7,33.2-65.9s4.7-58.5,15.1-68.9c10.4-10.4,27.7-12.9,34.3-22.5s4.9-39-10.7-36
						s-28,28.1-38.4,43c-10.4,14.9-37.1,40.7-57.9,91.7s-9.9,79-9.9,79S102.1,352.3,115.6,339.4z"/>
					<path class="st3" d="M196.5,171.4c0,0-3.9,34.7,11.7,46.8c15.6,12,58.4,12,86.8-10.7s27-63,26.4-70.8
						c-1.1-13.1-18.3-44.8-51-48.9c-25.5-3.2-61.8-18.2-69.5,48.3C196.1,177,196.5,171.4,196.5,171.4z"/>
					
						<linearGradient id="SVGID_8_" gradientUnits="userSpaceOnUse" x1="196.0667" y1="356.8597" x2="321.625" y2="356.8597" gradientTransform="matrix(1 0 0 -1 0 512)">
						<stop  offset="0" style="stop-color:#5B9AF1"/>
						<stop  offset="1" style="stop-color:#70B9F9;stop-opacity:0"/>
					</linearGradient>
					<path class="st10" d="M196.5,171.4c0,0-3.9,34.7,11.7,46.8c15.6,12,58.4,12,86.8-10.7s27-63,26.4-70.8
						c-1.1-13.1-18.3-44.8-51-48.9c-25.5-3.2-61.8-18.2-69.5,48.3C196.1,177,196.5,171.4,196.5,171.4z"/>
					<path class="st2" d="M202.4,66.2c-6.8,11.5-9.9,41.6,24.7,47.6c34.6,5.9,52.6,0.4,58.9,10.9c5.1,8.5-4.6,14.3-1.6,33.1
						c1.1,6.8,17,1.5,18.2,11.5c1.1,10-19.1,38.7-14.5,43.2s27.6-25,33.7-41c6.1-15.9,13.2-54,0-76.3c-10-16.8-23.6-23.4-36.2-25.3
						s-9.2-15.5-22.4-17.9c-13.3-2.4-11.5,19.6-23.3,13.8C227.9,59.9,210.1,53.3,202.4,66.2z"/>
					
						<linearGradient id="SVGID_9_" gradientUnits="userSpaceOnUse" x1="198.0774" y1="379.6112" x2="329.2679" y2="379.6112" gradientTransform="matrix(1 0 0 -1 0 512)">
						<stop  offset="0" style="stop-color:#192765"/>
						<stop  offset="1" style="stop-color:#193D7C;stop-opacity:0"/>
					</linearGradient>
					<path class="st11" d="M202.4,66.2c-6.8,11.5-9.9,41.6,24.7,47.6c34.6,5.9,52.6,0.4,58.9,10.9c5.1,8.5-4.6,14.3-1.6,33.1
						c1.1,6.8,17,1.5,18.2,11.5c1.1,10-19.1,38.7-14.5,43.2s27.6-25,33.7-41c6.1-15.9,13.2-54,0-76.3c-10-16.8-23.6-23.4-36.2-25.3
						s-9.2-15.5-22.4-17.9c-13.3-2.4-11.5,19.6-23.3,13.8C227.9,59.9,210.1,53.3,202.4,66.2z"/>
					<path class="st12" d="M284.8,161.3c0,0-1.7,5.4-1.7,5.5c-4.6,14.4-18.1,15.4-27.1,12.6l0,0c-2.3-0.8-4.6-1.4-6.8-2.1
						c-0.8-0.2-1.6-0.5-2.4-0.6h-0.1c-6.3-1.8-12.3-3.1-18.3-4.5c-1-0.2-1.8-0.7-2.6-1.3c-2-1.7-4.9-3.9-7.3-4
						c-1-0.1-1.8,0.1-2.3,0.5c-1.3,0.9-3.4,1.8-5,1.5c-3.8-0.6-7.2-1-10.1-1.2c-2.4-0.2-4.6-1.4-6.1-3.2c-3.3-4.2-5.2-9.9-5.2-9.9
						l22.2-6.7l55.3-16.1c4.6,2.6,8.6,5.5,11.6,8.1l0,0c0,0,0.1,0.1,0.2,0.2C280.3,141.2,288.2,149.4,284.8,161.3z"/>
					<path class="st13" d="M203.1,118.6c10.9,0.7,35,2.6,57.8,9.8c11,3.5,17.3,15.1,14,26.2l-0.1,0.5c-3.2,11-14.5,17.4-25.5,14.6
						c-15.5-3.9-37.2-8.5-53.4-10.4c-10.9-1.3-6.1-19.6-5.2-23C191.4,133.1,195.5,118.1,203.1,118.6z"/>
					<path class="st12" d="M281.2,151.2c0,0,31.7,15.1,38.3,28.8c0,0-2.5,6.4-8,11.6c0,0-14.1-8.1-38.3-17.2L281.2,151.2z"/>
				</g>
			</g>
		</g>
		<path class="st0" d="M92.6,434.6c-1.8,11.1-11.4,26.2,17.9,41.3c16.5,8.5,18.4,15.1,16.1,22.4c-2.3,7.2-14.3,11.9-31.8,2.2
			c-17.5-9.7-46.4-29.6-43.8-67.1C52.9,405,98.5,397.1,92.6,434.6z"/>
		<path class="st0" d="M461.7,155.8c0,0,10.2,30.6,4.3,48.3c-5.9,17.7-19.7,36.6-16,47s60,11.9,55.7-52.4
			C501.4,134.3,456,128.3,461.7,155.8z"/>
	</g>
</g>
<g>
	<g id="Group_938_5_" transform="translate(-953.348 -232.003)">
		<g id="Group_931_5_">
			<path id="Path_8573_5_" class="st14" d="M1006,593.6c-0.5,1.9-0.8,3.8-0.9,5.7l-0.4,0.1c-2.1,0.5-4.1,1.2-6,2.2
				c-0.6,0.3-2.6,1.5-3.2,2c-1.9,1.3-3.3,2.6-4.7,4.2c-0.1,0.1-0.1,0.1-0.2,0.2c-1.8-0.7-3.6-1.3-5.6-1.8c4-6.5,10.6-10.9,18.1-12.2
				c0.8-0.1,1.6-0.2,2.4-0.3L1006,593.6z"/>
			<path id="Path_8574_5_" class="st14" d="M1032.8,613.6c0.6,3,0.7,6.2,0.2,9.2c-0.3,1.7-0.7,3.3-1.3,4.8c-1.3,3.6-3.5,6.9-6.2,9.7
				c-3,3-6.8,5.2-10.9,6.5c-3.7,1.2-7.6,1.5-11.5,1c-1.7-0.2-3.3-0.6-4.9-1.2c-8.4-2.9-14.7-10-16.6-18.7c-0.3-1.6-0.5-3.3-0.5-4.9
				c0-0.8,0-1.6,0.1-2c2.4,2.5,4.8,4.5,5.6,5.3c0,0.1,0,0.1,0,0.2c0.4,4.3,1.4,8,3.2,11.5c0,0,0,0.1,0.1,0.1c0.6,1,0.9,1.5,1.4,2
				c1.7,1.7,4.7,2.9,8.5,3.5c6.3,1,13.4,0.2,17.9-2.1c4.6-2.4,9.6-8.9,11.7-15.3c0.3-1,0.6-2.1,0.8-3.1c0.1-0.8,0.3-2,0.2-2
				c0,0,0,0,0,0c0,0,0-0.1,0-0.1c0,0,0,0,0-0.1c0,0,0,0,0-0.1c0,0,0,0,0-0.1c0,0,0,0,0-0.1c0,0,0,0,0,0c0,0,0,0,0-0.1s0,0,0-0.1
				c0,0,0,0,0,0c0-0.1,0-0.1,0-0.2c0-0.2,0-1.2,0-1.4c-0.1-1.1-0.4-2.1-0.7-3c-0.2-0.4-0.6-1.1-0.7-1.3c0,0-0.1-0.1-0.1-0.1
				c-0.1-0.1-0.2-0.3-0.4-0.5c-0.2-0.3-0.5-0.7-0.6-0.9c-2.2-3-4.6-5.1-7.8-6.9c-0.1-0.1-0.2-0.1-0.3-0.2c0,0,0,0-0.1,0l0,0
				c-0.2-0.8-0.9-4-2.1-7.6l0,0l0.2,0.1c0.3,0.1,1.2,0.6,1.7,0.8c2,1,3.8,2.3,5.4,3.8C1029,603.7,1031.7,608.4,1032.8,613.6z"/>
			<path id="Path_8575_5_" d="M1018.7,610.7c0,0.1-0.1,0.7-0.3,1.1c-0.5,1.3-1.9,3-3.4,4.4c-0.9,0.8-1.9,1.4-2.3,1.4
				c-0.3,0-0.3,0-0.4-0.3c-0.2-0.6,0-1.5,0.4-2.5c0.2-0.5,1.2-2.4,1.7-3.2c0.8-1.4,1.5-2.3,2.1-2.8c0.2-0.2,0.4-0.3,0.5-0.3
				c0.2,0,0.5,0.3,0.8,0.7C1018,609.4,1018.6,610.5,1018.7,610.7z"/>
			<path id="Path_8576_5_" d="M1003.6,622.9c0,0.1-0.1,0.3-0.4,0.5c-0.2,0.2-1,0.6-1.4,0.8c-1.6,0.7-3.4,1.2-4.9,1.3
				c-0.8,0.1-1.5,0-2-0.1l-0.3-0.1l-0.2-0.3c-0.3-0.4-0.7-1.2-0.8-1.5c-0.1-0.2-0.1-0.5-0.2-0.7c0-0.1,0-0.1,0.3-0.3
				c0.3-0.2,0.6-0.3,1.1-0.4c1-0.3,2.7-0.4,4.8-0.4c1.7,0,2.5,0.1,3.1,0.4C1003.1,622.4,1003.6,622.7,1003.6,622.9z"/>
			<path id="Path_8577_5_" d="M1019.4,626.7c0,0,0.1,0.4,0.3,0.9c0.1,0.5,0.2,0.8,0.3,0.8c-0.1,0.1-0.1,0.1-0.2,0.1l-0.2,0.1
				l0.1,0.9c0.1,0.5,0.1,1,0.2,1l0,0.1l-0.3-0.1l-0.3-0.1l-1.2-1.9l0,0c-0.1,0.1-0.9,0.7-1.2,1c-1.4,1.1-3,2-4.7,2.7
				c-0.3,0.1-0.5,0.2-0.5,0.2c0,0,0.3,0.5,0.6,1l0.6,1l0,0.3c0,0.1,0,0.3,0,0.3c0,0-0.1,0-0.5-0.3c-0.4-0.2-0.7-0.5-1-0.8l-0.2-0.2
				l-0.2,0.1l-0.2,0.2l-0.2-0.2c-0.1-0.1-0.3-0.3-0.4-0.4l-0.2-0.2l-0.3-0.1c-0.2,0-0.3-0.1-0.3-0.1c-0.1,0-0.1,0-0.1-0.1l-0.1-0.1
				l0.9-0.5l0.9-0.5l0.1,0.1l0.1,0.1l0.3-0.2c0.2-0.1,0.7-0.4,1.2-0.7l0.9-0.5l0-0.5l0-0.5l0.3-0.2l-0.4-0.7l-0.4-0.7l-0.5,0.1
				c-1.6,0.2-2.7,0-3.4-0.6c-0.1-0.1-0.2-0.2-0.6-0.9c-0.4-0.7-0.5-0.8-0.5-0.9c-0.1-0.4,0-0.8,0.3-1.1c0.1-0.1,0.4-0.3,2.1-1.3
				l1.9-1.2l0.3,0c0.3,0,0.5,0,0.8,0.1c0.3,0.1,0.5,0.3,0.7,0.7c0.4,0.6,0.6,1.2,0.7,1.4c0.1,0.3,0.1,0.7,0.1,1
				c-0.1,0.7-0.4,1.5-0.9,2l-0.1,0.2l0.4,0.7l0.4,0.7l0.2-0.1l0.2-0.1l0.4,0.2l0.4,0.2l0.9-0.6c0.5-0.3,1-0.6,1-0.6
				c0.1,0,0.1,0,0.1-0.2l0-0.2l0.8-0.5C1019.2,626.8,1019.4,626.7,1019.4,626.7z"/>
			<path id="Path_8578_5_" d="M1016.9,630.9c-0.1,0.2-0.2,0.2-0.2,0.2c0,0-0.2,0-0.3,0l-0.3,0l-0.1,0.3c-0.1,0.7-0.2,0.7-0.3,0.8
				c-0.2,0.1-0.2,0.1-0.7-0.1c-0.2-0.1-0.4-0.2-0.4-0.2s-0.1,0-0.2,0.1l-0.2,0.1l0,0.2l0,0.2l-0.2,0c-0.2,0-0.3,0.1-0.5,0.1l-0.3,0
				l-0.2-0.4l1.9-1.1l1.9-1.1l0.1,0.2C1017.1,630.6,1017.1,630.5,1016.9,630.9z"/>
		</g>
		<path id="Path_8579_5_" class="st13" d="M1029.2,611.9c0,0-0.1-0.1-0.1-0.1c-1.8,0.8-6.6,3.6-8.9,9.9c0,0-5.4-5.7-12.1-1.7
			c-6.7,4-5.2,12.1-5.2,12.1c-6.2-1.8-11.1,1.5-12.7,2.9c0,0,0,0.1,0.1,0.1c0.6,1,0.9,1.5,1.4,2c1.7,1.7,4.7,2.9,8.5,3.5
			c6.3,1,13.4,0.2,17.9-2.1c4.6-2.4,9.6-8.9,11.7-15.3c0.3-1,0.6-2.1,0.8-3.1c0.1-0.8,0.3-2,0.2-2c0,0,0,0,0,0c0,0,0-0.1,0-0.1
			c0,0,0,0,0-0.1c0,0,0,0,0-0.1c0,0,0,0,0-0.1c0,0,0,0,0-0.1c0,0,0,0,0,0c0,0,0,0,0-0.1c0,0,0,0,0-0.1c0,0,0,0,0,0
			c0-0.1,0-0.1,0-0.2c0-0.2,0-1.2,0-1.4c-0.1-1.1-0.4-2.1-0.7-3C1029.8,612.7,1029.4,612,1029.2,611.9z M1016.9,630.9
			c-0.1,0.2-0.2,0.2-0.2,0.2c0,0-0.2,0-0.3,0l-0.3,0l-0.1,0.3c-0.1,0.7-0.2,0.7-0.3,0.8c-0.2,0.1-0.2,0.1-0.7-0.1
			c-0.2-0.1-0.4-0.2-0.4-0.2s-0.1,0-0.2,0.1l-0.2,0.1l0,0.2l0,0.2l-0.2,0c-0.2,0-0.3,0.1-0.5,0.1l-0.3,0l-0.2-0.4l1.9-1.1l1.9-1.1
			l0.1,0.2C1017.1,630.6,1017.1,630.5,1016.9,630.9z M1019.6,627.5c0.1,0.5,0.2,0.8,0.3,0.8c-0.1,0.1-0.1,0.1-0.2,0.1l-0.2,0.1
			l0.1,0.9c0.1,0.5,0.1,1,0.2,1l0,0.1l-0.3-0.1l-0.3-0.1l-1.2-1.9l0,0c-0.1,0.1-0.9,0.7-1.2,1c-1.4,1.1-3,2-4.7,2.7
			c-0.3,0.1-0.5,0.2-0.5,0.2c0,0,0.3,0.5,0.6,1l0.6,1l0,0.3c0,0.1,0,0.3,0,0.3c0,0-0.1,0-0.5-0.3c-0.4-0.2-0.7-0.5-1-0.8l-0.2-0.2
			l-0.2,0.1l-0.2,0.2l-0.2-0.2c-0.1-0.1-0.3-0.3-0.4-0.4l-0.2-0.2l-0.3-0.1c-0.2,0-0.3-0.1-0.3-0.1c-0.1,0-0.1,0-0.1-0.1l-0.1-0.1
			l0.9-0.5l0.9-0.5l0.1,0.1l0.1,0.1l0.3-0.2c0.2-0.1,0.7-0.4,1.2-0.7l0.9-0.5l0-0.5l0-0.5l0.3-0.2l-0.4-0.7l-0.4-0.7l-0.5,0.1
			c-1.6,0.2-2.7,0-3.4-0.6c-0.1-0.1-0.2-0.2-0.6-0.9c-0.4-0.7-0.5-0.8-0.5-0.9c-0.1-0.4,0-0.8,0.3-1.1c0.1-0.1,0.4-0.3,2.1-1.3
			l1.9-1.2l0.3,0c0.3,0,0.5,0,0.8,0.1c0.3,0.1,0.5,0.3,0.7,0.7c0.4,0.6,0.6,1.2,0.7,1.4c0.1,0.3,0.1,0.7,0.1,1
			c-0.1,0.7-0.4,1.5-0.9,2l-0.1,0.2l0.4,0.7l0.4,0.7l0.2-0.1l0.2-0.1l0.4,0.2l0.4,0.2l0.9-0.6c0.5-0.3,1-0.6,1-0.6
			c0.1,0,0.1,0,0.1-0.2l0-0.2l0.8-0.5c0.6-0.4,0.8-0.5,0.8-0.5C1019.4,626.7,1019.5,627.1,1019.6,627.5z"/>
		<path id="Path_8580_5_" class="st15" d="M990.2,635c-0.4,0.3-0.6,0.6-0.6,0.6"/>
		<path id="Path_8581_5_" class="st15" d="M1029.8,611.4c0,0-0.3,0.1-0.7,0.3"/>
		<path id="Path_8582_5_" class="st16" d="M1028.7,611.2c-0.2-0.3-0.5-0.7-0.6-0.9c-2.2-3-4.6-5.1-7.8-6.9c-0.1-0.1-0.2-0.1-0.3-0.2
			c0,0,0,0-0.1,0l0,0c-0.2-0.8-0.9-4-2.1-7.6c-1.6-4.8-3.9-10.1-6.7-10.5c0,0-3.4,1.7-5.1,8.5c-0.5,1.9-0.8,3.8-0.9,5.7l-0.4,0.1
			c-2.1,0.5-4.1,1.2-6,2.2c-0.6,0.3-2.6,1.5-3.2,2c-1.9,1.3-3.3,2.6-4.7,4.2c-0.1,0.1-0.1,0.1-0.2,0.2c-1.8-0.7-3.6-1.3-5.6-1.8
			c-7-1.5-10.2,0.7-10.2,0.7c-1.1,2.7,2.7,7.5,6.4,11.2c2.4,2.5,4.8,4.5,5.6,5.3c0,0.1,0,0.1,0,0.2c0.4,4.3,1.4,8,3.2,11.5
			c1.7-1.4,6.5-4.7,12.7-2.9c0,0-1.5-8.1,5.2-12.1s12.1,1.7,12.1,1.7c2.2-6.3,7.1-9.1,8.9-9.9C1029,611.6,1028.9,611.4,1028.7,611.2
			z M986.7,619.9c0,0-6.6-5-8.1-9.1l0,0c-0.3-0.7-0.4-1.4-0.3-2c0,0,3.1-1.5,11.1,0.9c0,0-0.6,1-1.3,2.7c0,0,0,0,0,0
			C987.3,614.2,986.6,616.8,986.7,619.9L986.7,619.9z M1003.6,622.9c0,0.1-0.1,0.3-0.4,0.5c-0.2,0.2-1,0.6-1.4,0.8
			c-1.6,0.7-3.4,1.2-4.9,1.3c-0.8,0.1-1.5,0-2-0.1l-0.3-0.1l-0.2-0.3c-0.3-0.4-0.7-1.2-0.8-1.5c-0.1-0.2-0.1-0.5-0.2-0.7
			c0-0.1,0-0.1,0.3-0.3c0.3-0.2,0.6-0.3,1.1-0.4c1-0.3,2.7-0.4,4.8-0.4c1.7,0,2.5,0.1,3.1,0.4
			C1003.1,622.4,1003.6,622.7,1003.6,622.9z M1018.7,610.7c0,0.1-0.1,0.7-0.3,1.1c-0.5,1.3-1.9,3-3.4,4.4c-0.9,0.8-1.9,1.4-2.3,1.4
			c-0.3,0-0.3,0-0.4-0.3c-0.2-0.6,0-1.5,0.4-2.5c0.2-0.5,1.2-2.4,1.7-3.2c0.8-1.4,1.5-2.3,2.1-2.8c0.2-0.2,0.4-0.3,0.5-0.3
			c0.2,0,0.5,0.3,0.8,0.7C1018,609.4,1018.6,610.5,1018.7,610.7z M1010.1,599.1L1010.1,599.1c-1.8-0.2-2.9-0.1-2.9-0.1
			c1.4-8.1,4.1-10.1,4.1-10.1c0.6,0.2,1.1,0.7,1.6,1.2l0,0c2.9,3.3,4.3,11.4,4.3,11.4C1015.1,600.2,1012.6,599.4,1010.1,599.1
			L1010.1,599.1z"/>
		<path id="Path_8583_5_" class="st15" d="M1005.1,599.3C1005.1,599.3,1005.1,599.3,1005.1,599.3"/>
		<path id="Path_8584_5_" class="st15" d="M1019.9,603.1c0,0.1,0,0.2,0,0.2"/>
		<g id="Group_934_5_">
			<g id="Group_933_5_">
				<g id="Group_932_5_">
					<path id="Path_8585_5_" class="st17" d="M1012.9,590.1c-0.6,0.3-3.2,1.8-2.8,9l0,0c-1.7-0.2-2.9-0.1-2.9-0.1
						c1.4-8.1,4.1-10.1,4.1-10.1C1011.9,589.1,1012.5,589.5,1012.9,590.1z"/>
				</g>
				<path id="Path_8586_5_" class="st18" d="M1017.3,601.5c-2.2-1.2-4.6-2.1-7.1-2.4c-0.4-7.2,2.2-8.8,2.8-9l0,0
					C1015.8,593.4,1017.3,601.5,1017.3,601.5z"/>
				<path id="Path_8587_5_" class="st18" d="M1013.1,590c0,0-0.1,0-0.1,0L1013.1,590z"/>
			</g>
		</g>
		<path id="Path_8588_5_" class="st15" d="M991.1,608.1c-0.1-0.1-0.3-0.1-0.4-0.2"/>
		<path id="Path_8589_5_" class="st15" d="M986.9,623.3c0.2,0.2,0.3,0.3,0.3,0.3"/>
		<g id="Group_937_5_">
			<g id="Group_936_5_">
				<g id="Group_935_5_">
					<path id="Path_8590_5_" class="st17" d="M989.3,609.7c0,0-0.6,1-1.3,2.7c0,0,0,0,0,0c-6.3-3.7-9-2-9.5-1.6
						c-0.3-0.7-0.4-1.4-0.3-2C978.2,608.8,981.4,607.3,989.3,609.7z"/>
				</g>
				<path id="Path_8591_5_" class="st18" d="M988,612.4c-0.7,1.8-1.4,4.4-1.4,7.5c0,0-6.6-5-8.1-9.1l0,0
					C979.1,610.3,981.7,608.7,988,612.4z"/>
				<path id="Path_8592_5_" class="st18" d="M978.5,610.8C978.5,610.8,978.5,610.8,978.5,610.8L978.5,610.8z"/>
			</g>
		</g>
		<path id="Path_8593_5_" class="st13" d="M1012.4,609.3c0,0-2.2,1.5-2.9-0.4c-0.8-1.9,0.8-3.2,1.4-3.4c0.5-0.2,2.9-0.7,3.4,1
			c0.5,1.7-0.1,1.7-0.4,1.9C1013.7,608.7,1012.4,609.3,1012.4,609.3z"/>
		<path id="Path_8594_5_" class="st13" d="M995.9,619.3c0,0-2.2,1.5-2.9-0.4s0.8-3.2,1.4-3.4c0.5-0.2,2.9-0.7,3.4,1
			c0.5,1.7-0.1,1.7-0.4,1.9S995.9,619.3,995.9,619.3z"/>
	</g>
	<g>
		<g>
			<g>
				
					<radialGradient id="SVGID_10_" cx="250.6307" cy="520.1828" r="8.5686" gradientTransform="matrix(0.7865 -0.4541 0.1063 0.1903 -205.3417 391.9281)" gradientUnits="userSpaceOnUse">
					<stop  offset="0" style="stop-color:#525458"/>
					<stop  offset="1" style="stop-color:#2B2D31"/>
				</radialGradient>
				<path class="st19" d="M64.6,369l-31.4,18.6c0,0,0.4-0.6,1-1.3c0.4-0.5,1-1.1,1.5-1.6c0.1-0.1,0.3-0.2,0.4-0.3
					c1.6-1.2,6.4-3.6,12-6.9c5.5-3.3,10.7-7,12.3-7.6c0.1-0.1,0.2-0.1,0.4-0.1c0.8-0.3,1.5-0.5,2.1-0.6
					C63.9,368.9,64.6,369,64.6,369z"/>
				<path class="st20" d="M60.7,369.7c-1.1,0.7-2.6,1.7-4.4,2.8c-2.4,1.6-5.3,3.5-8.3,5.3c-3.2,1.9-6.1,3.5-8.5,4.7
					c-1.6,0.8-2.9,1.5-3.8,2.1c-0.6,0.5-1.1,1.1-1.5,1.6c0.2-0.2,0.4-0.3,0.6-0.5c0.9-0.7,2.7-1.6,4.9-2.8c2.4-1.2,5.3-2.8,8.5-4.7
					c3-1.8,6-3.8,8.3-5.3c2.7-1.8,4.8-3.2,5.7-3.5c0.2-0.1,0.4-0.2,0.6-0.2C62.2,369.2,61.5,369.3,60.7,369.7z"/>
			</g>
			<g>
				
					<linearGradient id="SVGID_11_" gradientUnits="userSpaceOnUse" x1="250.0491" y1="457.5958" x2="250.0491" y2="435.6333" gradientTransform="matrix(0.8568 -0.5157 0.5157 0.8568 -393.7583 128.31)">
					<stop  offset="0" style="stop-color:#2C2E32"/>
					<stop  offset="8.428930e-02" style="stop-color:#55575B"/>
					<stop  offset="0.3288" style="stop-color:#2A2C30"/>
					<stop  offset="0.521" style="stop-color:#54565A"/>
					<stop  offset="1" style="stop-color:#26252B"/>
				</linearGradient>
				<path class="st21" d="M67.9,370.9c-2.7-2.9-4.4-2.5-8.6,0.4c-1.9,1.3-4.3,2.9-6.3,4.2c-2.9,1.9-5.9,3.7-8.9,5.4
					c-2.1,1.2-4.6,2.5-6.7,3.6c-4.5,2.4-5.6,3.7-4.3,7.4c1.3,3.7,5.1,9.3,8.1,8.2c3-1.2,8.6-4.8,12.2-7.1c1.9-1.2,3.9-2.4,5.9-3.5
					c3.7-2.1,10.4-5.8,12-7.5C73.5,379.7,70.6,373.8,67.9,370.9z"/>
				
					<radialGradient id="SVGID_12_" cx="251.1604" cy="533.7756" r="16.7601" gradientTransform="matrix(0.7782 -0.4684 0.6782 1.1268 -505.1854 -99.0036)" gradientUnits="userSpaceOnUse">
					<stop  offset="0" style="stop-color:#3FB6FF"/>
					<stop  offset="9.795301e-02" style="stop-color:#3EB1F8"/>
					<stop  offset="0.2456" style="stop-color:#3BA3E3"/>
					<stop  offset="0.4245" style="stop-color:#378CC1"/>
					<stop  offset="0.6278" style="stop-color:#316C92"/>
					<stop  offset="0.8489" style="stop-color:#294356"/>
					<stop  offset="1" style="stop-color:#24252A"/>
				</radialGradient>
				<path class="st22" d="M65.8,384.5c-2.4,1.4-5.1,2.9-7,4c-1,0.6-2,1.2-3,1.7c-1,0.6-2,1.2-3,1.8l-0.3,0.2
					c-1.8,1.2-4.1,2.6-6.3,3.9c-2.4,1.4-4.2,2.4-5.4,2.9c-0.6,0.2-1.9-0.3-3.5-2.1c-1.3-1.5-2.6-3.8-3.3-5.7c-1-2.9-0.5-3.7,2-5.2
					c0.4-0.3,1-0.6,1.6-0.9c1.7-0.9,4-2.2,6.7-3.6c1.5-0.8,3.1-1.7,4.6-2.6c1.5-0.9,3-1.8,4.4-2.8c2.6-1.7,4.7-3.1,6.4-4.2
					c0.6-0.4,1.1-0.7,1.5-1c2.5-1.5,3.4-1.6,5.5,0.7c1.4,1.4,2.7,3.6,3.4,5.5c0.9,2.3,0.7,3.7,0.2,4.2
					C70.1,381.8,68.9,382.7,65.8,384.5C65.8,384.5,65.8,384.5,65.8,384.5z"/>
				
					<radialGradient id="SVGID_13_" cx="255.5912" cy="522.7796" r="25.0084" gradientTransform="matrix(0.7782 -0.4684 0.3517 0.5843 -330.8813 190.5892)" gradientUnits="userSpaceOnUse">
					<stop  offset="0" style="stop-color:#525458"/>
					<stop  offset="1" style="stop-color:#2B2D31"/>
				</radialGradient>
				<path class="st23" d="M65.7,384.3c-2.4,1.4-5.1,2.9-7,4c-1,0.6-2,1.2-3,1.8c-1,0.6-2,1.2-3,1.9l-0.3,0.2
					c-1.8,1.2-4.1,2.6-6.2,3.9c-2.4,1.4-4.2,2.4-5.3,2.8c-0.4,0.2-1.6-0.3-3.1-2c-1.3-1.5-2.6-3.7-3.2-5.6c-0.9-2.8-0.5-3.4,1.8-4.8
					c0.4-0.3,0.9-0.5,1.6-0.9c1.7-0.9,4-2.2,6.7-3.6c1.5-0.8,3.1-1.7,4.6-2.6c1.5-0.9,3-1.8,4.5-2.8c2.6-1.7,4.7-3.1,6.4-4.2
					c0.6-0.4,1.1-0.7,1.5-1c2.3-1.4,3.1-1.5,5.1,0.6c1.3,1.4,2.7,3.6,3.4,5.4c0.8,2.2,0.6,3.5,0.3,3.9
					C69.9,381.5,68.9,382.4,65.7,384.3z"/>
				
					<radialGradient id="SVGID_14_" cx="262.3683" cy="1113.0317" r="11.7075" gradientTransform="matrix(0.746 -0.4407 1.989629e-02 3.418054e-02 -169.0726 456.8246)" gradientUnits="userSpaceOnUse">
					<stop  offset="0.1947" style="stop-color:#3FACFF"/>
					<stop  offset="0.2658" style="stop-color:#3591D7"/>
					<stop  offset="0.41" style="stop-color:#225E8C"/>
					<stop  offset="0.5389" style="stop-color:#143650"/>
					<stop  offset="0.6478" style="stop-color:#091924"/>
					<stop  offset="0.7324" style="stop-color:#02070A"/>
					<stop  offset="0.7824" style="stop-color:#000000"/>
				</radialGradient>
				<path class="st24" d="M57.5,374.1c0.2,0.4-3.5,3-8.3,5.9c-4.8,2.9-8.9,4.8-9.2,4.4c-0.2-0.4,3.5-3,8.3-5.9
					C53.2,375.7,57.3,373.7,57.5,374.1z"/>
				
					<radialGradient id="SVGID_15_" cx="262.5839" cy="1147.0004" r="11.7075" gradientTransform="matrix(0.746 -0.4407 1.989629e-02 3.418054e-02 -163.1844 466.9401)" gradientUnits="userSpaceOnUse">
					<stop  offset="0.1946" style="stop-color:#3FACFF"/>
					<stop  offset="0.2657" style="stop-color:#3591D7"/>
					<stop  offset="0.4099" style="stop-color:#225E8C"/>
					<stop  offset="0.5389" style="stop-color:#143650"/>
					<stop  offset="0.6478" style="stop-color:#091924"/>
					<stop  offset="0.7324" style="stop-color:#02070A"/>
					<stop  offset="0.7824" style="stop-color:#000000"/>
				</radialGradient>
				<path class="st25" d="M64.2,385.3c0.2,0.4-3.5,3-8.3,5.9c-4.8,2.9-8.9,4.8-9.2,4.4c-0.2-0.4,3.5-3,8.3-5.9
					C59.9,386.9,64,384.9,64.2,385.3z"/>
			</g>
		</g>
	</g>
</g>
<g>
	<g id="Group_938_1_" transform="translate(-953.348 -232.003)">
		<g id="Group_931_1_">
			<path id="Path_8573_1_" class="st14" d="M1051.5,384.3c-2.6,1.3-5.1,2.8-7.4,4.4l-0.4-0.3c-2.5-1.9-5.3-3.5-8.3-4.8
				c-0.9-0.4-4.2-1.5-5.4-1.8c-3.4-0.9-6.1-1.3-9.4-1.3c-0.1,0-0.2,0-0.4,0c-0.9-2.8-2-5.5-3.3-8.1c11.3-1.6,22.7,1.7,31.5,9
				c0.9,0.8,1.8,1.6,2.7,2.5L1051.5,384.3z"/>
			<path id="Path_8574_1_" class="st14" d="M1054.3,434.4c-2.9,3.7-6.4,6.8-10.4,9.1c-2.2,1.3-4.4,2.3-6.8,3.2
				c-5.5,2-11.3,2.7-17.1,2.2c-6.4-0.6-12.6-2.7-18-6.2c-4.9-3.1-9-7.3-12.1-12.2c-1.3-2.1-2.4-4.4-3.4-6.7
				c-4.8-12.5-2.8-26.5,5.5-37.1c1.5-1.9,3.3-3.7,5.1-5.4c0.9-0.7,1.9-1.5,2.4-1.9c-0.5,5.2-0.6,9.8-0.6,11.5
				c-0.1,0.1-0.1,0.1-0.2,0.2c-4.6,4.5-7.8,9.3-10.1,14.8c0,0.1-0.1,0.1-0.1,0.2c-0.7,1.6-0.9,2.5-1,3.6c-0.3,3.6,1.2,8.2,4.1,13.2
				c4.9,8.2,12.7,15.6,19.6,18.5c7.2,3,19.5,2.5,28.9-1.3c1.5-0.6,2.9-1.3,4.3-2.1c1-0.6,2.6-1.7,2.5-1.7c0,0,0,0,0.1,0
				c0,0,0.1,0,0.1-0.1c0,0,0,0,0.1,0c0,0,0.1,0,0.1,0c0,0,0,0,0.1,0c0,0,0.1,0,0.1-0.1c0,0,0,0,0,0c0,0,0.1,0,0.1,0c0,0,0,0,0.1,0
				c0,0,0.1,0,0.1,0c0.1-0.1,0.2-0.2,0.2-0.2c0.3-0.2,1.4-1.2,1.6-1.4c1.2-1.3,2-2.5,2.7-3.7c0.3-0.6,0.8-1.8,0.8-2
				c0-0.1,0-0.1,0.1-0.3c0.1-0.2,0.2-0.6,0.3-0.9c0.2-0.5,0.4-1.3,0.4-1.6c1.3-5.4,1.4-10.2,0.5-15.6c0-0.2-0.1-0.4-0.1-0.6
				c0,0,0-0.1,0-0.1l0,0c0.7-1,3.7-5,6.7-9.7l0,0l0.1,0.3c0.2,0.5,0.5,2,0.7,2.7c0.7,3.2,1,6.5,0.9,9.8
				C1062,420.6,1059.2,428.2,1054.3,434.4z"/>
			<path id="Path_8575_1_" d="M1044,415.4c-0.1,0.2-0.8,0.5-1.5,0.8c-2,0.6-5.2,0.7-8.3,0.2c-1.8-0.3-3.4-0.8-3.8-1.2
				c-0.3-0.3-0.3-0.4,0-0.8c0.5-0.8,1.7-1.5,3.2-1.9c0.8-0.2,3.8-0.9,5.2-1.1c2.3-0.4,4.1-0.5,5.2-0.3c0.4,0.1,0.8,0.2,0.9,0.3
				c0.2,0.2,0.2,0.8,0,1.6C1044.8,413.4,1044.2,415.1,1044,415.4z"/>
			<path id="Path_8576_1_" d="M1015.4,409.9c-0.1,0.1-0.5,0.1-0.9,0.1s-1.6-0.5-2.3-0.8c-2.3-1.2-4.7-2.8-6.3-4.4
				c-0.9-0.9-1.5-1.7-1.8-2.4l-0.2-0.4l0.1-0.5c0.2-0.8,0.6-2,0.9-2.4c0.2-0.3,0.4-0.6,0.7-0.9c0.1-0.1,0.1-0.1,0.5,0.1
				c0.5,0.2,0.9,0.4,1.5,0.9c1.3,0.9,3,2.7,5.1,5.2c1.7,2,2.3,2.9,2.6,4C1015.6,408.8,1015.6,409.7,1015.4,409.9z"/>
			<path id="Path_8577_1_" d="M1026.3,431.6c0,0-0.3,0.5-0.7,1.1c-0.4,0.6-0.7,1.1-0.7,1.1c-0.1,0-0.3-0.1-0.4-0.1l-0.4-0.1l-0.9,1
				c-0.5,0.6-1,1.1-1,1.2l-0.1,0.1l-0.1-0.5l-0.1-0.5l1.1-3.2l-0.1,0c-0.2,0-1.7-0.3-2.3-0.5c-2.6-0.6-5.1-1.6-7.5-2.8
				c-0.4-0.2-0.7-0.4-0.7-0.4s-0.3,0.8-0.6,1.7l-0.5,1.7l-0.3,0.2c-0.2,0.1-0.3,0.2-0.3,0.2c0,0-0.1-0.2-0.2-0.8
				c-0.1-0.7-0.1-1.3,0-2l0-0.4l-0.4-0.1l-0.4-0.1l0.1-0.5c0-0.2,0.1-0.6,0.1-0.8l0.1-0.4l-0.2-0.4c-0.1-0.2-0.2-0.4-0.3-0.5
				c0-0.1,0-0.2,0-0.2l0-0.1l1.4,0.5l1.4,0.5l0,0.2l0,0.2l0.5,0.2c0.3,0.1,1.1,0.4,1.9,0.7l1.4,0.5l0.6-0.5l0.6-0.4l0.5,0.2l0.4-1.2
				l0.4-1.2l-0.5-0.5c-1.7-1.6-2.6-3.1-2.6-4.5c0-0.3,0-0.4,0.4-1.5c0.4-1.2,0.4-1.3,0.6-1.5c0.4-0.5,1-0.8,1.6-0.8
				c0.2,0,0.7,0.2,3.5,1.1l3.2,1.1l0.3,0.3c0.4,0.4,0.5,0.6,0.6,1c0.2,0.5,0.1,0.8-0.1,1.5c-0.3,1-0.7,1.9-0.9,2.2
				c-0.3,0.4-0.7,0.8-1.1,1.1c-0.8,0.5-2.1,0.9-3.2,0.9l-0.3,0l-0.4,1.2l-0.4,1.2l0.2,0.1l0.2,0.1l0.2,0.6l0.2,0.6l1.6,0.5
				c0.9,0.3,1.6,0.6,1.7,0.6c0.1,0.1,0.1,0.1,0.3-0.1l0.2-0.2l1.3,0.5C1026,431.5,1026.3,431.6,1026.3,431.6z"/>
			<path id="Path_8578_1_" d="M1019,432.8c-0.3,0.1-0.4,0.1-0.5,0c0,0-0.1-0.2-0.3-0.4l-0.2-0.4l-0.4,0.2c-1,0.5-1,0.5-1.2,0.5
				c-0.3-0.1-0.4-0.2-0.6-0.9c-0.1-0.4-0.2-0.7-0.2-0.7s-0.1-0.1-0.3-0.1l-0.3-0.1l-0.3,0.3l-0.3,0.3l-0.2-0.2
				c-0.2-0.1-0.4-0.3-0.5-0.5l-0.3-0.3l0.2-0.7l3.1,1.1l3.1,1.1l-0.1,0.3C1019.6,432.7,1019.6,432.7,1019,432.8z"/>
		</g>
		<path id="Path_8579_1_" class="st13" d="M1052.8,428.7c0-0.1,0-0.1,0.1-0.3c-2.7-1.3-10.5-4.2-20-0.6c0,0,1.4-11.7-9.7-15.5
			c-11.1-3.8-19,5.6-19,5.6c-3.9-8.8-12.4-11.2-15.6-11.8c0,0.1-0.1,0.1-0.1,0.2c-0.7,1.6-0.9,2.5-1,3.6c-0.3,3.6,1.2,8.2,4.1,13.2
			c4.9,8.2,12.7,15.6,19.6,18.5c7.2,3,19.5,2.5,28.9-1.3c1.5-0.6,2.9-1.3,4.3-2.1c1-0.6,2.6-1.7,2.5-1.7c0,0,0,0,0.1,0
			c0,0,0.1,0,0.1-0.1c0,0,0,0,0.1,0c0,0,0.1,0,0.1,0c0,0,0,0,0.1,0c0,0,0.1,0,0.1-0.1c0,0,0,0,0,0c0,0,0.1,0,0.1,0s0,0,0.1,0
			c0,0,0.1,0,0.1,0c0.1-0.1,0.2-0.2,0.2-0.2c0.3-0.2,1.4-1.2,1.6-1.4c1.2-1.3,2-2.5,2.7-3.7C1052.3,430.1,1052.8,429,1052.8,428.7z
			 M1019,432.8c-0.3,0.1-0.4,0.1-0.5,0c0,0-0.1-0.2-0.3-0.4l-0.2-0.4l-0.4,0.2c-1,0.5-1,0.5-1.2,0.5c-0.3-0.1-0.4-0.2-0.6-0.9
			c-0.1-0.4-0.2-0.7-0.2-0.7s-0.1-0.1-0.3-0.1l-0.3-0.1l-0.3,0.3l-0.3,0.3l-0.2-0.2c-0.2-0.1-0.4-0.3-0.5-0.5l-0.3-0.3l0.2-0.7
			l3.1,1.1l3.1,1.1l-0.1,0.3C1019.6,432.7,1019.6,432.7,1019,432.8z M1025.5,432.7c-0.4,0.6-0.7,1.1-0.7,1.1c-0.1,0-0.3-0.1-0.4-0.1
			l-0.4-0.1l-0.9,1c-0.5,0.6-1,1.1-1,1.2l-0.1,0.1l-0.1-0.5l-0.1-0.5l1.1-3.2l-0.1,0c-0.2,0-1.7-0.3-2.3-0.5
			c-2.6-0.6-5.1-1.6-7.5-2.8c-0.4-0.2-0.7-0.4-0.7-0.4s-0.3,0.8-0.6,1.7l-0.5,1.7l-0.3,0.2c-0.2,0.1-0.3,0.2-0.3,0.2
			c0,0-0.1-0.2-0.2-0.8c-0.1-0.7-0.1-1.3,0-2l0-0.4l-0.4-0.1l-0.4-0.1l0.1-0.5c0-0.2,0.1-0.6,0.1-0.8l0.1-0.4l-0.2-0.4
			c-0.1-0.2-0.2-0.4-0.3-0.5c0-0.1,0-0.2,0-0.2l0-0.1l1.4,0.5l1.4,0.5l0,0.2l0,0.2l0.5,0.2c0.3,0.1,1.1,0.4,1.9,0.7l1.4,0.5l0.6-0.5
			l0.6-0.4l0.5,0.2l0.4-1.2l0.4-1.2l-0.5-0.5c-1.7-1.6-2.6-3.1-2.6-4.5c0-0.3,0-0.4,0.4-1.5c0.4-1.2,0.4-1.3,0.6-1.5
			c0.4-0.5,1-0.8,1.6-0.8c0.2,0,0.7,0.2,3.5,1.1l3.2,1.1l0.3,0.3c0.4,0.4,0.5,0.6,0.6,1c0.2,0.5,0.1,0.8-0.1,1.5
			c-0.3,1-0.7,1.9-0.9,2.2c-0.3,0.4-0.7,0.8-1.1,1.1c-0.8,0.5-2.1,0.9-3.2,0.9l-0.3,0l-0.4,1.2l-0.4,1.2l0.2,0.1l0.2,0.1l0.2,0.6
			l0.2,0.6l1.6,0.5c0.9,0.3,1.6,0.6,1.7,0.6c0.1,0.1,0.1,0.1,0.3-0.1l0.2-0.2l1.3,0.5c1,0.4,1.3,0.5,1.3,0.5
			C1026.3,431.6,1025.9,432.2,1025.5,432.7z"/>
		<path id="Path_8580_1_" class="st15" d="M988.6,406.1c-0.8-0.1-1.2-0.2-1.2-0.2"/>
		<path id="Path_8581_1_" class="st15" d="M1053.9,428.9c0,0-0.3-0.2-1-0.5"/>
		<path id="Path_8582_1_" class="st16" d="M1053.1,427.5c0.2-0.5,0.4-1.3,0.4-1.6c1.3-5.4,1.4-10.2,0.5-15.6c0-0.2-0.1-0.4-0.1-0.6
			c0,0,0-0.1,0-0.1l0,0c0.7-1,3.7-5,6.7-9.7c4-6.4,7.8-14.3,5.6-17.8c0,0-5.2-2.2-14.7,2.3c-2.6,1.3-5.1,2.8-7.4,4.4l-0.4-0.3
			c-2.5-1.9-5.3-3.5-8.3-4.8c-0.9-0.4-4.2-1.5-5.4-1.8c-3.4-0.9-6.1-1.3-9.4-1.3c-0.1,0-0.2,0-0.4,0c-0.9-2.8-2-5.5-3.3-8.1
			c-5-9.6-10.7-11.1-10.7-11.1c-4.1,1.4-6,10.3-6.8,18.1c-0.5,5.2-0.6,9.8-0.6,11.5c-0.1,0.1-0.1,0.1-0.2,0.2
			c-4.6,4.5-7.8,9.3-10.1,14.8c3.2,0.6,11.7,3,15.6,11.8c0,0,7.9-9.5,19-5.6c11.1,3.8,9.7,15.5,9.7,15.5c9.5-3.5,17.3-0.6,20,0.6
			C1052.9,428.2,1053,427.8,1053.1,427.5z M1002.6,387.5c0,0-0.6-12.3,2.6-18.1l0,0c0.5-1,1.2-1.8,2-2.3c0,0,4.7,2.2,9.6,13.7
			c0,0-1.8,0.2-4.3,1.1c0,0,0,0,0,0C1009.7,382.8,1006,384.5,1002.6,387.5L1002.6,387.5z M1015.4,409.9c-0.1,0.1-0.5,0.1-0.9,0.1
			s-1.6-0.5-2.3-0.8c-2.3-1.2-4.7-2.8-6.3-4.4c-0.9-0.9-1.5-1.7-1.8-2.4l-0.2-0.4l0.1-0.5c0.2-0.8,0.6-2,0.9-2.4
			c0.2-0.3,0.4-0.6,0.7-0.9c0.1-0.1,0.1-0.1,0.5,0.1c0.5,0.2,0.9,0.4,1.5,0.9c1.3,0.9,3,2.7,5.1,5.2c1.7,2,2.3,2.9,2.6,4
			C1015.6,408.8,1015.6,409.7,1015.4,409.9z M1044,415.4c-0.1,0.2-0.8,0.5-1.5,0.8c-2,0.6-5.2,0.7-8.3,0.2c-1.8-0.3-3.4-0.8-3.8-1.2
			c-0.3-0.3-0.3-0.4,0-0.8c0.5-0.8,1.7-1.5,3.2-1.9c0.8-0.2,3.8-0.9,5.2-1.1c2.3-0.4,4.1-0.5,5.2-0.3c0.4,0.1,0.8,0.2,0.9,0.3
			c0.2,0.2,0.2,0.8,0,1.6C1044.8,413.4,1044.2,415.1,1044,415.4z M1049.1,394.4L1049.1,394.4c-1.4-2.2-2.6-3.5-2.6-3.5
			c10.7-6.2,15.6-5,15.6-5c0.3,0.9,0.3,1.9,0.1,3l0,0c-1,6.6-9,16-9,16C1052.5,401.2,1051.1,397.6,1049.1,394.4L1049.1,394.4z"/>
		<path id="Path_8583_1_" class="st15" d="M1044,388.8C1044,388.8,1044,388.8,1044,388.8"/>
		<path id="Path_8584_1_" class="st15" d="M1053.9,409.5c-0.1,0.1-0.2,0.2-0.2,0.2"/>
		<g id="Group_934_1_">
			<g id="Group_933_1_">
				<g id="Group_932_1_">
					<path id="Path_8585_1_" class="st17" d="M1062.2,388.9c-0.9-0.4-5.1-1.9-13.1,5.5l0,0c-1.4-2.2-2.6-3.5-2.6-3.5
						c10.7-6.2,15.6-5,15.6-5C1062.3,386.8,1062.4,387.8,1062.2,388.9z"/>
				</g>
				<path id="Path_8586_1_" class="st18" d="M1053.2,404.9c-0.7-3.7-2.1-7.3-4.1-10.5c8-7.4,12.2-5.9,13.1-5.5l0,0
					C1061.1,395.5,1053.2,404.9,1053.2,404.9z"/>
				<path id="Path_8587_1_" class="st18" d="M1062.3,389c-0.1,0-0.1-0.1-0.2-0.1L1062.3,389z"/>
			</g>
		</g>
		<path id="Path_8588_1_" class="st15" d="M1020.4,381.2c-0.1-0.2-0.1-0.4-0.2-0.6"/>
		<path id="Path_8589_1_" class="st15" d="M998.9,391.1c0,0.4,0,0.7,0,0.7"/>
		<g id="Group_937_1_">
			<g id="Group_936_1_">
				<g id="Group_935_1_">
					<path id="Path_8590_1_" class="st17" d="M1016.8,380.8c0,0-1.8,0.2-4.3,1.1c0,0,0,0,0,0c-1.9-10.8-6.3-12.3-7.3-12.5
						c0.5-1,1.2-1.8,2-2.3C1007.2,367.1,1012,369.2,1016.8,380.8z"/>
				</g>
				<path id="Path_8591_1_" class="st18" d="M1012.5,381.8c-2.8,0.9-6.5,2.6-9.9,5.6c0,0-0.6-12.3,2.6-18.1l0,0
					C1006.2,369.5,1010.6,371,1012.5,381.8z"/>
				<path id="Path_8592_1_" class="st18" d="M1005.2,369.3c-0.1,0-0.1,0-0.2,0L1005.2,369.3z"/>
			</g>
		</g>
		<path id="Path_8593_1_" class="st13" d="M1039.4,406.9c0,0-3.8-1-2.3-3.8c1.5-2.7,4.5-2.1,5.2-1.7c0.8,0.4,3.6,2.7,2.2,4.9
			s-2.1,1.5-2.6,1.4C1041.5,407.7,1039.4,406.9,1039.4,406.9z"/>
		<path id="Path_8594_1_" class="st13" d="M1012.1,397.5c0,0-3.8-1-2.3-3.8c1.5-2.7,4.5-2.1,5.2-1.7c0.8,0.4,3.6,2.7,2.2,4.9
			s-2.1,1.5-2.6,1.4C1014.2,398.3,1012.1,397.5,1012.1,397.5z"/>
	</g>
	<g>
		<g>
			<g>
				
					<radialGradient id="SVGID_16_" cx="294.471" cy="479.7703" r="12.8529" gradientTransform="matrix(0.8533 0.311 -7.753257e-02 0.2038 -139.2102 -28.3936)" gradientUnits="userSpaceOnUse">
					<stop  offset="0" style="stop-color:#525458"/>
					<stop  offset="1" style="stop-color:#2B2D31"/>
				</radialGradient>
				<path class="st26" d="M101.1,173.1l-51.6-18.2c0,0,1-0.1,2.5-0.1c1,0,2.2,0,3.3,0.2c0.3,0,0.5,0.1,0.7,0.1
					c3,0.6,10.3,3.9,19.4,7.1c9.2,3.2,18.3,5.6,20.6,6.8c0.2,0.1,0.4,0.2,0.5,0.3c1.2,0.7,2,1.3,2.7,1.9
					C100.6,172.3,101.1,173.1,101.1,173.1z"/>
				<path class="st20" d="M96.5,169.4c-1.8-0.6-4.5-1.4-7.5-2.3c-4.1-1.2-9.2-2.7-14.1-4.4c-5.3-1.8-9.9-3.7-13.6-5.2
					c-2.5-1-4.5-1.8-6.1-2.4c-1.2-0.2-2.3-0.2-3.3-0.2c0.4,0.1,0.8,0.1,1.2,0.2c1.6,0.4,4.4,1.5,8,3c3.7,1.5,8.3,3.4,13.6,5.2
					c5,1.7,10.1,3.2,14.2,4.4c4.6,1.4,8.2,2.4,9.6,3.1c0.3,0.2,0.6,0.3,0.8,0.5C98.6,170.7,97.7,170,96.5,169.4z"/>
			</g>
			<g>
				
					<linearGradient id="SVGID_17_" gradientUnits="userSpaceOnUse" x1="290.1936" y1="438.5734" x2="290.1936" y2="405.6296" gradientTransform="matrix(0.9456 0.3252 -0.3252 0.9456 -64.3257 -323.6375)">
					<stop  offset="0" style="stop-color:#2C2E32"/>
					<stop  offset="8.428930e-02" style="stop-color:#55575B"/>
					<stop  offset="0.3288" style="stop-color:#2A2C30"/>
					<stop  offset="0.521" style="stop-color:#54565A"/>
					<stop  offset="1" style="stop-color:#26252B"/>
				</linearGradient>
				<path class="st27" d="M102,178.8c0.7-5.9-1.3-7.4-8.7-9.5c-3.4-1-7.5-2.2-10.9-3.2c-5-1.5-9.9-3.2-14.7-5.1
					c-3.4-1.3-7.4-2.9-10.6-4.2C50,154,47.4,154,44.3,159c-3.1,5.1-5.8,14.9-1.6,17.2c4.2,2.3,13.9,5.3,20,7.2
					c3.3,1,6.5,2.1,9.7,3.3c6,2.3,16.7,6.3,20.2,6.7C97.4,193.8,101.3,184.7,102,178.8z"/>
				
					<radialGradient id="SVGID_18_" cx="295.2655" cy="500.1596" r="25.1402" gradientTransform="matrix(0.8589 0.2954 -0.4278 1.2437 31.3554 -534.9381)" gradientUnits="userSpaceOnUse">
					<stop  offset="0" style="stop-color:#3FB6FF"/>
					<stop  offset="9.795301e-02" style="stop-color:#3EB1F8"/>
					<stop  offset="0.2456" style="stop-color:#3BA3E3"/>
					<stop  offset="0.4245" style="stop-color:#378CC1"/>
					<stop  offset="0.6278" style="stop-color:#316C92"/>
					<stop  offset="0.8489" style="stop-color:#294356"/>
					<stop  offset="1" style="stop-color:#24252A"/>
				</radialGradient>
				<path class="st28" d="M84.4,189.6c-4-1.4-8.3-3-11.4-4.2c-1.6-0.6-3.3-1.2-4.9-1.8c-1.6-0.6-3.3-1.1-5-1.6l-0.5-0.2
					c-3.1-1-7-2.2-10.6-3.4c-4-1.4-6.8-2.5-8.5-3.4c-0.9-0.5-1.5-2.5-1-6c0.5-3,1.8-6.7,3.4-9.2c2.4-3.9,3.8-4.1,7.9-2.7
					c0.7,0.2,1.6,0.6,2.6,1c2.7,1.1,6.3,2.5,10.6,4.2c2.4,0.9,4.9,1.9,7.4,2.7c2.5,0.9,5,1.7,7.5,2.4c4.4,1.3,8.1,2.4,11,3.2
					c1,0.3,1.9,0.6,2.6,0.8c4.1,1.4,5.1,2.4,4.6,7c-0.3,3-1.5,6.6-3,9.2c-1.8,3.3-3.6,4.3-4.6,4.2C91.6,191.8,89.5,191.4,84.4,189.6
					C84.4,189.6,84.4,189.6,84.4,189.6z"/>
				
					<radialGradient id="SVGID_19_" cx="301.9118" cy="483.6656" r="37.5126" gradientTransform="matrix(0.8589 0.2954 -0.2218 0.6449 -71.6545 -235.4417)" gradientUnits="userSpaceOnUse">
					<stop  offset="0" style="stop-color:#525458"/>
					<stop  offset="1" style="stop-color:#2B2D31"/>
				</radialGradient>
				<path class="st29" d="M84.6,189.2c-4-1.4-8.3-3-11.4-4.2c-1.6-0.6-3.3-1.2-4.9-1.8s-3.3-1.1-5-1.6l-0.5-0.2
					c-3.1-1-7-2.2-10.5-3.4c-3.9-1.4-6.8-2.5-8.4-3.4c-0.6-0.3-1.2-2.1-0.7-5.5c0.5-3,1.8-6.6,3.3-9.1c2.3-3.8,3.5-3.8,7.3-2.5
					c0.7,0.2,1.5,0.6,2.5,1c2.7,1.1,6.3,2.5,10.7,4.2c2.4,0.9,4.9,1.9,7.4,2.7c2.5,0.9,5,1.7,7.5,2.4c4.4,1.3,8.1,2.4,11,3.2
					c1,0.3,1.9,0.6,2.6,0.8c3.8,1.3,4.7,2.1,4.2,6.5c-0.3,2.9-1.5,6.5-3,9.1c-1.7,3.1-3.4,4.1-4.2,4
					C91.8,191.5,89.9,191.1,84.6,189.2z"/>
				
					<radialGradient id="SVGID_20_" cx="308.0913" cy="1043.9431" r="17.5613" gradientTransform="matrix(0.817 0.2886 -1.341017e-02 3.720671e-02 -163.6447 37.207)" gradientUnits="userSpaceOnUse">
					<stop  offset="0.1947" style="stop-color:#3FACFF"/>
					<stop  offset="0.2658" style="stop-color:#3591D7"/>
					<stop  offset="0.41" style="stop-color:#225E8C"/>
					<stop  offset="0.5389" style="stop-color:#143650"/>
					<stop  offset="0.6478" style="stop-color:#091924"/>
					<stop  offset="0.7324" style="stop-color:#02070A"/>
					<stop  offset="0.7824" style="stop-color:#000000"/>
				</radialGradient>
				<path class="st30" d="M88.4,170c-0.2,0.7-6.9-1.1-14.8-3.9c-7.9-2.8-14.2-5.6-14-6.3c0.2-0.7,6.9,1.1,14.8,3.9
					C82.4,166.5,88.6,169.3,88.4,170z"/>
				
					<radialGradient id="SVGID_21_" cx="308.4147" cy="1094.8961" r="17.5613" gradientTransform="matrix(0.817 0.2886 -1.341017e-02 3.720671e-02 -169.5977 53.7235)" gradientUnits="userSpaceOnUse">
					<stop  offset="0.1946" style="stop-color:#3FACFF"/>
					<stop  offset="0.2657" style="stop-color:#3591D7"/>
					<stop  offset="0.4099" style="stop-color:#225E8C"/>
					<stop  offset="0.5389" style="stop-color:#143650"/>
					<stop  offset="0.6478" style="stop-color:#091924"/>
					<stop  offset="0.7324" style="stop-color:#02070A"/>
					<stop  offset="0.7824" style="stop-color:#000000"/>
				</radialGradient>
				<path class="st31" d="M82,188.5c-0.2,0.7-6.9-1.1-14.8-3.9c-7.9-2.8-14.2-5.6-14-6.3c0.2-0.7,6.9,1.1,14.8,3.9
					C76,185,82.2,187.8,82,188.5z"/>
			</g>
		</g>
	</g>
</g>
<g>
	<g id="Group_938_2_" transform="translate(-953.348 -232.003)">
		<g id="Group_931_2_">
			<path id="Path_8573_2_" class="st14" d="M1334.9,426.3c-0.4,2.1-0.6,4.3-0.7,6.5l-0.4,0.1c-2.3,0.7-4.5,1.6-6.6,2.8
				c-0.6,0.4-2.8,1.9-3.5,2.4c-2.1,1.6-3.5,3.1-5,5.1c-0.1,0.1-0.1,0.2-0.2,0.2c-2.1-0.7-4.2-1.3-6.4-1.7
				c4.1-7.5,11.3-12.9,19.6-14.9c0.9-0.2,1.8-0.4,2.7-0.5L1334.9,426.3z"/>
			<path id="Path_8574_2_" class="st14" d="M1366.3,447.1c0.9,3.4,1.2,6.9,0.8,10.4c-0.2,1.9-0.6,3.7-1.1,5.5
				c-1.3,4.2-3.5,8-6.4,11.3c-3.2,3.6-7.3,6.3-11.8,8c-4.1,1.5-8.5,2.1-12.8,1.8c-1.9-0.2-3.7-0.5-5.6-1c-9.7-2.7-17.2-10.3-19.8-20
				c-0.5-1.8-0.8-3.6-0.9-5.5c-0.1-0.9-0.1-1.8-0.1-2.3c2.9,2.6,5.6,4.8,6.7,5.6c0,0.1,0,0.2,0,0.2c0.7,4.8,2.1,8.9,4.3,12.8
				c0,0,0.1,0.1,0.1,0.1c0.7,1.1,1.1,1.7,1.7,2.2c2,1.8,5.4,3,9.8,3.5c7.1,0.8,15.1-0.6,20-3.5c5.1-3,10.3-10.6,12.2-18
				c0.3-1.2,0.5-2.3,0.7-3.5c0.1-0.9,0.2-2.3,0.1-2.3c0,0,0,0,0-0.1c0,0,0-0.1,0-0.1c0,0,0,0,0-0.1c0,0,0,0,0-0.1c0,0,0,0,0-0.1
				c0,0,0-0.1,0-0.1s0,0,0,0s0,0,0-0.1c0,0,0,0,0-0.1s0,0,0-0.1c0-0.1,0-0.2,0-0.2c0-0.3-0.1-1.4-0.1-1.6c-0.2-1.3-0.6-2.3-1-3.3
				c-0.2-0.5-0.7-1.3-0.9-1.4c0,0-0.1-0.1-0.1-0.2c-0.1-0.1-0.3-0.4-0.5-0.6c-0.2-0.3-0.6-0.8-0.8-1c-2.7-3.2-5.5-5.5-9.2-7.3
				c-0.1-0.1-0.3-0.1-0.4-0.2c0,0-0.1,0-0.1,0l0,0c-0.2-0.9-1.3-4.5-2.8-8.4l0,0l0.2,0.1c0.4,0.1,1.4,0.6,1.9,0.8
				c2.3,1,4.4,2.3,6.3,3.9C1361.5,436.3,1364.8,441.4,1366.3,447.1z"/>
			<path id="Path_8575_2_" d="M1350.2,444.8c0.1,0.1,0,0.7-0.2,1.3c-0.5,1.5-1.9,3.5-3.6,5.1c-1,0.9-2,1.7-2.5,1.8
				c-0.3,0-0.4,0-0.5-0.4c-0.2-0.7-0.1-1.7,0.3-2.8c0.2-0.6,1.2-2.7,1.7-3.7c0.8-1.6,1.6-2.7,2.2-3.3c0.2-0.2,0.5-0.4,0.6-0.4
				c0.2,0,0.6,0.3,1,0.7C1349.4,443.4,1350.1,444.5,1350.2,444.8z"/>
			<path id="Path_8576_2_" d="M1334,459.5c0,0.1-0.1,0.4-0.4,0.6s-1,0.7-1.5,1c-1.8,0.9-3.8,1.6-5.5,1.8c-0.9,0.1-1.7,0.1-2.3,0
				l-0.4-0.1l-0.2-0.3c-0.4-0.5-0.9-1.3-1-1.6c-0.1-0.3-0.2-0.5-0.2-0.8c0-0.1,0-0.1,0.3-0.3c0.3-0.2,0.7-0.4,1.2-0.5
				c1.1-0.3,3-0.6,5.4-0.7c2-0.1,2.8-0.1,3.6,0.2C1333.5,458.9,1334,459.3,1334,459.5z"/>
			<path id="Path_8577_2_" d="M1352,462.8c0,0,0.2,0.5,0.4,1c0.2,0.5,0.3,0.9,0.3,0.9c-0.1,0.1-0.1,0.1-0.2,0.2l-0.2,0.2l0.2,1
				c0.1,0.6,0.2,1.1,0.2,1.2l0,0.1l-0.3-0.2l-0.3-0.2l-1.4-2.1l-0.1,0.1c-0.1,0.1-0.9,0.9-1.3,1.2c-1.6,1.3-3.3,2.4-5.1,3.3
				c-0.3,0.1-0.5,0.3-0.5,0.3s0.3,0.5,0.8,1.1l0.8,1.1l0,0.3c0,0.2,0,0.3,0,0.3c0,0-0.2,0-0.6-0.3c-0.4-0.2-0.8-0.5-1.2-0.9
				l-0.2-0.2l-0.2,0.2l-0.2,0.2l-0.3-0.2c-0.1-0.1-0.3-0.3-0.4-0.5l-0.2-0.2l-0.3,0c-0.2,0-0.4,0-0.4,0c-0.1,0-0.1,0-0.1-0.1
				l-0.1-0.1l1-0.6l1-0.6l0.1,0.1l0.1,0.1l0.3-0.2c0.2-0.1,0.8-0.5,1.3-0.8l1-0.6l0-0.5l0-0.6l0.3-0.2l-0.5-0.8l-0.5-0.8l-0.5,0.1
				c-1.8,0.3-3,0.2-3.9-0.4c-0.2-0.1-0.2-0.2-0.7-0.9c-0.5-0.7-0.6-0.8-0.6-1c-0.2-0.5-0.1-1,0.3-1.3c0.1-0.1,0.4-0.4,2.2-1.6
				l2.1-1.4l0.3,0c0.4-0.1,0.6,0,0.9,0.1c0.3,0.1,0.5,0.3,0.8,0.7c0.5,0.7,0.8,1.3,0.9,1.5c0.1,0.4,0.2,0.8,0.2,1.2
				c0,0.7-0.4,1.7-0.9,2.4l-0.1,0.2l0.6,0.8l0.6,0.8l0.2-0.1l0.2-0.1l0.5,0.2l0.5,0.2l1-0.7c0.6-0.4,1.1-0.7,1.1-0.7
				c0.1,0,0.1-0.1,0.1-0.2l0-0.2l0.9-0.6C1351.8,462.9,1352,462.7,1352,462.8z"/>
			<path id="Path_8578_2_" d="M1349.5,467.7c-0.1,0.2-0.2,0.3-0.2,0.3c0,0-0.2,0-0.4,0l-0.3,0l-0.1,0.4c-0.1,0.8-0.1,0.9-0.3,1
				c-0.2,0.2-0.3,0.2-0.8-0.1c-0.3-0.1-0.5-0.2-0.5-0.2s-0.1,0.1-0.2,0.1l-0.2,0.1l0,0.3l0,0.3l-0.2,0.1c-0.2,0-0.3,0.1-0.5,0.1
				l-0.3,0l-0.3-0.4l2-1.4l2-1.4l0.1,0.2C1349.7,467.3,1349.7,467.3,1349.5,467.7z"/>
		</g>
		<path id="Path_8579_2_" class="st13" d="M1362.2,445.4c0,0-0.1-0.1-0.1-0.2c-2,1-7.3,4.5-9.4,11.8c0,0-6.4-6.1-13.7-1.1
			s-5.2,14-5.2,14c-7.1-1.6-12.4,2.4-14.1,4.1c0,0,0.1,0.1,0.1,0.1c0.7,1.1,1.1,1.7,1.7,2.2c2,1.8,5.4,3,9.8,3.5
			c7.1,0.8,15.1-0.6,20-3.5c5.1-3,10.3-10.6,12.2-18c0.3-1.2,0.5-2.3,0.7-3.5c0.1-0.9,0.2-2.3,0.1-2.3c0,0,0,0,0-0.1
			c0,0,0-0.1,0-0.1c0,0,0,0,0-0.1c0,0,0,0,0-0.1c0,0,0,0,0-0.1c0,0,0-0.1,0-0.1c0,0,0,0,0,0c0,0,0,0,0-0.1s0,0,0-0.1s0,0,0-0.1
			c0-0.1,0-0.2,0-0.2c0-0.3-0.1-1.4-0.1-1.6c-0.2-1.3-0.6-2.3-1-3.3C1362.8,446.4,1362.4,445.6,1362.2,445.4z M1349.5,467.7
			c-0.1,0.2-0.2,0.3-0.2,0.3c0,0-0.2,0-0.4,0l-0.3,0l-0.1,0.4c-0.1,0.8-0.1,0.9-0.3,1c-0.2,0.2-0.3,0.2-0.8-0.1
			c-0.3-0.1-0.5-0.2-0.5-0.2s-0.1,0.1-0.2,0.1l-0.2,0.1l0,0.3l0,0.3l-0.2,0.1c-0.2,0-0.3,0.1-0.5,0.1l-0.3,0l-0.3-0.4l2-1.4l2-1.4
			l0.1,0.2C1349.7,467.3,1349.7,467.3,1349.5,467.7z M1352.3,463.7c0.2,0.5,0.3,0.9,0.3,0.9c-0.1,0.1-0.1,0.1-0.2,0.2l-0.2,0.2
			l0.2,1c0.1,0.6,0.2,1.1,0.2,1.2l0,0.1l-0.3-0.2l-0.3-0.2l-1.4-2.1l-0.1,0.1c-0.1,0.1-0.9,0.9-1.3,1.2c-1.6,1.3-3.3,2.4-5.1,3.3
			c-0.3,0.1-0.5,0.3-0.5,0.3s0.3,0.5,0.8,1.1l0.8,1.1l0,0.3c0,0.2,0,0.3,0,0.3c0,0-0.2,0-0.6-0.3c-0.4-0.2-0.8-0.5-1.2-0.9l-0.2-0.2
			l-0.2,0.2l-0.2,0.2l-0.3-0.2c-0.1-0.1-0.3-0.3-0.4-0.5l-0.2-0.2l-0.3,0c-0.2,0-0.4,0-0.4,0c-0.1,0-0.1,0-0.1-0.1l-0.1-0.1l1-0.6
			l1-0.6l0.1,0.1l0.1,0.1l0.3-0.2c0.2-0.1,0.8-0.5,1.3-0.8l1-0.6l0-0.5l0-0.6l0.3-0.2l-0.5-0.8l-0.5-0.8l-0.5,0.1
			c-1.8,0.3-3,0.2-3.9-0.4c-0.2-0.1-0.2-0.2-0.7-0.9c-0.5-0.7-0.6-0.8-0.6-1c-0.2-0.5-0.1-1,0.3-1.3c0.1-0.1,0.4-0.4,2.2-1.6
			l2.1-1.4l0.3,0c0.4-0.1,0.6,0,0.9,0.1c0.3,0.1,0.5,0.3,0.8,0.7c0.5,0.7,0.8,1.3,0.9,1.5c0.1,0.4,0.2,0.8,0.2,1.2
			c0,0.7-0.4,1.7-0.9,2.4l-0.1,0.2l0.6,0.8l0.6,0.8l0.2-0.1l0.2-0.1l0.5,0.2l0.5,0.2l1-0.7c0.6-0.4,1.1-0.7,1.1-0.7
			c0.1,0,0.1-0.1,0.1-0.2l0-0.2l0.9-0.6c0.7-0.5,0.9-0.6,0.9-0.6C1352,462.8,1352.2,463.2,1352.3,463.7z"/>
		<path id="Path_8580_2_" class="st15" d="M1319.6,474c-0.4,0.4-0.7,0.7-0.7,0.7"/>
		<path id="Path_8581_2_" class="st15" d="M1362.8,444.9c0,0-0.3,0.1-0.7,0.4"/>
		<path id="Path_8582_2_" class="st16" d="M1361.6,444.7c-0.2-0.3-0.6-0.8-0.8-1c-2.7-3.2-5.5-5.5-9.2-7.3c-0.1-0.1-0.3-0.1-0.4-0.2
			c0,0-0.1,0-0.1,0l0,0c-0.2-0.9-1.3-4.5-2.8-8.4c-2.1-5.3-5.1-11.1-8.2-11.4c0,0-3.7,2.1-5.2,9.9c-0.4,2.1-0.6,4.3-0.7,6.5
			l-0.4,0.1c-2.3,0.7-4.5,1.6-6.6,2.8c-0.6,0.4-2.8,1.9-3.5,2.4c-2.1,1.6-3.5,3.1-5,5.1c-0.1,0.1-0.1,0.2-0.2,0.2
			c-2.1-0.7-4.2-1.3-6.4-1.7c-8-1.3-11.5,1.4-11.5,1.4c-1,3.1,3.5,8.3,7.9,12.3c2.9,2.6,5.6,4.8,6.7,5.6c0,0.1,0,0.2,0,0.2
			c0.7,4.8,2.1,8.9,4.3,12.8c1.8-1.6,7-5.7,14.2-4.1c0,0-2.2-9,5.2-14c7.3-5,13.7,1.1,13.7,1.1c2.1-7.3,7.4-10.7,9.4-11.8
			C1362,445.1,1361.8,444.9,1361.6,444.7z M1314.7,457.1c0,0-7.7-5.2-9.7-9.8l0,0c-0.3-0.8-0.5-1.5-0.5-2.2c0,0,3.4-1.9,12.6,0.4
			c0,0-0.7,1.2-1.3,3.1c0,0,0,0,0,0C1315.1,450.7,1314.5,453.7,1314.7,457.1L1314.7,457.1z M1334,459.5c0,0.1-0.1,0.4-0.4,0.6
			s-1,0.7-1.5,1c-1.8,0.9-3.8,1.6-5.5,1.8c-0.9,0.1-1.7,0.1-2.3,0l-0.4-0.1l-0.2-0.3c-0.4-0.5-0.9-1.3-1-1.6
			c-0.1-0.3-0.2-0.5-0.2-0.8c0-0.1,0-0.1,0.3-0.3c0.3-0.2,0.7-0.4,1.2-0.5c1.1-0.3,3-0.6,5.4-0.7c2-0.1,2.8-0.1,3.6,0.2
			C1333.5,458.9,1334,459.3,1334,459.5z M1350.2,444.8c0.1,0.1,0,0.7-0.2,1.3c-0.5,1.5-1.9,3.5-3.6,5.1c-1,0.9-2,1.7-2.5,1.8
			c-0.3,0-0.4,0-0.5-0.4c-0.2-0.7-0.1-1.7,0.3-2.8c0.2-0.6,1.2-2.7,1.7-3.7c0.8-1.6,1.6-2.7,2.2-3.3c0.2-0.2,0.5-0.4,0.6-0.4
			c0.2,0,0.6,0.3,1,0.7C1349.4,443.4,1350.1,444.5,1350.2,444.8z M1339.9,432.2L1339.9,432.2c-2-0.1-3.3,0-3.3,0
			c1.1-9.2,4-11.6,4-11.6c0.7,0.2,1.3,0.7,1.9,1.3l0,0c3.5,3.6,5.6,12.6,5.6,12.6C1345.5,433.2,1342.7,432.4,1339.9,432.2
			L1339.9,432.2z"/>
		<path id="Path_8583_2_" class="st15" d="M1334.2,432.7C1334.2,432.8,1334.2,432.8,1334.2,432.7"/>
		<path id="Path_8584_2_" class="st15" d="M1351.2,436.1c0,0.1,0.1,0.2,0.1,0.2"/>
		<g id="Group_934_2_">
			<g id="Group_933_2_">
				<g id="Group_932_2_">
					<path id="Path_8585_2_" class="st17" d="M1342.5,421.9c-0.6,0.3-3.5,2.2-2.6,10.4l0,0c-2-0.2-3.3,0-3.3,0
						c1.1-9.2,4-11.6,4-11.6C1341.3,420.8,1341.9,421.3,1342.5,421.9z"/>
				</g>
				<path id="Path_8586_2_" class="st18" d="M1348.1,434.5c-2.6-1.3-5.3-2-8.2-2.2c-0.9-8.1,1.9-10,2.6-10.4l0,0
					C1346,425.5,1348.1,434.5,1348.1,434.5z"/>
				<path id="Path_8587_2_" class="st18" d="M1342.6,421.8c0,0-0.1,0-0.1,0.1L1342.6,421.8z"/>
			</g>
		</g>
		<path id="Path_8588_2_" class="st15" d="M1319,443.5c-0.1-0.1-0.3-0.1-0.5-0.2"/>
		<path id="Path_8589_2_" class="st15" d="M1315.2,461c0.3,0.2,0.4,0.3,0.4,0.3"/>
		<g id="Group_937_2_">
			<g id="Group_936_2_">
				<g id="Group_935_2_">
					<path id="Path_8590_2_" class="st17" d="M1317.1,445.5c0,0-0.7,1.2-1.3,3.1c0,0,0,0,0,0c-7.4-3.7-10.2-1.7-10.8-1.2
						c-0.3-0.8-0.5-1.5-0.5-2.2C1304.5,445.1,1308,443.3,1317.1,445.5z"/>
				</g>
				<path id="Path_8591_2_" class="st18" d="M1315.8,448.6c-0.7,2.1-1.3,5.1-1.1,8.5c0,0-7.7-5.2-9.7-9.8l0,0
					C1305.6,446.9,1308.5,444.9,1315.8,448.6z"/>
				<path id="Path_8592_2_" class="st18" d="M1305,447.4c0,0-0.1,0.1-0.1,0.1L1305,447.4z"/>
			</g>
		</g>
		<path id="Path_8593_2_" class="st13" d="M1343,443.7c0,0-2.3,1.8-3.3-0.3s0.8-3.6,1.3-3.9s3.2-1,3.9,0.9c0.7,1.9,0,1.9-0.3,2.2
			C1344.5,442.8,1343,443.7,1343,443.7z"/>
		<path id="Path_8594_2_" class="st13" d="M1325.1,455.9c0,0-2.3,1.8-3.3-0.3s0.8-3.6,1.3-3.9s3.2-1,3.9,0.9c0.7,1.9,0,1.9-0.3,2.2
			C1326.5,455,1325.1,455.9,1325.1,455.9z"/>
	</g>
	<g>
		<g>
			<g>
				
					<radialGradient id="SVGID_22_" cx="634.4533" cy="400.2874" r="9.6703" gradientTransform="matrix(0.7603 -0.4967 0.1166 0.1842 -152.8463 453.5417)" gradientUnits="userSpaceOnUse">
					<stop  offset="0" style="stop-color:#525458"/>
					<stop  offset="1" style="stop-color:#2B2D31"/>
				</radialGradient>
				<path class="st32" d="M395.4,201.9l-34.3,22.9c0,0,0.4-0.7,1-1.5c0.4-0.6,1-1.3,1.6-1.9c0.1-0.1,0.3-0.3,0.4-0.4
					c1.7-1.5,7-4.4,13-8.5c6-4.1,11.6-8.5,13.4-9.3c0.1-0.1,0.3-0.1,0.4-0.2c0.9-0.4,1.7-0.6,2.3-0.8
					C394.7,201.8,395.4,201.9,395.4,201.9z"/>
				<path class="st20" d="M391.1,202.9c-1.2,0.8-2.9,2.1-4.8,3.5c-2.6,1.9-5.8,4.3-9,6.5c-3.5,2.4-6.7,4.3-9.3,5.8
					c-1.7,1-3.1,1.9-4.2,2.6c-0.6,0.6-1.2,1.3-1.6,1.9c0.2-0.2,0.4-0.4,0.6-0.6c0.9-0.8,2.9-2,5.4-3.5c2.6-1.6,5.8-3.5,9.3-5.9
					c3.3-2.2,6.5-4.6,9.1-6.5c2.9-2.2,5.2-3.9,6.2-4.3c0.2-0.1,0.4-0.2,0.7-0.3C392.8,202.2,392,202.5,391.1,202.9z"/>
			</g>
			<g>
				
					<linearGradient id="SVGID_23_" gradientUnits="userSpaceOnUse" x1="598.7529" y1="378.0284" x2="598.7529" y2="353.2422" gradientTransform="matrix(0.8271 -0.5621 0.5621 0.8271 -320.0293 251.5446)">
					<stop  offset="0" style="stop-color:#2C2E32"/>
					<stop  offset="8.428930e-02" style="stop-color:#55575B"/>
					<stop  offset="0.3288" style="stop-color:#2A2C30"/>
					<stop  offset="0.521" style="stop-color:#54565A"/>
					<stop  offset="1" style="stop-color:#26252B"/>
				</linearGradient>
				<path class="st33" d="M399.2,203.9c-3.2-3.1-5.1-2.6-9.7,0.9c-2.1,1.6-4.7,3.5-6.9,5.1c-3.1,2.3-6.4,4.5-9.7,6.6
					c-2.3,1.4-5.1,3.1-7.3,4.5c-4.9,3-6.1,4.5-4.4,8.6c1.7,4.1,6.4,10.2,9.7,8.7c3.3-1.5,9.4-6,13.3-8.8c2.1-1.5,4.2-3,6.4-4.4
					c4.1-2.6,11.3-7.2,13.1-9.1C406.2,213.4,402.5,207,399.2,203.9z"/>
				
					<radialGradient id="SVGID_24_" cx="635.0511" cy="415.6278" r="18.915" gradientTransform="matrix(0.7512 -0.5105 0.7392 1.0878 -401.7462 92.5863)" gradientUnits="userSpaceOnUse">
					<stop  offset="0" style="stop-color:#3FB6FF"/>
					<stop  offset="9.795301e-02" style="stop-color:#3EB1F8"/>
					<stop  offset="0.2456" style="stop-color:#3BA3E3"/>
					<stop  offset="0.4245" style="stop-color:#378CC1"/>
					<stop  offset="0.6278" style="stop-color:#316C92"/>
					<stop  offset="0.8489" style="stop-color:#294356"/>
					<stop  offset="1" style="stop-color:#24252A"/>
				</radialGradient>
				<path class="st34" d="M397.8,219.3c-2.6,1.8-5.5,3.6-7.7,5c-1.1,0.7-2.2,1.4-3.3,2.2c-1.1,0.7-2.2,1.5-3.2,2.3l-0.3,0.2
					c-2,1.4-4.4,3.2-6.8,4.8c-2.6,1.8-4.6,3-5.9,3.6c-0.7,0.3-2.2-0.2-4-2.1c-1.6-1.7-3.2-4.1-4-6.2c-1.3-3.2-0.7-4.1,1.9-6
					c0.5-0.3,1-0.7,1.8-1.1c1.9-1.2,4.4-2.7,7.3-4.5c1.7-1,3.3-2.1,5-3.2c1.6-1.1,3.3-2.3,4.8-3.4c2.8-2.1,5.1-3.8,6.9-5.2
					c0.7-0.5,1.2-0.9,1.7-1.2c2.7-1.8,3.8-2,6.3,0.4c1.6,1.5,3.3,3.9,4.2,6c1.1,2.6,1,4.1,0.5,4.7C402.4,216,401.2,217,397.8,219.3
					C397.8,219.3,397.8,219.3,397.8,219.3z"/>
				
					<radialGradient id="SVGID_25_" cx="640.0516" cy="403.2181" r="28.2238" gradientTransform="matrix(0.7512 -0.5105 0.3833 0.564 -253.8205 310.2695)" gradientUnits="userSpaceOnUse">
					<stop  offset="0" style="stop-color:#525458"/>
					<stop  offset="1" style="stop-color:#2B2D31"/>
				</radialGradient>
				<path class="st35" d="M397.7,219.1c-2.6,1.8-5.5,3.6-7.7,5c-1.1,0.7-2.2,1.4-3.3,2.2s-2.2,1.5-3.2,2.3l-0.3,0.2
					c-2,1.4-4.4,3.2-6.8,4.8c-2.6,1.8-4.6,2.9-5.8,3.5c-0.4,0.2-1.8-0.2-3.7-2.1c-1.6-1.6-3.2-4-4-6.1c-1.2-3.1-0.7-3.8,1.8-5.5
					c0.5-0.3,1-0.7,1.7-1.1c1.9-1.2,4.4-2.7,7.3-4.5c1.7-1,3.4-2.1,5-3.2c1.6-1.1,3.3-2.3,4.9-3.4c2.8-2.1,5.1-3.8,6.9-5.2
					c0.6-0.5,1.2-0.9,1.7-1.2c2.5-1.7,3.4-1.9,5.8,0.4c1.6,1.5,3.2,3.8,4.1,5.9c1.1,2.4,0.9,3.9,0.6,4.3
					C402.3,215.7,401.2,216.7,397.7,219.1z"/>
				
					<radialGradient id="SVGID_26_" cx="663.3687" cy="893.5781" r="13.2128" gradientTransform="matrix(0.7206 -0.481 2.174701e-02 3.303391e-02 -119.1855 504.0391)" gradientUnits="userSpaceOnUse">
					<stop  offset="0.1947" style="stop-color:#3FACFF"/>
					<stop  offset="0.2658" style="stop-color:#3591D7"/>
					<stop  offset="0.41" style="stop-color:#225E8C"/>
					<stop  offset="0.5389" style="stop-color:#143650"/>
					<stop  offset="0.6478" style="stop-color:#091924"/>
					<stop  offset="0.7324" style="stop-color:#02070A"/>
					<stop  offset="0.7824" style="stop-color:#000000"/>
				</radialGradient>
				<path class="st36" d="M387.8,208.1c0.3,0.4-3.8,3.6-9,7.2c-5.3,3.5-9.8,6-10.1,5.6c-0.3-0.4,3.8-3.6,9-7.2
					C383,210.2,387.5,207.7,387.8,208.1z"/>
				
					<radialGradient id="SVGID_27_" cx="663.612" cy="931.9141" r="13.2128" gradientTransform="matrix(0.7206 -0.481 2.174701e-02 3.303391e-02 -111.9222 515.0722)" gradientUnits="userSpaceOnUse">
					<stop  offset="0.1946" style="stop-color:#3FACFF"/>
					<stop  offset="0.2657" style="stop-color:#3591D7"/>
					<stop  offset="0.4099" style="stop-color:#225E8C"/>
					<stop  offset="0.5389" style="stop-color:#143650"/>
					<stop  offset="0.6478" style="stop-color:#091924"/>
					<stop  offset="0.7324" style="stop-color:#02070A"/>
					<stop  offset="0.7824" style="stop-color:#000000"/>
				</radialGradient>
				<path class="st37" d="M396.1,220.3c0.3,0.4-3.8,3.6-9,7.2c-5.3,3.5-9.8,6-10.1,5.6c-0.3-0.4,3.8-3.6,9-7.2
					S395.8,219.8,396.1,220.3z"/>
			</g>
		</g>
	</g>
</g>
<g>
	<g id="Group_938_3_" transform="translate(-953.348 -232.003)">
		<g id="Group_931_3_">
			<path id="Path_8573_3_" class="st14" d="M1377.7,522.5c-1,0.5-2,1.1-3,1.8l-0.2-0.1c-1-0.8-2.1-1.4-3.3-1.9
				c-0.4-0.2-1.7-0.6-2.1-0.7c-1.4-0.4-2.4-0.5-3.7-0.5c-0.1,0-0.1,0-0.1,0c-0.3-1.1-0.8-2.2-1.3-3.2c4.5-0.6,9.1,0.7,12.6,3.6
				c0.4,0.3,0.7,0.6,1.1,1L1377.7,522.5z"/>
			<path id="Path_8574_3_" class="st14" d="M1378.8,542.4c-1.2,1.5-2.6,2.7-4.1,3.6c-0.9,0.5-1.8,0.9-2.7,1.3
				c-2.2,0.8-4.5,1.1-6.8,0.9c-2.6-0.2-5-1.1-7.2-2.5c-2-1.3-3.6-2.9-4.8-4.9c-0.5-0.9-1-1.7-1.3-2.7c-1.9-5-1.1-10.6,2.2-14.8
				c0.6-0.8,1.3-1.5,2.1-2.1c0.3-0.3,0.8-0.6,0.9-0.7c-0.2,2.1-0.2,3.9-0.2,4.6c0,0-0.1,0.1-0.1,0.1c-1.8,1.8-3.1,3.7-4,5.9
				c0,0,0,0.1,0,0.1c-0.3,0.7-0.4,1-0.4,1.4c-0.1,1.4,0.5,3.3,1.6,5.3c1.9,3.3,5.1,6.2,7.8,7.4c2.9,1.2,7.8,1,11.5-0.5
				c0.6-0.2,1.2-0.5,1.7-0.8c0.4-0.2,1-0.7,1-0.7c0,0,0,0,0,0c0,0,0,0,0,0c0,0,0,0,0,0c0,0,0,0,0,0c0,0,0,0,0,0c0,0,0,0,0,0
				c0,0,0,0,0,0c0,0,0,0,0,0c0,0,0,0,0,0c0,0,0,0,0,0c0,0,0.1-0.1,0.1-0.1c0.1-0.1,0.6-0.5,0.6-0.6c0.5-0.5,0.8-1,1.1-1.5
				c0.1-0.2,0.3-0.7,0.3-0.8c0,0,0-0.1,0-0.1c0-0.1,0.1-0.2,0.1-0.4c0.1-0.2,0.1-0.5,0.2-0.7c0.5-2.2,0.6-4.1,0.2-6.2
				c0-0.1,0-0.2,0-0.2c0,0,0,0,0,0l0,0c0.3-0.4,1.5-2,2.7-3.9l0,0l0,0.1c0.1,0.2,0.2,0.8,0.3,1.1c0.3,1.3,0.4,2.6,0.4,3.9
				C1381.9,536.9,1380.8,539.9,1378.8,542.4z"/>
			<path id="Path_8575_3_" d="M1374.7,534.9c0,0.1-0.3,0.2-0.6,0.3c-0.8,0.2-2.1,0.3-3.3,0.1c-0.7-0.1-1.4-0.3-1.5-0.5
				c-0.1-0.1-0.1-0.2,0-0.3c0.2-0.3,0.7-0.6,1.3-0.8c0.3-0.1,1.5-0.4,2.1-0.5c0.9-0.2,1.6-0.2,2.1-0.1c0.1,0,0.3,0.1,0.3,0.1
				c0.1,0.1,0.1,0.3,0,0.6C1375,534,1374.8,534.7,1374.7,534.9z"/>
			<path id="Path_8576_3_" d="M1363.3,532.6c0,0-0.2,0.1-0.4,0c-0.2,0-0.6-0.2-0.9-0.3c-0.9-0.5-1.9-1.1-2.5-1.8
				c-0.4-0.4-0.6-0.7-0.7-1l-0.1-0.2l0-0.2c0.1-0.3,0.3-0.8,0.3-0.9c0.1-0.1,0.2-0.3,0.3-0.4c0.1,0,0.1,0,0.2,0
				c0.2,0.1,0.4,0.2,0.6,0.3c0.5,0.4,1.2,1.1,2,2.1c0.7,0.8,0.9,1.2,1,1.6C1363.4,532.2,1363.4,532.6,1363.3,532.6z"/>
			<path id="Path_8577_3_" d="M1367.6,541.3c0,0-0.1,0.2-0.3,0.5s-0.3,0.4-0.3,0.4c-0.1,0-0.1,0-0.1,0l-0.1-0.1l-0.4,0.4
				c-0.2,0.2-0.4,0.4-0.4,0.5l0,0.1l0-0.2l0-0.2l0.4-1.3l0,0c-0.1,0-0.7-0.1-0.9-0.2c-1-0.2-2.1-0.6-3-1.1c-0.2-0.1-0.3-0.1-0.3-0.1
				s-0.1,0.3-0.2,0.7l-0.2,0.7l-0.1,0.1c-0.1,0.1-0.1,0.1-0.1,0.1c0,0,0-0.1-0.1-0.3c0-0.3,0-0.5,0-0.8l0-0.1l-0.1,0l-0.1,0l0-0.2
				c0-0.1,0-0.2,0.1-0.3l0-0.2l-0.1-0.1c0-0.1-0.1-0.2-0.1-0.2c0,0,0-0.1,0-0.1l0-0.1l0.6,0.2l0.6,0.2l0,0.1l0,0.1l0.2,0.1
				c0.1,0,0.5,0.2,0.8,0.3l0.6,0.2l0.2-0.2l0.2-0.2l0.2,0.1l0.2-0.5l0.2-0.5l-0.2-0.2c-0.7-0.6-1-1.2-1-1.8c0-0.1,0-0.2,0.2-0.6
				c0.2-0.5,0.2-0.5,0.2-0.6c0.1-0.2,0.4-0.3,0.6-0.3c0.1,0,0.3,0.1,1.4,0.5l1.3,0.4l0.1,0.1c0.1,0.1,0.2,0.2,0.3,0.4
				c0.1,0.2,0.1,0.3,0,0.6c-0.1,0.4-0.3,0.7-0.4,0.9c-0.1,0.2-0.3,0.3-0.5,0.4c-0.3,0.2-0.9,0.4-1.3,0.4l-0.1,0l-0.2,0.5l-0.2,0.5
				l0.1,0l0.1,0l0.1,0.3l0.1,0.3l0.6,0.2c0.3,0.1,0.6,0.2,0.7,0.2c0,0,0.1,0,0.1,0l0.1-0.1l0.5,0.2
				C1367.5,541.3,1367.6,541.3,1367.6,541.3z"/>
			<path id="Path_8578_3_" d="M1364.7,541.8c-0.1,0-0.2,0-0.2,0c0,0-0.1-0.1-0.1-0.2l-0.1-0.1l-0.2,0.1c-0.4,0.2-0.4,0.2-0.5,0.2
				c-0.1,0-0.2-0.1-0.2-0.4c0-0.1-0.1-0.3-0.1-0.3s-0.1,0-0.1-0.1l-0.1-0.1l-0.1,0.1l-0.1,0.1l-0.1-0.1c-0.1-0.1-0.1-0.1-0.2-0.2
				l-0.1-0.1l0.1-0.3l1.2,0.4l1.2,0.4l0,0.1C1365,541.8,1365,541.8,1364.7,541.8z"/>
		</g>
		<path id="Path_8579_3_" class="st13" d="M1378.2,540.1c0,0,0-0.1,0-0.1c-1.1-0.5-4.2-1.7-8-0.2c0,0,0.5-4.7-3.9-6.2
			s-7.6,2.3-7.6,2.3c-1.6-3.5-5-4.5-6.2-4.7c0,0,0,0.1,0,0.1c-0.3,0.7-0.4,1-0.4,1.4c-0.1,1.4,0.5,3.3,1.6,5.3
			c1.9,3.3,5.1,6.2,7.8,7.4c2.9,1.2,7.8,1,11.5-0.5c0.6-0.2,1.2-0.5,1.7-0.8c0.4-0.2,1-0.7,1-0.7c0,0,0,0,0,0c0,0,0,0,0,0
			c0,0,0,0,0,0c0,0,0,0,0,0c0,0,0,0,0,0c0,0,0,0,0,0c0,0,0,0,0,0c0,0,0,0,0,0c0,0,0,0,0,0c0,0,0,0,0,0c0,0,0.1-0.1,0.1-0.1
			c0.1-0.1,0.6-0.5,0.6-0.6c0.5-0.5,0.8-1,1.1-1.5C1378,540.7,1378.2,540.3,1378.2,540.1z M1364.7,541.8c-0.1,0-0.2,0-0.2,0
			c0,0-0.1-0.1-0.1-0.2l-0.1-0.1l-0.2,0.1c-0.4,0.2-0.4,0.2-0.5,0.2c-0.1,0-0.2-0.1-0.2-0.4c0-0.1-0.1-0.3-0.1-0.3s-0.1,0-0.1-0.1
			l-0.1-0.1l-0.1,0.1l-0.1,0.1l-0.1-0.1c-0.1-0.1-0.1-0.1-0.2-0.2l-0.1-0.1l0.1-0.3l1.2,0.4l1.2,0.4l0,0.1
			C1365,541.8,1365,541.8,1364.7,541.8z M1367.3,541.8c-0.2,0.2-0.3,0.4-0.3,0.4c-0.1,0-0.1,0-0.1,0l-0.1-0.1l-0.4,0.4
			c-0.2,0.2-0.4,0.4-0.4,0.5l0,0.1l0-0.2l0-0.2l0.4-1.3l0,0c-0.1,0-0.7-0.1-0.9-0.2c-1-0.2-2.1-0.6-3-1.1c-0.2-0.1-0.3-0.1-0.3-0.1
			s-0.1,0.3-0.2,0.7l-0.2,0.7l-0.1,0.1c-0.1,0.1-0.1,0.1-0.1,0.1c0,0,0-0.1-0.1-0.3c0-0.3,0-0.5,0-0.8l0-0.1l-0.1,0l-0.1,0l0-0.2
			c0-0.1,0-0.2,0.1-0.3l0-0.2l-0.1-0.1c0-0.1-0.1-0.2-0.1-0.2c0,0,0-0.1,0-0.1l0-0.1l0.6,0.2l0.6,0.2l0,0.1l0,0.1l0.2,0.1
			c0.1,0,0.5,0.2,0.8,0.3l0.6,0.2l0.2-0.2l0.2-0.2l0.2,0.1l0.2-0.5l0.2-0.5l-0.2-0.2c-0.7-0.6-1-1.2-1-1.8c0-0.1,0-0.2,0.2-0.6
			c0.2-0.5,0.2-0.5,0.2-0.6c0.1-0.2,0.4-0.3,0.6-0.3c0.1,0,0.3,0.1,1.4,0.5l1.3,0.4l0.1,0.1c0.1,0.1,0.2,0.2,0.3,0.4
			c0.1,0.2,0.1,0.3,0,0.6c-0.1,0.4-0.3,0.7-0.4,0.9c-0.1,0.2-0.3,0.3-0.5,0.4c-0.3,0.2-0.9,0.4-1.3,0.4l-0.1,0l-0.2,0.5l-0.2,0.5
			l0.1,0l0.1,0l0.1,0.3l0.1,0.3l0.6,0.2c0.3,0.1,0.6,0.2,0.7,0.2c0,0,0.1,0,0.1,0l0.1-0.1l0.5,0.2c0.4,0.1,0.5,0.2,0.5,0.2
			C1367.6,541.3,1367.5,541.5,1367.3,541.8z"/>
		<path id="Path_8580_3_" class="st15" d="M1352.6,531.1c-0.3-0.1-0.5-0.1-0.5-0.1"/>
		<path id="Path_8581_3_" class="st15" d="M1378.6,540.2c0,0-0.1-0.1-0.4-0.2"/>
		<path id="Path_8582_3_" class="st16" d="M1378.4,539.7c0.1-0.2,0.1-0.5,0.2-0.7c0.5-2.2,0.6-4.1,0.2-6.2c0-0.1,0-0.2,0-0.2
			c0,0,0,0,0,0l0,0c0.3-0.4,1.5-2,2.7-3.9c1.6-2.6,3.1-5.7,2.2-7.1c0,0-2.1-0.9-5.9,0.9c-1,0.5-2,1.1-3,1.8l-0.2-0.1
			c-1-0.8-2.1-1.4-3.3-1.9c-0.4-0.2-1.7-0.6-2.1-0.7c-1.4-0.4-2.4-0.5-3.7-0.5c-0.1,0-0.1,0-0.1,0c-0.3-1.1-0.8-2.2-1.3-3.2
			c-2-3.8-4.3-4.4-4.3-4.4c-1.7,0.6-2.4,4.1-2.7,7.2c-0.2,2.1-0.2,3.9-0.2,4.6c0,0-0.1,0.1-0.1,0.1c-1.8,1.8-3.1,3.7-4,5.9
			c1.3,0.2,4.7,1.2,6.2,4.7c0,0,3.1-3.8,7.6-2.3s3.9,6.2,3.9,6.2c3.8-1.4,6.9-0.2,8,0.2C1378.3,539.9,1378.3,539.8,1378.4,539.7z
			 M1358.2,523.7c0,0-0.2-4.9,1-7.2l0,0c0.2-0.4,0.5-0.7,0.8-0.9c0,0,1.9,0.9,3.8,5.5c0,0-0.7,0.1-1.7,0.4c0,0,0,0,0,0
			C1361,521.8,1359.6,522.5,1358.2,523.7L1358.2,523.7z M1363.3,532.6c0,0-0.2,0.1-0.4,0c-0.2,0-0.6-0.2-0.9-0.3
			c-0.9-0.5-1.9-1.1-2.5-1.8c-0.4-0.4-0.6-0.7-0.7-1l-0.1-0.2l0-0.2c0.1-0.3,0.3-0.8,0.3-0.9c0.1-0.1,0.2-0.3,0.3-0.4
			c0.1,0,0.1,0,0.2,0c0.2,0.1,0.4,0.2,0.6,0.3c0.5,0.4,1.2,1.1,2,2.1c0.7,0.8,0.9,1.2,1,1.6C1363.4,532.2,1363.4,532.6,1363.3,532.6
			z M1374.7,534.9c0,0.1-0.3,0.2-0.6,0.3c-0.8,0.2-2.1,0.3-3.3,0.1c-0.7-0.1-1.4-0.3-1.5-0.5c-0.1-0.1-0.1-0.2,0-0.3
			c0.2-0.3,0.7-0.6,1.3-0.8c0.3-0.1,1.5-0.4,2.1-0.5c0.9-0.2,1.6-0.2,2.1-0.1c0.1,0,0.3,0.1,0.3,0.1c0.1,0.1,0.1,0.3,0,0.6
			C1375,534,1374.8,534.7,1374.7,534.9z M1376.7,526.5L1376.7,526.5c-0.6-0.9-1.1-1.4-1.1-1.4c4.3-2.5,6.2-2,6.2-2
			c0.1,0.4,0.1,0.8,0.1,1.2l0,0c-0.4,2.6-3.6,6.4-3.6,6.4C1378.1,529.2,1377.6,527.7,1376.7,526.5L1376.7,526.5z"/>
		<path id="Path_8583_3_" class="st15" d="M1374.7,524.2C1374.7,524.2,1374.7,524.2,1374.7,524.2"/>
		<path id="Path_8584_3_" class="st15" d="M1378.7,532.5C1378.6,532.5,1378.6,532.6,1378.7,532.5"/>
		<g id="Group_934_3_">
			<g id="Group_933_3_">
				<g id="Group_932_3_">
					<path id="Path_8585_3_" class="st17" d="M1382,524.3c-0.3-0.2-2-0.8-5.2,2.2l0,0c-0.6-0.9-1-1.4-1-1.4c4.3-2.5,6.2-2,6.2-2
						C1382,523.4,1382,523.8,1382,524.3z"/>
				</g>
				<path id="Path_8586_3_" class="st18" d="M1378.4,530.6c-0.3-1.5-0.8-2.9-1.6-4.2c3.2-3,4.9-2.4,5.2-2.2l0,0
					C1381.5,526.9,1378.4,530.6,1378.4,530.6z"/>
				<path id="Path_8587_3_" class="st18" d="M1382,524.3C1382,524.3,1382,524.3,1382,524.3L1382,524.3z"/>
			</g>
		</g>
		<path id="Path_8588_3_" class="st15" d="M1365.3,521.2c0-0.1-0.1-0.2-0.1-0.2"/>
		<path id="Path_8589_3_" class="st15" d="M1356.7,525.1c0,0.2,0,0.3,0,0.3"/>
		<g id="Group_937_3_">
			<g id="Group_936_3_">
				<g id="Group_935_3_">
					<path id="Path_8590_3_" class="st17" d="M1363.9,521c0,0-0.7,0.1-1.7,0.4c0,0,0,0,0,0c-0.8-4.3-2.5-4.9-2.9-5
						c0.2-0.4,0.5-0.7,0.8-0.9C1360,515.6,1361.9,516.4,1363.9,521z"/>
				</g>
				<path id="Path_8591_3_" class="st18" d="M1362.1,521.5c-1.1,0.4-2.6,1-4,2.2c0,0-0.2-4.9,1.1-7.2l0,0
					C1359.6,516.6,1361.4,517.1,1362.1,521.5z"/>
				<path id="Path_8592_3_" class="st18" d="M1359.2,516.5C1359.2,516.5,1359.2,516.5,1359.2,516.5L1359.2,516.5z"/>
			</g>
		</g>
		<path id="Path_8593_3_" class="st13" d="M1372.9,531.4c0,0-1.5-0.4-0.9-1.5s1.8-0.8,2.1-0.7c0.3,0.2,1.4,1.1,0.9,2
			c-0.6,0.9-0.8,0.6-1,0.6C1373.7,531.8,1372.9,531.4,1372.9,531.4z"/>
		<path id="Path_8594_3_" class="st13" d="M1362,527.7c0,0-1.5-0.4-0.9-1.5s1.8-0.8,2.1-0.7c0.3,0.2,1.4,1.1,0.9,2
			c-0.6,0.9-0.8,0.6-1,0.6C1362.8,528,1362,527.7,1362,527.7z"/>
	</g>
	<g>
		<g>
			<g>
				
					<radialGradient id="SVGID_28_" cx="1001.1154" cy="948.6447" r="12.8529" gradientTransform="matrix(0.3404 0.1241 -3.093472e-02 8.129975e-02 103.5773 92.5452)" gradientUnits="userSpaceOnUse">
					<stop  offset="0" style="stop-color:#525458"/>
					<stop  offset="1" style="stop-color:#2B2D31"/>
				</radialGradient>
				<path class="st38" d="M425.5,298.8l-20.6-7.3c0,0,0.4,0,1-0.1c0.4,0,0.9,0,1.3,0.1c0.1,0,0.2,0,0.3,0.1c1.2,0.3,4.1,1.6,7.8,2.8
					c3.7,1.3,7.3,2.2,8.2,2.7c0.1,0,0.1,0.1,0.2,0.1c0.5,0.3,0.8,0.5,1.1,0.7C425.3,298.4,425.5,298.8,425.5,298.8z"/>
				<path class="st20" d="M423.7,297.2c-0.7-0.3-1.8-0.6-3-0.9c-1.6-0.5-3.7-1.1-5.6-1.8c-2.1-0.7-3.9-1.5-5.4-2.1
					c-1-0.4-1.8-0.7-2.4-1c-0.5-0.1-0.9-0.1-1.3-0.1c0.2,0,0.3,0,0.5,0.1c0.7,0.1,1.8,0.6,3.2,1.2c1.5,0.6,3.3,1.4,5.4,2.1
					c2,0.7,4,1.3,5.7,1.8c1.8,0.5,3.3,1,3.8,1.3c0.1,0.1,0.2,0.1,0.3,0.2C424.5,297.8,424.2,297.5,423.7,297.2z"/>
			</g>
			<g>
				
					<linearGradient id="SVGID_29_" gradientUnits="userSpaceOnUse" x1="654.5517" y1="438.2494" x2="654.5517" y2="425.1051" gradientTransform="matrix(0.9456 0.3252 -0.3252 0.9456 -64.3257 -323.6375)">
					<stop  offset="0" style="stop-color:#2C2E32"/>
					<stop  offset="8.428930e-02" style="stop-color:#55575B"/>
					<stop  offset="0.3288" style="stop-color:#2A2C30"/>
					<stop  offset="0.521" style="stop-color:#54565A"/>
					<stop  offset="1" style="stop-color:#26252B"/>
				</linearGradient>
				<path class="st39" d="M425.9,301c0.3-2.3-0.5-3-3.5-3.8c-1.3-0.4-3-0.9-4.4-1.3c-2-0.6-3.9-1.3-5.9-2c-1.4-0.5-2.9-1.1-4.2-1.7
					c-2.8-1.1-3.8-1.2-5.1,0.9c-1.2,2-2.3,5.9-0.6,6.9c1.7,0.9,5.5,2.1,8,2.9c1.3,0.4,2.6,0.8,3.9,1.3c2.4,0.9,6.7,2.5,8,2.7
					C424,307,425.6,303.4,425.9,301z"/>
				
					<radialGradient id="SVGID_30_" cx="1001.9099" cy="969.0339" r="25.1402" gradientTransform="matrix(0.3427 0.1179 -0.1707 0.4962 235.5605 -299.7159)" gradientUnits="userSpaceOnUse">
					<stop  offset="0" style="stop-color:#3FB6FF"/>
					<stop  offset="9.795301e-02" style="stop-color:#3EB1F8"/>
					<stop  offset="0.2456" style="stop-color:#3BA3E3"/>
					<stop  offset="0.4245" style="stop-color:#378CC1"/>
					<stop  offset="0.6278" style="stop-color:#316C92"/>
					<stop  offset="0.8489" style="stop-color:#294356"/>
					<stop  offset="1" style="stop-color:#24252A"/>
				</radialGradient>
				<path class="st40" d="M418.9,305.3c-1.6-0.5-3.3-1.2-4.6-1.7c-0.6-0.2-1.3-0.5-2-0.7c-0.7-0.2-1.3-0.4-2-0.6l-0.2-0.1
					c-1.2-0.4-2.8-0.9-4.2-1.4c-1.6-0.5-2.7-1-3.4-1.4c-0.4-0.2-0.6-1-0.4-2.4c0.2-1.2,0.7-2.7,1.3-3.7c0.9-1.6,1.5-1.6,3.1-1.1
					c0.3,0.1,0.6,0.2,1,0.4c1.1,0.4,2.5,1,4.2,1.7c1,0.4,2,0.7,3,1.1c1,0.3,2,0.7,3,1c1.8,0.5,3.2,1,4.4,1.3
					c0.4,0.1,0.8,0.2,1.1,0.3c1.6,0.6,2,1,1.8,2.8c-0.1,1.2-0.6,2.6-1.2,3.7c-0.7,1.3-1.4,1.7-1.8,1.7
					C421.8,306.2,420.9,306,418.9,305.3C418.9,305.3,418.9,305.3,418.9,305.3z"/>
				
					<radialGradient id="SVGID_31_" cx="1008.5562" cy="952.5399" r="37.5126" gradientTransform="matrix(0.3427 0.1179 -8.849574e-02 0.2573 155.9315 -68.1984)" gradientUnits="userSpaceOnUse">
					<stop  offset="0" style="stop-color:#525458"/>
					<stop  offset="1" style="stop-color:#2B2D31"/>
				</radialGradient>
				<path class="st41" d="M418.9,305.2c-1.6-0.5-3.3-1.2-4.6-1.7c-0.6-0.2-1.3-0.5-2-0.7c-0.7-0.2-1.3-0.4-2-0.6l-0.2-0.1
					c-1.2-0.4-2.8-0.9-4.2-1.4c-1.6-0.5-2.7-1-3.3-1.3c-0.2-0.1-0.5-0.8-0.3-2.2c0.2-1.2,0.7-2.6,1.3-3.6c0.9-1.5,1.4-1.5,2.9-1
					c0.3,0.1,0.6,0.2,1,0.4c1.1,0.4,2.5,1,4.3,1.7c1,0.4,2,0.7,3,1.1c1,0.3,2,0.7,3,1c1.8,0.5,3.2,1,4.4,1.3c0.4,0.1,0.8,0.2,1,0.3
					c1.5,0.5,1.9,0.8,1.7,2.6c-0.1,1.2-0.6,2.6-1.2,3.6c-0.7,1.2-1.4,1.6-1.7,1.6C421.8,306.1,421,305.9,418.9,305.2z"/>
				
					<radialGradient id="SVGID_32_" cx="1054.207" cy="1862.5513" r="17.5613" gradientTransform="matrix(0.326 0.1151 -5.350523e-03 1.484510e-02 81.0689 146.4595)" gradientUnits="userSpaceOnUse">
					<stop  offset="0.1947" style="stop-color:#3FACFF"/>
					<stop  offset="0.2658" style="stop-color:#3591D7"/>
					<stop  offset="0.41" style="stop-color:#225E8C"/>
					<stop  offset="0.5389" style="stop-color:#143650"/>
					<stop  offset="0.6478" style="stop-color:#091924"/>
					<stop  offset="0.7324" style="stop-color:#02070A"/>
					<stop  offset="0.7824" style="stop-color:#000000"/>
				</radialGradient>
				<path class="st42" d="M420.5,297.5c-0.1,0.3-2.7-0.4-5.9-1.6c-3.2-1.1-5.7-2.2-5.6-2.5c0.1-0.3,2.7,0.4,5.9,1.6
					C418.1,296.1,420.5,297.2,420.5,297.5z"/>
				
					<radialGradient id="SVGID_33_" cx="1054.5304" cy="1913.5043" r="17.5613" gradientTransform="matrix(0.326 0.1151 -5.350523e-03 1.484510e-02 78.6938 153.0494)" gradientUnits="userSpaceOnUse">
					<stop  offset="0.1946" style="stop-color:#3FACFF"/>
					<stop  offset="0.2657" style="stop-color:#3591D7"/>
					<stop  offset="0.4099" style="stop-color:#225E8C"/>
					<stop  offset="0.5389" style="stop-color:#143650"/>
					<stop  offset="0.6478" style="stop-color:#091924"/>
					<stop  offset="0.7324" style="stop-color:#02070A"/>
					<stop  offset="0.7824" style="stop-color:#000000"/>
				</radialGradient>
				<path class="st43" d="M417.9,304.9c-0.1,0.3-2.7-0.4-5.9-1.6c-3.2-1.1-5.7-2.2-5.6-2.5c0.1-0.3,2.7,0.4,5.9,1.6
					C415.5,303.5,418,304.6,417.9,304.9z"/>
			</g>
		</g>
	</g>
</g>
<g>
	<g id="Group_938_4_" transform="translate(-953.348 -232.003)">
		<g id="Group_931_4_">
			<path id="Path_8573_4_" class="st14" d="M1365.2,275.2c-1.3,0.6-2.6,1.4-3.7,2.2l-0.2-0.2c-1.3-1-2.7-1.8-4.1-2.4
				c-0.4-0.2-2.1-0.8-2.7-0.9c-1.7-0.5-3.1-0.7-4.7-0.6c-0.1,0-0.1,0-0.2,0c-0.4-1.4-1-2.8-1.7-4.1c5.7-0.8,11.4,0.8,15.8,4.5
				c0.5,0.4,0.9,0.8,1.3,1.2L1365.2,275.2z"/>
			<path id="Path_8574_4_" class="st14" d="M1366.6,300.4c-1.4,1.8-3.2,3.4-5.2,4.6c-1.1,0.6-2.2,1.2-3.4,1.6
				c-2.7,1-5.7,1.4-8.6,1.1c-3.2-0.3-6.3-1.4-9-3.1c-2.5-1.6-4.5-3.7-6.1-6.1c-0.7-1.1-1.2-2.2-1.7-3.4c-2.4-6.2-1.4-13.3,2.8-18.6
				c0.8-1,1.6-1.9,2.6-2.7c0.4-0.4,0.9-0.8,1.2-0.9c-0.3,2.6-0.3,4.9-0.3,5.8c0,0-0.1,0.1-0.1,0.1c-2.3,2.3-3.9,4.7-5.1,7.4
				c0,0,0,0.1,0,0.1c-0.3,0.8-0.5,1.2-0.5,1.8c-0.1,1.8,0.6,4.1,2.1,6.6c2.4,4.1,6.4,7.8,9.8,9.3c3.6,1.5,9.8,1.2,14.5-0.7
				c0.7-0.3,1.5-0.7,2.2-1.1c0.5-0.3,1.3-0.8,1.2-0.8c0,0,0,0,0,0c0,0,0,0,0,0c0,0,0,0,0,0c0,0,0,0,0,0c0,0,0,0,0,0c0,0,0,0,0,0
				c0,0,0,0,0,0s0,0,0,0c0,0,0,0,0,0s0,0,0,0c0,0,0.1-0.1,0.1-0.1c0.1-0.1,0.7-0.6,0.8-0.7c0.6-0.6,1-1.2,1.4-1.9
				c0.2-0.3,0.4-0.9,0.4-1c0,0,0-0.1,0-0.1c0-0.1,0.1-0.3,0.1-0.5c0.1-0.3,0.2-0.6,0.2-0.8c0.7-2.7,0.7-5.1,0.2-7.8
				c0-0.1,0-0.2,0-0.3c0,0,0,0,0-0.1l0,0c0.4-0.5,1.9-2.5,3.4-4.9l0,0l0,0.1c0.1,0.3,0.3,1,0.4,1.3c0.4,1.6,0.5,3.3,0.4,4.9
				C1370.5,293.4,1369.1,297.2,1366.6,300.4z"/>
			<path id="Path_8575_4_" d="M1361.5,290.8c0,0.1-0.4,0.3-0.8,0.4c-1,0.3-2.6,0.4-4.2,0.1c-0.9-0.1-1.7-0.4-1.9-0.6
				c-0.1-0.1-0.1-0.2,0-0.4c0.3-0.4,0.8-0.7,1.6-1c0.4-0.1,1.9-0.5,2.6-0.6c1.2-0.2,2.1-0.2,2.6-0.1c0.2,0,0.4,0.1,0.4,0.1
				c0.1,0.1,0.1,0.4,0,0.8C1361.9,289.8,1361.6,290.7,1361.5,290.8z"/>
			<path id="Path_8576_4_" d="M1347.1,288c-0.1,0.1-0.3,0.1-0.5,0c-0.2,0-0.8-0.3-1.1-0.4c-1.2-0.6-2.4-1.4-3.1-2.2
				c-0.4-0.4-0.7-0.8-0.9-1.2l-0.1-0.2l0.1-0.2c0.1-0.4,0.3-1,0.4-1.2c0.1-0.2,0.2-0.3,0.4-0.4c0.1,0,0.1,0,0.3,0
				c0.3,0.1,0.5,0.2,0.8,0.4c0.6,0.5,1.5,1.4,2.5,2.6c0.8,1,1.1,1.5,1.3,2C1347.2,287.5,1347.2,288,1347.1,288z"/>
			<path id="Path_8577_4_" d="M1352.6,299c0,0-0.2,0.3-0.4,0.6s-0.4,0.5-0.4,0.6c-0.1,0-0.1,0-0.2-0.1l-0.2-0.1l-0.5,0.5
				c-0.3,0.3-0.5,0.5-0.5,0.6l-0.1,0.1l-0.1-0.2l-0.1-0.2l0.6-1.6l-0.1,0c-0.1,0-0.8-0.2-1.2-0.2c-1.3-0.3-2.6-0.8-3.8-1.4
				c-0.2-0.1-0.4-0.2-0.4-0.2c0,0-0.1,0.4-0.3,0.8l-0.3,0.8l-0.2,0.1c-0.1,0.1-0.2,0.1-0.2,0.1c0,0,0-0.1-0.1-0.4c0-0.3-0.1-0.7,0-1
				l0-0.2l-0.2-0.1l-0.2,0l0-0.2c0-0.1,0-0.3,0.1-0.4l0-0.2l-0.1-0.2c-0.1-0.1-0.1-0.2-0.1-0.2c0,0,0-0.1,0-0.1l0-0.1l0.7,0.3
				l0.7,0.3l0,0.1l0,0.1l0.2,0.1c0.1,0.1,0.6,0.2,1,0.4l0.7,0.3l0.3-0.2l0.3-0.2l0.2,0.1l0.2-0.6l0.2-0.6l-0.3-0.2
				c-0.9-0.8-1.3-1.5-1.3-2.2c0-0.1,0-0.2,0.2-0.8c0.2-0.6,0.2-0.6,0.3-0.7c0.2-0.3,0.5-0.4,0.8-0.4c0.1,0,0.4,0.1,1.7,0.6l1.6,0.6
				l0.2,0.1c0.2,0.2,0.3,0.3,0.3,0.5c0.1,0.2,0.1,0.4-0.1,0.7c-0.2,0.5-0.4,0.9-0.5,1.1c-0.2,0.2-0.4,0.4-0.6,0.6
				c-0.4,0.3-1.1,0.5-1.6,0.5l-0.2,0l-0.2,0.6l-0.2,0.6l0.1,0.1l0.1,0.1l0.1,0.3l0.1,0.3l0.8,0.3c0.4,0.1,0.8,0.3,0.8,0.3
				c0.1,0,0.1,0,0.2,0l0.1-0.1l0.7,0.2C1352.4,298.9,1352.6,298.9,1352.6,299z"/>
			<path id="Path_8578_4_" d="M1348.9,299.6c-0.1,0-0.2,0-0.2,0c0,0-0.1-0.1-0.1-0.2l-0.1-0.2l-0.2,0.1c-0.5,0.3-0.5,0.3-0.6,0.2
				c-0.2,0-0.2-0.1-0.3-0.4c-0.1-0.2-0.1-0.3-0.1-0.3s-0.1,0-0.2-0.1l-0.2-0.1l-0.1,0.1l-0.1,0.1l-0.1-0.1c-0.1-0.1-0.2-0.1-0.3-0.2
				l-0.1-0.1l0.1-0.3l1.5,0.5l1.5,0.5l0,0.2C1349.2,299.5,1349.3,299.5,1348.9,299.6z"/>
		</g>
		<path id="Path_8579_4_" class="st13" d="M1365.9,297.5c0,0,0-0.1,0-0.1c-1.3-0.6-5.3-2.1-10-0.3c0,0,0.7-5.9-4.9-7.8
			c-5.6-1.9-9.5,2.8-9.5,2.8c-2-4.4-6.2-5.6-7.8-5.9c0,0,0,0.1,0,0.1c-0.3,0.8-0.5,1.2-0.5,1.8c-0.1,1.8,0.6,4.1,2.1,6.6
			c2.4,4.1,6.4,7.8,9.8,9.3c3.6,1.5,9.8,1.2,14.5-0.7c0.7-0.3,1.5-0.7,2.2-1.1c0.5-0.3,1.3-0.8,1.2-0.8c0,0,0,0,0,0c0,0,0,0,0,0
			c0,0,0,0,0,0c0,0,0,0,0,0c0,0,0,0,0,0c0,0,0,0,0,0c0,0,0,0,0,0s0,0,0,0c0,0,0,0,0,0s0,0,0,0c0,0,0.1-0.1,0.1-0.1
			c0.1-0.1,0.7-0.6,0.8-0.7c0.6-0.6,1-1.2,1.4-1.9C1365.6,298.2,1365.9,297.6,1365.9,297.5z M1348.9,299.6c-0.1,0-0.2,0-0.2,0
			c0,0-0.1-0.1-0.1-0.2l-0.1-0.2l-0.2,0.1c-0.5,0.3-0.5,0.3-0.6,0.2c-0.2,0-0.2-0.1-0.3-0.4c-0.1-0.2-0.1-0.3-0.1-0.3
			s-0.1,0-0.2-0.1l-0.2-0.1l-0.1,0.1l-0.1,0.1l-0.1-0.1c-0.1-0.1-0.2-0.1-0.3-0.2l-0.1-0.1l0.1-0.3l1.5,0.5l1.5,0.5l0,0.2
			C1349.2,299.5,1349.3,299.5,1348.9,299.6z M1352.2,299.5c-0.2,0.3-0.4,0.5-0.4,0.6c-0.1,0-0.1,0-0.2-0.1l-0.2-0.1l-0.5,0.5
			c-0.3,0.3-0.5,0.5-0.5,0.6l-0.1,0.1l-0.1-0.2l-0.1-0.2l0.6-1.6l-0.1,0c-0.1,0-0.8-0.2-1.2-0.2c-1.3-0.3-2.6-0.8-3.8-1.4
			c-0.2-0.1-0.4-0.2-0.4-0.2c0,0-0.1,0.4-0.3,0.8l-0.3,0.8l-0.2,0.1c-0.1,0.1-0.2,0.1-0.2,0.1c0,0,0-0.1-0.1-0.4c0-0.3-0.1-0.7,0-1
			l0-0.2l-0.2-0.1l-0.2,0l0-0.2c0-0.1,0-0.3,0.1-0.4l0-0.2l-0.1-0.2c-0.1-0.1-0.1-0.2-0.1-0.2c0,0,0-0.1,0-0.1l0-0.1l0.7,0.3
			l0.7,0.3l0,0.1l0,0.1l0.2,0.1c0.1,0.1,0.6,0.2,1,0.4l0.7,0.3l0.3-0.2l0.3-0.2l0.2,0.1l0.2-0.6l0.2-0.6l-0.3-0.2
			c-0.9-0.8-1.3-1.5-1.3-2.2c0-0.1,0-0.2,0.2-0.8c0.2-0.6,0.2-0.6,0.3-0.7c0.2-0.3,0.5-0.4,0.8-0.4c0.1,0,0.4,0.1,1.7,0.6l1.6,0.6
			l0.2,0.1c0.2,0.2,0.3,0.3,0.3,0.5c0.1,0.2,0.1,0.4-0.1,0.7c-0.2,0.5-0.4,0.9-0.5,1.1c-0.2,0.2-0.4,0.4-0.6,0.6
			c-0.4,0.3-1.1,0.5-1.6,0.5l-0.2,0l-0.2,0.6l-0.2,0.6l0.1,0.1l0.1,0.1l0.1,0.3l0.1,0.3l0.8,0.3c0.4,0.1,0.8,0.3,0.8,0.3
			c0.1,0,0.1,0,0.2,0l0.1-0.1l0.7,0.2c0.5,0.2,0.7,0.2,0.7,0.3C1352.6,299,1352.4,299.2,1352.2,299.5z"/>
		<path id="Path_8580_4_" class="st15" d="M1333.7,286.1c-0.4-0.1-0.6-0.1-0.6-0.1"/>
		<path id="Path_8581_4_" class="st15" d="M1366.4,297.6c0,0-0.2-0.1-0.5-0.3"/>
		<path id="Path_8582_4_" class="st16" d="M1366.1,296.9c0.1-0.3,0.2-0.6,0.2-0.8c0.7-2.7,0.7-5.1,0.2-7.8c0-0.1,0-0.2,0-0.3
			c0,0,0,0,0-0.1l0,0c0.4-0.5,1.9-2.5,3.4-4.9c2-3.2,3.9-7.2,2.8-8.9c0,0-2.6-1.1-7.4,1.2c-1.3,0.6-2.6,1.4-3.7,2.2l-0.2-0.2
			c-1.3-1-2.7-1.8-4.1-2.4c-0.4-0.2-2.1-0.8-2.7-0.9c-1.7-0.5-3.1-0.7-4.7-0.6c-0.1,0-0.1,0-0.2,0c-0.4-1.4-1-2.8-1.7-4.1
			c-2.5-4.8-5.3-5.6-5.3-5.6c-2.1,0.7-3,5.2-3.4,9.1c-0.3,2.6-0.3,4.9-0.3,5.8c0,0-0.1,0.1-0.1,0.1c-2.3,2.3-3.9,4.7-5.1,7.4
			c1.6,0.3,5.9,1.5,7.8,5.9c0,0,3.9-4.7,9.5-2.8s4.9,7.8,4.9,7.8c4.7-1.8,8.7-0.3,10,0.3C1366,297.2,1366,297.1,1366.1,296.9z
			 M1340.7,276.8c0,0-0.3-6.2,1.3-9.1l0,0c0.3-0.5,0.6-0.9,1-1.1c0,0,2.4,1.1,4.8,6.9c0,0-0.9,0.1-2.2,0.5c0,0,0,0,0,0
			C1344.3,274.5,1342.4,275.3,1340.7,276.8L1340.7,276.8z M1347.1,288c-0.1,0.1-0.3,0.1-0.5,0c-0.2,0-0.8-0.3-1.1-0.4
			c-1.2-0.6-2.4-1.4-3.1-2.2c-0.4-0.4-0.7-0.8-0.9-1.2l-0.1-0.2l0.1-0.2c0.1-0.4,0.3-1,0.4-1.2c0.1-0.2,0.2-0.3,0.4-0.4
			c0.1,0,0.1,0,0.3,0c0.3,0.1,0.5,0.2,0.8,0.4c0.6,0.5,1.5,1.4,2.5,2.6c0.8,1,1.1,1.5,1.3,2C1347.2,287.5,1347.2,288,1347.1,288z
			 M1361.5,290.8c0,0.1-0.4,0.3-0.8,0.4c-1,0.3-2.6,0.4-4.2,0.1c-0.9-0.1-1.7-0.4-1.9-0.6c-0.1-0.1-0.1-0.2,0-0.4
			c0.3-0.4,0.8-0.7,1.6-1c0.4-0.1,1.9-0.5,2.6-0.6c1.2-0.2,2.1-0.2,2.6-0.1c0.2,0,0.4,0.1,0.4,0.1c0.1,0.1,0.1,0.4,0,0.8
			C1361.9,289.8,1361.6,290.7,1361.5,290.8z M1364,280.3L1364,280.3c-0.7-1.1-1.3-1.7-1.3-1.7c5.4-3.1,7.8-2.5,7.8-2.5
			c0.1,0.4,0.2,1,0.1,1.5l0,0c-0.5,3.3-4.5,8-4.5,8C1365.8,283.7,1365.1,281.9,1364,280.3L1364,280.3z"/>
		<path id="Path_8583_4_" class="st15" d="M1361.5,277.5C1361.5,277.5,1361.5,277.5,1361.5,277.5"/>
		<path id="Path_8584_4_" class="st15" d="M1366.5,287.9c-0.1,0.1-0.1,0.1-0.1,0.1"/>
		<g id="Group_934_4_">
			<g id="Group_933_4_">
				<g id="Group_932_4_">
					<path id="Path_8585_4_" class="st17" d="M1370.6,277.5c-0.4-0.2-2.6-1-6.6,2.7l0,0c-0.7-1.1-1.3-1.7-1.3-1.7
						c5.4-3.1,7.8-2.5,7.8-2.5C1370.7,276.5,1370.7,277,1370.6,277.5z"/>
				</g>
				<path id="Path_8586_4_" class="st18" d="M1366.1,285.5c-0.3-1.9-1-3.7-2.1-5.3c4-3.7,6.1-3,6.6-2.7l0,0
					C1370.1,280.8,1366.1,285.5,1366.1,285.5z"/>
				<path id="Path_8587_4_" class="st18" d="M1370.7,277.6C1370.6,277.6,1370.6,277.6,1370.7,277.6L1370.7,277.6z"/>
			</g>
		</g>
		<path id="Path_8588_4_" class="st15" d="M1349.7,273.7c0-0.1-0.1-0.2-0.1-0.3"/>
		<path id="Path_8589_4_" class="st15" d="M1338.9,278.6c0,0.2,0,0.3,0,0.3"/>
		<g id="Group_937_4_">
			<g id="Group_936_4_">
				<g id="Group_935_4_">
					<path id="Path_8590_4_" class="st17" d="M1347.9,273.4c0,0-0.9,0.1-2.2,0.5c0,0,0,0,0,0c-0.9-5.4-3.2-6.2-3.7-6.3
						c0.3-0.5,0.6-0.9,1-1.1C1343,266.6,1345.4,267.7,1347.9,273.4z"/>
				</g>
				<path id="Path_8591_4_" class="st18" d="M1345.7,274c-1.4,0.5-3.3,1.3-5,2.8c0,0-0.3-6.2,1.3-9.1l0,0
					C1342.5,267.8,1344.7,268.6,1345.7,274z"/>
				<path id="Path_8592_4_" class="st18" d="M1342,267.7C1342,267.7,1342,267.7,1342,267.7L1342,267.7z"/>
			</g>
		</g>
		<path id="Path_8593_4_" class="st13" d="M1359.2,286.5c0,0-1.9-0.5-1.2-1.9c0.7-1.4,2.2-1,2.6-0.8c0.4,0.2,1.8,1.3,1.1,2.5
			c-0.7,1.1-1,0.7-1.3,0.7C1360.2,287,1359.2,286.5,1359.2,286.5z"/>
		<path id="Path_8594_4_" class="st13" d="M1345.5,281.8c0,0-1.9-0.5-1.2-1.9c0.7-1.4,2.2-1,2.6-0.8c0.4,0.2,1.8,1.3,1.1,2.5
			c-0.7,1.1-1,0.7-1.3,0.7C1346.5,282.2,1345.5,281.8,1345.5,281.8z"/>
	</g>
	<g>
		<g>
			<g>
				
					<radialGradient id="SVGID_34_" cx="592.5995" cy="167.382" r="6.4468" gradientTransform="matrix(0.8533 0.311 -7.753257e-02 0.2038 -92.463 -170.8295)" gradientUnits="userSpaceOnUse">
					<stop  offset="0" style="stop-color:#525458"/>
					<stop  offset="1" style="stop-color:#2B2D31"/>
				</radialGradient>
				<path class="st44" d="M413.3,53.7l-25.9-9.1c0,0,0.5-0.1,1.2-0.1c0.5,0,1.1,0,1.7,0.1c0.1,0,0.3,0,0.4,0.1
					c1.5,0.3,5.1,2,9.8,3.6c4.6,1.6,9.2,2.8,10.3,3.4c0.1,0,0.2,0.1,0.3,0.1c0.6,0.3,1,0.7,1.4,0.9
					C413.1,53.3,413.3,53.7,413.3,53.7z"/>
				<path class="st20" d="M411.1,51.8c-0.9-0.3-2.2-0.7-3.8-1.2c-2.1-0.6-4.6-1.4-7.1-2.2c-2.6-0.9-5-1.9-6.8-2.6
					c-1.2-0.5-2.3-0.9-3-1.2c-0.6-0.1-1.2-0.1-1.7-0.1c0.2,0,0.4,0.1,0.6,0.1c0.8,0.2,2.2,0.8,4,1.5c1.9,0.8,4.2,1.7,6.8,2.6
					c2.5,0.9,5.1,1.6,7.1,2.2c2.3,0.7,4.1,1.2,4.8,1.6c0.1,0.1,0.3,0.2,0.4,0.2C412.1,52.4,411.7,52.1,411.1,51.8z"/>
			</g>
			<g>
				
					<linearGradient id="SVGID_35_" gradientUnits="userSpaceOnUse" x1="560.4931" y1="212.776" x2="560.4931" y2="196.2518" gradientTransform="matrix(0.9456 0.3252 -0.3252 0.9456 -64.3257 -323.6375)">
					<stop  offset="0" style="stop-color:#2C2E32"/>
					<stop  offset="8.428930e-02" style="stop-color:#55575B"/>
					<stop  offset="0.3288" style="stop-color:#2A2C30"/>
					<stop  offset="0.521" style="stop-color:#54565A"/>
					<stop  offset="1" style="stop-color:#26252B"/>
				</linearGradient>
				<path class="st45" d="M413.8,56.5c0.3-3-0.7-3.7-4.4-4.8c-1.7-0.5-3.7-1.1-5.5-1.6c-2.5-0.8-5-1.6-7.4-2.5
					c-1.7-0.7-3.7-1.4-5.3-2.1c-3.5-1.4-4.8-1.4-6.4,1.1c-1.5,2.5-2.9,7.5-0.8,8.6c2.1,1.2,7,2.6,10,3.6c1.6,0.5,3.3,1.1,4.9,1.7
					c3,1.1,8.4,3.2,10.1,3.3C411.5,64,413.5,59.5,413.8,56.5z"/>
				
					<radialGradient id="SVGID_36_" cx="592.998" cy="177.609" r="12.61" gradientTransform="matrix(0.8589 0.2954 -0.4278 1.2437 -35.0752 -341.7942)" gradientUnits="userSpaceOnUse">
					<stop  offset="0" style="stop-color:#3FB6FF"/>
					<stop  offset="9.795301e-02" style="stop-color:#3EB1F8"/>
					<stop  offset="0.2456" style="stop-color:#3BA3E3"/>
					<stop  offset="0.4245" style="stop-color:#378CC1"/>
					<stop  offset="0.6278" style="stop-color:#316C92"/>
					<stop  offset="0.8489" style="stop-color:#294356"/>
					<stop  offset="1" style="stop-color:#24252A"/>
				</radialGradient>
				<path class="st46" d="M405,61.9c-2-0.7-4.2-1.5-5.7-2.1c-0.8-0.3-1.6-0.6-2.5-0.9c-0.8-0.3-1.7-0.6-2.5-0.8l-0.2-0.1
					c-1.6-0.5-3.5-1.1-5.3-1.7c-2-0.7-3.4-1.3-4.2-1.7c-0.4-0.2-0.8-1.3-0.5-3c0.2-1.5,0.9-3.3,1.7-4.6c1.2-2,1.9-2.1,4-1.3
					c0.4,0.1,0.8,0.3,1.3,0.5c1.4,0.6,3.2,1.3,5.3,2.1c1.2,0.5,2.5,0.9,3.7,1.4c1.2,0.4,2.5,0.8,3.8,1.2c2.2,0.7,4.1,1.2,5.5,1.6
					c0.5,0.1,1,0.3,1.3,0.4c2,0.7,2.6,1.2,2.3,3.5c-0.2,1.5-0.8,3.3-1.5,4.6c-0.9,1.6-1.8,2.2-2.3,2.1
					C408.6,63.1,407.6,62.8,405,61.9C405,61.9,405,61.9,405,61.9z"/>
				
					<radialGradient id="SVGID_37_" cx="596.3317" cy="169.3358" r="18.8158" gradientTransform="matrix(0.8589 0.2954 -0.2218 0.6449 -71.6545 -235.4417)" gradientUnits="userSpaceOnUse">
					<stop  offset="0" style="stop-color:#525458"/>
					<stop  offset="1" style="stop-color:#2B2D31"/>
				</radialGradient>
				<path class="st47" d="M405.1,61.8c-2-0.7-4.1-1.5-5.7-2.1c-0.8-0.3-1.6-0.6-2.5-0.9c-0.8-0.3-1.7-0.6-2.5-0.8l-0.2-0.1
					c-1.6-0.5-3.5-1.1-5.3-1.7c-2-0.7-3.4-1.3-4.2-1.7c-0.3-0.2-0.6-1-0.4-2.8c0.2-1.5,0.9-3.3,1.7-4.6c1.1-1.9,1.8-1.9,3.7-1.3
					c0.4,0.1,0.8,0.3,1.3,0.5c1.4,0.6,3.2,1.3,5.3,2.1c1.2,0.5,2.5,0.9,3.7,1.4c1.2,0.4,2.5,0.8,3.8,1.2c2.2,0.7,4.1,1.2,5.5,1.6
					c0.5,0.1,0.9,0.3,1.3,0.4c1.9,0.7,2.4,1.1,2.1,3.3c-0.2,1.5-0.8,3.3-1.5,4.6c-0.9,1.5-1.7,2.1-2.1,2
					C408.7,62.9,407.7,62.7,405.1,61.8z"/>
				
					<radialGradient id="SVGID_38_" cx="616.6324" cy="478.2625" r="8.8085" gradientTransform="matrix(0.817 0.2886 -1.341017e-02 3.720671e-02 -97.5549 -146.1602)" gradientUnits="userSpaceOnUse">
					<stop  offset="0.1947" style="stop-color:#3FACFF"/>
					<stop  offset="0.2658" style="stop-color:#3591D7"/>
					<stop  offset="0.41" style="stop-color:#225E8C"/>
					<stop  offset="0.5389" style="stop-color:#143650"/>
					<stop  offset="0.6478" style="stop-color:#091924"/>
					<stop  offset="0.7324" style="stop-color:#02070A"/>
					<stop  offset="0.7824" style="stop-color:#000000"/>
				</radialGradient>
				<path class="st48" d="M407,52.1c-0.1,0.3-3.4-0.5-7.4-2c-4-1.4-7.1-2.8-7-3.1c0.1-0.3,3.4,0.5,7.4,2
					C404,50.4,407.1,51.8,407,52.1z"/>
				
					<radialGradient id="SVGID_39_" cx="616.7946" cy="503.8198" r="8.8085" gradientTransform="matrix(0.817 0.2886 -1.341017e-02 3.720671e-02 -100.5408 -137.8757)" gradientUnits="userSpaceOnUse">
					<stop  offset="0.1946" style="stop-color:#3FACFF"/>
					<stop  offset="0.2657" style="stop-color:#3591D7"/>
					<stop  offset="0.4099" style="stop-color:#225E8C"/>
					<stop  offset="0.5389" style="stop-color:#143650"/>
					<stop  offset="0.6478" style="stop-color:#091924"/>
					<stop  offset="0.7324" style="stop-color:#02070A"/>
					<stop  offset="0.7824" style="stop-color:#000000"/>
				</radialGradient>
				<path class="st49" d="M403.8,61.4c-0.1,0.3-3.4-0.5-7.4-2c-4-1.4-7.1-2.8-7-3.1c0.1-0.3,3.4,0.5,7.4,2
					C400.8,59.6,403.9,61.1,403.8,61.4z"/>
			</g>
		</g>
	</g>
</g>
<g>
	<g id="Group_938_6_" transform="translate(-953.348 -232.003)">
		<g id="Group_931_6_">
			<path id="Path_8573_6_" class="st14" d="M1399.5,633.2c-2.6,1.3-5.1,2.8-7.4,4.4l-0.4-0.3c-2.5-1.9-5.3-3.5-8.3-4.8
				c-0.9-0.4-4.2-1.5-5.4-1.8c-3.4-0.9-6.1-1.3-9.4-1.3c-0.1,0-0.2,0-0.4,0c-0.9-2.8-2-5.5-3.3-8.1c11.3-1.6,22.7,1.7,31.5,9
				c0.9,0.8,1.8,1.6,2.7,2.5L1399.5,633.2z"/>
			<path id="Path_8574_6_" class="st14" d="M1402.3,683.3c-2.9,3.7-6.4,6.8-10.4,9.1c-2.2,1.3-4.4,2.3-6.8,3.2
				c-5.5,2-11.3,2.7-17.1,2.2c-6.4-0.6-12.6-2.7-18-6.2c-4.9-3.1-9-7.3-12.1-12.2c-1.3-2.1-2.4-4.4-3.4-6.7
				c-4.8-12.5-2.8-26.5,5.5-37.1c1.5-1.9,3.3-3.7,5.1-5.4c0.9-0.7,1.9-1.5,2.4-1.9c-0.5,5.2-0.6,9.8-0.6,11.5
				c-0.1,0.1-0.1,0.1-0.2,0.2c-4.6,4.5-7.8,9.3-10.1,14.8c0,0.1-0.1,0.1-0.1,0.2c-0.7,1.6-0.9,2.5-1,3.6c-0.3,3.6,1.2,8.2,4.1,13.2
				c4.9,8.2,12.7,15.6,19.6,18.5c7.2,3,19.5,2.5,28.9-1.3c1.5-0.6,2.9-1.3,4.3-2.1c1-0.6,2.6-1.7,2.5-1.7c0,0,0,0,0.1,0
				c0,0,0.1,0,0.1-0.1c0,0,0,0,0.1,0s0.1,0,0.1,0c0,0,0,0,0.1,0c0,0,0.1,0,0.1-0.1c0,0,0,0,0,0c0,0,0.1,0,0.1,0c0,0,0,0,0.1,0
				c0,0,0.1,0,0.1,0c0.1-0.1,0.2-0.2,0.2-0.2c0.3-0.2,1.4-1.2,1.6-1.4c1.2-1.3,2-2.5,2.7-3.7c0.3-0.6,0.8-1.8,0.8-2
				c0-0.1,0-0.1,0.1-0.3c0.1-0.2,0.2-0.6,0.3-0.9c0.2-0.5,0.4-1.3,0.4-1.6c1.3-5.4,1.4-10.2,0.5-15.6c0-0.2-0.1-0.4-0.1-0.6
				c0,0,0-0.1,0-0.1l0,0c0.7-1,3.7-5,6.7-9.7l0,0l0.1,0.3c0.2,0.5,0.5,2,0.7,2.7c0.7,3.2,1,6.5,0.9,9.8
				C1410,669.4,1407.2,677,1402.3,683.3z"/>
			<path id="Path_8575_6_" d="M1392.1,664.2c-0.1,0.2-0.8,0.5-1.5,0.8c-2,0.6-5.2,0.7-8.3,0.2c-1.8-0.3-3.4-0.8-3.8-1.2
				c-0.3-0.3-0.3-0.4,0-0.8c0.5-0.8,1.7-1.5,3.2-1.9c0.8-0.2,3.8-0.9,5.2-1.1c2.3-0.4,4.1-0.5,5.2-0.3c0.4,0.1,0.8,0.2,0.9,0.3
				c0.2,0.2,0.2,0.8,0,1.6C1392.8,662.2,1392.2,664,1392.1,664.2z"/>
			<path id="Path_8576_6_" d="M1363.5,658.7c-0.1,0.1-0.5,0.1-0.9,0.1c-0.4-0.1-1.6-0.5-2.3-0.8c-2.3-1.2-4.7-2.8-6.3-4.4
				c-0.9-0.9-1.5-1.7-1.8-2.4l-0.2-0.4l0.1-0.5c0.2-0.8,0.6-2,0.9-2.4c0.2-0.3,0.4-0.6,0.7-0.9c0.1-0.1,0.1-0.1,0.5,0.1
				c0.5,0.2,0.9,0.4,1.5,0.9c1.3,0.9,3,2.7,5.1,5.2c1.7,2,2.3,2.9,2.6,4C1363.6,657.7,1363.6,658.5,1363.5,658.7z"/>
			<path id="Path_8577_6_" d="M1374.3,680.5c0,0-0.3,0.5-0.7,1.1c-0.4,0.6-0.7,1.1-0.7,1.1c-0.1,0-0.3-0.1-0.4-0.1l-0.4-0.1l-0.9,1
				c-0.5,0.6-1,1.1-1,1.2l-0.1,0.1l-0.1-0.5l-0.1-0.5l1.1-3.2l-0.1,0c-0.2,0-1.7-0.3-2.3-0.5c-2.6-0.6-5.1-1.6-7.5-2.8
				c-0.4-0.2-0.7-0.4-0.7-0.4c0,0-0.3,0.8-0.6,1.7l-0.5,1.7l-0.3,0.2c-0.2,0.1-0.3,0.2-0.3,0.2c0,0-0.1-0.2-0.2-0.8
				c-0.1-0.7-0.1-1.3,0-2l0-0.4l-0.4-0.1l-0.4-0.1l0.1-0.5c0-0.2,0.1-0.6,0.1-0.8l0.1-0.4l-0.2-0.4c-0.1-0.2-0.2-0.4-0.3-0.5
				c0-0.1,0-0.2,0-0.2l0-0.1l1.4,0.5l1.4,0.5l0,0.2l0,0.2l0.5,0.2c0.3,0.1,1.1,0.4,1.9,0.7l1.4,0.5l0.6-0.5l0.6-0.4l0.5,0.2l0.4-1.2
				l0.4-1.2l-0.5-0.5c-1.7-1.6-2.6-3.1-2.6-4.5c0-0.3,0-0.4,0.4-1.5c0.4-1.2,0.4-1.3,0.6-1.5c0.4-0.5,1-0.8,1.6-0.8
				c0.2,0,0.7,0.2,3.5,1.1l3.2,1.1l0.3,0.3c0.4,0.4,0.5,0.6,0.6,1c0.2,0.5,0.1,0.8-0.1,1.5c-0.3,1-0.7,1.9-0.9,2.2
				c-0.3,0.4-0.7,0.8-1.1,1.1c-0.8,0.5-2.1,0.9-3.2,0.9l-0.3,0l-0.4,1.2l-0.4,1.2l0.2,0.1l0.2,0.1l0.2,0.6l0.2,0.6l1.6,0.5
				c0.9,0.3,1.6,0.6,1.7,0.6c0.1,0.1,0.1,0.1,0.3-0.1l0.2-0.2l1.3,0.5C1374,680.3,1374.3,680.4,1374.3,680.5z"/>
			<path id="Path_8578_6_" d="M1367.1,681.7c-0.3,0.1-0.4,0.1-0.5,0c0,0-0.1-0.2-0.3-0.4l-0.2-0.4l-0.4,0.2c-1,0.5-1,0.5-1.2,0.5
				c-0.3-0.1-0.4-0.2-0.6-0.9c-0.1-0.4-0.2-0.7-0.2-0.7s-0.1-0.1-0.3-0.1l-0.3-0.1l-0.3,0.3l-0.3,0.3l-0.2-0.2
				c-0.2-0.1-0.4-0.3-0.5-0.5l-0.3-0.3l0.2-0.7l3.1,1.1l3.1,1.1l-0.1,0.3C1367.7,681.6,1367.7,681.6,1367.1,681.7z"/>
		</g>
		<path id="Path_8579_6_" class="st13" d="M1400.9,677.5c0-0.1,0-0.1,0.1-0.3c-2.7-1.3-10.5-4.2-20-0.6c0,0,1.4-11.7-9.7-15.5
			c-11.1-3.8-19,5.6-19,5.6c-3.9-8.8-12.4-11.2-15.6-11.8c0,0.1-0.1,0.1-0.1,0.2c-0.7,1.6-0.9,2.5-1,3.6c-0.3,3.6,1.2,8.2,4.1,13.2
			c4.9,8.2,12.7,15.6,19.6,18.5c7.2,3,19.5,2.5,28.9-1.3c1.5-0.6,2.9-1.3,4.3-2.1c1-0.6,2.6-1.7,2.5-1.7c0,0,0,0,0.1,0
			c0,0,0.1,0,0.1-0.1c0,0,0,0,0.1,0c0,0,0.1,0,0.1,0c0,0,0,0,0.1,0c0,0,0.1,0,0.1-0.1c0,0,0,0,0,0c0,0,0.1,0,0.1,0c0,0,0,0,0.1,0
			c0,0,0.1,0,0.1,0c0.1-0.1,0.2-0.2,0.2-0.2c0.3-0.2,1.4-1.2,1.6-1.4c1.2-1.3,2-2.5,2.7-3.7C1400.3,678.9,1400.8,677.8,1400.9,677.5
			z M1367.1,681.7c-0.3,0.1-0.4,0.1-0.5,0c0,0-0.1-0.2-0.3-0.4l-0.2-0.4l-0.4,0.2c-1,0.5-1,0.5-1.2,0.5c-0.3-0.1-0.4-0.2-0.6-0.9
			c-0.1-0.4-0.2-0.7-0.2-0.7s-0.1-0.1-0.3-0.1l-0.3-0.1l-0.3,0.3l-0.3,0.3l-0.2-0.2c-0.2-0.1-0.4-0.3-0.5-0.5l-0.3-0.3l0.2-0.7
			l3.1,1.1l3.1,1.1l-0.1,0.3C1367.7,681.6,1367.7,681.6,1367.1,681.7z M1373.6,681.6c-0.4,0.6-0.7,1.1-0.7,1.1
			c-0.1,0-0.3-0.1-0.4-0.1l-0.4-0.1l-0.9,1c-0.5,0.6-1,1.1-1,1.2l-0.1,0.1l-0.1-0.5l-0.1-0.5l1.1-3.2l-0.1,0c-0.2,0-1.7-0.3-2.3-0.5
			c-2.6-0.6-5.1-1.6-7.5-2.8c-0.4-0.2-0.7-0.4-0.7-0.4c0,0-0.3,0.8-0.6,1.7l-0.5,1.7l-0.3,0.2c-0.2,0.1-0.3,0.2-0.3,0.2
			c0,0-0.1-0.2-0.2-0.8c-0.1-0.7-0.1-1.3,0-2l0-0.4l-0.4-0.1l-0.4-0.1l0.1-0.5c0-0.2,0.1-0.6,0.1-0.8l0.1-0.4l-0.2-0.4
			c-0.1-0.2-0.2-0.4-0.3-0.5c0-0.1,0-0.2,0-0.2l0-0.1l1.4,0.5l1.4,0.5l0,0.2l0,0.2l0.5,0.2c0.3,0.1,1.1,0.4,1.9,0.7l1.4,0.5l0.6-0.5
			l0.6-0.4l0.5,0.2l0.4-1.2l0.4-1.2l-0.5-0.5c-1.7-1.6-2.6-3.1-2.6-4.5c0-0.3,0-0.4,0.4-1.5c0.4-1.2,0.4-1.3,0.6-1.5
			c0.4-0.5,1-0.8,1.6-0.8c0.2,0,0.7,0.2,3.5,1.1l3.2,1.1l0.3,0.3c0.4,0.4,0.5,0.6,0.6,1c0.2,0.5,0.1,0.8-0.1,1.5
			c-0.3,1-0.7,1.9-0.9,2.2c-0.3,0.4-0.7,0.8-1.1,1.1c-0.8,0.5-2.1,0.9-3.2,0.9l-0.3,0l-0.4,1.2l-0.4,1.2l0.2,0.1l0.2,0.1l0.2,0.6
			l0.2,0.6l1.6,0.5c0.9,0.3,1.6,0.6,1.7,0.6c0.1,0.1,0.1,0.1,0.3-0.1l0.2-0.2l1.3,0.5c1,0.4,1.3,0.5,1.3,0.5
			C1374.3,680.5,1374,681,1373.6,681.6z"/>
		<path id="Path_8580_6_" class="st15" d="M1336.6,654.9c-0.8-0.1-1.2-0.2-1.2-0.2"/>
		<path id="Path_8581_6_" class="st15" d="M1401.9,677.7c0,0-0.3-0.2-1-0.5"/>
		<path id="Path_8582_6_" class="st16" d="M1401.2,676.3c0.2-0.5,0.4-1.3,0.4-1.6c1.3-5.4,1.4-10.2,0.5-15.6c0-0.2-0.1-0.4-0.1-0.6
			c0,0,0-0.1,0-0.1l0,0c0.7-1,3.7-5,6.7-9.7c4-6.4,7.8-14.3,5.6-17.8c0,0-5.2-2.2-14.7,2.3c-2.6,1.3-5.1,2.8-7.4,4.4l-0.4-0.3
			c-2.5-1.9-5.3-3.5-8.3-4.8c-0.9-0.4-4.2-1.5-5.4-1.8c-3.4-0.9-6.1-1.3-9.4-1.3c-0.1,0-0.2,0-0.4,0c-0.9-2.8-2-5.5-3.3-8.1
			c-5-9.6-10.7-11.1-10.7-11.1c-4.1,1.4-6,10.3-6.8,18.1c-0.5,5.2-0.6,9.8-0.6,11.5c-0.1,0.1-0.1,0.1-0.2,0.2
			c-4.6,4.5-7.8,9.3-10.1,14.8c3.2,0.6,11.7,3,15.6,11.8c0,0,7.9-9.5,19-5.6c11.1,3.8,9.7,15.5,9.7,15.5c9.5-3.5,17.3-0.6,20,0.6
			C1401,677,1401.1,676.6,1401.2,676.3z M1350.6,636.3c0,0-0.6-12.3,2.6-18.1l0,0c0.5-1,1.2-1.8,2-2.3c0,0,4.7,2.2,9.6,13.7
			c0,0-1.8,0.2-4.3,1.1c0,0,0,0,0,0C1357.8,631.6,1354.1,633.3,1350.6,636.3L1350.6,636.3z M1363.5,658.7c-0.1,0.1-0.5,0.1-0.9,0.1
			c-0.4-0.1-1.6-0.5-2.3-0.8c-2.3-1.2-4.7-2.8-6.3-4.4c-0.9-0.9-1.5-1.7-1.8-2.4l-0.2-0.4l0.1-0.5c0.2-0.8,0.6-2,0.9-2.4
			c0.2-0.3,0.4-0.6,0.7-0.9c0.1-0.1,0.1-0.1,0.5,0.1c0.5,0.2,0.9,0.4,1.5,0.9c1.3,0.9,3,2.7,5.1,5.2c1.7,2,2.3,2.9,2.6,4
			C1363.6,657.7,1363.6,658.5,1363.5,658.7z M1392.1,664.2c-0.1,0.2-0.8,0.5-1.5,0.8c-2,0.6-5.2,0.7-8.3,0.2
			c-1.8-0.3-3.4-0.8-3.8-1.2c-0.3-0.3-0.3-0.4,0-0.8c0.5-0.8,1.7-1.5,3.2-1.9c0.8-0.2,3.8-0.9,5.2-1.1c2.3-0.4,4.1-0.5,5.2-0.3
			c0.4,0.1,0.8,0.2,0.9,0.3c0.2,0.2,0.2,0.8,0,1.6C1392.8,662.2,1392.2,664,1392.1,664.2z M1397.1,643.2L1397.1,643.2
			c-1.4-2.2-2.6-3.5-2.6-3.5c10.7-6.2,15.6-5,15.6-5c0.3,0.9,0.3,1.9,0.1,3l0,0c-1,6.6-9,16-9,16
			C1400.6,650,1399.2,646.4,1397.1,643.2L1397.1,643.2z"/>
		<path id="Path_8583_6_" class="st15" d="M1392.1,637.6C1392,637.6,1392,637.7,1392.1,637.6"/>
		<path id="Path_8584_6_" class="st15" d="M1402,658.3c-0.1,0.1-0.2,0.2-0.2,0.2"/>
		<g id="Group_934_6_">
			<g id="Group_933_6_">
				<g id="Group_932_6_">
					<path id="Path_8585_6_" class="st17" d="M1410.2,637.8c-0.9-0.4-5.1-1.9-13.1,5.5l0,0c-1.4-2.2-2.6-3.5-2.6-3.5
						c10.7-6.2,15.6-5,15.6-5C1410.4,635.6,1410.4,636.7,1410.2,637.8z"/>
				</g>
				<path id="Path_8586_6_" class="st18" d="M1401.3,653.7c-0.7-3.7-2.1-7.3-4.1-10.5c8-7.4,12.2-5.9,13.1-5.5l0,0
					C1409.2,644.3,1401.3,653.7,1401.3,653.7z"/>
				<path id="Path_8587_6_" class="st18" d="M1410.4,637.9c-0.1,0-0.1-0.1-0.2-0.1L1410.4,637.9z"/>
			</g>
		</g>
		<path id="Path_8588_6_" class="st15" d="M1368.5,630c-0.1-0.2-0.1-0.4-0.2-0.6"/>
		<path id="Path_8589_6_" class="st15" d="M1346.9,639.9c0,0.4,0,0.7,0,0.7"/>
		<g id="Group_937_6_">
			<g id="Group_936_6_">
				<g id="Group_935_6_">
					<path id="Path_8590_6_" class="st17" d="M1364.9,629.6c0,0-1.8,0.2-4.3,1.1c0,0,0,0,0,0c-1.9-10.8-6.3-12.3-7.3-12.5
						c0.5-1,1.2-1.8,2-2.3C1355.2,615.9,1360,618.1,1364.9,629.6z"/>
				</g>
				<path id="Path_8591_6_" class="st18" d="M1360.6,630.7c-2.8,0.9-6.5,2.6-9.9,5.6c0,0-0.6-12.3,2.6-18.1l0,0
					C1354.2,618.4,1358.7,619.9,1360.6,630.7z"/>
				<path id="Path_8592_6_" class="st18" d="M1353.3,618.2c-0.1,0-0.1,0-0.2,0L1353.3,618.2z"/>
			</g>
		</g>
		<path id="Path_8593_6_" class="st13" d="M1387.5,655.7c0,0-3.8-1-2.3-3.8c1.5-2.7,4.5-2.1,5.2-1.7c0.8,0.4,3.6,2.7,2.2,4.9
			c-1.4,2.2-2.1,1.5-2.6,1.4C1389.5,656.5,1387.5,655.7,1387.5,655.7z"/>
		<path id="Path_8594_6_" class="st13" d="M1360.2,646.3c0,0-3.8-1-2.3-3.8c1.5-2.7,4.5-2.1,5.2-1.7s3.6,2.7,2.2,4.9
			c-1.4,2.2-2.1,1.5-2.6,1.4C1362.2,647.1,1360.2,646.3,1360.2,646.3z"/>
	</g>
	<g>
		<g>
			<g>
				
					<radialGradient id="SVGID_40_" cx="745.9227" cy="658.8386" r="12.8529" gradientTransform="matrix(0.8533 0.311 -7.753257e-02 0.2038 -162.5 43.5698)" gradientUnits="userSpaceOnUse">
					<stop  offset="0" style="stop-color:#525458"/>
					<stop  offset="1" style="stop-color:#2B2D31"/>
				</radialGradient>
				<path class="st50" d="M449.1,422l-51.6-18.2c0,0,1-0.1,2.5-0.1c1,0,2.2,0,3.3,0.2c0.3,0,0.5,0.1,0.7,0.1
					c3,0.6,10.3,3.9,19.4,7.1c9.2,3.2,18.3,5.6,20.6,6.8c0.2,0.1,0.4,0.2,0.5,0.3c1.2,0.7,2,1.3,2.7,1.9
					C448.6,421.2,449.1,422,449.1,422z"/>
				<path class="st20" d="M444.6,418.2c-1.8-0.6-4.5-1.4-7.5-2.3c-4.1-1.2-9.2-2.7-14.1-4.4c-5.3-1.8-9.9-3.7-13.6-5.2
					c-2.5-1-4.5-1.8-6.1-2.4c-1.2-0.2-2.3-0.2-3.3-0.2c0.4,0.1,0.8,0.1,1.2,0.2c1.6,0.4,4.4,1.5,8,3c3.7,1.5,8.3,3.4,13.6,5.2
					c5,1.7,10.1,3.2,14.2,4.4c4.6,1.4,8.2,2.4,9.6,3.1c0.3,0.2,0.6,0.3,0.8,0.5C446.6,419.5,445.7,418.9,444.6,418.2z"/>
			</g>
			<g>
				
					<linearGradient id="SVGID_41_" gradientUnits="userSpaceOnUse" x1="700.2404" y1="560.6887" x2="700.2404" y2="527.7449" gradientTransform="matrix(0.9456 0.3252 -0.3252 0.9456 -64.3257 -323.6375)">
					<stop  offset="0" style="stop-color:#2C2E32"/>
					<stop  offset="8.428930e-02" style="stop-color:#55575B"/>
					<stop  offset="0.3288" style="stop-color:#2A2C30"/>
					<stop  offset="0.521" style="stop-color:#54565A"/>
					<stop  offset="1" style="stop-color:#26252B"/>
				</linearGradient>
				<path class="st51" d="M450,427.7c0.7-5.9-1.3-7.4-8.7-9.5c-3.4-1-7.5-2.2-10.9-3.2c-5-1.5-9.9-3.2-14.7-5.1
					c-3.4-1.3-7.4-2.9-10.6-4.2c-7.1-2.9-9.6-2.9-12.7,2.2c-3.1,5.1-5.8,14.9-1.6,17.2c4.2,2.3,13.9,5.3,20,7.2
					c3.3,1,6.5,2.1,9.7,3.3c6,2.3,16.7,6.3,20.2,6.7C445.4,442.7,449.3,433.6,450,427.7z"/>
				
					<radialGradient id="SVGID_42_" cx="746.7172" cy="679.2278" r="25.1402" gradientTransform="matrix(0.8589 0.2954 -0.4278 1.2437 68.2352 -642.1644)" gradientUnits="userSpaceOnUse">
					<stop  offset="0" style="stop-color:#3FB6FF"/>
					<stop  offset="9.795301e-02" style="stop-color:#3EB1F8"/>
					<stop  offset="0.2456" style="stop-color:#3BA3E3"/>
					<stop  offset="0.4245" style="stop-color:#378CC1"/>
					<stop  offset="0.6278" style="stop-color:#316C92"/>
					<stop  offset="0.8489" style="stop-color:#294356"/>
					<stop  offset="1" style="stop-color:#24252A"/>
				</radialGradient>
				<path class="st52" d="M432.5,438.5c-4-1.4-8.3-3-11.4-4.2c-1.6-0.6-3.3-1.2-4.9-1.8c-1.6-0.6-3.3-1.1-5-1.6l-0.5-0.2
					c-3.1-1-7-2.2-10.6-3.4c-4-1.4-6.8-2.5-8.5-3.4c-0.9-0.5-1.5-2.5-1-6c0.5-3,1.8-6.7,3.4-9.2c2.4-3.9,3.8-4.1,7.9-2.7
					c0.7,0.2,1.6,0.6,2.6,1c2.7,1.1,6.3,2.5,10.6,4.2c2.4,0.9,4.9,1.9,7.4,2.7c2.5,0.9,5,1.7,7.5,2.4c4.4,1.3,8.1,2.4,11,3.2
					c1,0.3,1.9,0.6,2.6,0.8c4.1,1.4,5.1,2.4,4.6,7c-0.3,3-1.5,6.6-3,9.2c-1.8,3.3-3.6,4.3-4.6,4.2
					C439.7,440.7,437.6,440.2,432.5,438.5C432.5,438.5,432.5,438.5,432.5,438.5z"/>
				
					<radialGradient id="SVGID_43_" cx="753.3635" cy="662.7338" r="37.5126" gradientTransform="matrix(0.8589 0.2954 -0.2218 0.6449 -71.6545 -235.4417)" gradientUnits="userSpaceOnUse">
					<stop  offset="0" style="stop-color:#525458"/>
					<stop  offset="1" style="stop-color:#2B2D31"/>
				</radialGradient>
				<path class="st53" d="M432.6,438.1c-4-1.4-8.3-3-11.4-4.2c-1.6-0.6-3.3-1.2-4.9-1.8c-1.6-0.6-3.3-1.1-5-1.6l-0.5-0.2
					c-3.1-1-7-2.2-10.5-3.4c-3.9-1.4-6.8-2.5-8.4-3.4c-0.6-0.3-1.2-2.1-0.7-5.5c0.5-3,1.8-6.6,3.3-9.1c2.3-3.8,3.5-3.8,7.3-2.5
					c0.7,0.2,1.5,0.6,2.5,1c2.7,1.1,6.3,2.5,10.7,4.2c2.4,0.9,4.9,1.9,7.4,2.7c2.5,0.9,5,1.7,7.5,2.4c4.4,1.3,8.1,2.4,11,3.2
					c1,0.3,1.9,0.6,2.6,0.8c3.8,1.3,4.7,2.1,4.2,6.5c-0.3,2.9-1.5,6.5-3,9.1c-1.7,3.1-3.4,4.1-4.2,4
					C439.8,440.3,437.9,439.9,432.6,438.1z"/>
				
					<radialGradient id="SVGID_44_" cx="783.3697" cy="1353.0302" r="17.5613" gradientTransform="matrix(0.817 0.2886 -1.341017e-02 3.720671e-02 -199.7561 137.3985)" gradientUnits="userSpaceOnUse">
					<stop  offset="0.1947" style="stop-color:#3FACFF"/>
					<stop  offset="0.2658" style="stop-color:#3591D7"/>
					<stop  offset="0.41" style="stop-color:#225E8C"/>
					<stop  offset="0.5389" style="stop-color:#143650"/>
					<stop  offset="0.6478" style="stop-color:#091924"/>
					<stop  offset="0.7324" style="stop-color:#02070A"/>
					<stop  offset="0.7824" style="stop-color:#000000"/>
				</radialGradient>
				<path class="st54" d="M436.4,418.8c-0.2,0.7-6.9-1.1-14.8-3.9c-7.9-2.8-14.2-5.6-14-6.3c0.2-0.7,6.9,1.1,14.8,3.9
					S436.7,418.2,436.4,418.8z"/>
				
					<radialGradient id="SVGID_45_" cx="783.6931" cy="1403.983" r="17.5613" gradientTransform="matrix(0.817 0.2886 -1.341017e-02 3.720671e-02 -205.7091 153.9151)" gradientUnits="userSpaceOnUse">
					<stop  offset="0.1946" style="stop-color:#3FACFF"/>
					<stop  offset="0.2657" style="stop-color:#3591D7"/>
					<stop  offset="0.4099" style="stop-color:#225E8C"/>
					<stop  offset="0.5389" style="stop-color:#143650"/>
					<stop  offset="0.6478" style="stop-color:#091924"/>
					<stop  offset="0.7324" style="stop-color:#02070A"/>
					<stop  offset="0.7824" style="stop-color:#000000"/>
				</radialGradient>
				<path class="st55" d="M430,437.3c-0.2,0.7-6.9-1.1-14.8-3.9c-7.9-2.8-14.2-5.6-14-6.3c0.2-0.7,6.9,1.1,14.8,3.9
					C424,433.9,430.3,436.7,430,437.3z"/>
			</g>
		</g>
	</g>
</g>
</svg>
