<?xml version="1.0" encoding="utf-8"?>
<!-- Generator: Adobe Illustrator 23.0.5, SVG Export Plug-In . SVG Version: 6.00 Build 0)  -->
<svg version="1.1" id="Layer_1" xmlns="http://www.w3.org/2000/svg" xmlns:xlink="http://www.w3.org/1999/xlink" x="0px" y="0px"
	 viewBox="0 0 512 512" style="enable-background:new 0 0 512 512;" xml:space="preserve">
<style type="text/css">
	.st0{fill:#EDF6FF;}
	.st1{fill:#6B3C34;}
	.st2{fill:#C7DFFF;}
	.st3{fill:#EAF1EE;}
	.st4{fill:#3A3F47;}
	.st5{fill:url(#SVGID_1_);}
	.st6{fill:url(#SVGID_2_);}
	.st7{fill:#D4BCAB;}
	.st8{fill:#FF8300;}
	.st9{fill:#FEB9B8;}
	.st10{fill:#7D6460;}
	.st11{fill:url(#SVGID_3_);}
	.st12{fill:#4079FF;}
	.st13{fill:url(#SVGID_4_);}
	.st14{fill:#FF9729;}
	.st15{fill:url(#SVGID_5_);}
	.st16{fill:url(#SVGID_6_);}
	.st17{fill:url(#SVGID_7_);}
	.st18{fill:#754942;}
	.st19{fill:url(#SVGID_8_);}
	.st20{fill:url(#SVGID_9_);}
	.st21{fill:url(#SVGID_10_);}
	.st22{fill:#2A2B2B;}
	.st23{fill:#B9B9B9;}
	.st24{fill:#E7E7E7;}
	.st25{fill:#1B1C1C;}
	.st26{opacity:0.53;}
	.st27{clip-path:url(#SVGID_13_);}
	.st28{clip-path:url(#SVGID_14_);fill:url(#SVGID_15_);}
	.st29{fill:url(#SVGID_16_);}
	.st30{fill:#86DFEB;}
	.st31{clip-path:url(#SVGID_19_);}
	.st32{clip-path:url(#SVGID_20_);fill:url(#SVGID_21_);}
	.st33{opacity:0.46;fill:url(#SVGID_22_);enable-background:new    ;}
	.st34{clip-path:url(#SVGID_25_);}
	.st35{clip-path:url(#SVGID_26_);fill:url(#SVGID_27_);}
	.st36{opacity:0.53;fill:url(#SVGID_28_);enable-background:new    ;}
	.st37{opacity:0.54;fill:#65C5D2;enable-background:new    ;}
	.st38{clip-path:url(#SVGID_31_);}
	.st39{clip-path:url(#SVGID_32_);fill:url(#SVGID_33_);}
	.st40{opacity:0.53;fill:url(#SVGID_34_);enable-background:new    ;}
	.st41{clip-path:url(#SVGID_37_);}
	.st42{clip-path:url(#SVGID_38_);fill:url(#SVGID_39_);}
	.st43{opacity:0.53;fill:url(#SVGID_40_);enable-background:new    ;}
	.st44{fill:url(#SVGID_41_);}
	.st45{fill:url(#SVGID_42_);}
	.st46{fill:url(#SVGID_43_);}
	.st47{fill:url(#SVGID_44_);}
	.st48{fill:url(#SVGID_45_);}
</style>
<g>
	<g>
		
			<ellipse transform="matrix(5.422812e-03 -1 1 5.422812e-03 -130.7295 639.3085)" class="st0" cx="256" cy="385.4" rx="120.6" ry="208.9"/>
	</g>
	<g>
		<path class="st1" d="M324.7,24.7c-4.5-6.6,5-19.5,10.9-18.6c8.2,1.2,17.5,7.3,12.3,25.1c-4.3,14.7-3.6,25.5,10.7,25.8
			c-8.9,12.2-26.7,6.4-28-2.8s1.5-20-1.3-20.9C326.5,32.6,324.7,24.7,324.7,24.7z"/>
		<path class="st2" d="M337.3,19.8c3-1.8,2.2-13.4-7-10.7C321.2,11.9,337.3,19.8,337.3,19.8z"/>
		
			<ellipse transform="matrix(1 -5.424620e-03 5.424620e-03 1 -1.8745 1.6954)" class="st3" cx="311.6" cy="346.4" rx="59.3" ry="34.2"/>
		<g>
			<path class="st4" d="M276,358.2c-1.5,2.3-2.7,3.9-2.4,5.5c0.3,1.5,0.2,2.2,1.3,2.8c1.1,0.7,6.6,3.2,10.2,1.9
				c3.7-1.3,10.7-9,11.7-11.5c1-2.6,2.6-5.1,2.6-5.1l2.8-3c0,0,1.2-0.1,1.8,0c0.6,0.1,4.8-3.8,5.4-4.9c0.5-1.1,0.1-4.6-0.8-6.3
				c-1-1.7-2-2.2-2.6-2.3C305.4,335,276,358.2,276,358.2z"/>
			<path class="st4" d="M328.1,337.7c0.1,4.4,0.2,6.1,1,8.8c0.8,2.6,2.3,3,5.8,3.2c3.6,0.2,6,0.1,9.6-3.2c3.7-3.3,3.1-7.4,3.3-8.3
				c0.1-1-1.5-4.2-1.9-5.6c-0.4-1.5-5.5-3.7-6.1-3.9C339.2,328.4,328.1,337.7,328.1,337.7z"/>
			
				<linearGradient id="SVGID_1_" gradientUnits="userSpaceOnUse" x1="251.9774" y1="415.9003" x2="294.9018" y2="415.9003" gradientTransform="matrix(1 0 0 -1 0 512)">
				<stop  offset="4.947920e-02" style="stop-color:#FEB9B8"/>
				<stop  offset="0.9922" style="stop-color:#FEA5A4"/>
			</linearGradient>
			<path class="st5" d="M291.9,92.3c-1.8,4.1-8.4,9.3-13,13.3s-9,6.2-14.3,8.8c-0.4,0.2-0.8,0.4-1.2,0.6l0,0
				c-4.8,2.2-9.4,3.3-10.9,0.4c-0.1-0.1-0.1-0.3-0.1-0.4c-1.2-3.5,0.8-11.7,2-13.4c0.5-0.7,2.2-2,4.2-3.6c0.2-0.1,0.4-0.3,0.5-0.4
				c0.8-0.6,1.7-1.3,2.5-1.9c2.3-1.8,8.6-7.4,9.7-8.5c2.6-2.6,5.9-8.6,10-11.5l0,0c0,0,9.1-2.4,12.2,2
				C296.6,82.1,293.7,88.2,291.9,92.3z"/>
			
				<linearGradient id="SVGID_2_" gradientUnits="userSpaceOnUse" x1="230.24" y1="422.4133" x2="263.7381" y2="422.4133" gradientTransform="matrix(1 0 0 -1 0 512)">
				<stop  offset="4.947920e-02" style="stop-color:#FEB9B8"/>
				<stop  offset="0.9922" style="stop-color:#FEA5A4"/>
			</linearGradient>
			<path class="st6" d="M263.6,113.9c0,0.4-0.1,0.7-0.3,1.1l0,0c-0.5,1.3-4.7,2.4-8.6,2.5s-6.4-4-8-8.8S245.2,96,245.2,96
				s-0.4-0.7-1.6-1.8c-1.1-1-2.2-2.6-3.5-4.7c-0.1-0.3-0.3-0.5-0.5-0.7c-0.9-1.3-2.2-2.8-3.1-3.9l0,0c-0.7-0.8-1.2-1.4-1.2-1.4
				s-0.1,0.4-0.3,0.7c-0.3,0.4-0.6,0.7-1.2,0.6c-1.2-0.1-3.2-3.5-3.4-4.4c-0.3-0.9,1-4.2,1.2-4.5c0.1-0.2,1-0.6,1.6-0.9
				c0.1,0,0.2-0.1,0.3-0.1c0.3-0.1,0.5-0.2,0.5-0.2s0.5-1.6,1.2-2.5c0.7-1,1.5-0.3,1.5-0.3s0.7-0.8,1.1-1.2c0.4-0.4,2-0.8,2.5-0.6
				c0.2,0.1,0.9,0.3,1.7,0.6c1.3,0.4,2.9,0.9,2.9,0.9s-4.7-6.9-4.6-8c0-0.3,0.1-0.6,0.2-0.9c0.2-0.7,0.8-1.3,1.9-0.9
				c1.6,0.5,2.8,3.2,4.7,5.8c1.9,2.6,2.7,7.5,3.3,9s3.7,8,3.7,8s1.1,2.8,1.6,5.1c0.2,0.7,0.3,1.3,0.3,1.8c0,0.6,0,1,0,1.4
				c0.1,1,0.5,1.3,1.6,3.5c0.3,0.6,0.6,1.1,0.9,1.7c1.3,2.3,2.9,4.2,2.9,4.2C262.5,104.5,264.2,110.4,263.6,113.9z"/>
			<path class="st7" d="M247,77.1c-0.3,0.5-0.8,0.8-1.1,1.3c-0.5,0.7-0.5,1.7-1.1,2.3c-0.4,0.3-0.8,0.5-1.2,0.7
				c-0.7,0.4-1.1,1.3-1.7,1.8c-0.8,0.6-1.8,0.7-2.7,1.1c-0.4,0.2-0.8,0.5-1.3,0.7s-1,0.2-1.4-0.1l0,0c-0.7-0.8-1.2-1.4-1.2-1.4
				s-0.1,0.4-0.3,0.7c0-0.2,0-0.4-0.1-0.6c-0.1-0.6-0.4-1.2-0.7-1.7c-1.1-2.1-1.8-4.7-1-6.9c0.1,0,0.2-0.1,0.3-0.1
				c-0.1,1.3,0.1,2.6,0.4,3.9c0.2,1,0.4,2.2,1.1,3c0.5,0.6,1.2,1.8,2.1,2c0.5,0.1,1.1-0.1,1.1-0.6c0.1-0.4-0.2-0.8-0.4-1.2
				c-1.8-2.5-2.5-5.9-1.8-8.9c0.2,1.5,0.5,3,0.9,4.5c0.3,1.3,0.6,2.6,1.4,3.6c0.3,0.4,0.7,0.7,1.1,0.8c0.5,0.1,1,0,1.3-0.5
				c0.2-0.3,0.2-0.7,0.1-1c-0.2-1.7-0.8-3.6,0-5.1c0.5,0.9,1,1.8,1.5,2.7c0.2,0.4,0.6,0.8,1,0.6c0.2-0.8,1-1.3,1.3-2
				c0.5-1.1-0.2-2.3-0.9-3.3c-0.6-1-1.2-2-1.6-3c1.3,0.4,2.9,0.9,2.9,0.9s-4.7-6.9-4.6-8c0-0.3,0.1-0.6,0.2-0.9
				c0.5,0.9,0.5,1.9,0.9,2.9c0.4,1.1,1.2,1.9,1.8,2.9c1.4,1.8,2.4,3.9,3.4,6C246.9,75.3,247.4,76.3,247,77.1z"/>
			<path class="st7" d="M261.9,102.2c-0.9-1.6-1.8-3-2.8-4.5c0.8-0.6,1.7-1.3,2.5-1.9c-0.1,0.3-0.2,0.5-0.4,0.7
				c-0.1,0.3-0.2,0.5-0.2,0.8c0,0.5,0.4,1,0.7,1.4c1.7,2.2,2.6,5.1,2.4,7.9c0-0.3-1.1-1.6-1.2-2C262.6,103.8,262.3,103,261.9,102.2z
				"/>
			<path class="st7" d="M291.9,92.3c-1.8,4.1-8.4,9.3-13,13.3s-9,6.2-14.3,8.8c-0.4,0.2-0.8,0.4-1.2,0.6l0,0
				c-0.5,1.3-4.7,2.4-8.6,2.5s-6.4-4-8-8.8S245.3,96,245.3,96s-0.4-0.7-1.6-1.8c-1.1-1-2.2-2.6-3.5-4.7c1,0.1,1.4,0.5,2,1.5
				c1.6,2.6,5.1,3.8,8,2.7c-1.4,0.7-2.9,1.3-4.3,2c0.5,3,0.8,6.1,0.9,9.2c0.1,1.3-0.1,2.4,0.5,3.6c0.7,1.2,1.6,2.2,2.5,3.3
				c0.5,0.7,1.1,1.4,1.7,2.1c0.3,0.4,0.7,0.7,1,1c3.1,2.5,7.6,0.7,11.3-1.1c0.9-0.4,1.7-0.8,2.5-1.2c1.9-0.9,4.1-1.8,5.8-3.1
				c1.5-1.1,3-2.6,4.4-4c1.5-1.4,7-6.9,8.5-8.3c1.2-1.1,2.5-1.9,3.3-3.5c0.4-0.9,0.4-1.9,0.5-2.9c0.1-1.4,0.1-2.9,0.2-4.3
				c0-0.8,0.1-1.5,0.2-2.3c0.1-1,0.1-1-0.5-1.8c-1.1-1.5-2.2-3-3.3-4.4c-0.4-0.6-0.8-1.1-1.4-1.5c-0.7-0.5-1.5-0.7-2.4-0.8
				c0,0,9.1-2.4,12.2,2C296.6,82.1,293.7,88.2,291.9,92.3z"/>
			<path class="st8" d="M307.3,60.8c-11-1.3-21.5,8.1-25.1,11.2s-5.3,5.9-5.3,5.9s4.3-0.5,7.9,4.1s5.9,10.4,6.1,12.2
				c0.3,1.8,9.1-13.9,9.5-16.3S307.3,60.8,307.3,60.8z"/>
			<path class="st9" d="M279.1,81c-0.2,0-0.5,0-0.6,0.1c-1.5,0.4-2.9,2.9-3.8,4.1c-1.8,2.4-7.7,8.8-9.5,11.3c-0.4,0.5-0.8,1.1-1,1.6
				c-0.5,1.3-0.5,2.8,0,4.1c0.4,1.3,1.2,2.5,1.9,3.7c0.2,0.3,0.3,0.5,0.6,0.7c0.6,0.3,1.2-0.1,1.7-0.5c2.8-2.1,9.7-8.3,12.2-10.8
				c1.6-1.6,3.4-3,4.4-5.1c0.7-1.4,1-3.4,0.5-4.9c-0.4-1.3-1.5-2.3-2.5-3.2C282.2,81.5,280.4,81,279.1,81z"/>
			<path class="st9" d="M247.6,97.2c-0.1,0.7,0,1.4,0.2,2c1,4.1,2.1,8.2,3.5,12.2c0.2,0.7,0.5,1.4,1,2c1,1.1,2.7,1.3,4.2,1.4
				c2.3,0.1,3.6-0.5,4.2-2.7c0.6-1.9,0.5-4.1-0.4-6c-0.6-1.2-1.4-2.2-1.9-3.4c-0.3-0.8-0.5-1.7-0.9-2.4c-1-2.1-3-4.6-5.3-5.2
				C250.3,94.6,248,95,247.6,97.2z"/>
			<path class="st10" d="M303.8,329.8c1.4,0.9,5,5.2,5.5,7.4c0.4,2.2-0.4,3.6-1.7,5c-1.3,1.4-3.4,4-5.4,5.8s-4.2,3.7-5.4,6.6
				c-1.2,3-3.4,6.4-9.1,10.5c-5.6,4.2-11.2,1-12.8,0c-1.5-1-1.3-5-1.2-6.5c0.1-1.5,8.3-12.9,10.2-14.9s5.8-8.7,7.2-10.4
				C292.4,331.7,300.4,327.6,303.8,329.8z"/>
			<path class="st10" d="M344,323.4c-1.5-4.3-1.6-4.7-3.4-5.5s-9.8-2.2-11.6,2c-1.8,4.2-2.5,8.3-1.7,12.9c0.8,4.5,0.1,13.7,4.7,15.3
				c4.5,1.6,12.9,0,14.3-4.4s1-8,0.3-10.7C345.8,330.3,344,323.4,344,323.4z"/>
			
				<linearGradient id="SVGID_3_" gradientUnits="userSpaceOnUse" x1="287.6973" y1="181.6866" x2="307.5432" y2="181.6866" gradientTransform="matrix(1 0 0 -1 0 512)">
				<stop  offset="4.947920e-02" style="stop-color:#FEB9B8"/>
				<stop  offset="0.9922" style="stop-color:#FEA5A4"/>
			</linearGradient>
			<path class="st11" d="M290.8,321.5c0.9,6.4,1.5,11.2,0.5,14.9c-1,3.7-3.7,7.2-3.6,8.5c0.1,1.2,5.3,2.3,8.2,0.8
				c2.9-1.5,9.3-3.1,10.3-5.1s2-5.3,0.7-6.6c-1.3-1.3-3.2-9.3-3.5-12.5c-0.3-3.1-3.8-7.3-3.8-7.3L290.8,321.5z"/>
			<path class="st12" d="M311.1,245.5c-0.1,6.6-0.2,75.2,0,76.1c0.1,0.9-0.7,2.5-2.8,3.4c-0.2,0.1-0.6,0.2-1.2,0.3
				c-4.2,0.7-16.5,1.2-17.3-1.5c-0.9-3.1-4.2-56-5.1-65.3c-0.9-9.4-4-43.4-4.3-62.1s3.5-36.2,9.3-54.7c0,0,23-9.6,26.7-3.4
				c2.4,4,3,22,3.3,36.8c0.2,7.8,0.2,14.7,0.4,18.1C320.6,203.3,311.3,238.9,311.1,245.5z"/>
			<path class="st7" d="M311.1,245.5c-0.1,6.6-0.2,75.2,0,76.1c0.1,0.9-0.7,2.5-2.8,3.4c-0.2,0.1-0.6,0.2-1.2,0.3
				c-0.1-13.1-0.2-26.1-0.3-39.2c-0.1-13.8-0.4-28.2,1.1-41.9c2-17.3,6.8-34.3,7.3-51.7c0.1-3.1,0-6.1,0-9.2c0-0.9,0-1.8,0-2.6
				c0-2.7,2.1-4.2,4.4-5.6c0.2,7.8,0.2,14.7,0.4,18.1C320.6,203.3,311.3,238.9,311.1,245.5z"/>
			
				<linearGradient id="SVGID_4_" gradientUnits="userSpaceOnUse" x1="328.458" y1="197.835" x2="342.6459" y2="197.835" gradientTransform="matrix(1 0 0 -1 0 512)">
				<stop  offset="4.947920e-02" style="stop-color:#FEB9B8"/>
				<stop  offset="0.9922" style="stop-color:#FEA5A4"/>
			</linearGradient>
			<path class="st13" d="M328.9,304c1,6.9-0.3,12.3-0.4,15.6c-0.1,3.3,0.1,5.8,1.1,7.6c1,1.8,8.6,0.8,11.3-1.4
				c2.6-2.2,1.6-4.9,1.6-4.9s-1.8-9.1-1.3-11.9c0.4-2.8-0.7-8.8-0.7-8.8L328.9,304z"/>
			<path class="st12" d="M358.2,183.7c-0.9,16.4-6,46.9-6.6,52.9s-4.4,57.9-6.3,68.4c-0.3,1.8-1,3.3-2,4.3c-4.4,5-14,2.2-15.2,0.5
				c-1.4-2.1-3.6-33.6-4-44.9c-0.4-11.2-0.7-17.4-3.9-30.3c-3.2-12.9-9.2-39.3-12.7-47c-3.5-7.8-0.9-18.9-1.3-35.5
				c0,0,32.3-10.8,40.3-9.8c0.7,0.1,1.2,0.3,1.5,0.5C351.9,146.4,359,167.3,358.2,183.7z"/>
			<path class="st7" d="M358.2,183.7c-0.9,16.4-6,46.9-6.6,52.9s-4.4,57.9-6.3,68.4c-0.3,1.8-1,3.3-2,4.3c0.4-2.8,0.8-6.1,1.2-10.2
				c1.7-16.2,4.2-65.5,7.9-89c3.4-21.7,1.4-41.8-5.9-67.7c0.7,0.1,1.2,0.3,1.5,0.5C351.9,146.4,359,167.3,358.2,183.7z"/>
			<path class="st14" d="M357.7,105.6c-0.9,5.1-1.7,9.3-1.7,10.7c-0.1,4.4-3.3,12-5,16s-1.6,13.6-3.3,15.7c-0.3,0.4-1.1,1-2.2,1.8
				c-5.1,3.6-18.6,7.4-34.1,5.4c-19-2.5-20.1-9-21-11.6c-1-2.5-0.7-7.7-1.6-16.6c-0.9-9-2-16.1-2.3-21c-0.3-5,5.9-30.5,10.2-37
				c1.4-2.1,9-10.9,18.1-8.4c6.8,1.9,12,0.5,16,1s6.8,1.2,13.9,4.5c0,0,16,9.8,18.5,12.1C364.9,79.6,359.7,94.5,357.7,105.6z"/>
			
				<linearGradient id="SVGID_5_" gradientUnits="userSpaceOnUse" x1="307.5984" y1="437.2577" x2="343.0966" y2="437.2577" gradientTransform="matrix(1 0 0 -1 0 512)">
				<stop  offset="4.947920e-02" style="stop-color:#FEB9B8"/>
				<stop  offset="0.9922" style="stop-color:#FEA5A4"/>
			</linearGradient>
			<path class="st15" d="M318.9,62.5c-2.5,0.2-4.2,1.5-6.4,2.3c-1.9,0.7-4,1.9-4.6,4c-0.1,0.5-0.1,1-0.2,1.6
				c-0.3,2.2-0.2,4.3,0.1,6.5c0.5,2.6,2,5,3.6,7.1c3.9,5.4,9.9,3.7,15.4,2.2c2.6-0.7,4.6-1.7,6.7-3.4c2.7-2.3,4.7-5.1,6.8-8
				c1.9-2.6,4.4-7,1-9.6c-0.8-0.6-1.8-0.9-2.8-1.2c-3.8-1.2-7.7-2.3-11.6-2.2c-1.5,0-2.9,0.2-4.3,0.5
				C321.4,62.7,320.3,62.4,318.9,62.5z"/>
			
				<linearGradient id="SVGID_6_" gradientUnits="userSpaceOnUse" x1="307.2544" y1="458.2898" x2="337.5306" y2="458.2898" gradientTransform="matrix(1 0 0 -1 0 512)">
				<stop  offset="4.947920e-02" style="stop-color:#FEB9B8"/>
				<stop  offset="0.9922" style="stop-color:#FEA5A4"/>
			</linearGradient>
			<path class="st16" d="M307.3,52.9c3.5,7.5,4,9.5,3.8,13.7s2.4,8.6,7.7,10.6c5.3,2,16.1-1.8,17.7-5.9c1.7-4.2,1.4-5.2-1-8.8
				c-2.5-3.6-3.7-5.1-3.9-9.6c-0.2-4.6,2-10.7,2-11.6c0-0.9-0.1-9.8-4.2-11.4s-15.2,5.7-15.2,5.7L307.3,52.9z"/>
			<path class="st7" d="M357.7,105.6c-0.9,5.1-1.7,9.3-1.7,10.7c-0.1,4.4-3.3,12-5,16s-1.6,13.6-3.3,15.7c-0.3,0.4-1.1,1-2.2,1.8
				c0.6-2.7,0.7-8.3,1.4-11c1.6-5.9,2-12.4,1.1-18.4c-0.2-1.5-0.5-2.9-0.6-4.4c-0.1-1.8,0-3.6,0.3-5.3c0.3-2.3,0.9-4.7,1.5-6.9
				c1-3.6,0.4-8.4,2-11.8c2.2-4.4,3.7,2.5,3.8,4.4c0.1,2.9,1.3,5.2,2.3,7.9C357.4,104.7,357.6,105.1,357.7,105.6z"/>
			<path class="st7" d="M327.1,55.7c-0.9,1-1.9,1.9-2.9,2.8c-1.3,1.3-2.5,2.7-3.9,3.7c-1.1,0.8-2.4,1.4-3.7,1.9
				c-1.1,0.4-2.2,0.6-3.4,0.4c-1.7-0.2-3.2-1.4-4.5-2.5c-0.3-0.2-0.6-0.5-0.7-0.9c-0.2-0.5,0-1.1,0.2-1.7c0.6-1.3,1.5-2.4,2.4-3.4
				c4.5-4.7,10.5-8.1,16.9-8.5c0.3,0,0.5,0,0.8,0.1c0.4,0.2,0.5,0.7,0.7,1.1C329.6,51.2,328.6,53.9,327.1,55.7z"/>
			<path class="st7" d="M319.9,78.1c-0.4,0.7-0.8,1.5-1.4,2c-1.1,1-2.8,1.2-3.7,2.4c0.2-1.6,0.4-3.3,0.7-4.9c0.1-1,0.3-2.1,0.8-2.9
				c0.7-1.1,1.9-1.8,2.8-2.8c1.1-1.3,1.4-3.1,1.6-4.8c-0.2,1.7,0.6,3.8,0.7,5.5C321.3,74.6,320.7,76.5,319.9,78.1z"/>
			
				<linearGradient id="SVGID_7_" gradientUnits="userSpaceOnUse" x1="297.649" y1="472.8576" x2="337.8541" y2="472.8576" gradientTransform="matrix(1 0 0 -1 0 512)">
				<stop  offset="4.947920e-02" style="stop-color:#FEB9B8"/>
				<stop  offset="0.9922" style="stop-color:#FEA5A4"/>
			</linearGradient>
			<path class="st17" d="M303.2,17c-1.8,2.7-3.1,1.9-4.5,9.9c-1.3,8-1.7,16.5,0.6,22.8c2.3,6.3,4.2,13.2,8.3,14.2
				c4.1,1,19.2-7.1,21.7-10.8s3-9.7,3.2-11.5s6.4-9,5.2-13.1c-1.2-4.1-10.7-14.2-10.7-14.2L303.2,17z"/>
			<path class="st18" d="M313.1,19.7c0,0,8.6,2.4,11.9,8.8c3.2,6.4,1.7,6.3,3.1,8.8c1.5,2.5,2.3,7.4,2.3,7.4s0.5-2.2,0.8-3.9
				c0.2-1.7,1.8-5.3,2.9-5.7s2.2,1.2,2,4.9s-3.2,4.4-3.5,5.9c-0.2,1.5-1.4,4.5-1.1,5.7c0.4,1.2,4.5-5.2,7.7-9.3s4.5-7.9,3.6-15.7
				s-5.7-15.3-14.7-16.7c-9.9-3.5-16.7-1.1-21.5,2.4s-8,8.6-7.5,12.8c2.9-4.8,4.8-5.2,7.5-5.3C309.2,19.4,313.1,19.7,313.1,19.7z"/>
			
				<linearGradient id="SVGID_8_" gradientUnits="userSpaceOnUse" x1="332.0056" y1="470.8251" x2="339.0164" y2="470.8251" gradientTransform="matrix(1 0 0 -1 0 512)">
				<stop  offset="4.947920e-02" style="stop-color:#FEB9B8"/>
				<stop  offset="0.9922" style="stop-color:#FEA5A4"/>
			</linearGradient>
			<path class="st19" d="M334.5,36.3c1.7-2.1,4.4,0.6,4.5,2.6c0,1.1-0.2,2.3-0.6,3.3c-0.5,1.4-1.9,2.8-3,3.7c-0.5,0.4-1.3,1-1.9,0.9
				c-1-0.2-1.6-1.5-1.5-2.4c0.2-1.4,0.8-2.6,1-4C333.2,38.9,333.6,37.5,334.5,36.3z"/>
			
				<linearGradient id="SVGID_9_" gradientUnits="userSpaceOnUse" x1="245.8943" y1="422.4938" x2="255.7975" y2="422.4938" gradientTransform="matrix(1 0 0 -1 0 512)">
				<stop  offset="4.947920e-02" style="stop-color:#FEB9B8"/>
				<stop  offset="0.9922" style="stop-color:#FEA5A4"/>
			</linearGradient>
			<path class="st20" d="M246.4,88.7c0.5,0.6,1.2,0.9,2,0.9c0.5,0,1-0.1,1.5,0.1c0.9,0.5,0.8,1.9,1.5,2.7c0.7,0.9,2.2,1.6,3.3,1
				c1.6-0.9,1.2-3.3,1-4.8c-0.4-2.9-3.8-3.5-6.2-3.1C247.8,85.8,244.7,86.5,246.4,88.7z"/>
			<path class="st7" d="M247.1,89.3c2.1-0.9,4.7-0.5,6.5,0.8c0.2,0.2,0.4,0.3,0.7,0.4c0.5,0.1,1-0.4,1.4-0.9
				c0.2,0.7,0.3,1.3,0.3,1.8c0,0.6,0,1,0,1.4c-1.2,0.8-2.6,1.4-4,1.4c2.5-1.7,0.4-3.9-1.9-4.4C249.1,89.6,248.1,89.4,247.1,89.3z"/>
			
				<linearGradient id="SVGID_10_" gradientUnits="userSpaceOnUse" x1="328.1114" y1="354.7004" x2="372.9042" y2="354.7004" gradientTransform="matrix(1 0 0 -1 0 512)">
				<stop  offset="4.947920e-02" style="stop-color:#FEB9B8"/>
				<stop  offset="0.9922" style="stop-color:#FEA5A4"/>
			</linearGradient>
			<path class="st21" d="M368.8,158.2c-1.6,5.3-13.2,25.9-13.7,28.6c-0.5,2.6-1.8,12.1-2.2,13.4c-0.4,1.3-2.1,6.2-2.1,6.2
				s-2,3.2-2.6,3.8s-3.8,3.9-5.4,4.1c-0.6,0.1-0.9,0-1-0.3c-0.2-0.3-0.1-0.7-0.1-0.9c0-0.1,0-0.1,0-0.1c-0.3,0.2-2.8,1.9-4.1,2.3
				c-0.4,0.1-0.6,0.1-0.8,0.1c-0.5-0.1-0.5-0.7-0.5-0.7s-0.3,0.1-0.6,0.2l0,0c-0.2,0.1-0.3,0.2-0.4,0.3c-0.2,0.3-1.8,0.9-2.6,0.1
				c-0.4-0.3-0.5-0.6-0.5-0.9c0-0.4,0.2-0.7,0.2-0.7s-0.7,0.3-1.2,0l-0.1-0.1l0,0c-0.3-0.4-0.3-1,0-2.1c0-0.2,0.1-0.4,0.3-0.7
				c0.9-1.8,3.7-5.4,4.6-7.2c1.1-2.1,3.3-9.3,3.3-9.3s-0.8,0.6-1.4,1.3c-0.6,0.6-3,4.4-3.9,5.9s-3.1,2.2-4,2.6
				c-0.3,0.1-0.6,0.2-0.9,0.1c-0.5-0.1-0.8-0.5-0.8-1.1c0-1,2-2.2,2.6-3.1c0.6-0.9,3.5-7.2,4.7-8.9s6.6-5.6,8.6-7.2
				c0.5-0.4,1.1-1.6,1.9-3.3c2.5-5.5,6.1-16.1,7.3-19.9c1.7-5,3.1-13.4,3.2-16c0.1-2.5-4.4-26.6-5.3-31.1s-0.1-5.8,1.5-12.2l4-2.5
				c0,0,9,2.1,12.4,3.2l0,0c0.8,0.3,1.3,0.4,1.3,0.6c0,0.1,0.1,0.4,0.2,0.8l0,0c0.1,0.4,0.1,0.8,0.2,1.4c0.3,2.2,0.6,6.1,0.3,12.1
				c-0.5,9.5,1.3,18.1,1.7,21.1C373.3,141.3,370.4,152.9,368.8,158.2z"/>
			<path class="st7" d="M329.8,204c-0.3,0.1-0.6,0.2-0.9,0.1c1.5-0.4,3-1.2,4.1-2.4c0.6-0.7,1.1-1.5,1.5-2.3c0.7-1.3,1.5-2.7,2.2-4
				c0.5-0.9,0.9-1.7,1.5-2.5c0.5-0.7,1.1-1.4,1.1-2.2c0,3.1-0.8,6.1-1.9,9c-1.1,2.8-2.1,5.9-3.9,8.3c-0.6,0.8-1.3,1.5-2,2.2
				c-0.1,0.1-0.2,0.2-0.4,0.4c0.9-1.8,3.7-5.4,4.6-7.2c1.1-2.1,3.3-9.3,3.3-9.3s-0.8,0.6-1.4,1.3c-0.6,0.6-3,4.4-3.9,5.9
				C332.9,202.8,330.7,203.6,329.8,204z"/>
			<path class="st7" d="M332.1,214.4c0-0.4,0.2-0.7,0.2-0.7s-0.7,0.3-1.2,0l-0.1-0.1c0.7-0.3,1.4-0.7,2-1.2c0.7-0.5,1.4-1,2.2-1.5
				c0.7-0.5,1.4-1,2-1.6c0.5-0.6,0.8-1.4,1.4-2c0.8-1,1.2-2.3,1.8-3.5c0.6-1.3,1.3-2.6,2.1-3.8c-0.7,2.3-1.6,4.7-2.7,6.9
				c-0.8,1.7-1.8,3.3-3.3,4.4C334.9,212.2,333.5,213.3,332.1,214.4z"/>
			<path class="st7" d="M341.9,210.3c-0.9,1.1-2,1.9-3,2.8c-0.8,0.7-1.5,1.4-2.2,2.2c-0.5-0.1-0.5-0.7-0.5-0.7s-0.3,0.1-0.6,0.2
				c0.1-0.1,0.2-0.1,0.2-0.2c2.2-1.8,4.6-3.5,6.5-5.7c0.4-0.4,0.8-0.9,1.1-1.4c0,0.1-0.1,0.2-0.1,0.3
				C342.9,208.7,342.4,209.5,341.9,210.3z"/>
			<path class="st7" d="M345.9,202.6c-0.4,1.8-1.3,3.5-2.4,5C344.4,205.9,345.1,204.2,345.9,202.6z"/>
			<path class="st7" d="M347.1,207.7c-0.3,0.6-0.5,1.1-0.8,1.7c-0.4,0.7-0.8,1.4-1.3,2c-0.5,0.5-1.1,1-1.7,1.4s-1.1,0.8-1.6,1.2
				c-0.2-0.3-0.1-0.7-0.1-0.9c0.6-0.3,1.2-0.6,1.7-0.9C344.9,211.1,346.1,209.5,347.1,207.7z"/>
			<path class="st7" d="M370.9,105L370.9,105c-0.4,1.6-2.3,2-3.8,2.3c-4.8,0.8-9.3,2.9-13,6c0.9,3.1,1.5,6.4,1.8,9.6
				c0.3,3.1-0.2,6.2,0.3,9.3c0.5,3.6,1.1,7.1,1.6,10.7c0.9-0.6,1.5-1.6,2.3-2.4c1.6-1.4,3.9-1.5,6-1.5c-0.8,1.2-2.2,1.8-3.3,2.7
				c-3.6,2.6-5,7.3-6.7,11.2c-2.2,4.9-3.3,10.3-4.6,15.5c-0.4,1.7-0.4,3.4-1.2,5c-1.1,2-2.5,4.8-4.3,7.1c2.5-5.5,6.1-16.1,7.3-19.9
				c1.7-5,3.1-13.4,3.2-16c0.1-2.5-4.4-26.6-5.3-31.1s-0.1-5.8,1.5-12.2l4-2.5c0,0,9,2.1,12.4,3.2l0,0c0.3,0.1,0.5,0.3,0.8,0.5
				c0.3,0.3,0.5,0.6,0.7,0.9l0,0C370.9,104,371,104.5,370.9,105z"/>
			<path class="st9" d="M363.9,165c2.8-7,7.4-15.5,6.6-23.2c-0.1-0.5-0.1-1.1-0.5-1.4c-0.5-0.4-1.2-0.3-1.8-0.1
				c-4.3,1.2-6.9,5.5-8.8,9.6c-2.7,5.7-5,11.6-6.9,17.7c-1.4,4.5-5,12.2-1.4,16.4c0.3,0.3,0.7,0.7,1.1,0.6c0.3,0,0.5-0.3,0.7-0.5
				C358.1,178.7,361.1,171.8,363.9,165z"/>
			<path class="st9" d="M359.2,112.2c-0.9,1.3-0.9,3-0.7,4.5c0.3,3.5,1.4,6.9,1.8,10.4c0.2,1.3,0,2.3,0.5,3.5
				c0.6,1.6,1.5,3.1,2.6,4.5c0.6,0.7,1.2,1.4,1.7,2.1c0.9,1.4,1.5,3.1,1.5,4.7c0,0.8,0,1.6,0.3,2.2c0.4,0.7,1.2,0.8,1.7,0.3
				c0.2-0.2,0.3-0.7,0.4-1c0.2-0.3,0.6-0.4,0.8-0.7c0.2-0.3,0.3-0.7,0.3-1.1c0.4-5.5,0.2-11.1-0.1-16.6c-0.1-3.2-0.3-6.4-0.4-9.5
				c-0.1-2.3,0.5-6.1-2.7-6.1C364.7,109.6,360.7,110.1,359.2,112.2z"/>
			<path class="st8" d="M356.8,79.2c-4.2,4-5.7,8.4-6.4,16.9c-0.7,8.6-0.7,13.1,0,14.1s12.2-2.3,14.5-3.4s6.9-2.5,6.9-2.5
				s-3.8-17.9-5.3-21.2c-2.7-6.5-5.7-5.7-5.7-5.7L356.8,79.2z"/>
		</g>
		<path class="st22" d="M320.9,50.2c0,0,4.1-0.3,6.7-0.7c1.2-0.2,2.2-1.2,2.3-2.4l1.2-11.9c0,0-0.1-1.1-2.6-2.3
			c-1.2-0.6-6.2-0.7-8.6-0.7s-8.4-0.8-12.2-1.8c-3.8-1-7.3-2.4-7.9-2.8s-1.1-0.6-1.1-0.6l-6.7,0.9L320.9,50.2z"/>
		<g>
			<path class="st23" d="M322.4,34c0,0-21.6-2.8-24.5-6.6c-0.2-0.1-0.5-0.1-0.7-0.1l-4.9,0.5c0.2,0,0.5,0,0.7,0.1
				c-0.5,6.3,24.5,6.6,24.5,6.6c1.3,0.3,2.2,1.9,1.9,3.5L318,48.4c-0.2,1.3-1,2.2-2,2.3l4.9-0.5c1-0.1,1.8-1,2-2.3l1.5-10.4
				C324.5,35.9,323.7,34.3,322.4,34z"/>
			<g>
				<path class="st24" d="M317.5,34.5c1.3,0.3,2.2,1.9,1.9,3.5L318,48.4c-0.2,1.6-1.4,2.6-2.7,2.2c0,0-16.2-1.9-24.5-6.6
					c-1.1-0.7-2.2-1.9-1.9-3.5l1.5-10.4c0.2-1.6,1.5-2.6,2.7-2.2C301.2,31.9,317.5,34.5,317.5,34.5z"/>
			</g>
		</g>
		<path class="st25" d="M322.9,39.2c3.6-0.3,11.3-0.8,14.7-1.7c3.4-1,5.1-1.9,5.3-2.9c-0.7,4-1.5,6.9-2,8.6
			c-0.4,1.8-2.2,2.5-4.5,3.1S322,47.2,322,47.2L322.9,39.2z"/>
		<path class="st25" d="M301.8,30.2c4.7-3.1,2.8-10.3,8.2-15.2c5.4-4.9,13.5-5.8,16.6-5.8c4.3,0.6,7.8,2.3,8.8,3.5
			c-6.2-0.7-13.2,2-16.8,6.6c-3.6,4.6-3.1,11.6-8,13.3C303.1,30.7,301.8,30.2,301.8,30.2z"/>
		<g>
			<g class="st26">
				<g>
					<g>
						<defs>
							<polygon id="SVGID_11_" points="1,1 2,1 1,2 							"/>
						</defs>
						<defs>
							<polygon id="SVGID_12_" points="-1,-1 -2,-1 -1,-2 							"/>
						</defs>
						<clipPath id="SVGID_13_">
							<use xlink:href="#SVGID_11_"  style="overflow:visible;"/>
						</clipPath>
						<clipPath id="SVGID_14_" class="st27">
							<use xlink:href="#SVGID_12_"  style="overflow:visible;"/>
						</clipPath>
						
							<linearGradient id="SVGID_15_" gradientUnits="userSpaceOnUse" x1="194.8125" y1="80.6122" x2="194.8125" y2="169.9564" gradientTransform="matrix(1 0 0 -1 0 512)">
							<stop  offset="0" style="stop-color:#FFFFFF"/>
							<stop  offset="8.587855e-02" style="stop-color:#F7F7F7"/>
							<stop  offset="0.2181" style="stop-color:#E2E2E2"/>
							<stop  offset="0.3802" style="stop-color:#BEBEBE"/>
							<stop  offset="0.566" style="stop-color:#8D8D8D"/>
							<stop  offset="0.7717" style="stop-color:#4E4E4E"/>
							<stop  offset="0.9912" style="stop-color:#030303"/>
							<stop  offset="1" style="stop-color:#000000"/>
						</linearGradient>
						<path class="st28" d="M150.1,420.8c24.5,14.2,64.5,14.1,89.2-0.2c24.7-14.3,24.8-37.3,0.3-51.5s-64.5-14.1-89.2,0.2
							C125.6,383.5,125.5,406.6,150.1,420.8z"/>
					</g>
				</g>
				
					<linearGradient id="SVGID_16_" gradientUnits="userSpaceOnUse" x1="194.8125" y1="80.6122" x2="194.8125" y2="169.9564" gradientTransform="matrix(1 0 0 -1 0 512)">
					<stop  offset="0" style="stop-color:#00C2E3"/>
					<stop  offset="1" style="stop-color:#00C2E3"/>
				</linearGradient>
				<path class="st29" d="M150.1,420.8c24.5,14.2,64.5,14.1,89.2-0.2c24.7-14.3,24.8-37.3,0.3-51.5s-64.5-14.1-89.2,0.2
					C125.6,383.5,125.5,406.6,150.1,420.8z"/>
				<path class="st30" d="M194.4,432.5c-16.3,0-32.6-3.6-44.9-10.7c-12.2-7-18.9-16.5-18.9-26.6c0-10.2,6.8-19.8,19.2-26.9
					c25-14.4,65.5-14.5,90.3-0.2c12.2,7,18.9,16.5,18.9,26.6c0,10.2-6.8,19.8-19.2,26.9C227.3,428.9,210.8,432.5,194.4,432.5z
					 M195.2,359.7c-16,0-32,3.5-44.3,10.6c-11.6,6.7-18,15.5-18,24.9c0,9.2,6.3,18,17.7,24.6c24.2,14,63.7,13.9,88-0.2
					c11.6-6.7,18-15.5,18-24.9c0-9.2-6.3-18-17.7-24.6C226.9,363.2,211,359.7,195.2,359.7z"/>
			</g>
			<g>
				<g>
					<defs>
						<polygon id="SVGID_17_" points="1,1 2,1 1,2 						"/>
					</defs>
					<defs>
						<polygon id="SVGID_18_" points="-1,-1 -2,-1 -1,-2 						"/>
					</defs>
					<clipPath id="SVGID_19_">
						<use xlink:href="#SVGID_17_"  style="overflow:visible;"/>
					</clipPath>
					<clipPath id="SVGID_20_" class="st31">
						<use xlink:href="#SVGID_18_"  style="overflow:visible;"/>
					</clipPath>
					
						<linearGradient id="SVGID_21_" gradientUnits="userSpaceOnUse" x1="194.75" y1="80.6122" x2="194.75" y2="361" gradientTransform="matrix(1 0 0 -1 0 512)">
						<stop  offset="0" style="stop-color:#FFFFFF"/>
						<stop  offset="9.089652e-02" style="stop-color:#DADADA"/>
						<stop  offset="0.2658" style="stop-color:#999999"/>
						<stop  offset="0.4325" style="stop-color:#626262"/>
						<stop  offset="0.5862" style="stop-color:#383838"/>
						<stop  offset="0.7242" style="stop-color:#191919"/>
						<stop  offset="0.8415" style="stop-color:#070707"/>
						<stop  offset="0.9243" style="stop-color:#000000"/>
					</linearGradient>
					<path class="st32" d="M278.8,151l-168.1,2.8l21,243.8h0.2c1,8.5,7,16.8,18.2,23.2c24.5,14.2,64.5,14.1,89.2-0.2
						c11.1-6.4,17.3-14.7,18.4-23.1h0.2L278.8,151z"/>
				</g>
			</g>
			
				<linearGradient id="SVGID_22_" gradientUnits="userSpaceOnUse" x1="194.75" y1="80.6122" x2="194.75" y2="361" gradientTransform="matrix(1 0 0 -1 0 512)">
				<stop  offset="0" style="stop-color:#00C2E3"/>
				<stop  offset="0.9243" style="stop-color:#00C2E3"/>
			</linearGradient>
			<path class="st33" d="M278.8,151l-168.1,2.8l21,243.8h0.2c1,8.5,7,16.8,18.2,23.2c24.5,14.2,64.5,14.1,89.2-0.2
				c11.1-6.4,17.3-14.7,18.4-23.1h0.2L278.8,151z"/>
			<g>
				<g>
					<defs>
						<polygon id="SVGID_23_" points="1,1 2,1 1,2 						"/>
					</defs>
					<defs>
						<polygon id="SVGID_24_" points="-1,-1 -2,-1 -1,-2 						"/>
					</defs>
					<clipPath id="SVGID_25_">
						<use xlink:href="#SVGID_23_"  style="overflow:visible;"/>
					</clipPath>
					<clipPath id="SVGID_26_" class="st34">
						<use xlink:href="#SVGID_24_"  style="overflow:visible;"/>
					</clipPath>
					
						<linearGradient id="SVGID_27_" gradientUnits="userSpaceOnUse" x1="193.4313" y1="68.4873" x2="193.4313" y2="165.5127" gradientTransform="matrix(1 0 0 -1 0 512)">
						<stop  offset="0" style="stop-color:#FFFFFF"/>
						<stop  offset="8.587855e-02" style="stop-color:#F7F7F7"/>
						<stop  offset="0.2181" style="stop-color:#E2E2E2"/>
						<stop  offset="0.3802" style="stop-color:#BEBEBE"/>
						<stop  offset="0.566" style="stop-color:#8D8D8D"/>
						<stop  offset="0.7717" style="stop-color:#4E4E4E"/>
						<stop  offset="0.9912" style="stop-color:#030303"/>
						<stop  offset="1" style="stop-color:#000000"/>
					</linearGradient>
					<path class="st35" d="M133.8,429.4c32.7,18.9,85.9,18.8,118.9-0.2c32.9-19,33.1-49.7,0.4-68.6s-85.9-18.8-118.9,0.2
						S101.1,410.5,133.8,429.4z"/>
				</g>
			</g>
			
				<linearGradient id="SVGID_28_" gradientUnits="userSpaceOnUse" x1="193.4313" y1="68.4873" x2="193.4313" y2="165.5127" gradientTransform="matrix(1 0 0 -1 0 512)">
				<stop  offset="0" style="stop-color:#00C2E3"/>
				<stop  offset="1" style="stop-color:#00C2E3"/>
			</linearGradient>
			<path class="st36" d="M133.8,429.4c32.7,18.9,85.9,18.8,118.9-0.2c32.9-19,33.1-49.7,0.4-68.6s-85.9-18.8-118.9,0.2
				S101.1,410.5,133.8,429.4z"/>
		</g>
		<path class="st12" d="M305,35.7l-2.7-0.6c-0.4-0.1-0.7-0.5-0.7-1l0.1-0.6c0-0.4,0.4-0.7,0.8-0.6l2.7,0.6c0.4,0.1,0.7,0.5,0.7,1
			l-0.1,0.6C305.8,35.5,305.4,35.8,305,35.7z"/>
		<g>
			<g>
				<path class="st30" d="M171.8,211.3c-6.9,0-13.1-2.1-18.2-6.3l1.5-1.8c9.8,8.1,24.4,7.7,39.9-1.3c29.2-16.8,52.9-58.1,52.9-92
					c0-14.4-4.4-25.8-12.3-32c-6.6-5.2-15.2-6.6-25-4.2l-0.6-2.3c10.5-2.6,19.8-1,27,4.7c8.5,6.7,13.2,18.7,13.2,33.9
					c0,34.6-24.3,76.8-54.1,94C187.6,208.8,179.3,211.3,171.8,211.3z"/>
			</g>
			<g>
				<path class="st30" d="M119.6,148.3c-4-14.4,4.2-29.2,22-39.5c30-17.3,78.6-17.4,108.5-0.2c15.7,9.1,23.9,21.8,22.5,34.8
					l-2.3-0.3c1.3-12.1-6.4-23.9-21.3-32.5c-29.2-16.8-76.8-16.8-106.1,0.2c-16.8,9.7-24.6,23.5-20.9,36.8L119.6,148.3z"/>
			</g>
			<g>
				<path class="st37" d="M256.2,140.7c0,34.7-28.1,62.8-62.8,62.8c-13.4,0-25.7-4.2-35.9-11.3c-16.2-11.3-26.9-30.2-26.9-51.5
					c0-34.7,28.1-62.8,62.8-62.8c26.1,0,48.5,15.9,58,38.6C254.5,124,256.2,132.2,256.2,140.7z"/>
				<g>
					<g>
						<defs>
							<polygon id="SVGID_29_" points="1,1 2,1 1,2 							"/>
						</defs>
						<defs>
							<polygon id="SVGID_30_" points="-1,-1 -2,-1 -1,-2 							"/>
						</defs>
						<clipPath id="SVGID_31_">
							<use xlink:href="#SVGID_29_"  style="overflow:visible;"/>
						</clipPath>
						<clipPath id="SVGID_32_" class="st38">
							<use xlink:href="#SVGID_30_"  style="overflow:visible;"/>
						</clipPath>
						
							<linearGradient id="SVGID_33_" gradientUnits="userSpaceOnUse" x1="163.8741" y1="320.2962" x2="222.833" y2="422.416" gradientTransform="matrix(1 0 0 -1 0 512)">
							<stop  offset="0" style="stop-color:#FFFFFF"/>
							<stop  offset="0.1637" style="stop-color:#F7F7F7"/>
							<stop  offset="0.4154" style="stop-color:#E2E2E2"/>
							<stop  offset="0.722" style="stop-color:#BFBFBF"/>
							<stop  offset="1" style="stop-color:#999999"/>
						</linearGradient>
						<path class="st39" d="M252.3,140.7c0,32.5-26.4,58.9-58.9,58.9c-13.6,0-26.2-4.6-36.2-12.4c-1.3-1-2.5-2.1-3.8-3.2
							c-1.3-1.2-2.5-2.4-3.7-3.7c-0.6-0.7-1.2-1.4-1.8-2.1l-0.1-0.1c-0.7-0.8-1.4-1.7-2-2.6c-0.3-0.4-0.7-0.9-1-1.4
							c-0.3-0.4-0.6-0.9-0.9-1.4c-0.3-0.4-0.5-0.8-0.8-1.3c-1.8-2.9-3.3-6-4.6-9.2c-0.4-1-0.7-2-1.1-3c-0.2-0.6-0.4-1.1-0.6-1.7
							c-0.1-0.5-0.3-1-0.4-1.5c-0.1-0.6-0.3-1.1-0.4-1.7c-0.1-0.5-0.3-1.1-0.4-1.7c-0.1-0.4-0.2-0.8-0.2-1.1c-0.3-1.3-0.5-2.7-0.6-4
							c-0.1-0.5-0.1-1.1-0.2-1.6c-0.1-0.6-0.1-1.2-0.1-1.7c0-0.6-0.1-1.2-0.1-1.8s0-1.2,0-1.8c0-32.5,26.4-58.9,58.9-58.9
							c0.7,0,1.5,0,2.2,0c0.9,0,1.9,0.1,2.8,0.2c0.7,0.1,1.4,0.1,2.1,0.2c2.4,0.3,4.8,0.7,7.1,1.3c0.7,0.2,1.3,0.3,1.9,0.5l0,0
							c0.7,0.2,1.4,0.4,2.1,0.7h0.1c0.6,0.2,1.2,0.4,1.9,0.6c0.5,0.2,1,0.4,1.5,0.6c0.4,0.1,0.8,0.3,1.1,0.5c2,0.8,3.9,1.8,5.8,2.8
							c0.6,0.3,1.2,0.7,1.9,1.1c0,0,0,0,0.1,0c0.6,0.4,1.2,0.8,1.8,1.2c0.6,0.4,1.3,0.9,1.9,1.3c1.2,0.9,2.4,1.8,3.5,2.7
							c1.7,1.4,3.3,2.9,4.8,4.5c0.1,0.1,0.2,0.2,0.3,0.3c0.4,0.5,0.9,1,1.3,1.4c1,1.1,1.9,2.3,2.8,3.5c0.4,0.6,0.9,1.2,1.3,1.8
							c0.9,1.2,1.7,2.5,2.4,3.8c0.8,1.3,1.5,2.6,2.1,3.9c0.3,0.7,0.7,1.4,1,2.1c0.6,1.4,1.2,2.8,1.7,4.2
							C251.1,127.2,252.3,133.8,252.3,140.7z"/>
					</g>
				</g>
				
					<linearGradient id="SVGID_34_" gradientUnits="userSpaceOnUse" x1="163.8741" y1="320.2962" x2="222.833" y2="422.416" gradientTransform="matrix(1 0 0 -1 0 512)">
					<stop  offset="0" style="stop-color:#0684BA"/>
					<stop  offset="0.2324" style="stop-color:#058CBF"/>
					<stop  offset="0.5897" style="stop-color:#03A1CD"/>
					<stop  offset="1" style="stop-color:#00C2E3"/>
				</linearGradient>
				<path class="st40" d="M252.3,140.7c0,32.5-26.4,58.9-58.9,58.9c-13.6,0-26.2-4.6-36.2-12.4c-1.3-1-2.5-2.1-3.8-3.2
					c-1.3-1.2-2.5-2.4-3.7-3.7c-0.6-0.7-1.2-1.4-1.8-2.1l-0.1-0.1c-0.7-0.8-1.4-1.7-2-2.6c-0.3-0.4-0.7-0.9-1-1.4
					c-0.3-0.4-0.6-0.9-0.9-1.4c-0.3-0.4-0.5-0.8-0.8-1.3c-1.8-2.9-3.3-6-4.6-9.2c-0.4-1-0.7-2-1.1-3c-0.2-0.6-0.4-1.1-0.6-1.7
					c-0.1-0.5-0.3-1-0.4-1.5c-0.1-0.6-0.3-1.1-0.4-1.7c-0.1-0.5-0.3-1.1-0.4-1.7c-0.1-0.4-0.2-0.8-0.2-1.1c-0.3-1.3-0.5-2.7-0.6-4
					c-0.1-0.5-0.1-1.1-0.2-1.6c-0.1-0.6-0.1-1.2-0.1-1.7c0-0.6-0.1-1.2-0.1-1.8s0-1.2,0-1.8c0-32.5,26.4-58.9,58.9-58.9
					c0.7,0,1.5,0,2.2,0c0.9,0,1.9,0.1,2.8,0.2c0.7,0.1,1.4,0.1,2.1,0.2c2.4,0.3,4.8,0.7,7.1,1.3c0.7,0.2,1.3,0.3,1.9,0.5l0,0
					c0.7,0.2,1.4,0.4,2.1,0.7h0.1c0.6,0.2,1.2,0.4,1.9,0.6c0.5,0.2,1,0.4,1.5,0.6c0.4,0.1,0.8,0.3,1.1,0.5c2,0.8,3.9,1.8,5.8,2.8
					c0.6,0.3,1.2,0.7,1.9,1.1c0,0,0,0,0.1,0c0.6,0.4,1.2,0.8,1.8,1.2c0.6,0.4,1.3,0.9,1.9,1.3c1.2,0.9,2.4,1.8,3.5,2.7
					c1.7,1.4,3.3,2.9,4.8,4.5c0.1,0.1,0.2,0.2,0.3,0.3c0.4,0.5,0.9,1,1.3,1.4c1,1.1,1.9,2.3,2.8,3.5c0.4,0.6,0.9,1.2,1.3,1.8
					c0.9,1.2,1.7,2.5,2.4,3.8c0.8,1.3,1.5,2.6,2.1,3.9c0.3,0.7,0.7,1.4,1,2.1c0.6,1.4,1.2,2.8,1.7,4.2
					C251.1,127.2,252.3,133.8,252.3,140.7z"/>
				<g>
					<g>
						<defs>
							<polygon id="SVGID_35_" points="1,1 2,1 1,2 							"/>
						</defs>
						<defs>
							<polygon id="SVGID_36_" points="-1,-1 -2,-1 -1,-2 							"/>
						</defs>
						<clipPath id="SVGID_37_">
							<use xlink:href="#SVGID_35_"  style="overflow:visible;"/>
						</clipPath>
						<clipPath id="SVGID_38_" class="st41">
							<use xlink:href="#SVGID_36_"  style="overflow:visible;"/>
						</clipPath>
						
							<linearGradient id="SVGID_39_" gradientUnits="userSpaceOnUse" x1="153.7271" y1="302.4785" x2="213.4793" y2="405.9725" gradientTransform="matrix(1 0 0 -1 0 512)">
							<stop  offset="0" style="stop-color:#000000"/>
							<stop  offset="8.767009e-03" style="stop-color:#030303"/>
							<stop  offset="0.2283" style="stop-color:#4E4E4E"/>
							<stop  offset="0.434" style="stop-color:#8D8D8D"/>
							<stop  offset="0.6198" style="stop-color:#BEBEBE"/>
							<stop  offset="0.7819" style="stop-color:#E2E2E2"/>
							<stop  offset="0.9141" style="stop-color:#F7F7F7"/>
							<stop  offset="1" style="stop-color:#FFFFFF"/>
						</linearGradient>
						<path class="st42" d="M193.7,94.3l0.4,3.7l-0.9,2.1l-1.9,2.2l-0.4,1.6l1,2.2l1.6,0.8l-1.8,1.4c0,0,0.7,0.8-1.5,0.3
							s-2.2-0.5-2.2-0.5l-2.9-0.5l-0.8,0.9l-0.8,1.4l-3.1,0.8l-0.5,1.2l0.7,4.7c0,0-0.1,1.1-2.3,0.8c-2.3-0.3-2.3-0.3-2.3-0.3
							l-0.8-1.5l0.5-1.9l-1.5-3l0.2-1.6l1.4-2.9c0,0,2,1.2,1.8-1.4s-0.5-3.8-0.5-3.8l-1.4-1.9l-1.3,1.1l-1.9-0.9l-0.4-2.3l0.3-1.2
							c0,0-2.6-0.9-2.8-0.5c-0.1,0.4-1.4,1.5-1.4,1.5l-1.9-0.4l-1.5-2.7l-0.4-0.9l3.3-1.1l1.6,1.7l1.6-2h-0.8c0,0-2.2-3.3,2.8-1.5
							s5.2,0.6,5,1.8c-0.1,1.2-0.1,1.2-0.1,1.2l1,1.1l3.6,0.9l6.3-0.9L193.7,94.3z M238.1,135.9c0.1,0.1,0.2,0.1,0.3,0l-0.1,0.7
							l1.5-2.4l3.1,2l4.3,2.5l0.4,1.8l1.9,1.5l1.7-1v-2.7l1.1-1.2c-0.2-3.1-0.6-6.2-1.3-9.2c-0.9-0.2-0.8,0.3-1-0.6
							c-0.2-1.1-0.2-1.1-0.2-1.1s-0.2-1.5-0.2-2.1c0-0.5-0.3,0-0.3,0l-0.9,2.8l-1.3-0.5l-0.2-1.1c0,0-0.6,0.5-0.3-0.8
							s-0.3-0.5,0.3-1.3c0.7-0.8,0.7-0.8,0.7-0.8s0.4-1.1,0.2-2.1c-0.2-0.9-0.2-0.9-0.2-0.9l0.8-0.6C240.1,98,220.3,83,196.9,81.7
							l-0.1,0.4c0,0-2.3,1.5-0.6,1.9c1.6,0.4-0.8,0.1,1.6,0.4c1.9,0.2,2.1,0.1,2.1,0.1l1.4,1.1l0.2,1.8c0,0-1.9,0.6,1.9,0
							c3.8-0.6,0.8-1.8,3.4-0.6c2.6,1.2,3.7-1.7,2.7,0.6c-0.7,1.6-0.8,1.9-0.9,2l0.9,0.7l3.5-0.3l2,0.6l-3.8,1l-0.1,0.8l2.3,2.7
							c0,0,1.3-0.7,0.3,1.3s-1-0.2-0.9,1.6c0.1,1.3,0,1.5-0.1,1.5l1.6,1.1l0.4,1.8l-1,1.3l-2.2,0.4l0.4-2.6l-0.2-1.3l0.2-1.4
							l-1.3,0.6l-1.4,1.3l-1,1.4l-0.5,0.3l-2.8-0.7l-0.7-0.5l-0.8-0.3l-0.2,1.6l0.7,2.3l1,3.1c0,0-0.3,3.3-0.9,4.2
							c-1,1.1-1,1.1-1,1.1l-0.8,2.1l0.3,2l1.2,0.9l1.7,0.3l1-1.8l2.3,0.2l1,1.2l1.2,1.8l1.6,0.1l0.6-1.8l-2.2-1.4
							c0,0-1.9-0.4-0.7-1.5c1.2-1,3.5,0,1.2-1s-2.3-1-2.3-1l-0.8-0.4l0.4-2.2l1.1-1.3l1.3,0.1l-0.3,1.5l1.8,1l2.8-0.4l0.5,1.7
							l-0.7,3.4l-2.1,0.6l0.6,1.3c0,0,2.1-0.5-0.2,1.1c-2.4,1.5,0.3-0.9-2.1,1.1c-2.4,2-2.2,1.6-2.2,1.6l-2,1.9l-0.9,2.4l-1.5-0.7
							l-2,1.4l-1.6-1.3l-0.5-3.3c0,0,1.4-2.3-0.1-0.9s-1.1-0.5-1.5,1.4s0.3,0.2-0.4,1.6s0.6,1.3-0.7,1.4s-1.3,0.1-1.3,0.1l-0.6,0.9
							L195,131c0,0,1.7,1.6,3.1,0.3c1.4-1.3,1.4-1.3,1.4-1.3l2.1-0.5l0.5,1.7l0.5,1.7l1.4,0.2c0,0,5.6-2.4,1.6,0.9
							c-3.9,3.2,0.6,1.9,0.6,1.9l-1.7,0.7l-2.8,0.6l-1.5,3.5c0,0-2.3-1.7,0,1.5s1,2.6,2.3,3.2c1.3,0.6,1.3,0.6,1.3,0.6l1.5-0.4
							l2-0.5l1.9,0.3l0.5-2.3c0,0,0.5,0,0.8-1.8c0.3-1.9,1.2-0.1,0.3-1.9c-0.9-1.8-1.7-0.3-0.9-1.8c0.8-1.4,0.8-1.4,0.8-1.4l1.6-1
							l1-1.2l0.8-1.5l1.7-0.6l1.6-0.4l1.8,1.6l1.8,0.6c0,0,1-2.2,1.9-0.7c0.6,1,0.8,1.2,0.8,1.2l-0.8,2.1l-1.5,1.1l0.2,0.9h1
							l1.5,0.1l0.2-1.8l0.3-2.1l1.2-0.8l-0.9-1.8l-1-1.2l-1.9,0.1l-2.9,0.2l-1.6-1l3-0.7l3.3,0.4l2,1.5l1.3,1.9l2.8,0.5l0.5,1.9
							c0,0,2.3-0.4,1-2.1c-1.2-1.7,0.2-0.4-1-1.5s-1.2-0.8-1.2-0.8l-0.5-2l1.1-1.1l0.1-1.9l-0.8-2.2l-0.9-1.2l0.4-1.9l1.4,0.1
							l0.6-1.3v-2.1l1.7,0.6l1.7,1.4c0,0,0.7,0.1-1,2.1s-1.7,2-1.7,2l-0.5,2.9l0.5,2.3l1.2,0.6l1.8-0.3l1.7-1.4l0.4-1.7l1.5,1.1
							l1.3,4.1l-0.8,2l-0.6,3L238.1,135.9C238,135.9,238,135.9,238.1,135.9z M250,151.1c0,0-0.7,0.5-1.2-1.4s-2.9,0-0.5-1.9
							c2.4-2,2.4-2,2.4-2l-0.7-1.3l-1.7-0.9c0,0-0.9,1.5-2.9-1.1s1.7-3.4-2-2.6c-3.7,0.8-3.7,0.8-3.7,0.8s-0.4,3.2-1,0.4
							s-0.6-2.8-0.6-2.8l0.2-1.6l-0.7,1.1c0-0.1,0-0.1-0.1-0.2l-0.2-0.1l0.2-1.1l-0.7,0.7l-3.1,0.9l-1.6,0.6l-1.9,0.3l-0.6,1.3
							l0.5,1.6l-1.9,0.7h-1.8l-1,1.1l-0.9,1.2l-3.6,1.1l-6-2.3l-10,6.4l-2.7,3.6l-4.4,4l-3,3.2l-0.4,8.2l0.2,4.2c0,0,2,0.6,4.2,3.5
							s0.1-3.5,2.1,2c2.1,5.6-4.4,4.4,0.8,4.9c5.2,0.4,3.7,0.6,3.7,0.6s1.2,0.2,6-3.2c4.8-3.3,4.8-3.3,4.8-3.3l2.6,1.2
							c0.2-0.1,1-0.4,3.5-1.2c4.5-1.5,4.5-1.5,4.5-1.5l1.8,5.5l-1.6,4l3.1,1.3c11.1-8.8,19-21.6,21.5-36.2
							C250,151.1,250,151.1,250,151.1z M134.5,140.7c0,2.2,0.1,4.4,0.4,6.6c2.5,0.5,2.5,0.5,2.5,0.5l0.6,2.7l0.3,3.1l1.6,2.8
							l3.1,4.8l0.6,3.2l-2.4,2.9v0.8c7.4,14,20.3,24.6,35.8,29.1c-0.1-1-0.1-1-0.1-1s-0.8-1,1-1.2c1.7-0.2,1.4-1,1.7-0.2
							s0.3,0.8,0.3,0.8l1.7-0.2c0,0,0.5-0.3,2.3-0.9c1.8-0.6,1.8-0.6,1.8-0.6l-0.4-1.9c0,0-1.1,1.9-0.6-1.3c0.4-3.3-1.9-1.8,0.4-3.3
							c2.3-1.5,2.3-1.5,2.3-1.5l0.3-1.8l-1.1-1.4l-2.6-0.3h-2.3c0,0,1.5,1.3-0.9-0.3c-2.4-1.7-2-0.1-2.4-1.7
							c-0.4-1.5,1.7-0.8-0.4-1.5c-2.1-0.7,0.3-0.8-2.1-0.7c-1.7,0.1-2,0-2.1,0c-0.1,0.2-0.5,1-1.5,0.7c-1.1-0.3-1.1-0.3-1.1-0.3
							l-0.5-1.4c0,0,1,0.6-0.1-1.5c-1.2-2,0.5-0.6-1.2-2s1.6,0.6-1.7-1.4s-3.3-2-3.3-2s0.1,2.4-1,2c-1.2-0.4-1.2-0.4-1.2-0.4
							l-0.2-2.5l-0.3-2.9l-2.4-1.5l-1.7-1.3c0,0-0.9,0.4-1.9,0.2s0.5,1.7-1-0.2s-1-0.6-1.5-1.9c-0.5-1.3,1.1-0.3-0.5-1.3
							c-1.7-1-1.7-1-1.7-1s1.2-0.4-1.8,0.5s-3,0.9-3,0.9l-0.7,1.2l-1.5-3.2l-1.5-1l-0.6-1.2l0.4-2.5l-0.3-2.6l-1-1.4l-2.2-1.4
							l-0.2-1.5l0.5-1.5l0.7-1.8l-0.6-1.8l-1.7,0.9l-1.4,0.7l-1-1.4l-0.5-4.2l1.6-1.2l0.8-1.2l1.1-2.8l2.4,0.6v1.8l0.7,0.5l1.9,0.5
							l0.3,2.6l-0.4,1.4l-0.8,1.2l1.1,0.8l1.5-1.1l0.8-2.5c0,0-1.7-0.2-0.2-1.6c1.5-1.5-2.4-0.6,1.2-1.2c3.7-0.6-3.4,2.4,2.3-0.2
							c5.7-2.6,5.1-0.6,5.7-2.6c0.5-2,0.5-2,0.5-2l2.4-1.1l1.6-1.5l1.3-0.6l1.1,1.8c0,0,0.5,0.8,1.4-0.1c0.9-0.8,0.9-0.8,0.9-0.8
							l-0.6-3.2c0,0-0.6-0.2-0.6-1.7s0-1.5,0-1.5s0,0.2,1.7,0.5c1.7,0.2,1.7,0.2,1.7,0.2l1.5,1.3l0.1,1l-0.3,1.1l2.9,1.6l1.5,1.3
							l0.9,0.3l-0.2-2.5c0,0,1.1-0.1-0.1-2.5c-1.1-2.4,0.2,0.6-1.1-2.4c-1.4-2.9-1.4-2.9-1.4-2.9l-0.8-2.7l-1.4-1.5l-1.1-1.1
							l-0.4-1.4c0,0-0.5,2-1.5,1.3s-1-0.7-1-0.7l-0.1-2.7l-0.5-1.3l-1.7,0.6l-1.4,3l-1,1l-2.5,1.1l-1.1,0.6l-1-0.5
							c0,0,1.6-0.1,1-2.4s0.3,0.2-0.6-2.3c-0.8-2.6-3.4-0.6-0.8-2.6c2.6-2,2.2-1.9,2.2-1.9l3.7-1.1l2.1,0.5l1.5-2.5l2.7-1.1l1.7,0.7
							l-1.9,2.5l-2.1,0.6l0.5,2.6l2.9,2l-0.1,1.1l2.1-1.8l0.2-2.2l1-1.2l0.6-0.8l-0.3-5.2l-0.5-2c-0.1,0.2-0.4,0.3-1.6-0.2
							c-2.2-0.9-2.2-0.9-2.2-0.9l-0.7-0.1l-1.7,1.5l0.1,1.2l-1.7,0.6l-0.2-1.1l0.2-1.9l-1.3,0.7l-1.7-0.4l-0.2-1.7l1.5-0.7l1-0.7
							v-1.3l-0.8-1.2l-0.4-0.5C145.2,101.9,134.5,120,134.5,140.7z M152.6,151.9l-0.5-1.6l-1.5-0.3l0.1,1.1h-1.3l-0.4-0.6l0.4-1
							l0.1-1.5l-2.7-3.2l-3.4-1.4l2.1,4.2l0.3,1.2l0.4,2.6l1.3-0.1l1.4,0.3l0.6,1.9l3.4,1.1l3.1-1.2
							C157,152.1,152.6,151.9,152.6,151.9z"/>
					</g>
				</g>
				
					<linearGradient id="SVGID_40_" gradientUnits="userSpaceOnUse" x1="153.7271" y1="302.4785" x2="213.4793" y2="405.9725" gradientTransform="matrix(1 0 0 -1 0 512)">
					<stop  offset="0" style="stop-color:#99F0FF"/>
					<stop  offset="1" style="stop-color:#99F0FF"/>
				</linearGradient>
				<path class="st43" d="M193.7,94.3l0.4,3.7l-0.9,2.1l-1.9,2.2l-0.4,1.6l1,2.2l1.6,0.8l-1.8,1.4c0,0,0.7,0.8-1.5,0.3
					s-2.2-0.5-2.2-0.5l-2.9-0.5l-0.8,0.9l-0.8,1.4l-3.1,0.8l-0.5,1.2l0.7,4.7c0,0-0.1,1.1-2.3,0.8c-2.3-0.3-2.3-0.3-2.3-0.3
					l-0.8-1.5l0.5-1.9l-1.5-3l0.2-1.6l1.4-2.9c0,0,2,1.2,1.8-1.4s-0.5-3.8-0.5-3.8l-1.4-1.9l-1.3,1.1l-1.9-0.9l-0.4-2.3l0.3-1.2
					c0,0-2.6-0.9-2.8-0.5c-0.1,0.4-1.4,1.5-1.4,1.5l-1.9-0.4l-1.5-2.7l-0.4-0.9l3.3-1.1l1.6,1.7l1.6-2h-0.8c0,0-2.2-3.3,2.8-1.5
					s5.2,0.6,5,1.8c-0.1,1.2-0.1,1.2-0.1,1.2l1,1.1l3.6,0.9l6.3-0.9L193.7,94.3z M238.1,135.9c0.1,0.1,0.2,0.1,0.3,0l-0.1,0.7
					l1.5-2.4l3.1,2l4.3,2.5l0.4,1.8l1.9,1.5l1.7-1v-2.7l1.1-1.2c-0.2-3.1-0.6-6.2-1.3-9.2c-0.9-0.2-0.8,0.3-1-0.6
					c-0.2-1.1-0.2-1.1-0.2-1.1s-0.2-1.5-0.2-2.1c0-0.5-0.3,0-0.3,0l-0.9,2.8l-1.3-0.5l-0.2-1.1c0,0-0.6,0.5-0.3-0.8
					s-0.3-0.5,0.3-1.3c0.7-0.8,0.7-0.8,0.7-0.8s0.4-1.1,0.2-2.1c-0.2-0.9-0.2-0.9-0.2-0.9l0.8-0.6C240.1,98,220.3,83,196.9,81.7
					l-0.1,0.4c0,0-2.3,1.5-0.6,1.9c1.6,0.4-0.8,0.1,1.6,0.4c1.9,0.2,2.1,0.1,2.1,0.1l1.4,1.1l0.2,1.8c0,0-1.9,0.6,1.9,0
					c3.8-0.6,0.8-1.8,3.4-0.6c2.6,1.2,3.7-1.7,2.7,0.6c-0.7,1.6-0.8,1.9-0.9,2l0.9,0.7l3.5-0.3l2,0.6l-3.8,1l-0.1,0.8l2.3,2.7
					c0,0,1.3-0.7,0.3,1.3s-1-0.2-0.9,1.6c0.1,1.3,0,1.5-0.1,1.5l1.6,1.1l0.4,1.8l-1,1.3l-2.2,0.4l0.4-2.6l-0.2-1.3l0.2-1.4l-1.3,0.6
					l-1.4,1.3l-1,1.4l-0.5,0.3l-2.8-0.7l-0.7-0.5l-0.8-0.3l-0.2,1.6l0.7,2.3l1,3.1c0,0-0.3,3.3-0.9,4.2c-1,1.1-1,1.1-1,1.1l-0.8,2.1
					l0.3,2l1.2,0.9l1.7,0.3l1-1.8l2.3,0.2l1,1.2l1.2,1.8l1.6,0.1l0.6-1.8l-2.2-1.4c0,0-1.9-0.4-0.7-1.5c1.2-1,3.5,0,1.2-1
					s-2.3-1-2.3-1l-0.8-0.4l0.4-2.2l1.1-1.3l1.3,0.1l-0.3,1.5l1.8,1l2.8-0.4l0.5,1.7l-0.7,3.4l-2.1,0.6l0.6,1.3c0,0,2.1-0.5-0.2,1.1
					c-2.4,1.5,0.3-0.9-2.1,1.1c-2.4,2-2.2,1.6-2.2,1.6l-2,1.9l-0.9,2.4l-1.5-0.7l-2,1.4l-1.6-1.3l-0.5-3.3c0,0,1.4-2.3-0.1-0.9
					s-1.1-0.5-1.5,1.4s0.3,0.2-0.4,1.6s0.6,1.3-0.7,1.4s-1.3,0.1-1.3,0.1l-0.6,0.9L195,131c0,0,1.7,1.6,3.1,0.3
					c1.4-1.3,1.4-1.3,1.4-1.3l2.1-0.5l0.5,1.7l0.5,1.7l1.4,0.2c0,0,5.6-2.4,1.6,0.9c-3.9,3.2,0.6,1.9,0.6,1.9l-1.7,0.7l-2.8,0.6
					l-1.5,3.5c0,0-2.3-1.7,0,1.5s1,2.6,2.3,3.2c1.3,0.6,1.3,0.6,1.3,0.6l1.5-0.4l2-0.5l1.9,0.3l0.5-2.3c0,0,0.5,0,0.8-1.8
					c0.3-1.9,1.2-0.1,0.3-1.9c-0.9-1.8-1.7-0.3-0.9-1.8c0.8-1.4,0.8-1.4,0.8-1.4l1.6-1l1-1.2l0.8-1.5l1.7-0.6l1.6-0.4l1.8,1.6
					l1.8,0.6c0,0,1-2.2,1.9-0.7c0.6,1,0.8,1.2,0.8,1.2l-0.8,2.1l-1.5,1.1l0.2,0.9h1l1.5,0.1l0.2-1.8l0.3-2.1l1.2-0.8l-0.9-1.8
					l-1-1.2l-1.9,0.1l-2.9,0.2l-1.6-1l3-0.7l3.3,0.4l2,1.5l1.3,1.9l2.8,0.5l0.5,1.9c0,0,2.3-0.4,1-2.1c-1.2-1.7,0.2-0.4-1-1.5
					s-1.2-0.8-1.2-0.8l-0.5-2l1.1-1.1l0.1-1.9l-0.8-2.2l-0.9-1.2l0.4-1.9l1.4,0.1l0.6-1.3v-2.1l1.7,0.6l1.7,1.4c0,0,0.7,0.1-1,2.1
					s-1.7,2-1.7,2l-0.5,2.9l0.5,2.3l1.2,0.6l1.8-0.3l1.7-1.4l0.4-1.7l1.5,1.1l1.3,4.1l-0.8,2l-0.6,3L238.1,135.9
					C238,135.9,238,135.9,238.1,135.9z M250,151.1c0,0-0.7,0.5-1.2-1.4s-2.9,0-0.5-1.9c2.4-2,2.4-2,2.4-2l-0.7-1.3l-1.7-0.9
					c0,0-0.9,1.5-2.9-1.1s1.7-3.4-2-2.6c-3.7,0.8-3.7,0.8-3.7,0.8s-0.4,3.2-1,0.4s-0.6-2.8-0.6-2.8l0.2-1.6l-0.7,1.1
					c0-0.1,0-0.1-0.1-0.2l-0.2-0.1l0.2-1.1l-0.7,0.7l-3.1,0.9l-1.6,0.6l-1.9,0.3l-0.6,1.3l0.5,1.6l-1.9,0.7h-1.8l-1,1.1l-0.9,1.2
					l-3.6,1.1l-6-2.3l-10,6.4l-2.7,3.6l-4.4,4l-3,3.2l-0.4,8.2l0.2,4.2c0,0,2,0.6,4.2,3.5s0.1-3.5,2.1,2c2.1,5.6-4.4,4.4,0.8,4.9
					c5.2,0.4,3.7,0.6,3.7,0.6s1.2,0.2,6-3.2c4.8-3.3,4.8-3.3,4.8-3.3l2.6,1.2c0.2-0.1,1-0.4,3.5-1.2c4.5-1.5,4.5-1.5,4.5-1.5
					l1.8,5.5l-1.6,4l3.1,1.3c11.1-8.8,19-21.6,21.5-36.2C250,151.1,250,151.1,250,151.1z M134.5,140.7c0,2.2,0.1,4.4,0.4,6.6
					c2.5,0.5,2.5,0.5,2.5,0.5l0.6,2.7l0.3,3.1l1.6,2.8l3.1,4.8l0.6,3.2l-2.4,2.9v0.8c7.4,14,20.3,24.6,35.8,29.1c-0.1-1-0.1-1-0.1-1
					s-0.8-1,1-1.2c1.7-0.2,1.4-1,1.7-0.2s0.3,0.8,0.3,0.8l1.7-0.2c0,0,0.5-0.3,2.3-0.9c1.8-0.6,1.8-0.6,1.8-0.6l-0.4-1.9
					c0,0-1.1,1.9-0.6-1.3c0.4-3.3-1.9-1.8,0.4-3.3c2.3-1.5,2.3-1.5,2.3-1.5l0.3-1.8l-1.1-1.4l-2.6-0.3h-2.3c0,0,1.5,1.3-0.9-0.3
					c-2.4-1.7-2-0.1-2.4-1.7c-0.4-1.5,1.7-0.8-0.4-1.5c-2.1-0.7,0.3-0.8-2.1-0.7c-1.7,0.1-2,0-2.1,0c-0.1,0.2-0.5,1-1.5,0.7
					c-1.1-0.3-1.1-0.3-1.1-0.3l-0.5-1.4c0,0,1,0.6-0.1-1.5c-1.2-2,0.5-0.6-1.2-2s1.6,0.6-1.7-1.4s-3.3-2-3.3-2s0.1,2.4-1,2
					c-1.2-0.4-1.2-0.4-1.2-0.4l-0.2-2.5l-0.3-2.9l-2.4-1.5l-1.7-1.3c0,0-0.9,0.4-1.9,0.2s0.5,1.7-1-0.2s-1-0.6-1.5-1.9
					c-0.5-1.3,1.1-0.3-0.5-1.3c-1.7-1-1.7-1-1.7-1s1.2-0.4-1.8,0.5s-3,0.9-3,0.9l-0.7,1.2l-1.5-3.2l-1.5-1l-0.6-1.2l0.4-2.5
					l-0.3-2.6l-1-1.4l-2.2-1.4l-0.2-1.5l0.5-1.5l0.7-1.8l-0.6-1.8l-1.7,0.9l-1.4,0.7l-1-1.4l-0.5-4.2l1.6-1.2l0.8-1.2l1.1-2.8
					l2.4,0.6v1.8l0.7,0.5l1.9,0.5l0.3,2.6l-0.4,1.4l-0.8,1.2l1.1,0.8l1.5-1.1l0.8-2.5c0,0-1.7-0.2-0.2-1.6c1.5-1.5-2.4-0.6,1.2-1.2
					c3.7-0.6-3.4,2.4,2.3-0.2c5.7-2.6,5.1-0.6,5.7-2.6c0.5-2,0.5-2,0.5-2l2.4-1.1l1.6-1.5l1.3-0.6l1.1,1.8c0,0,0.5,0.8,1.4-0.1
					c0.9-0.8,0.9-0.8,0.9-0.8l-0.6-3.2c0,0-0.6-0.2-0.6-1.7s0-1.5,0-1.5s0,0.2,1.7,0.5c1.7,0.2,1.7,0.2,1.7,0.2l1.5,1.3l0.1,1
					l-0.3,1.1l2.9,1.6l1.5,1.3l0.9,0.3l-0.2-2.5c0,0,1.1-0.1-0.1-2.5c-1.1-2.4,0.2,0.6-1.1-2.4c-1.4-2.9-1.4-2.9-1.4-2.9l-0.8-2.7
					l-1.4-1.5l-1.1-1.1l-0.4-1.4c0,0-0.5,2-1.5,1.3s-1-0.7-1-0.7l-0.1-2.7l-0.5-1.3l-1.7,0.6l-1.4,3l-1,1l-2.5,1.1l-1.1,0.6l-1-0.5
					c0,0,1.6-0.1,1-2.4s0.3,0.2-0.6-2.3c-0.8-2.6-3.4-0.6-0.8-2.6c2.6-2,2.2-1.9,2.2-1.9l3.7-1.1l2.1,0.5l1.5-2.5l2.7-1.1l1.7,0.7
					l-1.9,2.5l-2.1,0.6l0.5,2.6l2.9,2l-0.1,1.1l2.1-1.8l0.2-2.2l1-1.2l0.6-0.8l-0.3-5.2l-0.5-2c-0.1,0.2-0.4,0.3-1.6-0.2
					c-2.2-0.9-2.2-0.9-2.2-0.9l-0.7-0.1l-1.7,1.5l0.1,1.2l-1.7,0.6l-0.2-1.1l0.2-1.9l-1.3,0.7l-1.7-0.4l-0.2-1.7l1.5-0.7l1-0.7v-1.3
					l-0.8-1.2l-0.4-0.5C145.2,101.9,134.5,120,134.5,140.7z M152.6,151.9l-0.5-1.6l-1.5-0.3l0.1,1.1h-1.3l-0.4-0.6l0.4-1l0.1-1.5
					l-2.7-3.2l-3.4-1.4l2.1,4.2l0.3,1.2l0.4,2.6l1.3-0.1l1.4,0.3l0.6,1.9l3.4,1.1l3.1-1.2C157,152.1,152.6,151.9,152.6,151.9z"/>
				<g>
					
						<linearGradient id="SVGID_41_" gradientUnits="userSpaceOnUse" x1="188.722" y1="420.5" x2="188.722" y2="420.5" gradientTransform="matrix(1 0 0 -1 31.778 512)">
						<stop  offset="8.593750e-02" style="stop-color:#83AB71"/>
						<stop  offset="0.2291" style="stop-color:#8EBE78"/>
						<stop  offset="0.501" style="stop-color:#A0DC84"/>
						<stop  offset="0.7337" style="stop-color:#ABEE8B"/>
						<stop  offset="0.8984" style="stop-color:#AFF58E"/>
					</linearGradient>
					<path class="st44" d="M220.5,91.5L220.5,91.5L220.5,91.5z"/>
					
						<linearGradient id="SVGID_42_" gradientUnits="userSpaceOnUse" x1="191.122" y1="410.9" x2="191.122" y2="410.9" gradientTransform="matrix(1 0 0 -1 31.778 512)">
						<stop  offset="8.593750e-02" style="stop-color:#83AB71"/>
						<stop  offset="0.2291" style="stop-color:#8EBE78"/>
						<stop  offset="0.501" style="stop-color:#A0DC84"/>
						<stop  offset="0.7337" style="stop-color:#ABEE8B"/>
						<stop  offset="0.8984" style="stop-color:#AFF58E"/>
					</linearGradient>
					<path class="st45" d="M222.9,101.1L222.9,101.1L222.9,101.1z"/>
					
						<linearGradient id="SVGID_43_" gradientUnits="userSpaceOnUse" x1="166.977" y1="303.3581" x2="221.0472" y2="391.1114" gradientTransform="matrix(1 0 0 -1 31.778 512)">
						<stop  offset="8.593750e-02" style="stop-color:#83AB71"/>
						<stop  offset="0.2291" style="stop-color:#8EBE78"/>
						<stop  offset="0.501" style="stop-color:#A0DC84"/>
						<stop  offset="0.7337" style="stop-color:#ABEE8B"/>
						<stop  offset="0.8984" style="stop-color:#AFF58E"/>
					</linearGradient>
					<path class="st46" d="M221.5,171.8L221.5,171.8C221.3,171.8,221.5,171.8,221.5,171.8z"/>
					
						<linearGradient id="SVGID_44_" gradientUnits="userSpaceOnUse" x1="99.0919" y1="345.0667" x2="153.2781" y2="433.0083" gradientTransform="matrix(1 0 0 -1 31.778 512)">
						<stop  offset="8.593750e-02" style="stop-color:#83AB71"/>
						<stop  offset="0.2291" style="stop-color:#8EBE78"/>
						<stop  offset="0.501" style="stop-color:#A0DC84"/>
						<stop  offset="0.7337" style="stop-color:#ABEE8B"/>
						<stop  offset="0.8984" style="stop-color:#AFF58E"/>
					</linearGradient>
					<path class="st47" d="M172,99.9l0.1,0.4C172.2,100.1,172,99.9,172,99.9z"/>
					
						<linearGradient id="SVGID_45_" gradientUnits="userSpaceOnUse" x1="135.922" y1="334.2" x2="135.922" y2="334.2" gradientTransform="matrix(1 0 0 -1 31.778 512)">
						<stop  offset="8.593750e-02" style="stop-color:#83AB71"/>
						<stop  offset="0.2291" style="stop-color:#8EBE78"/>
						<stop  offset="0.501" style="stop-color:#A0DC84"/>
						<stop  offset="0.7337" style="stop-color:#ABEE8B"/>
						<stop  offset="0.8984" style="stop-color:#AFF58E"/>
					</linearGradient>
					<path class="st48" d="M167.7,177.8L167.7,177.8L167.7,177.8z"/>
				</g>
			</g>
			<g>
				<path class="st30" d="M195.1,185.7c-19.6,0-39.1-4.3-53.9-12.8c-11.5-6.7-19-15.1-21.6-24.5l2.3-0.6c2.4,8.8,9.6,16.8,20.5,23.1
					c29.2,16.8,76.8,16.7,106.1-0.2c12.8-7.4,20.5-17.1,21.7-27.4l2.3,0.3c-1.2,11-9.3,21.4-22.8,29.2
					C234.6,181.3,214.8,185.7,195.1,185.7z"/>
			</g>
			<g>
				<path class="st30" d="M153.6,205c-8.1-6.8-12.6-18.6-12.6-33.4c0-34.6,24.3-76.8,54.1-94c5.1-2.9,10.2-5,15-6.2l0.6,2.3
					c-4.7,1.1-9.5,3.2-14.4,6c-29.2,16.8-52.9,58.1-52.9,92c0,14,4.2,25.3,11.8,31.6L153.6,205z"/>
			</g>
			<g>
				<rect x="194.8" y="53.2" class="st30" width="2.3" height="39.1"/>
			</g>
			<g>
				<path class="st30" d="M196,54.4c-4.1,0-7.5-3.4-7.5-7.5s3.4-7.5,7.5-7.5s7.5,3.4,7.5,7.5S200.1,54.4,196,54.4z M196,41.8
					c-2.8,0-5.1,2.3-5.1,5.1s2.3,5.1,5.1,5.1s5.1-2.3,5.1-5.1S198.8,41.8,196,41.8z"/>
			</g>
			<path class="st30" d="M198.7,93.8c-1.5,0.9-3.9,0.9-5.4,0s-1.5-2.2,0-3.1s3.9-0.9,5.4,0C200.2,91.6,200.2,93,198.7,93.8z"/>
		</g>
	</g>
</g>
</svg>
