<?xml version="1.0" encoding="utf-8"?>
<!-- Generator: Adobe Illustrator 23.0.5, SVG Export Plug-In . SVG Version: 6.00 Build 0)  -->
<svg version="1.1" id="Layer_1" xmlns="http://www.w3.org/2000/svg" xmlns:xlink="http://www.w3.org/1999/xlink" x="0px" y="0px"
	 viewBox="0 0 512 512" style="enable-background:new 0 0 512 512;" xml:space="preserve">
<style type="text/css">
	.st0{fill:#EDF6FF;}
	.st1{fill:#9E9CFF;}
	.st2{fill:#848CFF;}
	.st3{fill:#727DF7;}
	.st4{fill:#BCBEDB;}
	.st5{fill:#E3E5EF;}
	.st6{fill:#5A6EAB;}
	.st7{fill:#4E609F;}
	.st8{fill:#3E4D90;}
	.st9{fill:#667AB6;}
	.st10{fill:url(#SVGID_1_);}
	.st11{fill:#7286C3;}
	.st12{fill:#5766AB;}
	.st13{fill:#5F72B0;}
	.st14{fill:#6A7EBD;}
	.st15{fill:url(#SVGID_2_);}
	.st16{fill:#758AC7;}
	.st17{fill:#859BD3;}
	.st18{fill:#313B70;}
	.st19{fill:url(#SVGID_3_);}
	.st20{fill:#CBB8BF;}
	.st21{fill:#3A3F47;}
	.st22{fill:#A2CBFA;}
	.st23{fill:#3F4040;}
	.st24{fill:url(#SVGID_4_);}
	.st25{fill:url(#SVGID_5_);}
	.st26{fill:#BA9A6A;}
	.st27{fill:#AB8A60;}
	.st28{fill:#EAD4BA;}
	.st29{fill:#70524B;}
	.st30{fill:#C7DFFF;}
	.st31{fill:#A9BCCE;}
	.st32{fill:url(#SVGID_6_);}
	.st33{fill:#ADD1FF;}
	.st34{fill:url(#SVGID_7_);}
	.st35{fill:url(#SVGID_8_);}
	.st36{fill:#D4BCAB;}
	.st37{fill:#FEB9B8;}
	.st38{fill:url(#SVGID_9_);}
	.st39{fill:#ECECEC;}
	.st40{fill:url(#SVGID_10_);}
	.st41{fill:url(#SVGID_11_);}
	.st42{fill:#2A2B2B;}
	.st43{fill:#1B1C1C;}
	.st44{fill:#2E2F2F;}
	.st45{fill:#474848;}
	.st46{fill:url(#SVGID_12_);}
	.st47{fill:#4079FF;}
	.st48{fill:url(#SVGID_13_);}
	.st49{fill:#B89D88;}
	.st50{fill:#292A2A;}
	.st51{fill:url(#SVGID_14_);}
	.st52{fill:url(#SVGID_15_);}
	.st53{fill:url(#SVGID_16_);}
	.st54{fill:#F5F0F0;}
	.st55{fill:#CACDDD;}
	.st56{fill:#CC9372;}
	.st57{fill:#E7B69A;}
	.st58{fill:#78473A;}
	.st59{fill:#C9C9D4;}
	.st60{fill:#E6DEFF;}
	.st61{fill:#FBF9FF;}
	.st62{fill:#FFFFFF;}
</style>
<g>
	<g>
		
			<ellipse transform="matrix(5.422511e-03 -1 1 5.422511e-03 -73.2158 581.9021)" class="st0" cx="255.9" cy="327.8" rx="144.3" ry="250"/>
	</g>
	<g>
		<path class="st1" d="M225.9,414.2L225.9,414.2c-46-26.6-40.3-73,12.9-103.7l37.9-21.9c53.1-30.7,133.5-34,179.6-7.4l0,0
			c46,26.6,40.3,73-12.9,103.7l-37.9,21.9C352.3,437.4,271.9,440.8,225.9,414.2z"/>
		<path class="st2" d="M229.6,412.1L229.6,412.1c-44.2-25.5-38.7-70.1,12.4-99.6l38-21.9c51.1-29.5,128.3-32.7,172.5-7.2l0,0
			c44.2,25.5,38.7,70.1-12.4,99.6l-38,21.9C351,434.4,273.8,437.6,229.6,412.1z"/>
		<path class="st3" d="M254.8,397.5c-14.6-8.4-22.7-19.6-22.7-31.5c-0.1-11.9,7.9-23,22.4-31.4l63.8-36.8
			c14.5-8.4,33.8-13,54.4-12.9c20.6,0,40,4.7,54.5,13.1c14.6,8.4,22.7,19.6,22.7,31.5c0.1,11.9-7.9,23-22.4,31.4l-63.8,36.8
			c-14.5,8.4-33.8,13-54.4,12.9C288.8,410.6,269.4,405.9,254.8,397.5z"/>
		<path class="st2" d="M276.9,384.7c-8.7-5-13.4-11.6-13.5-18.7c0-7,4.7-13.7,13.3-18.6l63.8-36.8c8.6-5,20.1-7.7,32.3-7.7
			c12.2,0,23.7,2.8,32.3,7.8c8.7,5,13.4,11.6,13.5,18.7c0,7-4.7,13.7-13.3,18.6l-63.8,36.8c-8.6,5-20.1,7.7-32.3,7.7
			C297.1,392.5,285.6,389.7,276.9,384.7z"/>
	</g>
	<g>
		<g>
			<path class="st4" d="M381.2,223.7l-101.3-58.5c-5.1-2.9-12.8-3.2-17.2-0.7L51.3,286.6c-4.4,2.5-3.8,7,1.2,9.9L153.8,355
				c5.1,2.9,12.8,3.2,17.2,0.7l42.7-24.7c0.6,0.4,1.2,0.8,1.8,1.2c16.2,9.4,42.6,9.3,58.9-0.1c4.6-2.6,7.8-5.7,9.8-9
				c14.5,2.8,31.3,0.9,42.9-5.8c16.3-9.4,16.4-24.7,0.2-34c-5.7-3.3-12.6-5.4-19.9-6.4l74.9-43.3
				C386.8,231.1,386.2,226.7,381.2,223.7z"/>
			<path class="st5" d="M70.8,295.5l9.2-69.4c-0.1,0.7,0.3,1.5,1.2,2c1.3,0.8,3.1,0.7,4.1-0.2c0.3-0.3,0.5-0.6,0.6-1l-12.6,68.9
				c0,0.1-0.1,0.3-0.2,0.4c-0.4,0.4-1.1,0.4-1.6,0.1C70.9,296.1,70.8,295.8,70.8,295.5z"/>
			<path class="st5" d="M156.7,251.7c1,0.4,2.9,0.4,4.1,0c0.7-0.2,1.1-0.5,1.1-0.8l2.6,98c0,0.1-0.1,0.2-0.4,0.3
				c-0.5,0.2-1.2,0.2-1.7,0c-0.2-0.1-0.3-0.2-0.3-0.2l-6.1-97.9C156,251.3,156.2,251.6,156.7,251.7z"/>
			<g>
				<path class="st5" d="M356.4,156.4l2.2,80.5c0,0.1-0.1,0.2-0.4,0.3c-0.5,0.2-1.2,0.2-1.7,0c-0.2-0.1-0.3-0.2-0.3-0.2l-5.1-80.9
					C352.8,156.6,354.7,156.7,356.4,156.4z"/>
			</g>
			<path class="st6" d="M200.7,112.9l-15.7-9c-1.6-0.9-3.5-0.5-4.6,0.7c-0.6,0.6-94.2,53.2-94.2,54.2l20,35.1l100.2-15.7v-55.3
				C206.5,118.7,204.3,114.9,200.7,112.9z"/>
			<g>
				<path class="st7" d="M365,182.4v19.3c0,3.7-2,7.1-5.2,9L338,223.3l-150.7,87L164,323.8c-2.3,1.3-5.2,1.3-7.5,0l-85.9-49.6
					c-3.6-2.1-5.8-5.9-5.8-10v-16.9c0-2.5,1.3-4.9,3.5-6.1l45.7-26.4L269.6,125l93.4,53.9C364.2,179.6,365,181,365,182.4z"/>
				<path class="st8" d="M164,323.8c-2.3,1.3-5.2,1.3-7.5,0l-85.9-49.6c-3.6-2.1-5.8-5.9-5.8-10v-16.9c0-2.5,1.3-4.9,3.5-6.1
					l45.7-26.4c18.1,10.4,37.9,28.9,37.9,28.9s13.5,50.4,11.4,51.6s-3.1,2.3-3.1,3.1v15.5C160.2,320.9,159.2,324,164,323.8z"/>
				<path class="st9" d="M269.6,125l93.4,53.9c0,0,0,0,0.1,0.1c-0.8,1.2-1.9,2.2-3.2,2.9L338,194.4l-150.8,87L164,294.9
					c-2.3,1.3-5.2,1.3-7.5,0l-85.9-49.6c-1.4-0.8-2.6-1.9-3.5-3.2c0.4-0.4,0.8-0.7,1.3-1L269.6,125z"/>
				<g>
					
						<linearGradient id="SVGID_1_" gradientUnits="userSpaceOnUse" x1="3071.8928" y1="355.3405" x2="3030.572" y2="426.9102" gradientTransform="matrix(-1 0 0 -1 3349.2188 512)">
						<stop  offset="0.6602" style="stop-color:#3E4D90"/>
						<stop  offset="0.7412" style="stop-color:#7186BF"/>
					</linearGradient>
					<path class="st10" d="M248.4,65.1l12.5-7.2c3.2-1.4,6.1-2,11.8,1.2c0.8,0.4,90.1,50.8,90.1,51.8l-20,35.1l-3.8-0.4l2.7,44.1
						c0,2-5.8,0.6-7.6-0.5l-91.5-52.8V75.1C242.6,71,244.8,67.2,248.4,65.1z"/>
					<g>
						<path class="st11" d="M342.3,121.1l17.2-9.9c2.7-1.6,4.9,0.1,4.9,3.7v55.4c0,3.6-2.2,7.8-4.9,9.4l-17.2,9.9
							c-2.7,1.6-4.9-0.1-4.9-3.7v-55.4C337.3,126.9,339.5,122.7,342.3,121.1z"/>
						<path class="st12" d="M340.3,191.3c-0.6,0-1.3-0.2-1.8-0.5c-1.4-0.8-2.3-2.6-2.3-4.9v-55.4c0-4,2.4-8.6,5.5-10.3l17.2-9.9
							c1.5-0.9,3.1-1,4.3-0.3c1.4,0.8,2.3,2.6,2.3,4.9v55.4c0,4-2.4,8.6-5.5,10.3l-17.2,9.9C342,191,341.1,191.3,340.3,191.3z
							 M361.4,111.7c-0.5,0-1,0.2-1.4,0.4l-17.2,9.9c-2.4,1.4-4.3,5.2-4.3,8.4v55.4c0,1.5,0.4,2.6,1.1,3s1.5,0.1,2.1-0.3l17.2-9.9
							c2.4-1.4,4.3-5.2,4.3-8.4v-55.4c0-1.5-0.4-2.6-1.1-3C361.9,111.8,361.6,111.7,361.4,111.7z"/>
					</g>
					<path class="st13" d="M358.5,179.2c3.2-1.9,5.2-5.3,5.2-9v-54.5c0-1.2-1-1.9-1.9-1.9c-0.3,0-0.6,0.1-0.9,0.3l-15.6,9
						c-3,1.7-4.9,5-4.9,8.4v53.4c0,2.2,2.3,3.5,4.2,2.4L358.5,179.2z"/>
				</g>
				<g>
					<path class="st14" d="M266.9,143.8l-132,76.2l37,48.7c5.3,6.9,14.9,8.9,22.4,4.6l137-78.3c3-1.7,3-6.1,0-7.8l-12-13.2
						L266.9,143.8z"/>
					<path class="st12" d="M185.7,276.7c-5.6,0-11.1-2.6-14.7-7.3l-37.8-49.7l133.7-77.2l53.2,30.8l11.8,13c1.7,1,2.7,2.8,2.7,4.8
						s-1.1,3.9-2.8,4.9l-137,78.3C192,275.9,188.8,276.7,185.7,276.7z M136.5,220.3l36.2,47.7c4.9,6.5,13.9,8.3,21,4.3l137-78.3
						c1.1-0.6,1.7-1.7,1.7-2.9s-0.6-2.3-1.7-2.9l-0.3-0.2l-11.8-13l-51.7-29.8L136.5,220.3z"/>
				</g>
				<path class="st14" d="M330.4,193.5l-139.5,80.3c-2.1,1.2-4.7,1.2-6.7-0.1l-69.8-43.1c-1.9-1.2-3.1-3.3-3.1-5.6v-14.1
					c0-3,2-5.6,4.9-6.3l150.1-38.3c0.4-0.1,0.9-0.2,1.3-0.2l59-3c3.7-0.2,6.9,2.8,6.9,6.6v18.5C333.4,190.3,332.3,192.4,330.4,193.5
					z"/>
				<g>
					<path class="st11" d="M228,54.2l-114.4,66.1c-5.7,3.3-8.9,9.7-8,16.3l7.5,56.6l132-76.2l-7.7-58.1
						C236.8,54.4,231.9,52,228,54.2z"/>
					<path class="st12" d="M112.2,195l-7.7-58.3c-0.9-7,2.4-13.9,8.6-17.4l114.4-66.1c2.2-1.2,4.8-1.3,7-0.2s3.8,3.2,4.1,5.7
						l7.8,58.8L112.2,195z M228.5,55.2l-114.4,66.1c-5.3,3.1-8.3,9-7.5,15.2l7.3,54.9l129.9-75L236.3,59c-0.2-1.7-1.3-3.2-2.8-4
						C231.8,54.3,230,54.3,228.5,55.2L228.5,55.2z"/>
				</g>
				
					<linearGradient id="SVGID_2_" gradientUnits="userSpaceOnUse" x1="3218.6213" y1="308.9753" x2="3126.4351" y2="468.6465" gradientTransform="matrix(-1 0 0 -1 3349.2188 512)">
					<stop  offset="0.2589" style="stop-color:#48579B"/>
					<stop  offset="0.3318" style="stop-color:#8C9FD4"/>
				</linearGradient>
				<path class="st15" d="M229,54.5l-114.4,66.1c-5.7,3.3-8.9,9.7-8,16.3l7.5,56.6l20.8,8l111.3-84.2l9.4-55c0,0-18.4-6.5-19.8-7.5
					C233.8,53.5,231.2,53.2,229,54.5z"/>
				<g>
					<path class="st11" d="M249.8,62.5l-114.4,66.1c-5.7,3.3-8.9,9.7-8,16.3l7.5,56.6l132-76.2l-7.7-58.1
						C258.6,62.7,253.7,60.3,249.8,62.5z"/>
					<path class="st12" d="M134,203.3l-7.7-58.3c-0.9-7,2.4-13.9,8.6-17.4l114.4-66.1c2.2-1.2,4.8-1.3,7-0.2
						c2.2,1.1,3.8,3.2,4.1,5.7l7.8,58.8L134,203.3z M252.9,62.8c-0.9,0-1.8,0.2-2.6,0.7l-114.4,66.1c-5.3,3.1-8.3,9-7.5,15.2
						l7.3,54.9l129.9-75L258,67.4c-0.2-1.7-1.3-3.2-2.8-4C254.5,63,253.7,62.8,252.9,62.8z"/>
				</g>
				<g>
					<path class="st16" d="M262.6,124.2l-127.7,73.7l52.4,51.9l144-83.1c3-1.7,3-6.1,0-7.8l-11.9-6.9l-48.1-27.8
						C268.5,122.6,265.3,122.6,262.6,124.2z"/>
					<path class="st12" d="M187.1,251.2L133,197.7l129-74.5c3-1.7,6.7-1.7,9.7,0l60,34.7c1.8,1,2.8,2.9,2.8,4.9s-1.1,3.9-2.8,4.9
						L187.1,251.2z M136.7,198.1l50.7,50.2l143.2-82.7c1.1-0.6,1.7-1.7,1.7-2.9s-0.6-2.3-1.7-2.9l-60-34.7c-2.3-1.3-5.2-1.3-7.5,0
						L136.7,198.1z"/>
				</g>
				<path class="st17" d="M324.5,162.8c2-1.2,2-4.1,0-5.2l-7.4-4.3L269,125.5c-0.6-0.4-1.3-0.6-2.1-0.6c-0.7,0-1.4,0.2-2.1,0.6
					l-122.6,70.8l45.8,45.3L324.5,162.8z"/>
				<polygon class="st18" points="134.9,201.5 116.8,212.6 187.3,253.3 187.3,231.7 				"/>
				<g>
					
						<linearGradient id="SVGID_3_" gradientUnits="userSpaceOnUse" x1="3244.5996" y1="249.7493" x2="3203.3013" y2="321.2799" gradientTransform="matrix(-1 0 0 -1 3349.2188 512)">
						<stop  offset="0.6602" style="stop-color:#3E4D90"/>
						<stop  offset="0.7412" style="stop-color:#7186BF"/>
					</linearGradient>
					<path class="st19" d="M64.8,177.8c0-4.1,2.2-8,5.8-10l15.7-9c1.6-0.9,3.5-0.5,4.6,0.7c0.6,0.6,94.2,53.2,94.2,54.2l0,0
						c1.3,0.6,2.2,1.8,2.2,3.4v55.6c0,3.8-2,7.3-5.3,9.2l-17.1,9.9c-2.8,1.6-6.3,1.6-9.1,0l-85-49.1c-3.6-2.1-5.8-5.9-5.8-10.1V198
						v-20.2H64.8L64.8,177.8z"/>
					<g>
						<path class="st11" d="M165.1,223l17.2-9.9c2.7-1.6,4.9,0.1,4.9,3.7v55.4c0,3.6-2.2,7.8-4.9,9.4l-17.2,9.9
							c-2.7,1.6-4.9-0.1-4.9-3.7v-55.4C160.2,228.8,162.4,224.6,165.1,223z"/>
						<path class="st12" d="M163.2,293.2c-0.6,0-1.3-0.2-1.8-0.5c-1.4-0.8-2.3-2.6-2.3-4.9v-55.4c0-4,2.4-8.6,5.5-10.3l17.2-9.9
							c1.5-0.9,3.1-1,4.3-0.3c1.4,0.8,2.3,2.6,2.3,4.9v55.4c0,4-2.4,8.6-5.5,10.3l-17.2,9.9C164.9,293,164,293.2,163.2,293.2z
							 M184.3,213.6c-0.5,0-1,0.2-1.4,0.4l-17.2,9.9c-2.4,1.4-4.3,5.2-4.3,8.4v55.4c0,1.5,0.4,2.6,1.1,3c0.7,0.4,1.5,0.1,2.1-0.3
							l17.2-9.9c2.4-1.4,4.3-5.2,4.3-8.4v-55.4c0-1.5-0.4-2.6-1.1-3C184.8,213.7,184.5,213.6,184.3,213.6z"/>
					</g>
					<path class="st13" d="M181.1,280.8c3.2-1.9,5.2-5.3,5.2-9v-54.5c0-1.2-0.8-2.1-1.7-2.1c-0.3,0-0.9,0.2-1.2,0.4l-15.6,9
						c-3,1.7-4.9,5-4.9,8.4v53.4c0,2.2,2.3,3.5,4.2,2.4L181.1,280.8z"/>
				</g>
			</g>
			<g>
				<path class="st20" d="M177.3,90c-12.2,8.3-13.6,10.9-13.3,19.1s1.5,26.3,5,41.2c2,8.3,0.5,24.5,0.7,29.2
					c0.3,4.6-5.9,6.6,2.4,14.4c8,7.6,51.4,34,48.1,36.2c-0.8,0.6-3.8,59.6-0.6,61.6l19.6-11.3c0,0-3.3-58.7-3.3-60
					s2.5-13.6,2.5-13.6s11.4,2.7,13.6,4.8c2.2,2.1,5.9,58,5.9,58l17.6-10.1c0,0-2.4-48-4.5-52.5s-36.4-24.7-36.4-24.7L177.3,90z"/>
				<g>
					<g>
						<path class="st21" d="M283.1,282.3c-1.5,0.6-3.5,2.4-4.1,4.2c-0.5,1.8-0.8,3.2-0.8,3.9c0,0.7,1,2.4,4.3,4s4.3,2.4,5.6,2.4
							c1.4,0,2.1-0.1,2.1-0.1l1.5-0.6c0,0,3.1,1.6,3.7,2.7c0.6,1,2.8,3.9,4.3,5.7c1.5,1.7,4.4,3.2,7.2,4.4c2.8,1.2,7.2,2.7,9.8,2.5
							c2.6-0.2,4.6-1.9,5.8-3.6c1.2-1.7,0.4-5.3,0-6.2c-0.4-0.9-3-3.2-3.8-3.6s-16-7.9-17.7-8.8
							C299.2,288.3,283.1,282.3,283.1,282.3z"/>
						<path class="st21" d="M225.6,287.8c-0.6,1.2-2,1.6-2,3.3c0,1.7-0.1,4.4,0.3,5.1c0.3,0.8,2.4,3.6,3.5,4.3c1.1,0.7,2,1.1,2,1.1
							s1.2,2.3,1.3,2.5s1.8,5,4.3,8.5s8.4,6.9,14.3,7.6s10.8-0.9,11.4-3.6s-1.1-6.4-1.1-6.4L225.6,287.8z"/>
						<path class="st22" d="M213.9,78.4c4.3-7,54.3,19.1,55.1,22.8c0.8,3.6-29.7,4-30.8,4.8c-1,0.8-5.1-1.4-5.6-1.4
							s-7.3,3.2-7.7,3.1s-4.5-23.4-4.5-23.4L213.9,78.4z"/>
						<path class="st23" d="M281.9,276.4c-0.4,1.6-1.3,6.8-0.9,9.2c0.3,2.4,1.8,4.3,5.8,5.6c4,1.3,8.3,3.9,9.8,5.3s5.8,6.8,8.5,8.2
							c2.7,1.5,9.9,5.1,13.5,3.6c3.5-1.5,3.3-3,3.3-5s-0.2-3.1-2.5-6c-2.2-2.9-13.1-12.1-14.5-13.5c-1.4-1.3-2.6-5.5-3.7-6.4
							c-1.1-1-5.5-3.1-9.7-3.5S282.2,275.4,281.9,276.4z"/>
						<path class="st23" d="M244.2,285.6c1.2,1.4,3.1,4.4,4,6.2c0.9,1.8,4,7.5,5.4,9.2s5.9,8.9,6.2,10.5s0.5,2.8-0.2,4
							c-0.6,1.2-4,3.9-10.6,2.8s-10.9-4.9-12.7-7.1s-5.1-10.1-6.5-12.4c-1.3-2.4-4.4-5-4.9-7.3c-0.5-2.2-0.8-6.4-0.2-7.9
							c0.6-1.4,9.1-1.4,9.4-1.5C234.5,282.1,244.2,285.6,244.2,285.6z"/>
						
							<linearGradient id="SVGID_4_" gradientUnits="userSpaceOnUse" x1="3101.8818" y1="223.3406" x2="3121.3164" y2="223.3406" gradientTransform="matrix(-1 0 0 -1 3349.2188 512)">
							<stop  offset="4.947920e-02" style="stop-color:#FEB9B8"/>
							<stop  offset="0.9922" style="stop-color:#FEA5A4"/>
						</linearGradient>
						<path class="st24" d="M228.1,284.4c-0.7,4.6,0.7,10.4,10.5,11.5s8.7-5.8,8.7-5.8l-9.7-8.8L228.1,284.4z"/>
						
							<linearGradient id="SVGID_5_" gradientUnits="userSpaceOnUse" x1="2827.52" y1="300.7077" x2="2846.0264" y2="300.7077" gradientTransform="matrix(-0.9988 4.980000e-02 -4.980000e-02 -0.9988 3141.167 433.0125)">
							<stop  offset="4.947920e-02" style="stop-color:#FEB9B8"/>
							<stop  offset="0.9922" style="stop-color:#FEA5A4"/>
						</linearGradient>
						<path class="st25" d="M300.5,266c0.4,6.1-0.3,10.6,0.3,11.8c0.6,1.2,0.9,2.6,1.4,3.9c0.2,0.6,0.6,1.1,0.3,1.7
							c-0.3,0.6-1,1.1-1.5,1.4c-2.3,1.2-5.1,1.6-7.7,1.2c-2.4-0.4-5.1-1.6-6.7-3.5c-0.9-1.1-3-2.4-2.7-4.1c0.1-0.7,1.4-5,1-9
							c-0.3-4-0.4-7.4-0.4-7.4L300.5,266z"/>
						<path class="st26" d="M224.6,189.2c0.2,0.3,0.3,0.5,0.5,0.8c3.4,6.4,4.4,5.1,21.4,13.3s26.3,13.8,26.3,13.8s0.8,1.6,1.9,4.7
							c0,6.8,9.1,53.8,9.1,53.8s0.3,0.8,2.2,1.6c0.5,0.1,1,0.2,1.7,0.1c5.4,0.1,14.5-3.1,14.6-4.4c0.2-1.4-5.6-52.2-6.3-59.5
							c-0.8-7.4-1.3-10.3-7.1-15.8c-5.8-5.5-33.2-25.1-36.5-27c-3.4-1.9-13.9-8.1-13.9-8.1s-0.4-1-3-4.5l-12.4-7.6
							c0,0-3.3,1.9-10,12.1C206.7,172.2,220.6,182.7,224.6,189.2z"/>
						<g>
							<path class="st27" d="M287.9,277.3c-3.9-16.2-6.5-31.7-8.4-43c-1.5-8.6-2.5-14.9-3.3-16.6c-1.8-3.7-12.5-10.2-17.9-12.9
								c-4.4-2.2-22.6-10.2-24.1-10.7c-1.6-0.6-3.7-1.7-3.8-1.7l0.5-0.9c0,0,2.1,1.1,3.6,1.7c1.5,0.5,19.7,8.6,24.2,10.8
								c3.1,1.5,16.2,8.8,18.4,13.4c0.9,1.9,1.9,7.8,3.4,16.9c1.9,11.3,4.5,26.8,8.4,42.9L287.9,277.3z"/>
						</g>
						<path class="st28" d="M224.6,189.2c0.2,0.3,0.3,0.5,0.5,0.8c3.4,6.4,4.4,5.1,21.4,13.3s26.3,13.8,26.3,13.8s0.8,1.6,1.9,4.7
							c0,6.8,9.1,53.8,9.1,53.8s0.3,0.8,2.2,1.6c0.5,0.1,1,0.2,1.7,0.1c-1.3-6.8-2.8-13.6-4.4-20.3c-2.3-9.4-5.3-18.8-5.7-28.5
							c-0.1-3,0.6-6.9-0.5-9.8c-0.9-2.3-3-3.8-5-5.1c-6.8-4.7-13.6-9.4-21-13.1c-3.3-1.7-6.9-3.4-8.9-6.6c-0.4-0.7-0.7-1.4-1.2-2
							c-1.9-2.5-5.9-3.2-7-6.1c-2.1,0.6-4.4,1.1-6.6,1.7C226.3,187.8,225.1,188.2,224.6,189.2C224.7,189.1,224.7,189.1,224.6,189.2z
							"/>
						<path class="st26" d="M224.6,160.8c1.9,5.2,2.3,9.7,2.3,9.7s4.1,5.9,6.3,11.4s-1.1,8.9-0.2,10.7c0.8,1.8,13,17.8,16.6,24.2
							s-0.2,23.4-0.9,34.7s-1.3,33.4-2.4,37.1c-1,3.7-11.8,5.2-14.7,3.9c-2.9-1.3-4.1-2.6-4.4-4.5c-0.4-1.9-0.2-19.5-1.2-30.9
							c-0.9-11.4,0.3-25.6,0.7-28s-3.3-3.8-3.3-3.8s-21.9-16.3-27.6-20.8s-8.2-7.4-9.7-14.5c-1.6-7.1-0.9-13.6-0.8-16.8
							c0-1,0-2.1,0.1-3.1c0.1-2.7,1.8-5,4.4-5.8c6.7-2.2,19.3-6.4,19.6-6.5C209.7,157.8,224.6,160.8,224.6,160.8z"/>
						<g>
							<path class="st27" d="M228.1,291.2c0-0.4-0.9-9.7-0.7-13.8c0.1-4.2-0.5-22.3-0.8-27.7c-0.3-5.8,0.7-15.9,0.8-16
								c0.1-2,0.2-7.5-0.6-9c-1.1-1.8-14.1-14.2-17.9-17.8c-3.3-3.1-13.2-13.6-15.7-17.9c-3.4-5.9-4.7-11.7-3.9-17.8l1,0.1
								c-0.8,5.8,0.5,11.4,3.8,17.1c2.4,4.2,12.2,14.6,15.5,17.7c2,1.8,16.8,15.9,18.1,18c1.2,1.9,0.8,8.8,0.8,9.5
								c0,0.1-1,10.1-0.8,15.9c0.3,5.5,0.9,23.6,0.8,27.8c-0.1,4.1,0.7,13.6,0.7,13.7L228.1,291.2z"/>
						</g>
						<g>
							<path class="st27" d="M235.2,192.8l-0.8-0.5c1.5-2.6,2-9.4-1.6-16.3c-2.6-5.1-3.9-6.3-4.9-7.2c-0.3-0.3-0.7-0.6-1-1l0.8-0.6
								c0.3,0.3,0.6,0.6,0.9,0.9c1,0.9,2.4,2.2,5.1,7.5C237.4,182.9,236.8,190.1,235.2,192.8z"/>
						</g>
						<g>
							<path class="st27" d="M234.8,184.6c-1.8,0-5.5-0.3-7.1-2.5c-2-2.7-5-8.3-8.2-14.3l0.9-0.5c3.2,6,6.2,11.5,8.1,14.2
								c1.8,2.5,7.3,2,7.3,2l0.1,1C235.8,184.5,235.4,184.6,234.8,184.6z"/>
						</g>
						<path class="st29" d="M238.5,162.3c-1.3,2.3-5.9,5.4-12.5,7.3c-6.6,1.9-27.8,4.3-31.7,4.9c-3.9,0.5-9.2,0.5-9.2,0.1
							s-0.7-7.8-0.7-7.8l42.5-9.9c0,0,7.8-1,8.8,0.1C236.7,158.2,238.5,162.3,238.5,162.3z"/>
						<g>
							<path class="st26" d="M236.4,167.2c-0.4-1.8-1.2-3.3-1.9-5c-0.8-1.7-1.6-3.4-2.1-5.4l2.2-0.6c0.4,1.8,1.2,3.3,1.9,5
								c0.8,1.7,1.6,3.4,2.1,5.4L236.4,167.2z"/>
						</g>
						<g>
							<path class="st26" d="M191.7,178.6c-1.3-3.3-1.3-6.9-1.3-10.1c0-0.8,0-1.7,0.1-2.6l2.2,0.4c-0.1,0.7-0.1,1.4-0.1,2.2
								c0,3.1,0,6.4,1.2,9.3L191.7,178.6z"/>
						</g>
						<path class="st30" d="M199.8,79.6c-9.7,2.3-28.1,13.1-28.8,15.2s11.7,39.1,12.8,46.2s1.7,24.7,2.2,26.6
							c0.6,1.9,29.4-0.8,36.9-3.1s12.4-5.3,13.4-6.3c0.9-1-2.1-22.7-1.6-31.9s0.3-14.6,0-23.1s-4.3-17.2-7.2-19.3
							c-5.7-4.2-10.1-6.4-13.7-6.3C210.2,77.7,199.8,79.6,199.8,79.6z"/>
						<path class="st31" d="M178.8,106.1c1.6-1.1,5.2-1.7,6.2,0.4c0.8,1.5,1.4,3.2,2,4.9c0.7,1.8,1.3,3.6,1.7,5.5
							c0.9,4.5,0.2,9.1,0.2,13.6c0,1.6,0.1,3.1,0.2,4.7c0.1,1.3,0,3.2,0.4,4.5c0.4,1.2,2,2.3,2.9,3.2c1.2,1.2,2.3,2.3,3.5,3.5
							c4.7,4.7,9.3,9.4,14,14.1c2.3,3.5,2.8,4.6,3.8,6.1c1.6,2.5,2.8,6.9,2.2,7.7c-0.3,0.3-14.1-9.4-14.4-9c-0.5,0.6-1.3,0.8-2,0.9
							c-3.3,0.3-5.9-2.4-8-5c-4.2-5.1-8.3-10.3-10.9-16.4c-2.9-6.6-3.9-13.8-4.9-21c-0.4-3.2-0.9-6.5-0.4-9.7c0.3-2.1,1-4.2,2-6.1
							C177.8,107.2,178.2,106.5,178.8,106.1z"/>
						<g>
							<path class="st22" d="M187.8,167.8h-1c0.1-2,0.1-4.1,0.1-6.1c-0.1-3.8-0.4-7.5-1-11.3c-0.2-1-0.2-2-0.3-2.9
								c-0.1-1.1-0.2-2.3-0.4-3.4c-0.2-1.1-0.5-2.3-0.8-3.4c-0.3-1.1-0.6-2.3-0.8-3.5c-0.3-1.5-0.5-3.1-0.6-4.6
								c-0.2-1.8-0.4-3.7-0.8-5.4c-0.4-1.9-1.1-3.7-1.7-5.5c-0.8-2.2-1.6-4.5-2-6.9l1-0.2c0.4,2.3,1.2,4.5,2,6.7
								c0.7,1.8,1.3,3.7,1.8,5.6c0.4,1.8,0.6,3.7,0.8,5.6c0.2,1.5,0.3,3,0.6,4.5c0.2,1.2,0.5,2.3,0.8,3.5c0.3,1.1,0.6,2.3,0.8,3.4
								c0.2,1.2,0.3,2.4,0.4,3.6c0.1,0.9,0.1,1.9,0.3,2.8c0.6,3.8,0.9,7.6,1,11.4C188,163.7,187.9,165.8,187.8,167.8z"/>
						</g>
						
							<linearGradient id="SVGID_6_" gradientUnits="userSpaceOnUse" x1="2904.749" y1="501.4117" x2="2928.5713" y2="501.4117" gradientTransform="matrix(-0.9988 4.980000e-02 -4.980000e-02 -0.9988 3141.167 433.0125)">
							<stop  offset="4.947920e-02" style="stop-color:#FEB9B8"/>
							<stop  offset="0.9922" style="stop-color:#FEA5A4"/>
						</linearGradient>
						<path class="st32" d="M215.1,80.2c-0.4,4.6-0.3,10.4-0.9,13.3c-0.6,2.9-6.9,3.6-9.6,3.7c-2.7,0.1-6.5-3-10.4-7
							s-1.9-6.5-0.7-8.9c1.1-2.4,0.8-5.4,0.8-5.4s-2.3-8.2-3-9.5c-0.6-1.4-2.6-7.6,1.4-8.2c4-0.6,6.8,0.9,11.3,3
							C208.5,63.1,215.1,80.2,215.1,80.2z"/>
						<path class="st33" d="M210.3,95.4c3.4-0.8,4.3-5.5,4.3-5.5l0.3-6.1c0,0,3.1,1.2,4.5,3.2s-1.6,12-1.6,12l-4.8-3.1L210.3,95.4z"
							/>
						<path class="st33" d="M193.5,81.2c0.5,3.2,6.4,13.8,16.8,14.1c-1.2,3-1.1,7.2-1.1,7.2s-11.5-2-16.6-9.1
							c-3.7-5.2-3.6-8.4-3.6-9.6s5-4.9,5-4.9L193.5,81.2z"/>
						<path class="st33" d="M213,94.3c0,0,2.8,10.4,4.3,15.8s1.6,9.9,1.6,10.1s-3.6,1.2-3.7,1c-0.1-0.2-3.5-18.5-4.3-21
							c-0.8-2.6-2-5.2-2-5.2l2.2-1L213,94.3z"/>
						
							<linearGradient id="SVGID_7_" gradientUnits="userSpaceOnUse" x1="2845.5459" y1="473.7747" x2="2885.5884" y2="473.7747" gradientTransform="matrix(-0.9988 4.980000e-02 -4.980000e-02 -0.9988 3141.167 433.0125)">
							<stop  offset="4.947920e-02" style="stop-color:#FEB9B8"/>
							<stop  offset="0.9922" style="stop-color:#FEA5A4"/>
						</linearGradient>
						<path class="st34" d="M235.6,105.1c7.7,2.1,28,8.6,33.1,8.2s6.3-3.7,7.1-5.2c0.1-0.1,0-0.2-0.2-0.4
							c-2-2.4-26.1-15.3-28.9-16.1c-0.5-0.2-1.3,0-2.1,0.4c-3.5,1.6-8.7,7-8.7,7l-0.2,4.2L235.6,105.1z"/>
						
							<linearGradient id="SVGID_8_" gradientUnits="userSpaceOnUse" x1="3216.4851" y1="379.4752" x2="3269.8994" y2="379.4752" gradientTransform="matrix(-0.9995 -3.270000e-02 3.270000e-02 -0.9995 3480.3438 566.4927)">
							<stop  offset="4.947920e-02" style="stop-color:#FEB9B8"/>
							<stop  offset="0.9922" style="stop-color:#FEA5A4"/>
						</linearGradient>
						<path class="st35" d="M224.9,69.2c0.3,2.2,3.2,5.8,4.2,7l0,0l0.2,0.2c0.8,0.9,4.3,3.2,5.5,3.5c1.3,0.3,2.7,0.7,3.2,0.9
							c0.5,0.1,5.2,3.9,7.5,5.8c0,0,4.2,3.4,8.1,8.1c0.7,0.9,1.5,1.8,2.1,2.7c3.2,4.4,6.4,9.7,9.2,11.8l0,0c0.4,0.3,0.8,0.5,1.1,0.7
							c2.4,1,4.8,1,7.9-0.2h0.1c0.9-0.3,1.6-0.8,2-1.4c0.6-0.7,0.8-1.5,0.8-2.3c0.1-2.4-1.7-5-2.2-6c-0.7-1.4-8.2-9-14.2-13.9
							s-14.3-10.9-14.7-11.8s-1.9-6.5-3.1-8.5c-1.2-2-2.6-4.3-3.2-5.7c-0.7-1.3-3.5-5.1-4.3-5.9c-0.9-0.8-1.5,0.1-1.8,0.3
							c0,0,0,0.1-0.1,0.1l0,0c-0.1,0.3-0.1,1-0.1,1s-0.4-0.9-0.9-1.8l0,0c-0.3-0.7-0.7-1.4-0.9-1.8c-0.5-0.8-1.5-0.2-1.9,0.2
							c0,0,0,0,0,0.1c-0.2,0.6,0.4,2.5,0.4,2.5s-0.2-0.1-0.4-0.1c-0.5-0.1-1.3-0.1-1.5,0.4s0,1.5,0.2,2.1v0.1
							c0.1,0.2,0.1,0.3,0.1,0.3s-0.2,0-0.5,0.1c-0.6,0.1-1.5,0.6-1.3,2.1c0.4,2.1,2.7,5.9,3.1,7.2c0.3,0.8,0.5,2.4,0.6,3.5l0,0
							c0.1,0.7,0.1,1.2,0.2,1.4c0.1,0.4-1.1-0.1-1.1-0.1l-2.9-3.7c0,0-0.7-0.4-1.2-0.3C225,67.9,224.8,68.2,224.9,69.2z"/>
						<path class="st33" d="M172,93.8c-2.1,1.2-3.8,5.7-3.6,11.4c0.1,5.8-0.3,17.5-0.1,18.2c0.1,0.7-1.3,8.5,10.3,4.8
							c8.9-2.8,9.6-3.9,9.6-5.9c0.4-14.1-1.2-16.9-2.6-20.2C184.2,98.9,178,93.3,172,93.8z"/>
						<g>
							
								<rect x="238.5" y="183" transform="matrix(0.9908 -0.1351 0.1351 0.9908 -32.4728 34.9415)" class="st5" width="5.4" height="147.5"/>
						</g>
						<path class="st29" d="M200.5,186.4c2.5-3.1,5.3-4.9,8.3-6.5s6.2-2.8,9.9-3.3c1.9-0.2,3.9-0.3,6.3,0.4c0.6,0.2,1.2,0.4,1.8,0.7
							c0.6,0.4,1.2,0.8,1.7,1.2c0.4,0.4,0.8,0.6,1.1,0.8s0.4,0.2,0.3,0.2c-0.1,0-0.3,0.1-0.3,0.2c0,0,0.2-0.1,0.4-0.3
							c0.1-0.1,0.2-0.3,0.3-0.4l0.2-0.3l0.1-0.1c0-0.1,0.1-0.1,0.9,0l5.3,1.1c0.7,0.3,0.8,0.5,0.8,0.6l-0.1,0.4
							c-0.1,0.3-0.1,0.5-0.2,0.8c-0.2,0.5-0.3,1.1-0.6,1.6c-0.5,1.1-1.3,2.2-2.5,3.1c-1.2,0.9-3,1.6-4.6,1.5s-2.9-0.5-4-1.1
							s-1.9-1.2-2.6-1.9c-0.1,0-0.1,0-0.1-0.1c-0.1,0-0.2-0.1-0.3-0.1c-0.6-0.2-1.6-0.2-2.8-0.1c-2.3,0.3-4.9,1.1-7.3,2.3
							c-2.4,1.1-4.7,2.6-6.2,4.2L200.5,186.4z"/>
						<path class="st36" d="M202.5,80.4c1.2,1.2,2.7,2.2,4.1,3.2c1.6,1.1,3.3,2.2,5.1,2c1.2-0.1,2.4-0.8,3.3-1.6
							c0.5-0.5,1-1.1,1.1-1.9c0.1-1-0.6-1.9-1.2-2.7c-1.5-1.7-3.2-3.2-5.2-4c-1.4-0.6-2.9-0.8-4.3-1c-1.3-0.2-2.9-0.5-4.1,0.3
							C198.7,76.1,201.1,79,202.5,80.4z"/>
						<path class="st36" d="M228.1,58.3c0.8,1.4,1.6,2.8,2.4,4.2c0.9,1.6,1.8,3.2,3.3,4.2c-0.8-1.4-1.6-2.9-2.5-4.2
							c-0.9-1.2-1.7-2.6-2.3-3.9c-0.1-0.2-0.2-0.5-0.3-0.7c-0.1,0.3,0,1,0,1s-0.5-0.9-1-1.8c0,0.1,0,0.1,0,0.2
							C227.8,57.7,227.9,58,228.1,58.3z"/>
						<path class="st36" d="M226.6,61.3c0.5,0.9,0.8,1.9,1.4,2.8c0.6,0.9,1.3,1.7,2.3,2.1c-1.6-1.9-2.8-4.1-4-6.3
							c-0.5-0.9-1-1.9-1.3-2.9c-0.1-0.4-0.2-0.8-0.3-1.2c-0.2,0.6,0.6,2.5,0.6,2.5s-0.2,0-0.4,0C225.5,59.3,226.1,60.3,226.6,61.3z"
							/>
						<path class="st36" d="M223.4,61.4c0.4,0.6,0.8,1.2,1.2,1.8c1,1.5,1.8,3.1,2.6,4.7c0-0.2,0.1-0.5,0.3-0.6
							c-0.7-0.9-1.3-1.8-1.8-2.8c-0.3-0.6-0.6-1.3-0.9-1.9c-0.3-0.6-0.7-1.1-1.1-1.7c0.1,0.2,0.2,0.3,0.2,0.3S223.7,61.3,223.4,61.4
							z"/>
						<path class="st36" d="M238.2,67.3c0.3,0.3,0.5,0.5,0.7,0.8c0.1,0.2,0.2,0.5,0.3,0.7c0.3,1.3,0.7,2.5,1,3.8
							c0.1,0.4,0.2,0.8,0.2,1.2c-0.1,0.6-0.7,1.4-0.5,1.9c0.3,0.8,0.8,1.4,1.7,1.5c0.2,0,0.3,0,0.5,0.1c0.4,0.1,0.7,0.3,1,0.4
							c0.2,0,0.8,0.3,1,0.2c-0.9,0.2-2,0.5-3,0.4c-0.8-0.1-1.4-0.7-1.8-1.4c-0.7-1-0.9-2.3-1.3-3.5c-0.2-0.8-0.5-1.5-0.8-2.3
							c-0.3-0.7-0.2-1.5-0.4-2.2c-0.1-0.6-0.3-1.1-0.4-1.7c-0.1-0.5-0.2-1-0.5-1.5c-0.2-0.4-0.5-0.9-0.6-1.3c0,0.1,0.9,0.6,1,0.7
							c0.3,0.3,0.4,0.6,0.7,0.9C237.4,66.6,237.8,67,238.2,67.3z"/>
						<path class="st36" d="M232.5,78.4c-1.1-0.6-2.3-1.3-3.4-2.1l0.2,0.2c0.8,0.9,4.3,3.2,5.5,3.5c1.3,0.3,2.7,0.7,3.2,0.9
							c0.5,0.1,5.2,3.9,7.5,5.8c0,0,5.9,4.9,10.2,10.8c3.2,4.4,6.4,9.7,9.2,11.8c-1.2-1-2.1-2.3-2.9-3.5c-0.9-1.5-1.8-2.9-2.7-4.4
							c-1.9-3-4-6-6.3-8.7c-1.3-1.5-2.8-3-4.3-4.3c-0.7-0.6-1.5-1.2-2.2-1.7c-0.8-0.6-1.4-1.4-2.2-2.1c-1.7-1.5-3.5-2.8-5.4-4
							c-0.3-0.2-0.6-0.4-0.7-0.8c0-0.3,0.2-0.6,0-0.9c0,0.1-1.1,0.7-1.3,0.7c-0.5,0.2-0.8,0.3-1.4,0.2
							C234.6,79.6,233.6,79,232.5,78.4C232.6,78.4,232.5,78.4,232.5,78.4z"/>
						<path class="st36" d="M225.4,67.8c0.4,0.3,0.7,0.7,0.9,1.2c1.3,1.8,2.7,3.7,4.8,4.6c-0.2-1-0.4-2-0.7-3.1
							c0.1,0.7,0.1,1.2,0.2,1.4c0.1,0.4-1.1-0.1-1.1-0.1l-2.9-3.7C226.6,68.1,225.9,67.6,225.4,67.8z"/>
						<path class="st36" d="M235.6,105.1c7.7,2.1,28,8.6,33.1,8.2s6.3-3.7,7.1-5.2c0.5-0.7,0.7-1.5,0.6-2.3
							c-0.1,0.7-0.4,1.3-0.8,1.9c-0.5,0.7-1.1,1.4-1.8,1.9h-0.1c-0.4,0.3-0.8,0.5-1.2,0.8c-2,1-1.8,1.6-4,1.7
							c-5.6,0.3-11.3-1.6-16.7-3.1c-1.4-0.7-3.4-1-4.9-1.5c-1.3-0.4-9.9-3.9-11.2-4.2L235.6,105.1z"/>
						<path class="st37" d="M258.6,105.4c0.8,0.7,1.5,1.5,2.2,2.2c0.8,0.8,1.5,1.5,2.3,2.3c-2.9-0.3-5.7-0.9-8.4-1.9
							c-1.2-0.4-2.3-0.9-3.6-0.9c-0.2-0.8,0.6-1.5,1.1-2.2c0.6-1,0.8-3.1,2.4-2.8C256,102.4,257.7,104.5,258.6,105.4z"/>
						<path class="st37" d="M251,79.8c1.5,1,2.9,2.1,4.2,3.3c0.5,0.4,1,0.8,1.4,1.4c0.3,0.3,0.4,0.7,0.8,0.9
							c-0.1-0.1-0.1-0.2-0.2-0.2c3.3,2.7,6.5,5.7,9.8,8.4c2.9,2.5,3.4,4.4,5.9,7.3c1.1,1.2,2.2,3.3,1.4,4.9c-0.7,1.3-2.3,2-3.7,2.3
							c-1,0.2,0.4,0.9-0.6,0.8c-2.3-0.1-4.5-1.3-5.8-3.1c-1.1-1.5-1.9-3.2-3.1-4.7c-1.3-1.6-2.7-3-4-4.5c-0.8-1-1.6-2-2.5-3
							c-1.3-1.5-2.8-2.8-4.2-4.2c-2.3-2.4-4.2-4.8-6-7.5c0.1,0,0.2,0,0.2,0c0-0.7,0.2-1.5,0.7-2c0.1-0.2,0.3-0.3,0.5-0.5
							C247.4,78.1,249.5,78.9,251,79.8z"/>
						
							<linearGradient id="SVGID_9_" gradientUnits="userSpaceOnUse" x1="2896.2209" y1="515.0125" x2="2922.8694" y2="515.0125" gradientTransform="matrix(-0.9988 4.980000e-02 -4.980000e-02 -0.9988 3141.167 433.0125)">
							<stop  offset="4.947920e-02" style="stop-color:#FEB9B8"/>
							<stop  offset="0.9922" style="stop-color:#FEA5A4"/>
						</linearGradient>
						<path class="st38" d="M215.6,43.6c4,0.7,5.9,6.6,6.6,10.3c0.6,3.7,1,22.6-1.1,27.2s-11,2.1-13.3,1.4s-7-3.6-8.8-7.9
							s-3.5-18.8-3.5-22s5.5-6.1,8.8-8.5C207.6,41.8,215.6,43.6,215.6,43.6z"/>
						<path class="st39" d="M215.5,46.2c-0.1,0-0.3,0-0.4,0.1c-3.5,0.6-10.9,0.7-11.2,2.4c-0.4,1.8-0.4,6.3-0.9,8.2
							c-0.5,1.8-3.9,4.6-3.7,5.9c0.1,1.3,0.2,4.7,0.2,4.7l-2.8-0.9c0,0-0.6-3.8-1.3-4.4c-0.7-0.7-3.2-1.2-2.8,1.1
							c0.4,2.3,0.9,5.6,1.3,7.9s0,5.6,0,5.6s-3.5-2.2-6.4-8.9s-7.9-22.2,3.9-27.3c1.7-0.7,3.3-1.8,5.1-2.5c1.6-0.6,3.3-1,5-1.2
							c0.8-0.1,1.7-0.1,2.4-0.2c0.7-0.1,1.3-0.5,1.9-0.7c0.4-0.1,0.8-0.1,1.2-0.1c0.5-0.1,1-0.1,1.5,0c0.7,0.1,1.4,0.5,1.7,1.1
							c0.9-0.1,1.8-0.1,2.7,0.1c0.7,0.2,1.2,0.6,1.7,1.1c0.4,0.4,0.6,1.2,1.1,1.4c0.7,0.1,1.2,0.2,1.9,0.6c0.6,0.3,1,0.8,1.3,1.4
							c0.3,0.6,0.5,1.1,0.9,1.6c0.4,0.6,0.8,1.3,1.1,2s0.4,1.4,0.6,2.1c0.3,1.7,0.5,3.5,0.7,5.3c0.1,1,0.2,2,0.3,3.1
							c0.1,0.8,0.1,1.5,0.1,2.3c0,0.4-0.2,0.7-0.1,1.1c-0.7-6.3-1.5-8.4-2.7-10.5c-1.1-2.1-2.6-2.5-2.6-2.5L215.5,46.2z"/>
						
							<linearGradient id="SVGID_10_" gradientUnits="userSpaceOnUse" x1="3128.3789" y1="465.4491" x2="3162.7766" y2="465.4491" gradientTransform="matrix(-1 0 0 -1 3349.2188 512)">
							<stop  offset="4.947920e-02" style="stop-color:#FEB9B8"/>
							<stop  offset="0.9922" style="stop-color:#FEA5A4"/>
						</linearGradient>
						<path class="st40" d="M208.2,37.3c-0.4-0.1-0.8-0.2-1.1-0.4c-0.9-0.6-2.3,0.2-3.3,0.2c-1.4,0-2.8,0.2-4.2,0.5
							c-1.6,0.3-3.2,0.7-4.7,1.3c-1.6,0.6-3.2,1.5-4.6,2.4c-1.4,0.8-2.9,2-3.5,3.5c-0.3,0.6-0.3,1.4-0.3,2c0,0.1,0.1,1.5,0.1,1.5
							c0.7-0.5,1.5-0.7,2.3-0.5s1.4,1,1.3,1.9c0.7-0.8,1.8-1.2,2.8-0.9c1,0.2,1.9,1,2.1,2c1.1-0.4,2.8-0.5,3.9-0.2
							c1.2,0.4,2.1,1.8,2.9,2.7c0.7,0.9,0.6,2.5,1.8,3c0.5,0.2,1,0.1,1.5,0.1c2.5-0.4,5.1-0.7,7.6-1.1c1.1-0.2,2.2-0.3,3.1-0.9
							c0.5-0.3,0.7-0.5,1.3-0.5s1.2-0.1,1.8-0.3c2.9-1,1.7-4.5,0.9-6.6c-0.3-0.9-0.7-1.7-1.2-2.5c-0.4-0.8-1.1-1.3-1.8-1.8
							c-0.4-0.2-0.8-0.4-1.1-0.7s-0.6-0.8-0.5-1.2c-0.7-0.1-1.5-0.2-2.2-0.5s-1.4-0.7-1.7-1.4c-0.2-0.3-0.3-0.7-0.6-1
							c-0.3-0.2-0.8-0.2-1.2-0.2C209.1,37.4,208.6,37.3,208.2,37.3z"/>
						
							<linearGradient id="SVGID_11_" gradientUnits="userSpaceOnUse" x1="2922.8633" y1="512.9315" x2="2929.6191" y2="512.9315" gradientTransform="matrix(-0.9988 4.980000e-02 -4.980000e-02 -0.9988 3141.167 433.0125)">
							<stop  offset="4.947920e-02" style="stop-color:#FEB9B8"/>
							<stop  offset="0.9922" style="stop-color:#FEA5A4"/>
						</linearGradient>
						<path class="st41" d="M195.5,65.3c-1.3-3.1-2.3-4.5-4.2-4.2s-2.8,2.2-0.4,6c2.4,3.8,3.4,5.4,5,4.3
							C197.4,70.4,195.5,65.3,195.5,65.3z"/>
					</g>
					<path class="st42" d="M204,74.7c-3.7-0.2-3.8-0.2-4.5-0.3c-0.7-0.1-1.8-0.7-2.3-3.1c-0.4-2.4-2-8.7-2-9.7s0.4-2.9,1.4-3
						c0.3,0,2.5,0,3.9-0.3c3.7-0.8,10-2.2,12.3-3c3.2-1,10-3.4,10.4-4.4c0.3-0.7,2-0.3,2-0.3l5.5,0.6L219,64.5L204,74.7z"/>
					<g>
						<path class="st43" d="M201.3,59.4c0,0,19.3-3.8,24.5-8.3c0.3-0.1,0.6-0.1,0.9-0.1l4.1,0.3c-0.3,0-0.6,0-0.9,0.1
							c0.7,6.4-24.5,8.3-24.5,8.3c-1.3,0.4-2.1,2-1.7,3.5l2.3,9.9c0.3,1.1,1.1,1.9,2.1,2l-4.1-0.3c-1-0.1-1.8-0.9-2.1-2l-2.3-9.9
							C199.2,61.4,200,59.8,201.3,59.4z"/>
						<g>
							<path class="st44" d="M205.4,59.7c-1.3,0.4-2.1,2-1.7,3.5l2.3,9.9c0.3,1.5,1.7,2.3,3,1.9c0,0,15.4-2.7,24.5-8.3
								c1.2-0.7,2.1-2,1.7-3.5l-2.3-9.9c-0.3-1.5-1.8-2.6-3-1.9C221.5,56.5,205.4,59.7,205.4,59.7z"/>
							<path class="st23" d="M208.9,74.6c0.2,0,0.3,0,0.5-0.1c0.3-0.1,15.5-2.8,24.4-8.2c0.9-0.5,1.7-1.5,1.4-2.8l-2.3-9.9
								c-0.2-0.9-0.9-1.6-1.5-1.6c-0.1,0-0.3,0-0.4,0.1c-8.4,5.1-24.1,8.3-24.7,8.4c-0.9,0.3-1.5,1.5-1.2,2.7l2.3,9.9
								C207.5,74,208.1,74.6,208.9,74.6z"/>
						</g>
					</g>
					<path class="st45" d="M221,54.2c-2.8-1-4.2-6.2-5.1-9.4s-7.5-9.2-17.9-7.3c-4.5,1.3-6.5,2.5-6.6,3c8.2-0.1,11.4,0.6,14.7,3.7
						c3.3,3.1,4,10.5,8.3,12.4C217.9,55.8,221,54.2,221,54.2z"/>
					<path class="st45" d="M201.2,64.7c0,0,1.2,7,1.3,7.3s-12.4,0.3-13.7-0.7s-3-7.2-3.3-9.3c0.7,1.2,1.8,1.5,2.9,1.9
						C193.7,65.4,201.2,64.7,201.2,64.7z"/>
				</g>
				<path class="st22" d="M234.7,105.3c0,0,25.1,11,36.1,9.3c3.2-8.5-16.3-23.6-20.9-24.1c-4.6-0.5-15.2-1.5-15.2-1.5V105.3z"/>
				<path class="st33" d="M249.8,76.5c3.7,2.6,15.8,13,21.8,18.8s6.6,10.4,5.6,12.7c-1.8,4.3-3.4,6.4-6.5,6.5
					c-5.4,0.3-9.4-7.9-13.6-14.5c-4.2-6.6-15.5-16.8-15.5-16.8l-0.7-0.8c0,0,4.7,0.2,6.6-1.6c1.8-1.8,1.5-3.9,1.5-3.9l-1.4-1.1
					L249.8,76.5z"/>
				<g>
					<g>
						
							<linearGradient id="SVGID_12_" gradientUnits="userSpaceOnUse" x1="2894.5745" y1="424.9684" x2="2951.6951" y2="424.9684" gradientTransform="matrix(-0.9988 4.980000e-02 -4.980000e-02 -0.9988 3141.167 433.0125)">
							<stop  offset="4.947920e-02" style="stop-color:#FEB9B8"/>
							<stop  offset="0.9922" style="stop-color:#FEA5A4"/>
						</linearGradient>
						<path class="st46" d="M171.6,137.4c0.2,1,0.4,1.8,0.5,2.5c0.5,3.1,0.1,4.1,0.4,5.3c0.4,1.4,0.9,3.5,5.3,8
							c4.4,4.5,26.7,20.5,27.7,22s1.7,5.5,2,6.9c0.1,0.7,0.9,2.3,1.7,3.7c0.6,1.2,1.2,2.3,1.4,2.5c0.4,0.4,1.8,0.9,2.7,0.6
							c0.1,0,0.2-0.1,0.2-0.1c0.5-0.3,0.5-0.9,0.5-1.2c0.1,0.2,0.3,0.7,0.5,1l0,0c0.4,0.4,0.9,1.1,2.3,0.9c0.5-0.1,0.9-0.4,1.1-0.6
							c0.3-0.5,0.3-1,0.3-1s0.1,0.2,0.3,0.4c0.2,0.3,0.5,0.7,0.7,0.8c0.4,0.2,1.4,0.4,2.5,0c0.2-0.1,0.3-0.1,0.4-0.2
							c0.7-0.5,0.7-1.5,0.7-1.5l0.2,0.2l0.2,0.3c0,0,1.1,0.2,2-0.1c0.1,0,0.1,0,0.2-0.1c0.8-0.4,1.4-1.7,1.4-1.7l0.8,1.2
							c0.1,0.2,1.4,0.8,1.9,0.9c0.1,0,0.2,0,0.4-0.1c0.5-0.2,1.1-0.7,0.8-1.4c-0.3-0.9-1.6-2.1-1.6-2.1s-0.8-2.4-1.6-4.3
							c-0.8-1.9-1.5-2.2-2.3-3.5s-6.8-4.4-7.9-5.1c-1.1-0.7-4.5-5.2-9.3-9.8c-1.9-1.8-12.7-11.4-14.7-14c-3.1-4-5.7-8-5.9-8.6
							c-0.3-1-0.9-11.6-0.8-15.2c-0.1-0.4-0.4-0.8-0.7-1.2c-1.8-2.4-6.6-4.2-10.1-3.6c-1.7,0.3-4,0.7-4.8,2
							C170,122.7,170.5,132.3,171.6,137.4z"/>
						<path class="st37" d="M170.9,124.4c0.1-0.9,0.4-1.9,1.1-2.6c1-1,2.5-1.1,3.9-1.1c1.5,0,3,0.2,4.3,0.8c1.3,0.6,2.5,1.8,2.8,3.2
							c0.3,1.7,0.2,7.6-0.8,9c-0.7,0.9-1.4,1.8-1.5,3c0,0.6,0.1,1.2,0.2,1.8c0,0.6-0.1,1.3-0.4,1.9c-0.3,0.6-0.9,1.3-1.6,1.2
							c-0.4-0.1-0.7-0.3-1-0.6c-1.2-1.1-2.5-2.1-3.7-3.2c-0.9-0.9-1.7-1.6-1.9-2.8C171.9,133,170.6,126.3,170.9,124.4z"/>
						<path class="st37" d="M180.9,137.5c2,0.5,3.5,2.2,4.9,3.7c4,4.4,16.6,15.8,20.6,20.2c1.7,1.9,3.4,4,5.3,5.8
							c2,1.9,3.9,3.6,5.4,5.8c-0.5,0.3-1.2,0.4-1.8,0.4c-0.9,0.1-1.7,0.1-2.6,0.2c-0.7,0.1-1.5,0.1-2.2,0c-2.5-0.3-4.4-1.8-6.4-3.1
							c-6.1-4-19.7-16-24.6-21.3c-0.9-0.9-1.8-1.9-2.4-3c-0.7-1.3-1.1-2.9-1-4.4C176.2,139.4,178.3,136.8,180.9,137.5z"/>
						<path class="st36" d="M226,186.7c-0.2,0.3-0.4,0.7-0.7,1c0.8-0.4,1.4-1.7,1.4-1.7l0.8,1.2c0.1,0.2,1.4,0.8,1.9,0.9
							c0.1,0,0.2,0,0.4-0.1c-0.8-0.2-1.4-0.6-1.9-1.2c-0.6-0.7-0.1-1.2-0.1-2c0-0.6-0.1-1.1-0.3-1.7c-0.2-0.7-0.4-1.4-0.6-2
							c-0.3-0.9-0.6-1.8-1-2.7c0.7,2.1,1,4.4,0.9,6.6c0,0.3,0,0.6-0.2,0.9C226.4,186.2,226.2,186.5,226,186.7z"/>
						<path class="st36" d="M222.1,187.2c0,0.5,0,1,0,1.6c0.7-0.5,0.7-1.5,0.7-1.5l0.2,0.2c-0.2-0.7-0.2-1.5-0.3-2
							c-0.1-1.5-0.2-3-0.8-4.4c-0.1-0.1-0.2-0.3-0.3-0.2C221.3,183,222,185.1,222.1,187.2z"/>
						<path class="st36" d="M217.2,182.1c0,1.1,0,2.2,0.2,3.4c0.1,0.9,0.4,1.7,0.5,2.6c0,0.2,0,0.4,0.1,0.7c0.3-0.5,0.3-1,0.3-1
							s0.1,0.2,0.3,0.4c-0.1-0.7-0.3-1.5-0.4-2.2c-0.1-0.7-0.2-1.3-0.4-1.9C217.6,183.5,217.2,182.7,217.2,182.1z"/>
						<path class="st36" d="M212.9,182.9c-0.4,0.8-0.3,1.7-0.1,2.5c0.2,0.9,0.6,1.7,0.7,2.6c0,0.2,0,0.5,0,0.8
							c0.5-0.3,0.5-0.9,0.5-1.2c0.1,0.2,0.3,0.7,0.5,1c-0.1-0.2-0.1-0.3-0.2-0.5c-0.2-0.9-0.5-1.8-0.7-2.6c-0.1-0.4-0.2-0.9-0.4-1.3
							C213.2,183.9,212.9,183.2,212.9,182.9z"/>
						<path class="st36" d="M187.2,139.3c-0.3-1-0.9-11.6-0.8-15.2c-0.1-0.4-0.4-0.8-0.7-1.2c-0.1,2-0.3,8.1-0.2,10.2
							c0,0.5,0.1,1-0.1,1.5c-0.6,1.3-1.7,0-2.1-0.6c-0.4-0.5-1-0.9-1.6-0.7c0.7,1,1.4,2,2.2,3c1.2,1.6,2.5,3.3,3.7,5
							c1.1,1.5,2.2,3,3.4,4.3c0.7,0.8,1.4,1.6,2.2,2.3C190,143.8,187.3,139.9,187.2,139.3z"/>
						<path class="st36" d="M172.5,145.2c0.4,1.4,0.9,3.5,5.3,8c4.4,4.5,26.7,20.5,27.7,22s1.7,5.5,2,6.9c0.1,0.7,0.9,2.3,1.7,3.7
							c-0.2-0.7-0.4-1.4-0.5-2.2c-0.4-2.5-0.8-5.2-2.1-7.4c-1.8-3.1-5.1-4.9-8.1-6.9c-3.7-2.4-15.7-12.2-18.7-15.2
							c-1.8-1.8-3.4-3.7-5.1-5.6c-0.8-1-1.7-2-1.9-3.2s0.2-2.4,0.1-3.5c0-0.7-0.3-1.4-0.8-1.9C172.6,143,172.3,144,172.5,145.2z"/>
					</g>
					<path class="st33" d="M188.2,122.4c-0.7,7.6-0.3,16.5-0.3,17.3s26.7,28,27,28.6c0.3,0.7,2.8,2.1,2.3,3.3
						c-3.8-1.4-6.8-0.3-8.8,1c-2,1.4-1.6,3.6-1.6,3.6l-0.1,1.6c0,0-5.2-5-7.6-6.4c-1.7-0.2-25.9-21.7-27.2-24.5s-3.4-18.7-3.5-21.4
						s2.9-10.2,7.3-10.2C180.1,115.2,188.2,122.4,188.2,122.4z"/>
				</g>
				<path class="st47" d="M218.8,60.2l3.2-1.1c0.1,0,0.1-0.1,0.1-0.2l-0.5-1.4c0-0.1-0.1-0.1-0.2-0.1l-3.2,1.1
					c-0.1,0-0.1,0.1-0.1,0.2l0.5,1.4C218.7,60.2,218.8,60.3,218.8,60.2z"/>
				<path class="st39" d="M222.6,71.8c1.3,6.3,2.6,15.9,0.8,19.7c-1.7,3.8-10.4,4.5-12,4c-1.6-0.4-5.8-4.5-8.1-9.7
					c-2.3-5.1-4.3-10.1-4.3-11.3c0.1-1.2,4.2,0.9,9,3s12.6-1.9,13.6-3.3C222.5,72.7,222.6,71.8,222.6,71.8z"/>
				<path class="st33" d="M218.8,120.3c2.6,11.7,4.6,44.2,3.5,44.5c-1.7,0.9-4.1,0.8-4.1,0.8s0.9-17.3-3.1-44.3
					C216.8,118.3,218.8,120.3,218.8,120.3z"/>
			</g>
		</g>
		<path class="st21" d="M253.2,325.1c0,0-0.3,0.8-2.5,1.1c-2.2,0.3-3-0.7-3-0.7s-0.4,0.5-0.5,0.7s-0.1,6.2,0,6.7s1.6,1.3,4.2,1.2
			c2.6-0.2,4-1.4,4-2.3s-1.7-6.4-1.7-6.4L253.2,325.1z"/>
	</g>
	<g>
		<g>
			<g>
				<path class="st4" d="M73.7,346.1c-13,7.5-34.2,7.5-47.3-0.1s-13.2-19.8-0.1-27.3c13-7.5,34.2-7.5,47.3,0.1
					C86.7,326.3,86.8,338.5,73.7,346.1z"/>
				
					<linearGradient id="SVGID_13_" gradientUnits="userSpaceOnUse" x1="1254.0665" y1="180.55" x2="1313.4664" y2="180.55" gradientTransform="matrix(-1 0 0 -1 1333.7665 512)">
					<stop  offset="0" style="stop-color:#C2AD98"/>
					<stop  offset="0.7254" style="stop-color:#A1856F"/>
				</linearGradient>
				<path class="st48" d="M20.3,328.9h0.3c0.9-3.5,3.6-6.9,8.3-9.6c11.6-6.7,30.4-6.6,42,0.1c4.7,2.7,7.5,6.1,8.4,9.6h0.4v2.5l0,0
					c0,4.4-2.9,8.8-8.6,12.1c-11.6,6.7-30.4,6.6-42-0.1c-5.8-3.4-8.8-7.8-8.8-12.2l0,0V328.9z"/>
				<path class="st49" d="M71.1,341.1c-11.6,6.7-30.4,6.6-42-0.1s-11.7-17.6-0.1-24.3c11.6-6.7,30.4-6.6,42,0.1
					C82.6,323.6,82.7,334.4,71.1,341.1z"/>
				<g>
					<path class="st50" d="M52.2,156.5c-1.2,0.7-3.2,0.7-4.4,0s-1.2-1.8,0-2.5s3.2-0.7,4.4,0C53.4,154.6,53.4,155.8,52.2,156.5z"/>
					
						<linearGradient id="SVGID_14_" gradientUnits="userSpaceOnUse" x1="1280.6486" y1="268.8375" x2="1286.8203" y2="268.8375" gradientTransform="matrix(-1 0 0 -1 1333.7665 512)">
						<stop  offset="0" style="stop-color:#C2AD98"/>
						<stop  offset="0.7254" style="stop-color:#A1856F"/>
					</linearGradient>
					<path class="st51" d="M46.9,155.2h6.2v174.1l0,0c0,0.5-0.3,0.9-0.9,1.3c-1.2,0.7-3.2,0.7-4.4,0c-0.6-0.4-0.9-0.8-0.9-1.3l0,0
						C46.9,329.3,46.9,155.2,46.9,155.2z"/>
				</g>
			</g>
		</g>
		<g>
			
				<linearGradient id="SVGID_15_" gradientUnits="userSpaceOnUse" x1="10.7" y1="366.95" x2="89.4" y2="366.95" gradientTransform="matrix(1 0 0 -1 0 512)">
				<stop  offset="4.054050e-02" style="stop-color:#CACDDD"/>
				<stop  offset="0.2622" style="stop-color:#CACDDD"/>
				<stop  offset="0.3212" style="stop-color:#D3D5E1"/>
				<stop  offset="0.5025" style="stop-color:#ECE9EC"/>
				<stop  offset="0.6135" style="stop-color:#F5F0F0"/>
				<stop  offset="0.6408" style="stop-color:#F5F0F0"/>
				<stop  offset="0.8676" style="stop-color:#F5F0F0"/>
			</linearGradient>
			<path class="st52" d="M89.4,145v-4h-0.7c-1.4-4.4-5.1-8.6-10.9-12c-15.4-8.9-40.3-8.9-55.6-0.1c-5.9,3.4-9.5,7.6-10.9,12.1h-0.6
				v4l0,0c0,5.8,3.9,11.6,11.6,16.1c15.4,8.9,40.3,8.9,55.6,0.1C85.6,156.7,89.4,150.8,89.4,145L89.4,145z"/>
			
				<linearGradient id="SVGID_16_" gradientUnits="userSpaceOnUse" x1="10.7" y1="397.5" x2="89.4" y2="397.5" gradientTransform="matrix(1 0 0 -1 0 512)">
				<stop  offset="4.054050e-02" style="stop-color:#CACDDD"/>
				<stop  offset="0.2622" style="stop-color:#CACDDD"/>
				<stop  offset="0.3212" style="stop-color:#D3D5E1"/>
				<stop  offset="0.5025" style="stop-color:#ECE9EC"/>
				<stop  offset="0.6135" style="stop-color:#F5F0F0"/>
				<stop  offset="0.6408" style="stop-color:#F5F0F0"/>
				<stop  offset="0.8676" style="stop-color:#F5F0F0"/>
			</linearGradient>
			<polygon class="st53" points="10.7,140.9 14.7,88.1 85.4,88.1 89.4,140.9 			"/>
			<path class="st54" d="M75,73.7c-13.9-8-36.2-8-50-0.1s-13.7,20.9,0.2,28.9s36.2,8,50,0.1C88.9,94.6,88.8,81.7,75,73.7z"/>
			<path class="st55" d="M73,101.3c-3.7,2.2-8.2,3.7-12.9,4.5c-6.5,1.2-13.6,1.2-20.1-0.1c-4.7-0.9-9.1-2.4-12.8-4.6
				c-12.7-7.3-12.7-19.2-0.1-26.4c12.6-7.3,33.1-7.2,45.8,0.1C85.5,82.2,85.6,94.1,73,101.3z"/>
			<path class="st56" d="M60.1,101v4.9c-6.5,1.2-13.6,1.2-20.1-0.1v-4.7L60.1,101z"/>
			<path class="st57" d="M57.1,96.9c-3.9-2.3-10.3-2.3-14.2,0s-3.9,5.9,0,8.2c3.9,2.3,10.3,2.3,14.2,0
				C61.1,102.8,61.1,99.2,57.1,96.9z"/>
			<g>
				<path class="st58" d="M53.7,98.8c-2.1-1.2-5.4-1.2-7.4,0s-2,3.1,0,4.3c2.1,1.2,5.4,1.2,7.4,0C55.8,101.9,55.8,100,53.7,98.8z"/>
				<path class="st59" d="M54.3,99h-1.5c-1.6-0.8-4.1-0.8-5.6,0.1h-1.3v1.8l0,0c0,0.6,0.4,1.2,1.3,1.7c1.7,1,4.3,1,6,0
					c0.8-0.5,1.2-1.1,1.2-1.7l0,0V99H54.3z"/>
				<path class="st5" d="M53,100.7c-1.7,1-4.3,0.9-6,0c-1.7-1-1.7-2.5,0-3.5s4.3-0.9,6,0C54.7,98.2,54.7,99.8,53,100.7z"/>
				<path class="st60" d="M53,100.6c-1.6,0.9-4.2,0.9-5.9,0c-1.6-0.9-1.6-2.5,0-3.4s4.2-0.9,5.9,0C54.6,98.1,54.6,99.6,53,100.6z"/>
				<path class="st60" d="M54.2,99L54.2,99c0-0.9,0.2-1.9,0.6-2.8l2.1-4.9H43.2l2.1,4.9c0.4,0.8,0.6,1.8,0.6,2.8l0,0H54.2z"/>
				<circle class="st60" cx="50" cy="91.4" r="6.9"/>
				<path class="st61" d="M52.7,97.4c-1.5-0.9-3.9-0.9-5.3,0c-1.5,0.8-1.5,2.2,0,3.1s3.9,0.9,5.3,0C54.2,99.6,54.2,98.3,52.7,97.4z"
					/>
				<path class="st62" d="M52.1,85.3c-1.2-0.7-3.1-0.7-4.2,0c-1.2,0.7-1.2,1.8,0,2.4c1.2,0.7,3.1,0.7,4.2,0
					C53.3,87.1,53.3,86,52.1,85.3z"/>
			</g>
		</g>
	</g>
</g>
</svg>
