<?xml version="1.0" encoding="utf-8"?>
<!-- Generator: Adobe Illustrator 23.0.5, SVG Export Plug-In . SVG Version: 6.00 Build 0)  -->
<svg version="1.1" id="Layer_1" xmlns="http://www.w3.org/2000/svg" xmlns:xlink="http://www.w3.org/1999/xlink" x="0px" y="0px"
	 viewBox="0 0 512 512" style="enable-background:new 0 0 512 512;" xml:space="preserve">
<style type="text/css">
	.st0{fill:#EDF6FF;}
	.st1{fill:#BCBEDB;}
	.st2{fill:#3A3F47;}
	.st3{fill:#7D6460;}
	.st4{fill:#4079FF;}
	.st5{fill:#6696FF;}
	.st6{fill:#D4BCAB;}
	.st7{fill:#70524B;}
	.st8{fill:#343A40;}
	.st9{fill:#3D434A;}
	.st10{fill:#EFEFEF;}
	.st11{fill:#C6D4D9;}
	.st12{fill:#4D565E;}
	.st13{fill:#5E6973;}
	.st14{fill:#CBB8BF;}
	.st15{fill:#9C918F;}
	.st16{fill:#897B79;}
	.st17{fill:#B4ACAA;}
	.st18{fill:#968C8A;}
	.st19{fill:#A69E9D;}
	.st20{fill:#D0CCD1;}
	.st21{fill:#383838;}
	.st22{fill:#E5E3E6;}
	.st23{fill:#C1BBBA;}
	.st24{fill:#7C6C6A;}
	.st25{fill:#766462;}
	.st26{opacity:0.81;}
	.st27{fill:#4BB0C1;}
	.st28{fill:#80E1FF;}
	.st29{fill:#33933D;}
	.st30{fill:#177324;}
	.st31{fill:url(#SVGID_1_);}
	.st32{fill:#F2CBBC;}
	.st33{fill:#FEB9B8;}
	.st34{fill:#C4D9FF;}
	.st35{fill:#B5C8FF;}
	.st36{fill:url(#SVGID_2_);}
	.st37{fill:#FF9729;}
	.st38{fill:#FF8300;}
	.st39{fill:#F4D9D1;}
	.st40{fill:url(#SVGID_3_);}
	.st41{fill:url(#SVGID_4_);}
	.st42{fill:#754942;}
	.st43{fill:url(#SVGID_5_);}
	.st44{fill:#2A2B2B;}
	.st45{fill:#1B1C1C;}
	.st46{fill:#3F4040;}
	.st47{fill:#AAB0CF;}
	.st48{fill:#BBCFD2;}
	.st49{fill:#33A43D;}
	.st50{fill:#54B56E;}
	.st51{fill:#9BB5FF;}
</style>
<g>
	
		<ellipse transform="matrix(5.422022e-03 -1 1 5.422022e-03 -126.087 634.7338)" class="st0" cx="256" cy="380.8" rx="125.2" ry="216.9"/>
</g>
<g>
	<polygon class="st1" points="299.1,261.7 103.4,374.7 208.7,435.5 404.5,322.5 	"/>
	<path class="st1" d="M245.4,335.9c-21.4,12.4-56.3,12.3-77.9-0.1c-21.6-12.5-21.7-32.6-0.2-45c21.4-12.4,56.3-12.3,77.9,0.1
		C266.8,303.4,266.9,323.5,245.4,335.9z"/>
	<g>
		<path class="st2" d="M209.6,286.4c-3.1-0.2-4.2-1.3-4.9,0s-1.9,5.4-1.9,5.4s0.4,1.4,1.5,2.6s6.9,4.2,8.5,4.4
			c1.6,0.2,2.1-0.9,2.1-0.9s3.9,1.6,5,3.4s1.9,3.5,3.4,4.9s6.2,5.2,12.9,6.7c6.7,1.4,8.6-3.2,8.6-3.2s0.6-1.6,0-4.2
			s-2.9-5.1-2.9-5.1L209.6,286.4z"/>
		<path class="st2" d="M175.9,303.2c-2.3,0.1-2.7,0.4-3.1,1.7c-0.5,1.4-0.7,4.2-0.5,5.2c0.3,1,1.8,5.3,1.8,5.3s1.1,6.2,1.4,7.3
			c0.2,1.1,1.9,8.9,7.5,11.4s11,2.5,14.4,1s1.8-7,1.8-7s-7.4-13.3-7.5-13.6C191.6,314.3,175.9,303.2,175.9,303.2z"/>
		<path class="st3" d="M209,281.1c-1.2,2.8-3.3,4.9-3.6,6.3s-0.6,2.9,2,4.3c2.7,1.4,7.4,3.7,9.7,5.8c2.4,2.1,5.2,4.7,6.7,6.3
			c1.4,1.6,5.9,5.3,9.7,6.7c3.9,1.4,7,1.6,9.8-0.9c2.9-2.6-2.1-11.1-2.1-11.1s-14.5-13.2-15-14.3c-0.6-1.1-5.2-5.2-5.2-5.2
			L209,281.1z"/>
		<path class="st3" d="M193,302c0,3.1,1.1,5.8,3.1,12.7c2,6.9,3.6,13.6,3.1,16s-3.9,4.2-10.1,3.2c-6.2-0.9-10.6-6.2-11.4-8.3
			c-0.8-2.1-1.4-7-1.8-10c-0.4-3-1.3-7.8-1.6-8.9c-0.4-1.1,0.1-2.8,0.1-2.8s1.2-4.8,2.1-7C177.3,294.9,193,302,193,302z"/>
		<path class="st4" d="M208.6,242.3c-0.9,7.8,0,42.2,0,42.2s0.5,1.9,2.7,3.8c0.6,0.5,1.3,1,2.1,1.4c4,2,13-0.2,13.6-3.6
			s2.3-31.2,4.3-42.1c2-10.9,3.9-27.8,8.6-50.1c4.7-22.4,2.9-35.5,1.3-49.9c0,0-23.4-2.2-27.7,2.3c-2.5,2.7-3.9,14.6-4.6,26.5
			c-0.5,8-0.7,16.1-0.8,21.5C208,207.7,209.4,234.6,208.6,242.3z"/>
		<g>
			<path class="st5" d="M213.6,290c0-0.1-0.9-6.9-1.1-17.5c-0.1-5.9,0.4-13.8,0.9-20.8c0.4-5.7,0.7-10.6,0.6-13.4
				c-0.1-2.2,0-8.2,0.2-15.9c0.3-13.9,0.6-33,0.3-46.5h1c0.4,13.5,0,32.6-0.3,46.6c-0.1,7.6-0.3,13.6-0.2,15.8
				c0.1,2.8-0.2,7.7-0.6,13.5c-0.5,7-1,14.9-0.9,20.7c0.2,10.5,1.1,17.3,1.1,17.4L213.6,290z"/>
		</g>
		<path class="st6" d="M208.6,242.3c-0.9,7.8,0,42.2,0,42.2s0.5,1.9,2.7,3.8c0.2-15.8-0.7-26-0.4-41.8c0.1-5.1,1-10,1.1-15
			c0.2-5.5,0.3-11.1,0.5-16.6c0.1-2.8,0.2-5.6,0.7-8.4c1.2-6.7,4.6-12.8,7.9-18.8c0.4-0.8,0.9-1.6,1-2.5c0.1-0.6,0-1.3-0.1-1.9
			c-0.3-1.6-0.7-3.2-1.3-4.7c-0.1-0.3-0.3-0.5-0.6-0.5c-0.1,0-0.1,0.2-0.1,0.3c-2.6-1.5-5.3-3.9-8-5.1c-0.7-0.3-1.4-0.6-2.2-0.6
			c-0.3,0-0.6,0-0.8,0.1c-0.5,8-0.7,16.1-0.8,21.5C208,207.7,209.4,234.6,208.6,242.3z"/>
		<path class="st4" d="M225.6,155.8c-0.7,11.3,0.5,22.2-1.1,25.2s-2.4,4.3-2.4,4.3s-6.9,2.7-8.2,5.3s-9.6,48.7-12.2,56.2
			c-2.6,7.5-4.4,16.5-5.9,31.1c-1.4,14.6-0.9,24.2-1.8,26.4c-0.9,2.1-12.6,2.6-15.9,1.4c-5.4-1.9-5-7.2-5-7.2s-1.4-34.2,1.1-47.1
			s4.1-20.3,4.2-21.6c0.1-1.3-0.6-16.6-1.6-39.1s-1.7-30.4,3.4-42.4c5.1-12,10.2-17.8,11-17.8C192.1,130.4,223.7,131.9,225.6,155.8z
			"/>
		<g>
			<path class="st5" d="M242.6,163c-4,0-4.9-3.5-5.8-7.2l0.9-0.3v0.1c1,4.1,1.8,6.4,4.9,6.4c0.1,0,0.1,0,0.2,0v1
				C242.7,163,242.6,163,242.6,163z"/>
		</g>
		<g>
			<path class="st5" d="M175.8,303.9h-1c0-0.1,0-14.1,0.3-29.2c0.2-12.9,2.9-24.9,4.2-30.6c0.2-1,0.4-1.9,0.5-2.5
				c0.5-2.5,0.6-20.3,0.7-36.1c0.1-9.9,0.1-19.2,0.3-23.3c0.4-11.5,2.7-22.5,6.1-29.5l0.9,0.4c-3.3,6.9-5.6,17.8-6,29.2
				c-0.1,4-0.2,13.4-0.3,23.2c-0.1,15.8-0.2,33.7-0.7,36.2c-0.1,0.6-0.3,1.5-0.6,2.5c-1.3,5.7-3.9,17.6-4.2,30.4
				C175.8,289.8,175.8,303.8,175.8,303.9z"/>
		</g>
		<path class="st7" d="M180.6,147.6c1.9,5.4,2.6,10.1,20.1,16.8c17.6,6.7,32.4-4,37.3-7.5s4.2-5.1,4.2-5.1l-0.6-5.6
			c0,0-23.7,8.6-29.1,6.8c-5.3-1.8-28.5-12.3-28.5-12.3L180.6,147.6z"/>
		<g>
			<path class="st4" d="M182.4,153.9l-2.2-0.8c3.5-9.8,5.4-9.8,6-9.8v2.3C185.7,146.1,183.7,150.3,182.4,153.9z"/>
		</g>
		<g>
			<path class="st4" d="M210.4,169.1l-2.3-0.6c0-0.1,2-8,2.1-12.2h2.3C212.5,160.8,210.5,168.8,210.4,169.1z"/>
		</g>
		<g>
			<path class="st5" d="M222.5,186.6l-0.7-0.7c2.2-2.4,4.5-8.3,3.2-23.1c0-0.4-0.1-0.7-0.1-0.8h1c0,0.1,0,0.3,0.1,0.7
				C227.2,177.9,224.8,184.1,222.5,186.6z"/>
		</g>
		<g>
			<path class="st5" d="M221.2,183.6c-0.6,0-1.1-0.1-1.5-0.3c-0.8-0.4-1.4-1.2-1.6-2.4c-0.6-2.9-0.2-13.2,0.5-19.8l1,0.1
				c-0.7,6.6-1,16.7-0.5,19.5c0.2,0.8,0.5,1.4,1.1,1.7c0.9,0.4,2.3,0.2,4.1-0.6l0.4,0.9C223.3,183.3,222.2,183.6,221.2,183.6z"/>
		</g>
	</g>
	<g>
		<path class="st8" d="M314.4,177.2h7l57.5,51.3l1.6,83.6c0,0.5-2.8,9.9-3.4,10.3c0,0-60.3-35.4-61.7-36.2c-0.7-0.4-1-0.9-1-1.4l0,0
			V177.2z"/>
		<path class="st9" d="M376.1,213.4h7V321l0,0c0,0.5-0.4,1-1,1.4c-1.4,0.8-3.6,0.8-5,0c-0.7-0.4-1-0.9-1-1.4l0,0V213.4z"/>
		<g>
			<g>
				<g>
					<path class="st8" d="M150.7,271.8h7l57.5,51.3l1.6,83.6c0,0.5-2.8,9.9-3.4,10.3c0,0-60.3-35.4-61.7-36.2c-0.7-0.4-1-0.9-1-1.4
						l0,0L150.7,271.8L150.7,271.8z"/>
					<path class="st10" d="M151.8,273.3c1.4,0.8,3.6,0.8,5,0s1.4-2.1,0-2.9s-3.6-0.8-5,0C150.4,271.2,150.4,272.5,151.8,273.3z"/>
				</g>
				<g>
					<path class="st11" d="M215.6,399.5c1-0.6,1.8-0.1,1.8,1s-0.8,2.5-1.8,3.1s-1.8,0.1-1.8-1S214.6,400.1,215.6,399.5z"/>
				</g>
				<g>
					<path class="st10" d="M315.4,178.7c1.4,0.8,3.6,0.8,5,0s1.4-2.1,0-2.9c-1.4-0.8-3.6-0.8-5,0S314,177.9,315.4,178.7z"/>
				</g>
				<g>
					<path class="st11" d="M215.6,326.9c1-0.6,1.8-0.1,1.8,1s-0.8,2.5-1.8,3.1s-1.8,0.1-1.8-1S214.6,327.5,215.6,326.9z"/>
				</g>
				<g>
					<path class="st9" d="M212.4,308h7v107.6l0,0c0,0.5-0.4,1-1,1.4c-1.4,0.8-3.6,0.8-5,0c-0.7-0.4-1-0.9-1-1.4l0,0V308z"/>
					<path class="st10" d="M213.5,309.4c1.4,0.8,3.6,0.8,5,0s1.4-2.1,0-2.9s-3.6-0.8-5,0S212.1,308.6,213.5,309.4z"/>
				</g>
				<g>
					<path class="st10" d="M377.1,214.8c1.4,0.8,3.6,0.8,5,0s1.4-2.1,0-2.9c-1.4-0.8-3.6-0.8-5,0C375.7,212.8,375.7,214,377.1,214.8
						z"/>
				</g>
				<g>
					<polygon class="st12" points="408.6,202.9 212.9,315.9 212.9,324.5 408.6,211.5 					"/>
					<polygon class="st13" points="330.9,158 135.1,271 212.9,315.9 408.6,202.9 					"/>
					<polygon class="st14" points="343.7,227.8 255.3,278.8 192.8,242.8 281.2,191.7 					"/>
					<polygon class="st9" points="135.1,271 212.9,315.9 212.9,324.5 135.1,279.6 					"/>
				</g>
			</g>
		</g>
	</g>
	<g>
		<g>
			<polygon class="st15" points="261.5,169.6 337.1,206.3 331,225.7 267.5,196 			"/>
			<polygon class="st16" points="277,256.9 278,253.1 279.9,252 284.3,252.7 295.3,246.3 294.9,243.3 298.3,241.4 302.6,242.1 
				313.7,235.7 313.3,232.7 316.7,230.8 321,231.5 331,225.7 337.1,206.3 272.2,243.7 266.1,263.2 			"/>
			<polygon class="st17" points="230.8,211.3 295.6,173.8 284.4,149.8 219.5,187.3 219.5,187.3 			"/>
			<g>
				<polygon class="st18" points="281.9,152.4 288.7,166.8 276,174.1 269.3,159.7 				"/>
				<polygon class="st19" points="286.4,166.2 280.5,153.5 269.5,159.8 275.5,172.5 				"/>
				<polygon class="st18" points="265.9,161.6 272.7,176.1 260,183.4 253.3,168.9 				"/>
				<polygon class="st19" points="270.4,175.4 264.5,162.7 253.5,169.1 259.5,181.7 				"/>
				<polygon class="st18" points="249.9,170.9 256.7,185.3 244,192.6 237.3,178.2 				"/>
				<polygon class="st19" points="254.4,184.7 248.5,172 237.5,178.3 243.5,191 				"/>
			</g>
			<polygon class="st20" points="202.1,218 215.1,225.5 305,173.6 292,166.1 292,166.1 			"/>
			<polygon class="st15" points="270,233.9 334.8,196.5 337.1,206.3 272.2,243.7 			"/>
			<path class="st21" d="M295.2,181.3c0,2.6,1.8,5.7,4.1,7c2.2,1.3,4.1,0.3,4.1-2.3s-1.8-5.7-4.1-7S295.2,178.8,295.2,181.3z"/>
		</g>
		<g>
			<polygon class="st22" points="312.5,166.1 247.7,203.5 258.7,209.9 308.3,181.2 323.5,172.4 			"/>
			<polygon class="st22" points="210.2,181.9 219.5,187.3 284.4,149.8 275,144.4 275,144.4 			"/>
			<polygon class="st22" points="220.3,172 258.7,209.9 263.5,207.1 253.3,185.5 228.6,171.2 225.1,169.2 			"/>
			<polygon class="st20" points="198.9,192.8 220.3,172 248.5,188.2 270,233.9 272.2,243.7 266.1,263.2 260.1,263.3 256.4,265.9 
				210.2,239.2 206.8,228.9 201.3,220.7 196.6,200.1 			"/>
			<polygon class="st23" points="258.8,263 264.6,262.9 270.4,244.4 268.2,234.9 247,189.6 219.7,173.9 198.9,194.1 196.8,200.8 
				201.4,221 206.8,229.2 210.2,239.2 255.4,265.3 			"/>
			<path class="st16" d="M223.9,232.7c0,7.2,5.1,16,11.4,19.6c6.3,3.6,11.4,0.7,11.4-6.5s-5.1-16-11.4-19.6
				C228.9,222.6,223.9,225.5,223.9,232.7z"/>
			<path class="st15" d="M223,231.3c0,7.2,5.1,16,11.4,19.6c6.3,3.6,11.4,0.7,11.4-6.5s-5.1-16-11.4-19.6S223,224.1,223,231.3z"/>
			<path class="st20" d="M222.1,231.9c0,7.2,5.1,16,11.4,19.6c6.3,3.6,11.4,0.7,11.4-6.5s-5.1-16-11.4-19.6
				C227.2,221.8,222.1,224.7,222.1,231.9z"/>
			<path class="st15" d="M226.7,234.6c0,4.3,3,9.5,6.7,11.6c3.1,1.8,5.8,0.9,6.5-2c0.1-0.5,0.2-1.1,0.2-1.8c0-4.3-3-9.5-6.7-11.6
				c-0.6-0.3-1.2-0.6-1.7-0.7C228.8,229.2,226.7,231,226.7,234.6z"/>
			<path class="st16" d="M231.5,231.8c0,4.3,3,9.5,6.7,11.6c0.6,0.3,1.2,0.6,1.7,0.7c0.1-0.5,0.2-1.1,0.2-1.8c0-4.3-3-9.5-6.7-11.6
				c-0.6-0.3-1.2-0.6-1.7-0.7C231.6,230.5,231.5,231.1,231.5,231.8z"/>
			<path class="st15" d="M229.6,189.6c0,3,2.1,6.7,4.8,8.2c2.6,1.5,4.8,0.3,4.8-2.7V195c0-3-2.1-6.6-4.7-8.1l0,0
				C231.8,185.4,229.6,186.6,229.6,189.6z"/>
			<path class="st16" d="M234.4,186.9c0,3,2.1,6.6,4.7,8.1C239.1,192.1,237,188.4,234.4,186.9z"/>
			<path class="st15" d="M230.4,211.2c0,2.6,1.8,5.7,4.1,7c1.8,1,3.2,0.6,3.8-0.9c0.2-0.4,0.2-0.9,0.2-1.5c0-2.6-1.8-5.7-4.1-7
				c-0.5-0.3-1-0.5-1.4-0.5C231.5,208.2,230.4,209.2,230.4,211.2z"/>
			<path class="st16" d="M232.8,209.8c0,2.6,1.8,5.7,4.1,7c0.5,0.3,1,0.5,1.4,0.5c0.2-0.4,0.2-0.9,0.2-1.5c0-2.6-1.8-5.7-4.1-7
				c-0.5-0.3-1-0.5-1.4-0.5C232.8,208.8,232.8,209.3,232.8,209.8z"/>
			<path class="st15" d="M208.7,206.3c0,3,2.2,6.8,4.8,8.3c2,1.1,3.6,0.8,4.4-0.7c0.3-0.5,0.4-1.2,0.4-2c0-3-2.1-6.7-4.8-8.3
				c-0.7-0.4-1.4-0.6-2-0.7C209.9,202.8,208.7,204,208.7,206.3z"/>
			<path class="st16" d="M211.1,204.9c0,3,2.2,6.7,4.8,8.3c0.7,0.4,1.4,0.6,2,0.7c0.3-0.5,0.4-1.2,0.4-2c0-3-2.1-6.7-4.8-8.3
				c-0.7-0.4-1.4-0.6-2-0.7C211.3,203.4,211.1,204.1,211.1,204.9z"/>
			<path class="st15" d="M251.9,235.1c0,3,2.1,6.8,4.8,8.3c2,1.1,3.6,0.8,4.4-0.7c0.3-0.5,0.4-1.2,0.4-2c0-3-2.1-6.8-4.8-8.3
				c-0.7-0.4-1.4-0.6-2-0.7C253.1,231.6,251.9,232.9,251.9,235.1z"/>
			<path class="st16" d="M254.3,233.7c0,3,2.1,6.7,4.8,8.3c0.7,0.4,1.4,0.6,2,0.7c0.3-0.5,0.4-1.2,0.4-2c0-3-2.1-6.8-4.8-8.3
				c-0.7-0.4-1.4-0.6-2-0.7C254.5,232.3,254.3,232.9,254.3,233.7z"/>
		</g>
		<polygon class="st23" points="334.8,196.5 270,233.9 258.7,209.9 323.5,172.4 		"/>
		<polygon class="st23" points="248.5,188.2 253.3,185.5 263.5,207.1 258.7,209.9 		"/>
		<path class="st16" d="M316.8,182.3c3.4-2,7.7-0.3,9.7,3.7c1.9,4,0.8,8.9-2.7,10.8c-3.4,2-7.7,0.3-9.7-3.7
			C312.2,189.1,313.4,184.3,316.8,182.3z M298.8,202c1.9,4,6.3,5.7,9.7,3.7c3.4-2,4.6-6.8,2.7-10.8s-6.3-5.7-9.7-3.7
			C298,193.1,296.8,198,298.8,202z M283.5,210.9c1.9,4,6.3,5.7,9.7,3.7c3.4-2,4.6-6.8,2.7-10.8s-6.3-5.7-9.7-3.7
			C282.7,202,281.5,206.9,283.5,210.9z M268.1,219.8c1.9,4,6.3,5.7,9.7,3.7c3.4-2,4.6-6.8,2.7-10.8s-6.3-5.7-9.7-3.7
			C267.4,210.9,266.2,215.7,268.1,219.8z"/>
		<path class="st21" d="M315.5,183.2c0.4-0.4,0.8-0.7,1.3-1c3.4-2,7.7-0.3,9.7,3.7c0.6,1.3,0.9,2.7,0.9,4.1L315.5,183.2z"/>
		<g>
			<path class="st20" d="M321.1,197.4c3.4-2,4.6-6.8,2.7-10.8c-1.4-2.9-4-4.5-6.6-4.5c3.3-1.6,7.4,0,9.3,3.9c1.9,4,0.8,8.9-2.7,10.8
				c-1,0.6-2,0.8-3.1,0.8C320.9,197.6,321,197.5,321.1,197.4z"/>
			<path class="st20" d="M275.2,224.1c3.4-2,4.6-6.8,2.7-10.8c-1.4-2.9-4-4.5-6.6-4.5c3.3-1.6,7.4,0,9.3,3.9c1.9,4,0.8,8.9-2.7,10.8
				c-1,0.6-2,0.8-3.1,0.8C274.9,224.2,275,224.1,275.2,224.1z"/>
			<path class="st20" d="M305.8,206.3c3.4-2,4.6-6.8,2.7-10.8c-1.4-2.9-4-4.5-6.6-4.5c3.3-1.6,7.4,0,9.3,3.9c1.9,4,0.8,8.9-2.7,10.8
				c-1,0.6-2,0.8-3.1,0.8C305.5,206.4,305.7,206.4,305.8,206.3z"/>
			<path class="st20" d="M290.5,215.2c3.4-2,4.6-6.8,2.7-10.8c-1.4-2.9-4-4.5-6.6-4.5c3.3-1.6,7.4,0,9.3,3.9c1.9,4,0.8,8.9-2.7,10.8
				c-1,0.6-2,0.8-3.1,0.8C290.2,215.3,290.3,215.3,290.5,215.2z"/>
		</g>
		<path class="st15" d="M203.2,193l6.2-6.1l10.9-9.4l5.8,3.1l-0.9,9l-6.9,2.8L216,191l-6.6,5.4L203.2,193z M242,199.3l3.4,9.9
			l3.5,1.7l3.4,8.6l7.5,3.9l-14.2-31.5l-4.6-2.6L242,199.3z M199.5,201.5l1.9,8.4l4,3.7l3.7,15.3l5.9,3.1l1.1,7.4l4.9,3V235
			c0,0-1.5-6.9,1-11.2s8.5-2.3,8.5-2.3v-3.2l-3.2-3.4l-0.7-8.1l5.4-4l-5.4-10.5l-9,9c0,0,3.5,5.5,3.5,11.1s-3.8,6.8-7.4,5.6
			c-7.6-2.7-7.8-10-7.8-10l0.1-6.4l-5.4-3.3L199.5,201.5z M241.9,219.8l-4.2,2.2v2.7c0,0,12.4,7.5,10.8,26.6v6.2l3.4,2.2l3.2-4.4
			l3.5,2.1l4.8-3.3l3.7-10.9l-3.3-1.8c0,0,0.4,7.7-5.9,5.7c-6.3-2-7.8-9.2-7.8-9.2s-2.4-7.5,3.8-8.6c0-4.9,0-4.9,0-4.9l-6.2-3.3
			l-1.9-6.7l-3.9-2.1L241.9,219.8L241.9,219.8z"/>
		<path class="st17" d="M252.4,259l-2.4-1.5v-5.8c1.5-17.5-8.7-25.6-10.8-27.1v-1.8l4.2-2.2V214l2.5,1.3l1.9,6.7l6.1,3.2v3.8
			c-1.5,0.4-2.7,1.2-3.4,2.4c-1.7,2.7-0.6,6.6-0.4,7c0.1,0.7,1.9,7.7,8.4,9.7c0.8,0.2,1.5,0.4,2.1,0.4c1.3,0,2.3-0.4,3.1-1.3
			c1.2-1.2,1.5-3,1.6-4.3l1.6,0.9l-3.4,10l-4.2,2.9l-3.8-2.3L252.4,259z M221.1,241.3l-3.5-2.1l-1.1-7.4l-6-3.1l-3.7-15.1l-4-3.7
			l-1.8-8l0.8-2.1l4.2,2.6l-0.1,6c0,0.1,0.4,7.9,8.4,10.7c0.9,0.3,1.8,0.4,2.6,0.4c1.7,0,3.1-0.6,4.1-1.6c1.1-1.2,1.7-2.9,1.7-5.2
			c0-4.8-2.4-9.4-3.3-10.9l7.8-7.8l4.7,9l-5.3,3.8l0.7,8.8l3.2,3.4v1.9c-0.6-0.1-1.5-0.3-2.4-0.3c-2.7,0-4.8,1.1-6,3.1
			c-2.5,4.3-1.3,10.8-1.1,11.6v6H221.1z M259,222l-5.2-2.7l-3.4-8.6l-3.5-1.7l-3.3-9.6l-0.8-8.4l3.1,1.7L259,222z M210.1,195.9
			l-4.8-2.7l5.4-5.3l10.5-9.1l4.8,2.6l-0.8,8l-6.1,2.5l-2.4-1.5L210.1,195.9z"/>
		<g>
			<path class="st16" d="M263.3,211.6c0.3,0.5,0.8,0.7,1.2,0.5c0.4-0.3,0.6-0.9,0.3-1.4c-0.2-0.5-0.8-0.7-1.2-0.5
				C263.2,210.5,263.1,211.1,263.3,211.6z"/>
			<path class="st16" d="M274.9,204.9c0.2,0.5,0.8,0.7,1.2,0.5c0.4-0.3,0.6-0.9,0.3-1.4c-0.2-0.5-0.8-0.7-1.2-0.5
				C274.8,203.8,274.7,204.4,274.9,204.9z"/>
			<path class="st16" d="M278.4,202.9c0.2,0.5,0.8,0.7,1.2,0.5c0.4-0.3,0.6-0.9,0.3-1.4c-0.2-0.5-0.8-0.7-1.2-0.5
				C278.3,201.7,278.2,202.4,278.4,202.9z"/>
			<path class="st16" d="M290,196.2c0.3,0.5,0.8,0.7,1.2,0.5c0.4-0.3,0.6-0.9,0.3-1.4c-0.2-0.5-0.8-0.7-1.2-0.5
				C289.9,195,289.8,195.7,290,196.2z"/>
			<path class="st16" d="M293.5,194.1c0.3,0.5,0.8,0.7,1.2,0.5c0.4-0.3,0.6-0.9,0.3-1.4c-0.2-0.5-0.8-0.7-1.2-0.5
				C293.4,193,293.3,193.6,293.5,194.1z"/>
			<path class="st16" d="M305.1,187.4c0.2,0.5,0.8,0.7,1.2,0.5c0.4-0.3,0.6-0.9,0.3-1.4c-0.2-0.5-0.8-0.7-1.2-0.5
				C305,186.3,304.9,186.9,305.1,187.4z"/>
			<path class="st16" d="M308.6,185.4c0.2,0.5,0.8,0.7,1.2,0.5c0.4-0.3,0.6-0.9,0.3-1.4c-0.2-0.5-0.8-0.7-1.2-0.5
				C308.5,184.2,308.4,184.9,308.6,185.4z"/>
			<path class="st16" d="M320.2,178.7c0.2,0.5,0.8,0.7,1.2,0.5c0.4-0.3,0.6-0.9,0.3-1.4c-0.2-0.5-0.8-0.7-1.2-0.5
				C320.1,177.5,320,178.2,320.2,178.7z"/>
		</g>
		<g>
			<path class="st16" d="M271.7,228.6c0.2,0.5,0.8,0.7,1.2,0.5c0.4-0.3,0.6-0.9,0.3-1.4c-0.2-0.5-0.8-0.7-1.2-0.5
				C271.6,227.4,271.4,228.1,271.7,228.6z"/>
			<path class="st16" d="M283.2,221.9c0.2,0.5,0.8,0.7,1.2,0.5c0.4-0.3,0.6-0.9,0.3-1.4c-0.2-0.5-0.8-0.7-1.2-0.5
				C283.1,220.7,283,221.4,283.2,221.9z"/>
			<path class="st16" d="M286.8,219.8c0.2,0.5,0.8,0.7,1.2,0.5c0.4-0.3,0.6-0.9,0.3-1.4c-0.2-0.5-0.8-0.7-1.2-0.5
				C286.7,218.7,286.5,219.3,286.8,219.8z"/>
			<path class="st16" d="M298.3,213.1c0.2,0.5,0.8,0.7,1.2,0.5c0.4-0.3,0.6-0.9,0.3-1.4c-0.2-0.5-0.8-0.7-1.2-0.5
				C298.2,212,298.1,212.6,298.3,213.1z"/>
			<path class="st16" d="M301.9,211.1c0.2,0.5,0.8,0.7,1.2,0.5c0.4-0.3,0.6-0.9,0.3-1.4c-0.2-0.5-0.8-0.7-1.2-0.5
				C301.8,209.9,301.6,210.6,301.9,211.1z"/>
			<path class="st16" d="M313.4,204.4c0.2,0.5,0.8,0.7,1.2,0.5c0.4-0.3,0.6-0.9,0.3-1.4c-0.3-0.5-0.8-0.7-1.2-0.5
				C313.3,203.2,313.2,203.9,313.4,204.4z"/>
			<path class="st16" d="M317,202.3c0.2,0.5,0.8,0.7,1.2,0.5c0.4-0.3,0.6-0.9,0.3-1.4c-0.3-0.5-0.8-0.7-1.2-0.5
				C316.9,201.2,316.7,201.8,317,202.3z"/>
			<path class="st16" d="M328.5,195.6c0.2,0.5,0.8,0.7,1.2,0.5c0.4-0.3,0.6-0.9,0.3-1.4c-0.2-0.5-0.8-0.7-1.2-0.5
				C328.4,194.5,328.3,195.1,328.5,195.6z"/>
		</g>
		<g>
			<polygon class="st16" points="326.3,212.5 321.9,211.8 318.5,213.7 319,216.7 			"/>
			<polygon class="st16" points="307.9,223.1 303.5,222.4 300.1,224.3 300.6,227.3 			"/>
			<polygon class="st16" points="289.6,233.7 285.2,233 281.8,235 282.2,238 			"/>
		</g>
		<polygon class="st24" points="326.3,212.5 321,231.5 316.7,230.8 321.9,211.8 		"/>
		<polygon class="st16" points="319,216.7 313.7,235.7 302.6,242.1 307.9,223.1 		"/>
		<polygon class="st25" points="321.9,211.8 318.5,213.7 319,216.7 314.8,231.9 316.7,230.8 		"/>
		<polygon class="st24" points="307.9,223.1 302.6,242.1 298.3,241.4 303.5,222.4 		"/>
		<polygon class="st16" points="300.6,227.3 295.3,246.3 284.3,252.7 289.6,233.7 		"/>
		<polygon class="st25" points="303.5,222.4 300.1,224.3 300.6,227.3 296.4,242.5 298.3,241.4 		"/>
		<polygon class="st24" points="289.6,233.7 284.3,252.7 279.9,252 285.2,233 		"/>
		<polygon class="st25" points="285.2,233 281.8,235 282.2,238 278,253.1 279.9,252 		"/>
	</g>
	<g>
		<g class="st26">
			<polygon class="st27" points="315.1,154.7 287.8,137 228.6,171.2 253.3,185.5 255.2,189.5 262.2,204.5 320.8,170.9 			"/>
			<path class="st28" d="M261.9,205.7l-9.2-19.6l-25.8-14.9l60.9-35.3l28,18.2l6,17.1L261.9,205.7z M230.3,171.2l23.6,13.7l8.6,18.4
				l57.2-32.8l-5.4-15.2L287.8,138L230.3,171.2z"/>
		</g>
		<g>
			<g>
				<path class="st27" d="M323.8,187.9c-1.9-4-0.8-8.9,2.7-10.8l-9.7,5.2l0,0c-3.4,2-4.6,6.8-2.7,10.8s6.3,5.7,9.7,3.7l0,0l9.7-5.2
					C330.1,193.6,325.8,191.9,323.8,187.9z"/>
				<path class="st28" d="M320.7,198.5c-0.7,0-1.4-0.1-2.1-0.3c-2.2-0.7-4.1-2.4-5.2-4.7c-2.1-4.4-0.8-9.8,3-12l9.7-5.2l0.8,1.5
					c-3,1.8-4.1,6.1-2.3,9.7l0,0c0.9,1.9,2.4,3.2,4.2,3.8c1.3,0.4,2.7,0.3,4-0.3l0.4-0.2l0.8,1.5c-0.1,0.1-0.3,0.2-0.4,0.2l-9.3,5
					C323.1,198.2,321.9,198.5,320.7,198.5z M322.8,180l-5.7,3c-3,1.7-4,6.1-2.3,9.7c0.9,1.9,2.4,3.2,4.2,3.8c1.5,0.5,3,0.3,4.3-0.5
					l5.5-2.9c-0.2,0-0.4-0.1-0.6-0.1c-2.2-0.7-4.1-2.4-5.2-4.7l0,0C321.7,185.6,321.8,182.5,322.8,180z"/>
			</g>
			<g class="st26">
				<path class="st27" d="M326.5,177.1c-3.4,2-4.6,6.8-2.7,10.8s6.3,5.7,9.7,3.7c3.4-2,4.6-6.8,2.7-10.8S329.9,175.1,326.5,177.1z"
					/>
				<path class="st28" d="M330.4,193.3c-0.7,0-1.4-0.1-2.1-0.3c-2.2-0.7-4.1-2.4-5.2-4.7c-2.1-4.4-0.8-9.8,3-12l0,0
					c1.7-1,3.7-1.2,5.6-0.6c2.2,0.7,4.1,2.4,5.2,4.7c2.1,4.4,0.8,9.8-3,12C332.9,193,331.7,193.3,330.4,193.3z M329.6,177.1
					c-0.9,0-1.8,0.2-2.7,0.7l0,0c-3,1.8-4.1,6.1-2.3,9.7c0.9,1.9,2.4,3.2,4.2,3.8c1.5,0.4,3,0.3,4.3-0.5c3-1.7,4.1-6.1,2.3-9.7
					c-0.9-1.9-2.4-3.2-4.2-3.8C330.7,177.2,330.1,177.1,329.6,177.1z"/>
			</g>
		</g>
		<g>
			<g>
				<path class="st27" d="M308.5,196.8c-1.9-4-0.8-8.9,2.7-10.8l-9.7,5.2l0,0c-3.4,2-4.6,6.8-2.7,10.8s6.3,5.7,9.7,3.7l0,0l9.7-5.2
					C314.8,202.5,310.4,200.8,308.5,196.8z"/>
				<path class="st28" d="M305.4,207.4c-0.7,0-1.4-0.1-2.1-0.3c-2.2-0.7-4.1-2.4-5.2-4.7c-2.1-4.4-0.8-9.8,3-12l9.7-5.2l0.8,1.5
					c-3,1.7-4.1,6.1-2.3,9.7l0,0c0.9,1.9,2.4,3.2,4.2,3.8c1.3,0.4,2.7,0.3,3.9-0.3l0.4-0.2l0.8,1.5c-0.1,0.1-0.3,0.2-0.4,0.2l-9.3,5
					C307.8,207.1,306.6,207.4,305.4,207.4z M307.5,188.9l-5.7,3c-3,1.7-4,6.1-2.3,9.7c0.9,1.9,2.4,3.2,4.2,3.8
					c1.5,0.4,3,0.3,4.3-0.5l5.5-2.9c-0.2,0-0.4-0.1-0.6-0.2c-2.2-0.7-4.1-2.4-5.2-4.7l0,0C306.4,194.5,306.4,191.4,307.5,188.9z"/>
			</g>
			<g class="st26">
				<path class="st27" d="M311.2,186c-3.4,2-4.6,6.8-2.7,10.8s6.3,5.7,9.7,3.7c3.4-2,4.6-6.8,2.7-10.8
					C318.9,185.6,314.6,184,311.2,186z"/>
				<path class="st28" d="M315.1,202.2c-0.7,0-1.4-0.1-2.1-0.3c-2.2-0.7-4.1-2.4-5.2-4.7c-2.1-4.4-0.8-9.8,3-12l0,0
					c1.7-1,3.7-1.2,5.6-0.6c2.2,0.7,4.1,2.4,5.2,4.7c2.1,4.4,0.8,9.8-3,12C317.5,201.9,316.3,202.2,315.1,202.2z M311.6,186.7
					c-3,1.7-4.1,6.1-2.3,9.7c0.9,1.9,2.4,3.2,4.2,3.8c1.5,0.4,3,0.3,4.3-0.5c3-1.8,4.1-6.1,2.3-9.7c-0.9-1.9-2.4-3.2-4.2-3.8
					C314.4,185.8,312.9,186,311.6,186.7L311.6,186.7z"/>
			</g>
		</g>
		<g>
			<g>
				<path class="st27" d="M293.2,205.7c-1.9-4-0.8-8.9,2.7-10.8l-9.7,5.2l0,0c-3.4,2-4.6,6.8-2.7,10.8s6.3,5.7,9.7,3.7l0,0l9.7-5.2
					C299.4,211.3,295.1,209.7,293.2,205.7z"/>
				<path class="st28" d="M290.1,216.3c-0.7,0-1.4-0.1-2.1-0.3c-2.2-0.7-4.1-2.4-5.2-4.7c-2.1-4.4-0.8-9.8,3-12l9.7-5.2l0.8,1.5
					c-3,1.7-4.1,6.1-2.3,9.7c0.9,1.9,2.4,3.2,4.2,3.8c1.3,0.4,2.7,0.3,3.9-0.3l0.4-0.2l0.8,1.5c-0.1,0.1-0.3,0.2-0.4,0.2l-9.3,5
					C292.5,215.9,291.3,216.3,290.1,216.3z M292.2,197.8l-5.7,3c-3,1.7-4,6.1-2.3,9.7c0.9,1.9,2.4,3.2,4.2,3.8
					c1.5,0.4,3,0.3,4.3-0.5l5.5-2.9c-0.2,0-0.4-0.1-0.6-0.1c-2.2-0.7-4.1-2.4-5.2-4.7l0,0C291.1,203.3,291.1,200.2,292.2,197.8z"/>
			</g>
			<g class="st26">
				<path class="st27" d="M295.8,194.8c-3.4,2-4.6,6.8-2.7,10.8s6.3,5.7,9.7,3.7c3.4-2,4.6-6.8,2.7-10.8S299.2,192.9,295.8,194.8z"
					/>
				<path class="st28" d="M299.8,211.1c-0.7,0-1.4-0.1-2.1-0.3c-2.2-0.7-4.1-2.4-5.2-4.7c-2.1-4.4-0.8-9.8,3-12
					c1.7-1,3.7-1.2,5.6-0.6c2.2,0.7,4.1,2.4,5.2,4.7c2.1,4.4,0.8,9.8-3,12C302.2,210.7,301,211.1,299.8,211.1z M298.9,194.9
					c-0.9,0-1.8,0.2-2.7,0.7c-3,1.7-4.1,6.1-2.3,9.7c0.9,1.9,2.4,3.2,4.2,3.8c1.5,0.4,3,0.3,4.3-0.5c3-1.7,4.1-6.1,2.3-9.7
					c-0.9-1.9-2.4-3.2-4.2-3.8C300,195,299.4,194.9,298.9,194.9z"/>
			</g>
		</g>
		<g>
			<g>
				<path class="st27" d="M277.8,214.5c-1.9-4-0.8-8.9,2.7-10.8l-9.7,5.2l0,0c-3.4,2-4.6,6.8-2.7,10.8s6.3,5.7,9.7,3.7l0,0l9.7-5.2
					C284.1,220.2,279.8,218.6,277.8,214.5z"/>
				<path class="st28" d="M274.7,225.1c-0.7,0-1.4-0.1-2.1-0.3c-2.2-0.7-4.1-2.4-5.2-4.7c-2.1-4.4-0.8-9.8,3-12l9.7-5.2l0.8,1.5
					c-3,1.7-4.1,6.1-2.3,9.7l0,0c0.9,1.9,2.4,3.2,4.2,3.8c1.3,0.4,2.7,0.3,3.9-0.3l0.4-0.2l0.8,1.5c-0.1,0.1-0.3,0.2-0.4,0.2l-9.3,5
					C277.1,224.8,275.9,225.1,274.7,225.1z M276.9,206.6l-5.7,3c-3,1.7-4,6.1-2.3,9.7c0.9,1.9,2.4,3.2,4.2,3.8
					c1.5,0.4,3,0.3,4.3-0.5l5.5-2.9c-0.2,0-0.4-0.1-0.6-0.1c-2.2-0.7-4.1-2.4-5.2-4.7l0,0C275.7,212.2,275.8,209.1,276.9,206.6z"/>
			</g>
			<g class="st26">
				<path class="st27" d="M280.5,203.7c-3.4,2-4.6,6.8-2.7,10.8s6.3,5.7,9.7,3.7c3.4-2,4.6-6.8,2.7-10.8
					C288.2,203.4,283.9,201.7,280.5,203.7z"/>
				<path class="st28" d="M284.4,219.9c-0.7,0-1.4-0.1-2.1-0.3c-2.2-0.7-4.1-2.4-5.2-4.7c-2.1-4.4-0.8-9.8,3-12l0,0
					c1.7-1,3.7-1.2,5.6-0.6c2.2,0.7,4.1,2.4,5.2,4.7c2.1,4.4,0.8,9.8-3,12C286.9,219.6,285.7,219.9,284.4,219.9z M280.9,204.5
					c-3,1.7-4.1,6.1-2.3,9.7c0.9,1.9,2.4,3.2,4.2,3.8c1.5,0.4,3,0.3,4.3-0.5c3-1.7,4.1-6.1,2.3-9.7c-0.9-1.9-2.4-3.2-4.2-3.8
					C283.7,203.5,282.2,203.7,280.9,204.5L280.9,204.5z"/>
			</g>
		</g>
		<g>
			
				<rect x="250.4" y="170.9" transform="matrix(0.8697 -0.4935 0.4935 0.8697 -47.6551 163.0113)" class="st28" width="69.2" height="1.7"/>
		</g>
	</g>
	<g>
		<g class="st26">
			<g>
				<path class="st27" d="M314.8,134l44.5-25.7c3.7-2.1,6.7-7.9,6.7-12.9V61c0-5-3-7.2-6.7-5.1l-44.5,25.7
					c-3.7,2.1-6.7,7.9-6.7,12.9v34.4C308.1,133.8,311.1,136.1,314.8,134z"/>
				<path class="st28" d="M312.2,135.6c-0.8,0-1.5-0.2-2.2-0.6c-1.8-1-2.8-3.3-2.8-6.2V94.5c0-5.3,3.1-11.3,7.2-13.6l44.5-25.7
					c1.9-1.1,3.8-1.2,5.3-0.4c1.8,1,2.8,3.3,2.8,6.2v34.4c0,5.3-3.1,11.3-7.2,13.6l-44.5,25.7C314.2,135.3,313.2,135.6,312.2,135.6z
					 M362,56c-0.7,0-1.4,0.2-2.2,0.7l-44.5,25.7c-3.5,2-6.3,7.4-6.3,12.1v34.4c0,2.3,0.7,4,1.9,4.7c1,0.6,2.2,0.4,3.5-0.4l44.5-25.7
					c3.5-2,6.3-7.4,6.3-12.1V61c0-2.3-0.7-4-1.9-4.7C362.9,56.1,362.5,56,362,56z"/>
			</g>
		</g>
		<g class="st26">
			<path class="st27" d="M320.1,90.1l3.3,2.9c-1.3,1.9-2.1,4.2-2.1,6.2c0,0.9,0.2,1.7,0.5,2.3l-4.8,5.3c-0.6-1.2-0.9-2.7-0.9-4.5
				C316,98.2,317.6,93.8,320.1,90.1z"/>
			<path class="st27" d="M327.7,107.8c-0.3,0.2-0.6,0.3-0.8,0.4c-0.1,0-0.2,0.1-0.3,0.1c-0.1,0-0.2,0.1-0.3,0.1
				c-0.1,0-0.2,0.1-0.3,0.1c-0.1,0-0.2,0.1-0.3,0.1c-0.1,0-0.2,0.1-0.2,0.1l0,0c-0.3,0.1-0.5,0.2-0.8,0.2c-0.3,0.1-0.5,0.1-0.8,0.2
				c-0.2,0-0.5,0.1-0.7,0.1c-0.1,0-0.2,0-0.2,0c-0.5,0-0.9,0-1.4-0.1c-0.1,0-0.3-0.1-0.4-0.1s-0.1,0-0.2-0.1c-0.1,0-0.3-0.1-0.4-0.1
				l0,0c-0.1,0-0.1-0.1-0.2-0.1c-0.2-0.1-0.3-0.2-0.5-0.2c-0.1,0-0.1-0.1-0.2-0.1c-0.1-0.1-0.3-0.2-0.4-0.3l-0.1-0.1
				c-0.2-0.2-0.4-0.4-0.6-0.6l4.8-5.5c1,0.9,2.6,0.9,4.3-0.1c3-1.8,5.5-6,5.5-9.5s-2.5-4.9-5.5-3.1c-0.9,0.5-1.7,1.2-2.5,2.1l-3.2-3
				c0.2-0.3,0.5-0.6,0.8-0.9c0.1-0.1,0.2-0.2,0.2-0.3c0.2-0.2,0.3-0.4,0.5-0.5c0.2-0.2,0.3-0.3,0.5-0.5c0.1-0.1,0.2-0.2,0.3-0.2
				c0.2-0.2,0.3-0.3,0.5-0.5s0.3-0.3,0.5-0.5c0.1-0.1,0.2-0.1,0.2-0.2l0,0c0.2-0.1,0.3-0.3,0.5-0.4s0.4-0.3,0.5-0.4s0.2-0.1,0.3-0.2
				c0.2-0.1,0.4-0.2,0.6-0.4l0.3-0.2c5.4-3.1,9.8-1.2,10.7,4.2l4.5-2.6v-7.8l-1.1,0.6V75l3.6-2.1v2.4l-1.2,0.7h0.2v9.4l-5.7,3.3
				c0,0.1,0,0.3,0,0.4C338.5,96,333.7,104.4,327.7,107.8z"/>
			<polygon class="st27" points="335.3,115.7 317.9,125.8 317.9,121.6 335.3,111.5 			"/>
			<polygon class="st27" points="348.7,71.8 359.6,65.5 359.6,69.7 348.7,76 			"/>
			<polygon class="st27" points="348.7,80 359.6,73.7 359.6,76.3 348.7,82.6 			"/>
			<polygon class="st27" points="348.7,84.4 359.6,78.1 359.6,80.7 348.7,87 			"/>
			<polygon class="st27" points="359.6,101.7 344.5,110.4 344.5,94.7 359.6,86 			"/>
		</g>
	</g>
	<g>
		<path class="st29" d="M283.7,128.1c-0.7-0.7-3.5-2.1-4.1-2.1s-1.7,0.7-2.1,1.7c-0.8,2.1,0.1,14.6,1.2,14.6c1.3,0,2.1,0,2.9-0.4
			c1.2-0.5,2.5-10.9,2.6-12.3C284.4,128.4,283.7,128.1,283.7,128.1z"/>
		<path class="st30" d="M280.5,127.9c-0.6-0.4-3-2.1-3.2,0c-0.2,2.2-2.5,10.9-2.4,11.9s2.4,2.3,3.6,2.6s3-11.4,3.1-12.8
			C281.8,128.7,280.9,128.1,280.5,127.9z"/>
		<path class="st29" d="M276.9,130.2c2.2-0.3,2.4,1.6,2.5,2.7c0.1,1.1-0.5,4.1-0.8,4.7c-0.3,0.6-4.2,1.6-4.4,1.6
			C274,139.2,276.9,130.2,276.9,130.2z"/>
		
			<linearGradient id="SVGID_1_" gradientUnits="userSpaceOnUse" x1="2730.4397" y1="371.6178" x2="2755.8049" y2="427.5072" gradientTransform="matrix(-1 0 0 -1 3017.9409 512)">
			<stop  offset="4.947920e-02" style="stop-color:#FEB9B8"/>
			<stop  offset="0.9922" style="stop-color:#FEA5A4"/>
		</linearGradient>
		<path class="st31" d="M257.8,139.7c0,0,0.8,2.7,1.9,3.4c0.5,0.3,0.9,0.3,1.3,0.1c0.1,0,0.1,0,0.2-0.1c0.3-0.2,0.5-0.4,0.5-0.4
			s0.8,0.9,1.3,1.7c0.5,0.7,2,0.2,3.1,0.6c0.8,0.4,4-0.9,5.9-1.6c0.7-0.3,1.2-0.4,1.3-0.3c0.4,0.2,2-1.1,2.7-2.9
			c0.2-0.5,0.4-1.8,0.6-3.3l0,0c0.5-3.4,0.9-8,1.4-9.2c0.6-1.8,10.5-14.8,12.7-18.4c2.2-3.7,5.2-10.5,5.1-14.5
			c0-1.1-0.5-2.4-1.2-3.7c-1.8-3.5-5.4-7.4-7.3-9.4c-2.6-2.7-7.5-8.3-14-12.8l-10.6,1.9c0,0,0,0.2-0.1,0.6
			c-0.3,2.4-1.4,11.2,0.7,13.2c2.5,2.3,15.3,9.8,15.3,11.5s-5.8,20.3-7.3,22.9c-0.2,0.3-0.3,0.6-0.6,0.9c-2,2.8-6.7,7.2-9,9.1
			c-2.5,2.2-3.4,8.1-3.4,8.1L257.8,139.7L257.8,139.7z"/>
		<path class="st32" d="M278.6,96c0,1.7-5.8,20.3-7.3,22.9c-0.2,0.3-0.3,0.6-0.6,0.9c0.3-0.3,0.5-0.5,0.7-0.8
			c1.1-1.4,1.9-3.1,2.8-4.7c0.6-1.1,0.7-2.4,1.1-3.6c0.7-2.2,1.5-4.3,2.3-6.4c0.9-2.6,1.7-5.2,2-8.1c0-0.5,0.1-1.1,0.3-1.6
			c0.3-0.8,0.9-1.4,1.1-2.2c0.1-0.6-0.1-1.1,0.1-1.7c0.5-1.5,2.2-2.3,2.7-3.9c-1.4,0.3-2.6,1.4-3.5,2.5c-0.7,0.8-1.5,1.7-2.5,1.6
			c-0.4-0.1-0.8-0.3-1.1-0.6c-2.1-1.4-4.2-2.7-5.9-4.6c1.6-0.5,2.8-1.9,3.5-3.4s1-3.1,1.2-4.8c0.3-1.6,0.4-3.4-0.8-4.5
			c-0.7-0.6-1.7-0.8-2.6-0.9c-2.4-0.3-4.7-0.6-7-0.8c-0.8-0.1-1.5-0.2-2.3-0.1c-0.3,2.4-1.4,11.2,0.7,13.2
			C265.8,86.8,278.6,94.3,278.6,96z"/>
		<path class="st33" d="M282.8,93.5c0.2-1,0.2-2,0.6-2.9c0.7-1.9,2.6-3.4,4.7-3.4c0.9,0,1.9,0,2.5,0.7c0.7,0.7,1.2,2.1,1.7,2.9
			c0.2,0.3,0.4,0.6,0.4,1c0.1,0.5,0,1-0.2,1.5c-0.4,1.4-0.8,2.7-1.1,4.1c-0.3,1-0.5,1.9-0.9,2.9c-1.3,3.2-3.1,6.2-4.7,9.3
			c-1.8,3.4-3.6,6.8-5.6,10c-0.4,0.6-1.1,1.2-1.6,0.8c-0.1-0.1-0.2-0.3-0.3-0.5c-0.7-2-1.6-5-1.2-7.1c0.5-2.2,1.7-4.3,2-6.5
			c0.3-2.1,0.9-4.1,1.3-6.2C280.7,97.7,282.3,95.8,282.8,93.5z"/>
		<path class="st33" d="M287,83.8c0.2,0.2,0.3,0.5,0.3,0.7s-0.1,0.4-0.2,0.6c-0.6,1.1-1.2,1.7-2.4,1.5c-0.8-0.1-1-0.3-1.9-0.1
			c-1,0.2-1.9,0.5-2.9,0.6c-1.4,0.2-2.8,0.1-4-0.5c-3.3-1.7-1.8-4.2-0.9-6.9c0.7-2,2.1-5.1,4.7-3.5C282.5,77.9,285,81.2,287,83.8z"
			/>
		<path class="st32" d="M278.5,123.9c-1.7,2.2-2.7,5-2.7,7.7c0,1.1,0.5,1.8,0.6,2.9c0.1,0.7,0.2,1.5,0.3,2.2c0.5-3.4,0.9-8,1.4-9.2
			c0.6-1.8,10.5-14.8,12.7-18.4c2.2-3.7,5.2-10.5,5.1-14.5c0-1.1-0.5-2.4-1.2-3.7c0,1.7,0.5,3.6,0.3,4.7c-0.5,2.7-2,5.1-2.8,7.7
			c-0.8,2.8-2.3,5.9-4,8.2C285,115.8,281.7,119.8,278.5,123.9z"/>
		<path class="st32" d="M261.2,143.2c0.3-0.2,0.5-0.4,0.5-0.4s0.8,0.9,1.3,1.7c0.5,0.7,2,0.2,3.1,0.6c0.8,0.4,4-0.9,5.9-1.6
			c-0.3-0.3-0.4-0.8-0.2-1.2c-0.4,0.9-3.8,1.7-4.7,1.9c-1.6,0.4-3,0.8-4.2-0.6c-0.8-1-1.3-1.8-1.1-3.1c0-0.2,0-0.4,0.2-0.6
			c0.3-0.3,0.7-0.3,1.1-0.2c1.3,0.1,2.6-0.1,3.8-0.6c-0.8-1.7-1.1-3.6-1-5.4C262.7,135.7,260.9,139.5,261.2,143.2z"/>
		<path class="st29" d="M261.5,133.1c3.6-1.2,5.3-2,6.2,0.8c0.9,2.8,0.4,4,0,5s-2.5,1.7-5.4,1.6
			C259.5,140.3,261.5,133.1,261.5,133.1z"/>
		<path class="st32" d="M257.8,139.7c0,0,0.8,2.7,1.9,3.4c0.5,0.3,0.9,0.3,1.3,0.1c-1.4-0.9-2.5-2.2-3.1-3.7L257.8,139.7z"/>
		<path class="st34" d="M253.1,50.4c6.2,2.3,24.7,20.3,25.7,21.6c1,1.2-6.7,14.4-12.2,16c-5-0.4-11.3-4.5-13.1-5.1s-3-23.8-3.2-24.6
			C249.9,57.3,253.1,50.4,253.1,50.4z"/>
		<path class="st35" d="M192.1,116.7c-0.8,7.7-7.1,23.5-6.9,24.9c0.2,1.4,0.9,5.6,11.7,10.6s31.1,7.3,37.4,2.2
			c6.2-5.1,6.8-7.9,7.1-10.4c0.1-0.9,1.4-6.3,3.3-13.4c1.6-6.4,3.6-14.2,5.4-21.7l0,0c1.8-7.2,3.4-14.1,4.4-19
			c3.1-15.8,2.3-35.7,0.8-38.4s-6.5-3.4-6.5-3.4s-28.2-1.9-38,2.4s-19.4,12.2-25.4,19.6C182,73.8,193,108.9,192.1,116.7z"/>
		<path class="st34" d="M229.1,92.3c0.6-0.3,1.6,18.6,1.5,20.2s-8.3,5.5-9.8,5.8s-7.7-1.2-8.3-1.8c-0.6-0.6-2.3-19.8-2.4-20.1
			C210,96.1,222.9,95.9,229.1,92.3z"/>
		
			<linearGradient id="SVGID_2_" gradientUnits="userSpaceOnUse" x1="2778.2397" y1="463.7563" x2="2803.2144" y2="463.7563" gradientTransform="matrix(-1 0 0 -1 3017.9409 512)">
			<stop  offset="4.947920e-02" style="stop-color:#FEB9B8"/>
			<stop  offset="0.9922" style="stop-color:#FEA5A4"/>
		</linearGradient>
		<path class="st36" d="M239.7,60.6c-4.2,3.5-2.9,7.1-4.6,9.5c-1.6,2.4-6.5,2-11.5-1.3c-4.9-3.3-8.2-9.1-8.8-14s1.3-6.2,1.9-7.2
			c0.6-1,2.1-2.1,4-5.7c1.9-3.6,0.9-11,2.4-13.3c1.4-2.3,3.8-4.5,6.6-3.5s6.7,3.6,8.4,10.9C239.8,43.3,239.7,60.6,239.7,60.6z"/>
		<path class="st32" d="M227.4,60.1c0.3,0.7,0.8,1.3,1.3,1.8c1.3,1.7,2.8,3.2,4.5,4.5c0.7,0.5,1.6,1.4,2.5,1.5
			c0.7,0.1,1.6-0.4,2.2-0.7c1.4-0.8,2-2.5,2-4.1s-0.7-3.1-1.5-4.5s-1.8-2.8-3.1-3.7c-1.1-0.7-2.5-1.1-3.8-1.3
			c-1.3-0.3-4.4-0.9-5,0.7c-0.3,0.7,0,1.9,0.1,2.6C226.6,58,226.9,59.1,227.4,60.1z"/>
		<path class="st34" d="M237.6,70.4c1.4,5.9,2.5,24.7,2.1,27c-0.4,2.3-5.4,3.3-5.4,3.3s-0.5-14.1-1.4-18.1s-2.4-10.1-2.4-10.1
			l4.2-2.1L237.6,70.4z"/>
		<path class="st37" d="M255.3,89.8c-0.5,4-2.2,12.4-4.2,21.2c-1.7,7.5-3.6,15.3-5.2,21.1c-1.4,5.1-2.5,8.7-3.1,9.3
			c-2,2.2-8.5,12.9-23.3,12s-32.5-13.2-33.7-17.2c-1.2-3.9-2.6-20.3-2.5-24s-1-4.7,11.7-2s13.8-14.1,13.1-25.2
			c-0.6-8.3-6.5-14.9-12.8-18c-3.3-1.6-7.2-0.6-9.6,2.1c-0.2,0.2-0.4,0.5-0.6,0.7c0.5-3.2,13.1-14.7,19.8-18.1
			c6.7-3.4,11.8-5.5,8.1-3c-2.7,3.2-5.9,6.1-0.5,15.9c2,3.6,7.2,8.3,12,14.3c0,0,0.6,1,0.7,1.1c7,7.7,9.9,31.3,9.9,31.3
			s7.8-26,8.6-34.8v-2.4c3-15.8-8.9-28.9-8.9-28.9s11.6-1.7,17.6,7.9C258.3,62.8,256.7,79.4,255.3,89.8z"/>
		<path class="st6" d="M188.1,150C188.2,150,188.1,149.8,188.1,150c-0.1,0-0.1,0.1,0,0.2c8.3,9.2,20.4,16.5,31.6,21.6
			c2.5,1.1,19.2,7.8,18.5,1.4c-0.1-1.1-0.8-2-1.5-2.8c-5.5-6.4-14-9.3-20.5-14.6c-3-2.4-5.5-5.4-8-8.3c-1-1.2-2.1-2.4-2.7-3.9
			c-0.8-1.7-0.9-3.7-1.1-5.6c-0.4-6-0.5-11.9-0.5-17.9c0.1-11.7,1.9-23.6-2.4-34.9c-0.3-0.7-2.2,2.8-2.2,3c-0.5,1.3-1,2.2-1.7,3.3
			c-1.8,3-3,6.5-4.3,9.7c-2.6,6.1-4.5,12.4-5.3,18.9c-0.7,5.1-0.7,10.4-2,15.4c-0.7,2.5-2,4.3-1.3,6.9
			C185.6,145.2,186.7,147.7,188.1,150z"/>
		<path class="st38" d="M235.1,113.1c0,0,0.2-10.9,2.4-16.9s4.3-13.7,5.1-21.5c0.9-7.8-1.8-21.4-1.8-21.4s5.6,0.9,6.1,1.8
			c0.6,1,4.6,11.9,1.4,26.4c-3.2,14.5-13.3,39.4-13.3,45C234.9,117,235.1,113.1,235.1,113.1z"/>
		<path class="st39" d="M251,111c-1.7,7.5-3.6,15.3-5.2,21.1c-1,0.5-2,0.8-3.1,0.8c-1.8-0.1-3-0.2-2.5-5.2c0.2-2.8,0.4-4.6,0.9-6.9
			c0.7-3,3-5.5,5.6-7.2C248.1,112.7,249.6,111.9,251,111z"/>
		<path class="st34" d="M216.1,68.8c1.2,1.5,2.7,2.7,4.3,3.8c1.7,1.3,3.7,2.2,5.6,3c1.6,0.7,3.5,1.5,5.2,0.9
			c1.5-0.5,2.5-1.9,3.2-3.2c0.1-0.2,1.5-2.8,1.4-2.8c0,0,4.2,0.9,5.7,1.7c1.4,0.8,3-3.8,3-6.4c0.1-2.6-2.7-6.1-2.7-6.1
			s-5.5,4.1-5.3,6.1s-1.3,4.4-1.7,4.7c-0.4,0.4-1.5,0.5-2.7,0.5s-5.3-3.5-9.6-7.9s-5.7-9-6-10.4s-0.7-3.8-0.2-4.4
			c0.5-0.7,2.2-2.8,2.2-2.8c-3.5,1.2-8.9,3.8-9.2,7.8S213.4,65.5,216.1,68.8z"/>
		<path class="st38" d="M236.4,112.1c0.6-10.9-4.2-18.4-7.9-27.4c-3.8-9-13.4-16.3-16.1-21.8c-2.7-5.5-2.9-9.5-0.9-12.2
			s4.7-4.4,4.7-4.4l2.3-0.9l2.2-3.4c0,0-15.8,5.7-17.9,11.5c-2.1,5.8,3.3,16.8,12,26.3c8.6,9.5,12.6,22.5,12.6,22.5l7.8,24.2
			L236.4,112.1z"/>
		<g>
			
				<linearGradient id="SVGID_3_" gradientUnits="userSpaceOnUse" x1="2774.6892" y1="343.0376" x2="2859.0962" y2="416.9831" gradientTransform="matrix(-1 0 0 -1 3017.9409 512)">
				<stop  offset="4.947920e-02" style="stop-color:#FEB9B8"/>
				<stop  offset="0.9922" style="stop-color:#FEA5A4"/>
			</linearGradient>
			<path class="st40" d="M182.3,135.2c0.2,1.7,0.5,3,0.7,4c1.4,5.6,1.4,5.7,14.5,15c12.7,9.1,32.7,17.5,36.1,18.9
				c0.1,0,0.2,0.1,0.3,0.1c0.5,0.2,1.1,0.5,1.9,0.8c2.7,1.4,6.6,3.5,8,4c1.7,0.6,9,3.9,9.5,4.1c0.4,0.1,1.4,0.2,2.5,0.1
				c0.5,0,1.1,0,1.5-0.1c1.3-0.3,1.3-1.8,1.4-2.5c0-0.5-1.1-0.6-1.9-0.7c-0.5,0-0.9,0-0.9,0s-0.7-0.6-0.6-0.8l0,0
				c0.3-0.1,3.9,0,3.9,0s1.7-1,2.1-1.7c0.2-0.3,0.3-1,0.3-1.6c0-0.3,0-0.5,0-0.7c0-0.1,0-0.1,0-0.1s0.8-0.1,1.4-0.5s1.2-2.6,1-3.1
				l0,0c-0.7-0.5-8.3-2.8-9.3-3.1l7,1.3c0,0,4.1,1,5.3,1.2c0.1,0,0.2,0,0.3,0c0.8,0,2.1-0.1,1.7-1.3c-0.5-1.1-4.7-3.2-6.2-3.7
				s-9.7-2.6-11.8-2.8c-2-0.1-9.3,0.1-11.8,0c-1.3,0-3.2-1.1-6.1-2.9c-2.8-1.8-6.6-4.4-11.5-7.7c-10-6.6-22.1-16.3-22.1-18.1
				c0-0.7,0.4-3.3,0.8-6.9v-0.1c0.4-3.7,0.9-8.5,1.1-13.1c0.1-2.7,0.1-5.4-0.1-7.7l-8.9-5.8c0,0-10.5,5.9-11.3,9.4
				c0,0.2-0.1,0.6-0.1,0.9C180,114.6,181.1,127.7,182.3,135.2z"/>
			<path class="st33" d="M194.7,135.8c-1.2,2.1-3.4,4-5.8,3.7c-1.2-0.2-2.3-1-3.1-2s-1.2-2.2-1.5-3.5c-0.6-2.4-0.8-4.9-1-7.3
				c-0.3-3.8-0.5-7.6-0.8-11.4c0-0.2,0-0.4,0.1-0.6c0.2-0.2,0.5-0.3,0.8-0.2c4.2,0.2,8.2,1.6,12.4,1.8c1.7,0.1,3.5,0.4,2.9,2.4
				c-0.5,1.9-0.9,3.7-1.1,5.6C197,128.2,196.7,132.3,194.7,135.8z"/>
			<path class="st32" d="M255.8,179c0.3,0,0.5,0,0.8,0C256.1,179,255.7,179,255.8,179c-0.1,0-0.8-0.6-0.7-0.8
				c-1.1-0.3-2.2-0.7-3.3-1.3C252.4,178.3,254.2,178.9,255.8,179z"/>
			<path class="st32" d="M263.6,170.5c-0.7-0.5-8.3-2.8-9.3-3.1l7,1.3c0,0,4.1,1,5.3,1.2c-0.2,0-0.3-0.1-0.5-0.2
				c-4.4-1.4-8.9-2.4-13.5-2.9c0.6,0.8,1.7,1.2,2.7,1.4C258.1,169,260.9,169.7,263.6,170.5z"/>
			<path class="st32" d="M255.5,173.7c1.9,0.3,3.9,0.7,5.8,1.2c0-0.3,0-0.5,0-0.7l0,0c-1.8-0.5-3.5-1.1-5.3-1.6
				c-1.4-0.4-2.8-0.8-4.2-0.6C252.5,173.3,254.1,173.5,255.5,173.7z"/>
			<path class="st6" d="M237.8,174.9c-0.7-0.3-1.4-0.5-2.1-0.8c2.7,1.4,6.6,3.5,8,4c1.7,0.6,9,3.9,9.5,4.1c0.4,0.1,1.4,0.2,2.5,0.1
				c-1.4-0.3-2.8-0.7-4.2-1.1c-1.6-0.4-2.9-1.2-4.4-2C244.1,177.6,241,176.1,237.8,174.9z"/>
			<path class="st32" d="M229.2,158.4c1.4,0.8,2.1,0.9,3.5,0.9c-2.8-1.8-6.6-4.4-11.5-7.7c-10-6.6-22.1-16.3-22.1-18.1
				c0-0.7,0.4-3.3,0.8-6.9c-0.7,2-1.3,4-1.5,6.1c-0.2,2,1.8,3.7,3.1,5.1c1.6,1.7,3.3,3.3,5.1,4.9c3.3,3,6.8,5.8,10.5,8.3
				c2.6,1.8,5.3,3.4,8,5C226.4,156.7,227.8,157.5,229.2,158.4z"/>
			<path class="st32" d="M186.8,144.7c-2.2-2.8-3.6-6.1-4.6-9.5c0.2,1.7,0.5,3,0.7,4c1.4,5.6,1.4,5.7,14.5,15
				c12.7,9.1,32.7,17.5,36.1,18.9c-0.1-0.1-0.3-0.1-0.4-0.2c-3.2-1.8-6.4-3.5-9.7-5.2c-6.4-3.5-12.8-6.9-19.1-10.7
				c-3.1-1.9-6.3-3.9-9.3-5.9C192.5,149.2,188.9,147.3,186.8,144.7z"/>
			<path class="st6" d="M180.4,110.3c0.4,0.5,0.9,1,1.5,1.4c2.5,1.8,5.8,2.7,8.8,2.6c1.7,0,3.2,0,4.9-0.3s3.5-0.7,5.3-0.6
				c0.1-2.7,0.1-5.4-0.1-7.7l-8.9-5.8c0,0-10.5,5.9-11.3,9.4C180.4,109.6,180.4,109.9,180.4,110.3z"/>
			<path class="st33" d="M190.2,132c0.9,0,1.7,0.5,2.5,0.9c3.1,1.8,5.6,4.3,8.5,6.3c3.7,2.6,7.4,5.2,11.3,7.5c4.9,2.9,9.6,6,14,9.7
				c1.7,1.4,4.4,2.4,5.8,4.1c1.1,1.3-0.7,4.7-1.2,6.2c-0.7,2.2-3.7,0.8-5,0c-2.3-1.2-4.3-2.8-6.7-3.9c-6.8-3.2-13.3-6.9-19.8-10.6
				c-1.8-1-3.6-1.9-5.3-3.1c-1.8-1.4-3.6-2.8-5.4-4.3c-2-1.7-3.9-4.6-4.1-7.3C184.5,134.7,187.3,131.9,190.2,132z"/>
			<path class="st34" d="M190.2,69.5c6.7,1.4,13.8,9.4,13.8,17.8c-0.1,8.4-1.7,27.1-2.1,27.8c-0.4,0.7-16.9-1.7-19.8-3.2
				c-2.9-1.4-3.4-2.4-3.4-2.4s1.4-16.8,2.7-25.2c1.4-8.3,1.6-13.1,3.7-14.4C187.7,68.5,190.2,69.5,190.2,69.5z"/>
		</g>
		
			<linearGradient id="SVGID_4_" gradientUnits="userSpaceOnUse" x1="2756.2158" y1="462.9561" x2="2793.4348" y2="462.9561" gradientTransform="matrix(-1 0 0 -1 3017.9409 512)">
			<stop  offset="4.947920e-02" style="stop-color:#FEB9B8"/>
			<stop  offset="0.9922" style="stop-color:#FEA5A4"/>
		</linearGradient>
		<path class="st41" d="M261.7,32.7c0.1,7.2,0,11.4-2.2,14.7s-13.6,19.2-16,20.2s-4.6,1.6-7.8-0.7c-3.2-2.2-9.7-7.9-10.7-11.6
			c-1-3.7-0.3-11.5,0.5-12.9s5-9.9,7.2-11.3c2.2-1.5,18.7-1.4,19.4-1.5C252.8,29.6,261.7,32.7,261.7,32.7z"/>
		<path class="st42" d="M235.9,41.4c0,0,4.5,3.4,18-0.8c4.2-1.3,7.6-3,7.6-3s1.7-1.2,3-2.8s3-6.2,0.4-15.7
			c-2.6-9.6-15.5-14.7-26.3-12.7c-10.9,0.8-15.3,5.3-17.4,12c-2.1,6.7-2.9,10.5-1.8,16.2c1.1,5.7,0.5,6.9,0.6,7.3
			c0.1,0.4,3-3.1,3-3.1s2.2-3.6,3.6-1.6c1.4,2.1,0.5,5,0.5,5l-0.4,2.7l2.4,1.9c0,0,2.8-5.5,3.9-5.8
			C234.1,40.9,235.9,41.4,235.9,41.4z"/>
		
			<linearGradient id="SVGID_5_" gradientUnits="userSpaceOnUse" x1="2791.7566" y1="472.9153" x2="2796.998" y2="472.9153" gradientTransform="matrix(-1 0 0 -1 3017.9409 512)">
			<stop  offset="4.947920e-02" style="stop-color:#FEB9B8"/>
			<stop  offset="0.9922" style="stop-color:#FEA5A4"/>
		</linearGradient>
		<path class="st43" d="M221,38.1c0,0.7,0.1,1.4,0.2,2c0.2,1.3,0.4,2.9,1.1,4c0.1,0.2,0.2,0.3,0.3,0.4c1.2,0.8,2.3-1.8,2.6-2.6
			c0.3-0.6,0.5-1.2,0.7-1.8c0.6-1.3,0.3-3-0.3-4.3c-0.5-1.1-2.6-3-3.9-2c-0.4,0.3-0.5,0.9-0.6,1.4C221,36.3,220.9,37.2,221,38.1z"/>
	</g>
	<path class="st44" d="M235.2,60.4c-5.4-7.1-7-9.2-7-9.2s-1.5-2.1-0.7-3.5c1-1.7,1.9-3.6,3.4-5s1.7-1.4,2.9-1.3
		c1.2,0.1,3.5,5.7,8.2,6.3c9.6,0.4,19.2-5.1,19.6-7.4c0.6-3.7,0.1-4.1,0.1-4.1l5.1,5.5l-9.1,9.5L235.2,60.4z"/>
	<g>
		<path class="st45" d="M235.2,59.7l3-6c0.1-0.2,0.3-0.4,0.5-0.7c0.6-0.7,1.7-1.5,2.6-1.9c0,0,20.7-2.3,24.7-9.7
			c0.8-0.3,0.5-0.1,0.7,0.2l4.4,6.2c-0.2-0.3-0.7-0.3-1.5,0v-0.1c0,0,0,0,0,0.1c-2.2,6-23.9,9.5-23.9,9.5c-1,0.4-2,1.1-2.6,1.9
			c-0.2,0.2-0.4,0.5-0.5,0.7l-3,6c-0.2,0.3-0.2,0.6-0.1,0.8l-4.4-6.2C235,60.3,235,60,235.2,59.7z"/>
		<g>
			<path class="st44" d="M245.7,57.3c-1.2,0.5-2.6,1.6-3.1,2.5l-3,6c-0.4,0.9,0.2,1.2,1.5,0.7c0,0,16.5-3.4,23.9-9.5
				c1-0.9,2.6-1.6,3.1-2.5l3-6c0.4-0.9-0.4-1.6-1.5-0.7C262,53.9,245.7,57.3,245.7,57.3z"/>
			<path class="st46" d="M240.3,66.7c0.2,0,0.5-0.1,0.8-0.2c0.2-0.1,16.6-3.5,23.7-9.4c0.4-0.3,0.8-0.6,1.2-0.9
				c0.7-0.5,1.5-1,1.7-1.5l3-6c0.1-0.2,0.1-0.3,0-0.4c-0.1,0-0.1,0-0.2,0c-0.2,0-0.4,0.1-0.6,0.2c-7.5,6.1-23.4,9.5-24.1,9.6
				c-1.1,0.4-2.4,1.5-2.8,2.3l-3,6c-0.1,0.2-0.1,0.3-0.1,0.3H240.3z"/>
			<path class="st4" d="M257.9,56.8l1.9-0.8c0.3-0.1,0.6-0.5,0.7-0.8l0.2-0.4c0.1-0.3,0-0.5-0.3-0.4l-1.9,0.8
				c-0.3,0.1-0.6,0.5-0.7,0.8l-0.2,0.4C257.5,56.7,257.6,56.9,257.9,56.8z"/>
		</g>
	</g>
	<path class="st45" d="M262.2,48.3c-1.5-2.6-2.6-6.5-1.8-12.8c0.9-6.3-0.8-16.6-7.4-23.1s-15.7-5.8-15.7-5.8s-5.9,0.1-9.6,2.9
		c8-1.2,10.8,1.6,16.9,6.8s7.6,13.7,8,16.8c0.4,3.2-0.5,8.8-0.6,11.5c-0.1,3.4,3.1,6.8,3.1,6.8S259.3,50.2,262.2,48.3z"/>
	<path class="st45" d="M238.2,55.7l-2.4,4.1c0,0-10.7-13.5-12-15.5c-1.3-1.9-2.6-2.4-3.7-4.9c-1.1-2.5-1.7-9.7-1-12.3
		c0.2-2.7,0.5-2.9,0.5-2.9s-0.6,4.9,3.2,10.1C226.4,39.7,238.2,55.7,238.2,55.7z"/>
	<path class="st47" d="M249.3,141.8c-0.5,4.6-0.6,6.7-0.5,9.4c0.3,2.7,7.3,4.3,8.6,3c0.8-0.8,4.3-6.9,4.3-6.9L249.3,141.8z"/>
	<path class="st48" d="M250.1,132.1c-1.9,6.1-2.3,10.2-2.3,10.9s4,4.4,8.6,4.9c4.6,0.5,7.1-0.8,7.7-1.8s2.7-8.9,2.7-8.9L250.1,132.1
		z"/>
	<path class="st49" d="M268.4,131.3c1-5,0.7-8.1,0.3-8.5c-1.5-1.3-4.9-1.9-12.4-3.1c-2,1.5-5.5,10.2-6.1,12.5
		c-0.4,1.3,6.8,5.6,8.2,5.8c1.7,0.2,8,0,8.4-0.6C267.6,135.8,268.4,131.3,268.4,131.3z"/>
	<path class="st50" d="M256.3,119.6c1.5-0.4,4.6-1.1,6.5-1c1.8,0.1,5.9,3.6,5.9,4.2c0.1,0.6-4.8,0.9-6,0.9
		C261.4,123.8,256.3,119.6,256.3,119.6z"/>
	<g>
		<path class="st6" d="M226.8,107.5l-14.9,2.8c-0.8,0.2-1.5-0.5-1.5-1.5l-0.3-7.7c0-1,0.6-1.9,1.4-2l14.9-2.8
			c0.8-0.2,1.5,0.5,1.5,1.5l0.3,7.7C228.3,106.5,227.7,107.4,226.8,107.5z"/>
		<path class="st34" d="M227.5,106.6l-14.9,2.8c-0.8,0.2-1.5-0.5-1.5-1.5l-0.3-7.7c0-1,0.6-1.9,1.4-2l14.9-2.8
			c0.8-0.2,1.5,0.5,1.5,1.5l0.3,7.7C228.9,105.5,228.3,106.4,227.5,106.6z"/>
		<polygon class="st51" points="218.1,106.2 212.8,107.2 212.6,100.7 217.9,99.7 		"/>
		<polygon class="st51" points="227,99.1 219.9,100.4 219.8,99.4 227,98 		"/>
		<polygon class="st51" points="227.1,101 220,102.4 219.9,101.4 227.1,100 		"/>
	</g>
	<polygon class="st28" points="346.2,116.4 344.5,116.4 344.5,156.3 336.1,163.5 336.1,161.6 330.6,164.7 330.6,171.4 336.1,168.3 
		336.1,165.8 346.2,157 	"/>
	<g>
		<g>
			<path class="st16" d="M189.3,244.6l-18.6,9.4v2.7l65.2,37.6l18.4-10.6V281L189.3,244.6z M230,284.5c-1.1-0.6-1.8-1.3-2.2-2.1
				c0.4-0.8,1.1-1.5,2.1-2.1c3.3-1.9,8.7-1.9,12,0c1.1,0.6,1.8,1.4,2.2,2.1c-0.4,0.8-1.1,1.5-2.1,2.1
				C238.7,286.4,233.3,286.4,230,284.5z M183.1,253.3c3.3-1.9,8.6-1.9,12,0c1.1,0.6,1.8,1.4,2.2,2.2c-0.4,0.8-1.1,1.4-2.1,2
				c-3.3,1.9-8.6,1.9-12,0c-1.1-0.6-1.8-1.4-2.2-2.2C181.3,254.6,182,253.9,183.1,253.3z M196.6,264.4c0.4-0.8,1.1-1.5,2.1-2.1
				c3.3-1.9,8.7-1.9,12,0c1.1,0.6,1.8,1.4,2.2,2.1c-0.4,0.8-1.1,1.5-2.1,2.1c-3.3,1.9-8.6,1.9-12,0
				C197.7,265.9,197,265.1,196.6,264.4z M214.4,275.5c-1.1-0.6-1.8-1.4-2.2-2.1c0.4-0.8,1.1-1.5,2.1-2.1c3.3-1.9,8.6-1.9,12,0
				c1.1,0.6,1.8,1.4,2.2,2.2c-0.4,0.8-1.1,1.4-2.1,2C223,277.4,217.7,277.4,214.4,275.5z"/>
		</g>
		<path class="st23" d="M189,243.4L170.7,254l2.4,1.4l2.7,1.6l1,0.6l10.9,6.3l0,0l1.1,0.6l2.5,1.4l0,0l1.1,0.6l11,6.3l1,0.6l2.6,1.5
			l0,0l1,0.6l10.9,6.3l0,0l1.1,0.6l2.5,1.4l0,0l1.1,0.6l10.9,6.3l1.1,0.6l0.2,0.1l0.1-0.1l1.5-0.8l10.5-6l1.5-0.8l2.5-1.4l2.3-1.4
			L189,243.4z M234.9,274.8c-0.6-0.3-0.6-0.8,0-1.2c0.4-0.2,0.9-0.3,1.4-0.2c0.2,0,0.5,0.1,0.6,0.2c0.2,0.1,0.3,0.3,0.4,0.4
			c0.1,0.3,0,0.5-0.4,0.8C236.4,275.1,235.5,275.1,234.9,274.8z M228.5,273.5c-0.4,0.8-1.1,1.4-2.1,2c-3.3,1.9-8.6,1.9-12,0
			c-1.1-0.6-1.8-1.4-2.2-2.1c-0.8-1.7-0.1-3.5,2.1-4.8c1.4-0.8,3.2-1.3,5-1.4c0.6,0,1.1,0,1.7,0l0,0c1.9,0.1,3.7,0.6,5.2,1.4
			C228.6,269.9,229.3,271.8,228.5,273.5z M221.4,279.5c-0.1,0-0.1,0.1-0.2,0.1l0,0c-0.5,0.2-1.1,0.2-1.6,0l0,0
			c-0.1,0-0.1-0.1-0.2-0.1c-0.6-0.3-0.6-0.8,0-1.2c0.6-0.3,1.5-0.3,2,0C221.9,278.7,221.9,279.2,221.4,279.5z M203.6,256.7
			c-0.6-0.3-0.6-0.8,0-1.2c0.4-0.2,0.9-0.3,1.4-0.2c0.2,0,0.5,0.1,0.6,0.2c0.2,0.1,0.3,0.3,0.4,0.4c0.1,0.3,0,0.6-0.4,0.8
			C205.1,257,204.2,257,203.6,256.7z M197.2,255.4c-0.4,0.8-1.1,1.4-2.1,2c-3.3,1.9-8.6,1.9-12,0c-1.1-0.6-1.8-1.4-2.2-2.2
			c-0.8-1.7-0.1-3.5,2.1-4.8c1.4-0.8,3.2-1.3,5.1-1.4c0.5,0,1.1,0,1.6,0l0,0c1.9,0.1,3.7,0.6,5.2,1.4
			C197.3,251.9,198.1,253.8,197.2,255.4z M190.1,261.5c-0.1,0-0.1,0.1-0.2,0.1l0,0c-0.5,0.2-1.1,0.2-1.6,0l0,0c-0.1,0-0.1,0-0.2-0.1
			c-0.6-0.3-0.6-0.8,0-1.2c0.6-0.3,1.5-0.3,2,0C190.7,260.7,190.7,261.2,190.1,261.5z M190.1,247.7c-0.6,0.3-1.5,0.3-2,0
			c-0.4-0.2-0.5-0.5-0.4-0.8l0,0c0.1-0.1,0.2-0.3,0.4-0.4c0.2-0.1,0.4-0.2,0.6-0.2c0.2,0,0.5,0,0.7,0c0.3,0,0.5,0.1,0.7,0.2
			c0.2,0.1,0.3,0.3,0.4,0.4C190.6,247.2,190.4,247.5,190.1,247.7z M202.1,254.6c-0.6,0.3-1.5,0.3-2,0c-0.6-0.3-0.6-0.8,0-1.2
			c0.4-0.2,0.9-0.3,1.4-0.2c0.3,0,0.5,0.1,0.7,0.2c0.2,0.1,0.4,0.3,0.4,0.4C202.5,254.1,202.4,254.4,202.1,254.6z M217.7,263.6
			c-0.6,0.3-1.5,0.3-2,0c-0.6-0.3-0.6-0.8,0-1.2c0.4-0.2,0.9-0.3,1.4-0.2c0.2,0,0.5,0.1,0.6,0.2c0.2,0.1,0.3,0.2,0.4,0.4
			C218.2,263.1,218.1,263.4,217.7,263.6z M221.3,265.7c-0.6,0.3-1.5,0.3-2,0c-0.6-0.3-0.6-0.8,0-1.2c0.4-0.2,0.9-0.3,1.4-0.2
			c0.3,0,0.5,0.1,0.7,0.2s0.3,0.3,0.4,0.4C221.8,265.2,221.7,265.5,221.3,265.7z M233.3,272.7c-0.6,0.3-1.5,0.3-2,0
			c-0.6-0.3-0.6-0.8,0-1.2c0.4-0.2,0.9-0.3,1.4-0.2c0.2,0,0.4,0.1,0.6,0.2c0.2,0.1,0.3,0.2,0.4,0.4
			C233.8,272.2,233.7,272.5,233.3,272.7z M178.1,254.6c-0.6,0.3-1.5,0.3-2,0c-0.3-0.2-0.5-0.5-0.4-0.8l0,0c0-0.1,0.2-0.3,0.4-0.4
			c0.2-0.1,0.4-0.2,0.6-0.2c0.5-0.1,1,0,1.4,0.2C178.7,253.7,178.7,254.3,178.1,254.6z M193.8,263.6c-0.6,0.3-1.5,0.3-2,0
			c-0.6-0.3-0.6-0.8,0-1.2c0.6-0.3,1.5-0.3,2,0C194.3,262.7,194.3,263.3,193.8,263.6z M198.7,259.6c1.4-0.8,3.3-1.3,5.1-1.4l0,0
			c0.5,0,1.1,0,1.6,0l0,0h0.1c1.9,0.1,3.6,0.6,5.1,1.4c2.3,1.3,3,3.2,2.2,4.8c-0.4,0.8-1.1,1.5-2.1,2.1c-3.3,1.9-8.6,1.9-12,0
			c-1.1-0.6-1.8-1.3-2.2-2.1C195.7,262.7,196.4,260.9,198.7,259.6z M205.8,270.5c0,0-0.1,0-0.2,0.1l0,0c-0.5,0.2-1.2,0.2-1.7,0
			c-0.1,0-0.1,0-0.2-0.1c-0.6-0.3-0.6-0.8,0-1.2c0.6-0.3,1.5-0.3,2,0C206.3,269.7,206.3,270.2,205.8,270.5z M209.4,272.6
			c-0.6,0.3-1.5,0.3-2,0c-0.6-0.3-0.6-0.8,0-1.2c0.6-0.3,1.5-0.3,2,0C210,271.8,210,272.3,209.4,272.6z M225,281.7
			c-0.6,0.3-1.5,0.3-2,0c-0.6-0.3-0.6-0.8,0-1.2c0.6-0.3,1.5-0.3,2,0C225.6,280.8,225.6,281.3,225,281.7z M229.9,277.6
			c1.4-0.8,3.2-1.3,5-1.4h0.1l0,0c0.5,0,1.1,0,1.6,0l0,0h0.1c1.9,0.1,3.6,0.6,5.1,1.4c2.3,1.3,3,3.2,2.2,4.8
			c-0.4,0.8-1.1,1.5-2.1,2.1c-3.3,1.9-8.6,1.9-12,0c-1.1-0.6-1.8-1.3-2.2-2.1C227,280.8,227.7,278.9,229.9,277.6z M237,288.6
			C237,288.6,236.9,288.6,237,288.6c-0.1,0.1-0.2,0.1-0.2,0.1l0,0c-0.5,0.2-1.2,0.2-1.7,0c0,0-0.1,0-0.2-0.1c-0.6-0.3-0.6-0.9,0-1.2
			c0.6-0.3,1.5-0.3,2,0C237.6,287.7,237.6,288.3,237,288.6z M249,281.7c-0.6,0.3-1.5,0.3-2,0c-0.6-0.3-0.6-0.8,0-1.2
			c0.4-0.2,0.9-0.3,1.4-0.2c0.2,0,0.5,0.1,0.6,0.2c0.2,0.1,0.3,0.2,0.4,0.4C249.4,281.2,249.3,281.5,249,281.7z"/>
		<polygon class="st15" points="235.8,291.6 235.8,294.3 254.2,283.7 254.2,281 		"/>
	</g>
</g>
</svg>
