<?xml version="1.0" encoding="utf-8"?>
<!-- Generator: Adobe Illustrator 23.0.5, SVG Export Plug-In . SVG Version: 6.00 Build 0)  -->
<svg version="1.1" id="Layer_1" xmlns="http://www.w3.org/2000/svg" xmlns:xlink="http://www.w3.org/1999/xlink" x="0px" y="0px"
	 viewBox="0 0 512 512" style="enable-background:new 0 0 512 512;" xml:space="preserve">
<style type="text/css">
	.st0{fill:#EDF6FF;}
	.st1{fill:#ECDDD8;}
	.st2{fill:#BBC0D9;}
	.st3{fill:#545661;}
	.st4{fill:#717277;}
	.st5{fill:#E3E5EF;}
	.st6{fill:#ECECEC;}
	.st7{fill:#BABABA;}
	.st8{fill:url(#SVGID_1_);}
	.st9{fill:#4051D6;}
	.st10{fill:#D4BCAB;}
	.st11{fill:url(#SVGID_2_);}
	.st12{fill:#4B5ED6;}
	.st13{fill:#B6704D;}
	.st14{fill:#907563;}
	.st15{fill:#0A181D;}
	.st16{fill:#C3886B;}
	.st17{fill:#7B6454;}
	.st18{fill:#1F2C31;}
	.st19{fill:#333333;}
	.st20{fill:#686868;}
	.st21{fill:#E0AD8F;}
	.st22{fill:url(#SVGID_3_);}
	.st23{fill:#4D5159;}
	.st24{fill:#292A2A;}
	.st25{fill:url(#SVGID_4_);}
	.st26{fill:url(#SVGID_5_);}
	.st27{fill:#363A42;}
	.st28{fill:url(#SVGID_6_);}
	.st29{fill:url(#SVGID_7_);}
	.st30{fill:url(#SVGID_8_);}
	.st31{opacity:0.78;}
	.st32{opacity:0.64;}
	.st33{fill:#C7D6F0;}
	.st34{fill:#D9E2FF;}
	.st35{fill:#4065A1;}
	.st36{fill:#D84806;}
	.st37{fill:#6D9F06;}
	.st38{fill:#FFDA06;}
	.st39{fill:url(#SVGID_9_);}
	.st40{fill:#89B8FF;}
	.st41{clip-path:url(#SVGID_12_);}
	.st42{clip-path:url(#SVGID_13_);fill:url(#SVGID_14_);}
	.st43{opacity:0.44;fill:url(#SVGID_15_);enable-background:new    ;}
	.st44{fill:#1B1C1C;}
	.st45{fill:#E0E0E0;}
	.st46{fill:url(#SVGID_16_);}
	.st47{fill:#9FDEE5;}
	.st48{fill:#FEB9B8;}
	.st49{fill:#754942;}
	.st50{fill:#6B3C34;}
	.st51{fill:url(#SVGID_17_);}
	.st52{fill:#66A6FA;}
	.st53{fill:#73AEFB;}
	.st54{fill:#4A4A4A;}
	.st55{fill:#2A2B2B;}
	.st56{fill:#FFFFFF;}
	.st57{fill:#F78D06;}
	.st58{fill:#535354;}
	.st59{fill:#EAEAEA;}
</style>
<g>
	
		<ellipse transform="matrix(5.423422e-03 -1 1 5.423422e-03 -123.9882 632.5446)" class="st0" cx="256" cy="378.6" rx="127.4" ry="220.7"/>
</g>
<g>
	<g>
		<path class="st1" d="M203.4,231.3l-128,73.9l121,69.9c-3.3,1-6.3,2.2-9,3.8c-4.9,2.8-8,6.3-9.5,9.9l-7.3-4.2l-63.9,36.9l50.3,29.1
			l63.9-36.9l-0.3-0.1c6.3-0.8,12.3-2.6,17.2-5.5c2.7-1.6,4.9-3.3,6.5-5.2l60,34.7l128-73.9L203.4,231.3z"/>
		<g>
			<g>
				<path class="st2" d="M212.7,156.9c0-0.9,0.6-2,1.4-2.5c0.4-0.2,0.8-0.3,1-0.1l0,0L421,273.2l-2.1,3.5L213.1,157.8l0,0
					C212.9,157.6,212.7,157.3,212.7,156.9z"/>
				<path class="st2" d="M420,273.2c0.8-0.5,1.4-0.1,1.4,0.8s-0.6,2-1.4,2.5s-1.4,0.1-1.4-0.8S419.2,273.7,420,273.2z"/>
			</g>
			<g>
				<polygon class="st3" points="419.8,349.2 213.6,158.2 214.2,157.6 420.4,348.6 				"/>
			</g>
			<g>
				<polygon class="st2" points="418.5,275.8 215.4,229.5 215.6,228.6 418.6,274.9 				"/>
			</g>
			<g>
				<path class="st4" d="M424.2,257.5h-5.7v103.4l0,0c0,0.4,0.3,0.8,0.8,1.2c1.1,0.6,2.9,0.6,4,0c0.6-0.3,0.8-0.7,0.8-1.2l0,0V257.5
					H424.2z"/>
				<path class="st5" d="M423.4,258.6c-1.1,0.6-2.9,0.6-4,0s-1.1-1.7,0-2.3c1.1-0.6,2.9-0.6,4,0C424.5,257,424.5,258,423.4,258.6z"
					/>
			</g>
			<g>
				<path class="st3" d="M421.4,351.9c0-0.9-0.6-2-1.4-2.5c-0.4-0.2-0.8-0.3-1-0.1l0,0l-120.4,69.5l2.1,3.5L421,352.8l0,0
					C421.3,352.6,421.4,352.3,421.4,351.9z"/>
				<path class="st3" d="M299.6,418.9c-0.8-0.5-1.4-0.1-1.4,0.8s0.6,2,1.4,2.5s1.4,0.1,1.4-0.8C301.1,420.4,300.4,419.3,299.6,418.9
					z"/>
			</g>
			<g>
				<path class="st5" d="M216.6,137.5H211v103.4l0,0c0,0.4,0.3,0.8,0.8,1.2c1.1,0.6,2.9,0.6,4,0c0.6-0.3,0.8-0.7,0.8-1.2l0,0V137.5z
					"/>
				<path class="st5" d="M215.8,138.7c-1.1,0.6-2.9,0.6-4,0s-1.1-1.7,0-2.3s2.9-0.6,4,0C216.9,137,216.9,138,215.8,138.7z"/>
			</g>
			<g>
				<path class="st3" d="M213.8,231.9c0-0.9-0.6-2-1.4-2.5c-0.4-0.2-0.8-0.3-1-0.1l0,0L91,298.8l2.1,3.5l120.3-69.5l0,0
					C213.6,232.7,213.8,232.3,213.8,231.9z"/>
				<path class="st2" d="M92,298.9c-0.8-0.5-1.4-0.1-1.4,0.8s0.6,2,1.4,2.5s1.4,0.1,1.4-0.8S92.8,299.4,92,298.9z"/>
			</g>
			<g>
				<path class="st3" d="M421.4,276.7c0-0.9-0.6-2-1.4-2.5c-0.4-0.2-0.8-0.3-1-0.1l0,0l-120.4,69.5l2.1,3.5L421,277.6l0,0
					C421.3,277.4,421.4,277.1,421.4,276.7z"/>
				<path class="st2" d="M299.6,343.7c-0.8-0.5-1.4-0.1-1.4,0.8s0.6,2,1.4,2.5s1.4,0.1,1.4-0.8C301.1,345.2,300.4,344.1,299.6,343.7
					z"/>
			</g>
			<g>
				<path class="st3" d="M213.8,156.7c0-0.9-0.6-2-1.4-2.5c-0.4-0.2-0.8-0.3-1-0.1l0,0L91,223.6l2.1,3.5l120.3-69.5l0,0
					C213.6,157.5,213.8,157.1,213.8,156.7z"/>
				<path class="st2" d="M92,223.7c-0.8-0.5-1.4-0.1-1.4,0.8c0,0.9,0.6,2,1.4,2.5s1.4,0.1,1.4-0.8C93.5,225.3,92.8,224.2,92,223.7z"
					/>
			</g>
			<g>
				<path class="st4" d="M302.2,328.4h-5.7v103.4l0,0c0,0.4,0.3,0.8,0.8,1.2c1.1,0.6,2.9,0.6,4,0c0.6-0.3,0.8-0.7,0.8-1.2l0,0V328.4
					H302.2z"/>
				<path class="st5" d="M301.4,329.5c-1.1,0.6-2.9,0.6-4,0s-1.1-1.7,0-2.3c1.1-0.6,2.9-0.6,4,0
					C302.5,327.9,302.5,328.9,301.4,329.5z"/>
			</g>
			<g>
				<path class="st4" d="M94.6,208.4h-5.7v103.4l0,0c0,0.4,0.3,0.8,0.8,1.2c1.1,0.6,2.9,0.6,4,0c0.6-0.3,0.8-0.7,0.8-1.2l0,0
					L94.6,208.4L94.6,208.4z"/>
				<path class="st5" d="M93.7,209.6c-1.1,0.6-2.9,0.6-4,0s-1.1-1.7,0-2.3s2.9-0.6,4,0C94.8,207.9,94.8,208.9,93.7,209.6z"/>
			</g>
		</g>
	</g>
	<g>
		<path class="st6" d="M222.2,383.1c0,0.2,0,0.4-0.1,0.6c-1.1,2.2-8.6,4.5-11,3.4c-2.6-1.2-9.6-4.1-12.6-9.3
			c-2.9-5.1-6.9-3.6-8.5-5.2c-0.8-0.8-0.9-1.7-0.8-3c0.2-1.5,0.8-3.3,1.5-5.6c1.4-4.1,5.7-3.5,5.9-3.3l14.1,1.9
			c0,0,3.3,12.7,4.2,13.6C215.9,377,222,380.6,222.2,383.1z"/>
		<path class="st7" d="M190,372.6c0,0,1.7,16.2,2.3,18.2c0.5,2.1,3.1,1.8,3.1,1.8l1.3-14.3l1.1-1.8
			C197.7,376.6,195.2,372.7,190,372.6z"/>
		<path class="st7" d="M222.1,383.7c-1.1,2.2-8.6,4.5-11,3.4c-2.6-1.2-9.6-4.1-12.6-9.3c-2.9-5.1-6.9-3.6-8.5-5.2
			c-0.8-0.8-0.9-1.7-0.8-3c2.8,1.8,7.8,2.7,9.3,3.9c1.9,1.5,4.3,2.8,9.1,9.1C211.2,387.4,218.3,385.3,222.1,383.7z"/>
		
			<linearGradient id="SVGID_1_" gradientUnits="userSpaceOnUse" x1="194.1628" y1="150.8967" x2="211.7442" y2="150.8967" gradientTransform="matrix(1 0 0 -1 0 512)">
			<stop  offset="4.947920e-02" style="stop-color:#FEB9B8"/>
			<stop  offset="0.9922" style="stop-color:#FEA5A4"/>
		</linearGradient>
		<path class="st8" d="M194.2,353.1c0.7,1.9,0.3,6.9,0,9s14.7,6.9,16.5,7c1.8,0.2,0.8-4.2,0.8-4.2l-3-11.3L194.2,353.1z"/>
		<path class="st9" d="M210.7,359.4c-3.1-2.6-8.8-3.5-12.7-3.5c-1.9,0-3.5,0.1-4.2,0.4c-2.2-8.1-7.4-24.2-7.4-26.9
			c0-2.4,14.4-12,18-14.4c0.5-0.3,0.8-0.5,0.8-0.5c0,0.4,0,0.8,0,1.1c0,2.2,0.2,4.7,0.4,7.4C207,337.7,210.7,358.4,210.7,359.4z"/>
		<path class="st10" d="M205.7,323c-0.4,0.7-0.9,1.4-1.5,2.1c-1.9,2.2-3.7,4.6-5.2,7.2c-0.8,1.4-1.6,2.8-2,4.3s-0.5,3-0.6,4.6
			c-0.1,4.2,0.2,8.4,1,12.5c0.1,0.8,0.3,1.5,0.4,2.3c-1.9,0-3.5,0.1-4.2,0.4c-2.2-8.1-7.4-24.2-7.4-26.9c0-2.4,14.4-12,18-14.4
			c0.3,0.1,0.6,0.3,0.9,0.6c0.6,0.6,1,1.4,1.2,2.3C206.8,319.8,206.6,321.5,205.7,323z"/>
		<path class="st9" d="M236,315.8c-0.8,7.4-6,58.8-6.2,59.1c-0.2,0.4-4.8,1.2-4.8,1.2c-0.2,0-4.5-1.4-8.3-2.9
			c-2.9-1.2-5.5-2.5-5.4-3.3c0.4-1.8-0.5-24-1.6-34.8c-1.1-10.7,1.7-15.8,0-22.1c0,0,6.7-7,13.4-13.1c6.1-5.6,12.2-10.5,13.1-8.5
			C238,295.6,236.8,308.4,236,315.8z"/>
		<path class="st10" d="M229.6,306.7c-2.5,2.9-6,4.8-9,7.2c-1.6,1.3-3.2,2.8-4.3,4.5c-1.6,2.5-2.3,5.6-2.5,8.5
			c-0.3,3.9,0,8,1.1,11.8c0.8,2.7,1.9,5.4,2.5,8.1c1.9,8.2-0.5,16.6-0.6,25c0,0.4,0,0.9,0,1.4c-2.9-1.2-5.5-2.5-5.4-3.3
			c0.4-1.8-0.5-24-1.6-34.8c-1.1-10.7,1.7-15.8,0-22.1c0,0,6.7-7,13.4-13.1c0.4,0,0.8,0,1.2,0C228,300,232.9,302.8,229.6,306.7z"/>
		
			<linearGradient id="SVGID_2_" gradientUnits="userSpaceOnUse" x1="209.0948" y1="133.6031" x2="227.9203" y2="133.6031" gradientTransform="matrix(1 0 0 -1 0 512)">
			<stop  offset="4.947920e-02" style="stop-color:#FEB9B8"/>
			<stop  offset="0.9922" style="stop-color:#FEA5A4"/>
		</linearGradient>
		<path class="st11" d="M227.3,374c0,0,0.6,13.4,0.6,14.9s-6.6-4.4-10-6.4s-9.8-5.4-8.7-6.3c1.2-0.9,4.1-6.2,4.3-8.2
			C213.8,365.9,227.3,374,227.3,374z"/>
		<path class="st6" d="M233.4,399.8c-2.3,1.2-8.6,4.6-13.7,1.3c-5.1-3.3-4.2-7.6-5.2-10.9c-1.1-3.3-8.8-5.7-8.8-8.7
			c0-0.3,0-0.6,0.1-0.9c0.3-2.9,2.1-6.1,4.4-7.3c2.5-1.4,6.8,1.3,6.8,1.3l10.3,8.9c0,0,2.6,6,3.2,6.2c0.5,0.2,3.7-0.2,5.7,2.9
			c0.4,0.6,0.6,1.3,0.7,1.9C237,396.8,235.2,398.8,233.4,399.8z"/>
		<path class="st7" d="M205.8,382.1c0,0,0.9,17.6,1.5,18.9s2.7,1.1,2.7,1.1l1.7-0.5l0.7-14C212.4,387.6,207.6,382.8,205.8,382.1z"/>
		<path class="st7" d="M233.4,399.8c-2.3,1.2-8.6,4.6-13.7,1.3c-5.1-3.3-4.2-7.6-5.2-10.9c-1.1-3.3-8.8-5.7-8.8-8.7
			c0-0.3,0-0.6,0.1-0.9c0.9,0.9,6.7,4.7,6.7,4.7s8.1,4.6,8.4,7.5c0.4,2.9,3,7.5,7,7.5s8-4.1,8.8-5.7
			C237,396.8,235.2,398.8,233.4,399.8z"/>
		<path class="st12" d="M225.4,314.9c-2.3,3.9-3.3,8.4-3.6,12.9s0,9,0.2,13.5c0.2,6.2,0.1,12.3,0,18.5c-0.1,3-0.1,6-0.9,8.9
			c2.3,0.7,4.5,1.7,6.6,2.8c0.1-4.9,1-9.6,1.7-14.4c0.3-2.4,0.7-4.8,0.9-7.2c0.5-5.7,0.4-11.4,1.1-17c1-8.6,3.6-17.1,3.3-25.7
			c-1.2-0.2-3.5,1.4-4.4,2.2C228.3,310.8,226.6,312.7,225.4,314.9z"/>
	</g>
	<g>
		<g>
			<g>
				<path class="st13" d="M173.7,389.1l-9.8-74.3c0.1,0.8-0.3,1.6-1.2,2.2c-1.4,0.9-3.3,0.8-4.4-0.2c-0.3-0.3-0.5-0.7-0.6-1
					l13.5,73.7c0,0.2,0.1,0.3,0.2,0.4c0.4,0.4,1.2,0.4,1.7,0.1C173.6,389.8,173.8,389.4,173.7,389.1z"/>
				<g>
					<path class="st14" d="M162.7,317c-1.4,0.9-3.3,0.8-4.4-0.2c-1-1-0.7-2.5,0.6-3.3c1.4-0.9,3.3-0.8,4.4,0.2
						C164.3,314.7,164,316.2,162.7,317z"/>
				</g>
			</g>
			<g>
				<path class="st15" d="M124.6,343.7l22.4,10.2l17.8-19.5l16.3,19.2l15.4-11.9l9.6,43L181,355.2l-12.4,9.7l-21.2-9.6L118,387.5
					L124.6,343.7z M125.5,345.3l-6,38.6l26.7-29.2L125.5,345.3z M181.8,354.4l22.1,26l-8.2-36.8L181.8,354.4z M164.8,336.1
					l-16.7,18.2l20.2,9.2l11.9-9.2L164.8,336.1z"/>
			</g>
			<g>
				<path class="st16" d="M213.1,411.8l-15.5-73.3c0.2,0.8-0.2,1.6-1.1,2.3c-1.3,1-3.3,1-4.4,0.2c-0.4-0.3-0.6-0.6-0.7-1l19.1,72.4
					c0,0.1,0.1,0.3,0.3,0.4c0.4,0.4,1.2,0.3,1.7-0.1C213,412.4,213.2,412.1,213.1,411.8z"/>
				<g>
					<path class="st14" d="M196.5,340.7c-1.3,1-3.3,1-4.4,0.2c-1.1-0.9-0.9-2.4,0.4-3.4c1.3-1,3.3-1,4.4-0.2
						C198,338.2,197.9,339.7,196.5,340.7z"/>
				</g>
			</g>
			<g>
				<path class="st13" d="M132,318.4c-1.1,0.3-3.1,0.1-4.4-0.5c-0.7-0.3-1.1-0.7-1-1l-14.4,104c0,0.1,0.1,0.3,0.4,0.4
					c0.5,0.2,1.3,0.3,1.8,0.2c0.2,0,0.3-0.1,0.3-0.2l18.2-103.4C132.7,318.1,132.5,318.3,132,318.4z"/>
				<g>
					<path class="st17" d="M132,318.4c-1.1,0.3-3.1,0.1-4.4-0.5c-1.3-0.6-1.4-1.3-0.2-1.6c1.1-0.3,3.1-0.1,4.4,0.5
						C133,317.4,133.1,318.2,132,318.4z"/>
				</g>
			</g>
			<g>
				<polygon class="st18" points="155.6,409.8 156.1,409 196.6,344.8 195.6,344.2 155.7,407.5 125.6,346.7 124.6,347.2 				"/>
			</g>
			<g>
				<path class="st16" d="M158.8,341.5c-1.1,0.5-3.1,0.5-4.4,0.2c-0.8-0.2-1.2-0.5-1.2-0.8l1.6,104.9c0,0.1,0.2,0.3,0.5,0.3
					c0.5,0.2,1.3,0.1,1.8-0.1c0.2-0.1,0.3-0.2,0.3-0.3l2.2-104.9C159.5,341,159.3,341.3,158.8,341.5z"/>
				<g>
					<path class="st17" d="M158.8,341.5c-1.1,0.5-3.1,0.5-4.4,0.2c-1.4-0.4-1.6-1.1-0.5-1.5c1.1-0.5,3.1-0.5,4.4-0.2
						C159.7,340.3,159.9,341,158.8,341.5z"/>
				</g>
			</g>
			<g>
				<polygon class="st18" points="119.1,389.5 156.5,357.1 204.1,382.4 204.6,381.4 156.3,355.7 118.3,388.6 				"/>
			</g>
			<g>
				<path class="st19" d="M213.2,331.2c-10.9,8-32.6,24.3-44.6,25.9c-0.3,0-0.6,0.1-1.1,0.1l0,0c-2.9,0.1-13.7,2.8-18.8-9.8
					c-3-7.3-22.4-0.9-24-7.4c-0.8-3.4-2.2-6.7-4-9.6c-3-4.9,7.5-10.2,2.5-13.2l16.3-11.3c3.7-2.5,7.1-4.9,10-7
					c5.4-3.9,12.6-4.3,18.4-1l44.7,23.6C216.2,323.6,216.5,328.7,213.2,331.2z"/>
				<path class="st20" d="M213.2,330.2c-10.9,8-32,22.5-43.9,24.1c-0.3,0-0.6,0.1-1.1,0.1l0,0c-2.9,0.1-13.7,2.8-18.8-9.8
					c-3-7.3-22.4-0.9-24-7.4c-0.8-3.4-2.2-6.7-4-9.6c-3-4.9,7.5-10.2,2.5-13.2l16.3-11.3c3.7-2.5,7.1-4.9,10-7
					c5.4-3.9,12.6-4.3,18.4-1l44.1,25.4C216.2,322.6,216.5,327.7,213.2,330.2z"/>
			</g>
		</g>
	</g>
	<g>
		<path class="st9" d="M132.9,326.6c-2,11.3,3.4,20.3,19.7,22.1c16.2,1.8,26.7-1.2,35.9-7.8c9.1-6.6,27-25,33.2-29.1
			c6.1-4.2,13.8-7.9,14.7-14s-0.6-12.3-7.5-14.6c-6.9-2.3-13.7,1.1-19.3,3.3c-5.6,2.3-44.4,21.3-44.4,21.3L132.9,326.6z"/>
		<path class="st9" d="M115.8,314.5c0.1,9.9,2.7,19.8,13.5,24.1c10.9,4.3,17.4,4.9,17.4,4.9s30.2-33.5,35.3-36.9s24.5-8.4,24.5-16.2
			c0.1-7.9-2.3-18.1-9.7-18.4s-37,7.5-37,7.5L115.8,314.5z"/>
		<path class="st12" d="M209.6,289.2c-2.7,1.3-5.3,2.6-8,4c-3.1,1.6-6.1,3.4-9.1,5.1c-2.2,1.3-4.6,2.8-5.7,5.2
			c-0.1,0.3-0.2,0.6-0.2,0.9c0,0.6,0.4,1,0.7,1.5c1.1,1.6,1.9,3.4,2.1,5.3c0.3,2.7-0.3,5.4-0.3,8.2c0,0.2,0,0.4,0.2,0.6
			c0.1,0.1,0.3,0.2,0.5,0.2c1.5,0.2,3-0.5,4.3-1.2c6-3.3,11.6-7.4,17.2-11.5c5.6-4.1,11.1-8.1,16.4-12.6c1-0.8,2-1.7,2.3-2.9
			c1-3.7-2.6-7.2-6.2-6.8C218.6,285.8,214.2,287,209.6,289.2z"/>
		<path class="st12" d="M167.7,282.7c1.6-1.3,3.4-2.9,5.4-3.6c1.3-0.4,2.6-0.8,3.9-1.2c3.6-1,24.6-7.5,23.9,1
			c-0.2,1.9-2.4,2.7-3.8,3.4c-5.6,2.8-11.2,5.6-16.8,8.5c-3.2,1.6-6.4,3.2-9.6,4.8c-0.4,0.2-0.8,0.4-1.2,0.3c-0.8-0.1-1.2-1-1.4-1.7
			c-0.6-2.7-0.1-5.6-1-8.2c-0.2-0.6-0.5-1.2-0.4-1.8C166.6,283.6,167.1,283.1,167.7,282.7z"/>
	</g>
	<g>
		<polygon class="st16" points="68.3,199.9 301.8,334.7 301.8,341.7 68.3,206.9 		"/>
		<polygon class="st21" points="203.4,122 436.8,256.8 301.8,334.7 68.3,199.9 		"/>
		<polygon class="st16" points="436.8,256.8 301.8,334.7 301.8,341.7 436.8,263.7 		"/>
	</g>
	<g>
		
			<linearGradient id="SVGID_3_" gradientUnits="userSpaceOnUse" x1="190.3665" y1="370.9" x2="214.2665" y2="370.9" gradientTransform="matrix(1 0 0 -1 0 512)">
			<stop  offset="0.2746" style="stop-color:#363A42"/>
			<stop  offset="1" style="stop-color:#5A5C63"/>
		</linearGradient>
		<path class="st22" d="M214.3,140.1h-0.1c-0.4-1.4-1.5-2.8-3.3-3.9c-4.7-2.7-12.2-2.7-16.9,0c-1.9,1.1-3,2.5-3.4,3.9h-0.1v1l0,0
			c0,1.8,1.1,3.5,3.5,4.9c4.7,2.7,12.2,2.7,16.9,0c2.3-1.4,3.5-3.1,3.5-4.9l0,0L214.3,140.1L214.3,140.1z"/>
		<path class="st23" d="M193.8,145c4.7,2.7,12.2,2.7,16.9,0s4.7-7.1,0.1-9.8c-4.7-2.7-12.2-2.7-16.9,0S189.2,142.3,193.8,145z"/>
		<g>
			<path class="st24" d="M201.1,75.7c0.7,0.4,1.7,0.4,2.4,0s0.7-1,0-1.4s-1.7-0.4-2.4,0C200.5,74.7,200.5,75.3,201.1,75.7z"/>
			
				<linearGradient id="SVGID_4_" gradientUnits="userSpaceOnUse" x1="200.638" y1="403.95" x2="203.9879" y2="403.95" gradientTransform="matrix(1 0 0 -1 0 512)">
				<stop  offset="0.2746" style="stop-color:#363A42"/>
				<stop  offset="1" style="stop-color:#5A5C63"/>
			</linearGradient>
			<path class="st25" d="M204,75h-3.3v65.1l0,0c0,0.2,0.2,0.5,0.5,0.7c0.7,0.4,1.7,0.4,2.4,0c0.3-0.2,0.5-0.4,0.5-0.7l0,0L204,75
				L204,75z"/>
		</g>
		<g>
			
				<linearGradient id="SVGID_5_" gradientUnits="userSpaceOnUse" x1="202.8048" y1="442.9851" x2="204.6308" y2="431.4569" gradientTransform="matrix(1 0 0 -1 0 512)">
				<stop  offset="0" style="stop-color:#5A5C63"/>
				<stop  offset="0.7254" style="stop-color:#363A42"/>
			</linearGradient>
			<path class="st26" d="M212.2,70c-0.7-1-1.6-1.4-2.4-1.3l0,0l-16.2,1.8l1.2,10.8l16.1-1.8l0,0c0.8-0.1,1.5-0.7,2-1.8
				C214,75.4,213.6,72,212.2,70z"/>
			<path class="st27" d="M196,71.8c1.4,2,1.8,5.4,0.8,7.7c-1,2.3-3,2.5-4.4,0.5s-1.8-5.4-0.8-7.7C192.6,70,194.6,69.8,196,71.8z"/>
		</g>
	</g>
	<g>
		
			<linearGradient id="SVGID_6_" gradientUnits="userSpaceOnUse" x1="387.8317" y1="256.4" x2="411.7317" y2="256.4" gradientTransform="matrix(1 0 0 -1 0 512)">
			<stop  offset="0.2746" style="stop-color:#363A42"/>
			<stop  offset="1" style="stop-color:#5A5C63"/>
		</linearGradient>
		<path class="st28" d="M411.7,254.6h-0.1c-0.4-1.4-1.5-2.8-3.3-3.9c-4.7-2.7-12.2-2.7-16.9,0c-1.9,1.1-3,2.5-3.4,3.9h-0.1v1l0,0
			c0,1.8,1.1,3.5,3.5,4.9c4.7,2.7,12.2,2.7,16.9,0c2.3-1.4,3.5-3.1,3.5-4.9l0,0v-1H411.7z"/>
		<path class="st23" d="M391.3,259.5c4.7,2.7,12.2,2.7,16.9,0c4.7-2.7,4.7-7.1,0.1-9.8c-4.7-2.7-12.2-2.7-16.9,0
			S386.7,256.8,391.3,259.5z"/>
		<g>
			<path class="st24" d="M398.6,190.2c0.7,0.4,1.7,0.4,2.4,0c0.7-0.4,0.7-1,0-1.4s-1.7-0.4-2.4,0
				C397.9,189.2,397.9,189.8,398.6,190.2z"/>
			
				<linearGradient id="SVGID_7_" gradientUnits="userSpaceOnUse" x1="398.1" y1="289.45" x2="401.4501" y2="289.45" gradientTransform="matrix(1 0 0 -1 0 512)">
				<stop  offset="0.2746" style="stop-color:#363A42"/>
				<stop  offset="1" style="stop-color:#5A5C63"/>
			</linearGradient>
			<path class="st29" d="M401.5,189.5h-3.4v65.1l0,0c0,0.2,0.2,0.5,0.5,0.7c0.7,0.4,1.7,0.4,2.4,0c0.3-0.2,0.5-0.4,0.5-0.7l0,0
				V189.5z"/>
		</g>
		<g>
			
				<linearGradient id="SVGID_8_" gradientUnits="userSpaceOnUse" x1="400.2943" y1="328.4727" x2="402.1202" y2="316.9445" gradientTransform="matrix(1 0 0 -1 0 512)">
				<stop  offset="0" style="stop-color:#5A5C63"/>
				<stop  offset="0.7254" style="stop-color:#363A42"/>
			</linearGradient>
			<path class="st30" d="M409.7,184.6c-0.7-1-1.6-1.4-2.4-1.3l0,0l-16.2,1.8l1.2,10.8l16.1-1.8l0,0c0.8-0.1,1.5-0.7,2-1.8
				C411.5,190,411.1,186.5,409.7,184.6z"/>
			<path class="st27" d="M393.5,186.3c1.4,2,1.8,5.4,0.8,7.7s-3,2.5-4.4,0.5s-1.8-5.4-0.8-7.7C390.1,184.6,392.1,184.3,393.5,186.3z
				"/>
		</g>
	</g>
	<g class="st31">
		<g class="st32">
			<polygon class="st33" points="176.2,109.8 121.5,117.1 118.6,64.2 173.3,56.9 			"/>
			<path class="st34" d="M120.6,118.2l-3-54.8l56.7-7.5l3,54.8L120.6,118.2z M119.6,65l2.8,50.9l52.9-7L172.4,58L119.6,65z"/>
		</g>
		<path class="st35" d="M146.1,81c2.7,5.2,0.4,12.2-5.2,15.6c-5.6,3.5-12.4,2.1-15.1-3.1c-2.7-5.2-0.4-12.2,5.2-15.6
			C136.6,74.4,143.4,75.8,146.1,81z"/>
		
			<ellipse transform="matrix(0.7121 -0.7021 0.7021 0.7121 -7.4903 131.2798)" class="st36" cx="156.3" cy="74.8" rx="12" ry="10.5"/>
		<path class="st37" d="M165,90.8c2.7,5.2,0.4,12.2-5.2,15.6c-5.6,3.5-12.4,2.1-15.1-3.1c-2.7-5.2-0.4-12.2,5.2-15.6
			C155.5,84.2,162.3,85.6,165,90.8z"/>
		<path class="st38" d="M162.1,79.7c3.3,6.6,0.2,15.3-6.9,19.5c-7.1,4.2-15.5,2.3-18.8-4.3c-3.3-6.6-0.2-15.3,6.9-19.5
			C150.4,71.3,158.8,73.2,162.1,79.7z"/>
	</g>
	<g class="st31">
		<g class="st32">
			<path class="st33" d="M223.8,139.1c85.8,13.8,153.4,88.5,153.4,88.5l-2.2-132c0,0-37.7-68.5-153.4-88.5L223.8,139.1L223.8,139.1
				L223.8,139.1z"/>
			<path class="st34" d="M378.1,230.2l-1.7-1.9c-0.7-0.7-68.4-74.7-152.8-88.2l-0.8-0.1v-0.8L220.6,6l1.1,0.2
				c114.7,19.9,153.7,88.3,154,89l0.1,0.4L378.1,230.2z M224.7,138.3c77.3,12.8,140.4,75.4,151.4,86.9L374,95.9
				c-2.4-4.1-41.6-68.3-151.4-87.7L224.7,138.3z"/>
		</g>
		<g>
			<path class="st38" d="M355.7,184.4c-1.9-12.3-10.7-23.4-22.4-28.3c-1.6-0.7-3.6-1.3-5.7-2c-6.7-2.2-14.4-4.7-18.4-11
				c-3.4-5.4-4.8-11.4-3.9-16.6c0.8-4.6,2.9-8.4,4.9-12c1.4-2.5,2.6-4.8,3.4-7.3c0.8-2.6,0-5.8-2-7.6c-2.4-2.2-5.2-1.9-9.9-1.2
				l-0.6,0.1c-3.5,0.5-6.9,1.8-10.5,3.2c-1.8,0.7-3.7,1.4-5.6,2c-7.2,2.3-14.4,1.9-20.4-1.2c-5.6-3-9.7-8-11.6-14.5
				c-2.6-8.8-3.7-17.8-3.3-26.9l7.6,0.4c-0.4,8.3,0.6,16.5,3,24.4c1.4,4.5,4.1,8,7.8,10c4.1,2.2,9.3,2.4,14.5,0.7
				c1.8-0.6,3.5-1.2,5.2-1.9c3.8-1.5,7.8-3,12.2-3.6l0.6-0.1c4.9-0.7,11-1.6,16.1,3.2c4.2,3.9,5.9,10.2,4.1,15.6
				c-1,3.1-2.5,5.9-4,8.6c-1.8,3.3-3.5,6.4-4.1,9.7s0.5,7.4,2.8,11.1c2.5,4,8.8,6,14.3,7.8c2.2,0.7,4.3,1.4,6.2,2.2
				c14.1,5.9,24.7,19.3,27,34.2L355.7,184.4z"/>
		</g>
	</g>
	<g>
		<g>
			<g>
				
					<linearGradient id="SVGID_9_" gradientUnits="userSpaceOnUse" x1="136.7046" y1="313.7077" x2="210.4531" y2="313.7077" gradientTransform="matrix(1 0 0 -1 0 512)">
					<stop  offset="4.947920e-02" style="stop-color:#FEB9B8"/>
					<stop  offset="0.9922" style="stop-color:#FEA5A4"/>
				</linearGradient>
				<path class="st39" d="M210.5,176.6c0,0.3-0.1,0.6-0.3,0.8c-0.4,0.5-1,0.6-1,0.6s0,0,0,0.1c0.1,0.4,0.2,1.7,0,2.2
					c-0.1,0.2-0.2,0.3-0.3,0.5l0,0c-0.1,0.2-0.2,0.3-0.3,0.4l0,0c-0.2,0.3-0.4,0.6-0.4,0.6s0.4,0.9,0.5,1.6v0.1c0,0.1,0,0.2-0.1,0.3
					c-0.3,0.6-1.7,1.3-1.7,1.3s0.5,1.8-0.6,2.3c-0.6,0.3-1.7,0.5-2.6,0.6c-0.8,0.1-1.4,0.1-1.4,0.1s-1.3,1.3-1.7,1.5
					c-0.3,0.2-3.3,2.1-4.3,2.5c-1.1,0.4-2.3,0.2-3.8,1c-1.4,0.9-21,24-23.5,26.4s-7.6,4.2-11.4,5.7c0,0,0,0-0.1,0
					c-1.8-0.4-22-5.3-20.9-9.7c0.7-2.9,5.9-3.6,10-3.8c2.6-0.1,4.9-0.1,5.2-0.3c1-0.5,10.2-7.6,16.1-11.9c5.8-4.2,21.7-17.2,23-18
					c0.7-0.4,1.3-1.4,1.8-2.4l0,0c0.5-1,0.9-2.1,1.3-2.8c0.7-1.3,3.2-3.6,3.8-4.1c0.5-0.5,4.9-0.9,5.6-0.8c0.8,0,3.5,0.8,4.2,1.2
					l0,0c0.3,0.2,0.5,0.5,0.6,0.9c0.3,0.7,0.4,1.4,0.4,1.4S209.7,175.6,210.5,176.6z"/>
				<path class="st10" d="M159.3,206.8c-3.1,2.2-5.9,4.7-8.7,7.3c-0.6,0.6-1.3,1.1-1.9,1.7c-0.3,0.3-0.6,0.5-1,0.7
					c-0.4,0.1-0.9,0-1.1-0.3c-0.1-0.1-0.1-0.3-0.2-0.5c-0.3-1.3-0.1-2.7,0.3-3.9c2.6-0.1,4.9-0.1,5.2-0.3c1-0.5,10.2-7.6,16.1-11.9
					c5.8-4.2,21.7-17.2,23-18c0.7-0.4,1.3-1.4,1.8-2.4c0,0.4-0.1,0.8-0.3,1.2c-0.5,1.2-1.7,2.1-2.8,2.9c-3.7,2.8-7.4,5.5-11.1,8.3
					c-1.8,1.4-3.6,2.9-5.4,4.5c-1.5,1.4-3.4,2.3-5,3.6c-1,0.9-1.9,1.8-2.9,2.6C163.6,204,161.4,205.3,159.3,206.8z"/>
				<path class="st10" d="M200.6,174.1c-0.8,0.5-1.6,1.1-2.6,1.1c2.4-2.7,6.5-3.5,9.7-2c0-0.1,0.1-0.3,0.1-0.4
					c0.3,0.2,0.5,0.5,0.6,0.9c-0.7-0.1-1.4-0.3-2.1-0.4C204.4,172.9,202.3,173.2,200.6,174.1z"/>
				<path class="st10" d="M209.2,178C209.2,178,209.2,178.1,209.2,178c-0.7,0.2-1.5,0.3-2.2,0.4c-0.8,0.2-1.5,0.5-2.3,0.7
					s-1.6,0.3-2.4,0.1c-0.1,0-0.2-0.1-0.3,0c-0.1,0-0.1,0.1-0.2,0.2c-0.3,0.4-0.5,1-0.5,1.5s0.3,1,0.8,1.2c0.4,0.1,0.8,0,1.2,0
					c1.5-0.3,2.9-0.6,4.4-0.9c0.5-0.1,0.9-0.2,1.4-0.4c-0.1,0.2-0.2,0.3-0.3,0.4l0,0c-0.9,0.5-1.9,0.9-2.9,1.1
					c-1.6,0.3-3.3,0.1-5-0.1c-0.3,0.9-0.3,2,0,3c2.7-0.1,5.6-0.3,7.9-1.7v0.1c-0.8,0.8-1.9,1.3-3,1.5c-1.2,0.3-2.5,0.3-3.8,0.3
					c-0.4,0-1,0-1.3,0.3c-0.4,0.4-0.3,1.2,0.2,1.7c0.5,0.4,1.1,0.5,1.7,0.6c0.4,0,0.8,0.1,1.2,0.1c-0.8,0.1-1.4,0.1-1.4,0.1
					s-1.3,1.3-1.7,1.5c-0.3,0.2-3.3,2.1-4.3,2.5c-1.1,0.4-2.3,0.2-3.8,1c-1.4,0.9-21,24-23.5,26.4s-7.6,4.2-11.4,5.7c0,0,0,0-0.1,0
					c0.8-0.7,2-1.1,2.8-1.5c1.4-0.8,2.8-1.6,4.1-2.6c1.6-1.2,3-2.6,4.5-3.8s3.2-2.2,4.5-3.6c1.2-1.2,2-2.7,3.1-4
					c1.7-2.2,3.9-3.9,5.7-5.9c1.4-1.5,2.6-3.2,4-4.7c3.1-3.5,6.9-6.7,8.3-11.2c-0.2,1.1-0.3,2.4,0.5,3c0.7,0.5,1.6,0.4,2.4,0.1
					c1.1-0.4,2.1-1.1,2.8-1.9c0.1-0.1,0.1-0.3,0.2-0.5c-0.6-0.3-1.2-0.7-1.6-1.2c-0.3-0.3-0.7-0.8-0.6-1.3c0-0.4,0.3-0.8,0.5-1.1
					c0.7-1.1,1.3-2.2,1.6-3.5c0.3-1.1,0.5-2.3,1.1-3.3c0.1-0.1,0.1-0.2,0.2-0.3c0.1-0.1,0.2-0.1,0.4-0.1c1.3-0.2,2.5-0.7,3.6-1.4
					c0.7,0.5,1.4,1,2.2,1.2c0.7,0.2,1.4,0.1,2.1-0.2C209.8,177.9,209.2,178,209.2,178z"/>
				<path class="st40" d="M183.1,326.5c-0.5,2.7-2,3.5-4.4,5.7c-4.9,4.4-12.4,6.4-21.1,6.3c-13.1-0.1-34.9-6.1-42.2-18.2
					c-4.1-6.9,2.8-29.1,4.3-36.5c1.4-7.4-3.9-22.9-6.7-33.7c-2.8-10.8-4.3-17.7-4.1-26c0.2-8.2,2.9-16.5,6.2-18.2
					c3.3-1.7,11.6-1.1,15.7-1.2c0.2,6.2,18.1,14.1,18.1,14.1s2,0.6,3.5,1s5.6,1.5,11.7,2.2c3.3,0.4,7.8,9,11.2,17.4
					c2.8,6.9,5,13.6,5.4,15.6c0.8,4.5-4.4,35.1-4.4,40.8C176.1,301.4,184.6,318.4,183.1,326.5z"/>
				<g>
					<g>
						<g>
							<defs>
								<polygon id="SVGID_10_" points="1,1 2,1 1,2 								"/>
							</defs>
							<defs>
								<polygon id="SVGID_11_" points="-1,-1 -2,-1 -1,-2 								"/>
							</defs>
							<clipPath id="SVGID_12_">
								<use xlink:href="#SVGID_10_"  style="overflow:visible;"/>
							</clipPath>
							<clipPath id="SVGID_13_" class="st41">
								<use xlink:href="#SVGID_11_"  style="overflow:visible;"/>
							</clipPath>
							
								<linearGradient id="SVGID_14_" gradientUnits="userSpaceOnUse" x1="248.9732" y1="297.9406" x2="297.1701" y2="381.4202" gradientTransform="matrix(1 0 0 -1 0 512)">
								<stop  offset="7.297300e-02" style="stop-color:#FFFFFF"/>
								<stop  offset="0.1538" style="stop-color:#F3F3F3"/>
								<stop  offset="0.2987" style="stop-color:#D4D4D4"/>
								<stop  offset="0.4911" style="stop-color:#A2A2A2"/>
								<stop  offset="0.7237" style="stop-color:#5C5C5C"/>
								<stop  offset="0.9879" style="stop-color:#040404"/>
								<stop  offset="1" style="stop-color:#000000"/>
							</linearGradient>
							<polygon class="st42" points="154.7,161.7 209.8,80 390.6,184.4 175,173.4 							"/>
						</g>
					</g>
					
						<linearGradient id="SVGID_15_" gradientUnits="userSpaceOnUse" x1="248.9732" y1="297.9406" x2="297.1701" y2="381.4202" gradientTransform="matrix(1 0 0 -1 0 512)">
						<stop  offset="7.297300e-02" style="stop-color:#4BB0C1"/>
						<stop  offset="0.8715" style="stop-color:#57B9C8"/>
						<stop  offset="1" style="stop-color:#59BBCA"/>
					</linearGradient>
					<polygon class="st43" points="154.7,161.7 209.8,80 390.6,184.4 175,173.4 					"/>
					<path class="st44" d="M172.8,168.3c0,0-8.4-5.6-23.8-6.6c-0.5-0.1-1-0.1-1.3,0.1l-7.1,4.7c0.4-0.2,0.8-0.3,1.3-0.1
						c10.8,0.8,23.8,6.6,23.8,6.6c1.3,0.3,2.3,1.7,2.4,3l0.6,12.7c0,0.8-0.3,1.4-0.8,1.7l7.1-4.7c0.5-0.3,0.8-0.9,0.8-1.7l-0.6-12.7
						C175.1,170,174.1,168.6,172.8,168.3z"/>
					<g>
						<path class="st45" d="M165.7,172.9c1.3,0.3,2.3,1.7,2.4,3l0.6,12.7c0.1,1.3-0.9,2.1-2.1,1.8c0,0-14.8-9.9-23.8-10.5
							c-1.3-0.1-2.3-1.7-2.4-3l-0.6-8.8c-0.1-1.3,1-2.4,2.1-1.8C149.1,170.6,165.7,172.9,165.7,172.9z"/>
					</g>
				</g>
				
					<linearGradient id="SVGID_16_" gradientUnits="userSpaceOnUse" x1="124.5959" y1="320.6783" x2="164.5657" y2="320.6783" gradientTransform="matrix(1 0 0 -1 0 512)">
					<stop  offset="4.947920e-02" style="stop-color:#FEB9B8"/>
					<stop  offset="0.9922" style="stop-color:#FEA5A4"/>
				</linearGradient>
				<path class="st46" d="M129.6,195.7c-0.3,5.5-2.5,13.1-4.3,15.1c-1.7,2-1.1,6.6,7.9,8.8c9.1,2.2,14.7-0.1,16.8,0
					c2.2,0.1,2.2,0.4,2.2,0.4s-0.6-7.8-0.4-11.8c0.2-4,0.4-3.2,0.4-3.2s3.9-0.2,7-3.6c3.1-3.4,5-12.3,5.2-14.6
					c0.2-2.2-0.6-8.1-0.4-10.9c0.2-2.8-0.6-13.1-4.8-13.8C155.1,161.4,130,190.1,129.6,195.7z"/>
				<path class="st47" d="M183.1,326.5c-0.5,2.7-2,3.5-4.4,5.7c0-4.3-0.2-6.8-0.2-11c0-3.8-3.8-10.5-3.9-14.4
					c-0.3-9.7,0.2-13.7,0.8-23.5c0.4-6.4,4.2-15.7,0.7-21.1c-2.8-4.4-12.7-7-12.2-13.1c0.4-4.6,6.2-8.3,11.4-9.8
					c2.8,6.9,5,13.6,5.4,15.6c0.8,4.5-4.4,35.1-4.4,40.8C176.1,301.4,184.6,318.4,183.1,326.5z"/>
				<path class="st48" d="M158.3,219c1.3,0,2.6-0.6,3.7-1.2c7.3-3.9,13.5-9.5,19.1-15.6c3.5-3.8,6.9-7.9,8.8-12.7
					c0.2-0.5,0.4-1.2-0.1-1.5c-0.5-0.4-1.9-0.5-2.5-0.4c-1.8,0.1-3,1.6-4.3,2.6c-0.9,0.7-1.9,1.2-2.8,1.9c-0.9,0.7-1.7,1.5-2.5,2.2
					c-1.9,1.6-3.9,3.2-5.8,4.8c-3.9,3.2-7.7,6.4-11.6,9.5c-0.4,0.3-0.8,0.6-1.2,1c-1.5,1.2-2.9,2.4-4.2,3.8
					c-0.5,0.5-1.1,1.1-1.2,1.8c-0.2,1.3,0,2.1,1.1,2.8C155.8,218.6,157,219,158.3,219z"/>
				<path class="st10" d="M133.9,199.9c3.9,4,0.7,7.9,1.5,12.6c1.4,7.8,2.2,15.8,0.9,23.6c-1.1,6.4-1.8,13.4-0.8,20
					c0.7,4.5,1.2,9.8-1.9,13.6c-1.3,1.6-2.9,2.8-4.6,3.9c-0.3,0.2-0.8,0.5-1.1,0.3c0.8-2.2,1.7-5.1,1.5-7.4
					c-0.1-1.9-1.1-3.8-1.5-5.6c-1.2-4.8-2.2-9.7-3.2-14.6c-1.2-6.1-2.5-12.2-3.7-18.3c-1-4.8-2-9.9-0.8-14.6c0.7-2.7,2-5.2,3.4-7.7
					c1.4-2.6,3-5.3,5.5-6.8c2.6-1.5,6.4-1.1,7.8,1.5L133.9,199.9z"/>
				<path class="st49" d="M157.3,190.8c0,0-0.1-4.5-1.8-4.8s-4.5,1.6-5.9,5.2c-1.4,3.6-5.3,9.7-8.3,11.7s-8.2,0.2-10.5,1.9
					s-6.1,0.9-6.6-2.7c-0.5-3.5-3.6-12.7-4.9-17.7s-1.7-18.5,8-25.7s18.9-3.4,18.9-3.4s13.9-0.4,15.3,9.5c1.3,9.9-2,13.1-2.6,15.5
					s0.2,2.5,0,5.3C158.5,188.4,157.3,190.8,157.3,190.8z"/>
				<path class="st48" d="M154,193c-0.6-2.2,0.9-4.9,0.2-5.8c-0.8-1-3.1-0.2-3.5,3.1c-0.5,3.2,1.3,4.3,1.6,5.3
					c0.2,1,1.4,0.9,1.8,0.4C154.3,195.3,154.3,194.1,154,193z"/>
				<path class="st50" d="M124,201.5c-1.3,2.3-5.1,1-8.3,13.2c-3.2,12.3,1.2,32.8,6.5,44.5c5.3,11.6,4.7,20,4.7,20s5.9-6.3,6-14.9
					s-3.9-30-2.4-39.6c1.4-9.7-3.5-22.1-3.5-22.1L124,201.5z"/>
				
					<linearGradient id="SVGID_17_" gradientUnits="userSpaceOnUse" x1="187.2221" y1="303.1197" x2="261.3696" y2="303.1197" gradientTransform="matrix(1 0 0 -1 0 512)">
					<stop  offset="4.947920e-02" style="stop-color:#FEB9B8"/>
					<stop  offset="0.9922" style="stop-color:#FEA5A4"/>
				</linearGradient>
				<path class="st51" d="M261.4,174.8c-0.1,0.2-0.3,0.4-0.4,0.6l0,0c-0.4,0.4-0.9,0.6-0.8,1.1c0,0.2,0,0.5,0,0.8
					c0,0.6-0.1,1.4-0.2,2.1c0,0.1,0,0.3-0.1,0.4c-0.1,0.2-0.1,0.5-0.1,0.8c0,0.8,0.2,1.6,0.2,2.1c0,0.6-0.6,1.8-1.1,2.8
					s0,1.2-0.9,2.6c-0.2,0.2-0.4,0.4-0.6,0.6c-1.2,0.9-3.2,1.3-4.2,1.5c-1.3,0.3-2.9-0.4-3.9,0s-5.8,10.4-9.4,18.7
					c-3.5,8.3-10.1,18.4-13.7,21.9c-3.6,3.5-2.8,3.6-12.7,8.7c-9.8,5.1-18.8,7.8-26,9.3c-0.1,0-0.1,0-0.2,0c0,0,5.1-24.2,6.1-24.8
					s9.8-1.5,12.1-2c1.4-0.3,4.5-1.1,6.7-1.8c1.4-0.4,2.5-0.7,2.6-0.8c0.2-0.1,1.3-1.4,4-5.9c1.7-2.8,6.2-8.6,10-13.5
					c1-1.2,1.9-2.4,2.7-3.4c0.1-0.1,0.2-0.2,0.3-0.3c1.1-1.4,1.9-2.6,2.5-3.3c2.6-3.7,7.4-13.1,7.5-13.7c0.1-0.6,0.1-1.3,0.3-2.9
					c0.2-1.6,1.4-4.3,1.6-5c0.2-0.7,2.6-2.2,3.5-2.4s5.2,0.4,5.9,0.9c0.2,0.1,0.6,0.3,1.1,0.5c0.8,0.3,1.9,0.6,2.9,1
					c1.4,0.4,2.7,0.9,2.9,1C260.5,172.6,261.7,174,261.4,174.8z"/>
				<path class="st10" d="M255.5,171.3c-2,0.1-4,0.2-5.9,0.2c1.2-1.1,3.1-0.8,4.7-1.3c0.8,0.3,1.9,0.6,2.9,1
					C256.6,171.3,256,171.3,255.5,171.3z"/>
				<path class="st10" d="M256.6,188.6c0.2,0,0.5,0,0.8,0c-1.2,0.9-3.2,1.3-4.2,1.5c-1.3,0.3-2.9-0.4-3.9,0s-5.8,10.4-9.4,18.7
					c-3.5,8.3-10.1,18.4-13.7,21.9c-3.6,3.5-2.8,3.6-12.7,8.7c-9.8,5.1-18.8,7.8-26,9.3c0.8-1.7,2.4-3.2,4-3.8
					c3-1.2,6.9-1.6,10.1-2.3c1.8-0.4,3.5-0.8,5.3-1.4c3.5-1.2,6.7-3.2,9.8-5.1c1.6-1,3.5-1.8,5.2-2.7c3.8-1.9,6.1-5.6,8.4-9
					c3.9-5.6,7.2-11.7,10.1-17.9c0.7-1.6,1.4-3.1,2.1-4.7c0.7-1.6,1.2-3.4,2.1-4.9c1.7-3,3.7-5.8,5.5-8.8
					C252.2,188.7,254.3,188.6,256.6,188.6z"/>
				<path class="st10" d="M260,179.4c0,0.1,0,0.3-0.1,0.4c-0.1,0.2-0.1,0.5-0.1,0.8c-0.1-0.2-0.2-0.4-0.2-0.7c0-0.1,0-0.2,0-0.2
					C259.7,179.5,259.8,179.5,260,179.4z"/>
				<path class="st10" d="M260.1,176.5c0,0.2,0,0.5,0,0.8c-0.3-0.4-0.8-0.6-1.1-1c-0.2-0.2-0.4-0.3-0.4-0.6c-0.1-0.2,0-0.5,0.3-0.6
					c0.2,0,0.3,0,0.5,0.1c0.5,0.2,1.1,0.3,1.6,0.2C260.5,175.8,260,176,260.1,176.5z"/>
				<path class="st10" d="M228.8,200.1c-1.3,2-2.4,4.2-3.7,6c-1.2,1.9-2.4,3.7-3.4,5.7c-0.2,0.3-0.3,0.6-0.4,0.9
					c-1,2.1-1.9,4.2-2.9,6.4c0,0.1-0.1,0.2-0.2,0.3c-0.1,0.1-0.2,0.1-0.3,0.2c-1.9,0.6-3.8,0.7-5.7,0.7c1.4-0.4,2.5-0.7,2.6-0.8
					c0.2-0.1,1.3-1.4,4-5.9C220.4,210.8,224.9,205,228.8,200.1z"/>
				<path class="st48" d="M205.9,237.1c2.2-0.5,4.9-0.9,6.9-2.1c2-1.3,3.9-2.8,5.7-4.4c1.8-1.6,3.6-3.4,4.6-5.6
					c0.1-0.2,0.2-0.5,0.1-0.7c-0.1-0.2-0.3-0.3-0.5-0.4c-1.8-0.9-3.8-1.1-5.7-1.1c-1.9,0.1-3.8,0.2-5.7,0.4
					c-4.2,0.5-8.3,1.6-12.1,3.3c-1.6,0.7-3.1,1.5-4.3,2.7s-2.1,2.8-2,4.6c0,0.5,0.1,1,0.4,1.5c0.3,0.6,0.8,1,1.3,1.3
					c1.6,1.1,3.6,1.4,5.6,1.4C202.1,238,204,237.6,205.9,237.1z"/>
				<path class="st48" d="M235,212.3c4.3-6.5,8.1-13.6,9.6-21.3c0.1-0.7,0.5-1.7,0.3-2.4c-0.2-0.9-1.1-1.6-2-1.6
					c-1.3-0.1-2.4,1-3.2,2.1c-4.3,5.4-7.5,11.7-11.6,17.3c-3,4-6.4,7.7-8.8,12.1c-0.4,0.8-0.9,1.7-1,2.6c-0.1,0.9,0.1,1.9,0.8,2.5
					c3.1,2.7,7.6-0.2,9.7-2.7C231.1,218.1,233.1,215.2,235,212.3z"/>
				<path class="st52" d="M190.5,223.1c0,0,5.1,6.1,4.8,16c-0.4,9.8-2.7,15.5-3.6,16.1c-0.9,0.5-24.3,0.8-28.9,0.5
					c-4.6-0.4-12.3-8.1-10-19.5s8.7-14.2,12.9-14.3S190.5,223.1,190.5,223.1z"/>
				<path class="st53" d="M171.6,243.7c0.9,0.1,1.8,0.1,2.7,0.2c3.1,0.2,6.3,0.4,9.4,0.5c1.9,0.1,3.8,0.2,5.7,0.1
					c0.6,0,1.9,0,2.4-0.3c0.5-0.4,0.5-1.2,0.5-1.8c0.5-3.6,0.2-7.3,0-10.9c-0.1-2.1-0.3-4.2-1.2-6.1c-3.4-0.5-6.8-0.1-10.2-0.2
					c-3.8-0.1-7.6-0.3-11.4-0.2c-0.8,0-1.6,0.1-2.4,0.3c-1.6,0.5-2.9,1.9-3.7,3.4c-1.2,2.2-1.7,4.7-1.2,7.1c0.4,2.4,1.8,4.7,3.9,6
					C167.9,243.1,169.7,243.5,171.6,243.7z"/>
			</g>
			<g>
				<path class="st54" d="M199.2,166.1c2.7-1.5,3.9,0.1,4.6,1.5c0.7,1.4,1.2,5.3,1.1,5.7c-0.1,0.4-1,0.6-1,0.6l-3.5-0.9l-0.5-0.1
					C199.8,172.9,197.8,166.9,199.2,166.1z"/>
				<path class="st55" d="M195.8,165.4c4.3-4.1,13.3-6.4,14.5-1.3c1.2,5-7.4,7-9.1,7.5c-1.7,0.5-5.8,1.8-7.5,0.4
					C191.9,170.5,195.8,165.4,195.8,165.4z"/>
			</g>
			<g>
				<path class="st54" d="M253.8,163.3c3.1-0.1,3.4,1.9,3.3,3.5s-1.5,5.3-1.7,5.6c-0.3,0.3-1.2,0-1.2,0l-2.6-2.4l-0.4-0.4
					C251.2,169.6,252.2,163.4,253.8,163.3z"/>
				<path class="st55" d="M251.2,161.1c5.7-1.6,14.7,0.6,13.4,5.6s-9.8,2.7-11.5,2.3s-5.9-1.1-6.8-3.2
					C245.3,163.8,251.2,161.1,251.2,161.1z"/>
				<g class="st31">
					<path class="st56" d="M270.9,146.1c2.8-0.4,5.4-2.2,6.6-5c1.8-4.3-0.2-9.2-4.5-11c-2.1-0.9-4.3-0.9-6.4-0.1
						c-2.1,0.8-3.7,2.4-4.6,4.5s-0.9,4.3-0.1,6.4c0.3,0.6,0.6,1.2,1,1.7l-0.1,16.5L270.9,146.1z M266.9,144.6
						c-3.8-1.6-5.5-6-3.9-9.7c1.6-3.8,6-5.5,9.7-3.9c3.8,1.6,5.5,6,3.9,9.7C275.1,144.5,270.7,146.2,266.9,144.6z"/>
					<path class="st57" d="M276.7,140.7c1.6-3.8-0.2-8.1-3.9-9.7c-3.8-1.6-8.1,0.2-9.7,3.9c-1.6,3.8,0.2,8.1,3.9,9.7
						C270.7,146.2,275.1,144.5,276.7,140.7z"/>
				</g>
			</g>
		</g>
		<g>
			<path class="st19" d="M168.2,354.4c-18,2.4-25.7-5.8-50.8-20.1c-22.1-12.6-20.8-27.3-22.2-42.2c-0.2-2.1-0.4-8.6-0.4-8.6
				c-0.6-3,2.6-5.3,5.2-3.8l16.1,9.5l4.5,2.6c5.1,2.9,9.3,7.1,12.2,12c1.8,3,2.7,6.4,4,9.6c3.3,8.3,8.5,18.2,16.6,29.9
				c3.7,5.4,4.6,6,6.8,8C163.5,354.1,166.5,354.4,168.2,354.4z"/>
			<path class="st58" d="M167.6,357.2c-18,2.4-25.7-5.8-50.8-20.1c-22.1-12.6-21.6-29.1-23-44c-0.2-2.1-0.4-8.6-0.4-8.6
				c-0.6-3,2.6-5.3,5.2-3.8l16.1,9.5l4.5,2.6c5.1,2.9,9.3,7.1,12.2,12c1.8,3,2.7,6.4,4,9.6c3.3,8.3,9.3,20,17.4,31.7
				c3.7,5.4,4.3,6.3,6.8,8C163.5,356.7,165.9,357.3,167.6,357.2z"/>
		</g>
		<path class="st59" d="M132,204.1c0,0-1.6-6.2-8.7-5.6c-2.6,2.3-1.5,4.9-1.5,4.9s2.2-0.3,4.3,1.3c2.1,1.7,2.4,2.8,2.4,2.8
			S130.1,208.4,132,204.1z"/>
		<path class="st55" d="M155.1,181.5c0,0-0.6,1-0.8,1.6c-0.2,0.5-0.4,10.4,0.4,12.8c0.2,0.6,1.7,1.2,1.9,1.2
			c1.6,0.1,12-6.8,12.3-7.2s-0.4-14.6-0.6-15.2c-0.5-1.7-4.2-2.5-4.2-2.5s0,3-1.1,4.2C161.9,177.6,155.1,181.5,155.1,181.5z"/>
		<path class="st44" d="M159.6,183.7c0,0-12.4,5.2-18.7,6s-20.1-2.1-22.1-7.4c2.1,9.3,2.9,10.7,2.9,10.7s1.9,4.9,13.5,6.3
			c11.6,1.3,24.8-6.8,24.8-6.8L159.6,183.7z"/>
		<path class="st44" d="M143.5,154.7c-7,1.5-15.9,6.8-18.6,15.3s-2.4,18.5-2.4,18.5l7.3,3.7c0,0-0.1-10.6,2.2-18.6
			c2.3-7.9,12.2-17.1,21.3-17.2C147.7,154.5,143.5,154.7,143.5,154.7z"/>
	</g>
</g>
</svg>
