<?xml version="1.0" encoding="utf-8"?>
<!-- Generator: Adobe Illustrator 23.0.5, SVG Export Plug-In . SVG Version: 6.00 Build 0)  -->
<svg version="1.1" id="Layer_1" xmlns="http://www.w3.org/2000/svg" xmlns:xlink="http://www.w3.org/1999/xlink" x="0px" y="0px"
	 viewBox="0 0 512 512" style="enable-background:new 0 0 512 512;" xml:space="preserve">
<style type="text/css">
	.st0{fill:#EDF6FF;}
	.st1{fill:#EAF1EE;}
	.st2{fill:#3A3F47;}
	.st3{fill:#FF8300;}
	.st4{fill:#7D6460;}
	.st5{fill:#4079FF;}
	.st6{fill:#6696FF;}
	.st7{fill:#D4BCAB;}
	.st8{fill:#70524B;}
	.st9{fill:#BDBCD3;}
	.st10{fill:#FF9729;}
	.st11{fill:url(#SVGID_1_);}
	.st12{fill:url(#SVGID_2_);}
	.st13{fill:#754942;}
	.st14{fill:url(#SVGID_3_);}
	.st15{fill:url(#SVGID_4_);}
	.st16{fill:url(#SVGID_5_);}
	.st17{fill:#FEB9B8;}
	.st18{fill:#6B3C34;}
	.st19{fill:#EAEAEA;}
	.st20{fill:url(#SVGID_6_);}
	.st21{fill:#E1E9FA;}
	.st22{fill:url(#SVGID_7_);}
	.st23{fill:url(#SVGID_8_);}
	.st24{fill:#FAFEFF;}
	.st25{fill:url(#SVGID_9_);}
	.st26{fill:url(#SVGID_10_);}
	.st27{fill:url(#SVGID_11_);}
	.st28{fill:url(#SVGID_12_);}
	.st29{fill:url(#SVGID_13_);}
	.st30{fill:url(#SVGID_14_);}
	.st31{fill:url(#SVGID_15_);}
	.st32{fill:#2A2B2B;}
	.st33{fill:#B9B9B9;}
	.st34{fill:#E7E7E7;}
	.st35{fill:#1B1C1C;}
	.st36{opacity:0.74;}
	.st37{fill:url(#SVGID_16_);}
	.st38{fill:url(#SVGID_17_);}
	.st39{fill:url(#SVGID_18_);}
	.st40{fill:url(#SVGID_19_);}
	.st41{fill:url(#SVGID_20_);}
	.st42{fill:url(#SVGID_21_);}
	.st43{fill:#4BB0C1;}
	.st44{opacity:0.53;fill:url(#SVGID_22_);enable-background:new    ;}
	.st45{fill:#65C5D2;}
	.st46{fill:#7DD7E2;}
	.st47{fill:#71CEDA;}
	.st48{fill:#64C4D1;}
	.st49{fill:url(#SVGID_23_);}
	.st50{fill:url(#SVGID_24_);}
	.st51{fill:#59BBCA;}
	.st52{fill:#86DFEB;}
</style>
<g>
	<g>
		<g>
			
				<ellipse transform="matrix(5.422520e-03 -1 1 5.422520e-03 -122.5102 631.0532)" class="st0" cx="256" cy="377.1" rx="128.9" ry="223.2"/>
		</g>
	</g>
	<g>
		
			<ellipse transform="matrix(5.420648e-03 -1 1 5.420648e-03 -190.2022 549.4399)" class="st1" cx="181.1" cy="370.3" rx="30.3" ry="52.5"/>
		
			<ellipse transform="matrix(5.420648e-03 -1 1 5.420648e-03 -20.9077 649.459)" class="st1" cx="316" cy="335.2" rx="30.3" ry="52.5"/>
		<g>
			<path class="st2" d="M219.8,360.9c2.6,2.1,3.3,0.7,3.4,3.3c0.1,2.6-0.1,4.1-0.3,4.9c-0.2,0.7-6.9,2.1-14.4,0.5
				s-11.3-4.6-11.3-4.6l-1.4-1.2c0,0-4.1-0.2-4.6-0.1s-1.9,0.9-1.9,0.9s-6.2,0.1-8.2,0.1s-5.3-2.1-5.8-2.4s-1.4-2.1-1.4-2.1
				s0.5-4.5,0.9-5.3c0.4-0.9,7.1-3.3,7.1-3.3L219.8,360.9z"/>
			<path class="st2" d="M170.7,368.3c4,4.8,5.4,8.2,5.8,9.5c0.4,1.4,0.1,2.8,0,3.6c-0.1,0.8-4.1,2.8-11,2.1
				c-6.8-0.6-12.3-7.6-12.3-7.6l-3.3-7.7c0,0-3.8-5.2-4-6.6s0.8-5.4,0.8-5.4l2-4.2L170.7,368.3z"/>
			<path class="st3" d="M192.9,104.2c4.4,1.1,9.9,6,12.3,12.5c1.2,3.3,9.1,16.1,9.3,17.4c0.3,1.3-9.7,8.8-12.9,9.4
				c-3.3,0.6-24-40.6-24-40.6L192.9,104.2z"/>
			<path class="st4" d="M197.5,348.9c4.8,2.9,20.1,9.8,22.4,10.7c2.3,1,3.6,3.8,3.4,5.1c-0.1,1.3-0.9,3.6-4.3,3.6
				c-3.4,0-13.1-1.1-17.4-3c-4.3-1.9-10-3.6-10-3.6s-12.3-1.3-14.5-2.1c-2.3-0.8-2.4-4.7-2.4-4.7s2-5.1,3-6.7s10-2.6,10-2.6
				L197.5,348.9z"/>
			<path class="st4" d="M166.7,355.4c0,0,1.5,6.9,3.3,8.7c1.8,1.8,6.4,11,6.5,12.6s-0.9,3.5-0.9,3.5s-4.6,2.6-10.8,1.2
				s-9.9-5.2-10.5-6.5s-3.5-7.6-3.5-7.6l-3.2-5.9l-1.3-4.4l2.1-5.4l12.3,0.4L166.7,355.4z"/>
			<path class="st5" d="M173.3,245.4c0.2,2,1.4,6,2.9,10.4c2.9,8.6,7,18.7,7,18.7s3.4,10.8,2.3,15c-1.1,4.2-3.3,37.1-3.6,39.8
				c-0.3,2.7-1.5,23.7-1.5,23.7s0.7,1,2.3,2.1c1.3,0.8,3.1,1.6,5.5,1.7c5.4,0.4,11.4-2.8,11.4-4.3s0.1-4.4,0-6.5s9-44,10.2-49
				c1.1-5,1.9-14.1,1.1-35c-0.8-20.9-2.7-32.3-9.2-58.9l-7.4-4c0,0-21.3,5.9-23,8.2C169.5,209.4,172.6,239.4,173.3,245.4z"/>
			<g>
				<path class="st6" d="M189.6,357.2c-1.2-0.5,0.1-20.6,0.3-23.2c0.2-1.9,0.6-4.5,1-7.5c1.3-8.3,3.1-19.8,2.7-31.9
					c-0.4-11-4.6-26.4-8.3-40c-1.9-6.8-3.6-13.2-4.7-18.5l1-0.2c1.1,5.2,2.9,11.6,4.7,18.4c3.7,13.6,7.9,29,8.3,40.2
					c0.4,12.2-1.4,23.7-2.7,32c-0.5,3-0.9,5.5-1,7.5c-0.8,8.3-1.1,21.5-0.7,22.5l-0.4,0.2l0.4,0.4L189.6,357.2z"/>
			</g>
			<path class="st7" d="M181.8,329.2c-0.3,2.7-1.5,23.7-1.5,23.7s0.7,1,2.3,2.1c0.1-5,0.1-10,0-15c0-3.8,0.9-7.8,1.3-11.6
				c0.5-4,1-8,1.4-11.9c0.8-6.3,1.5-12.7,2.9-18.9l0.3,1.4c-0.6-6-1.2-12-1.8-18c-0.5-5.5-2.1-10.8-4-16c-0.7-1.9-1.5-3.8-1.2-5.8
				c0.5-3.7,3.4-6.3,4.9-9.6c1.8-4,2.9-8.3,2.5-12.7c-0.2-1.7-0.8-2.5-2.2-3c-0.4-0.2-4.5-2-4.5-2c-3.4,5.2-5.3,11.5-5.2,17.9
				c0,1.8,0.2,3.7-0.5,5.4c-0.1,0.3-0.2,0.5-0.4,0.8c2.9,8.6,7,18.7,7,18.7s3.4,10.8,2.3,15C184.3,293.6,182.1,326.6,181.8,329.2z"
				/>
			<path class="st5" d="M188.7,209.8c0,9.2,2.1,27.2,0.6,30.8s-7.4,10.9-9.2,14.6s-7.2,20.8-8,27.8s-2.7,16.3-4.2,20
				s-3.1,14.1-3.1,19.2s1.8,30.3,2,32.7c0.2,2.4-1,3.4-1,3.4s-12.3,1.8-14.3,1s-3.1-5.1-3.1-5.1s-4.8-23.8-5.3-34.1s2-32,2.8-35.5
				s-2.2-24.8-3.2-32.7c-1-7.9-3.3-32.1,3.4-46.8C152.7,190.4,188.7,209.8,188.7,209.8z"/>
			<g>
				<path class="st6" d="M189.4,244.6l-0.6-0.8c2.9-2.1,0.8-17.5-0.2-23.2l1-0.2C190,222.6,193.3,241.7,189.4,244.6z"/>
			</g>
			<g>
				<path class="st6" d="M189.3,240.5c-1.5,0-3.8-0.4-4.7-2.5c-1-2.5-1.3-7.5-1.7-13.4c-0.1-1.3-0.2-2.6-0.3-4l1-0.1
					c0.1,1.4,0.2,2.7,0.3,4c0.4,5.8,0.8,10.8,1.7,13.1c1,2.5,5,1.8,5.1,1.8l0.2,1C190.7,240.4,190.1,240.5,189.3,240.5z"/>
			</g>
			<g>
				<path class="st6" d="M160.3,235.6c-3,0-6.8-0.8-11.5-3.1l0.4-0.9c7,3.4,13,3.9,17.3,1.5c4.1-2.4,5.5-6.8,5.7-9.1l1,0.1
					c-0.2,3.3-2.2,7.6-6.2,9.8C165.4,234.8,163.2,235.6,160.3,235.6z"/>
			</g>
			<g>
				<path class="st6" d="M149.3,358c-0.2-1.2-5.9-29.1-5.2-39.7c0.4-7,2-15.8,3.2-22.2c0.6-3.6,1.1-6.4,1.3-8
					c0.5-4.7-0.2-26.5-0.9-37.3c-0.7-11.4,0.5-27.2,2.7-34.6l0.9,0.3c-2.1,7.2-3.3,23.2-2.6,34.2c0.7,10.8,1.3,32.7,0.9,37.4
					c-0.2,1.7-0.7,4.5-1.3,8c-1.1,6.4-2.7,15.1-3.1,22.1c-0.7,10.5,5.2,39.2,5.2,39.5L149.3,358z"/>
			</g>
			<g>
				<path class="st6" d="M205.2,219.5c-2.8,0-5.2-5-5.7-6.8l0.9-0.3c0.6,1.9,2.8,6.1,4.8,6.1h0.1l0.1,1
					C205.4,219.5,205.3,219.5,205.2,219.5z"/>
			</g>
			<path class="st8" d="M203.1,209.2c-1.7,3.9-5.5,10.6-18.1,13.7c-12.7,3.1-30.9-1-36-3.8s-6.1-4.2-6.1-4.2l2.3-8
				c0,0,13.5,10.7,34,9.7c12.6-2.2,18.9-8.5,18.9-8.5l3.5-5L203.1,209.2z"/>
			<g>
				
					<rect x="140.9" y="211.3" transform="matrix(0.3051 -0.9523 0.9523 0.3051 -100.8001 286.8129)" class="st5" width="10.5" height="2.3"/>
			</g>
			<g>
				
					<rect x="170.5" y="219.3" transform="matrix(0.1025 -0.9947 0.9947 0.1025 -61.2618 373.0158)" class="st5" width="11.2" height="2.3"/>
			</g>
			<g>
				
					<rect x="198.7" y="205.7" transform="matrix(0.9846 -0.1748 0.1748 0.9846 -33.7514 38.1771)" class="st5" width="2.3" height="10"/>
			</g>
			<path class="st9" d="M192.1,210.7c0,1,0.9,7.9,0.5,9.3c-0.4,1.4-9,4.1-10,4s-1-8.4-0.7-9.1C182.2,214.2,192.1,210.7,192.1,210.7z
				"/>
			<path class="st10" d="M135,128.9c0.5,4.5,1.8,10.8,3.4,19.9c3.2,18.9,7.3,27.9,7.6,32.1c0.3,4.2-3.9,27.4-3,29.4
				c0.2,0.4,0.4,0.7,0.6,0.9c0.8,1,5.9-1,8.7,0.8c3.4,2.2,19,17.9,32.2,14.6c1.2-0.3,2.3-12.7,3.4-13c1.7-0.6,3.2,10.9,4.5,10.2
				c6.7-3.3,10-15.5,10.5-17.2c0.4-1.3-0.8-14-0.7-22.8c0-1,0-1.9,0-2.7c0.2-4.7,1.1-6.6,1.3-9.7c0.2-2.6,0.3-5.3,0.3-8.1
				c0.1-6.7-0.2-13.4-0.3-17.2c-0.1-5.4,0.2-27-1-29.9c-1.1-3-3.3-10.6-13.3-13c-3.3-0.8-9.9,1.9-14.5,1.2
				c-4.6-0.7-16.6-0.1-22.1,2.8c0,0-13.3,7.7-16.2,11.8C134.6,121.2,134.4,124,135,128.9z"/>
			<g>
				<path class="st3" d="M191.1,224.4c-0.1-0.3-3.5-7.7-4.5-10.3c-0.6-1.6-0.7-5.2-0.9-11.7c-0.1-5.1-0.3-12.2-0.9-20.9
					c-1.5-25.1-4-44.2-7.6-58.4l2.2-0.6c3.6,14.3,6.1,33.6,7.6,58.9c0.5,8.7,0.7,15.8,0.9,21c0.1,5.7,0.3,9.7,0.7,11
					c1,2.5,4.4,10.1,4.5,10.2L191.1,224.4z"/>
			</g>
			<path class="st7" d="M145.9,180.9c0.3,4.2-3.9,27.4-3,29.4c0.2,0.4,0.4,0.7,0.6,0.9c1-7.8,5.2-19.1,4.5-26.9
				c-0.8-8.7-3-17.2-5.2-25.7c3.1,3.2,6.7,5.7,6.9,10.5c0,0.7,0,1.4,0.2,2c0.3,1,1.1,1.8,1.9,2.4c2.9,2.5,7,3.4,9.6,5.8
				c2.9,2.6,4.7,5.7,8.3,7.5c2.4,1.2,5.3,1.7,7.9,0.8c0.3-0.1,0.8,0.1,0.8,0.3c1.8-2.2,3.4-4.5,5.7-6.2c1.6-1.1,1.4-0.9,3.4-0.3
				c1.6,0.5,3.2,1,4.9,1.3c3.1,0.7,6.2,1,9.3,1c0-1,0-1.9,0-2.7c0.2-4.7,1.1-6.6,1.3-9.7c0.2-2.6,0.3-5.3,0.3-8.1
				c-1.6,2.8-4.3,4.9-7.4,5.5c-2.6,0.5-5.2,0.1-7.8-0.3c-1.2-0.2-2.3-0.4-3.5-0.8c0.7-0.7,1.4-1.5,2.1-2.3c1.3-1.5,2.5-3,3-4.8
				c0.6-2.1,0.3-4.3,0.4-6.4c0.1-2.9,0.9-5.7,1.1-8.6c0.4-4.8-0.8-9-2.1-13.5c-1.1,2.2-1.8,4.6-3.4,6.5c-1.7,2-3.4,3.9-5.3,5.8
				c-2.6,2.5-5.2,5.1-7.8,7.6c-0.3,0.3-0.5,0.5-0.8,0.7c-1.7-3.6-3.4-7.3-6.5-9.6c-1.6-1.2-3.4-1.9-5.2-2.7
				c-5.4-2.3-10.2-5.6-15.5-8.3c-2.1-1.1-6.7-3.8-9.9-3.4c0.5,4.5,1.8,10.8,3.4,19.9C141.5,167.7,145.6,176.8,145.9,180.9z"/>
			
				<linearGradient id="SVGID_1_" gradientUnits="userSpaceOnUse" x1="2816.5132" y1="413.1118" x2="2844.2144" y2="413.1118" gradientTransform="matrix(-1 0 0 -1 3001.0728 512)">
				<stop  offset="4.947920e-02" style="stop-color:#FEB9B8"/>
				<stop  offset="0.9922" style="stop-color:#FEA5A4"/>
			</linearGradient>
			<path class="st11" d="M156.9,105.7c0,0,1.3-2.3,2.2-5.1c0.9-2.8,2.2-5.2,2.1-7.5c-0.1-2.3,0.2-6.3,0.1-7.7
				c-0.1-1.4,1.5-13,6.7-8.8c5.1,4.2,11.9,12,11.9,12s6.6,8.4,4.4,14.6c-2.2,6.3-1.4,12.9-2.9,15.3s-0.5,4.9-8.1,2.8
				s-10.9-7.6-10.9-7.6L156.9,105.7z"/>
			<path class="st7" d="M170.8,108.6c0.6,1.5,1.5,3,2.9,3.8c0.7,0.4,1.6,0.5,2.1,1.2c0.4,0.5,0.5,1.2,0.6,1.8
				c0.4,1.6,1.7,2.9,2.9,4.1c0.1,0.1,0.3,0.3,0.5,0.3c0.3,0,0.5-0.3,0.7-0.6c1.7-3.3,2.7-6.9,3-10.6c0.1-1.1,0.1-2.2-0.3-3.2
				c-0.4-1-1.1-1.9-1.9-2.6c-2.7-2.5-6.7-3.6-10.3-2.9c-0.7,0.1-1.4,0.4-1.9,0.9C167.6,102.4,170.1,107,170.8,108.6z"/>
			<path class="st3" d="M153.9,109.9c2.9,5.5,15.6,14.7,18.1,15.5s6.5-2.6,6.5-2.6s3.5,1.9,4.5,1.6c0.9-0.3,3.4-5.2,4.1-6.7
				c0.7-1.5,0.7-6.5,0-9.2s-3.7-4.1-3.7-4.1s2,14.8-5.3,16.4c-7.1-1.8-14.7-9-16.6-11.5c-1.9-2.5-2.7-4.9-2.7-4.9l0.4-3.6
				c0,0-5.4,5.1-5.8,6.2C153,108.1,153.9,109.9,153.9,109.9z"/>
			
				<linearGradient id="SVGID_2_" gradientUnits="userSpaceOnUse" x1="2803.9702" y1="423.3583" x2="2837.7888" y2="423.3583" gradientTransform="matrix(-1 0 0 -1 3001.0728 512)">
				<stop  offset="4.947920e-02" style="stop-color:#FEB9B8"/>
				<stop  offset="0.9922" style="stop-color:#FEA5A4"/>
			</linearGradient>
			<path class="st12" d="M163.3,89.8c1,8.3,1.4,12,4.9,15.8s11.7,7.5,14.6,7.6c2.9,0.1,4.2-0.8,5-1.8s2.8-5.6,5.6-15.5
				s3.3-13.9,3.6-18.6s-1.9-9.2-2.1-9.9c-0.2-0.7-15.2-4-19.5-3.2s-10,5.1-10,5.1S162.9,86.2,163.3,89.8z"/>
			<path class="st13" d="M165.5,89.5l2.8,1.4c0,0,0.4-5.8,2.5-7.7c2.1-1.9,3.4-4.4,3.9-5.8c0.5-1.3,3.7-2.9,3.7-2.9l8.4-1.3
				c0,0,6,0.4,7.9-0.4s1.9-0.8,1.9-0.8s0.7,3.1,0.4,6.1c-0.3,2.9-0.3,3.2-0.3,3.2s1.7-5.5,1.6-7.4c-0.1-1.9,1.1-4.4-0.8-9.6
				c-1.9-5.1-7.8-9-12.2-10.9c-4.5-1.9-13.7-2.1-20.9,1.9c-8.5,1.9-10.4,9.5-10.6,14.7c-0.2,5.1,0.6,9.7,1.5,13.5s3.9,8.9,5.1,9.6
				c-0.6-4.5-1.9-8.5-1.9-8.5s0.8-4.3,2.9-3.9c2.1,0.3,3.5,4.1,3.6,4.9S165.5,89.5,165.5,89.5z"/>
			
				<linearGradient id="SVGID_3_" gradientUnits="userSpaceOnUse" x1="2836.6621" y1="425.094" x2="2843.2104" y2="425.094" gradientTransform="matrix(-1 0 0 -1 3001.0728 512)">
				<stop  offset="4.947920e-02" style="stop-color:#FEB9B8"/>
				<stop  offset="0.9922" style="stop-color:#FEA5A4"/>
			</linearGradient>
			<path class="st14" d="M162.1,93.1c-1-0.3-1.5-1.3-2-2.1c-0.7-0.9-1-2.2-1.4-3.3c-0.4-1.3-0.8-2.7-0.8-4.1c0-0.8,0.1-1.5,0.5-2.2
				c0.6-1,1.5-0.8,2.4-0.6c1,0.2,1.9,0.4,2.6,1.4c0.2,0.4,0.4,0.8,0.5,1.3c0.3,1.4,0.3,2.8,0.5,4.2c0.1,0.8,0.1,1.7,0,2.4
				C164.3,91.5,163.9,93.6,162.1,93.1z"/>
			
				<linearGradient id="SVGID_4_" gradientUnits="userSpaceOnUse" x1="1999.2465" y1="486.3996" x2="2070.2043" y2="486.3996" gradientTransform="matrix(-0.9836 0.1802 -0.1802 -0.9836 2273.5098 269.2952)">
				<stop  offset="4.947920e-02" style="stop-color:#FEB9B8"/>
				<stop  offset="0.9922" style="stop-color:#FEA5A4"/>
			</linearGradient>
			<path class="st15" d="M150.8,170.3l1.4,1.1c0,0,0.4,1.7,1,2.1c0.6,0.5,4.4,1.8,4.4,1.8l0.3,1.5c0,0,2.7,1.6,4.1,2
				c1.4,0.4,3.1-0.2,5.3-0.4s6.3-2.4,8-2.6c0.3,0,0.8-0.1,1.5-0.3c2.8-0.6,8.2-1.8,13.9-1.6c7,0.2,15.3,0.3,20.8-1.4
				s8.7-2.9,9.7-6.4c0.6-2,0.5-3.7-0.1-5.9c-0.5-1.6-1.3-3.6-2.5-6.2c-2.3-5.1-4.7-10.7-8.4-16.9c-0.8-1.3-1.6-2.6-2.5-3.9l-6.4,2.9
				L199,144l1.5,7.4l3.3,7c0,0-2.3,0.9-4.7,1.8c-2.7,1-5.5,2.1-5.8,2.1s-3.6,0.3-6.8,0.4c-1.1,0-2.3,0.1-3.3,0.1
				c-1.1,0-2.1,0-2.7-0.1c-2.9-0.4-28.8-2.8-28.8-2.8l-0.8,5.8L150.8,170.3z"/>
			<path class="st7" d="M176.6,175.5c2.8-0.6,8.2-1.8,13.9-1.6c7,0.2,15.3,0.3,20.8-1.4s8.7-2.9,9.7-6.4c0.6-2,0.5-3.7-0.1-5.9
				c0,0.5-0.1,1-0.1,1.4c-0.2,1.5-0.3,3.1-1,4.4c-0.8,1.7-2.1,2.1-3.5,3.1c-0.9,0.7-1.9,1.2-2.9,1.6c-5.6,2.6-21.9,3.4-28.4,1.9
				c1.1-3.2,1.6-6.6,1.5-9.9c0-0.9-0.1-1.8-0.2-2.7c-1.1,0-1.8,1-2.4,1.9c-0.2,0.3-0.4,0.6-0.6,0.9c-1.6,2.4-3.3,4.8-4.9,7.3
				c-0.6,0.9-1.3,1.9-1.6,3C176.5,173.9,176.5,174.7,176.6,175.5z"/>
			
				<linearGradient id="SVGID_5_" gradientUnits="userSpaceOnUse" x1="2799.0903" y1="367.0379" x2="2856.573" y2="367.0379" gradientTransform="matrix(-1 0 0 -1 3001.0728 512)">
				<stop  offset="4.947920e-02" style="stop-color:#FEB9B8"/>
				<stop  offset="0.9922" style="stop-color:#FEA5A4"/>
			</linearGradient>
			<path class="st16" d="M144.5,157.1c0,0,1.8,2.8,4.9,7.3c3.1,4.6,11.4,11.8,13.8,14.2c2.4,2.4,10.8,6.5,13.3,5.8
				c2.6-0.7,7-6,10.2-12.2c3.2-6.1,4.4-14.2,5.7-20c0.9-4,3.2-13,4.6-18.9c0-0.1,0-0.1,0-0.2c0.6-2.6,1.1-4.6,1.1-5.3
				c0.2-2.3,3.7-9.2,3.7-9.2l-0.9-2.9l-2.6-3.2l-1.7-2l-3.3-2.8l-4-2c0,0-1.5-0.5-1.6-0.1c0,0,0,0.1,0,0.2c-0.1,0.8,0,3.4,0,3.4
				l-0.1,2.5l-1.5,3.9l-0.3-0.9l0,0l-0.7-2.5c0,0-0.6-3.3-1.4-4.2c-0.8-0.9-3.1-1.8-3.1-1.8s-1.7,0.3-1.6,1c0,0.1,0,0.2,0.1,0.4
				c0.5,1.2,2.1,3.8,2.1,3.8v5c0,0,1.2,3,1.9,4.2s2.9,5.5,2.9,5.5s0.7,5-1.6,9.7c0,0-1.1,2.6-2.3,5.4c-0.8,1.8-1.6,3.7-2.3,5.1
				c-1.1,2.4-4.9,7.6-7,10.5c-0.9,1.2-1.6,2.1-1.6,2.1s-1.8-5.2-4-7.7c-0.4-0.4-1-0.9-1.8-1.5c-3.6-2.8-10.6-6.7-10.6-6.7l-2.5,3.4
				L144.5,157.1z"/>
			<path class="st7" d="M144.5,157.1c0,0,1.8,2.8,4.9,7.3c3.1,4.6,11.4,11.8,13.8,14.2c2.4,2.4,10.8,6.5,13.3,5.8
				c2.6-0.7,7-6,10.2-12.2c3.2-6.1,4.4-14.2,5.7-20c0.9-4,3.2-13,4.6-18.9c-0.5,1.7-0.9,3.3-1.4,5c-0.7,2.3-1.7,4.5-2.2,6.9
				c-0.9,3.9-1.9,7.8-3.1,11.7c-0.9,3.1-1.3,6.2-2.7,9.3c-1.6,3.4-2.8,7.1-5.1,10.1c-1.4,1.8-3.3,5.4-5.7,5.9
				c-3.9,0.9-7.9-1.3-11.2-3.7c-1.5-1.1-3-2.3-4.4-3.6c-4.3-3.8-7.9-8.3-11.5-12.7c-0.3-0.3-0.5-0.7-0.6-1.1
				c-0.2-0.8,0.3-1.5,0.8-2.1c2.3-2.7,5.4-4.4,8.6-6c-2-2.2-4-4.4-6-6.6L144.5,157.1z"/>
			<path class="st3" d="M139.7,118.2c5.1-1.5,12.4,2.7,15.2,7.3c2.8,4.5,13.6,25,13.3,26.7c-9.5,1.7-21.7,6.9-21.7,6.9l-1.4,0.9
				l-2.5-1c0,0-5.6-13.5-7.5-20.3s-2.5-14.6-0.5-17.4C136.6,118.4,139.7,118.2,139.7,118.2z"/>
			<path class="st17" d="M213.6,152.5c-0.8,1.7-4.6,0.7-6.2,0.3c-0.5-0.1-1-0.2-1.4-0.5s-0.7-0.8-1-1.3c-0.5-1-1.1-2.1-1.5-3.1
				c-0.3-0.7-0.6-1.5-0.5-2.3c0.1-1.2,1.1-2,1.9-2.8c0.9-0.8,1.8-1.6,3-1.9c0.3-0.1,0.7-0.1,0.9,0c1.2,0.7,1.9,4,2.5,5.2
				c0.9,1.7,2.6,3.8,2.5,5.8C213.7,152.1,213.6,152.3,213.6,152.5z"/>
			<path class="st17" d="M171.3,171.3c-0.2-4.8,2.6-9,4.6-13.2c2.1-4.3,4.3-8.6,6.5-12.7c1-1.9,1.4-4,2.3-5.9
				c0.8-1.9,1.8-3.7,2.4-5.6c0.5-1.6,0.8-3.3,1.9-4.6c2.4-2.7,5.5-0.3,5.3,2.7c-0.8,10.3-5.4,19.8-7.2,29.9c-0.8,4.4-3,9-4.5,13.2
				c0.1,0,0.1-0.2,0-0.2s-0.2,0.1-0.3,0.2c-1,1.6-2.6,2.7-4.2,3.6c-0.6,0.3-1.7,1.2-2.4,1.1C171.6,179.5,171.5,174.1,171.3,171.3z"
				/>
			<path class="st17" d="M166.1,161.7c-0.8,3.3-0.3,6.8-1.1,10.2c-0.1,0.4-0.3,0.9-0.7,1c-0.2,0.1-0.5,0-0.7-0.1c-2.7-1-5-2.9-6.9-5
				c-1.9-2.2-3.4-4.7-4.9-7.1c0.1,0.2,10.1-4.6,11.3-4.9C167.6,155,166.8,158.7,166.1,161.7z"/>
			<path class="st7" d="M171.4,159.7c0.6-1,1.1-2,1.5-3c-0.9,1.2-1.6,2.1-1.6,2.1s-1.8-5.2-4-7.7c-0.4-0.4-1-0.9-1.8-1.5
				c0.3,1.3,0.7,2.7,1.3,3.8c0.1,0.3,0.3,0.5,0.4,0.7c1.2,2.1,1.9,4,1.2,6.4c-0.9,2.7-1.4,5.5-1.6,8.3c1-1.8,1.4-4,2.3-5.8
				C169.9,161.8,170.7,160.8,171.4,159.7z"/>
			<path class="st7" d="M186.4,116c2-3,2.5-6.8,1.6-10.2c-0.1,0.8,0,3.4,0,3.4l-0.1,2.5l-1.5,3.9l-0.3-0.9
				C186.1,115.1,186.2,115.5,186.4,116z"/>
			<path class="st7" d="M179.3,107.5c0.5,1.2,2.1,3.8,2.1,3.8v5c0,0,1.2,3,1.9,4.2s2.9,5.5,2.9,5.5s0.7,5-1.6,9.7
				c0,0-1.1,2.6-2.3,5.4c0.9-1.8,1.9-3.6,2.9-5.3c1.4-2.6,2.3-5.4,2.1-8.3c-0.1-2-1.5-3.6-2.6-5.2c-1.2-2-1.7-3.7-2-6
				c-0.3-2.4-0.7-4.7-1.4-6.9c-0.1,0.1-0.3,0.1-0.4,0c-0.5-0.3-0.8-0.9-1.1-1.4C179.6,107.8,179.5,107.6,179.3,107.5z"/>
			<path class="st17" d="M187.4,172c0.1,0,0.8-3.4,0.8-3.8c0.3-1.5,0.9-2.6,2-3.7c0.7-0.7,1.6-0.9,2.6-1.3c3.3-1.4,6.9-1.9,10.3-3.2
				c1.6-0.6,3.1-1.2,4.6-1.9c2.5-1.2,4.1-2,7-1.5c3.1,0.6,5.8,2.6,4.2,6c-1.5,3.2-5.1,4.7-8.4,5.9c-3.3,1.1-6.7,2-10.1,2.8
				C196,172.1,191.6,170.9,187.4,172z"/>
			<path class="st7" d="M203.6,153.5c-1.1-2.2-5-9.1-2-11c2.4-1.5,4.7-3,7.1-4.5c0.4-0.3,0.9-0.6,1.4-0.8c-0.8-1.3-1.6-2.6-2.5-3.9
				l-6.4,2.9l-2.3,7.9l1.5,7.4l3.3,7c0,0-2.3,0.9-4.7,1.8c0.1,0.2,0.3,0.3,0.5,0.4c0.3,0.1,0.7-0.1,0.9-0.2c2.4-1.4,4.8-2.7,7.1-4.2
				c2-1.3,4.8-1.6,7.1-2.2c-2.1-1-4.7-0.8-6.8,0.3c-0.8,0.5-1.7,1.2-2.7,1C204.5,155.1,204,154.2,203.6,153.5z"/>
		</g>
		<g>
			<path class="st18" d="M295.4,25c3.9-6.7-6.2-18.6-11.9-17.4c-7.9,1.7-16.5,8.3-10.2,25.3c5.2,14,5.2,24.5-8.7,25.9
				c9.5,11.3,26.4,4.5,27.1-4.6c0.6-9-2.8-19.4-0.1-20.4C294.2,32.8,295.4,25,295.4,25z"/>
			<path class="st19" d="M280.8,21.3c-3.1-1.5-1.8-11.8,7.6-11.8S280.8,21.3,280.8,21.3z"/>
			<path class="st2" d="M315.4,323.5c-1.1,2.5-1.4,6.2-1.4,6.2s3.8,4.1,5.1,5.6c1.3,1.5,2.2,0.9,2.2,0.9s1.6,0,2.2,1.5
				c0.6,1.4,4.7,7.9,5.9,9.2c1.2,1.3,4.8,7.4,10.5,8.5c5.8,1,8.7-2.4,9.3-3.3c0.6-0.9,0.2-6-1.3-8.7c-1.5-2.8-1.5-2.8-1.5-2.8
				L315.4,323.5z"/>
			<path class="st2" d="M296.7,321.9c-0.5,7.2,0.1,10.9-2.7,13.3c-2.9,2.4-7.9,1.6-10.7,0.9c-2.9-0.7-5.3-3.5-5.5-6.7
				s0.5-8.5,0.7-9.3C278.5,319.3,296.7,321.9,296.7,321.9z"/>
			
				<linearGradient id="SVGID_6_" gradientUnits="userSpaceOnUse" x1="2642.7666" y1="416.9" x2="2670.6882" y2="416.9" gradientTransform="matrix(-1 0 0 -1 3001.0728 512)">
				<stop  offset="4.947920e-02" style="stop-color:#FEB9B8"/>
				<stop  offset="0.9922" style="stop-color:#FEA5A4"/>
			</linearGradient>
			<path class="st20" d="M330.4,80.6c-0.1,1.7,0.3,3.9,0.7,6.1c1.1,5.3,3.2,11.1,3.7,13.2c0.8,3,2.3,14.7,2.3,14.7l5.8,1.6l4.8,1.4
				c0,0,10.9-3.4,10.6-5s-2.9-9.8-7.3-17.5s-5.4-12.6-8.3-18.9l-9.2-3.6C333.6,72.6,330.6,74.8,330.4,80.6z"/>
			<path class="st7" d="M339.8,101c1.4-2.8,2.1-7.8,5.9-8.5c0.5-0.1,1-0.1,1.3,0.3c0.5,0.5,0.1,1.6-0.1,2.2c1.3,0.1,2.7,0,4,0.2
				c0.4,0.1,0.8,0.2,1,0.5c0.3,0.6-0.4,1.2-1,1.5c-0.9,0.5-1.8,1.3-1.7,2.4c0.7,0.2,1.4,0.3,2.2,0.5c0.8,0.2,1.7,0.4,2.2,1
				s0.5,1.8-0.3,2.1c0.7,0.3,0.9,1.2,0.6,2c-0.3,0.7-0.8,1.2-1.4,1.8c-1.3,1.2-2.6,2.4-3.9,3.6c-1.2,1.1-2.7,2.3-4.3,1.7
				c-0.6-0.2-1-0.6-1.4-1c-1.7-1.7-3-3.9-3.7-6.3c-0.2-0.6-0.3-1.2-0.2-1.7C339,102.4,339.4,101.7,339.8,101z"/>
			<path class="st7" d="M331.2,86.7c1.1,5.3,3.2,11.1,3.7,13.2c0.8,3,2.3,14.7,2.3,14.7l5.8,1.6c0.7-2.1,0.5-4.7-0.3-6.8
				c-1.1-3-3-5.7-4.2-8.6c-0.8-1.9-1.3-3.8-1.6-5.8c-0.6-3.5-0.6-7.3-0.4-10.9c0-1,0.5-2.2-0.1-3c-1-1.4-2.6-0.4-3.3,0.6
				C332,83.2,331.4,84.9,331.2,86.7z"/>
			<path class="st17" d="M344.4,83.6c0.5,0.2,0.7,0.7,0.8,1.2c0.5,1.8,1.1,3.6,1.6,5.5c0.1,0.2,0.1,0.4-0.1,0.5
				c-0.1,0.1-0.2,0.1-0.3,0.1c-1.1-0.1-2.3-0.2-3.3,0.3c-0.8,0.3-1.5,1-2.3,1.5c-0.7,0.5-1.6,1-2.5,0.9c-0.5-2,0-5.2,0.9-7.1
				c0.3-0.7,0.8-1,1.5-1.4C341.5,84.6,343.5,83.3,344.4,83.6z"/>
			<path class="st21" d="M325.4,61.3c7.8,1.3,11.8,4.1,14.3,8.1s5.3,9.1,5.6,10.5c0.3,1.3-9.6,4.3-11.9,12.1s-7.5-21.2-8.6-22.7
				C323.7,67.7,325.4,61.3,325.4,61.3z"/>
			<path class="st19" d="M332.1,323.9c2.1,2.5,5.6,4.7,7.5,7.3s8.2,8.1,8.5,10.4s3.2,7.2,0.7,9.5c-2.6,2.3-7.4,4.5-11.6,1.4
				c-4.2-3-8.5-7.3-9.5-10.7c-1-3.4-6.1-6.7-7.7-8.6s-5.9-4.8-5.1-7.6c0.8-2.9,1.5-5.5,3.5-7.1C320.4,316.9,332.1,323.9,332.1,323.9
				z"/>
			<path class="st19" d="M293.9,304.9c2.2,0.7,4,6.5,3.6,10.7s0.1,17.8-5.7,19.2c-5.8,1.4-10.9-0.9-12.2-3.7
				c-1.2-2.8-1.9-6.9-1.3-11c0.6-4.2,1.9-7.5,2.2-10c0.3-2.6,1.7-4.9,2.6-5.6S291.2,304,293.9,304.9z"/>
			
				<linearGradient id="SVGID_7_" gradientUnits="userSpaceOnUse" x1="2667.2319" y1="193.4138" x2="2684.5142" y2="193.4138" gradientTransform="matrix(-1 0 0 -1 3001.0728 512)">
				<stop  offset="4.947920e-02" style="stop-color:#FEB9B8"/>
				<stop  offset="0.9922" style="stop-color:#FEA5A4"/>
			</linearGradient>
			<path class="st22" d="M333.8,311.2c-1.4,5.5-0.7,12.3-0.8,13.7c-0.1,1.3,0.4,3.8-0.7,5.3s-10.5-0.2-12.4-2.2s-3.7-3.8-3.2-6
				s3.1-6,3.4-8.6c0.3-2.7,0.9-7,0.9-7L333.8,311.2z"/>
			<path class="st5" d="M306.3,189.5c1.7,11.8,4,27.5,5.2,32.3c1.3,4.8,3.3,21.6,4.2,32.1c0.8,10.6-0.6,54.5,0,57.2
				c0.2,0.9,0.7,1.6,1.4,2.2c1.4,1.1,3.5,1.7,5.3,2.1c2.6,0.7,11.7-0.6,12.6-2.6c0.9-2.1,5.7-53.4,6.1-57.3c0.4-3.9,4.8-39.8,5-52.1
				c0.6-34.4-4.6-54-5.4-56.7c-0.9-2.6-1.9-8.5-4.5-13.2c0,0-22.9,3-26,6.7c-1.7,2.1-3.3,13.4-4,25
				C305.6,174.6,305.5,184.2,306.3,189.5z"/>
			<path class="st7" d="M306.3,189.5c1.7,11.8,4,27.5,5.2,32.3c1.3,4.8,3.3,21.6,4.2,32.1c0.8,10.6-0.6,54.5,0,57.2
				c0.2,0.9,0.7,1.6,1.4,2.2c0-1.2-0.1-2.3-0.3-3.4c-0.8-4.8,0-9.6,0.4-14.5c0.5-6.7,1-13.3,0.8-20c-0.5-22.2-3.6-44.3-4.4-66.6
				c-0.1-3.4-0.2-6.9,0.4-10.2c0.5-3,1.6-5.9,2.4-8.8c1.6-5.8,2.4-11.9,2.1-17.9c-0.1-3.1-2.1-6.2-5.1-7.3c-2.4-0.9-5.3-0.7-7.5,0.8
				C305.6,174.6,305.5,184.2,306.3,189.5z"/>
			<g>
				<path class="st6" d="M317.9,312.6h-1c0-0.5,1-47.8,0.3-61.3c-0.7-13.2-3.9-42.9-6.5-64.2l1-0.1c2.7,21.3,5.9,51.1,6.6,64.3
					C318.9,264.7,317.9,312.1,317.9,312.6z"/>
			</g>
			
				<linearGradient id="SVGID_8_" gradientUnits="userSpaceOnUse" x1="2704.4053" y1="208.9587" x2="2718.2561" y2="208.9587" gradientTransform="matrix(-1 0 0 -1 3001.0728 512)">
				<stop  offset="4.947920e-02" style="stop-color:#FEB9B8"/>
				<stop  offset="0.9922" style="stop-color:#FEA5A4"/>
			</linearGradient>
			<path class="st23" d="M295,294.5c-0.4,4.7,2.5,10.5,1.4,13.7c-1.1,3.1-1.5,6.8-1.5,6.8s-4.9,1.8-8,0s-4.1-3.7-4.1-3.7l1.2-8.7
				c0,0-0.6-8.7-0.1-11.6C284.4,288.2,295,294.5,295,294.5z"/>
			<path class="st5" d="M271.2,198.1c1,7,6.5,36.3,5.7,53.5c-0.9,17.2,2.8,38,2.9,40c0.1,0.8,0.5,1.6,1.1,2.4
				c1.1,1.4,2.8,2.7,4.7,3.6c3,1.4,10.3,1.4,10.8-1.2c0.6-2.7,4.4-46.1,4.6-50.9c0.2-4.8,8.6-44.3,10.3-49.4c1.7-5,5.5-9.4,8.2-15
				s3.2-26.6,2-36.2c0,0-29.3-8.2-37.9-10.3c-1.4-0.3-2.3-0.5-2.4-0.5c-0.4,0.4-6.9,14.6-8.8,23.8
				C270.7,167.1,270.2,191.1,271.2,198.1z"/>
			<path class="st7" d="M271.2,198.1c1,7,6.5,36.3,5.7,53.5c-0.9,17.2,2.8,38,2.9,40c0.1,0.8,0.5,1.6,1.1,2.4
				c-2.6-19.7-1.6-40.4-1.7-49.6c-0.1-9.9-2.7-38.2-5.4-47.1c-2.6-8.9-1.5-24.5,0-34.6c1.3-8.8,4.3-15.9,9.8-28.1
				c-1.4-0.3-2.3-0.5-2.4-0.5c-0.4,0.4-6.9,14.6-8.8,23.8C270.7,167.1,270.2,191.1,271.2,198.1z"/>
			<g>
				<path class="st6" d="M280.5,294c0-0.5-1.7-47.5-2.3-60.4c-0.3-7.6-1.6-17.6-2.9-27.3c-0.9-7-1.8-13.6-2.3-19.3
					c-1.2-13,0.1-24.6,10.1-48.8l0.9,0.4c-9.9,24-11.1,35.5-10,48.4c0.5,5.7,1.4,12.3,2.3,19.3c1.3,9.7,2.6,19.7,2.9,27.3
					c0.6,12.9,2.3,60,2.3,60.4H280.5z"/>
			</g>
			<path class="st24" d="M283.5,60.5c4.6-3.1,23.2-0.4,30.6,0c7.5,0.4,13-1,15.3,4.8c2.4,5.8,8.7,29.4,6.8,37.7
				c-1.9,8.3-3.5,12.2-3.1,16.7c0.4,4.6,5.2,15.7,5.2,18.7c0,2.5-3.4,14.5-13,17.8c-0.9,0.3-2.6-8.8-3.6-8.5
				c-1.1,0.3-1.4,9.9-2.7,10.1c-14.8,2.9-39-11.7-39-11.7s-2.7,0.2-3.1-2s5-12.1,5.1-14.3s-2.4-33-7.1-38.4
				c-4.8-5.4-14.3-10-10.9-13.8c3.4-3.7,8.3-9.7,11.1-12.2C278,63,283.5,60.5,283.5,60.5z"/>
			<g>
				<path class="st21" d="M320.9,148.6c-2.9-5.4-3-21.2-3.1-32.7c0-2.8,0-5.2-0.1-7.2c-0.3-10.6-7.1-21.4-12.1-28.6l1.9-1.3
					c5.2,7.5,12.2,18.7,12.5,29.9c0.1,1.9,0.1,4.4,0.1,7.2c0.1,10.7,0.2,26.8,2.9,31.7L320.9,148.6z"/>
			</g>
			
				<linearGradient id="SVGID_9_" gradientUnits="userSpaceOnUse" x1="2688.1172" y1="442.3546" x2="2720.7549" y2="442.3546" gradientTransform="matrix(-1 0 0 -1 3001.0728 512)">
				<stop  offset="4.947920e-02" style="stop-color:#FEB9B8"/>
				<stop  offset="0.9922" style="stop-color:#FEA5A4"/>
			</linearGradient>
			<path class="st25" d="M283.3,62.2c3.8-2.3,8.6-2.6,13-2.2c4.2,0.4,8.4,1.3,12.6,1.6c2.2,0.2,2.1,0.8,2.9,2.6
				c0.8,1.8,1,3.8,1.1,5.7c0.1,1.4,0.1,2.9-0.3,4.2c-0.8,2.9-2.9,4.3-5.6,4.6c-2.8,0.3-5.3,0.9-8.2,0.7c-2.4-0.1-4.8-0.5-7.1-1.2
				c-2.4-0.7-3.9-1.6-5.8-3.1c-1.9-1.6-3.2-3.6-4.7-5.6c-0.3-0.4-0.5-0.7-0.7-1.1C279.7,66.4,281.7,63.1,283.3,62.2z"/>
			
				<linearGradient id="SVGID_10_" gradientUnits="userSpaceOnUse" x1="2686.9727" y1="460.9008" x2="2718.334" y2="460.9008" gradientTransform="matrix(-1 0 0 -1 3001.0728 512)">
				<stop  offset="4.947920e-02" style="stop-color:#FEB9B8"/>
				<stop  offset="0.9922" style="stop-color:#FEA5A4"/>
			</linearGradient>
			<path class="st26" d="M314.1,52.9c-2.1,5.1-3.8,5-3.6,12.4c0.1,7.4-0.3,8.2-5.6,9.9c-5.3,1.7-10.3,1.4-15.2-1.4
				c-4.9-2.9-6.8-7.7-6.9-9.8c-0.1-2.1,1.4-2.8,2-4.1s2.3-2.9,3.1-7.7c0.7-4.8-0.4-13.9-0.4-13.9s-2.1-9.2-0.6-11.3
				s11.6-0.4,11.6-0.4L314.1,52.9z"/>
			<path class="st21" d="M310.6,61.3c6.6,5.7,6.7,16.4,2.5,20.9c-3.7-2.4-6.5-2.7-6.5-2.7s-2,5.5-2.6,6c-5.2-0.1-8.2,0.9-15.1-2.6
				c-6.9-3.4-10.5-8.8-10.9-12.4c-0.7-5.3,1.1-7.9,3.2-8.9c2.1-1.1,3.6-2,3.6-2s-2,3.9-2.2,5.6c-0.3,1.6,2.3,8.2,9.2,10.9
				c6.3,2.5,12.3,1.4,12.3,1.4l1.7,1.4l0.7-2.3c0,0,2.2-1,3.4-5c0.3-1.2,0.4-2.4,0.4-3.7c0.1-3.2-0.2-6.3-0.2-6.3L310.6,61.3z"/>
			
				<linearGradient id="SVGID_11_" gradientUnits="userSpaceOnUse" x1="2645.6785" y1="408.201" x2="2668.2051" y2="408.201" gradientTransform="matrix(-1 0 0 -1 3001.0728 512)">
				<stop  offset="4.947920e-02" style="stop-color:#FEB9B8"/>
				<stop  offset="0.9922" style="stop-color:#FEA5A4"/>
			</linearGradient>
			<path class="st27" d="M349.1,108.9c0.5-1.3,1.4-2.1,1.7-2.3c0.3-0.2,3.5-1.4,3.7-1.4c0.1,0,0.8-0.5,1-1.1s-0.5-1.7-1.2-1.7
				s-4.5,1.1-4.5,1.1l-2.4,1.4l2.8-2.6c0,0,3.3-1,3.9-1.6c0.7-0.5-0.1-1.7-0.8-1.7c-0.7,0-4.8,0.5-4.8,0.5s-1.3,0.4-1.9,1
				c-0.7,0.6-3.9,4.3-3.9,4.3s2.5-4.7,3.2-5.5s1.7-1.1,1.7-1.1l4.7-1.9c0,0,1.5-1.7-0.1-2s-3.8,0-3.8,0s-4.5,1.6-4.8,2.1
				c-0.4,0.5-3.9,5.9-3.9,5.9s1.4-4.2,1.8-4.8c0.4-0.6,2.3-2.5,2.3-2.5s2.6-1.6,3.1-2.5s-0.2-1.6-1-1.8c-0.8-0.1-6.6,3.7-7.6,5.4
				c-1,1.7-1.8,6.7-1.8,6.7s-3.1,12.9-3.3,14.1c1.9-0.9,7.5-4.6,7.5-4.6s5.6-2.9,6.4-3.1S349.1,108.9,349.1,108.9z"/>
			
				<linearGradient id="SVGID_12_" gradientUnits="userSpaceOnUse" x1="2663.3467" y1="391.4381" x2="2738.1094" y2="391.4381" gradientTransform="matrix(-1 0 0 -1 3001.0728 512)">
				<stop  offset="4.947920e-02" style="stop-color:#FEB9B8"/>
				<stop  offset="0.9922" style="stop-color:#FEA5A4"/>
			</linearGradient>
			<path class="st28" d="M265.2,111.2c1.4,3.8,4.5,10.5,9.9,18.9c5.3,8.5,12.4,12,15.2,13.7c1.3,0.8,4.8,1,8.8,0.9
				c4.9-0.2,10.3-1,12.7-2.1c2.1-1,8.1-4.2,13.9-7.2c2.4-1.3,4.9-2.5,6.9-3.6c2.8-1.5,4.9-2.5,5.2-2.7c0.8-0.4-9.5,0.4-17.6,0.7H320
				c-3.2,0.1-6,0.2-7.7,0c-0.2,0-0.4,0-0.7-0.1c-5.9-0.7-14.1-5.1-16-5.9c-2-0.8-4.9-4.4-6.2-6.3c-1.4-1.9-5.4-11.7-7.9-18
				l-12.8-3.1c0,0-3,1-4.6,2.8c-0.3,0.4-0.6,0.8-0.8,1.2C262.3,103,263.9,107.4,265.2,111.2z"/>
			<path class="st17" d="M268.9,108c0.6,0,1.8-0.9,2.4-1.2c0.8-0.4,1.6-0.6,2.4-1c1.4-0.6,2.6-0.9,4.1-1.1c0.7-0.1,1.4-0.2,2-0.1
				c2.2,0.2,3.2,3.5,3.9,5.3c0.4,1.1,0.7,2.4,0.2,3.6c-0.3,0.6-0.7,1.1-1.1,1.6c-0.9,1.2-1.3,2.8-1.2,4.3c0.1,1.5,0.7,2.9,0.9,4.4
				c0.2,1.7-0.2,3.5-1.1,5c-0.2,0.4-0.6,0.8-1,0.8c-0.4,0.1-0.8-0.2-1.1-0.5c-0.7-0.6-1.4-1.3-2-2c-1-1.2-1.8-2.6-2.5-4
				c-2.2-3.9-4.3-7.8-6.5-11.8c-0.5-0.8-0.9-1.9-0.4-2.7C268.2,108.4,268.5,108.2,268.9,108z"/>
			<path class="st7" d="M265.2,111.2c1.4,3.8,4.5,10.5,9.9,18.9c5.3,8.5,12.4,12,15.2,13.7c1.3,0.8,4.8,1,8.8,0.9
				c0.4-0.2,0.7-0.4,1.1-0.6c3.1-1.8,5.9-4.1,9-5.7c1.4-0.7,2.8-1.2,4.1-2.1c1.3-0.8,2.9-1.5,4.5-1.8c1-0.2,2.1,0,3.1,0.1
				c1.5,0.2,3.1,0.5,4.7,0.7c2.4-1.3,4.9-2.5,6.9-3.6c-0.9-0.4-1.8-0.7-2.1-0.8c-3.3-0.8-6.8-1.1-10.2-1.2H320c-0.2,0-0.3,0-0.5,0
				c-2.6-0.1-5.2-0.1-7.8,0c-0.5,0-1.1,0-1.7,0.1c-2.2,0.1-4.3-0.1-6.5-0.3c-2-0.2-2.9-1.4-4.7-2.1c-0.9-0.3-1.9-0.5-2.8-0.7
				c-2.9-0.6-5.6-1.9-7.8-3.8c-1.1-0.9-2.3-2.1-3.7-2.1c1.6,2.3,3.3,4.7,5.9,5.6c1.5,0.6,3.4,0.7,4.2,2.1c-1.9,1.2-4,2-6.2,2.2
				c-0.9,0.1-1.9,0.1-2.8,0.3c-1.6,0.3-3.2,1.2-4.8,1.4c-0.3,0-0.6,0.1-0.9,0s-0.4-0.3-0.6-0.5c-1.5-1.8-2.9-3.7-4.1-5.6
				c-1.7-2.8-3.5-5.6-5.2-8.4c-0.9-1.4-1.7-2.8-2.6-4.2c-0.7-1.1-1.5-2.1-1.6-3.4s0.2-2.7,0.8-3.9c0.2-0.1,0.3-0.2,0.4-0.3l0,0
				c2.3-1,4.6-1.9,7-2.8c0.8-0.3,1.5-0.4,1.5-1.3c0-1-1-2-1.7-2.5c-1.2-0.8-2.7-1-4.1-1c-1.8,0-3.6,0.3-5.4,0.8
				c-0.3,0.4-0.6,0.8-0.8,1.2C262.3,103,263.9,107.4,265.2,111.2z"/>
			<path class="st7" d="M300.7,59.8c-3.3-1.2-5.9-3-7.9-6c-0.4-0.6-0.8-1.3-1-2c-0.8-2.4-1.5-7.4,2.5-6.7c1.5,0.3,2.9,0.8,4.3,1.4
				c2.6,1.1,5.1,2.3,7.5,3.6c1.8,1,3.7,2.1,5.1,3.7c1.6,1.7,4.3,6.4,0.6,7.3C308.5,62.1,303.8,61,300.7,59.8z"/>
			
				<linearGradient id="SVGID_13_" gradientUnits="userSpaceOnUse" x1="2677.4983" y1="474.7282" x2="2712.0588" y2="474.7282" gradientTransform="matrix(-1 0 0 -1 3001.0728 512)">
				<stop  offset="4.947920e-02" style="stop-color:#FEB9B8"/>
				<stop  offset="0.9922" style="stop-color:#FEA5A4"/>
			</linearGradient>
			<path class="st29" d="M310.9,14.3c4.5,1.3,9.9,2,11.3,7.6s1.9,16.3,0.4,21.7s-5.1,16.8-7.7,17.9c-2.6,1-18.3-5.4-21.9-9.6
				c-3.6-4.1-3.2-14.6-3.9-17.6c-0.7-3,0.7-11.1,1.6-14.2c0.8-3.1,11.9-6.7,14.1-7.1S310.9,14.3,310.9,14.3z"/>
			<path class="st13" d="M311.2,19.4c-5.2,1.8-11.8,1.9-13.8,6.5s-1.1,3.2-1.9,6.2s-2.4,8.2-2.8,9c-0.4,0.7-1.3-5.4-1.8-6.7
				c-0.4-1.3-3.6-3.3-4.4-2.9c-0.7,0.4-1.3,3.4-0.2,6.4c1.1,3,1.3,4.5,1.4,6.4s0.2,4.5,0.2,4.5s-1-3.4-3.7-6.8
				c-2.7-3.4-6-9.6-6.1-15s3.6-16.6,15-18.9c6.7-3.7,17-2.3,21.9,1.3s8.5,10.3,7.5,13.6c-1.8-5.6-4-5.4-4-5.4L311.2,19.4z"/>
			
				<linearGradient id="SVGID_14_" gradientUnits="userSpaceOnUse" x1="2710.2278" y1="473.4097" x2="2717.5793" y2="473.4097" gradientTransform="matrix(-1 0 0 -1 3001.0728 512)">
				<stop  offset="4.947920e-02" style="stop-color:#FEB9B8"/>
				<stop  offset="0.9922" style="stop-color:#FEA5A4"/>
			</linearGradient>
			<path class="st30" d="M286.1,32.7c-0.6-0.1-1.2,0.2-1.5,0.6c-0.4,0.4-1,1.2-1,1.8c-0.2,1.9,0.2,3.9,0.9,5.7
				c0.6,1.5,2.3,2.8,3.8,3.4c0.4,0.2,0.9,0.3,1.4,0.3c0.1,0,0.3,0,0.4-0.1c0.2-0.1,0.4-0.3,0.5-0.5c0.4-0.7,0.4-1.6,0.2-2.4
				c-0.2-0.8-0.6-1.5-0.8-2.3c-0.3-0.8-0.5-1.7-0.4-2.5c0.1-0.5,0.3-1,0.2-1.4c-0.2-0.6-1-1.2-1.5-1.6
				C287.7,33.4,286.8,32.8,286.1,32.7z"/>
			<g>
				
					<linearGradient id="SVGID_15_" gradientUnits="userSpaceOnUse" x1="2641.9824" y1="383.9225" x2="2721.0425" y2="383.9225" gradientTransform="matrix(-1 0 0 -1 3001.0728 512)">
					<stop  offset="4.947920e-02" style="stop-color:#FEB9B8"/>
					<stop  offset="0.9922" style="stop-color:#FEA5A4"/>
				</linearGradient>
				<path class="st31" d="M280,136.5c0.1,1,0.6,1.5,0.8,1.7l0.1,0.1l0.4-0.2h0.1l2.1-0.8c0,0,3.8-1.7,4.8-2.1c0.1,0,0.2-0.1,0.3-0.1
					c-0.2,0.1-3.5,2.1-3.6,2.3c-0.1,0.1-0.8,0.6-1.4,1.1c-0.6,0.4-1.1,0.8-1.1,0.9c0,0.1-0.1,1.4,0.5,2.2c0.2,0.3,0.5,0.4,0.7,0.5
					c0.5,0.2,1.1,0,1.1,0s-0.3,0.7-0.1,1.3c0,0.2,0.2,0.5,0.3,0.6c0.2,0.2,0.3,0.3,0.6,0.4l0,0c0.9,0.5,2.1,0.7,2.2,0.9
					c0,0.2-0.3,1.5,0.3,2.2c0.6,0.8,2.7,0.5,3.5,0.5s4.4-1.8,6.3-3.2c1.8-1.4,10.2-5.3,12.2-6.9c1.9-1.6,3.3-2.9,6.5-3.7
					s10-0.3,17.4-1.1s17.3-4.1,18.2-4.7c0.9-0.6,4.5-1,6.5-5.2c0.3-1.3,0.4-2.7,0.5-4l0,0c0-1.9-0.2-3.8-0.5-5.6
					c-0.5-2.9-1.3-4.4-4.2-5.1c-2.3-0.5-4.9-0.3-7.3-0.4c0,0-12.7,8.5-12.9,8.5c-0.2,0-4.9,2.2-8.4,3.2s-17.3,5.2-20.6,5.3
					c-3.3,0.1-8.9-2.6-10.5-3.1s-5.5-0.6-5.5-0.6s-1.8-1-2.5-2s-1.8-1-2.4-0.8c-0.1,0-0.2,0.1-0.3,0.2c-0.3,0.3-0.1,0.8,0.2,1.6
					c0.4,0.9,0.8,1.8,1.5,2.5c0.7,0.8,4,1.8,4.9,2c0.8,0.1,3.8,0.9,3.8,0.9s-0.3,0.5-1.2,1.4l0,0c-0.4,0.3-0.8,0.7-1.4,1.1
					c-2.1,1.6-9.1,4.8-9.2,4.8C282.3,133.1,279.9,135.2,280,136.5z"/>
				<path class="st17" d="M318.7,129.1c0.1,0,0.1,0.1,0.1,0.1c5.4-0.3,10.7-0.7,16.1-1c2.7-0.2,5.4-0.3,8-0.5
					c2.2-0.1,4.3-0.9,6.3-1.7c1.8-0.6,4.6-1.5,5.3-3.5c0.6-2.1,1.1-4.9,0.6-7c-0.4-1.8-1.8-3.5-3.6-3.7c-1.1-0.2-2.2,0.2-3.2,0.6
					c-2.9,1-5.7,1.9-8.6,2.9c-1.8,0.6-3.5,1.4-5.2,2.3c-3.3,1.8-7.1,2.8-10.7,4.1c0.1-0.1,0.2-0.2,0.3-0.2c-1.6,0.5-3.3,1-4.9,1.5
					c-1.3,0.4-2.3,0.3-2.3,1.9c0,0.8,0,1.6,0,2.3c0,0.2,0,0.4,0.1,0.5c0.1,0.2,0.2,0.3,0.4,0.4C317.7,128.1,318.3,128.9,318.7,129.1
					z"/>
				<path class="st7" d="M291.3,147.6c-1.3,0-3.2,0-3.2,0c0.6,0.8,2.7,0.5,3.5,0.5s4.4-1.8,6.3-3.2c1.8-1.4,10.2-5.3,12.2-6.9
					c1.9-1.6,3.3-2.9,6.5-3.7s10-0.3,17.4-1.1s17.3-4.1,18.2-4.7c0.9-0.6,4.5-1,6.5-5.2c0.3-1.3,0.4-2.7,0.5-4
					c-0.8,3.9-1.8,4.8-5.1,6.7c-4.4,2.6-13.2,5.4-22.5,5.6c-9.3,0.2-15.2,0.6-17,1.3c-1.8,0.6-8.4,6-11.4,8.3
					C300.1,143.5,292.6,147.6,291.3,147.6z"/>
				<path class="st7" d="M285.6,144.4c0.9,0.5,2.1,0.7,2.2,0.9c0,0.2-0.3,1.5,0.3,2.2l-0.3-1.3l1.6-0.6l3.7-1c0,0,2.8-3.2,3.6-4
					c-1.2,0.8-6.6,4-6.6,4l-2.3,0.1C287.8,144.8,286,144.5,285.6,144.4z"/>
				<path class="st7" d="M293.1,127l2.9-2c0,0-4.1-0.1-5-0.6c-1-0.5-3.2-1.1-4.8-2.6c-0.7-0.6-1.6-1.9-2.3-3.2
					c-0.3,0.3-0.1,0.8,0.2,1.6c0.4,0.9,0.8,1.8,1.5,2.5c0.7,0.8,4,1.8,4.9,2c0.8,0.1,3.8,0.9,3.8,0.9S294.1,126.1,293.1,127z"/>
				<path class="st7" d="M286.7,141.1c0,0-1.6,0.5-3,0.8c0.5,0.2,1.1,0,1.1,0s-0.3,0.7-0.1,1.3l0.4-0.7l2.5-1l6.2-4L286.7,141.1z"/>
				<path class="st7" d="M285,137.3c-0.1,0.1-0.8,0.6-1.4,1.1l3.4-1.2l6.7-4c-0.5,0.2-3.3,1.2-5.1,1.8
					C288.4,135.1,285.1,137.1,285,137.3z"/>
				<path class="st7" d="M287.1,135.4c-0.2-0.1-4.8,2.2-5.7,2.6l2.1-0.8c0,0,3.8-1.7,4.8-2.1C287.7,135.3,287.2,135.4,287.1,135.4z"
					/>
				<path class="st7" d="M280.9,138.1C280.9,138.2,280.9,138.2,280.9,138.1l0.5-0.1C281.2,138.1,281.1,138.1,280.9,138.1z"/>
			</g>
			<path class="st21" d="M264,77.7c-2.6,1.1-3.7,5.3-4.1,7.6c-0.4,2.3-0.9,20.5-0.9,21.7c0.1,1.1,5.5,2.2,5.5,2.2s0.9-3.5,4.4-4.6
				s14.6-1.2,14.6-1.2s-4.6-16.5-6.1-19.3s-4.6-5.8-7.3-6.3C267.4,77.2,264,77.7,264,77.7z"/>
		</g>
		<path class="st32" d="M173.3,100.5c-2.5-1.7-5.8-4.2-6.7-4.8s-0.7-9.9-0.4-10.9s1.7-2,2.7-2s9.5,2.3,21.2-1.3c7.9-2.4,7-4.7,7-4.7
			s0.6-0.2,1,0.1c0.4,0.3,7.6,4.9,7.6,4.9l-19.1,11.4L173.3,100.5z"/>
		<g>
			<path class="st33" d="M174.6,86.1c0,0,19.4-2.2,25.2-7.2c0.6-0.2,1.2-0.1,1.6,0.2l4.4,2.8c-0.4-0.3-1-0.4-1.6-0.2
				c-1.4,6.4-25.2,7.2-25.2,7.2c-1.3,0.4-2.4,1.9-2.4,3.3l0.2,9.4c0,0.8,0.3,1.4,0.9,1.7l-4.4-2.8c-0.5-0.3-0.8-0.9-0.9-1.7
				l-0.2-9.4C172.3,87.9,173.3,86.4,174.6,86.1z"/>
			<g>
				<path class="st34" d="M179,88.9c-1.3,0.4-2.4,1.9-2.4,3.3l0.2,9.4c0,1.4,1.1,2.3,2.4,1.9c0,0,16.3-1.2,25.2-7.2
					c1.1-0.8,2.4-1.8,2.4-3.3l-0.2-9.4c0-1.4-1.4-2.8-2.4-1.9C198.4,86.3,179,88.9,179,88.9z"/>
			</g>
		</g>
		<path class="st32" d="M325.6,27.7l-2.6-1.5v1.1c0,0-3.4,2.4-10.6,4.1c-6.8,1.6-12.1,2.1-13.5,1.9c-1-0.2-3.1-1-4.8-1.1
			c-0.8,0-1.5,0.4-1.9,0.6c-1.2,0.8-1.1,1.1-1.1,3.1c0,2.1,0.7,8.7,0.8,9.8s6.4,3.9,6.4,3.9L325.6,27.7z"/>
		<g>
			<path class="st33" d="M299,34.8c0,0,19.6-2.5,25.2-7.2c0.5-0.2,1.1-0.1,1.5,0.1L330,30c-0.4-0.2-0.9-0.3-1.5-0.1
				c-1.5,6.4-25.2,7.2-25.2,7.2c-1.3,0.4-2.3,1.9-2.2,3.3l0.6,9.7c0,0.9,0.5,1.5,1.1,1.8l-4.4-2.3c-0.6-0.3-1-1-1.1-1.8l-0.6-9.7
				C296.7,36.7,297.7,35.2,299,34.8z"/>
			<g>
				<path class="st19" d="M303.3,37.1c-1.3,0.4-2.3,1.9-2.2,3.3l0.6,9.7c0.1,1.5,1.2,2.3,2.5,2c0,0,18.1-2,25.2-7.2
					c1.1-0.8,2.3-1.9,2.2-3.3l-0.6-9.7c-0.1-1.4-1.4-2.7-2.5-2C321.2,34.5,303.3,37.1,303.3,37.1z"/>
			</g>
		</g>
		<path class="st35" d="M320,31.8c-2.1,0.7-6.6,2.1-6.9,2.1s-1.6-1.7-2-5.4c-0.5-3.7-0.4-12.4-9.1-16.4s-12.2-2.9-12.2-2.9
			s4.3-2,8.3-2.7c6.3,0.1,8.2,1.2,11.5,3.5s6,6.6,6.7,9.5s0.9,6.7,1.2,8.4C317.8,29.5,320,31.8,320,31.8z"/>
		<path class="st35" d="M297.7,39.5c0.1,3.1,0.3,7.7,0.1,7.8c-0.1,0.1-11.9-4.7-14.9-6.3c-3-1.5-4.5-9.3-4.7-11.7
			c3.1,3.1,7.6,5.7,11.2,7.3C293.1,38.4,297.7,39.5,297.7,39.5z"/>
		<path class="st35" d="M195.5,83c-1.1-1.3-3-3.4-2.7-10.3s-5-14.4-10.2-17.5c-5.2-3-8.5-2.8-8.5-2.8s-5.4,0.2-11.6,3.6
			c14.2-1.5,16.5,4.4,18.1,7c1.7,2.5,3.7,5.4,4.3,9.7c0.6,4.4-1.4,8.3,2,12.4C192.1,84.5,195.5,83,195.5,83z"/>
		<path class="st35" d="M173.2,91.8V99c0,0-13.3-7.1-16-10.3c-1.8-2.2-2.6-6.9-3-10.8c5.8,6,9.9,8.4,13.2,10.5
			C170.8,90.5,173.2,91.8,173.2,91.8z"/>
		<path class="st5" d="M318.2,37l2.3-0.6c0.4-0.1,0.6-0.5,0.7-0.9V35c0-0.4-0.3-0.6-0.6-0.5l-2.3,0.6c-0.4,0.1-0.6,0.5-0.7,0.9v0.5
			C317.5,36.8,317.8,37.1,318.2,37z"/>
		<path class="st5" d="M192.5,89.9l2.3-0.7c0.3-0.1,0.6-0.5,0.6-0.9v-0.5c0-0.4-0.3-0.6-0.6-0.5l-2.3,0.7c-0.3,0.1-0.6,0.5-0.6,0.9
			v0.5C191.9,89.8,192.2,90,192.5,89.9z"/>
		<g>
			<path class="st6" d="M279.3,171.6c-0.3,0-0.6,0-0.9,0v-1c13.7,0.6,18.8-11.5,18.9-11.6l0.9,0.4
				C298.1,159.4,292.9,171.6,279.3,171.6z"/>
		</g>
		<g>
			<path class="st6" d="M341.4,159.1c0,0-3.3-3.8-5.7-7.9l0.8-0.5c2.3,4,5.5,7.8,5.6,7.8L341.4,159.1z"/>
		</g>
		<g class="st36">
			
				<linearGradient id="SVGID_16_" gradientUnits="userSpaceOnUse" x1="2649.2419" y1="312.367" x2="2550.3037" y2="483.733" gradientTransform="matrix(-1 0 0 -1 3001.0728 512)">
				<stop  offset="0.1703" style="stop-color:#4BB0C1"/>
				<stop  offset="0.9378" style="stop-color:#71C1C9"/>
			</linearGradient>
			<polygon class="st37" points="441.3,22.8 361.3,69 361.3,205.1 441.3,158.9 			"/>
			
				<linearGradient id="SVGID_17_" gradientUnits="userSpaceOnUse" x1="2671.0439" y1="324.9544" x2="2612.1016" y2="427.0456" gradientTransform="matrix(-1 0 0 -1 3001.0728 512)">
				<stop  offset="0.1703" style="stop-color:#4BB0C1"/>
				<stop  offset="0.9378" style="stop-color:#80DAE4"/>
			</linearGradient>
			<polygon class="st38" points="357.7,66.9 361.3,69 361.3,205.1 357.7,203 			"/>
			
				<linearGradient id="SVGID_18_" gradientUnits="userSpaceOnUse" x1="2644.4492" y1="322.9671" x2="2556.5962" y2="475.1329" gradientTransform="matrix(-1 0 0 -1 3001.0728 512)">
				<stop  offset="0.1703" style="stop-color:#3DBDD8"/>
				<stop  offset="0.9378" style="stop-color:#65D0E0"/>
			</linearGradient>
			<polygon class="st39" points="435.7,153.5 435.7,31.8 365.4,72.4 365.4,194.1 			"/>
			
				<linearGradient id="SVGID_19_" gradientUnits="userSpaceOnUse" x1="2621.5801" y1="432.4964" x2="2581.5654" y2="501.8036" gradientTransform="matrix(-1 0 0 -1 3001.0728 512)">
				<stop  offset="0.1703" style="stop-color:#4BB0C1"/>
				<stop  offset="0.9378" style="stop-color:#71C1C9"/>
			</linearGradient>
			<polygon class="st40" points="357.7,66.9 361.3,69 441.3,22.8 437.7,20.7 			"/>
			
				<linearGradient id="SVGID_20_" gradientUnits="userSpaceOnUse" x1="2591.0415" y1="373.2281" x2="2537.6077" y2="465.7782" gradientTransform="matrix(-1 0 0 -1 3001.0728 512)">
				<stop  offset="0.1703" style="stop-color:#4BB0C1"/>
				<stop  offset="0.9378" style="stop-color:#71C1C9"/>
			</linearGradient>
			<polygon class="st41" points="435.7,153.5 437.1,154.4 437.1,31 435.7,31.8 			"/>
			
				<linearGradient id="SVGID_21_" gradientUnits="userSpaceOnUse" x1="2618.1167" y1="306.064" x2="2582.2251" y2="368.2298" gradientTransform="matrix(-1 0 0 -1 3001.0728 512)">
				<stop  offset="0.1703" style="stop-color:#4BB0C1"/>
				<stop  offset="0.9378" style="stop-color:#71C1C9"/>
			</linearGradient>
			<polygon class="st42" points="435.7,153.5 437.1,154.4 365.4,195.8 365.4,194.1 			"/>
			<polygon class="st43" points="374.8,173.6 427.8,142.9 427.8,53.5 374.8,84.1 			"/>
		</g>
		<g class="st36">
			<g>
				
					<linearGradient id="SVGID_22_" gradientUnits="userSpaceOnUse" x1="2723.2771" y1="76.0207" x2="2759.5684" y2="138.8792" gradientTransform="matrix(-1 0 0 -1 3001.0728 512)">
					<stop  offset="0" style="stop-color:#00C2E3"/>
					<stop  offset="1" style="stop-color:#00C2E3"/>
				</linearGradient>
				<polygon class="st44" points="259.4,446.6 332.4,404.4 259.9,362.5 186.9,404.7 				"/>
				<polygon class="st45" points="259.5,428.8 259.5,272.4 215.2,246.9 215.2,403.3 				"/>
				<polygon class="st46" points="259.5,272.4 304.1,246.7 259.8,221.1 215.2,246.9 				"/>
				<polygon class="st43" points="304.1,246.7 304.1,403.1 259.5,428.8 259.5,272.4 				"/>
			</g>
			<g>
				<g>
					<path class="st47" d="M286,227.8c-0.3-0.5-7.2-11.7,0.6-21.3c4.6-5.7,6.4-17,4.6-22.3c-0.4-1-0.8-1.7-1.3-1.8
						c-3.5-0.8-8.8,4.9-10.1,9.8l-4.4-1.2c1.8-6.3,8.6-14.6,15.5-13c1.4,0.3,3.4,1.4,4.6,4.8c2.3,6.6,0.5,19.4-5.3,26.7
						c-5.8,7.1-0.3,15.9-0.3,16L286,227.8z"/>
				</g>
				<path class="st48" d="M228.2,209c-0.1-5.4,0.6-10.4,10.2-18.2c9.6-7.7,32.7,10.3,32.9,17c0.1,6.7-7.3,19-7.3,19
					s-8.6,2.7-14.8,2.3s-12.1-2.7-12.1-2.7s-5.9-5.6-6-5.8s-2.2-4.5-2.4-6.4c-0.2-1.8-0.3-3.4-0.3-3.7
					C228.2,210.3,228.2,209,228.2,209z"/>
				<path class="st43" d="M228.3,212.4c0.4,3.3,0.4,3.6,1,6.1l0.7,2.8c0.3,0.9,0.7,2.2,1,3.1l1,2.8c0.3,0.9,0.8,2.1,1.1,2.9l1.1,2.7
					c0.4,0.8,0.8,1.9,1.2,2.7l1.1,2.5c0.3,0.7,0.8,1.7,1.2,2.4l1.1,2.2c0.3,0.6,0.7,1.5,1.1,2.1l1,1.8c0.3,0.5,0.6,1.1,0.9,1.6
					l0.7,1.3c0.2,0.3,0.4,0.8,0.6,1.1l0.4,0.7c0.1,0.1,0.2,0.3,0.2,0.4c0.8,1.4,2.2,2.7,4.1,3.7c6.4,3.6,16.5,3.4,22.6-0.2
					c1.7-1,2.9-2.2,3.6-3.4c0.1-0.1,0.2-0.3,0.2-0.4c0.1-0.2,0.3-0.5,0.4-0.7l0.6-1.1c0.2-0.4,0.5-0.9,0.8-1.3l0.9-1.6
					c0.3-0.6,0.7-1.3,1-1.8l1.1-2c0.3-0.7,0.8-1.6,1.1-2.2l1.2-2.4c0.4-0.8,0.8-1.8,1.2-2.6l1.2-2.6c0.3-0.8,0.8-1.9,1.2-2.8
					l1.1-2.8c0.3-0.9,0.7-2,1-2.9l0.9-2.8c0.2-0.9,0.6-2.1,0.8-3.1l0.6-2.7c0.1-1,0.4-2.3,0.5-3.3l0.1-2.4c0-1.2-0.1-2.9-0.3-4.1
					c0.1,0.7,0.2,1.5,0.1,2.2c-0.2,4.2-3,8.4-8.5,11.7c-10.3,6.2-26.6,7.1-38.7,2.5c-0.6,0-1.4-0.1-1.9-0.1
					c-8.1-1-12.2-5.5-12.1-13.3v2.4L228.3,212.4L228.3,212.4z"/>
				<path class="st48" d="M238.4,190.9c0.2,3.4,3.7,7.3,9.6,10.7c4.4,2.6,9.7,4.3,10.3,4.4c3.8,1.2,7.1,2.2,7.7,3
					c0.3,0.4,0.4,1.1,0.3,1.6c-0.8,3.8-16.1,11.4-24,11.8c12.1,4.6,28.3,3.7,38.7-2.5c5.5-3.3,8.3-7.5,8.5-11.7
					c-1.9-12-10.3-10.8-9.9-17.6c-0.1,2.8-2,5.7-5.7,7.9c-7.9,4.7-20.9,4.9-29.1,0.3c-4.1-2.3-6.2-5.3-6.3-8.3
					C238.4,190.6,238.4,190.7,238.4,190.9L238.4,190.9z"/>
				<path class="st43" d="M242.3,164.6L242.3,164.6c8.9-5.3,23.5-5.5,32.8-0.3c7.7,4.3,9.2,10.9,4.4,16.1c-4,4.2-6.9,6.2-9.2,7.6
					l0,0c-7.5,4.6-17.2,7.3-31.7-7.7C234,175.2,235.2,168.9,242.3,164.6z"/>
				<g>
					
						<linearGradient id="SVGID_23_" gradientUnits="userSpaceOnUse" x1="2714.3835" y1="333.3" x2="2716.4031" y2="333.3" gradientTransform="matrix(-1 0 0 -1 3001.0728 512)">
						<stop  offset="0.1703" style="stop-color:#4BB0C1"/>
						<stop  offset="0.9378" style="stop-color:#80DAE4"/>
					</linearGradient>
					<path class="st49" d="M284.7,181.4c1.2-1.7,1.8-3.6,1.9-5.4C287,178.1,286,179.8,284.7,181.4z"/>
					
						<linearGradient id="SVGID_24_" gradientUnits="userSpaceOnUse" x1="2716.4028" y1="329.45" x2="2718.218" y2="329.45" gradientTransform="matrix(-1 0 0 -1 3001.0728 512)">
						<stop  offset="0.1703" style="stop-color:#4BB0C1"/>
						<stop  offset="0.9378" style="stop-color:#80DAE4"/>
					</linearGradient>
					<path class="st50" d="M282.9,183.6c0.6-0.7,1.2-1.4,1.8-2.1C284.2,182.2,283.6,182.9,282.9,183.6z"/>
					<path class="st51" d="M231.9,179.6c-0.2-0.5-0.3-1-0.4-1.5c0,0,0,0,0,0.1v-0.1l0,0c-0.1-0.3-0.1-0.6-0.2-1c0-0.1,0-0.1,0-0.2
						v-0.1c0,0,0,0,0,0.1c0-0.7,0.1-1.4,0.1-2c0-0.7,14.9,13,17.6,15.5c10.1,2.3,21.9,1,29.9-3.8c1.6-0.9,2.8-2,3.9-3
						c-1.6,1.9-3.2,4.1-3.3,7c-0.1,2.8-2,5.7-5.7,7.9c-7.9,4.7-20.9,4.9-29.1,0.3c-4.1-2.3-6.2-5.3-6.3-8.3c-0.1-1.6-0.6-3-1.2-4.2
						c0,0,0,0-0.1-0.1c-2.1-1.4-4-3.4-5-6.1V180l0,0c0-0.1-0.1-0.2-0.1-0.3C231.9,179.7,231.9,179.6,231.9,179.6z"/>
				</g>
				<path class="st47" d="M231.5,175.9c0.2,4.1,3,8.1,8.5,11.1c11,6.1,28.5,6,39-0.4c4.9-3,7.5-6.7,7.7-10.6c0-0.7,0-1.5-0.2-2.2
					c-0.4-1.6-1.6-6.4-8.6-10.1c-9.2-4.9-25.1-7-38.3,0.3c0,0-0.1,0-0.2,0.1l0,0c-2.3,1.5-6.6,4.3-7.7,9.6
					C231.5,174.4,231.4,175.1,231.5,175.9z M242.3,164.6c8.9-5.3,23.5-5.5,32.8-0.3c9.2,5.2,9.5,13.7,0.7,19
					c-8.9,5.3-23.5,5.5-32.8,0.3C233.8,178.4,233.4,169.9,242.3,164.6z"/>
				<g>
					<path class="st47" d="M237.2,242.9v-4.6c0,0,0,0-0.1,0c0.1-0.1,0.6-0.6,0.7-1.6c0.2-1,0-2-0.5-2.4c-1-1-2.5-1.6-4.1-2.3
						c-4.9-2.1-10.9-4.7-11.7-18.8c-0.7-12.2,5.1-15.7,7.7-16.7c4.5-1.7,10,0,13.1,3.9l-3.6,2.8c-1.8-2.3-5.2-3.4-7.9-2.4
						c-3.4,1.3-5.1,5.7-4.7,12.1c0.6,11.2,4.7,13,9,14.8c1.9,0.8,3.8,1.7,5.5,3.3c2.2,2.1,2.3,5.8,1.3,8.3
						C240.9,241.5,239.2,242.9,237.2,242.9z"/>
				</g>
			</g>
		</g>
		<g>
			<polygon class="st52" points="259.5,429.8 214.4,403.8 214.4,246.4 234.9,234.7 235.8,236.2 216.1,247.3 216.1,402.8 
				259.5,427.9 303.2,402.6 303.2,247.2 282.4,235.2 283.3,233.7 305,246.2 305,403.6 			"/>
		</g>
		<g>
			<path class="st52" d="M258.9,258.9c-4.1,0-8.3-0.9-11.5-2.7c-2-1.1-3.5-2.5-4.4-4l-4.6-8.6c-0.4,0.1-0.8,0.1-1.1,0.1h-0.8
				l-0.1-4.3l-1.7-3.6c-0.2-0.5-0.5-1.2-0.8-1.8l-0.4-1l-0.4-0.2c-4.8-2.1-11.4-4.9-12.2-19.5c-0.7-12.8,5.5-16.5,8.3-17.5
				c1.2-0.4,2.4-0.7,3.7-0.7c1.4-1.5,3-3,4.9-4.6c-0.1-1.2-0.4-2.4-1-3.6c-2.5-1.7-4.3-3.9-5.2-6.4l-0.1-0.4l0.8-0.5l-0.8,0.2
				c-0.2-0.6-0.3-1.1-0.4-1.7c-0.1-0.4-0.1-0.7-0.2-1.1v-0.3l0,0c0-0.4,0-0.7,0-1.1c0-0.3,0-0.6,0-0.9v-0.5h0.1
				c0-0.3,0.1-0.6,0.1-0.8c1.2-5.7,5.7-8.6,8.1-10.1l0.2-0.1l0,0l0,0l0,0l0.7-0.4l0,0c13.4-7,29.2-4.9,38.4,0.1
				c4.4,2.4,6.6,5.2,7.8,7.4l0.1-1.3l0.5,2.4c0.4,0.9,0.6,1.7,0.7,2.2c0.2,0.8,0.2,1.6,0.2,2.4c0.1,0.3,0.1,0.7,0.1,1
				c1.2-0.2,2.4-0.2,3.6,0c1.7,0.4,3.9,1.6,5.2,5.3c2.4,6.8,0.5,20-5.5,27.5c-0.1,0.2-0.2,0.3-0.4,0.5l0,0l-0.1,2.2
				c-0.1,0.8-0.2,1.8-0.4,2.7l-0.1,0.7l-0.6,2.8c-0.1,0.5-0.3,1.1-0.5,1.7c0.7,2.6,1.8,4.4,1.8,4.4l0.4,0.7l-4.9,3.1l-0.7,1.8
				c-0.2,0.6-0.6,1.4-0.9,2.1l-1.5,3.4c-0.2,0.5-0.5,1.2-0.8,1.8l-4.7,9.4l-2.9,5.1c-0.9,1.5-2.2,2.7-3.9,3.8
				C267.6,257.9,263.2,258.9,258.9,258.9z M239.2,241.5l5.2,9.8c0.7,1.3,2,2.5,3.8,3.4c6.1,3.4,15.9,3.3,21.7-0.2
				c1.5-0.9,2.6-2,3.3-3.1l3.9-7l3.7-7.4c0.3-0.6,0.6-1.2,0.8-1.7l1.5-3.3c0.3-0.7,0.6-1.4,0.8-2l1.7-4.5l0.7,1.2l2.4-1.5
				c-0.4-0.9-1.2-2.4-1.6-4.3l-0.1-0.2l0.1-0.2c0.2-0.7,0.4-1.3,0.5-1.9l0.7-3.3c0.1-0.9,0.3-1.8,0.4-2.6l0.1-2.6l0.3-0.4
				c0.1-0.2,0.3-0.4,0.4-0.6c5.7-7,7.4-19.4,5.2-25.8c-1-3-2.7-4-3.9-4.2c-1.2-0.3-2.6-0.2-4,0.2l-1.5,0.5l0.4-1.5
				c0.1-0.2,0.1-0.4,0.1-0.6h-0.2c0.1-0.4,0.1-0.8,0.2-1.3c0-0.7,0-1.4-0.1-2c-0.4-1.4-1.5-6-8.1-9.6c-9-4.8-24.5-6.8-37.5,0.3
				l-0.3,0.2c-2,1.3-6.1,4-7.2,9c-0.1,0.4-0.1,0.7-0.1,1.1v0.5c0,0.1,0,0.3,0,0.4c0,0.3,0,0.7,0,1l0,0v0.2c0,0.3,0.1,0.5,0.1,0.8
				l-0.5,0.1l0.5-0.1L232,178l0.3-0.1h-0.1h0.1c0.1,0.5,0.2,1,0.3,1.4l0.1,0.2l-0.8,0.4l0.8-0.2c0,0,0,0,0,0.1l0,0l0,0
				c0,0,0,0,0,0.1c0.9,2.3,2.5,4.1,4.7,5.6l0.3,0.3c0.8,1.5,1.3,3,1.3,4.6l0,0v0.3l0,0v0.1v0.4l-0.3,0.3c-2.1,1.7-3.8,3.3-5.3,4.9
				l-0.3,0.3h-0.4h-0.1c-1.2,0-2.4,0.2-3.4,0.6c-2.4,0.9-7.8,4.2-7.1,15.8l0,0c0.8,13.5,6.3,15.9,11.2,18l1.1,0.5l0.7,1.6
				c0.3,0.6,0.5,1.3,0.8,1.8l1.8,4.1v2.7c0.1,0,0.3-0.1,0.4-0.1L239.2,241.5z M233.2,228.1l-2.1-1.4c-3.7-2.4-5.5-6.5-5.9-13.7
				c-0.3-5.7,1-9.9,3.6-12l2.5-2l-1.2,2.9c-0.9,2.3-1.1,4.5-1.1,7c0,0,0,1.2,0,1.6l0.1,1.7c0.4,3.2,0.4,3.5,1,5.9l0.9,3.4
				c0.2,0.8,0.5,1.7,0.7,2.4L233.2,228.1z M227.4,206.6c-0.5,1.7-0.6,3.9-0.5,6.3c0.3,5.4,1.4,8.4,2.8,10.3c-0.1-0.3-0.2-0.7-0.3-1
				l-0.2-0.7l-0.7-2.8c-0.6-2.5-0.6-2.8-1-6.2l-0.1-1.8c0-0.3,0-1.6,0-1.6C227.4,208.2,227.4,207.4,227.4,206.6z M288.2,205.9
				l-0.7-1.7c-1.3-3.4-3.3-5.1-5.1-6.7c-1.7-1.5-3.3-2.9-3.7-5.3l-0.2-1.3l0.7,0.2c1.8-5.1,7-10.4,10.9-9.6c1,0.2,1.6,1.4,1.9,2.4
				c1.7,5,0.4,14.4-2.9,20.4L288.2,205.9z M280.6,192.4c0.4,1.5,1.6,2.5,3,3.8c1.5,1.3,3.3,3,4.8,5.7c2.7-6,3.3-13.8,2-17.5
				c-0.3-0.9-0.6-1.3-0.7-1.3C286.9,182.5,282,187.5,280.6,192.4L280.6,192.4z"/>
		</g>
		<g>
			<path class="st52" d="M361.3,206.1l-4.4-2.6V66.4l0.4-0.2l80.4-46.4l4.4,2.6v137.1l-0.4,0.2L361.3,206.1z M358.5,202.5l2.7,1.6
				l79.1-45.7V23.3l-2.7-1.6l-79.1,45.7V202.5z"/>
		</g>
		<path class="st3" d="M211.1,137.7c0,0-5.3,4.3-8.6,5.6c-0.6-9.5,0.2-8.9,0.2-8.9l6.1-2.8L211.1,137.7z"/>
		<path class="st10" d="M203.2,133.4l0.3,24.9c0,0-4.9-2-5.8-4.9c-0.9-2.9,1.2-18.8,1.2-18.8L203.2,133.4z"/>
	</g>
</g>
</svg>
