<?xml version="1.0" encoding="utf-8"?>
<!-- Generator: Adobe Illustrator 23.0.5, SVG Export Plug-In . SVG Version: 6.00 Build 0)  -->
<svg version="1.1" id="Layer_1" xmlns="http://www.w3.org/2000/svg" xmlns:xlink="http://www.w3.org/1999/xlink" x="0px" y="0px"
	 viewBox="0 0 554.1 432.3" style="enable-background:new 0 0 554.1 432.3;" xml:space="preserve">
<style type="text/css">
	.st0{fill:#00B7FF;}
	.st1{fill:#EDF6FF;}
	.st2{fill:#00CFFF;}
	.st3{fill:#7C56FE;}
	.st4{fill:#94E9FF;}
	.st5{opacity:0.84;}
	.st6{fill:url(#SVGID_1_);stroke:#00CFFF;stroke-miterlimit:10;}
	.st7{display:none;fill:#4B6DFF;}
	.st8{fill:#FFFFFF;}
	.st9{fill:none;}
	.st10{fill:#FFA409;}
	.st11{fill:#FF9300;}
	.st12{fill:#FF8300;}
	.st13{fill:url(#SVGID_2_);}
	.st14{fill:#3FB6FF;}
	.st15{fill:url(#SVGID_3_);}
	.st16{fill:url(#SVGID_4_);}
	.st17{fill:url(#SVGID_5_);}
	.st18{fill:url(#SVGID_6_);}
	.st19{fill:url(#SVGID_7_);}
	.st20{fill:url(#SVGID_8_);stroke:#00CFFF;stroke-miterlimit:10;}
	.st21{fill:url(#SVGID_9_);}
	.st22{fill:url(#SVGID_10_);}
	.st23{fill:url(#SVGID_11_);}
	.st24{fill:url(#SVGID_12_);}
	.st25{fill:url(#SVGID_13_);}
	.st26{fill:url(#SVGID_14_);}
	.st27{opacity:0.34;}
	.st28{fill:url(#SVGID_15_);}
	.st29{fill:url(#SVGID_16_);}
	.st30{fill:#FFFFFF;stroke:#00CFFF;stroke-miterlimit:10;}
	.st31{fill:url(#SVGID_17_);stroke:#00CFFF;stroke-miterlimit:10;}
	.st32{fill:#5555FF;}
	.st33{fill:#5C40C2;}
	.st34{fill:none;stroke:#00CFFF;stroke-width:3;stroke-miterlimit:10;}
	.st35{fill:#4B6DFF;}
	.st36{fill:url(#SVGID_18_);}
	.st37{fill:url(#SVGID_19_);}
	.st38{fill:url(#SVGID_20_);}
	.st39{fill:url(#SVGID_21_);}
	.st40{fill:url(#SVGID_22_);}
	.st41{fill:url(#SVGID_23_);}
	.st42{fill:url(#SVGID_24_);}
	.st43{fill:url(#SVGID_25_);}
	.st44{fill:url(#SVGID_26_);}
	.st45{fill:url(#SVGID_27_);}
	.st46{fill:url(#SVGID_28_);}
	.st47{fill:url(#SVGID_29_);}
	.st48{fill:url(#SVGID_30_);}
	.st49{fill:url(#SVGID_31_);}
	.st50{fill:url(#SVGID_32_);}
	.st51{fill:url(#SVGID_33_);}
	.st52{fill:url(#SVGID_34_);}
	.st53{fill:url(#SVGID_35_);}
	.st54{fill:#EDEEEF;}
	.st55{fill:url(#SVGID_36_);}
	.st56{opacity:0.52;fill:#FFFFFF;enable-background:new    ;}
	.st57{fill:url(#SVGID_37_);}
	.st58{fill:url(#SVGID_38_);}
	.st59{fill:url(#SVGID_39_);}
	.st60{fill:#FFA871;}
	.st61{fill:url(#SVGID_40_);}
	.st62{fill:url(#SVGID_41_);}
	.st63{fill:#FBA36F;}
	.st64{fill:#E99566;}
	.st65{fill:#FFB67B;}
	.st66{fill:#49277C;}
	.st67{fill:#373837;}
	.st68{fill:#232423;}
	.st69{fill:url(#SVGID_42_);}
	.st70{fill:url(#SVGID_43_);}
	.st71{fill:url(#SVGID_44_);}
	.st72{fill:url(#SVGID_45_);}
	.st73{fill:url(#SVGID_46_);}
	.st74{fill:url(#SVGID_47_);}
	.st75{fill:url(#SVGID_48_);}
	.st76{fill:url(#SVGID_49_);}
	.st77{fill:url(#SVGID_50_);}
</style>
<g>
	<g>
		<g>
			<path class="st0" d="M319.4,34.8v164.8H154.6c0,90.9,73.9,164.8,164.8,164.8s164.8-73.9,164.8-164.8
				C484.2,108.8,410.3,34.8,319.4,34.8z"/>
			<circle class="st1" cx="319.2" cy="199.1" r="154"/>
		</g>
		<g>
			<g>
				<g>
					<path class="st2" d="M338.5,161.8v60.8c0,6.5,5.3,11.8,11.8,11.8h79.4c6.5,0,11.8-5.3,11.8-11.8v-60.8
						c0-6.5-5.3-11.8-11.8-11.8h-79.4C343.8,150.1,338.5,155.4,338.5,161.8z"/>
					<g>
						<g>
							<rect x="352.6" y="156.4" class="st3" width="7" height="7"/>
							<rect x="361.7" y="156.4" class="st4" width="28.9" height="2.7"/>
							<rect x="361.7" y="160.7" class="st4" width="18.2" height="2.7"/>
						</g>
					</g>
					<path class="st3" d="M432.5,185.1c-1.6,3.8-4.1,7.3-7.2,10.1c-7.3,6.6-17.7,9.7-27.8,9.1c-6-0.3-12-2-16.6-5.6
						c-7-5.5-9.9-14.8-16.5-20.7c-5-4.4-12.1-6.6-18.9-5.9v54.1h87V185.1z"/>
					<g class="st5">
						<path class="st4" d="M433.2,226.3c-5.9,0-10.8-7.9-13.3-12.4c-0.9-1.7-1.7-3.5-2.2-5.4c-3.6-11.7-1.3-25.5-10.1-35
							c-4-4.4-11.1-5.2-16.4-2.5c-4.9,2.6-7,8.5-8.3,13.9c-2.4,10.3-3.2,31.9-17.1,33.8c-10.9,1.5-18.2-14.8-20.3-26.9
							c0,15.8,0,34.5,0,34.5S432.6,226.3,433.2,226.3z"/>
					</g>
				</g>
				<g>
					
						<linearGradient id="SVGID_1_" gradientUnits="userSpaceOnUse" x1="304.15" y1="225.9325" x2="304.15" y2="316.4338" gradientTransform="matrix(1 0 0 -1 0 434)">
						<stop  offset="0" style="stop-color:#FFFFFF;stop-opacity:0"/>
						<stop  offset="1" style="stop-color:#FFFFFF"/>
					</linearGradient>
					<path class="st6" d="M333,206.7h-57.7c-11,0-19.8-8.9-19.8-19.8v-58.3c0-11,8.9-19.8,19.8-19.8H333c11,0,19.8,8.9,19.8,19.8
						v58.3C352.8,197.9,344,206.7,333,206.7z"/>
					<g>
						<g>
							<g>
								<g id="Group_938_4_" transform="translate(-953.348 -232.003)">
									<g id="Group_931_4_">
										<path id="Path_8573_4_" class="st7" d="M1268,346.8c-1.3,1.3-2.5,2.7-3.5,4.2l-0.3-0.1c-1.9-0.6-3.9-1-5.9-1.1
											c-0.6,0-2.8,0-3.6,0c-2.2,0.1-3.9,0.5-5.8,1.1c-0.1,0-0.1,0.1-0.2,0.1c-1.1-1.5-2.3-2.9-3.6-4.1
											c6.4-3.3,13.9-3.7,20.6-1.1c0.7,0.3,1.4,0.6,2.1,0.9L1268,346.8z"/>
										<path id="Path_8574_4_" class="st7" d="M1279.9,376c-1,2.8-2.4,5.3-4.3,7.6c-1,1.2-2.2,2.3-3.4,3.3
											c-2.9,2.3-6.2,3.9-9.7,4.8c-3.9,0.9-8,0.9-12,0c-3.6-0.9-6.9-2.5-9.7-4.8c-1.2-1-2.3-2.1-3.4-3.3
											c-5.4-6.4-7.1-15.2-4.3-23.2c0.5-1.5,1.2-2.9,2-4.2c0.4-0.6,0.8-1.3,1-1.6c0.7,3.2,1.6,6,2,7c0,0.1-0.1,0.1-0.1,0.2
											c-1.8,3.6-2.8,7.1-3,10.9v0.1c-0.1,1.1,0,1.6,0.2,2.3c0.6,2.2,2.4,4.6,5.1,7c4.6,3.9,10.8,6.7,15.5,7
											c4.9,0.3,12.1-2.5,16.9-6.7c0.8-0.7,1.5-1.4,2.1-2.1c0.5-0.6,1.2-1.5,1.1-1.5l0,0c0,0,0,0,0-0.1l0,0l0,0l0,0l0,0l0,0l0,0
											l0,0l0,0c0-0.1,0.1-0.1,0.1-0.2c0.1-0.2,0.6-1,0.6-1.1c0.4-1,0.7-1.9,0.8-2.8c0.1-0.4,0.1-1.2,0.1-1.4c0,0,0-0.1,0-0.2
											c0-0.2,0-0.4,0-0.6c0-0.3,0-0.8-0.1-1.1c-0.3-3.5-1.2-6.4-2.9-9.4c-0.1-0.1-0.1-0.2-0.2-0.3c0,0,0,0,0-0.1l0,0
											c0.2-0.7,1.2-3.7,2-7.1l0,0l0.1,0.2c0.2,0.3,0.7,1.1,1,1.5c1.1,1.8,1.9,3.7,2.5,5.7C1281.7,366.2,1281.6,371.3,1279.9,376
											z"/>
										<path id="Path_8575_4_" d="M1269.9,366.8c0,0.1-0.4,0.5-0.7,0.8c-1.1,0.8-3,1.5-4.9,1.8c-1.1,0.2-2.2,0.2-2.5,0.1
											c-0.2-0.1-0.2-0.2-0.2-0.5c0.2-0.6,0.7-1.2,1.5-1.8c0.4-0.3,2.1-1.3,2.9-1.8c1.3-0.7,2.3-1.1,3.1-1.2c0.2,0,0.5,0,0.6,0
											c0.1,0.1,0.3,0.5,0.4,1C1270,365.4,1270,366.6,1269.9,366.8z"/>
										<path id="Path_8576_4_" d="M1251.8,369.3c0,0.1-0.3,0.2-0.5,0.2s-1.1,0-1.5,0c-1.6-0.2-3.4-0.7-4.6-1.3
											c-0.7-0.3-1.2-0.7-1.6-1.1l-0.2-0.2v-0.3c0-0.5,0-1.3,0-1.6c0-0.2,0.1-0.5,0.2-0.7c0.1-0.1,0.1-0.1,0.3-0.1
											c0.3,0,0.6,0.1,1.1,0.2c0.9,0.3,2.4,1,4.1,2c1.4,0.8,1.9,1.3,2.4,1.8C1251.7,368.7,1251.8,369.2,1251.8,369.3z"/>
										<path id="Path_8577_4_" d="M1262.7,380.1c0,0-0.1,0.4-0.2,0.8s-0.2,0.8-0.2,0.8c-0.1,0-0.2,0-0.2,0h-0.2l-0.3,0.8
											c-0.2,0.4-0.4,0.8-0.4,0.9v0.1l-0.2-0.3l-0.2-0.3v-2.1h-0.1c-0.1,0-1.1,0.2-1.5,0.2c-1.7,0.2-3.4,0.1-5.1-0.1
											c-0.3,0-0.5-0.1-0.5-0.1s0,0.5,0,1.1v1.1l-0.1,0.2c-0.1,0.1-0.1,0.2-0.1,0.2s-0.1-0.1-0.3-0.5c-0.2-0.4-0.3-0.8-0.4-1.2
											l-0.1-0.2h-0.2h-0.2l-0.1-0.3c0-0.2-0.1-0.4-0.1-0.5v-0.2l-0.2-0.2c-0.1-0.1-0.2-0.2-0.3-0.2l-0.1-0.1v0h1h1v0.1v0.1h0.3
											c0.2,0,0.8,0,1.3,0h1l0.2-0.4l0.3-0.4h0.3v-0.8v-0.8l-0.4-0.2c-1.4-0.6-2.2-1.3-2.5-2.1c-0.1-0.2-0.1-0.2-0.1-1s0-0.8,0-1
											c0.1-0.4,0.4-0.7,0.8-0.8c0.1,0,0.5,0,2.3,0h2.1l0.2,0.1c0.3,0.1,0.4,0.2,0.6,0.5c0.2,0.2,0.2,0.4,0.2,0.9
											c0,0.7,0,1.2-0.1,1.5s-0.3,0.6-0.4,0.9c-0.4,0.5-1.1,1-1.7,1.2l-0.2,0.1v0.8v0.8h0.2h0.2l0.2,0.3l0.2,0.3h1
											c0.6,0,1.1,0,1.1,0c0.1,0,0.1,0,0.2-0.1l0.1-0.1h0.9C1262.5,380,1262.7,380,1262.7,380.1z"/>
										<path id="Path_8578_4_" d="M1258.6,382.3c-0.1,0.1-0.2,0.1-0.3,0.1c0,0-0.1-0.1-0.2-0.2l-0.2-0.2l-0.2,0.2
											c-0.5,0.5-0.5,0.5-0.6,0.5c-0.2,0-0.3,0-0.5-0.4c-0.1-0.2-0.2-0.4-0.2-0.4s-0.1,0-0.2,0h-0.2l-0.1,0.2l-0.1,0.2l-0.2-0.1
											c-0.1,0-0.3-0.1-0.4-0.2l-0.2-0.1v-0.4h2h2v0.2C1258.9,382.1,1259,382.1,1258.6,382.3z"/>
									</g>
									<path id="Path_8579_4_" class="st8" d="M1277.9,372.9c0,0,0-0.1,0-0.2c-1.8-0.2-7.1-0.3-12,3.7c0,0-1.6-7.2-9-7.2
										s-10.1,7.2-10.1,7.2c-4.1-4.5-9.7-4.1-11.7-3.8v0.1c-0.1,1.1,0,1.6,0.2,2.3c0.6,2.2,2.4,4.6,5.1,7c4.6,3.9,10.8,6.7,15.5,7
										c4.9,0.3,12.1-2.5,16.9-6.7c0.8-0.7,1.5-1.4,2.1-2.1c0.5-0.6,1.2-1.5,1.1-1.5l0,0c0,0,0,0,0-0.1l0,0l0,0l0,0l0,0l0,0l0,0
										l0,0l0,0c0-0.1,0.1-0.1,0.1-0.2c0.1-0.2,0.6-1,0.6-1.1c0.4-1,0.7-1.9,0.8-2.8C1277.9,373.8,1277.9,373.1,1277.9,372.9z
										 M1258.6,382.3c-0.1,0.1-0.2,0.1-0.3,0.1c0,0-0.1-0.1-0.2-0.2l-0.2-0.2l-0.2,0.2c-0.5,0.5-0.5,0.5-0.6,0.5
										c-0.2,0-0.3,0-0.5-0.4c-0.1-0.2-0.2-0.4-0.2-0.4s-0.1,0-0.2,0h-0.2l-0.1,0.2l-0.1,0.2l-0.2-0.1c-0.1,0-0.3-0.1-0.4-0.2
										l-0.2-0.1v-0.4h2h2v0.2C1258.9,382.1,1259,382.1,1258.6,382.3z M1262.5,380.9c-0.1,0.4-0.2,0.8-0.2,0.8c-0.1,0-0.2,0-0.2,0
										h-0.2l-0.3,0.8c-0.2,0.4-0.4,0.8-0.4,0.9v0.1l-0.2-0.3l-0.2-0.3v-2.1h-0.1c-0.1,0-1.1,0.2-1.5,0.2
										c-1.7,0.2-3.4,0.1-5.1-0.1c-0.3,0-0.5-0.1-0.5-0.1s0,0.5,0,1.1v1.1l-0.1,0.2c-0.1,0.1-0.1,0.2-0.1,0.2s-0.1-0.1-0.3-0.5
										c-0.2-0.4-0.3-0.8-0.4-1.2l-0.1-0.2h-0.2h-0.2l-0.1-0.3c0-0.2-0.1-0.4-0.1-0.5v-0.2l-0.2-0.2c-0.1-0.1-0.2-0.2-0.3-0.2
										l-0.1-0.1v0h1h1v0.1v0.1h0.3c0.2,0,0.8,0,1.3,0h1l0.2-0.4l0.3-0.4h0.3v-0.8v-0.8l-0.4-0.2c-1.4-0.6-2.2-1.3-2.5-2.1
										c-0.1-0.2-0.1-0.2-0.1-1s0-0.8,0-1c0.1-0.4,0.4-0.7,0.8-0.8c0.1,0,0.5,0,2.3,0h2.1l0.2,0.1c0.3,0.1,0.4,0.2,0.6,0.5
										c0.2,0.2,0.2,0.4,0.2,0.9c0,0.7,0,1.2-0.1,1.5s-0.3,0.6-0.4,0.9c-0.4,0.5-1.1,1-1.7,1.2l-0.2,0.1v0.8v0.8h0.2h0.2l0.2,0.3
										l0.2,0.3h1c0.6,0,1.1,0,1.1,0c0.1,0,0.1,0,0.2-0.1l0.1-0.1h0.9c0.7,0,0.9,0,0.9,0C1262.7,380.1,1262.6,380.4,1262.5,380.9z
										"/>
									<path id="Path_8580_4_" class="st9" d="M1235,372.6c-0.5,0.1-0.8,0.1-0.8,0.1"/>
									<path id="Path_8581_4_" class="st9" d="M1278.5,372.8c0,0-0.2-0.1-0.7-0.1"/>
									<path id="Path_8582_4_" class="st10" d="M1277.8,372.1c0-0.3,0-0.8-0.1-1.1c-0.3-3.5-1.2-6.4-2.9-9.4
										c-0.1-0.1-0.1-0.2-0.2-0.3c0,0,0,0,0-0.1l0,0c0.2-0.7,1.2-3.7,2-7.1c1.1-4.7,1.7-10.1-0.3-11.7c0,0-3.5-0.3-8.3,4.4
										c-1.3,1.3-2.5,2.7-3.5,4.2l-0.3-0.1c-1.9-0.6-3.9-1-5.9-1.1c-0.6,0-2.8,0-3.6,0c-2.2,0.1-3.9,0.5-5.8,1.1
										c-0.1,0-0.1,0.1-0.2,0.1c-1.1-1.5-2.3-2.9-3.6-4.1c-4.9-4.7-8.6-4.4-8.6-4.4c-2.2,1.7-1.4,7.4-0.3,12.2c0.7,3.2,1.6,6,2,7
										c0,0.1-0.1,0.1-0.1,0.2c-1.8,3.6-2.8,7.1-3,10.9c2-0.3,7.5-0.6,11.7,3.8c0,0,2.7-7.2,10.1-7.2s9,7.2,9,7.2
										c4.9-4,10.2-3.9,12-3.7C1277.8,372.5,1277.8,372.3,1277.8,372.1z M1239.5,358.6c0,0-2.9-7.2-2.1-11.3l0,0
										c0.1-0.7,0.4-1.3,0.7-1.8c0,0,3.3,0.3,8.5,6.2c0,0-1,0.5-2.3,1.5l0,0C1242.8,354.4,1241,356.1,1239.5,358.6L1239.5,358.6z
										 M1251.8,369.3c0,0.1-0.3,0.2-0.5,0.2s-1.1,0-1.5,0c-1.6-0.2-3.4-0.7-4.6-1.3c-0.7-0.3-1.2-0.7-1.6-1.1l-0.2-0.2v-0.3
										c0-0.5,0-1.3,0-1.6c0-0.2,0.1-0.5,0.2-0.7c0.1-0.1,0.1-0.1,0.3-0.1c0.3,0,0.6,0.1,1.1,0.2c0.9,0.3,2.4,1,4.1,2
										c1.4,0.8,1.9,1.3,2.4,1.8C1251.7,368.7,1251.8,369.2,1251.8,369.3z M1269.9,366.8c0,0.1-0.4,0.5-0.7,0.8
										c-1.1,0.8-3,1.5-4.9,1.8c-1.1,0.2-2.2,0.2-2.5,0.1c-0.2-0.1-0.2-0.2-0.2-0.5c0.2-0.6,0.7-1.2,1.5-1.8
										c0.4-0.3,2.1-1.3,2.9-1.8c1.3-0.7,2.3-1.1,3.1-1.2c0.2,0,0.5,0,0.6,0c0.1,0.1,0.3,0.5,0.4,1
										C1270,365.4,1270,366.6,1269.9,366.8z M1268.6,353.2L1268.6,353.2c-1.3-1-2.3-1.5-2.3-1.5c5.1-5.9,8.2-6.2,8.2-6.2
										c0.3,0.5,0.6,1.1,0.7,1.8l0,0c0.7,4.1-2.1,11.3-2.1,11.3C1272.1,356.6,1270.5,354.7,1268.6,353.2L1268.6,353.2z"/>
									<path id="Path_8583_4_" class="st9" d="M1264.5,350.9C1264.5,350.9,1264.5,351,1264.5,350.9"/>
									<path id="Path_8584_4_" class="st9" d="M1274.6,361.2c0,0.1-0.1,0.2-0.1,0.2"/>
									<g id="Group_934_4_">
										<g id="Group_933_4_">
											<g id="Group_932_4_">
												<path id="Path_8585_4_" class="st11" d="M1275.3,347.3c-0.6-0.1-3.4-0.1-6.7,5.9l0,0c-1.3-1-2.3-1.5-2.3-1.5
													c5.1-5.9,8.2-6.2,8.2-6.2C1275,346,1275.2,346.6,1275.3,347.3z"/>
											</g>
											<path id="Path_8586_4_" class="st12" d="M1273.2,358.6c-1.2-2.1-2.7-3.9-4.6-5.4c3.2-6,6.1-6,6.7-5.9l0,0
												C1276,351.4,1273.2,358.6,1273.2,358.6z"/>
											<path id="Path_8587_4_" class="st12" d="M1275.4,347.3L1275.4,347.3L1275.4,347.3z"/>
										</g>
									</g>
									<path id="Path_8588_4_" class="st9" d="M1248.9,351.2c-0.1-0.1-0.2-0.2-0.2-0.3"/>
									<path id="Path_8589_4_" class="st9" d="M1238.1,361.5c0.1,0.3,0.1,0.4,0.1,0.4"/>
									<g id="Group_937_4_">
										<g id="Group_936_4_">
											<g id="Group_935_4_">
												<path id="Path_8590_4_" class="st11" d="M1246.7,351.7c0,0-1,0.5-2.3,1.5l0,0c-3.3-6-6.3-6-6.9-5.9
													c0.1-0.7,0.4-1.3,0.7-1.8C1238.1,345.5,1241.4,345.9,1246.7,351.7z"/>
											</g>
											<path id="Path_8591_4_" class="st12" d="M1244.3,353.2c-1.5,1.1-3.3,2.9-4.8,5.4c0,0-2.9-7.2-2.1-11.3l0,0
												C1238,347.2,1241,347.2,1244.3,353.2z"/>
											<path id="Path_8592_4_" class="st12" d="M1237.4,347.3L1237.4,347.3L1237.4,347.3z"/>
										</g>
									</g>
									<path id="Path_8593_4_" class="st8" d="M1265.4,362.6c0,0-2.5,0.2-2.2-1.8c0.3-1.9,2.2-2.2,2.8-2.1
										c0.5,0.1,2.7,0.8,2.3,2.5c-0.4,1.6-0.9,1.3-1.2,1.4C1266.8,362.7,1265.4,362.6,1265.4,362.6z"/>
									<path id="Path_8594_4_" class="st8" d="M1247.3,362.6c0,0-2.5,0.2-2.2-1.8c0.3-1.9,2.2-2.2,2.8-2.1
										c0.5,0.1,2.7,0.8,2.3,2.5c-0.4,1.6-0.9,1.3-1.2,1.4C1248.7,362.7,1247.3,362.6,1247.3,362.6z"/>
								</g>
								<g>
									<g>
										<g>
											
												<radialGradient id="SVGID_2_" cx="304.0847" cy="198.6766" r="8.0878" gradientTransform="matrix(0.908 1.654726e-02 7.044248e-03 -0.2179 25.0482 162.9047)" gradientUnits="userSpaceOnUse">
												<stop  offset="0" style="stop-color:#525458"/>
												<stop  offset="1" style="stop-color:#2B2D31"/>
											</radialGradient>
											<path class="st13" d="M320.7,126.5l-34.4-0.3c0,0,0.6-0.3,1.4-0.6c0.6-0.2,1.3-0.4,2-0.5c0.2,0,0.3-0.1,0.5-0.1
												c1.9-0.2,6.9,0.2,13,0.2s12.1-0.4,13.7-0.2c0.1,0,0.2,0,0.4,0.1c0.8,0.2,1.5,0.4,2,0.6
												C320.2,126.2,320.7,126.5,320.7,126.5z"/>
											<path class="st14" d="M317.2,125.2c-1.2,0-3,0.1-4.9,0.2c-2.7,0.1-6,0.3-9.3,0.3c-3.5,0-6.6-0.2-9.1-0.3
												c-1.7-0.1-3-0.2-4.1-0.2c-0.7,0.1-1.4,0.3-2,0.5c0.2,0,0.5-0.1,0.7-0.1c1-0.1,3,0,5.4,0.1c2.5,0.1,5.7,0.3,9.2,0.3
												c3.3,0,6.7-0.1,9.4-0.3c3-0.1,5.4-0.2,6.3-0.1c0.2,0,0.4,0.1,0.6,0.1C318.7,125.6,318,125.4,317.2,125.2z"/>
										</g>
										<g>
											
												<linearGradient id="SVGID_3_" gradientUnits="userSpaceOnUse" x1="303.1926" y1="293.2393" x2="303.1926" y2="313.9696" gradientTransform="matrix(1 0 0 -1 0 434)">
												<stop  offset="0" style="stop-color:#2C2E32"/>
												<stop  offset="8.428929e-02" style="stop-color:#55575B"/>
												<stop  offset="0.3288" style="stop-color:#2A2C30"/>
												<stop  offset="0.521" style="stop-color:#54565A"/>
												<stop  offset="1" style="stop-color:#26252B"/>
											</linearGradient>
											<path class="st15" d="M322.4,129.7c-0.8-3.6-2.3-4.2-7.1-3.9c-2.2,0.1-4.9,0.2-7.2,0.3c-3.3,0.1-6.5,0.1-9.8,0
												c-2.3-0.1-5-0.2-7.2-0.3c-4.8-0.3-6.3,0.3-7.1,3.9c-0.8,3.6-0.4,10,2.6,10.6c3,0.5,9.3,0.3,13.4,0.2
												c2.2-0.1,4.3-0.1,6.5,0c4,0.1,11.2,0.4,13.4-0.2C322.7,139.6,323.2,133.4,322.4,129.7z"/>
											
												<radialGradient id="SVGID_4_" cx="303.191" cy="336.8242" r="15.8198" gradientTransform="matrix(0.9083 0 0 -1.3152 27.6323 576.3881)" gradientUnits="userSpaceOnUse">
												<stop  offset="0" style="stop-color:#3FB6FF"/>
												<stop  offset="9.795301e-02" style="stop-color:#3EB1F8"/>
												<stop  offset="0.2456" style="stop-color:#3BA3E3"/>
												<stop  offset="0.4245" style="stop-color:#378CC1"/>
												<stop  offset="0.6278" style="stop-color:#316C92"/>
												<stop  offset="0.8489" style="stop-color:#294356"/>
												<stop  offset="1" style="stop-color:#24252A"/>
											</radialGradient>
											<path class="st16" d="M314.1,139.8c-2.6,0-5.5-0.1-7.7-0.2c-1.1,0-2.2-0.1-3.3-0.1c-1.1,0-2.2,0-3.3,0.1h-0.3
												c-2,0.1-4.6,0.1-7,0.1c-2.7,0-4.6-0.1-5.7-0.3c-0.6-0.1-1.4-1.2-1.8-3.4c-0.3-1.9-0.3-4.3,0.1-6.2
												c0.6-2.8,1.4-3.2,4.1-3.2c0.5,0,1,0,1.7,0.1c1.9,0.1,4.3,0.2,7.2,0.3c1.6,0.1,3.3,0.1,5,0.1c1.6,0,3.3,0,5-0.1
												c2.9-0.1,5.3-0.2,7.2-0.3c0.7,0,1.2-0.1,1.7-0.1c2.7,0,3.5,0.4,4.1,3.2c0.4,1.8,0.4,4.2,0.1,6.1
												c-0.4,2.3-1.3,3.3-1.9,3.5C318.9,139.6,317.5,139.8,314.1,139.8L314.1,139.8z"/>
											
												<radialGradient id="SVGID_5_" cx="307.3732" cy="319.6635" r="23.6053" gradientTransform="matrix(0.9083 0 0 -0.6819 27.6323 344.2905)" gradientUnits="userSpaceOnUse">
												<stop  offset="0" style="stop-color:#525458"/>
												<stop  offset="1" style="stop-color:#2B2D31"/>
											</radialGradient>
											<path class="st17" d="M314.1,139.5c-2.6,0-5.5-0.1-7.6-0.2c-1.1,0-2.2-0.1-3.3-0.1s-2.2,0-3.3,0.1h-0.3
												c-2,0.1-4.6,0.1-7,0.1c-2.6,0-4.5-0.1-5.7-0.3c-0.4-0.1-1.2-1-1.6-3.2c-0.3-1.9-0.3-4.3,0.1-6.1c0.6-2.7,1.3-3,3.8-3
												c0.5,0,1,0,1.7,0.1c1.9,0.1,4.3,0.2,7.2,0.3c1.6,0.1,3.3,0.1,5,0.1s3.3,0,5-0.1c2.9-0.1,5.3-0.2,7.2-0.3
												c0.7,0,1.2-0.1,1.7-0.1c2.5,0,3.2,0.3,3.8,3c0.4,1.8,0.4,4.2,0.1,6c-0.4,2.2-1.2,3.1-1.7,3.3
												C318.9,139.3,317.7,139.5,314.1,139.5z"/>
											
												<radialGradient id="SVGID_6_" cx="310.461" cy="-933.7523" r="11.0524" gradientTransform="matrix(0.8664 7.160461e-03 5.798224e-04 -3.954536e-02 34.458 88.0478)" gradientUnits="userSpaceOnUse">
												<stop  offset="0.1947" style="stop-color:#3FACFF"/>
												<stop  offset="0.2658" style="stop-color:#3591D7"/>
												<stop  offset="0.41" style="stop-color:#225E8C"/>
												<stop  offset="0.5389" style="stop-color:#143650"/>
												<stop  offset="0.6478" style="stop-color:#091924"/>
												<stop  offset="0.7324" style="stop-color:#02070A"/>
												<stop  offset="0.7824" style="stop-color:#000000"/>
											</radialGradient>
											<path class="st18" d="M312.5,127.3c0,0.4-4.3,0.8-9.6,0.7c-5.3,0-9.6-0.4-9.6-0.9c0-0.4,4.3-0.8,9.6-0.7
												C308.2,126.4,312.5,126.8,312.5,127.3z"/>
											
												<radialGradient id="SVGID_7_" cx="310.6691" cy="-965.815" r="11.0513" gradientTransform="matrix(0.8664 7.160461e-03 5.798224e-04 -3.954536e-02 34.2961 99.0943)" gradientUnits="userSpaceOnUse">
												<stop  offset="0.1946" style="stop-color:#3FACFF"/>
												<stop  offset="0.2657" style="stop-color:#3591D7"/>
												<stop  offset="0.4099" style="stop-color:#225E8C"/>
												<stop  offset="0.5389" style="stop-color:#143650"/>
												<stop  offset="0.6478" style="stop-color:#091924"/>
												<stop  offset="0.7324" style="stop-color:#02070A"/>
												<stop  offset="0.7824" style="stop-color:#000000"/>
											</radialGradient>
											<path class="st19" d="M312.5,139.6c0,0.4-4.3,0.8-9.6,0.7s-9.6-0.4-9.6-0.9c0-0.4,4.3-0.8,9.6-0.7
												S312.5,139.1,312.5,139.6z"/>
										</g>
									</g>
								</g>
							</g>
						</g>
						<g>
							<rect x="276.5" y="163.8" class="st2" width="54.3" height="3.9"/>
							<rect x="276.5" y="172.5" class="st2" width="54.3" height="3.9"/>
							<rect x="276.5" y="181.2" class="st2" width="54.3" height="3.9"/>
							<rect x="276.5" y="189.8" class="st2" width="54.3" height="3.9"/>
						</g>
					</g>
				</g>
				<g>
					
						<linearGradient id="SVGID_8_" gradientUnits="userSpaceOnUse" x1="304.15" y1="114.4325" x2="304.15" y2="204.9338" gradientTransform="matrix(1 0 0 -1 0 434)">
						<stop  offset="0" style="stop-color:#FFFFFF;stop-opacity:0"/>
						<stop  offset="1" style="stop-color:#FFFFFF"/>
					</linearGradient>
					<path class="st20" d="M333,318.2h-57.7c-11,0-19.8-8.9-19.8-19.8v-58.3c0-11,8.9-19.8,19.8-19.8H333c11,0,19.8,8.9,19.8,19.8
						v58.3C352.8,309.4,344,318.2,333,318.2z"/>
					<g>
						<g>
							<rect x="271.7" y="235.5" class="st2" width="12.5" height="12.5"/>
							
								<linearGradient id="SVGID_9_" gradientUnits="userSpaceOnUse" x1="313.9" y1="147.9318" x2="313.9" y2="199.4713" gradientTransform="matrix(1 0 0 -1 0 434)">
								<stop  offset="0" style="stop-color:#FFFFFF;stop-opacity:0"/>
								<stop  offset="1" style="stop-color:#FFFFFF"/>
							</linearGradient>
							<rect x="288" y="235.5" class="st21" width="51.8" height="4.8"/>
							
								<linearGradient id="SVGID_10_" gradientUnits="userSpaceOnUse" x1="304.3" y1="147.9328" x2="304.3" y2="199.4712" gradientTransform="matrix(1 0 0 -1 0 434)">
								<stop  offset="0" style="stop-color:#FFFFFF;stop-opacity:0"/>
								<stop  offset="1" style="stop-color:#FFFFFF"/>
							</linearGradient>
							<rect x="288" y="243.1" class="st22" width="32.6" height="4.8"/>
						</g>
						<g>
							
								<linearGradient id="SVGID_11_" gradientUnits="userSpaceOnUse" x1="305.9" y1="147.9331" x2="305.9" y2="199.4707" gradientTransform="matrix(1 0 0 -1 0 434)">
								<stop  offset="0" style="stop-color:#FFFFFF;stop-opacity:0"/>
								<stop  offset="1" style="stop-color:#FFFFFF"/>
							</linearGradient>
							<rect x="272" y="256.1" class="st23" width="67.8" height="2.7"/>
							
								<linearGradient id="SVGID_12_" gradientUnits="userSpaceOnUse" x1="305.9" y1="147.9322" x2="305.9" y2="199.4718" gradientTransform="matrix(1 0 0 -1 0 434)">
								<stop  offset="0" style="stop-color:#FFFFFF;stop-opacity:0"/>
								<stop  offset="1" style="stop-color:#FFFFFF"/>
							</linearGradient>
							<rect x="272" y="261.7" class="st24" width="67.8" height="2.7"/>
							
								<linearGradient id="SVGID_13_" gradientUnits="userSpaceOnUse" x1="305.9" y1="147.9323" x2="305.9" y2="199.4718" gradientTransform="matrix(1 0 0 -1 0 434)">
								<stop  offset="0" style="stop-color:#FFFFFF;stop-opacity:0"/>
								<stop  offset="1" style="stop-color:#FFFFFF"/>
							</linearGradient>
							<rect x="272" y="267.4" class="st25" width="67.8" height="2.7"/>
							
								<linearGradient id="SVGID_14_" gradientUnits="userSpaceOnUse" x1="305.9" y1="147.9328" x2="305.9" y2="199.4704" gradientTransform="matrix(1 0 0 -1 0 434)">
								<stop  offset="0" style="stop-color:#FFFFFF;stop-opacity:0"/>
								<stop  offset="1" style="stop-color:#FFFFFF"/>
							</linearGradient>
							<rect x="272" y="273.1" class="st26" width="67.8" height="2.7"/>
						</g>
					</g>
					<g class="st27">
						<rect x="272.4" y="285.1" class="st2" width="12.5" height="12.5"/>
						
							<linearGradient id="SVGID_15_" gradientUnits="userSpaceOnUse" x1="314.6" y1="98.2661" x2="314.6" y2="149.8046" gradientTransform="matrix(1 0 0 -1 0 434)">
							<stop  offset="0" style="stop-color:#FFFFFF;stop-opacity:0"/>
							<stop  offset="1" style="stop-color:#FFFFFF"/>
						</linearGradient>
						<rect x="288.7" y="285.1" class="st28" width="51.8" height="4.8"/>
						
							<linearGradient id="SVGID_16_" gradientUnits="userSpaceOnUse" x1="305" y1="98.2661" x2="305" y2="149.8045" gradientTransform="matrix(1 0 0 -1 0 434)">
							<stop  offset="0" style="stop-color:#FFFFFF;stop-opacity:0"/>
							<stop  offset="1" style="stop-color:#FFFFFF"/>
						</linearGradient>
						<rect x="288.7" y="292.8" class="st29" width="32.6" height="4.8"/>
					</g>
				</g>
				<g>
					<g>
						<polygon class="st30" points="430.7,135.5 360.8,135.5 360.8,87.7 361.6,87.7 361.6,134.7 430.7,134.7 						"/>
					</g>
					
						<linearGradient id="SVGID_17_" gradientUnits="userSpaceOnUse" x1="396.4" y1="341.9325" x2="396.4" y2="292.4314" gradientTransform="matrix(1 0 0 -1 0 434)">
						<stop  offset="0" style="stop-color:#FFFFFF"/>
						<stop  offset="1" style="stop-color:#FFFFFF;stop-opacity:0"/>
					</linearGradient>
					<path class="st31" d="M423.3,97.2c-0.2-1.3-2.3-1.4-2.6-0.1l-6.5,26c-0.5,1.2-2.4,1.2-2.9,0l-3.1-7.6c-0.4-0.9-1.8-0.9-2.1,0
						l-1.5,3.8c-1.1,2.6-5.3,2.6-6.3,0l-6.5-16c-0.3-0.7-1.3-0.9-1.9-0.3l-9.6,8.9c-1.7,1.6-4.7,1-5.6-1l-3.2-15.7
						c-0.1-0.7-1.3-0.7-1.4,0l-5,35.2l62.6,0.6L423.3,97.2z"/>
				</g>
				<g>
					
						<ellipse transform="matrix(0.9644 -0.2643 0.2643 0.9644 -54.7717 63.7399)" class="st32" cx="209.5" cy="235.4" rx="28.8" ry="28.8"/>
					<path class="st4" d="M209.5,235.4l-19,21.7c-5.8-5.1-9.3-12.3-9.8-19.9c-0.9-15.8,11.3-29.5,27.1-30.5
						c15.8-0.9,29.5,11.3,30.5,27.1L209.5,235.4z"/>
					<path class="st2" d="M209.5,235.4l-18.8-21.9c4.8-4.1,10.8-6.5,17.1-6.9c15.8-0.9,29.5,11.3,30.5,27.1L209.5,235.4z"/>
					<path class="st33" d="M209.5,235.4l20-20.7c2.6,2.5,4.7,5.4,6.2,8.7s2.4,6.8,2.6,10.3L209.5,235.4z"/>
				</g>
			</g>
			<g>
				<polygon class="st2" points="210.3,154.4 205.5,154.4 205.5,149.6 202.5,149.6 202.5,154.4 197.7,154.4 197.7,157.4 
					202.5,157.4 202.5,162.2 205.5,162.2 205.5,157.4 210.3,157.4 				"/>
				<polygon class="st2" points="403.3,270.1 398.5,270.1 398.5,265.2 395.5,265.2 395.5,270.1 390.7,270.1 390.7,273.1 
					395.5,273.1 395.5,277.9 398.5,277.9 398.5,273.1 403.3,273.1 				"/>
				<polygon class="st2" points="314.2,79.9 309.3,79.9 309.3,75.1 306.3,75.1 306.3,79.9 301.5,79.9 301.5,82.9 306.3,82.9 
					306.3,87.7 309.3,87.7 309.3,82.9 314.2,82.9 				"/>
				<circle class="st34" cx="313.2" cy="320.1" r="6"/>
				<circle class="st34" cx="459.8" cy="187.4" r="6"/>
			</g>
		</g>
	</g>
	<g>
		<g>
			<g id="Group_938_2_" transform="translate(-953.348 -232.003)">
				<g id="Group_931_2_">
					<path id="Path_8573_2_" class="st35" d="M1452,575.5c-1.7,0.9-3.4,2-5.1,3.3l-0.4-0.2c-1.8-1.3-3.8-2.3-5.8-3.1
						c-0.6-0.3-2.9-1-3.7-1.1c-2.4-0.5-4.3-0.8-6.5-0.6c-0.1,0-0.2,0-0.2,0c-0.7-1.9-1.5-3.8-2.5-5.6c7.7-1.4,15.8,0.6,22,5.5
						c0.7,0.5,1.4,1,1.9,1.6L1452,575.5z"/>
					<path id="Path_8574_2_" class="st35" d="M1455.1,610.1c-1.9,2.5-4.3,4.9-6.9,6.6c-1.4,0.9-3,1.7-4.6,2.4
						c-3.7,1.5-7.8,2.1-11.8,1.9c-4.4-0.3-8.7-1.6-12.6-3.9c-3.5-2-6.5-4.9-8.7-8.2c-0.9-1.4-1.8-3-2.5-4.5
						c-3.7-8.5-2.6-18.3,3-25.8c1-1.4,2.2-2.7,3.5-3.9c0.6-0.6,1.3-1.1,1.6-1.4c-0.3,3.6-0.2,6.8-0.1,8c0,0.1-0.1,0.1-0.2,0.2
						c-3.1,3.2-5.2,6.7-6.7,10.5c0,0.1,0,0.1-0.1,0.2c-0.4,1.1-0.5,1.7-0.6,2.5c-0.1,2.5,1,5.6,3.2,9c3.5,5.6,9.1,10.5,14,12.3
						c5,2,13.5,1.2,20-1.6c1-0.4,2-1,2.9-1.5c0.7-0.4,1.7-1.2,1.6-1.3l0,0c0,0,0.1,0,0-0.1l0,0l0,0l0,0c0,0,0,0,0-0.1l0,0l0,0l0,0
						l0,0c0-0.1,0.1-0.1,0.2-0.2c0.2-0.2,0.9-0.9,1-1c0.8-0.9,1.4-1.8,1.7-2.6c0.2-0.4,0.5-1.2,0.5-1.4c0,0,0-0.1,0.1-0.2
						c0.1-0.2,0.1-0.4,0.2-0.7c0.1-0.4,0.2-0.9,0.3-1.2c0.7-3.8,0.8-7.1-0.1-10.8c-0.1-0.1,0-0.3-0.1-0.4l0-0.1l0,0
						c0.5-0.7,2.4-3.5,4.4-6.9l0,0l0,0.2c0.1,0.3,0.4,1.4,0.6,1.9c0.6,2.2,0.8,4.4,0.9,6.7C1460.1,600.3,1458.3,605.7,1455.1,610.1z
						"/>
					<path id="Path_8575_2_" d="M1447.5,597.2c0,0.1-0.5,0.4-1,0.5c-1.4,0.5-3.7,0.7-5.7,0.3c-1.2-0.2-2.4-0.4-2.7-0.7
						c-0.2-0.2-0.2-0.3,0-0.5c0.4-0.5,1.1-1,2.2-1.4c0.6-0.1,2.6-0.8,3.6-0.9c1.6-0.4,2.8-0.4,3.7-0.3c0.2,0.1,0.5,0.1,0.6,0.2
						c0.2,0.2,0.1,0.6,0.1,1.2C1447.9,595.8,1447.6,596.9,1447.5,597.2z"/>
					<path id="Path_8576_2_" d="M1427.6,594.1c-0.1,0.1-0.3,0.1-0.7,0.1s-1.1-0.4-1.6-0.5c-1.7-0.7-3.3-1.8-4.4-2.9
						c-0.6-0.6-1-1.1-1.4-1.7l-0.1-0.2l0.1-0.3c0.2-0.6,0.4-1.3,0.5-1.7c0.1-0.3,0.2-0.4,0.5-0.6c0.1-0.1,0.1-0.1,0.4,0
						c0.4,0.1,0.6,0.3,1.1,0.5c0.9,0.6,2.2,1.8,3.7,3.4c1.3,1.3,1.6,2,1.9,2.7C1427.7,593.3,1427.7,593.9,1427.6,594.1z"/>
					<path id="Path_8577_2_" d="M1435.6,608.9c0,0-0.2,0.4-0.5,0.8c-0.2,0.4-0.5,0.8-0.5,0.8c-0.1,0-0.2-0.1-0.3-0.1l-0.3-0.1
						l-0.6,0.7c-0.3,0.4-0.6,0.7-0.7,0.8l-0.1,0.1l-0.1-0.3l-0.1-0.3l0.7-2.2l-0.1,0c-0.1,0-1.2-0.2-1.6-0.3c-1.9-0.4-3.6-1-5.3-1.7
						c-0.3-0.1-0.5-0.3-0.5-0.3s-0.2,0.6-0.4,1.1l-0.4,1.1l-0.2,0.2c-0.1,0.1-0.2,0.1-0.2,0.1s-0.1-0.1-0.1-0.6
						c-0.1-0.4-0.1-0.9-0.1-1.4l0-0.2l-0.3-0.1l-0.3-0.1l0-0.3c0.1-0.2,0-0.4,0.1-0.6l0.1-0.3l-0.1-0.2c-0.1-0.1-0.2-0.3-0.2-0.3
						l-0.1-0.1l0-0.1l1.1,0.3l1.1,0.3l0,0.1l0,0.1l0.4,0.1c0.2,0.1,0.8,0.2,1.3,0.4l1.1,0.3l0.4-0.3l0.4-0.3l0.4,0.1l0.3-0.9
						l0.3-0.9l-0.4-0.3c-1.2-1.1-1.9-2-1.9-3c0-0.2,0-0.3,0.2-1.1c0.2-0.8,0.3-0.9,0.4-1c0.2-0.4,0.6-0.6,1.1-0.6
						c0.1,0,0.5,0.1,2.4,0.7l2.3,0.7l0.3,0.2c0.2,0.3,0.4,0.4,0.4,0.7c0.1,0.3,0.1,0.6,0,1c-0.2,0.7-0.5,1.3-0.6,1.5
						c-0.2,0.3-0.5,0.6-0.8,0.8c-0.5,0.4-1.5,0.7-2.2,0.7l-0.2,0l-0.3,0.9l-0.3,0.9l0.2,0.1l0.2,0.1l0.2,0.5l0.1,0.4l1.1,0.3
						c0.6,0.2,1.1,0.4,1.1,0.4c0.1,0,0.1,0,0.2,0l0.2-0.2l1,0.3C1435.4,608.7,1435.6,608.8,1435.6,608.9z"/>
					<path id="Path_8578_2_" d="M1430.6,609.8c-0.2,0-0.3,0-0.3,0s-0.1-0.1-0.2-0.3l-0.1-0.2l-0.3,0.2c-0.7,0.4-0.7,0.4-0.8,0.4
						c-0.2-0.1-0.3-0.1-0.5-0.6c-0.1-0.2-0.2-0.5-0.2-0.5s-0.1,0-0.2-0.1l-0.2-0.1l-0.2,0.2l-0.2,0.2l-0.2-0.2
						c-0.2-0.2-0.3-0.2-0.3-0.3l-0.3-0.2l0.1-0.5l2.2,0.7l2.2,0.7l-0.1,0.2C1431,609.8,1431,609.8,1430.6,609.8z"/>
				</g>
				<path id="Path_8579_2_" class="st8" d="M1453.9,606.2c0,0,0-0.1,0.1-0.2c-1.9-0.8-7.3-2.7-13.8,0.1c0,0,0.7-8.1-7.1-10.5
					c-7.7-2.4-13,4.4-13,4.4c-3-6-8.9-7.5-11.1-7.8c0,0.1,0,0.1-0.1,0.2c-0.4,1.1-0.5,1.7-0.6,2.5c-0.1,2.5,1,5.6,3.2,9
					c3.5,5.6,9.1,10.5,14,12.3c5,2,13.5,1.2,20-1.6c1-0.4,2-1,2.9-1.5c0.7-0.4,1.7-1.2,1.6-1.3l0,0c0,0,0.1,0,0-0.1l0,0l0,0l0,0
					c0,0,0,0,0-0.1l0,0l0,0l0,0l0,0c0-0.1,0.1-0.1,0.2-0.2c0.2-0.2,0.9-0.9,1-1c0.8-0.9,1.4-1.8,1.7-2.6
					C1453.6,607.1,1453.9,606.4,1453.9,606.2z M1430.6,609.8c-0.2,0-0.3,0-0.3,0s-0.1-0.1-0.2-0.3l-0.1-0.2l-0.3,0.2
					c-0.7,0.4-0.7,0.4-0.8,0.4c-0.2-0.1-0.3-0.1-0.5-0.6c-0.1-0.2-0.2-0.5-0.2-0.5s-0.1,0-0.2-0.1l-0.2-0.1l-0.2,0.2l-0.2,0.2
					l-0.2-0.2c-0.2-0.2-0.3-0.2-0.3-0.3l-0.3-0.2l0.1-0.5l2.2,0.7l2.2,0.7l-0.1,0.2C1431,609.8,1431,609.8,1430.6,609.8z
					 M1435.1,609.7c-0.2,0.4-0.5,0.8-0.5,0.8c-0.1,0-0.2-0.1-0.3-0.1l-0.3-0.1l-0.6,0.7c-0.3,0.4-0.6,0.7-0.7,0.8l-0.1,0.1l-0.1-0.3
					l-0.1-0.3l0.7-2.2l-0.1,0c-0.1,0-1.2-0.2-1.6-0.3c-1.9-0.4-3.6-1-5.3-1.7c-0.3-0.1-0.5-0.3-0.5-0.3s-0.2,0.6-0.4,1.1l-0.4,1.1
					l-0.2,0.2c-0.1,0.1-0.2,0.1-0.2,0.1s-0.1-0.1-0.1-0.6c-0.1-0.4-0.1-0.9-0.1-1.4l0-0.2l-0.3-0.1l-0.3-0.1l0-0.3
					c0.1-0.2,0-0.4,0.1-0.6l0.1-0.3l-0.1-0.2c-0.1-0.1-0.2-0.3-0.2-0.3l-0.1-0.1l0-0.1l1.1,0.3l1.1,0.3l0,0.1l0,0.1l0.4,0.1
					c0.2,0.1,0.8,0.2,1.3,0.4l1.1,0.3l0.4-0.3l0.4-0.3l0.4,0.1l0.3-0.9l0.3-0.9l-0.4-0.3c-1.2-1.1-1.9-2-1.9-3c0-0.2,0-0.3,0.2-1.1
					c0.2-0.8,0.3-0.9,0.4-1c0.2-0.4,0.6-0.6,1.1-0.6c0.1,0,0.5,0.1,2.4,0.7l2.3,0.7l0.3,0.2c0.2,0.3,0.4,0.4,0.4,0.7
					c0.1,0.3,0.1,0.6,0,1c-0.2,0.7-0.5,1.3-0.6,1.5c-0.2,0.3-0.5,0.6-0.8,0.8c-0.5,0.4-1.5,0.7-2.2,0.7l-0.2,0l-0.3,0.9l-0.3,0.9
					l0.2,0.1l0.2,0.1l0.2,0.5l0.1,0.4l1.1,0.3c0.6,0.2,1.1,0.4,1.1,0.4c0.1,0,0.1,0,0.2,0l0.2-0.2l1,0.3c0.8,0.2,1,0.3,1,0.3
					C1435.6,608.9,1435.4,609.2,1435.1,609.7z"/>
				<path id="Path_8580_2_" class="st9" d="M1408.9,592c-0.5-0.1-0.8,0-0.8,0"/>
				<path id="Path_8581_2_" class="st9" d="M1454.7,606.3c0,0-0.3-0.2-0.7-0.3"/>
				<path id="Path_8582_2_" class="st10" d="M1454,605.3c0.1-0.4,0.2-0.9,0.3-1.2c0.7-3.8,0.8-7.1-0.1-10.8c-0.1-0.1,0-0.3-0.1-0.4
					l0-0.1l0,0c0.5-0.7,2.4-3.5,4.4-6.9c2.6-4.5,5.1-10.1,3.4-12.5c0,0-3.6-1.4-10.1,1.9c-1.7,0.9-3.4,2-5.1,3.3l-0.4-0.2
					c-1.8-1.3-3.8-2.3-5.8-3.1c-0.6-0.3-2.9-1-3.7-1.1c-2.4-0.5-4.3-0.8-6.5-0.6c-0.1,0-0.2,0-0.2,0c-0.7-1.9-1.5-3.8-2.5-5.6
					c-3.7-6.5-7.7-7.4-7.7-7.4c-2.9,1.1-3.9,7.3-4.2,12.7c-0.3,3.6-0.2,6.8-0.1,8c0,0.1-0.1,0.1-0.2,0.2c-3.1,3.2-5.2,6.7-6.7,10.5
					c2.2,0.4,8.1,1.8,11.1,7.8c0,0,5.2-6.8,13-4.4c7.7,2.4,7.1,10.5,7.1,10.5c6.4-2.6,12-0.8,13.8-0.1
					C1454,605.8,1454.1,605.5,1454,605.3z M1418.2,578.9c0,0-0.8-8.5,1.3-12.6l0,0c0.3-0.7,0.8-1.2,1.3-1.6c0,0,3.3,1.4,7,9.2
					c0,0-1.2,0.2-3,0.9l0,0C1423,575.4,1420.4,576.7,1418.2,578.9L1418.2,578.9z M1427.6,594.1c-0.1,0.1-0.3,0.1-0.7,0.1
					s-1.1-0.4-1.6-0.5c-1.7-0.7-3.3-1.8-4.4-2.9c-0.6-0.6-1-1.1-1.4-1.7l-0.1-0.2l0.1-0.3c0.2-0.6,0.4-1.3,0.5-1.7
					c0.1-0.3,0.2-0.4,0.5-0.6c0.1-0.1,0.1-0.1,0.4,0c0.4,0.1,0.6,0.3,1.1,0.5c0.9,0.6,2.2,1.8,3.7,3.4c1.3,1.3,1.6,2,1.9,2.7
					C1427.7,593.3,1427.7,593.9,1427.6,594.1z M1447.5,597.2c0,0.1-0.5,0.4-1,0.5c-1.4,0.5-3.7,0.7-5.7,0.3
					c-1.2-0.2-2.4-0.4-2.7-0.7c-0.2-0.2-0.2-0.3,0-0.5c0.4-0.5,1.1-1,2.2-1.4c0.6-0.1,2.6-0.8,3.6-0.9c1.6-0.4,2.8-0.4,3.7-0.3
					c0.2,0.1,0.5,0.1,0.6,0.2c0.2,0.2,0.1,0.6,0.1,1.2C1447.9,595.8,1447.6,596.9,1447.5,597.2z M1450.5,582.6L1450.5,582.6
					c-1-1.5-1.9-2.4-1.9-2.4c7.2-4.5,10.7-3.8,10.7-3.8c0.2,0.6,0.2,1.3,0.2,2.1l0,0c-0.5,4.5-5.9,11.3-5.9,11.3
					C1453,587.1,1452,584.7,1450.5,582.6L1450.5,582.6z"/>
				<path id="Path_8583_2_" class="st9" d="M1446.9,578.7C1446.9,578.7,1446.9,578.8,1446.9,578.7"/>
				<path id="Path_8584_2_" class="st9" d="M1454.2,592.9c0,0.1-0.2,0.2-0.2,0.2"/>
				<g id="Group_934_2_">
					<g id="Group_933_2_">
						<g id="Group_932_2_">
							<path id="Path_8585_2_" class="st11" d="M1459.4,578.4c-0.6-0.3-3.6-1.2-8.9,4.1l0,0c-1-1.5-1.9-2.4-1.9-2.4
								c7.2-4.5,10.7-3.8,10.7-3.8C1459.5,576.9,1459.5,577.7,1459.4,578.4z"/>
						</g>
						<path id="Path_8586_2_" class="st12" d="M1453.6,589.7c-0.6-2.6-1.6-5-3.2-7.1c5.3-5.3,8.3-4.4,8.9-4.1l0,0
							C1458.9,583,1453.6,589.7,1453.6,589.7z"/>
						<path id="Path_8587_2_" class="st12" d="M1459.5,578.5L1459.5,578.5L1459.5,578.5z"/>
					</g>
				</g>
				<path id="Path_8588_2_" class="st9" d="M1430.3,574.1c-0.1-0.1-0.1-0.2-0.2-0.5"/>
				<path id="Path_8589_2_" class="st9" d="M1415.7,581.5c0,0.3,0.1,0.4,0.1,0.4"/>
				<g id="Group_937_2_">
					<g id="Group_936_2_">
						<g id="Group_935_2_">
							<path id="Path_8590_2_" class="st11" d="M1427.9,573.9c0,0-1.2,0.2-3,0.9l0,0c-1.6-7.4-4.7-8.3-5.4-8.4
								c0.3-0.7,0.8-1.2,1.3-1.6C1420.9,564.6,1424.2,566.1,1427.9,573.9z"/>
						</g>
						<path id="Path_8591_2_" class="st12" d="M1424.9,574.7c-1.9,0.7-4.5,2-6.7,4.1c0,0-0.8-8.5,1.4-12.7l0,0
							C1420.2,566.4,1423.3,567.3,1424.9,574.7z"/>
						<path id="Path_8592_2_" class="st12" d="M1419.6,566.2L1419.6,566.2L1419.6,566.2z"/>
					</g>
				</g>
				<path id="Path_8593_2_" class="st8" d="M1444.1,591.4c0,0-2.6-0.6-1.7-2.5c0.9-1.9,3.1-1.6,3.6-1.3c0.5,0.3,2.6,1.7,1.6,3.3
					c-0.9,1.6-1.4,1-1.8,1C1445.6,591.9,1444.1,591.4,1444.1,591.4z"/>
				<path id="Path_8594_2_" class="st8" d="M1425,585.6c0,0-2.6-0.6-1.7-2.5c0.9-1.9,3.1-1.6,3.6-1.3c0.5,0.3,2.6,1.7,1.6,3.3
					c-0.9,1.6-1.4,1-1.8,1C1426.4,586.1,1425,585.6,1425,585.6z"/>
			</g>
			<g>
				<g>
					<g>
						
							<radialGradient id="SVGID_18_" cx="498.5734" cy="-131.3561" r="8.8966" gradientTransform="matrix(0.8636 0.2811 7.039290e-02 -0.2063 61.3565 182.7694)" gradientUnits="userSpaceOnUse">
							<stop  offset="0" style="stop-color:#525458"/>
							<stop  offset="1" style="stop-color:#2B2D31"/>
						</radialGradient>
						<path class="st36" d="M501.1,357.8l-36.2-11.4c0,0,0.8-0.1,1.7-0.1c0.7,0,1.5-0.1,2.3,0.1c0.2,0.1,0.3,0,0.5,0.1
							c2.1,0.4,7.2,2.5,13.6,4.5c6.4,2,12.9,3.4,14.4,4.2c0.1,0,0.3,0.1,0.4,0.2c0.8,0.5,1.4,0.8,1.9,1.2
							C500.7,357.3,501.1,357.8,501.1,357.8z"/>
						<path class="st14" d="M497.9,355.3c-1.3-0.4-3.1-0.8-5.2-1.4c-2.9-0.8-6.4-1.6-9.9-2.7c-3.6-1.1-6.9-2.3-9.5-3.3
							c-1.7-0.6-3.2-1.2-4.2-1.5c-0.8-0.1-1.6-0.1-2.3-0.1c0.3,0,0.5,0.1,0.8,0.1c1.1,0.2,3.1,0.9,5.6,1.8c2.6,1,5.8,2.2,9.5,3.3
							c3.4,1.1,7,1.9,9.9,2.7c3.2,0.9,5.7,1.4,6.7,1.9c0.2,0.1,0.4,0.2,0.5,0.3C499.3,356.1,498.7,355.7,497.9,355.3z"/>
					</g>
					<g>
						
							<linearGradient id="SVGID_19_" gradientUnits="userSpaceOnUse" x1="479.8906" y1="66.5623" x2="479.8906" y2="89.3656" gradientTransform="matrix(0.9564 0.2921 0.2921 -0.9564 -0.268 290.6352)">
							<stop  offset="0" style="stop-color:#2C2E32"/>
							<stop  offset="8.428929e-02" style="stop-color:#55575B"/>
							<stop  offset="0.3288" style="stop-color:#2A2C30"/>
							<stop  offset="0.521" style="stop-color:#54565A"/>
							<stop  offset="1" style="stop-color:#26252B"/>
						</linearGradient>
						<path class="st37" d="M501.9,361.7c0.3-4.1-1.1-5.2-6.2-6.4c-2.3-0.6-5.3-1.3-7.7-1.9c-3.5-1-6.9-2-10.3-3.2
							c-2.4-0.8-5.2-1.8-7.4-2.7c-5-1.8-6.8-1.8-8.7,1.8c-2,3.6-3.6,10.4-0.7,11.9c3,1.5,9.8,3.3,14,4.5c2.3,0.6,4.5,1.3,6.8,2.1
							c4.2,1.4,11.6,4,14.1,4.1C499,372.2,501.6,365.8,501.9,361.7z"/>
						
							<radialGradient id="SVGID_20_" cx="497.7297" cy="5.5084" r="17.4017" gradientTransform="matrix(0.8687 0.2653 0.3842 -1.2578 45.852 234.2371)" gradientUnits="userSpaceOnUse">
							<stop  offset="0" style="stop-color:#3FB6FF"/>
							<stop  offset="9.795301e-02" style="stop-color:#3EB1F8"/>
							<stop  offset="0.2456" style="stop-color:#3BA3E3"/>
							<stop  offset="0.4245" style="stop-color:#378CC1"/>
							<stop  offset="0.6278" style="stop-color:#316C92"/>
							<stop  offset="0.8489" style="stop-color:#294356"/>
							<stop  offset="1" style="stop-color:#24252A"/>
						</radialGradient>
						<path class="st38" d="M490,369.6c-2.8-0.8-5.8-1.9-8-2.6c-1.1-0.4-2.3-0.8-3.4-1.1c-1.1-0.4-2.3-0.7-3.5-1l-0.4-0.1
							c-2.1-0.5-4.8-1.3-7.4-2.1c-2.8-0.8-4.8-1.6-5.9-2.1c-0.6-0.3-1.2-1.7-0.8-4.1c0.2-2.1,1.1-4.7,2.1-6.5c1.6-2.8,2.6-2.9,5.4-2
							c0.5,0.1,1.1,0.4,1.8,0.7c2,0.7,4.4,1.6,7.4,2.7c1.7,0.6,3.4,1.1,5.2,1.7c1.7,0.5,3.4,1.1,5.3,1.5c3.1,0.8,5.7,1.5,7.7,1.9
							c0.8,0.2,1.4,0.3,1.8,0.5c2.9,0.9,3.6,1.5,3.4,4.7c-0.2,2-0.9,4.6-1.9,6.4c-1.2,2.3-2.4,3-3.1,3
							C495,371,493.6,370.7,490,369.6L490,369.6z"/>
						
							<radialGradient id="SVGID_21_" cx="502.3301" cy="-10.6144" r="25.9658" gradientTransform="matrix(0.8687 0.2653 0.1992 -0.6522 52.3661 212.9114)" gradientUnits="userSpaceOnUse">
							<stop  offset="0" style="stop-color:#525458"/>
							<stop  offset="1" style="stop-color:#2B2D31"/>
						</radialGradient>
						<path class="st39" d="M490,369.4c-2.8-0.8-5.8-1.9-8-2.6c-1.1-0.4-2.3-0.8-3.4-1.1c-1.1-0.4-2.3-0.7-3.5-1l-0.4-0.1
							c-2.1-0.5-4.8-1.3-7.4-2.1c-2.8-0.8-4.8-1.6-5.8-2.1c-0.4-0.2-0.9-1.4-0.6-3.8c0.2-2.1,1.1-4.6,2.1-6.4c1.5-2.7,2.3-2.7,5-1.9
							c0.5,0.1,1.1,0.3,1.8,0.7c1.9,0.7,4.4,1.6,7.4,2.7c1.7,0.6,3.5,1.2,5.2,1.7c1.7,0.5,3.5,1.1,5.3,1.5c3.1,0.8,5.7,1.5,7.7,1.9
							c0.7,0.2,1.4,0.3,1.8,0.5c2.7,0.8,3.3,1.3,3.1,4.4c-0.2,2-0.9,4.5-1.8,6.3c-1.1,2.2-2.3,3-2.8,2.9
							C495.1,370.8,493.7,370.5,490,369.4z"/>
						
							<radialGradient id="SVGID_22_" cx="518.1844" cy="-1516.5397" r="12.1558" gradientTransform="matrix(0.8265 0.26 1.210706e-02 -3.765091e-02 72.2792 161.0084)" gradientUnits="userSpaceOnUse">
							<stop  offset="0.1947" style="stop-color:#3FACFF"/>
							<stop  offset="0.2658" style="stop-color:#3591D7"/>
							<stop  offset="0.41" style="stop-color:#225E8C"/>
							<stop  offset="0.5389" style="stop-color:#143650"/>
							<stop  offset="0.6478" style="stop-color:#091924"/>
							<stop  offset="0.7324" style="stop-color:#02070A"/>
							<stop  offset="0.7824" style="stop-color:#000000"/>
						</radialGradient>
						<path class="st40" d="M492.2,356c-0.1,0.5-4.7-0.6-10.4-2.3c-5.5-1.7-10-3.6-9.7-4c0.1-0.5,4.7,0.6,10.4,2.3
							C488.1,353.7,492.4,355.5,492.2,356z"/>
						
							<radialGradient id="SVGID_23_" cx="518.4082" cy="-1551.8087" r="12.1558" gradientTransform="matrix(0.8265 0.26 1.210706e-02 -3.765091e-02 68.559 172.5775)" gradientUnits="userSpaceOnUse">
							<stop  offset="0.1946" style="stop-color:#3FACFF"/>
							<stop  offset="0.2657" style="stop-color:#3591D7"/>
							<stop  offset="0.4099" style="stop-color:#225E8C"/>
							<stop  offset="0.5389" style="stop-color:#143650"/>
							<stop  offset="0.6478" style="stop-color:#091924"/>
							<stop  offset="0.7324" style="stop-color:#02070A"/>
							<stop  offset="0.7824" style="stop-color:#000000"/>
						</radialGradient>
						<path class="st41" d="M488.3,368.9c-0.1,0.5-4.7-0.6-10.4-2.3c-5.5-1.7-10-3.6-9.7-4c0.2-0.4,4.7,0.6,10.4,2.3
							C484.1,366.6,488.4,368.5,488.3,368.9z"/>
					</g>
				</g>
			</g>
		</g>
		<g>
			<g id="Group_938_1_" transform="translate(-953.348 -232.003)">
				<g id="Group_931_1_">
					<path id="Path_8573_1_" class="st35" d="M1452.8,250.2c-1.6,2.5-2.9,5-4.1,7.7l-0.5-0.1c-3.2-0.4-6.4-0.3-9.6,0.1
						c-1,0.1-4.4,0.8-5.6,1.2c-3.4,0.9-5.9,2-8.7,3.6c-0.1,0-0.2,0.1-0.3,0.2c-2.2-2-4.6-3.8-7-5.3c8.9-7.2,20.5-10.3,31.9-8.3
						c1.2,0.2,2.4,0.4,3.6,0.8L1452.8,250.2z"/>
					<path id="Path_8574_1_" class="st35" d="M1481,292.1c-0.7,4.6-2.1,9.1-4.3,13.2c-1.2,2.2-2.7,4.3-4.2,6.3
						c-3.8,4.6-8.4,8.2-13.7,10.7c-5.9,2.7-12.2,4.1-18.7,3.9c-5.9-0.2-11.6-1.7-16.8-4.4c-2.2-1.2-4.4-2.6-6.4-4.1
						c-10.6-8.3-16-21.6-14.3-34.9c0.3-2.5,0.9-4.9,1.7-7.3c0.4-1.1,0.8-2.3,1-2.9c2.2,4.8,4.5,8.9,5.4,10.3c0,0.1-0.1,0.2,0,0.3
						c-1.7,6.3-2,12.1-1.2,18c0,0.1,0,0.2,0,0.2c0.3,1.8,0.5,2.5,1,3.7c1.6,3.2,5.2,6.5,10.3,9.3c8.4,4.6,19,7,26.5,6
						c7.7-1.1,18.2-7.9,24.4-16c1-1.3,1.8-2.6,2.6-4c0.6-1,1.4-2.7,1.3-2.7l0,0c0,0,0.1-0.1,0-0.1c0,0,0,0,0-0.1s0.1,0,0-0.1
						c-0.1-0.1,0,0,0-0.1c0,0,0,0,0-0.1c0-0.1,0,0,0,0s0,0,0-0.1s0-0.1,0-0.1l0,0c0-0.1,0.1-0.2,0.1-0.3c0.1-0.3,0.6-1.7,0.6-2
						c0.4-1.7,0.5-3.2,0.5-4.6c0-0.7-0.2-1.9-0.3-2.2c0,0,0-0.1-0.1-0.3s-0.1-0.6-0.3-1c-0.1-0.6-0.4-1.3-0.4-1.6
						c-1.6-5.4-4-9.6-7.6-13.7c-0.1-0.2-0.3-0.4-0.4-0.4l0-0.1l0,0c0.2-1.2,0.7-6.2,0.8-11.8l0,0l0.2,0.2c0.4,0.3,1.5,1.4,2,1.9
						c2.2,2.4,4.2,5.1,5.9,8.1C1480.6,276.2,1482,284.1,1481,292.1z"/>
					<path id="Path_8575_1_" d="M1462.4,280.9c0,0.2-0.4,0.9-0.9,1.4c-1.4,1.5-4.1,3.3-7,4.5c-1.7,0.7-3.3,1.1-4,0.9
						c-0.3-0.1-0.5-0.2-0.5-0.7c0.1-0.9,0.7-2.1,1.8-3.3c0.6-0.6,2.9-2.7,3.9-3.7c1.8-1.5,3.3-2.5,4.4-3c0.4-0.1,0.8-0.3,0.9-0.2
						c0.2,0.1,0.6,0.6,0.9,1.3C1462,278.8,1462.4,280.5,1462.4,280.9z"/>
					<path id="Path_8576_1_" d="M1434.8,290.8c-0.1,0.1-0.3,0.4-0.8,0.6c-0.4,0.2-1.7,0.3-2.4,0.4c-2.6,0.2-5.5,0-7.7-0.6
						c-1.2-0.4-2.1-0.7-2.9-1.1l-0.4-0.3l-0.1-0.5c-0.3-0.8-0.4-2.1-0.5-2.5c0-0.4,0-0.8,0.2-1.2c0.1-0.1,0.1-0.1,0.5-0.2
						c0.5-0.1,1-0.1,1.7-0.1c1.6,0.2,4,0.8,7,1.9c2.5,0.9,3.4,1.3,4.3,2.1C1434.4,289.8,1434.9,290.5,1434.8,290.8z"/>
					<path id="Path_8577_1_" d="M1455.3,304.1c0,0,0,0.6,0,1.3c-0.1,0.7,0,1.3,0,1.3c-0.1,0-0.3,0.1-0.4,0.1l-0.4,0.1l-0.2,1.4
						c-0.2,0.7-0.3,1.5-0.3,1.6l-0.1,0.2l-0.4-0.3l-0.4-0.3l-0.7-3.3l-0.1,0c-0.2,0-1.6,0.5-2.3,0.8c-2.6,0.8-5.2,1.3-8,1.4
						c-0.4,0-0.8,0.1-0.8,0.1s0.2,0.8,0.4,1.8l0.4,1.8l-0.1,0.3c-0.1,0.2-0.1,0.3-0.1,0.3s-0.2-0.2-0.5-0.6
						c-0.4-0.5-0.7-1.1-1.1-1.7l-0.2-0.4l-0.4,0.1l-0.4,0.1l-0.2-0.5c0-0.2-0.2-0.6-0.3-0.8l-0.1-0.4l-0.4-0.2
						c-0.2-0.2-0.5-0.2-0.5-0.2c-0.1,0-0.1-0.1-0.1-0.2l0-0.1l1.5-0.3l1.5-0.3l0,0.2l0,0.2l0.5-0.1c0.3-0.1,1.2-0.2,2.1-0.3l1.5-0.3
						l0.3-0.7l0.3-0.7l0.5-0.1l-0.3-1.3l-0.3-1.3l-0.7-0.2c-2.4-0.5-3.9-1.3-4.5-2.5c-0.2-0.3-0.2-0.4-0.4-1.5s-0.3-1.3-0.2-1.6
						c0.1-0.6,0.5-1.2,1-1.5c0.2-0.1,0.8-0.3,3.6-0.8l3.3-0.7l0.4,0.1c0.5,0.1,0.8,0.2,1,0.5c0.4,0.3,0.5,0.6,0.7,1.4
						c0.2,1.1,0.3,2,0.3,2.4c-0.1,0.5-0.2,1.1-0.4,1.5c-0.4,0.9-1.3,1.9-2.4,2.4l-0.3,0.2l0.3,1.3l0.3,1.3l0.3-0.1l0.3-0.1l0.5,0.5
						l0.5,0.5l1.7-0.3c0.9-0.2,1.7-0.3,1.8-0.4c0.1,0,0.1,0,0.3-0.3l0.1-0.2l1.4-0.3C1455,304,1455.3,304,1455.3,304.1z"/>
					<path id="Path_8578_1_" d="M1449.7,308.8c-0.2,0.1-0.4,0.3-0.4,0.3s-0.2-0.2-0.5-0.2l-0.4-0.2l-0.2,0.5c-0.6,0.9-0.6,1-0.8,1.1
						c-0.3,0.1-0.4,0.1-0.9-0.5c-0.3-0.3-0.5-0.5-0.5-0.5s-0.2,0-0.3,0.1l-0.3,0.1l-0.1,0.3l-0.1,0.3l-0.3,0
						c-0.2-0.1-0.4-0.1-0.7-0.2l-0.4-0.1l-0.1-0.6l3.2-0.7l3.2-0.7l0.1,0.3C1450.1,308.4,1450.1,308.4,1449.7,308.8z"/>
				</g>
				<path id="Path_8579_1_" class="st8" d="M1476.8,287.9c0,0,0-0.1-0.1-0.3c-3,0.3-11.3,1.8-17.6,9.8c0,0-4.8-10.9-16.5-8.4
					c-11.6,2.4-13.5,14.6-13.5,14.6c-7.9-5.6-16.5-3.3-19.6-2.3c0,0.1,0,0.2,0,0.2c0.3,1.8,0.5,2.5,1,3.7c1.6,3.2,5.2,6.5,10.3,9.3
					c8.4,4.6,19,7,26.5,6c7.7-1.1,18.2-7.9,24.4-16c1-1.3,1.8-2.6,2.6-4c0.6-1,1.4-2.7,1.3-2.7l0,0c0,0,0.1-0.1,0-0.1c0,0,0,0,0-0.1
					c0,0,0.1,0,0-0.1c-0.1-0.1,0,0,0-0.1c0,0,0,0,0-0.1l0,0c0,0,0,0,0-0.1l0-0.1l0,0c0-0.1,0.1-0.2,0.1-0.3c0.1-0.3,0.6-1.7,0.6-2
					c0.4-1.7,0.5-3.2,0.5-4.6C1477.1,289.4,1476.9,288.2,1476.8,287.9z M1449.7,308.8c-0.2,0.1-0.4,0.3-0.4,0.3s-0.2-0.2-0.5-0.2
					l-0.4-0.2l-0.2,0.5c-0.6,0.9-0.6,1-0.8,1.1c-0.3,0.1-0.4,0.1-0.9-0.5c-0.3-0.3-0.5-0.5-0.5-0.5s-0.2,0-0.3,0.1l-0.3,0.1
					l-0.1,0.3l-0.1,0.3l-0.3,0c-0.2-0.1-0.4-0.1-0.7-0.2l-0.4-0.1l-0.1-0.6l3.2-0.7l3.2-0.7l0.1,0.3
					C1450.1,308.4,1450.1,308.4,1449.7,308.8z M1455.3,305.4c-0.1,0.7,0,1.3,0,1.3c-0.1,0-0.3,0.1-0.4,0.1l-0.4,0.1l-0.2,1.4
					c-0.2,0.7-0.3,1.5-0.3,1.6l-0.1,0.2l-0.4-0.3l-0.4-0.3l-0.7-3.3l-0.1,0c-0.2,0-1.6,0.5-2.3,0.8c-2.6,0.8-5.2,1.3-8,1.4
					c-0.4,0-0.8,0.1-0.8,0.1s0.2,0.8,0.4,1.8l0.4,1.8l-0.1,0.3c-0.1,0.2-0.1,0.3-0.1,0.3s-0.2-0.2-0.5-0.6c-0.4-0.5-0.7-1.1-1.1-1.7
					l-0.2-0.4l-0.4,0.1l-0.4,0.1l-0.2-0.5c0-0.2-0.2-0.6-0.3-0.8l-0.1-0.4l-0.4-0.2c-0.2-0.2-0.5-0.2-0.5-0.2
					c-0.1,0-0.1-0.1-0.1-0.2l0-0.1l1.5-0.3l1.5-0.3l0,0.2l0,0.2l0.5-0.1c0.3-0.1,1.2-0.2,2.1-0.3l1.5-0.3l0.3-0.7l0.3-0.7l0.5-0.1
					l-0.3-1.3l-0.3-1.3l-0.7-0.2c-2.4-0.5-3.9-1.3-4.5-2.5c-0.2-0.3-0.2-0.4-0.4-1.5s-0.3-1.3-0.2-1.6c0.1-0.6,0.5-1.2,1-1.5
					c0.2-0.1,0.8-0.3,3.6-0.8l3.3-0.7l0.4,0.1c0.5,0.1,0.8,0.2,1,0.5c0.4,0.3,0.5,0.6,0.7,1.4c0.2,1.1,0.3,2,0.3,2.4
					c-0.1,0.5-0.2,1.1-0.4,1.5c-0.4,0.9-1.3,1.9-2.4,2.4l-0.3,0.2l0.3,1.3l0.3,1.3l0.3-0.1l0.3-0.1l0.5,0.5l0.5,0.5l1.7-0.3
					c0.9-0.2,1.7-0.3,1.8-0.4c0.1,0,0.1,0,0.3-0.3l0.1-0.2l1.4-0.3c1.1-0.2,1.4-0.3,1.4-0.3C1455.3,304.1,1455.3,304.7,1455.3,305.4
					z"/>
				<path id="Path_8580_1_" class="st9" d="M1409.5,301.3c-0.8,0.3-1.1,0.4-1.1,0.4"/>
				<path id="Path_8581_1_" class="st9" d="M1477.8,287.6c0,0-0.4,0-1.1,0"/>
				<path id="Path_8582_1_" class="st10" d="M1476.4,286.6c-0.1-0.6-0.4-1.3-0.4-1.6c-1.6-5.4-4-9.6-7.6-13.7
					c-0.1-0.2-0.3-0.4-0.4-0.4l0-0.1l0,0c0.2-1.2,0.7-6.2,0.8-11.8c0.2-7.6-0.5-16.3-4.3-18.3c0,0-5.7,0.8-11.6,9.6
					c-1.6,2.5-2.9,5-4.1,7.7l-0.5-0.1c-3.2-0.4-6.4-0.3-9.6,0.1c-1,0.1-4.4,0.8-5.6,1.2c-3.4,0.9-5.9,2-8.7,3.6
					c-0.1,0-0.2,0.1-0.3,0.2c-2.2-2-4.6-3.8-7-5.3c-9.3-5.7-15-4.2-15-4.2c-2.9,3.4,0.1,12,3.5,19.2c2.2,4.8,4.5,8.9,5.4,10.3
					c0,0.1-0.1,0.2,0,0.3c-1.7,6.3-2,12.1-1.2,18c3-1.1,11.6-3.4,19.6,2.3c0,0,2-12.3,13.5-14.6c11.6-2.4,16.5,8.4,16.5,8.4
					c6.3-7.9,14.7-9.5,17.6-9.8C1476.7,287.4,1476.5,287,1476.4,286.6z M1412.1,278c0,0-6.8-10.3-7-17l0,0c0-1.1,0.2-2.2,0.5-3
					c0,0,5.2-0.6,15.4,6.9c0,0-1.4,1.1-3.1,3.1l0,0C1415.9,270.3,1413.6,273.6,1412.1,278L1412.1,278z M1434.8,290.8
					c-0.1,0.1-0.3,0.4-0.8,0.6c-0.4,0.2-1.7,0.3-2.4,0.4c-2.6,0.2-5.5,0-7.7-0.6c-1.2-0.4-2.1-0.7-2.9-1.1l-0.4-0.3l-0.1-0.5
					c-0.3-0.8-0.4-2.1-0.5-2.5c0-0.4,0-0.8,0.2-1.2c0.1-0.1,0.1-0.1,0.5-0.2c0.5-0.1,1-0.1,1.7-0.1c1.6,0.2,4,0.8,7,1.9
					c2.5,0.9,3.4,1.3,4.3,2.1C1434.4,289.8,1434.9,290.5,1434.8,290.8z M1462.4,280.9c0,0.2-0.4,0.9-0.9,1.4c-1.4,1.5-4.1,3.3-7,4.5
					c-1.7,0.7-3.3,1.1-4,0.9c-0.3-0.1-0.5-0.2-0.5-0.7c0.1-0.9,0.7-2.1,1.8-3.3c0.6-0.6,2.9-2.7,3.9-3.7c1.8-1.5,3.3-2.5,4.4-3
					c0.4-0.1,0.8-0.3,0.9-0.2c0.2,0.1,0.6,0.6,0.9,1.3C1462,278.8,1462.4,280.5,1462.4,280.9z M1456,260.1L1456,260.1
					c-2.4-1.2-4-1.6-4-1.6c6-10.8,10.9-12.4,10.9-12.4c0.7,0.7,1.2,1.5,1.6,2.5l0,0c2.4,6.2,0.4,18.4,0.4,18.4
					C1462.4,264.2,1459.3,261.9,1456,260.1L1456,260.1z"/>
				<path id="Path_8583_1_" class="st9" d="M1448.7,257.9C1448.7,257.9,1448.7,258,1448.7,257.9"/>
				<path id="Path_8584_1_" class="st9" d="M1467.9,270.7c-0.1,0.2,0,0.3,0,0.3"/>
				<g id="Group_934_1_">
					<g id="Group_933_1_">
						<g id="Group_932_1_">
							<path id="Path_8585_1_" class="st11" d="M1464.5,248.7c-1,0.1-5.4,1-8.6,11.5l0,0c-2.4-1.2-4-1.6-4-1.6
								c6-10.8,10.9-12.4,10.9-12.4C1463.6,246.7,1464.1,247.6,1464.5,248.7z"/>
						</g>
						<path id="Path_8586_1_" class="st12" d="M1464.9,267.1c-2.5-2.8-5.6-5.2-9-6.9c3.1-10.6,7.6-11.4,8.6-11.5l0,0
							C1467,254.9,1464.9,267.1,1464.9,267.1z"/>
						<path id="Path_8587_1_" class="st12" d="M1464.7,248.6c-0.1,0-0.1,0-0.2,0L1464.7,248.6z"/>
					</g>
				</g>
				<path id="Path_8588_1_" class="st9" d="M1424.3,263.4c-0.1-0.2-0.4-0.2-0.5-0.4"/>
				<path id="Path_8589_1_" class="st9" d="M1410.8,283.1c0.2,0.4,0.3,0.5,0.3,0.5"/>
				<g id="Group_937_1_">
					<g id="Group_936_1_">
						<g id="Group_935_1_">
							<path id="Path_8590_1_" class="st11" d="M1421.1,264.9c0,0-1.4,1.1-3.1,3.1l0,0c-7.2-8.4-11.7-7.4-12.7-7.1
								c0-1.1,0.2-2.2,0.5-3C1405.6,258,1410.8,257.4,1421.1,264.9z"/>
						</g>
						<path id="Path_8591_1_" class="st12" d="M1417.8,268c-1.9,2.2-4.3,5.6-5.7,10c0,0-6.8-10.3-7-17l0,0
							C1406.1,260.7,1410.7,259.6,1417.8,268z"/>
						<path id="Path_8592_1_" class="st12" d="M1405.1,261c-0.1,0-0.1,0-0.2,0L1405.1,261z"/>
					</g>
				</g>
				<path id="Path_8593_1_" class="st8" d="M1454,275.9c0,0-3.8,1-4-2c-0.2-3,2.8-4.2,3.6-4.1c0.9-0.1,4.5,0.5,4.4,3.1
					c-0.1,2.7-1,2.4-1.5,2.6C1456.2,275.5,1454,275.9,1454,275.9z"/>
				<path id="Path_8594_1_" class="st8" d="M1425.6,281.7c0,0-3.8,1-4-2c-0.1-3.1,2.8-4.2,3.6-4.1c0.8,0,4.5,0.5,4.4,3.1
					c-0.1,2.7-1,2.4-1.5,2.6C1427.7,281.4,1425.6,281.7,1425.6,281.7z"/>
			</g>
			<g>
				<g>
					<g>
						
							<radialGradient id="SVGID_24_" cx="507.4058" cy="327.1452" r="12.9405" gradientTransform="matrix(0.8925 -0.1679 -3.728792e-02 -0.2148 43.1177 193.0586)" gradientUnits="userSpaceOnUse">
							<stop  offset="0" style="stop-color:#525458"/>
							<stop  offset="1" style="stop-color:#2B2D31"/>
						</radialGradient>
						<path class="st42" d="M512.8,34.7l-54,10.8c0,0,0.9-0.7,2.1-1.3c0.8-0.5,1.9-1.1,3-1.5c0.3-0.1,0.5-0.2,0.8-0.3
							c3-1,11-1.9,20.4-3.8c9.6-2,18.8-4.6,21.3-4.6c0.2,0,0.4,0,0.6,0c1.3-0.1,2.5,0.1,3.3,0.2C512,34.3,512.8,34.7,512.8,34.7z"/>
						<path class="st14" d="M506.9,33.8c-2,0.4-4.6,1.1-7.7,1.8c-4.2,1.1-9.4,2.4-14.5,3.4c-5.5,1.1-10.4,1.9-14.4,2.5
							c-2.7,0.4-4.9,0.7-6.5,1c-1.1,0.4-2.2,1-3,1.5c0.4-0.2,0.8-0.3,1.1-0.4c1.6-0.5,4.6-1,8.5-1.5c4-0.6,9-1.4,14.5-2.5
							c5.2-1.1,10.3-2.3,14.6-3.4c4.7-1.2,8.3-2.1,9.9-2.1c0.3,0,0.6,0,0.9,0C509.3,33.8,508.3,33.7,506.9,33.8z"/>
					</g>
					<g>
						
							<linearGradient id="SVGID_25_" gradientUnits="userSpaceOnUse" x1="488.1404" y1="371.1788" x2="488.1404" y2="404.3473" gradientTransform="matrix(0.9792 -0.2028 -0.2028 -0.9792 87.1666 525.0997)">
							<stop  offset="0" style="stop-color:#2C2E32"/>
							<stop  offset="8.428929e-02" style="stop-color:#55575B"/>
							<stop  offset="0.3288" style="stop-color:#2A2C30"/>
							<stop  offset="0.521" style="stop-color:#54565A"/>
							<stop  offset="1" style="stop-color:#26252B"/>
						</linearGradient>
						<path class="st43" d="M516.4,39.2c-2.4-5.4-5-5.7-12.4-3.8c-3.4,0.9-7.6,2-11.2,2.8c-5.1,1.3-10.2,2.3-15.4,3.2
							c-3.6,0.7-7.9,1.3-11.4,1.8c-7.6,1.2-9.8,2.4-9.9,8.4c-0.1,5.9,2.7,15.9,7.4,15.7s14.7-2.5,21-4c3.4-0.8,6.7-1.5,10.2-2.1
							c6.4-1.1,17.6-3,20.9-4.6C520.1,54.5,518.9,44.6,516.4,39.2z"/>
						
							<radialGradient id="SVGID_26_" cx="506.8179" cy="457.5947" r="25.3072" gradientTransform="matrix(0.8894 -0.1842 -0.2667 -1.2879 158.6061 733.813)" gradientUnits="userSpaceOnUse">
							<stop  offset="0" style="stop-color:#3FB6FF"/>
							<stop  offset="9.795301e-02" style="stop-color:#3EB1F8"/>
							<stop  offset="0.2456" style="stop-color:#3BA3E3"/>
							<stop  offset="0.4245" style="stop-color:#378CC1"/>
							<stop  offset="0.6278" style="stop-color:#316C92"/>
							<stop  offset="0.8489" style="stop-color:#294356"/>
							<stop  offset="1" style="stop-color:#24252A"/>
						</radialGradient>
						<path class="st44" d="M506.8,57.5c-4.1,0.9-8.7,1.7-12.1,2.2c-1.7,0.2-3.4,0.6-5.2,1c-1.7,0.3-3.4,0.7-5.2,1.2l-0.5,0.1
							c-3.2,0.8-7.1,1.7-10.9,2.5c-4.1,0.9-7.2,1.3-9.1,1.4c-1,0-2.6-1.4-3.9-4.7c-1.1-2.8-1.9-6.7-1.8-9.7c0.1-4.6,1.2-5.5,5.4-6.3
							c0.8-0.2,1.7-0.3,2.8-0.5c3-0.4,6.8-1.1,11.4-1.8c2.6-0.4,5.2-0.9,7.8-1.4c2.5-0.5,5.2-1.2,7.7-1.8c4.6-1.1,8.2-2.1,11.2-2.8
							c1.1-0.3,1.9-0.5,2.7-0.7c4.2-0.9,5.6-0.5,7.5,3.7c1.2,2.7,2.1,6.5,2.1,9.6c0.1,3.8-0.9,5.6-1.8,6
							C514.2,55.8,512.1,56.4,506.8,57.5L506.8,57.5z"/>
						
							<radialGradient id="SVGID_27_" cx="513.5036" cy="446.6613" r="37.7685" gradientTransform="matrix(0.8894 -0.1842 -0.1383 -0.6677 96.0335 431.6507)" gradientUnits="userSpaceOnUse">
							<stop  offset="0" style="stop-color:#525458"/>
							<stop  offset="1" style="stop-color:#2B2D31"/>
						</radialGradient>
						<path class="st45" d="M506.7,57.1c-4.1,0.9-8.6,1.7-12,2.2c-1.8,0.3-3.4,0.6-5.2,1c-1.8,0.4-3.4,0.7-5.2,1.2l-0.5,0.1
							c-3.2,0.8-7.1,1.7-10.8,2.4c-4.1,0.9-7.2,1.3-9,1.4c-0.6,0-2.2-1.2-3.5-4.4c-1.1-2.8-1.9-6.7-1.8-9.6c0-4.4,1.1-5.1,5-5.9
							c0.8-0.2,1.7-0.3,2.7-0.4c3-0.4,6.8-1.1,11.4-1.8c2.6-0.4,5.2-0.9,7.9-1.4c2.5-0.5,5.2-1.2,7.8-1.8c4.6-1.1,8.2-2.1,11.2-2.8
							c1.1-0.3,1.9-0.5,2.6-0.6c3.9-0.8,5.2-0.6,6.9,3.5c1.2,2.7,2,6.4,2.1,9.5c0.1,3.5-0.8,5.3-1.5,5.6
							C514.2,55.3,512.3,56,506.7,57.1z"/>
						
							<radialGradient id="SVGID_28_" cx="522.3746" cy="-705.6827" r="17.6811" gradientTransform="matrix(0.8499 -0.1687 -7.451243e-03 -3.884135e-02 35.9509 102.17)" gradientUnits="userSpaceOnUse">
							<stop  offset="0.1947" style="stop-color:#3FACFF"/>
							<stop  offset="0.2658" style="stop-color:#3591D7"/>
							<stop  offset="0.41" style="stop-color:#225E8C"/>
							<stop  offset="0.5389" style="stop-color:#143650"/>
							<stop  offset="0.6478" style="stop-color:#091924"/>
							<stop  offset="0.7324" style="stop-color:#02070A"/>
							<stop  offset="0.7824" style="stop-color:#000000"/>
						</radialGradient>
						<path class="st46" d="M500.2,38.4c0.1,0.7-6.5,2.6-14.9,4.2c-8.3,1.6-15.2,2.4-15.3,1.7c-0.1-0.7,6.5-2.6,14.9-4.2
							C493.1,38.6,500,37.8,500.2,38.4z"/>
						
							<radialGradient id="SVGID_29_" cx="522.7001" cy="-756.9831" r="17.6811" gradientTransform="matrix(0.8499 -0.1687 -7.451243e-03 -3.884135e-02 39.2812 119.5298)" gradientUnits="userSpaceOnUse">
							<stop  offset="0.1946" style="stop-color:#3FACFF"/>
							<stop  offset="0.2657" style="stop-color:#3591D7"/>
							<stop  offset="0.4099" style="stop-color:#225E8C"/>
							<stop  offset="0.5389" style="stop-color:#143650"/>
							<stop  offset="0.6478" style="stop-color:#091924"/>
							<stop  offset="0.7324" style="stop-color:#02070A"/>
							<stop  offset="0.7824" style="stop-color:#000000"/>
						</radialGradient>
						<path class="st47" d="M504.2,57.7c0.1,0.7-6.5,2.6-14.9,4.2s-15.2,2.4-15.3,1.7c-0.1-0.7,6.5-2.6,14.9-4.2
							C497.1,57.9,504,57,504.2,57.7z"/>
					</g>
				</g>
			</g>
		</g>
		<g>
			<g id="Group_938" transform="translate(-953.348 -232.003)">
				<g id="Group_931">
					<path id="Path_8573" class="st35" d="M1050.7,490.2c-3,2.1-5.7,4.5-8.3,7l-0.7-0.3c-3.5-1.8-7.4-3.3-11.2-4.2
						c-1.2-0.3-5.6-1.1-7-1.2c-4.4-0.4-7.9-0.3-11.9,0.3c-0.2,0.1-0.3,0-0.4,0.1c-1.7-3.3-3.6-6.4-5.8-9.4
						c13.7-4.3,28.5-2.5,40.9,4.7c1.3,0.7,2.6,1.7,3.8,2.5L1050.7,490.2z"/>
					<path id="Path_8574" class="st35" d="M1064.4,551.8c-2.8,5.1-6.6,9.7-11,13.4c-2.4,2-5,3.8-7.7,5.4c-6.4,3.6-13.6,5.7-20.8,6.2
						c-8.1,0.5-16.2-0.8-23.6-4c-6.7-2.9-12.8-7.2-17.6-12.7c-2-2.4-3.9-4.9-5.5-7.6c-8.6-14.4-8.9-32.5-0.7-47.1
						c1.5-2.7,3.3-5.3,5.3-7.7c0.9-1.1,2-2.3,2.5-2.8c0.4,6.6,1.2,12.4,1.6,14.5c0,0.1-0.1,0.2-0.2,0.3c-4.8,6.6-7.8,13.2-9.6,20.4
						c0,0.1,0,0.2-0.1,0.3c-0.5,2.2-0.7,3.2-0.5,4.7c0.4,4.5,3.1,9.9,7.8,15.5c7.7,9.2,18.9,16.8,28.1,19c9.5,2.3,24.7-1,35.6-7.5
						c1.7-1,3.3-2.3,5-3.5c1.2-0.9,2.9-2.6,2.8-2.6c0,0,0,0,0.1-0.1l0.1-0.1c0,0,0-0.1,0.1-0.1c0,0,0.1,0,0.1-0.1
						c0-0.1,0-0.1,0.1-0.1c0,0,0.1-0.1,0-0.1l0-0.1c0,0,0.1,0,0.1-0.1c0-0.1,0-0.1,0.1-0.1c0,0,0.1,0,0.1-0.1c0-0.1,0.1-0.2,0.3-0.4
						c0.3-0.4,1.5-1.8,1.7-2c1.2-1.8,2-3.5,2.6-5.1c0.2-0.8,0.6-2.3,0.6-2.7c0-0.1,0-0.2,0.1-0.3c0.1-0.3,0.1-0.8,0.1-1.2
						c0.1-0.7,0.2-1.7,0.3-2.1c0.5-7-0.2-12.9-2.6-19.5c-0.1-0.2-0.2-0.5-0.2-0.6c0,0,0-0.1-0.1-0.1l0,0c0.7-1.3,3.6-6.9,6.3-13.4
						l0,0l0.1,0.3c0.3,0.6,1.1,2.3,1.4,3.2c1.6,3.8,2.6,7.9,3.1,12C1071.2,533.1,1069.2,543.1,1064.4,551.8z"/>
					<path id="Path_8575" d="M1047.8,530.3c0,0.2-1,0.9-1.7,1.2c-2.3,1.2-6.3,2-10.3,2c-2.2,0-4.4-0.2-5-0.8
						c-0.4-0.3-0.4-0.5-0.1-0.9c0.5-1.1,1.8-2.1,3.6-3c0.9-0.5,4.6-1.9,6.3-2.5c2.8-0.9,5-1.5,6.4-1.4c0.4,0,1,0.1,1.2,0.2
						c0.3,0.1,0.4,1,0.4,2C1048.4,527.7,1048,529.9,1047.8,530.3z"/>
					<path id="Path_8576" d="M1011.2,529.2c-0.1,0.2-0.7,0.3-1.2,0.3c-0.5,0-2.1-0.4-2.9-0.6c-3.2-0.9-6.4-2.5-8.7-4.2
						c-1.3-0.9-2.1-1.8-2.8-2.6l-0.3-0.5l0.1-0.6c0.1-1,0.3-2.6,0.6-3.1c0.2-0.5,0.3-0.9,0.7-1.3c0.1-0.2,0.1-0.2,0.7-0.1
						c0.7,0.1,1.2,0.3,2.1,0.8c1.8,0.9,4.3,2.8,7.4,5.4c2.5,2.1,3.4,3.1,4,4.4C1011.2,527.9,1011.3,529,1011.2,529.2z"/>
					<path id="Path_8577" d="M1029.1,554.1c0,0-0.3,0.8-0.7,1.6c-0.3,0.9-0.7,1.5-0.7,1.5c-0.2,0-0.3-0.1-0.5-0.1l-0.5-0.1l-1,1.5
						c-0.5,0.8-1,1.6-1.1,1.6l-0.1,0.2l-0.2-0.5l-0.2-0.5l0.7-4.2l-0.1,0c-0.3,0-2.1-0.1-2.9-0.1c-3.4-0.3-6.8-0.8-9.9-1.9
						c-0.5-0.2-1-0.3-1-0.3s-0.2,1-0.4,2.2l-0.4,2.2l-0.4,0.3c-0.1,0.2-0.4,0.3-0.4,0.3s-0.2-0.2-0.4-1c-0.3-0.8-0.4-1.6-0.5-2.4
						l0-0.4l-0.5-0.1l-0.5-0.1l0-0.6c0-0.3,0-0.8,0-1l0.1-0.5l-0.3-0.5c-0.2-0.2-0.4-0.5-0.4-0.5c-0.1-0.1-0.1-0.2,0-0.3l0-0.2
						l1.9,0.3l1.9,0.3l0.1,0.2l0.1,0.2l0.7,0.1c0.4,0.1,1.5,0.3,2.5,0.5l1.9,0.3l0.6-0.7l0.6-0.7l0.6,0.1l0.3-1.6l0.3-1.6l-0.7-0.5
						c-2.5-1.6-3.8-3.3-4.1-5c0-0.3,0-0.5,0.1-2c0.3-1.5,0.3-1.7,0.4-2c0.3-0.8,1-1.2,1.8-1.3c0.3,0,1,0.1,4.6,0.7l4.2,0.7l0.5,0.3
						c0.5,0.4,0.7,0.6,1,1.1c0.3,0.6,0.3,1,0.2,1.9c-0.2,1.3-0.5,2.4-0.7,2.9c-0.3,0.6-0.7,1.1-1.2,1.6c-1,0.9-2.5,1.6-3.9,1.8
						l-0.4,0l-0.3,1.6l-0.3,1.6l0.3,0.1l0.3,0.1l0.4,0.8l0.3,0.8l2.1,0.4c1.1,0.2,2.1,0.4,2.2,0.4c0.2,0,0.2,0,0.3-0.1l0.2-0.3
						l1.8,0.3C1028.7,553.9,1029.1,554,1029.1,554.1z"/>
					<path id="Path_8578" d="M1020.3,557.1c-0.3,0.1-0.5,0.1-0.5,0.1s-0.3-0.2-0.4-0.5l-0.3-0.4l-0.5,0.4c-1.1,0.8-1.2,0.9-1.4,0.9
						c-0.4-0.1-0.5-0.1-0.9-1c-0.2-0.4-0.4-0.8-0.4-0.8s-0.2,0-0.4-0.1l-0.4-0.1l-0.3,0.4l-0.3,0.4l-0.4-0.2
						c-0.3-0.1-0.6-0.3-0.7-0.4l-0.5-0.3l0.2-0.9l4,0.7l4,0.7l-0.1,0.4C1021,556.8,1021,556.8,1020.3,557.1z"/>
				</g>
				<path id="Path_8579" class="st8" d="M1061.4,545c0-0.1,0-0.2,0.1-0.3c-3.6-1-14-3-25,3.2c0,0-0.7-14.8-15.2-17.3
					c-14.5-2.5-22.4,10.9-22.4,10.9c-6.7-10.2-17.7-11.4-21.8-11.5c0,0.1,0,0.2-0.1,0.3c-0.5,2.2-0.7,3.2-0.5,4.7
					c0.4,4.5,3.1,9.9,7.8,15.5c7.7,9.2,18.9,16.8,28.1,19c9.5,2.3,24.7-1,35.6-7.5c1.7-1,3.3-2.3,5-3.5c1.2-0.9,2.9-2.6,2.8-2.6
					c0,0,0,0,0.1-0.1l0.1-0.1c0,0,0-0.1,0.1-0.1c0,0,0.1,0,0.1-0.1c0-0.1,0-0.1,0.1-0.1c0,0,0.1-0.1,0-0.1l0-0.1c0,0,0.1,0,0.1-0.1
					c0,0,0-0.1,0.1-0.1c0,0,0.1,0,0.1-0.1c0-0.1,0.1-0.2,0.3-0.4c0.3-0.4,1.5-1.8,1.7-2c1.2-1.8,2-3.5,2.6-5.1
					C1061.1,546.9,1061.4,545.4,1061.4,545z M1020.3,557.1c-0.3,0.1-0.5,0.1-0.5,0.1s-0.3-0.2-0.4-0.5l-0.3-0.4l-0.5,0.4
					c-1.1,0.8-1.2,0.9-1.4,0.9c-0.4-0.1-0.5-0.1-0.9-1c-0.2-0.4-0.4-0.8-0.4-0.8s-0.2,0-0.4-0.1l-0.4-0.1l-0.3,0.4l-0.3,0.4
					l-0.4-0.2c-0.3-0.1-0.6-0.3-0.7-0.4l-0.5-0.3l0.2-0.9l4,0.7l4,0.7l-0.1,0.4C1021,556.8,1021,556.8,1020.3,557.1z M1028.4,555.6
					c-0.3,0.9-0.7,1.5-0.7,1.5c-0.2,0-0.3-0.1-0.5-0.1l-0.5-0.1l-1,1.5c-0.5,0.8-1,1.6-1.1,1.6l-0.1,0.2l-0.2-0.5l-0.2-0.5l0.7-4.1
					l-0.1,0c-0.3,0-2.1-0.1-2.9-0.1c-3.4-0.3-6.8-0.8-9.9-1.9c-0.5-0.2-1-0.3-1-0.3s-0.2,1-0.4,2.2l-0.4,2.2l-0.4,0.3
					c-0.1,0.2-0.4,0.3-0.4,0.3s-0.2-0.2-0.4-1c-0.3-0.8-0.4-1.6-0.5-2.4l0-0.4l-0.5-0.1l-0.5-0.1l0-0.6c0-0.3,0-0.8,0-1l0.1-0.5
					l-0.3-0.5c-0.2-0.2-0.4-0.5-0.4-0.5c-0.1-0.1-0.1-0.2,0-0.3l0-0.2l1.9,0.3l1.9,0.3l0.1,0.2l0.1,0.2l0.7,0.1
					c0.4,0.1,1.5,0.3,2.5,0.5l1.9,0.3l0.6-0.7l0.6-0.7l0.6,0.1l0.3-1.6l0.3-1.6l-0.7-0.5c-2.5-1.6-3.8-3.3-4.1-5c0-0.3,0-0.5,0.1-2
					c0.3-1.5,0.3-1.7,0.4-2c0.3-0.8,1-1.2,1.8-1.3c0.3,0,1,0.1,4.6,0.7l4.2,0.7l0.5,0.3c0.5,0.4,0.7,0.6,1,1.1
					c0.3,0.6,0.3,1,0.2,1.9c-0.2,1.3-0.5,2.4-0.7,2.9c-0.3,0.6-0.7,1.1-1.2,1.6c-1,0.9-2.5,1.6-3.9,1.8l-0.4,0l-0.3,1.6l-0.3,1.6
					l0.3,0.1l0.3,0.1l0.4,0.8l0.3,0.8l2.1,0.4c1.1,0.2,2.1,0.4,2.2,0.4c0.2,0,0.2,0,0.3-0.1l0.2-0.3l1.8,0.3
					c1.4,0.2,1.8,0.3,1.8,0.4C1029.1,554.1,1028.7,554.8,1028.4,555.6z"/>
				<path id="Path_8580" class="st9" d="M977.1,530c-1-0.1-1.5,0-1.5,0"/>
				<path id="Path_8581" class="st9" d="M1062.8,545c0,0-0.5-0.2-1.3-0.4"/>
				<path id="Path_8582" class="st10" d="M1061.6,543.4c0.1-0.7,0.2-1.7,0.3-2.1c0.5-7-0.2-12.9-2.6-19.5c-0.1-0.2-0.2-0.5-0.2-0.6
					c0,0,0-0.1-0.1-0.1l0,0c0.7-1.3,3.6-6.9,6.3-13.4c3.6-8.8,6.8-19.3,3.3-23.2c0,0-6.9-1.7-17.8,5.9c-3,2.1-5.7,4.5-8.3,7
					l-0.7-0.3c-3.5-1.8-7.4-3.3-11.2-4.2c-1.2-0.3-5.6-1.1-7-1.2c-4.4-0.4-7.9-0.3-11.9,0.3c-0.2,0.1-0.3,0-0.4,0.1
					c-1.7-3.3-3.6-6.4-5.8-9.4c-8.2-10.9-15.5-11.6-15.5-11.6c-4.8,2.6-5.3,14-4.7,24c0.4,6.6,1.2,12.4,1.6,14.5
					c0,0.1-0.1,0.2-0.2,0.3c-4.8,6.6-7.8,13.2-9.6,20.4c4,0.1,15.1,1.4,21.8,11.5c0,0,7.9-13.4,22.4-10.9
					c14.6,2.5,15.2,17.3,15.2,17.3c11-6.3,21.4-4.3,25-3.2C1061.5,544.3,1061.5,543.9,1061.6,543.4z M990.6,504c0,0-3.3-15.2-0.4-23
					l0,0c0.4-1.3,1.1-2.4,2-3.2c0,0,6.3,1.7,14.8,15.1c0,0-2.1,0.6-5.1,2.2l0,0C998.6,496.8,994.3,499.6,990.6,504L990.6,504z
					 M1011.2,529.2c-0.1,0.2-0.7,0.3-1.2,0.3c-0.5,0-2.1-0.4-2.9-0.6c-3.2-0.9-6.4-2.5-8.7-4.2c-1.3-0.9-2.1-1.8-2.8-2.6l-0.3-0.5
					l0.1-0.6c0.1-1,0.3-2.6,0.6-3.1c0.2-0.5,0.3-0.9,0.7-1.3c0.1-0.2,0.1-0.2,0.7-0.1c0.7,0.1,1.2,0.3,2.1,0.8
					c1.8,0.9,4.3,2.8,7.4,5.4c2.5,2.1,3.4,3.1,4,4.4C1011.2,527.9,1011.3,529,1011.2,529.2z M1047.8,530.3c0,0.2-1,0.9-1.7,1.2
					c-2.3,1.2-6.3,2-10.3,2c-2.2,0-4.4-0.2-5-0.8c-0.4-0.3-0.4-0.5-0.1-0.9c0.5-1.1,1.8-2.1,3.6-3c0.9-0.5,4.6-1.9,6.3-2.5
					c2.8-0.9,5-1.5,6.4-1.4c0.4,0,1,0.1,1.2,0.2c0.3,0.1,0.4,1,0.4,2C1048.4,527.7,1048,529.9,1047.8,530.3z M1049.8,503.2
					L1049.8,503.2c-2.2-2.5-4-3.8-4-3.8c12-9.8,18.3-9.5,18.3-9.5c0.5,1,0.7,2.3,0.8,3.7l0,0c0,8.3-7.8,21.6-7.8,21.6
					C1055.5,510.9,1053.1,506.8,1049.8,503.2L1049.8,503.2z"/>
				<path id="Path_8583" class="st9" d="M1042.4,497.2c0,0,0,0.1-0.1,0.1"/>
				<path id="Path_8584" class="st9" d="M1059,520.9c-0.1,0.2-0.1,0.3-0.1,0.3"/>
				<g id="Group_934">
					<g id="Group_933">
						<g id="Group_932">
							<path id="Path_8585" class="st11" d="M1065,493.8c-1.1-0.4-6.8-1.4-15.1,9.5l0,0c-2.2-2.5-3.9-3.7-3.9-3.7
								c12-9.8,18.3-9.5,18.3-9.5C1064.8,491.1,1064.9,492.3,1065,493.8z"/>
						</g>
						<path id="Path_8586" class="st12" d="M1057.1,515.4c-1.6-4.5-4.1-8.6-7.3-12.2c8.3-10.9,13.9-9.8,15.1-9.5l0,0
							C1065,502.1,1057.1,515.4,1057.1,515.4z"/>
						<path id="Path_8587" class="st12" d="M1065.2,493.8c-0.1,0-0.2,0-0.2,0L1065.2,493.8z"/>
					</g>
				</g>
				<path id="Path_8588" class="st9" d="M1011.5,492.6c-0.2-0.2-0.2-0.4-0.4-0.7"/>
				<path id="Path_8589" class="st9" d="M986.8,509.3c0.1,0.5,0.2,0.8,0.2,0.8"/>
				<g id="Group_937">
					<g id="Group_936">
						<g id="Group_935">
							<path id="Path_8590" class="st11" d="M1007,492.8c0,0-2.1,0.6-5.1,2.2l0,0c-4.6-13.1-10.3-13.9-11.6-14
								c0.4-1.3,1.1-2.4,2-3.2C992.3,477.7,998.6,479.5,1007,492.8z"/>
						</g>
						<path id="Path_8591" class="st12" d="M1001.9,495c-3.2,1.7-7.6,4.6-11.2,9.1c0,0-3.3-15.2-0.4-23l0,0
							C991.5,481.1,997.3,482,1001.9,495z"/>
						<path id="Path_8592" class="st12" d="M990.3,481c-0.1,0-0.2,0-0.2,0L990.3,481z"/>
					</g>
				</g>
				<path id="Path_8593" class="st8" d="M1040.3,520.6c0,0-4.9-0.5-3.7-4.2c1.2-3.7,5.2-3.5,6.1-3.2c1.1,0.4,5,2.6,3.7,5.6
					c-1.3,3-2.2,2.3-2.9,2.3C1043.1,521.3,1040.3,520.6,1040.3,520.6z"/>
				<path id="Path_8594" class="st8" d="M1004.6,514.5c0,0-4.9-0.5-3.7-4.2c1.2-3.7,5.2-3.5,6.1-3.2c1.1,0.4,5,2.6,3.7,5.6
					c-1.3,3-2.2,2.3-2.9,2.3C1007.1,515.2,1004.6,514.5,1004.6,514.5z"/>
			</g>
			<g>
				<g>
					<g>
						
							<radialGradient id="SVGID_30_" cx="44.3127" cy="-19.6733" r="16.1757" gradientTransform="matrix(0.8923 0.1689 4.355176e-02 -0.2136 31.5533 261.9529)" gradientUnits="userSpaceOnUse">
							<stop  offset="0" style="stop-color:#525458"/>
							<stop  offset="1" style="stop-color:#2B2D31"/>
						</radialGradient>
						<path class="st48" d="M105.3,283.4l-67.8-12.1c0,0,1.3-0.4,3.1-0.7c1.3-0.2,2.7-0.4,4.2-0.4c0.3,0,0.6,0,0.9,0.1
							c3.8,0.2,13.5,2.8,25.5,4.9s23.9,3.3,27,4.3c0.3,0.1,0.5,0.2,0.7,0.2c1.5,0.6,2.8,1.2,3.8,1.8
							C104.5,282.6,105.3,283.4,105.3,283.4z"/>
						<path class="st14" d="M98.9,279.7c-2.5-0.4-5.8-0.9-9.8-1.4c-5.4-0.7-12-1.5-18.4-2.6c-6.9-1.2-13-2.6-17.9-3.7
							c-3.3-0.8-6-1.3-8-1.8c-1.4,0.1-3,0.2-4.2,0.4c0.5,0,1,0,1.5,0.1c2.1,0.2,5.8,1,10.5,2c4.9,1.1,11,2.5,18,3.7
							c6.5,1.1,13.2,1.9,18.5,2.6c6,0.7,10.7,1.3,12.6,1.9c0.4,0.2,0.8,0.2,1.1,0.4C101.7,280.9,100.4,280.3,98.9,279.7z"/>
					</g>
					<g>
						
							<linearGradient id="SVGID_31_" gradientUnits="userSpaceOnUse" x1="67.8841" y1="128.2202" x2="67.8841" y2="169.6808" gradientTransform="matrix(0.9858 0.168 0.168 -0.9858 -22.3863 420.6184)">
							<stop  offset="0" style="stop-color:#2C2E32"/>
							<stop  offset="8.428929e-02" style="stop-color:#55575B"/>
							<stop  offset="0.3288" style="stop-color:#2A2C30"/>
							<stop  offset="0.521" style="stop-color:#54565A"/>
							<stop  offset="1" style="stop-color:#26252B"/>
						</linearGradient>
						<path class="st49" d="M107.5,290.4c-0.4-7.5-3.1-9-12.7-10.1c-4.4-0.5-9.7-1.2-14.2-1.8c-6.4-0.9-12.9-2-19.3-3.3
							c-4.5-1-9.7-2.1-14-3c-9.4-2.1-12.5-1.6-15.3,5.3s-4.2,19.7,1.6,21.7c5.6,2,18.3,3.7,26.3,4.8c4.3,0.6,8.5,1.3,12.7,2.2
							c7.9,1.7,22,4.5,26.4,4.2C104.8,309.9,107.9,297.8,107.5,290.4z"/>
						
							<radialGradient id="SVGID_32_" cx="43.9189" cy="105.6441" r="31.6395" gradientTransform="matrix(0.8954 0.1526 0.221 -1.2965 5.5256 421.3153)" gradientUnits="userSpaceOnUse">
							<stop  offset="0" style="stop-color:#3FB6FF"/>
							<stop  offset="9.795301e-02" style="stop-color:#3EB1F8"/>
							<stop  offset="0.2456" style="stop-color:#3BA3E3"/>
							<stop  offset="0.4245" style="stop-color:#378CC1"/>
							<stop  offset="0.6278" style="stop-color:#316C92"/>
							<stop  offset="0.8489" style="stop-color:#294356"/>
							<stop  offset="1" style="stop-color:#24252A"/>
						</radialGradient>
						<path class="st50" d="M87.9,307.3c-5.2-0.9-10.9-2.1-15-2.9c-2.2-0.5-4.3-0.8-6.5-1.2c-2.2-0.4-4.3-0.7-6.5-1l-0.6-0.1
							c-4.1-0.6-9.1-1.2-13.9-2.1c-5.2-0.9-9-1.7-11.2-2.5c-1.1-0.4-2.4-2.8-2.4-7.2c-0.1-3.9,0.9-8.7,2.3-12.2
							c2.1-5.3,3.9-5.8,9.3-4.9c1,0.2,2.1,0.4,3.4,0.7c3.6,0.8,8.4,1.8,14.1,3c3.2,0.7,6.5,1.3,9.7,1.9c3.3,0.6,6.5,1,9.8,1.5
							c5.8,0.8,10.6,1.4,14.3,1.8c1.4,0.1,2.5,0.3,3.5,0.5c5.3,0.9,6.9,2,7.1,7.7c0.2,3.8-0.5,8.5-1.9,12.1
							c-1.6,4.4-3.7,6.1-4.9,6.2C97.4,308.7,94.7,308.5,87.9,307.3L87.9,307.3z"/>
						
							<radialGradient id="SVGID_33_" cx="52.2834" cy="98.8624" r="47.2106" gradientTransform="matrix(0.8954 0.1526 0.1146 -0.6722 19.9246 336.8262)" gradientUnits="userSpaceOnUse">
							<stop  offset="0" style="stop-color:#525458"/>
							<stop  offset="1" style="stop-color:#2B2D31"/>
						</radialGradient>
						<path class="st51" d="M88,306.8c-5.2-0.9-10.9-2.1-15-2.9c-2.2-0.5-4.3-0.8-6.5-1.2c-2.2-0.4-4.3-0.7-6.5-1l-0.6-0.1
							c-4.1-0.6-9.1-1.2-13.8-2c-5.2-0.9-8.9-1.7-11-2.5c-0.8-0.2-1.9-2.4-2-6.7c-0.1-3.9,0.9-8.6,2.2-12c2.1-5.1,3.6-5.5,8.5-4.6
							c0.9,0.2,2.1,0.4,3.3,0.7c3.6,0.8,8.4,1.8,14.1,3c3.2,0.7,6.5,1.3,9.7,1.9s6.6,1,9.8,1.5c5.8,0.8,10.6,1.4,14.3,1.8
							c1.3,0.1,2.5,0.3,3.4,0.5c4.9,0.8,6.2,1.7,6.5,7.2c0.2,3.7-0.5,8.4-1.8,12c-1.5,4.2-3.4,5.8-4.3,5.9
							C97.5,308.1,95,308,88,306.8z"/>
						
							<radialGradient id="SVGID_34_" cx="41.1401" cy="-1333.1116" r="22.1014" gradientTransform="matrix(0.8529 0.1526 7.215281e-03 -3.888588e-02 44.5985 220.6683)" gradientUnits="userSpaceOnUse">
							<stop  offset="0.1947" style="stop-color:#3FACFF"/>
							<stop  offset="0.2658" style="stop-color:#3591D7"/>
							<stop  offset="0.41" style="stop-color:#225E8C"/>
							<stop  offset="0.5389" style="stop-color:#143650"/>
							<stop  offset="0.6478" style="stop-color:#091924"/>
							<stop  offset="0.7324" style="stop-color:#02070A"/>
							<stop  offset="0.7824" style="stop-color:#000000"/>
						</radialGradient>
						<path class="st52" d="M88.9,282.1c-0.2,0.9-8.7,0-19.2-1.8c-10.4-1.9-18.8-4.1-18.6-5c0.2-0.9,8.7,0,19.2,1.8
							C80.7,279,89,281.3,88.9,282.1z"/>
						
							<radialGradient id="SVGID_35_" cx="41.5471" cy="-1397.2372" r="22.1014" gradientTransform="matrix(0.8529 0.1526 7.215281e-03 -3.888588e-02 40.5674 242.3929)" gradientUnits="userSpaceOnUse">
							<stop  offset="0.1946" style="stop-color:#3FACFF"/>
							<stop  offset="0.2657" style="stop-color:#3591D7"/>
							<stop  offset="0.4099" style="stop-color:#225E8C"/>
							<stop  offset="0.5389" style="stop-color:#143650"/>
							<stop  offset="0.6478" style="stop-color:#091924"/>
							<stop  offset="0.7324" style="stop-color:#02070A"/>
							<stop  offset="0.7824" style="stop-color:#000000"/>
						</radialGradient>
						<path class="st53" d="M84.7,306.4c-0.2,0.9-8.7,0-19.2-1.8c-10.4-1.8-18.8-4-18.6-4.9c0.2-0.9,8.7,0,19.2,1.8
							C76.5,303.4,84.9,305.5,84.7,306.4z"/>
					</g>
				</g>
			</g>
		</g>
	</g>
	<g>
		<ellipse class="st54" cx="172.6" cy="371.6" rx="65.1" ry="13.5"/>
		<g>
			
				<linearGradient id="SVGID_36_" gradientUnits="userSpaceOnUse" x1="257.2" y1="248.394" x2="257.2" y2="289.4153" gradientTransform="matrix(1 0 0 -1 0 434)">
				<stop  offset="0" style="stop-color:#FFFFFF;stop-opacity:0"/>
				<stop  offset="1" style="stop-color:#3FFFFF"/>
			</linearGradient>
			<circle class="st55" cx="257.2" cy="163.9" r="26"/>
			
				<ellipse transform="matrix(0.1602 -0.9871 0.9871 0.1602 54.2175 391.525)" class="st56" cx="257.2" cy="163.9" rx="14.3" ry="14.3"/>
			<path class="st8" d="M262.7,163.9c0,3-2.5,5.5-5.5,5.5s-5.5-2.5-5.5-5.5s2.5-5.5,5.5-5.5C260.3,158.4,262.7,160.8,262.7,163.9z"
				/>
			<g>
				
					<linearGradient id="SVGID_37_" gradientUnits="userSpaceOnUse" x1="105.6634" y1="281.4638" x2="157.7634" y2="281.4638" gradientTransform="matrix(1 0 0 -1 0 434)">
					<stop  offset="0" style="stop-color:#49277C"/>
					<stop  offset="0.2613" style="stop-color:#452476"/>
					<stop  offset="0.6176" style="stop-color:#3A1D64"/>
					<stop  offset="1" style="stop-color:#29134A"/>
				</linearGradient>
				<path class="st57" d="M144.3,139.4c-6.8-2.8-10.7,1.9-11.9,7c-1.3,5.5,1.3,18.2-1,22.4c-3.2,5.8-11.1,10.8-20.2,7.1l-5.6-2.9
					c2.4-1,5.9-3.7,7.4-5.1c11.3-10.1,3-34.2,16.2-39.1c0.9-0.3,10.2-3.6,14.9,4.7c1,1.7,1.4,3.7,1.1,5.4
					C145.3,138.9,144.3,139.4,144.3,139.4z"/>
				<g>
					
						<linearGradient id="SVGID_38_" gradientUnits="userSpaceOnUse" x1="200.6056" y1="126.422" x2="159.3162" y2="151.5546" gradientTransform="matrix(1 0 0 -1 0 434)">
						<stop  offset="0" style="stop-color:#2756A9"/>
						<stop  offset="1" style="stop-color:#22267A"/>
					</linearGradient>
					<path class="st58" d="M202.3,363l-11.8-0.7c1.7,0.9-1.2-22.1-6.5-43.9c-2.8-11.5,1.1-23.3-0.3-24.5
						c-5.6-5.3-19.5-35.1-26.1-49.7c7.1-0.7,15.4-3.1,24-8.8c1.2-0.8,1.7,5.2,2.1,3.9c10.5,18.2,14.8,32.1,20.1,51.1
						C210.1,312.4,202.3,363,202.3,363z"/>
				</g>
				<g>
					<g>
						
							<linearGradient id="SVGID_39_" gradientUnits="userSpaceOnUse" x1="170.9689" y1="99.9906" x2="109.1451" y2="193.7568" gradientTransform="matrix(1 0 0 -1 0 434)">
							<stop  offset="0" style="stop-color:#2756A9"/>
							<stop  offset="1" style="stop-color:#18367A"/>
						</linearGradient>
						<path class="st59" d="M172.4,240.3c-0.1,11.2-0.5,31.8-2.4,48.5c-1.5,13.5-28,74.4-28,74.4l-10.7-0.2l-4.5-0.1
							c5.3-16.9,10.1-34,13.8-51.2c1.5-6.9,4.6-16.3,4.3-23.4c-0.7-14.6-9.5-18.7-8.2-34.2c0.5-6.1,2.2-11.6,2.2-12.1
							c0-0.4,0.7,2,0.6,1.6c0-0.3,0-0.7,0-1C144.4,244,157.4,246.7,172.4,240.3z"/>
					</g>
				</g>
				<path class="st60" d="M255.3,161.7c-0.8-0.2-5.5,1.5-10.1,3.7s-6.4,6.3-6.4,6.3l-32.1,15.2l-24.4-12.2l-0.9,13.5
					c0,0,16.2,11.6,24,10.8c11.3-1.1,35-21.2,35-21.2c1.9,0.3,5.1,0.3,7.7-1.6c2.6-1.8,2-5.4,2.5-7.1c0.5-1.7-1.5-2.3-1.5-2.3
					S257.1,162.3,255.3,161.7z"/>
				
					<linearGradient id="SVGID_40_" gradientUnits="userSpaceOnUse" x1="151" y1="249.8676" x2="235.9" y2="249.8676" gradientTransform="matrix(1 0 0 -1 0 434)">
					<stop  offset="0" style="stop-color:#FF4352"/>
					<stop  offset="1" style="stop-color:#FF7BB2"/>
				</linearGradient>
				<path class="st61" d="M151,170.3c0,0,12-8.3,23.8-2.2c7.3,3.8,33.3,17.8,33.3,17.8l25.3-12.6l2.5,9.9c0,0-22,19.5-29.1,19.2
					S151,170.3,151,170.3z"/>
				
					<linearGradient id="SVGID_41_" gradientUnits="userSpaceOnUse" x1="110.1064" y1="201.2536" x2="205.5269" y2="251.726" gradientTransform="matrix(1 0 0 -1 0 434)">
					<stop  offset="0" style="stop-color:#FF4352"/>
					<stop  offset="1" style="stop-color:#FF7BB2"/>
				</linearGradient>
				<path class="st62" d="M179.1,198.6c2.3-6.3,3.6-10,0-19.6c-1.4-3.8-6.1-11.6-12.8-13.1c-1.9-0.2-3.9-0.3-6.1-0.3
					c-17.2-0.1-26.5,6.5-26.8,6.6c0,0,7.8,53,6.5,61.4l-1.5,13c3.6,1.7,14.9,6.4,28.7,2.9c8.6-2.2,15.1-6.7,18.2-9.4
					c2.9-1.8-4.3-4.8-6.1-11C173.1,207.4,179,200.5,179.1,198.6z"/>
				<g>
					<path class="st63" d="M168.2,169.8c0-2.1-0.7-10.4-0.7-10.4l-16.3-4.6c0,0,1.2,12.6,1.7,15.6c0.5,0.9,2,3.3,5,4.8
						s5.7,1.3,6.8,1.2c0.6-0.3,1.3-0.7,1.9-1.4C168.5,172.9,168.3,170.4,168.2,169.8z"/>
					<path class="st64" d="M168.2,168c-0.2-3.2-0.6-8.4-0.6-8.4l-16.3-4.6c0,0,0,0.1,0,0.3C154.3,162.2,160.8,166.7,168.2,168z"/>
					<path class="st65" d="M165.7,132.2c1.2,0.4,8.9-2,9.8,15c0.2,4.5-0.5,11.4-1.3,12.9c-3.7,6.6-10.9,3.2-16.2,0.1
						c-9.3-5.3-9.4-17-9.6-19C148,137.4,159,130.1,165.7,132.2z"/>
					<path class="st66" d="M148.3,151.7c2.7-1.4,4.1,6.2,5.2,3.9c1.6-3.5-1.3-12.5-1.4-14.7c-0.3-8.7,10.6-11.9,15.9-5.8
						c0.7,0.8-1.4-8.4-11.9-7.5c-3,0.3-7.7,0.7-12.1,6.4C136.5,143.6,146.6,152.6,148.3,151.7z"/>
					<path class="st65" d="M150.7,149.7c-1.7,0.5-2.3,2.1-1.7,3.7c0.8,2.1,1.8,2.9,3.8,2.6c0.1,0,0,0,0.1,0
						C152.4,153.8,151.5,151.9,150.7,149.7z"/>
				</g>
				<path class="st67" d="M180.8,138.9c-0.2-1.4-1.5-2.5-3-2.3l-16,2.2c-1.1,0.2-3.8,2.2-4.3,2.5c-1.1,0.5-1.7,1.6-1.5,2.8l0.6,4.4
					c0.2,1.4,1.5,2.5,3,2.3l16-2.2c0.5-0.1,0.9-0.3,1.2-0.5c0.5-0.4,3.6-2.1,4-2.6c0.5-0.6,0.8-1.3,0.7-2.2L180.8,138.9z"/>
				<path class="st2" d="M163.9,147.1c-0.7,0-1.2-0.5-1.3-1.2l-0.5-3.8c-0.1-0.7,0.4-1.4,1.1-1.5l13.7-1.9c0.1,0,0.1,0,0.2,0
					c0.7,0,1.2,0.5,1.3,1.2l0.5,3.8c0,0.4,0,0.7-0.3,1c-0.2,0.3-0.5,0.5-0.9,0.5l-13.7,1.9C164,147.1,164,147.1,163.9,147.1z"/>
				<path class="st68" d="M158,143.5c-1.6,1-10.3,6.7-10.3,6.7c-0.6,0.4-0.3,0.8-0.1,1.6c0.3,0.8,1.1,1.3,1.2,1.4
					c2.6-1.8,6-3.3,9.9-6L158,143.5z"/>
				<path class="st60" d="M169.3,201.2c0.1-0.6-3.3-1.4-6.3-1.9c0-0.1,0-0.1,0-0.2c0.5-0.1,1-0.1,1.3-0.2c1.6-0.2,5.7-0.7,5.6-1.9
					c0-0.4-1.8-0.6-3.9-0.6c1.4-1.3,1-3.1-0.6-2c-0.7,0.5-2.2,1.3-3.8,2.2c-0.4,0-0.9,0.1-1.3,0.1c-1.3,0.1-2.4,0.7-3.3,1.6
					l-5.6,4.2l-2.8,1.3l-22.7,7l0.7-3.1l-14.9-3.6l-3.1,18.7c-0.3,1,0.6,3,1.4,3.7c0.6,0.6,1.5,0.9,2.5,1c1.3,0.1,2.6-0.2,3.7-0.7
					l32.2-16.5c1.8-0.6,6.4-2.3,7.6-3.8c1.1,0.1,2,0.2,2.5,0.2c1.6,0.1,4.8,0.3,5.1-0.8c0.2-0.6-3.2-1.4-5.8-1.9
					c1.8,0.2,3.5,0.4,4.3,0.5c1.9,0.2,5.6,0.7,5.7-0.6c0.1-0.7-3.3-1.7-6.5-2.4c0.9,0.1,1.7,0.2,2.1,0.2
					C165,202,169.2,202.3,169.3,201.2z"/>
				
					<linearGradient id="SVGID_42_" gradientUnits="userSpaceOnUse" x1="-18.6059" y1="58.6008" x2="21.7259" y2="58.6008" gradientTransform="matrix(0.9907 0.1362 0.1362 -0.9907 118.0191 260.197)">
					<stop  offset="0" style="stop-color:#FF4352"/>
					<stop  offset="1" style="stop-color:#FF7BB2"/>
				</linearGradient>
				<path class="st69" d="M125.4,178.4c2.9-4.7,10.6-9,15.2-4.4c4.2,4.2,4.3,11.2-1.3,17.6c-0.6,0.7-13.3,19.2-13.3,19.2l19.8-7.4
					l0.8,9.3l-33.7,18.1c-4.5,2.2-9.5-1.6-8.6-6.5C106.7,210.6,115.9,193.4,125.4,178.4z"/>
				<path class="st66" d="M153,146.4c-0.6-5.3,3.6-6.5,2.9-13.4c2.4,2.1,4.5,2.2,6.5,2.7c2.3,0.6,4.6,1.1,6.8,0.4
					c0,0,8.3-0.9,10.8-6.2c0,0-2.3,1.1-6.3-0.4s-10.9-8.6-20.7-3.3C143.3,131.6,147.8,144,153,146.4z"/>
				
					<linearGradient id="SVGID_43_" gradientUnits="userSpaceOnUse" x1="186.4" y1="66.2" x2="224.8423" y2="66.2" gradientTransform="matrix(1 0 0 -1 0 434)">
					<stop  offset="0" style="stop-color:#FF4352"/>
					<stop  offset="1" style="stop-color:#FF7BB2"/>
				</linearGradient>
				<path class="st70" d="M199.2,362.3c0,0,17.9,1.5,25.6,11l-38.4-2.7l4.1-8.3H199.2z"/>
				
					<linearGradient id="SVGID_44_" gradientUnits="userSpaceOnUse" x1="124.7" y1="65.2" x2="163.1423" y2="65.2" gradientTransform="matrix(1 0 0 -1 0 434)">
					<stop  offset="0" style="stop-color:#FF4352"/>
					<stop  offset="1" style="stop-color:#FF7BB2"/>
				</linearGradient>
				<path class="st71" d="M137.5,363.3c0,0,17.9,1.5,25.6,11l-38.4-2.7l4.1-8.3H137.5z"/>
			</g>
		</g>
	</g>
</g>
<g>
	<g id="Group_938_3_" transform="translate(-953.348 -232.003)">
		<g id="Group_931_3_">
			<path id="Path_8573_3_" class="st35" d="M1043.4,247.8c-2.7,3.5-5,7.1-7,11l-0.8-0.2c-4.8-0.9-9.5-1.1-14.3-0.8
				c-1.4,0.1-6.8,0.8-8.5,1.2c-5.2,1.1-9.2,2.4-13.5,4.7c-0.2,0.1-0.4,0.2-0.5,0.3c-3-3.1-6.4-6.1-10-8.6
				c14.1-9.9,31.8-13.2,48.6-9.2c1.8,0.4,3.6,0.9,5.3,1.5L1043.4,247.8z"/>
			<path id="Path_8574_3_" class="st35" d="M1081.3,313.5c-1.4,6.8-4,13.5-7.8,19.4c-2.1,3.2-4.4,6.2-7,8.9
				c-6,6.4-13.4,11.3-21.6,14.6c-9,3.5-18.8,4.9-28.4,3.9c-8.7-0.9-17.2-3.7-24.7-8.2c-3.2-2-6.2-4.2-9.1-6.7
				c-15-13.5-21.8-34-17.8-53.7c0.8-3.6,1.8-7.2,3.3-10.7c0.7-1.6,1.5-3.3,2-4.1c2.8,7.3,5.9,13.6,7,16c-0.1,0.1-0.1,0.3-0.1,0.4
				c-3.1,9.2-4.2,17.8-3.6,26.8c0,0.1,0,0.2,0.1,0.4c0.3,2.7,0.4,4,1.2,5.5c2.1,5.1,7.1,10.2,14.6,15c12.2,7.7,27.7,12.4,39,11.6
				c11.7-0.8,28-10,38.1-21.4c1.6-1.8,3-3.7,4.4-5.7c0.9-1.4,2.3-3.9,2.2-3.9c0,0,0,0,0.1-0.1c0.1,0,0.1-0.1,0.1-0.1s0-0.1,0.1-0.1
				c0.1,0,0.1-0.1,0.1-0.1s0-0.1,0.1-0.1c0.1,0,0.1-0.1,0.1-0.1l0-0.1l0.1-0.1c0,0,0-0.1,0.1-0.1c0.1,0,0.1,0,0.1-0.1
				c0.1-0.1,0.1-0.3,0.1-0.4c0.2-0.4,1.1-2.6,1.1-2.9c0.8-2.5,1.1-4.7,1.1-6.8c0-1-0.2-2.9-0.2-3.3c0-0.1,0-0.2-0.1-0.4
				c-0.1-0.4-0.2-0.9-0.3-1.5c-0.1-0.8-0.4-2-0.5-2.5c-1.9-8.2-4.9-14.8-10-21.3c-0.2-0.3-0.4-0.6-0.5-0.7c0-0.1-0.1-0.1-0.1-0.1
				l0,0c0.4-1.8,1.7-9.2,2.4-17.6l0,0l0.4,0.4c0.6,0.5,2.1,2.3,2.8,3.2c3.2,3.9,5.7,8.1,7.9,12.7
				C1082.2,289.6,1083.6,301.7,1081.3,313.5z"/>
			<path id="Path_8575_3_" d="M1054.5,294.9c-0.1,0.3-0.7,1.3-1.5,2c-2.3,2.2-6.5,4.5-11.1,6c-2.5,0.8-5.2,1.3-6,1
				c-0.5-0.2-0.7-0.4-0.5-1c0.2-1.4,1.2-3.1,3-4.7c0.9-0.8,4.5-3.8,6.3-5.1c2.8-2.1,5.2-3.4,6.8-4c0.5-0.2,1.2-0.3,1.4-0.2
				c0.3,0.1,0.8,1,1.2,2.2C1054.2,291.6,1054.5,294.4,1054.5,294.9z"/>
			<path id="Path_8576_3_" d="M1012.1,306.8c-0.1,0.2-0.6,0.6-1.2,0.8c-0.6,0.2-2.6,0.4-3.6,0.4c-3.9,0-8.3-0.6-11.4-1.7
				c-1.8-0.6-3.1-1.3-4.1-2.1l-0.6-0.4l-0.2-0.7c-0.3-1.2-0.5-3.1-0.4-3.8c0-0.6,0.1-1.1,0.4-1.7c0.1-0.2,0.1-0.2,0.8-0.3
				c0.8-0.1,1.5-0.1,2.6,0.1c2.4,0.4,6,1.6,10.4,3.5c3.6,1.5,5.1,2.3,6.2,3.6C1011.6,305.2,1012.3,306.4,1012.1,306.8z"/>
			<path id="Path_8577_3_" d="M1041.6,328.7c0,0.1-0.1,0.9-0.2,2s-0.2,2-0.2,2c-0.2,0-0.4,0.1-0.6,0.1l-0.6,0.1l-0.5,2
				c-0.2,1.1-0.6,2.1-0.6,2.3l-0.1,0.3l-0.5-0.5l-0.5-0.5l-0.7-5.1l-0.1,0c-0.3,0.1-2.5,0.7-3.4,1c-3.9,0.9-8,1.4-12,1.3
				c-0.6,0-1.2,0-1.2,0.1c0,0.1,0.2,1.2,0.4,2.7l0.4,2.6l-0.2,0.5c-0.2,0.3-0.2,0.5-0.2,0.5c-0.1,0.1-0.2-0.2-0.8-1
				c-0.6-0.8-1-1.7-1.4-2.6l-0.2-0.5l-0.6,0.1l-0.6,0.2l-0.2-0.7c-0.2-0.4-0.3-0.9-0.4-1.3l-0.2-0.6l-0.5-0.3
				c-0.3-0.2-0.7-0.4-0.7-0.4c-0.1-0.1-0.1-0.2-0.1-0.3l0-0.3l2.3-0.3l2.3-0.3l0.1,0.2l0.1,0.2l0.8-0.1c0.4-0.1,1.8-0.1,3.1-0.3
				l2.3-0.2l0.5-1l0.5-1l0.8-0.1l-0.3-1.9l-0.3-1.9l-1-0.3c-3.5-0.9-5.6-2.4-6.5-4.3c-0.2-0.4-0.2-0.6-0.5-2.4
				c-0.2-1.8-0.3-2-0.2-2.4c0.2-0.9,0.8-1.7,1.6-2.1c0.3-0.1,1.1-0.2,5.4-0.8l5.1-0.7l0.6,0.2c0.7,0.2,1.1,0.5,1.5,0.9
				c0.5,0.5,0.7,1,0.9,2.1c0.2,1.6,0.3,3,0.2,3.5c-0.1,0.8-0.4,1.6-0.8,2.2c-0.7,1.3-2.3,2.7-3.7,3.4l-0.4,0.3l0.3,1.9l0.3,1.9
				l0.4-0.1l0.4-0.1l0.7,0.7l0.6,0.7l2.5-0.3c1.4-0.2,2.6-0.4,2.7-0.4c0.2,0,0.2,0,0.4-0.4l0.2-0.3l2.1-0.3
				C1041,328.7,1041.6,328.7,1041.6,328.7z"/>
			<path id="Path_8578_3_" d="M1032.6,335.3c-0.4,0.3-0.6,0.4-0.6,0.4c-0.1,0-0.3-0.2-0.6-0.3l-0.5-0.3l-0.4,0.7
				c-0.9,1.3-1,1.5-1.3,1.5c-0.5,0.2-0.6,0.1-1.4-0.8c-0.4-0.5-0.7-0.8-0.7-0.8s-0.2,0-0.5,0l-0.5,0l-0.1,0.5l-0.1,0.5l-0.4,0
				c-0.3-0.1-0.7-0.1-1-0.3l-0.6-0.2l-0.1-1.1l4.9-0.7l4.9-0.7l0.1,0.5C1033.3,334.8,1033.3,334.8,1032.6,335.3z"/>
		</g>
		<path id="Path_8579_3_" class="st8" d="M1075.3,306.8c0-0.1,0-0.2-0.1-0.4c-4.4,0.1-17.1,1.5-27.4,12.7c0,0-6.1-16.7-23.7-14.3
			c-17.5,2.4-21.7,20.5-21.7,20.5c-11.3-9.3-24.4-6.7-29.1-5.3c0,0.1,0,0.2,0.1,0.4c0.3,2.7,0.4,4,1.2,5.5c2.1,5.1,7.1,10.2,14.6,15
			c12.2,7.7,27.7,12.4,39,11.6c11.7-0.8,28-10,38.1-21.4c1.6-1.8,3-3.7,4.4-5.7c0.9-1.4,2.3-3.9,2.2-3.9c0,0,0,0,0.1-0.1
			c0.1,0,0.1-0.1,0.1-0.1s0-0.1,0.1-0.1c0.1,0,0.1-0.1,0.1-0.1s0-0.1,0.1-0.1c0.1,0,0.1-0.1,0.1-0.1l0-0.1l0.1-0.1
			c0,0,0-0.1,0.1-0.1c0.1,0,0.1,0,0.1-0.1c0.1-0.1,0.1-0.3,0.1-0.4c0.2-0.4,1.1-2.6,1.1-2.9c0.8-2.5,1.1-4.7,1.1-6.8
			C1075.6,309,1075.5,307.2,1075.3,306.8z M1032.6,335.3c-0.4,0.3-0.6,0.4-0.6,0.4c-0.1,0-0.3-0.2-0.6-0.3l-0.5-0.3l-0.4,0.7
			c-0.9,1.3-1,1.5-1.3,1.5c-0.5,0.2-0.6,0.1-1.4-0.8c-0.4-0.5-0.7-0.8-0.7-0.8s-0.2,0-0.5,0l-0.5,0l-0.1,0.5l-0.1,0.5l-0.4,0
			c-0.3-0.1-0.7-0.1-1-0.3l-0.6-0.2l-0.1-1.1l4.9-0.7l4.9-0.7l0.1,0.5C1033.3,334.8,1033.3,334.8,1032.6,335.3z M1041.3,330.8
			c-0.1,1.1-0.2,2-0.2,2c-0.2,0-0.4,0.1-0.6,0.1l-0.6,0.1l-0.5,2c-0.2,1.1-0.6,2.1-0.6,2.3l-0.1,0.3l-0.5-0.5l-0.5-0.5l-0.7-5.1
			l-0.1,0c-0.3,0.1-2.5,0.7-3.4,1c-3.9,0.9-8,1.4-12,1.3c-0.6,0-1.2,0-1.2,0.1c0,0.1,0.2,1.2,0.4,2.7l0.4,2.6l-0.2,0.5
			c-0.2,0.3-0.2,0.5-0.2,0.5c-0.1,0.1-0.2-0.2-0.8-1c-0.6-0.8-1-1.7-1.4-2.6l-0.2-0.5l-0.6,0.1l-0.6,0.2l-0.2-0.7
			c-0.2-0.4-0.3-0.9-0.4-1.3l-0.2-0.6l-0.5-0.3c-0.3-0.2-0.7-0.4-0.7-0.4c-0.1-0.1-0.1-0.2-0.1-0.3l0-0.3l2.3-0.3l2.3-0.3l0.1,0.2
			l0.1,0.2l0.8-0.1c0.4-0.1,1.8-0.1,3.1-0.3l2.3-0.2l0.5-1l0.5-1l0.8-0.1l-0.3-1.9l-0.3-1.9l-1-0.3c-3.5-0.9-5.6-2.4-6.5-4.3
			c-0.2-0.4-0.2-0.6-0.5-2.4c-0.2-1.8-0.3-2-0.2-2.4c0.2-0.9,0.8-1.7,1.6-2.1c0.3-0.1,1.1-0.2,5.4-0.8l5.1-0.7l0.6,0.2
			c0.7,0.2,1.1,0.5,1.5,0.9c0.5,0.5,0.7,1,0.9,2.1c0.2,1.6,0.3,3,0.2,3.5c-0.1,0.8-0.4,1.6-0.8,2.2c-0.7,1.3-2.3,2.7-3.7,3.4
			l-0.4,0.3l0.3,1.9l0.3,1.9l0.4-0.1l0.4-0.1l0.7,0.7l0.6,0.7l2.5-0.3c1.4-0.2,2.6-0.4,2.7-0.4c0.2,0,0.2,0,0.4-0.4l0.2-0.3l2.1-0.3
			c1.6-0.2,2.1-0.3,2.1-0.2C1041.6,328.8,1041.4,329.8,1041.3,330.8z"/>
		<path id="Path_8580_3_" class="st9" d="M973.3,319.9c-1.2,0.4-1.7,0.6-1.7,0.6"/>
		<path id="Path_8581_3_" class="st9" d="M1076.9,306.4c0,0-0.6,0-1.6,0"/>
		<path id="Path_8582_3_" class="st10" d="M1074.9,304.9c-0.1-0.8-0.4-2-0.5-2.5c-1.9-8.2-4.9-14.8-10-21.3
			c-0.2-0.3-0.4-0.6-0.5-0.7c0-0.1-0.1-0.1-0.1-0.1l0,0c0.4-1.8,1.7-9.2,2.4-17.6c1-11.4,0.8-24.5-4.6-27.7c0,0-8.5,0.6-18.3,13.1
			c-2.7,3.5-5,7.1-7,11l-0.8-0.2c-4.8-0.9-9.5-1.1-14.3-0.8c-1.4,0.1-6.8,0.8-8.5,1.2c-5.2,1.1-9.2,2.4-13.5,4.7
			c-0.2,0.1-0.4,0.2-0.5,0.3c-3-3.1-6.4-6.1-10-8.6c-13.3-9.5-21.9-7.7-21.9-7.7c-4.6,4.7-1,18,3.2,29c2.8,7.3,5.9,13.6,7,16
			c-0.1,0.1-0.1,0.3-0.1,0.4c-3.1,9.2-4.2,17.8-3.6,26.8c4.7-1.3,17.7-3.9,29.1,5.3c0,0,4.2-18.1,21.7-20.5
			c17.5-2.4,23.7,14.3,23.7,14.3c10.4-11.2,22.9-12.6,27.4-12.7C1075.2,306,1075,305.4,1074.9,304.9z M979.6,285.3
			c0,0-9.2-16.2-8.7-26.3l0,0c0.1-1.7,0.5-3.2,1.1-4.4c0,0,7.8-0.3,22.3,11.9c0,0-2.2,1.5-5.1,4.3l0,0
			C986.1,274.1,982.2,278.9,979.6,285.3L979.6,285.3z M1012.1,306.8c-0.1,0.2-0.6,0.6-1.2,0.8c-0.6,0.2-2.6,0.4-3.6,0.4
			c-3.9,0-8.3-0.6-11.4-1.7c-1.8-0.6-3.1-1.3-4.1-2.1l-0.6-0.4l-0.2-0.7c-0.3-1.2-0.5-3.1-0.4-3.8c0-0.6,0.1-1.1,0.4-1.7
			c0.1-0.2,0.1-0.2,0.8-0.3c0.8-0.1,1.5-0.1,2.6,0.1c2.4,0.4,6,1.6,10.4,3.5c3.6,1.5,5.1,2.3,6.2,3.6
			C1011.6,305.2,1012.3,306.4,1012.1,306.8z M1054.5,294.9c-0.1,0.3-0.7,1.3-1.5,2c-2.3,2.2-6.5,4.5-11.1,6c-2.5,0.8-5.2,1.3-6,1
			c-0.5-0.2-0.7-0.4-0.5-1c0.2-1.4,1.2-3.1,3-4.7c0.9-0.8,4.5-3.8,6.3-5.1c2.8-2.1,5.2-3.4,6.8-4c0.5-0.2,1.2-0.3,1.4-0.2
			c0.3,0.1,0.8,1,1.2,2.2C1054.2,291.6,1054.5,294.4,1054.5,294.9z M1047.1,263.1L1047.1,263.1c-3.4-2.1-5.9-2.9-5.9-2.9
			c10.2-15.6,17.6-17.3,17.6-17.3c0.9,1,1.7,2.4,2.3,3.9l0,0c3,9.6-1.3,27.6-1.3,27.6C1056.2,269.8,1052,265.9,1047.1,263.1
			L1047.1,263.1z"/>
		<path id="Path_8583_3_" class="st9" d="M1036.4,258.9l-0.1,0.1"/>
		<path id="Path_8584_3_" class="st9" d="M1063.8,280.2c-0.1,0.3,0,0.4,0,0.4"/>
		<g id="Group_934_3_">
			<g id="Group_933_3_">
				<g id="Group_932_3_">
					<path id="Path_8585_3_" class="st11" d="M1061,246.8c-1.4,0-8.3,0.9-13.9,16.3l0,0c-3.4-2.1-5.8-2.8-5.8-2.8
						c10.2-15.6,17.6-17.3,17.6-17.3C1059.8,243.8,1060.5,245.2,1061,246.8z"/>
				</g>
				<path id="Path_8586_3_" class="st12" d="M1059.7,274.4c-3.4-4.6-7.7-8.4-12.6-11.3c5.7-15.4,12.4-16.2,13.9-16.3l0,0
					C1064,256.3,1059.7,274.4,1059.7,274.4z"/>
				<path id="Path_8587_3_" class="st12" d="M1061.3,246.8c-0.1,0-0.2,0-0.3-0.1L1061.3,246.8z"/>
			</g>
		</g>
		<path id="Path_8588_3_" class="st9" d="M999.4,264.7c-0.2-0.3-0.5-0.4-0.7-0.7"/>
		<path id="Path_8589_3_" class="st9" d="M977.1,292.7c0.3,0.6,0.4,1,0.4,1"/>
		<g id="Group_937_3_">
			<g id="Group_936_3_">
				<g id="Group_935_3_">
					<path id="Path_8590_3_" class="st11" d="M994.2,266.5c0,0-2.2,1.5-5.1,4.3l0,0c-9.9-13.3-16.8-12.2-18.4-11.9
						c0.1-1.7,0.5-3.2,1.1-4.4C971.9,254.6,979.9,254.4,994.2,266.5z"/>
				</g>
				<path id="Path_8591_3_" class="st12" d="M989.2,271c-3.1,3.1-7,7.9-9.6,14.3c0,0-9.2-16.2-8.7-26.3l0,0
					C972.3,258.6,979.3,257.7,989.2,271z"/>
				<path id="Path_8592_3_" class="st12" d="M970.8,259c-0.1,0-0.2,0-0.3,0.1L970.8,259z"/>
			</g>
		</g>
		<path id="Path_8593_3_" class="st8" d="M1042.5,286.4c0,0-5.8,1.2-5.7-3.6c0.1-4.7,4.6-5.9,6-5.9c1.3,0,6.7,1.1,6.2,5.1
			c-0.4,4-1.8,3.4-2.5,3.7C1045.8,286.2,1042.5,286.4,1042.5,286.4z"/>
		<path id="Path_8594_3_" class="st8" d="M999.3,292.3c0,0-5.8,1.2-5.7-3.6c0.1-4.7,4.6-5.9,6-5.9c1.3,0,6.7,1.1,6.2,5.1
			c-0.4,4-1.8,3.4-2.5,3.7C1002.6,292,999.3,292.3,999.3,292.3z"/>
	</g>
	<g>
		<g>
			<g>
				
					<radialGradient id="SVGID_45_" cx="45.1337" cy="299.009" r="19.4108" gradientTransform="matrix(0.9019 -0.1061 -2.241922e-02 -0.2169 30.5147 112.9122)" gradientUnits="userSpaceOnUse">
					<stop  offset="0" style="stop-color:#525458"/>
					<stop  offset="1" style="stop-color:#2B2D31"/>
				</radialGradient>
				<path class="st72" d="M108.1,41.9l-82,10.5c0,0,1.3-0.9,3.3-1.9c1.3-0.7,2.9-1.4,4.7-1.9c0.4-0.2,0.8-0.2,1.1-0.3
					c4.5-1.1,16.5-1.6,31.1-3.6s28.5-4.9,32.4-4.8c0.3,0,0.6,0,0.9,0.1c2,0.1,3.7,0.3,4.9,0.6C106.9,41.2,108.1,41.9,108.1,41.9z"/>
				<path class="st14" d="M99.5,39.9c-3,0.4-7,1.2-11.7,2c-6.4,1.2-14.3,2.6-22.1,3.6c-8.3,1.1-15.8,1.7-21.8,2.2
					c-4,0.3-7.3,0.6-9.8,0.9c-1.6,0.5-3.4,1.3-4.7,1.9c0.6-0.2,1.2-0.4,1.7-0.5c2.4-0.6,7-1,12.8-1.4c6.1-0.5,13.6-1,21.9-2.2
					c7.8-1.1,15.8-2.5,22.1-3.6c7.1-1.3,12.8-2.3,15-2.2c0.5,0,1,0.1,1.4,0.1C103.2,40.3,101.5,40,99.5,39.9z"/>
			</g>
			<g>
				
					<linearGradient id="SVGID_46_" gradientUnits="userSpaceOnUse" x1="68.6137" y1="352.2563" x2="68.6137" y2="402.009" gradientTransform="matrix(0.9909 -0.1349 -0.1349 -0.9909 50.7181 439.701)">
					<stop  offset="0" style="stop-color:#2C2E32"/>
					<stop  offset="8.428929e-02" style="stop-color:#55575B"/>
					<stop  offset="0.3288" style="stop-color:#2A2C30"/>
					<stop  offset="0.521" style="stop-color:#54565A"/>
					<stop  offset="1" style="stop-color:#26252B"/>
				</linearGradient>
				<path class="st73" d="M113.2,49c-3.1-8.4-6.9-9.2-18.2-6.9c-5.2,1-11.5,2.2-16.9,3.1c-7.7,1.3-15.5,2.4-23.3,3.2
					c-5.5,0.5-11.9,1.1-17.2,1.5c-11.5,1-15,2.6-15.7,11.5c-0.7,8.9,2.4,24,9.6,24.2s22.3-2.3,31.9-3.9c5.1-0.9,10.3-1.6,15.4-2.1
					c9.7-1,26.8-2.8,31.8-4.7C117.2,72.3,116.3,57.4,113.2,49z"/>
				
					<radialGradient id="SVGID_47_" cx="44.7191" cy="442.8762" r="37.9674" gradientTransform="matrix(0.9 -0.1225 -0.1774 -1.3032 106.773 646.5652)" gradientUnits="userSpaceOnUse">
					<stop  offset="0" style="stop-color:#3FB6FF"/>
					<stop  offset="9.795301e-02" style="stop-color:#3EB1F8"/>
					<stop  offset="0.2456" style="stop-color:#3BA3E3"/>
					<stop  offset="0.4245" style="stop-color:#378CC1"/>
					<stop  offset="0.6278" style="stop-color:#316C92"/>
					<stop  offset="0.8489" style="stop-color:#294356"/>
					<stop  offset="1" style="stop-color:#24252A"/>
				</radialGradient>
				<path class="st74" d="M96.9,75.5c-6.2,0.8-13.2,1.6-18.3,2.1c-2.6,0.3-5.3,0.6-7.8,1s-5.3,0.7-7.8,1.2l-0.8,0.1
					c-4.8,0.9-10.9,1.8-16.6,2.6c-6.3,0.9-10.9,1.3-13.8,1.2c-1.5-0.1-3.8-2.4-5.4-7.4c-1.4-4.5-2.1-10.2-1.7-14.8
					c0.6-6.9,2.3-8.1,8.8-9c1.2-0.2,2.5-0.3,4.2-0.5c4.5-0.4,10.3-0.9,17.2-1.5c3.9-0.3,7.9-0.9,11.8-1.4c3.9-0.5,7.9-1.2,11.8-1.8
					c6.9-1.2,12.6-2.2,17-3.1c1.6-0.3,3-0.5,4.1-0.7c6.4-0.9,8.6-0.2,10.8,6.3c1.6,4.2,2.4,9.9,2.2,14.5c-0.2,5.7-2,8.3-3.3,8.8
					C108.2,73.5,105,74.4,96.9,75.5L96.9,75.5z"/>
				
					<radialGradient id="SVGID_48_" cx="54.7565" cy="435.8574" r="56.6527" gradientTransform="matrix(0.9 -0.1225 -9.200191e-02 -0.6757 65.9941 347.0836)" gradientUnits="userSpaceOnUse">
					<stop  offset="0" style="stop-color:#525458"/>
					<stop  offset="1" style="stop-color:#2B2D31"/>
				</radialGradient>
				<path class="st75" d="M96.8,74.9c-6.2,0.8-13.2,1.6-18.2,2.1c-2.6,0.3-5.3,0.6-7.8,1s-5.3,0.7-7.8,1.2l-0.8,0.1
					C57.3,80,51.3,81,45.6,81.7c-6.2,0.8-10.8,1.3-13.6,1.1c-1-0.1-3.1-2-4.7-7c-1.5-4.2-2.2-10-1.8-14.5c0.5-6.6,2.1-7.6,8.1-8.4
					c1.1-0.1,2.5-0.3,4.1-0.5c4.5-0.4,10.3-0.9,17.2-1.5c4-0.3,8-0.9,11.8-1.4c4-0.5,7.9-1.2,11.8-1.8c6.9-1.2,12.6-2.2,17-3.1
					c1.6-0.3,3-0.5,4-0.7c5.9-0.8,7.7-0.3,10.1,5.9c1.5,4.1,2.3,9.8,2.2,14.3c-0.3,5.4-1.8,7.9-2.9,8.3
					C108.1,72.9,105.2,73.7,96.8,74.9z"/>
				
					<radialGradient id="SVGID_49_" cx="38.0476" cy="-876.469" r="26.5217" gradientTransform="matrix(0.8594 -0.1098 -4.760937e-03 -3.926201e-02 29.3014 19.0005)" gradientUnits="userSpaceOnUse">
					<stop  offset="0.1947" style="stop-color:#3FACFF"/>
					<stop  offset="0.2658" style="stop-color:#3591D7"/>
					<stop  offset="0.41" style="stop-color:#225E8C"/>
					<stop  offset="0.5389" style="stop-color:#143650"/>
					<stop  offset="0.6478" style="stop-color:#091924"/>
					<stop  offset="0.7324" style="stop-color:#02070A"/>
					<stop  offset="0.7824" style="stop-color:#000000"/>
				</radialGradient>
				<path class="st76" d="M89,46.3c0.1,1.1-10,3.2-22.7,4.8c-12.6,1.6-22.9,2.1-23.1,1c-0.1-1.1,10-3.2,22.7-4.8
					C78.5,45.7,88.8,45.3,89,46.3z"/>
				
					<radialGradient id="SVGID_50_" cx="38.536" cy="-953.4196" r="26.5217" gradientTransform="matrix(0.8594 -0.1098 -4.760937e-03 -3.926201e-02 32.4932 45.3222)" gradientUnits="userSpaceOnUse">
					<stop  offset="0.1946" style="stop-color:#3FACFF"/>
					<stop  offset="0.2657" style="stop-color:#3591D7"/>
					<stop  offset="0.4099" style="stop-color:#225E8C"/>
					<stop  offset="0.5389" style="stop-color:#143650"/>
					<stop  offset="0.6478" style="stop-color:#091924"/>
					<stop  offset="0.7324" style="stop-color:#02070A"/>
					<stop  offset="0.7824" style="stop-color:#000000"/>
				</radialGradient>
				<path class="st77" d="M92.9,75.6c0.1,1.1-10,3.2-22.7,4.8c-12.6,1.6-22.9,2.1-23.1,1c-0.1-1.1,10-3.2,22.7-4.8
					C82.5,75,92.8,74.5,92.9,75.6z"/>
			</g>
		</g>
	</g>
</g>
</svg>
