<?xml version="1.0" encoding="utf-8"?>
<!-- Generator: Adobe Illustrator 23.0.5, SVG Export Plug-In . SVG Version: 6.00 Build 0)  -->
<svg version="1.1" id="Layer_1" xmlns="http://www.w3.org/2000/svg" xmlns:xlink="http://www.w3.org/1999/xlink" x="0px" y="0px"
	 viewBox="0 0 554.1 432.3" style="enable-background:new 0 0 554.1 432.3;" xml:space="preserve">
<style type="text/css">
	.st0{fill:url(#SVGID_1_);}
	.st1{fill:#3C48FA;}
	.st2{fill:url(#SVGID_2_);}
	.st3{fill:url(#SVGID_3_);}
	.st4{fill:url(#SVGID_4_);}
	.st5{fill:url(#SVGID_5_);}
	.st6{fill:url(#SVGID_6_);}
	.st7{fill:url(#SVGID_7_);}
	.st8{fill:url(#SVGID_8_);}
	.st9{fill:url(#SVGID_9_);}
	.st10{fill:url(#SVGID_10_);}
	.st11{fill:url(#SVGID_11_);}
	.st12{fill:url(#SVGID_12_);}
	.st13{fill:url(#SVGID_13_);}
	.st14{fill:#F9FBFC;}
	.st15{fill:url(#SVGID_14_);}
	.st16{fill:url(#SVGID_15_);}
	.st17{fill:url(#SVGID_16_);}
	.st18{fill:url(#SVGID_17_);}
	.st19{fill:url(#SVGID_18_);}
	.st20{fill:url(#SVGID_19_);}
	.st21{fill:url(#SVGID_20_);}
	.st22{fill:url(#SVGID_21_);}
	.st23{fill:url(#SVGID_22_);}
	.st24{fill:url(#SVGID_23_);}
	.st25{display:none;fill:#4B6DFF;}
	.st26{fill:#FFFFFF;}
	.st27{fill:none;}
	.st28{fill:#FFA409;}
	.st29{fill:#FF9300;}
	.st30{fill:#FF8300;}
	.st31{fill:url(#SVGID_24_);}
	.st32{fill:#3FB6FF;}
	.st33{fill:url(#SVGID_25_);}
	.st34{fill:url(#SVGID_26_);}
	.st35{fill:url(#SVGID_27_);}
	.st36{fill:url(#SVGID_28_);}
	.st37{fill:url(#SVGID_29_);}
</style>
<g>
	<g>
		<linearGradient id="SVGID_1_" gradientUnits="userSpaceOnUse" x1="313.367" y1="275.8408" x2="313.367" y2="192.313">
			<stop  offset="0" style="stop-color:#5685EB"/>
			<stop  offset="1" style="stop-color:#59C2FF"/>
		</linearGradient>
		<path class="st0" d="M280.4,240.1l1.3-36v-15.5c0-2.1,0.4-4.2,1.3-6.1l9.3-21.1l4.3-15.8l15.5,38.1v9.8h2.4l1.3-15.5l10.3-0.2
			l2.1,41.7l4-10.5c0,0,0-10.2,5.3-18.4l8.8-2.4l-0.1,6.3c0,0-2.8,5-2.1,10.1c0.2,1.7,0.1,3.4-0.3,5.1c-0.8,3.8-2,10.5-1.9,16.1
			c0,2.3-0.4,4.5-1.2,6.6c-2.5,6.3-8.4,19.2-18,25.1l-9.7,19.3l-10.8,3.6L292,277C292,277,284.9,270.3,280.4,240.1z"/>
	</g>
	<g>
		<path class="st1" d="M292.8,200c0.2-2,0.2-4,0-5.9c-0.2-2-0.5-3.9-1.2-5.7c0-0.1,0-0.1,0-0.2l0,0c0.4-2,0.8-4,1.2-6
			c0.4-2,0.8-4,1.2-6l0,0c0,0,0-0.1,0-0.1l3.2-6.3l0,0.2c-0.2-2.8-0.2-5.7-0.4-8.6l0,0.1c-0.2-0.4-0.5-0.9-0.8-1.2
			c-0.3-0.4-0.8-0.6-1.3-0.5c-0.5,0-1,0.3-1.4,0.6c-0.4,0.3-0.8,0.7-1.1,1.1c0.3-0.4,0.6-0.9,1-1.2c0.4-0.3,0.9-0.7,1.5-0.8
			c0.6-0.1,1.2,0.1,1.6,0.5c0.4,0.4,0.8,0.8,1,1.4c0,0,0,0,0,0.1l0,0c0.2,2.8,0.5,5.7,0.7,8.5c0,0.1,0,0.2,0,0.2l-3.1,6.3l0-0.1
			c-0.4,2-0.9,4-1.3,6c-0.4,2-0.9,4-1.3,6l0-0.2c0.6,1.9,0.9,4,1,6C293.3,196,293.2,198,292.8,200z"/>
	</g>
	<g>
		<path class="st1" d="M301.8,193.4c-0.3-1.6-0.3-3.3-0.3-4.9c0.1-1.6,0.3-3.2,0.7-4.9c0.3,1.6,0.3,3.3,0.3,4.9
			C302.5,190.2,302.3,191.8,301.8,193.4z"/>
	</g>
	<linearGradient id="SVGID_2_" gradientUnits="userSpaceOnUse" x1="315.3364" y1="242.3915" x2="305.3915" y2="197.8765">
		<stop  offset="1.913670e-03" style="stop-color:#3C48FA"/>
		<stop  offset="0.2335" style="stop-color:#3F4FF8;stop-opacity:0.768"/>
		<stop  offset="0.5759" style="stop-color:#4863F3;stop-opacity:0.4249"/>
		<stop  offset="0.9853" style="stop-color:#5584EB;stop-opacity:1.477343e-02"/>
		<stop  offset="1" style="stop-color:#5685EB;stop-opacity:0"/>
	</linearGradient>
	<path class="st2" d="M328.3,219.4c0,0-22.2,7.3-21.8,35.4c0,0-3.7,7.8-8.8,6.1c0,0,4.6-22.2-2.8-41.1
		c-8.1-20.4,20.5-21.9,32.3-21.9L328.3,219.4z"/>
	<g>
		<linearGradient id="SVGID_3_" gradientUnits="userSpaceOnUse" x1="408.0096" y1="241.3725" x2="408.0096" y2="116.3247">
			<stop  offset="0" style="stop-color:#5685EB"/>
			<stop  offset="1" style="stop-color:#59C2FF"/>
		</linearGradient>
		<path class="st3" d="M350.9,194.7c0,0,0.9,5.2,5.6,14.9c10.9,22.6,10.2,30.6,16.4,35.6c4.5,3.6,22.7,1.6,22.7,1.6l7.3,29.2
			c0.6,2.6,3,4.4,5.7,4.4h0.1c1.4,0,2.8-0.5,3.9-1.5c7.4-6.7,38-33.8,57.3-41.4c0,0-11.1-14.1-14.5-39.1c0,0,30.3-106.3-51-111.7
			C323,81.3,350.9,194.7,350.9,194.7z"/>
	</g>
	<g>
		<linearGradient id="SVGID_4_" gradientUnits="userSpaceOnUse" x1="406.7062" y1="192.3935" x2="406.7062" y2="48.3552">
			<stop  offset="0" style="stop-color:#5342D3"/>
			<stop  offset="1" style="stop-color:#6168F4"/>
		</linearGradient>
		<path class="st4" d="M443.7,150.9c0,0-1.3,17.1,12.2,15.4c0,0,3.2,10.1,11.6,5.3c0,0-4.5,10.6,0,15.7c0,0-5.4,8-12.2,11.1
			c0,0-3.1,13.2,3,19.1c0,0-2,10.9,8.1,10.1l8.9-8.1c0,0,10.3,0.9,7.5-4c-2.8-4.9-7.5-14.1-7.5-14.1s23.8,10.3,27.4,2.7
			s-12.9-6.4-12.9-6.4s9.5-5.2,3.6-12.3c0,0,12.9-4,7.3-16c0,0,6.7,1.4,5-5.9c-1.7-7.3,2.8-9.5,2.8-9.5s4.8,3.9,1.7,11.2
			c0,0,7.4-2.8,1-12c0,0-4.4-16.8-18.9-10.6c0,0-2-3.6,2-10.3c3.9-6.7,1.7-13.2-3.4-15.5c0,0,3.1-3.9-0.3-8.7c0,0,5,1,6.4-9
			s6.1,0,6.1,0s-3.6-12.6-7.8-4.5c0,0-3.1-8.9-8.7-0.6c-5.6,8.4-4.8-25.2-23.2-17.6c0,0,2.7-7.3-3.8-13.2c-2-1.8,0.5-5,2.7-3.5
			c0.1,0.1,0.1,0.1,0.2,0.2c0,0-12.2-14.7-16.5-4.9c-1,2.2-1.1,4.8-0.5,7.1l0.9,3.9c0,0-5.5-10.3-12.8-1.9c0,0-11.7-1.1-10.3,7.5
			c0,0-6.9-13.1-15.6-8.7c0,0-12.9,7-15.1-4.2c-2.2-11.2-13.7-1.1-7.5,6.4c0,0-23.3-15.4-25.9-6.4c-2.6,8.9-9.6,5.6-7.4-0.6
			c2.3-6.1,11.8-7,11.8-7s-18.8-2.8-17.6,9.8c0,0-7.8,5.9-0.1,14.3c0,0-12.4-7.3-13.8,1.1c0,0-14,0.2-10.6,10.1
			c3.4,10-2.8,12.2-6.1,7.5c-3.4-4.8,2-11.5,2-11.5s-14.3,10.9,0.3,20.4c0,0-3.1,9.2,3.9,10.3c0,0-20.1-3.1-16.5,3.5
			c3.6,6.6-1.7,9.7-4.8,8.6c0,0-6.7,17,12.5,10.3C332.2,128.9,443.7,150.9,443.7,150.9z"/>
	</g>
	<g>
		<g>
			<linearGradient id="SVGID_5_" gradientUnits="userSpaceOnUse" x1="376.2489" y1="208.5168" x2="376.2489" y2="155.3123">
				<stop  offset="0" style="stop-color:#8756D8"/>
				<stop  offset="1" style="stop-color:#EDDDF4"/>
			</linearGradient>
			<path class="st5" d="M437.7,151.5c0,0-0.9-18.3-1.4-24.7c-0.4-5.9-8.5-8.7-8.5-8.7s-7.2-3.1-21.6-8c-0.5-0.2-1-0.3-1.5-0.5
				c11.5,7.5,10,27.7,9.6,41.1c-0.4,13.4-10.3,20.4-35.9,24.3c-25.6,3.9-63.9,14.2-63.9,14.2c1.1,0.3,2.3,0.4,2.3,0.4l20.7,0.8
				l17.2-5.3l0.1-1.5h-4.6c8-5.1,22.5-4.3,27.1-3.9c1,0.1,2.1,0.1,3.1-0.1c5.9-0.8,26.6-3.8,42.1-6.5
				C440.8,170,437.7,151.5,437.7,151.5z"/>
		</g>
		<g>
			<linearGradient id="SVGID_6_" gradientUnits="userSpaceOnUse" x1="413.6106" y1="170.0448" x2="413.6106" y2="94.537">
				<stop  offset="0" style="stop-color:#8756D8"/>
				<stop  offset="1" style="stop-color:#EDDDF4"/>
			</linearGradient>
			<path class="st6" d="M443.7,150.9c-0.1-2-0.7-14.3-1.1-22.2c-0.2-3-2-5.6-4.8-6.7l-9.2-3.6c2,0.9,7.4,3.6,7.7,8.4
				c0.5,6.4,1.4,24.7,1.4,24.7s3.1,18.4-15.2,21.7c-13.6,2.4-31.1,4.9-39.2,6.1l2.1,1.1c4.4,2.3,9.5,3.2,14.4,2.5
				c7.6-1.1,16.3-2.5,23.7-3.8C441,176,445.1,160.7,443.7,150.9z"/>
		</g>
		<g>
			<g>
				<linearGradient id="SVGID_7_" gradientUnits="userSpaceOnUse" x1="363.9128" y1="145.297" x2="363.9128" y2="36.1317">
					<stop  offset="0" style="stop-color:#8756D8"/>
					<stop  offset="1" style="stop-color:#EDDDF4"/>
				</linearGradient>
				<path class="st7" d="M404.8,109.7c-13.8-4.1-25.6,0.5-25.6,0.5c12.3-3.4,14.1,5,14.1,5s4.1,19.7,2.4,37
					c-1.7,17.3-18.3,20-18.3,20s-55.6,12.2-64.3,15.9c0,0.6,0.7,1,1.4,1.2c0,0,38.4-10.3,63.9-14.2c25.6-3.9,35.5-10.9,35.9-24.3
					C414.8,137.5,416.3,117.2,404.8,109.7z"/>
			</g>
			<g>
				<linearGradient id="SVGID_8_" gradientUnits="userSpaceOnUse" x1="337.0918" y1="229.3035" x2="349.8871" y2="114.5327">
					<stop  offset="0" style="stop-color:#8756D8"/>
					<stop  offset="1" style="stop-color:#EDDDF4"/>
				</linearGradient>
				<path class="st8" d="M395.7,152.2c1.7-17.3-2.4-37-2.4-37s-1.8-8.4-14.1-5L306.5,130c-10.6,2.8-9.9,15.5-9.9,15.5
					s0.4,21.1,1.7,30.2c1.3,9.1,9.4,10.9,9.4,10.9l5.5,1.5c8.6-3.8,64.3-15.9,64.3-15.9S394,169.6,395.7,152.2z"/>
			</g>
		</g>
		<g>
			<path class="st1" d="M407,116.7c-1.6,0.3-3.3,0.6-4.9,0.9l0,0c-0.9,0.1-1.6,0.6-2.2,1.3c-0.5,0.7-0.8,1.6-0.9,2.4
				c-0.2,1.8,0.1,3.6,0.3,5.5c0.4,3.7,0.6,7.4,0.8,11.1c0.1,3.7,0.3,7.4,0.2,11.2c0,1-0.1,1.8,0,2.7c0.1,0.9,0.3,1.8,0.8,2.5
				c0.9,1.5,2.7,2.4,4.5,2.4l0,0c1.5,0.1,2.9,0.1,4.4,0.2c-1.5,0-2.9,0.1-4.4,0.1l0,0c-1.9,0.1-3.9-0.7-5-2.4
				c-1.1-1.7-1.1-3.8-1.1-5.6c0-3.7-0.2-7.4-0.4-11.1c-0.2-3.7-0.4-7.4-0.7-11.1c-0.1-1.8-0.4-3.7-0.1-5.6c0.2-0.9,0.5-1.9,1.1-2.7
				c0.6-0.8,1.5-1.3,2.6-1.4l0,0C403.7,117.1,405.4,116.9,407,116.7z"/>
		</g>
		<g>
			<g>
				<linearGradient id="SVGID_9_" gradientUnits="userSpaceOnUse" x1="352.0682" y1="186.9867" x2="352.0682" y2="156.5197">
					<stop  offset="0" style="stop-color:#8756D8"/>
					<stop  offset="1" style="stop-color:#EDDDF4"/>
				</linearGradient>
				<path class="st9" d="M354.9,183.7l-0.1,1.5l-8.4,2.9c0,0-0.1,1,0.1,2.2c0.5,2.8,3.8,4.2,6,2.5c0,0,0,0,0.1-0.1
					c1.7-1.3,5-4,5-6.3c0,0-2.6-4.2,0.3-5.8c-2.8,0.6-5.4,1.6-7.6,3H354.9z"/>
			</g>
		</g>
	</g>
	<g>
		<linearGradient id="SVGID_10_" gradientUnits="userSpaceOnUse" x1="359.4426" y1="185.4014" x2="363.9128" y2="185.4014">
			<stop  offset="0" style="stop-color:#5342D3"/>
			<stop  offset="1" style="stop-color:#6168F4"/>
		</linearGradient>
		<path class="st10" d="M363.9,187.2l-3.5-3.5c0,0-2.3,1.5,0.3,2.9C360.7,186.6,362.3,185.6,363.9,187.2z"/>
	</g>
	<g>
		<linearGradient id="SVGID_11_" gradientUnits="userSpaceOnUse" x1="367.3591" y1="184.8426" x2="375.3142" y2="184.8426">
			<stop  offset="0" style="stop-color:#5342D3"/>
			<stop  offset="1" style="stop-color:#6168F4"/>
		</linearGradient>
		<path class="st11" d="M367.8,186.7c0,0-1.3-2.8,0.4-3.6c1.6-0.8,4.7,1,7.1,2.8C375.3,185.9,370.3,184.3,367.8,186.7z"/>
	</g>
	<g>
		<linearGradient id="SVGID_12_" gradientUnits="userSpaceOnUse" x1="380.7164" y1="204.1248" x2="380.7164" y2="223.5034">
			<stop  offset="0" style="stop-color:#5342D3"/>
			<stop  offset="1" style="stop-color:#6168F4"/>
		</linearGradient>
		<path class="st12" d="M368.8,206.5l-1.4,9.9c0,0,22.7,2.4,26.7-12.3l-24.4-2.7L368.8,206.5z"/>
	</g>
	<g>
		<linearGradient id="SVGID_13_" gradientUnits="userSpaceOnUse" x1="377.8119" y1="206.245" x2="372.7671" y2="183.2912">
			<stop  offset="0" style="stop-color:#8756D8"/>
			<stop  offset="0.2064" style="stop-color:#A078DF"/>
			<stop  offset="0.575" style="stop-color:#CAAEEA"/>
			<stop  offset="0.8507" style="stop-color:#E3D0F1"/>
			<stop  offset="1" style="stop-color:#EDDDF4"/>
		</linearGradient>
		<path class="st13" d="M362.7,206.5c0,0-5.3-2.4-4.9-7c0.3-4.8,4.9-5.6,8.4-4.8c0,0,4.6-3.2,14.9,1.2c9.7,4.1,15,8.2,15,8.2
			s-21.6,0.3-29.4-2.7C366.7,201.4,364.2,204.8,362.7,206.5z"/>
	</g>
	<g>
		<path class="st14" d="M363.3,205.8L363.3,205.8l0.2,1.8c0.2,1.3,1.5,2.2,2.8,2c3.8-0.8,11.9-2.2,24.4-2.4c1.7,0,3.1-1.3,3.4-3l0,0
			h0c-5.5,0-21.1-0.3-27.4-2.7C366.7,201.4,364.8,204,363.3,205.8z"/>
	</g>
	<g>
		<linearGradient id="SVGID_14_" gradientUnits="userSpaceOnUse" x1="380.8565" y1="205.8986" x2="374.5876" y2="231.6082">
			<stop  offset="0" style="stop-color:#8756D8"/>
			<stop  offset="1" style="stop-color:#EDDDF4"/>
		</linearGradient>
		<path class="st15" d="M368.8,209c-0.8,2.1-1.6,6.6,1.5,6.4c5.4-0.4,18.5-4.5,22.5-8.9l1.3-2.4l2,0c0,0-4.5,17-20.3,20.3
			c-11,2.3-15.1-6-10.3-12.7C366.4,210.6,368.8,209,368.8,209z"/>
	</g>
	<g>
		<path class="st14" d="M381.3,212.7l-11.2,0.2c-0.7,0-1.3,0.6-1.3,1.4v1c0.4,0.1,0.9,0.2,1.5,0.1
			C372.9,215.2,377.1,214.2,381.3,212.7z"/>
	</g>
	<g>
		<linearGradient id="SVGID_15_" gradientUnits="userSpaceOnUse" x1="458.5527" y1="200.1743" x2="458.5527" y2="156.5839">
			<stop  offset="0" style="stop-color:#5685EB"/>
			<stop  offset="1" style="stop-color:#59C2FF"/>
		</linearGradient>
		<path class="st16" d="M445.8,190.9c-1,2.4-0.7,5.2,1.1,7.1c0.9,1,2.3,1.9,4.2,1.9c5.4,0.2,20.8-10.6,20.8-30
			c0-16.4-13.4-11.7-15.9-3.6L445.8,190.9z"/>
	</g>
	<linearGradient id="SVGID_16_" gradientUnits="userSpaceOnUse" x1="419.2845" y1="221.1338" x2="416.9166" y2="275.1201">
		<stop  offset="0" style="stop-color:#3C48FA"/>
		<stop  offset="0.2321" style="stop-color:#3F4FF8;stop-opacity:0.7679"/>
		<stop  offset="0.5751" style="stop-color:#4863F3;stop-opacity:0.4249"/>
		<stop  offset="0.9854" style="stop-color:#5584EB;stop-opacity:1.464218e-02"/>
		<stop  offset="1" style="stop-color:#5685EB;stop-opacity:0"/>
	</linearGradient>
	<path class="st17" d="M398.8,246.4c0,0,29.5-10.1,40.6-39.9c0,0-3.4,52-21.7,57.7C406.2,267.8,398.8,246.4,398.8,246.4z"/>
	<g>
		<linearGradient id="SVGID_17_" gradientUnits="userSpaceOnUse" x1="318.5805" y1="398.4895" x2="220.5575" y2="222.6876">
			<stop  offset="0" style="stop-color:#8756D8"/>
			<stop  offset="0.3052" style="stop-color:#A780E1"/>
			<stop  offset="1" style="stop-color:#EDDDF4"/>
		</linearGradient>
		<path class="st18" d="M268.8,307.8c0,0-9.3,22.9-8.2,45.1l-7.7,39.8h72.5l-12.4-115.9C313.1,276.8,276.2,279,268.8,307.8z"/>
	</g>
	<g>
		<linearGradient id="SVGID_18_" gradientUnits="userSpaceOnUse" x1="434.7984" y1="393.3204" x2="433.733" y2="254.8102">
			<stop  offset="0" style="stop-color:#8756D8"/>
			<stop  offset="0.3052" style="stop-color:#A780E1"/>
			<stop  offset="1" style="stop-color:#EDDDF4"/>
		</linearGradient>
		<path class="st19" d="M469.7,237.5l50.7,8.1c0,0,35.2,0.8,29.8,54.1s-13,93.1-13,93.1H318l31.9-97.3c0,0,13.6-20.8,40.7-21
			c0,0,9.8-8.8,11-3.8l1.3,5.3c0.6,2.6,3,4.4,5.7,4.4l0,0c1.5,0,2.9-0.6,4-1.6C419.5,272.2,447.6,246.5,469.7,237.5z"/>
	</g>
	<g>
		<linearGradient id="SVGID_19_" gradientUnits="userSpaceOnUse" x1="291.6954" y1="329.2807" x2="271.0148" y2="352.197">
			<stop  offset="0" style="stop-color:#5342D3"/>
			<stop  offset="1" style="stop-color:#6168F4"/>
		</linearGradient>
		<path class="st20" d="M275,317.9c0,0-4,14.3-1.5,24.3c3.1,9.9,15.6,16,32.2,1.5l-8.1-20.7L275,317.9z"/>
	</g>
	<g>
		<linearGradient id="SVGID_20_" gradientUnits="userSpaceOnUse" x1="411.8123" y1="445.5135" x2="411.8123" y2="289.8975">
			<stop  offset="0" style="stop-color:#8756D8"/>
			<stop  offset="0.3052" style="stop-color:#A780E1"/>
			<stop  offset="1" style="stop-color:#EDDDF4"/>
		</linearGradient>
		<path class="st21" d="M520.5,245.6c0,0-36.5,3.4-48.6,61.6l-15.5,27.7c0,0-11.7,6.7-8.4,15.1l-98.3-53.9l-27-14.8
			c-1.9-1-4.1,0.5-3.8,2.6c1.2,9.2,2.5,29.3-5.7,48.5c-10,23.3-36.6,26.7-40,8.1c0,0-3.8,11.2,15.1,19.6l34.7,17.8l29.2,14.9h185.2
			c0,0,7.5-39.8,13-93.1C555.7,246.4,520.5,245.6,520.5,245.6z"/>
	</g>
	<g>
		<linearGradient id="SVGID_21_" gradientUnits="userSpaceOnUse" x1="235.2905" y1="312.2405" x2="235.2905" y2="186.8597">
			<stop  offset="0" style="stop-color:#5685EB"/>
			<stop  offset="1" style="stop-color:#59C2FF"/>
		</linearGradient>
		<path class="st22" d="M318.9,284l-26-12.9c0,0-9.2-0.8-13-35.6c-3.8-34.8-41.1-106.1-41.1-106.1l-13-28.1l-5.4-26.8
			c0,0-11.7-4.2-11.7,17.6v24.1c0,3,0.2,5.9,0.6,8.9l3.6,27.9l-41.9-16.1c0,0-11.3,10.9,8,20.2c19.3,9.3,34.8,14.3,34.8,14.3
			s-7.1,23.5-5,30c2.1,6.5,6.7,21.1-0.8,30.8l-14.7-7.3c0,0-18.4-28.1-35.2-24.8c-16.8,3.3,0,21.7,12.6,32.2
			c12.6,10.5,25.2,26.4,25.2,26.4s11.8,22.6,38.8,33.5c27,10.9,71.4,51.5,71.4,51.5S324,326.8,318.9,284z"/>
	</g>
	<g>
		<path class="st1" d="M238.8,129.5c-1.6-0.2-3.2-0.1-4.7,0.5c-1.4,0.6-2.6,1.7-3,3.1c-0.1,0.3-0.2,0.7-0.3,1.1
			c-0.1,0.4-0.1,0.7-0.1,1.1c0,0.4-0.1,0.8,0,1.1l0.1,1.2c0.2,1.5,0.6,3.1,1,4.6c0.8,3.1,1.7,6.2,2.7,9.3l2.7,9.2
			c1.8,6.2,3.7,12.3,5.4,18.5c1.8,6.2,3.5,12.4,5.1,18.7c-2.3-6-4.5-12.1-6.5-18.2c-2.1-6.1-4-12.3-5.8-18.4
			c-1.8-6.2-3.6-12.4-5-18.7c-0.7-3.1-1.4-6.6,0-9.9c0.7-1.6,2.2-2.8,3.8-3.3C235.5,129,237.2,129.1,238.8,129.5z"/>
	</g>
	<g>
		<path class="st1" d="M212.8,152.9l23.8,7.5c0.5,0.2,0.8,0.7,0.7,1.3c-0.2,0.5-0.7,0.8-1.3,0.7c0,0-0.1,0-0.1,0L212.8,152.9z"/>
	</g>
	<g>
		<path class="st1" d="M213.6,171.4c2.5,1,5,2.2,7.4,3.4c1.2,0.6,2.4,1.2,3.6,1.9c1.2,0.6,2.4,1.3,3.6,2c0.3,0.1,0.4,0.4,0.5,0.7
			l0,0.1c0,0.2,0.1,0.6,0.2,0.8c0.1,0.3,0.2,0.6,0.4,0.9c0.3,0.6,0.6,1.3,0.9,1.9c0.7,1.2,1.4,2.4,2.3,3.6c0.8,1.2,1.7,2.3,2.6,3.5
			c0.9,1.2,1.8,2.3,2.7,3.5c-1.2-0.9-2.3-1.8-3.4-2.8l-1.6-1.5c-0.5-0.5-1-1.1-1.5-1.7c-1-1.1-1.9-2.3-2.7-3.6
			c-0.4-0.6-0.7-1.3-1.1-2c-0.2-0.4-0.3-0.7-0.4-1.1c-0.1-0.4-0.2-0.7-0.3-1.3l0.5,0.8c-1.2-0.7-2.3-1.4-3.5-2.1
			c-1.2-0.7-2.3-1.4-3.4-2.2C218,174.6,215.8,173.1,213.6,171.4z"/>
	</g>
	<g>
		<path class="st1" d="M221.6,156.5l0.2-11.6l0.1,0.3c-2.7-7.2-5.3-14.5-7.7-21.8c-1.2-3.7-2.3-7.4-3.3-11.1
			c-1-3.7-1.9-7.5-2.3-11.3c0.6,3.8,1.6,7.5,2.7,11.2c1.1,3.7,2.4,7.3,3.7,10.9c2.6,7.2,5.4,14.4,8.4,21.5l0.1,0.1l0,0.2l0.2,11.6
			H221.6z"/>
	</g>
	<linearGradient id="SVGID_22_" gradientUnits="userSpaceOnUse" x1="248.38" y1="290.4657" x2="214.757" y2="218.4841">
		<stop  offset="0" style="stop-color:#3C48FA"/>
		<stop  offset="0.2321" style="stop-color:#3F4FF8;stop-opacity:0.7679"/>
		<stop  offset="0.5751" style="stop-color:#4863F3;stop-opacity:0.4249"/>
		<stop  offset="0.9854" style="stop-color:#5584EB;stop-opacity:1.464218e-02"/>
		<stop  offset="1" style="stop-color:#5685EB;stop-opacity:0"/>
	</linearGradient>
	<path class="st23" d="M213.6,208.9c0,0,20,16.7,22.6,36.7c2.7,20-2.1,35.6,16.9,49.3c0,0-23.2-4.9-24.9-30.3
		C226.6,239.3,218.6,216.5,213.6,208.9z"/>
	<linearGradient id="SVGID_23_" gradientUnits="userSpaceOnUse" x1="217.205" y1="259.0838" x2="191.2145" y2="229.7398">
		<stop  offset="0" style="stop-color:#3C48FA"/>
		<stop  offset="0.2321" style="stop-color:#3F4FF8;stop-opacity:0.7679"/>
		<stop  offset="0.5751" style="stop-color:#4863F3;stop-opacity:0.4249"/>
		<stop  offset="0.9854" style="stop-color:#5584EB;stop-opacity:1.464218e-02"/>
		<stop  offset="1" style="stop-color:#5685EB;stop-opacity:0"/>
	</linearGradient>
	<path class="st24" d="M193.5,228.8c0,0-0.4,6.8-5.2,7.7l8.8,6.3c3.2,2.3,7.8,0.5,8.6-3.4l0,0c0.5-2.3-0.6-4.8-2.7-5.9
		C198.5,231,193.5,228.8,193.5,228.8z"/>
</g>
<g id="Group_938" transform="translate(-953.348 -232.003)">
	<g id="Group_931">
		<path id="Path_8573" class="st25" d="M1087.4,314.2c-5.1,5.1-9.9,10.7-14.1,16.7l-1.3-0.4c-7.6-2.5-15.6-4-23.5-4.6
			c-2.4-0.2-11.4-0.2-14.3,0c-8.8,0.6-15.6,1.9-23.3,4.6c-0.3,0.1-0.6,0.2-0.9,0.3c-4.3-5.9-9.2-11.5-14.5-16.5
			c25.6-13.1,55.5-14.7,82.3-4.3c2.9,1.1,5.7,2.3,8.4,3.7L1087.4,314.2z"/>
		<path id="Path_8574" class="st25" d="M1135.1,431.1c-3.9,11.1-9.7,21.3-17.3,30.3c-4.1,4.8-8.6,9.2-13.5,13.2
			c-11.4,9.2-24.7,15.7-38.9,19.2c-15.7,3.8-32.1,3.8-47.8,0c-14.2-3.5-27.5-10-38.9-19.2c-4.9-4-9.4-8.4-13.5-13.2
			c-21.7-25.7-28.3-60.9-17.3-92.7c2.1-5.9,4.7-11.6,7.9-16.9c1.4-2.5,3.2-5.2,4.1-6.4c3,12.7,6.6,23.9,7.9,27.9
			c-0.1,0.2-0.2,0.5-0.3,0.7c-7.2,14.5-11.1,28.6-12,43.5c0,0.2,0,0.4,0,0.6c-0.2,4.5-0.1,6.6,0.6,9.4c2.3,8.8,9.4,18.5,20.6,27.9
			c18.3,15.5,43,26.7,61.8,28c19.6,1.3,48.4-10.1,67.7-26.8c3-2.7,5.9-5.5,8.5-8.5c1.9-2.2,4.7-6,4.5-6c-0.1,0,0-0.1,0.1-0.1
			c0.1-0.1,0.2-0.2,0.1-0.2c0,0,0-0.1,0.1-0.2c0.1,0,0.2-0.1,0.1-0.2c0-0.1,0-0.1,0.1-0.2c0.1,0,0.1-0.1,0.1-0.2
			c0-0.1,0-0.1,0.1-0.1s0.1-0.1,0.1-0.2c0-0.1,0.1-0.2,0.1-0.2c0.1,0,0.1-0.1,0.1-0.1c0.1-0.2,0.2-0.5,0.4-0.7
			c0.5-0.7,2.3-4,2.6-4.6c1.8-4,2.9-7.5,3.4-11.1c0.2-1.7,0.4-4.8,0.3-5.5c0-0.1,0-0.3-0.1-0.7c-0.1-0.6-0.1-1.5-0.2-2.5
			c-0.1-1.4-0.2-3.3-0.3-4.3c-1.3-14-4.9-25.4-11.7-37.5c-0.3-0.5-0.5-0.9-0.7-1.3c-0.1-0.1-0.1-0.2-0.1-0.2l0,0
			c1-2.9,4.9-14.9,8-28.6l0.1,0.1l0.5,0.6c0.8,1.1,2.9,4.3,3.9,5.8c4.3,7.1,7.7,14.7,10.1,22.6
			C1142.1,391.8,1141.6,412.2,1135.1,431.1z"/>
		<path id="Path_8575" d="M1095.1,394.3c-0.1,0.5-1.5,2-3,3.1c-4.3,3.1-11.9,6-19.6,7.4c-4.4,0.8-8.8,0.9-10.1,0.3
			c-0.9-0.4-1-0.8-0.7-1.9c0.6-2.3,2.7-4.8,6-7.2c1.7-1.2,8.4-5.3,11.6-7c5.2-2.8,9.4-4.5,12.2-4.9c0.9-0.1,2-0.2,2.3,0
			c0.6,0.2,1.2,1.8,1.4,3.8C1095.3,388.8,1095.2,393.4,1095.1,394.3z"/>
		<path id="Path_8576" d="M1022.5,404.5c-0.2,0.4-1.1,0.8-2.2,0.9c-1,0.2-4.3,0.1-6.1-0.2c-6.5-0.9-13.5-2.9-18.5-5.3
			c-2.8-1.4-4.9-2.8-6.4-4.3l-0.9-0.9l-0.1-1.2c-0.2-2-0.1-5.2,0.1-6.4c0.2-1,0.5-1.9,1-2.7c0.2-0.3,0.2-0.3,1.4-0.3
			c1.4,0,2.5,0.2,4.3,0.8c3.8,1.2,9.4,4,16.3,8.1c5.7,3.4,7.8,5.1,9.4,7.3C1022,401.9,1022.8,403.9,1022.5,404.5z"/>
		<path id="Path_8577" d="M1066.1,447.4c0,0.1-0.4,1.6-0.8,3.3c-0.5,1.8-0.8,3.2-0.8,3.2c-0.3,0-0.6,0.1-1,0h-1l-1.4,3.2
			c-0.7,1.8-1.4,3.4-1.5,3.6l-0.2,0.4l-0.6-1l-0.6-1v-8.5l-0.2,0.1c-0.5,0.1-4.3,0.6-5.9,0.8c-6.7,0.7-13.5,0.5-20.2-0.4
			c-1.1-0.2-2-0.3-2-0.2c0,0,0,2,0.1,4.4l0.1,4.4l-0.5,0.8c-0.3,0.4-0.6,0.8-0.6,0.8c-0.1,0.1-0.4-0.4-1.1-1.8
			c-0.8-1.5-1.3-3.1-1.7-4.7l-0.2-0.9l-1,0.1l-1,0.1l-0.2-1.1c-0.1-0.6-0.3-1.6-0.3-2.1l-0.1-1l-0.8-0.7c-0.5-0.4-0.9-0.8-1-0.9
			c-0.2-0.1-0.2-0.3-0.2-0.5v-0.4l3.9,0l3.9,0l0.1,0.4l0.1,0.4l1.3,0.1c0.7,0,3.1,0.1,5.2,0.2l3.9,0.1l1-1.5l1-1.5h1.3l0-3.2l0-3.2
			l-1.7-0.7c-5.5-2.4-8.7-5.1-9.9-8.5c-0.2-0.7-0.2-0.9-0.3-4c0-3.1,0-3.3,0.2-4c0.4-1.5,1.6-2.7,3.2-3.1c0.5-0.2,1.9-0.2,9.2-0.2
			l8.6,0l1,0.5c1.1,0.6,1.7,1,2.3,1.8c0.7,1,1,1.8,1,3.6c0,2.7-0.2,5-0.5,5.9c-0.4,1.3-1,2.5-1.8,3.5c-1.5,2-4.3,3.9-6.9,4.8
			l-0.7,0.3l0,3.2l0,3.2l0.7,0.1l0.7,0.1l0.9,1.4l0.9,1.4h4.1c2.3,0,4.3,0,4.5,0.1c0.3,0.1,0.4,0,0.7-0.5l0.4-0.6h3.5
			C1065.3,447.2,1066.1,447.3,1066.1,447.4z"/>
		<path id="Path_8578" d="M1049.8,456.2c-0.6,0.3-1,0.5-1.1,0.4c-0.1,0-0.5-0.4-1-0.7l-0.8-0.7l-0.9,0.9c-1.9,2-1.9,2.1-2.5,2.2
			c-0.9,0.1-1-0.1-2.1-1.6c-0.6-0.8-1-1.5-1-1.5s-0.4-0.1-0.9-0.1l-0.9-0.1l-0.4,0.8l-0.4,0.8l-0.7-0.2c-0.6-0.2-1.1-0.4-1.6-0.6
			l-0.9-0.5v-1.8l8.2,0l8.2,0l0,0.8C1051.2,455.5,1051.2,455.4,1049.8,456.2z"/>
	</g>
	<path id="Path_8579" class="st26" d="M1126.9,418.6c0-0.1,0-0.3-0.1-0.7c-7.4-0.8-28.5-1.3-48.1,14.9c0,0-6.3-29-35.9-29
		c-29.6,0-40.6,29-40.6,29c-16.6-17.8-38.8-16.5-46.8-15.4c0,0.2,0,0.4,0,0.6c-0.2,4.5-0.1,6.6,0.6,9.4c2.3,8.8,9.4,18.5,20.6,27.9
		c18.3,15.5,43,26.7,61.8,28c19.6,1.3,48.4-10.1,67.7-26.8c3-2.7,5.9-5.5,8.5-8.5c1.9-2.2,4.7-6,4.5-6c-0.1,0,0-0.1,0.1-0.1
		c0.1-0.1,0.2-0.2,0.1-0.2c0,0,0-0.1,0.1-0.2c0.1,0,0.2-0.1,0.1-0.2c0-0.1,0-0.1,0.1-0.2c0.1,0,0.1-0.1,0.1-0.2c0-0.1,0-0.1,0.1-0.1
		c0.1,0,0.1-0.1,0.1-0.2c0-0.1,0.1-0.2,0.1-0.2s0.1-0.1,0.1-0.1c0.1-0.2,0.2-0.5,0.4-0.7c0.5-0.7,2.3-4,2.6-4.6
		c1.8-4,2.9-7.5,3.4-11.1C1126.8,422.5,1127,419.4,1126.9,418.6z M1049.8,456.2c-0.6,0.3-1,0.5-1.1,0.4c-0.1,0-0.5-0.4-1-0.7
		l-0.8-0.7l-0.9,0.9c-1.9,2-1.9,2.1-2.5,2.2c-0.9,0.1-1-0.1-2.1-1.6c-0.6-0.8-1-1.5-1-1.5s-0.4-0.1-0.9-0.1l-0.9-0.1l-0.4,0.8
		l-0.4,0.8l-0.7-0.2c-0.6-0.2-1.1-0.4-1.6-0.6l-0.9-0.5v-1.8l8.2,0l8.2,0l0,0.8C1051.2,455.5,1051.2,455.4,1049.8,456.2z
		 M1065.2,450.7c-0.5,1.8-0.8,3.2-0.8,3.2c-0.3,0-0.6,0.1-1,0h-1l-1.3,3.2c-0.7,1.8-1.4,3.4-1.5,3.6l-0.2,0.4l-0.6-1l-0.6-1v-8.5
		l-0.2,0.1c-0.5,0.1-4.3,0.6-5.9,0.8c-6.7,0.7-13.5,0.5-20.2-0.4c-1.1-0.2-2-0.3-2-0.2c0,0,0,2,0.1,4.4l0.1,4.4l-0.5,0.8
		c-0.3,0.4-0.6,0.8-0.6,0.8c-0.1,0.1-0.4-0.4-1.1-1.8c-0.8-1.5-1.3-3.1-1.7-4.7l-0.2-0.9l-1,0.1l-1,0.1l-0.2-1.1
		c-0.1-0.6-0.3-1.6-0.3-2.1l-0.1-1l-0.8-0.7c-0.5-0.4-0.9-0.8-1-0.9c-0.2-0.1-0.2-0.3-0.2-0.5v-0.4l3.9,0l3.9,0l0.1,0.4l0.1,0.4
		l1.3,0.1c0.7,0,3.1,0.1,5.2,0.2l3.9,0.1l1-1.5l1-1.5h1.3l0-3.2l0-3.2l-1.7-0.7c-5.5-2.4-8.7-5.1-9.9-8.5c-0.2-0.7-0.2-0.9-0.3-4
		c0-3.1,0-3.3,0.2-4c0.4-1.5,1.6-2.7,3.2-3.1c0.5-0.2,1.9-0.2,9.2-0.2l8.6,0l1,0.5c1.1,0.6,1.7,1,2.3,1.8c0.7,1,1,1.8,1,3.6
		c0,2.7-0.2,5-0.5,5.9c-0.4,1.3-1,2.5-1.8,3.5c-1.5,2-4.3,3.9-6.9,4.8l-0.7,0.3l0,3.2l0,3.2l0.7,0.1l0.7,0.1l0.9,1.4l0.9,1.4h4.1
		c2.3,0,4.3,0,4.5,0.1c0.3,0.1,0.4,0,0.7-0.5l0.4-0.6h3.5c2.7,0,3.5,0,3.5,0.1C1066.1,447.4,1065.7,448.9,1065.2,450.7z"/>
	<path id="Path_8580" class="st27" d="M955.4,417.4c-1.9,0.3-3.1,0.6-3.1,0.6"/>
	<path id="Path_8581" class="st27" d="M1129.6,418.3c0,0-1-0.2-2.7-0.4"/>
	<path id="Path_8582" class="st28" d="M1126.6,415.5c-0.1-1.4-0.2-3.3-0.3-4.3c-1.3-14-4.9-25.4-11.7-37.5c-0.3-0.5-0.5-0.9-0.7-1.3
		c-0.1-0.1-0.1-0.2-0.1-0.2l0,0c1-2.9,4.9-14.9,8-28.6c4.2-18.6,6.9-40.4-1.3-46.9c0,0-14.2-1-33.2,17.6
		c-5.1,5.1-9.9,10.7-14.1,16.7l-1.3-0.4c-7.6-2.5-15.6-4-23.5-4.6c-2.4-0.2-11.4-0.2-14.3,0c-8.8,0.6-15.6,1.9-23.3,4.6
		c-0.3,0.1-0.6,0.2-0.9,0.3c-4.3-5.9-9.2-11.5-14.5-16.5c-19.8-18.7-34.4-17.6-34.4-17.6c-8.7,6.7-5.7,29.5-1.2,48.7
		c3,12.7,6.6,23.9,7.9,27.9c-0.1,0.2-0.2,0.5-0.3,0.7c-7.2,14.5-11.1,28.6-12,43.5c8-1.2,30.2-2.5,46.8,15.4c0,0,11-29,40.6-29
		c29.6,0,35.9,29,35.9,29c19.6-16.2,40.7-15.7,48.1-14.9C1126.7,417.3,1126.7,416.4,1126.6,415.5z M973.6,361.7
		c0,0-11.5-28.8-8.6-45.3l0,0c0.5-2.8,1.4-5.2,2.9-7.1c0,0,13.1,1.3,34.1,24.7c0,0-4,1.9-9.4,6.1c0,0,0,0-0.1,0
		C986.8,344.6,979.3,351.7,973.6,361.7L973.6,361.7z M1022.5,404.5c-0.2,0.4-1.1,0.8-2.2,0.9c-1,0.2-4.3,0.1-6.1-0.2
		c-6.5-0.9-13.5-2.9-18.5-5.3c-2.8-1.4-4.9-2.8-6.4-4.3l-0.9-0.9l-0.1-1.2c-0.2-2-0.1-5.2,0.1-6.4c0.2-1,0.5-1.9,1-2.7
		c0.2-0.3,0.2-0.3,1.4-0.3c1.4,0,2.5,0.2,4.3,0.8c3.8,1.2,9.4,4,16.3,8.1c5.7,3.4,7.8,5.1,9.4,7.3
		C1022,401.9,1022.8,403.9,1022.5,404.5z M1095.1,394.3c-0.1,0.5-1.5,2-3,3.1c-4.3,3.1-11.9,6-19.6,7.4c-4.4,0.8-8.8,0.9-10.1,0.3
		c-0.9-0.4-1-0.8-0.7-1.9c0.6-2.3,2.7-4.8,6-7.2c1.7-1.2,8.4-5.3,11.6-7c5.2-2.8,9.4-4.5,12.2-4.9c0.9-0.1,2-0.2,2.3,0
		c0.6,0.2,1.2,1.8,1.4,3.8C1095.3,388.8,1095.2,393.4,1095.1,394.3z M1090,340.1L1090,340.1c-5.2-4.2-9.1-6.1-9.1-6.1
		c20.4-23.4,33-24.7,33-24.7c1.4,1.9,2.3,4.3,2.8,7.1l0,0c2.9,16.5-8.3,45.3-8.3,45.3C1103.7,353.4,1097.4,346.1,1090,340.1
		L1090,340.1z"/>
	<path id="Path_8583" class="st27" d="M1073.3,330.9c-0.1,0.1-0.1,0.2-0.2,0.2"/>
	<path id="Path_8584" class="st27" d="M1113.8,372.1c-0.2,0.4-0.2,0.6-0.2,0.6"/>
	<g id="Group_934">
		<g id="Group_933">
			<g id="Group_932">
				<path id="Path_8585" class="st29" d="M1116.6,316.4c-2.4-0.3-13.8-0.4-26.7,23.8l-0.1,0c-5.2-4.1-9.1-6.1-9.1-6.1
					c20.4-23.4,33-24.7,33-24.7C1115.2,311.2,1116.1,313.6,1116.6,316.4z"/>
			</g>
			<path id="Path_8586" class="st30" d="M1108.4,361.7c-4.7-8.3-10.9-15.6-18.4-21.5c12.9-24.1,24.2-24.1,26.7-23.8l0,0
				C1119.5,332.9,1108.4,361.7,1108.4,361.7z"/>
			<path id="Path_8587" class="st30" d="M1117.1,316.5c-0.2,0-0.3-0.1-0.5-0.1L1117.1,316.5z"/>
		</g>
	</g>
	<path id="Path_8588" class="st27" d="M1010.9,332.1c-0.3-0.4-0.6-0.9-1-1.3"/>
	<path id="Path_8589" class="st27" d="M967.7,373.3c0.3,1,0.6,1.6,0.6,1.6"/>
	<g id="Group_937">
		<g id="Group_936">
			<g id="Group_935">
				<path id="Path_8590" class="st29" d="M1002,334c0,0-4,1.9-9.4,6.1c0,0,0,0-0.1,0c-13.3-24.2-25.1-24.1-27.6-23.8
					c0.5-2.8,1.4-5.2,2.9-7.1C967.9,309.3,980.9,310.6,1002,334z"/>
			</g>
			<path id="Path_8591" class="st30" d="M992.6,340.1c-5.9,4.5-13.3,11.6-19,21.5c0,0-11.5-28.8-8.6-45.3l0,0
				C967.5,316.1,979.3,316,992.6,340.1z"/>
			<path id="Path_8592" class="st30" d="M965,316.4c-0.2,0-0.3,0.1-0.5,0.1L965,316.4z"/>
		</g>
	</g>
	<path id="Path_8593" class="st26" d="M1077.2,377.7c0,0-9.9,0.6-8.6-7.1s8.9-8.6,11.1-8.3c2.2,0.3,10.8,3.4,9.2,9.9
		c-1.5,6.5-3.7,5.2-4.9,5.5C1082.7,378,1077.2,377.7,1077.2,377.7z"/>
	<path id="Path_8594" class="st26" d="M1004.4,377.7c0,0-9.9,0.6-8.6-7.1c1.2-7.7,8.9-8.6,11.1-8.3s10.8,3.4,9.2,9.9
		c-1.5,6.5-3.7,5.2-4.9,5.5C1010,378,1004.4,377.7,1004.4,377.7z"/>
</g>
<g>
	<g>
		<g>
			
				<radialGradient id="SVGID_24_" cx="66.0319" cy="89.4434" r="32.3513" gradientTransform="matrix(0.908 1.654726e-02 -7.044248e-03 0.2179 26.3543 101.165)" gradientUnits="userSpaceOnUse">
				<stop  offset="0" style="stop-color:#525458"/>
				<stop  offset="1" style="stop-color:#2B2D31"/>
			</radialGradient>
			<path class="st31" d="M158,129.3l-137.8-1.1c0,0,2.4-1.1,5.8-2.3c2.4-0.8,5.2-1.7,8.1-2.2c0.6-0.1,1.3-0.2,1.9-0.3
				c7.6-0.9,27.6,1,52.1,1c24.5,0,48.2-1.6,54.6-0.6c0.5,0.1,1,0.2,1.5,0.3c3.3,0.6,5.9,1.4,8,2.2C156.2,127.8,158,129.3,158,129.3z
				"/>
			<path class="st32" d="M144.2,124.1c-4.9,0-11.8,0.3-19.8,0.6c-10.8,0.5-24.2,1-37.3,1c-14,0-26.5-0.7-36.6-1.3
				c-6.7-0.4-12.2-0.7-16.4-0.7c-2.9,0.5-5.8,1.4-8.1,2.2c1-0.2,1.9-0.4,2.9-0.5c4.2-0.5,11.8-0.1,21.5,0.5
				c10.1,0.6,22.6,1.3,36.7,1.3c13.2,0,26.6-0.6,37.4-1c12.1-0.5,21.6-0.9,25.3-0.3c0.8,0.1,1.6,0.3,2.4,0.4
				C150.2,125.5,147.5,124.7,144.2,124.1z"/>
		</g>
		<g>
			<linearGradient id="SVGID_25_" gradientUnits="userSpaceOnUse" x1="88.1371" y1="186.2102" x2="88.1371" y2="103.2889">
				<stop  offset="0" style="stop-color:#2C2E32"/>
				<stop  offset="8.428930e-02" style="stop-color:#55575B"/>
				<stop  offset="0.3288" style="stop-color:#2A2C30"/>
				<stop  offset="0.521" style="stop-color:#54565A"/>
				<stop  offset="1" style="stop-color:#26252B"/>
			</linearGradient>
			<path class="st33" d="M164.9,142.2c-3.2-14.6-9.3-16.6-28.5-15.6c-8.8,0.5-19.5,0.9-28.7,1.3c-13.1,0.5-26.1,0.5-39.2,0
				c-9.1-0.3-19.9-0.8-28.7-1.3c-19.2-1-25.3,1-28.5,15.6c-3.2,14.6-1.5,40.2,10.3,42.2c11.8,2.1,37.3,1.2,53.4,0.7
				c8.6-0.3,17.3-0.3,25.9,0c16.1,0.5,44.9,1.4,53.4-0.7C166.1,181.6,168.1,156.7,164.9,142.2z"/>
			
				<radialGradient id="SVGID_26_" cx="68.0317" cy="140.7642" r="63.2791" gradientTransform="matrix(0.9083 0 0 1.3152 25.7066 -28.3844)" gradientUnits="userSpaceOnUse">
				<stop  offset="0" style="stop-color:#3FB6FF"/>
				<stop  offset="9.795301e-02" style="stop-color:#3EB1F8"/>
				<stop  offset="0.2456" style="stop-color:#3BA3E3"/>
				<stop  offset="0.4245" style="stop-color:#378CC1"/>
				<stop  offset="0.6278" style="stop-color:#316C92"/>
				<stop  offset="0.8489" style="stop-color:#294356"/>
				<stop  offset="1" style="stop-color:#24252A"/>
			</radialGradient>
			<path class="st34" d="M131.9,182.2c-10.6,0-22.2-0.4-30.6-0.6c-4.4-0.1-8.8-0.2-13.1-0.2c-4.4,0-8.8,0.1-13.1,0.2l-1.3,0
				c-8.2,0.3-18.4,0.6-27.9,0.6c-10.6,0-18.3-0.4-23-1.2c-2.5-0.4-5.7-4.8-7.2-13.5c-1.3-7.6-1.2-17.3,0.5-24.8
				c2.5-11.3,5.7-12.9,16.6-12.9c1.9,0,4.2,0.1,6.9,0.2c7.5,0.4,17.1,0.8,28.8,1.3c6.6,0.3,13.2,0.4,19.8,0.4
				c6.6,0,13.3-0.1,19.8-0.4c11.6-0.4,21.3-0.9,28.8-1.3c2.7-0.1,5-0.2,6.9-0.2c10.8,0,14.1,1.6,16.6,12.9
				c1.6,7.3,1.7,16.9,0.4,24.5c-1.7,9.3-5.1,13.3-7.5,13.8C151,181.6,145.6,182.2,131.9,182.2C131.9,182.2,131.9,182.2,131.9,182.2z
				"/>
			
				<radialGradient id="SVGID_27_" cx="84.7607" cy="99.248" r="94.4212" gradientTransform="matrix(0.9083 0 0 0.6819 25.7066 60.7518)" gradientUnits="userSpaceOnUse">
				<stop  offset="0" style="stop-color:#525458"/>
				<stop  offset="1" style="stop-color:#2B2D31"/>
			</radialGradient>
			<path class="st35" d="M131.9,181.2c-10.5,0-22.1-0.4-30.6-0.6c-4.4-0.1-8.8-0.2-13.2-0.2c-4.4,0-8.8,0.1-13.2,0.2l-1.3,0
				c-8.2,0.3-18.3,0.6-27.9,0.6c-10.5,0-18.1-0.4-22.7-1.2c-1.6-0.3-4.7-3.9-6.2-12.6c-1.3-7.5-1.2-17.1,0.4-24.5
				c2.4-10.8,5.2-12,15.3-12c1.9,0,4.1,0.1,6.8,0.2c7.5,0.4,17.1,0.8,28.8,1.3c6.6,0.3,13.3,0.4,19.9,0.4c6.6,0,13.3-0.1,19.9-0.4
				c11.7-0.4,21.4-0.9,28.8-1.3c2.7-0.1,4.9-0.2,6.8-0.2c10.1,0,12.9,1.2,15.3,12c1.6,7.2,1.7,16.7,0.3,24.2
				c-1.6,8.8-4.8,12.6-6.6,13C151,180.5,146.1,181.2,131.9,181.2z"/>
			
				<radialGradient id="SVGID_28_" cx="64.0424" cy="433.3011" r="44.2027" gradientTransform="matrix(0.8664 7.160461e-03 -5.798224e-04 3.954536e-02 31.8407 114.3594)" gradientUnits="userSpaceOnUse">
				<stop  offset="0.1947" style="stop-color:#3FACFF"/>
				<stop  offset="0.2658" style="stop-color:#3591D7"/>
				<stop  offset="0.41" style="stop-color:#225E8C"/>
				<stop  offset="0.5389" style="stop-color:#143650"/>
				<stop  offset="0.6478" style="stop-color:#091924"/>
				<stop  offset="0.7324" style="stop-color:#02070A"/>
				<stop  offset="0.7824" style="stop-color:#000000"/>
			</radialGradient>
			<path class="st36" d="M125.3,132.2c0,1.8-17.2,3-38.4,2.9c-21.2-0.2-38.4-1.7-38.4-3.5c0-1.8,17.2-3,38.4-2.9
				C108.2,128.9,125.3,130.5,125.3,132.2z"/>
			
				<radialGradient id="SVGID_29_" cx="64.8564" cy="561.5522" r="44.2028" gradientTransform="matrix(0.8664 7.160461e-03 -5.798224e-04 3.954536e-02 31.1929 158.5455)" gradientUnits="userSpaceOnUse">
				<stop  offset="0.1946" style="stop-color:#3FACFF"/>
				<stop  offset="0.2657" style="stop-color:#3591D7"/>
				<stop  offset="0.4099" style="stop-color:#225E8C"/>
				<stop  offset="0.5389" style="stop-color:#143650"/>
				<stop  offset="0.6478" style="stop-color:#091924"/>
				<stop  offset="0.7324" style="stop-color:#02070A"/>
				<stop  offset="0.7824" style="stop-color:#000000"/>
			</radialGradient>
			<path class="st37" d="M125.3,181.5c0,1.8-17.2,3-38.4,2.9c-21.2-0.2-38.4-1.7-38.4-3.5c0-1.8,17.2-3,38.4-2.9
				C108.1,178.2,125.3,179.7,125.3,181.5z"/>
		</g>
	</g>
</g>
</svg>
