<?xml version="1.0" encoding="utf-8"?>
<!-- Generator: Adobe Illustrator 23.0.5, SVG Export Plug-In . SVG Version: 6.00 Build 0)  -->
<svg version="1.1" id="Layer_1" xmlns="http://www.w3.org/2000/svg" xmlns:xlink="http://www.w3.org/1999/xlink" x="0px" y="0px"
	 viewBox="0 0 635.3 128" style="enable-background:new 0 0 635.3 128;" xml:space="preserve">
<style type="text/css">
	.st0{fill:#4B6DFF;}
	.st1{fill:#FFFFFF;}
	.st2{fill:none;}
	.st3{fill:#FFA409;}
	.st4{fill:#FF9300;}
	.st5{fill:#FF8300;}
	.st6{fill:url(#SVGID_1_);}
	.st7{fill:#3FB6FF;}
	.st8{fill:url(#SVGID_2_);}
	.st9{fill:url(#SVGID_3_);}
	.st10{fill:url(#SVGID_4_);}
	.st11{fill:url(#SVGID_5_);}
	.st12{fill:url(#SVGID_6_);}
	.st13{stroke:#000000;stroke-width:2;stroke-miterlimit:10;}
</style>
<g id="Group_938" transform="translate(-953.348 -232.003)">
	<g id="Group_931">
		<path id="Path_8573" class="st0" d="M1046.7,243.3c-3.3,3.3-6.3,6.9-9,10.7l-0.8-0.3c-4.9-1.6-10-2.6-15.1-2.9
			c-1.5-0.1-7.3-0.1-9.2,0c-5.7,0.4-10,1.2-14.9,2.9c-0.2,0.1-0.4,0.1-0.6,0.2c-2.8-3.8-5.9-7.3-9.3-10.6
			c16.4-8.4,35.5-9.4,52.7-2.8c1.8,0.7,3.6,1.5,5.4,2.4L1046.7,243.3z"/>
		<path id="Path_8574" class="st0" d="M1077.2,318.1c-2.5,7.1-6.2,13.6-11,19.4c-2.6,3.1-5.5,5.9-8.6,8.5
			c-7.3,5.9-15.8,10.1-24.9,12.3c-10.1,2.4-20.5,2.4-30.6,0c-9.1-2.2-17.6-6.4-24.9-12.3c-3.1-2.6-6-5.4-8.6-8.5
			c-13.9-16.4-18.1-39-11-59.3c1.3-3.8,3-7.4,5-10.8c0.9-1.6,2.1-3.4,2.6-4.1c1.9,8.1,4.2,15.3,5.1,17.9c-0.1,0.1-0.1,0.3-0.2,0.4
			c-4.6,9.3-7.1,18.3-7.7,27.8c0,0.1,0,0.3,0,0.4c-0.2,2.9-0.1,4.2,0.4,6c1.5,5.6,6,11.8,13.2,17.9c11.7,9.9,27.5,17.1,39.6,17.9
			c12.5,0.8,31-6.5,43.3-17.2c1.9-1.7,3.7-3.5,5.4-5.5c1.2-1.4,3-3.9,2.9-3.9c0,0,0,0,0.1-0.1c0.1,0,0.1-0.1,0.1-0.1
			c0,0,0-0.1,0.1-0.1c0.1,0,0.1-0.1,0.1-0.1c0,0,0-0.1,0.1-0.1c0.1,0,0.1-0.1,0.1-0.1c0,0,0-0.1,0-0.1s0.1-0.1,0.1-0.1
			c0,0,0-0.1,0.1-0.1s0.1,0,0.1-0.1c0.1-0.2,0.2-0.3,0.3-0.5c0.3-0.5,1.5-2.6,1.6-2.9c1.1-2.5,1.8-4.8,2.2-7.1
			c0.2-1.1,0.3-3.1,0.2-3.5c0-0.1,0-0.2,0-0.4c0-0.4-0.1-1-0.1-1.6c0-0.9-0.1-2.1-0.2-2.7c-0.8-9-3.1-16.3-7.5-24
			c-0.2-0.3-0.3-0.6-0.4-0.8c0-0.1-0.1-0.1-0.1-0.2l0,0c0.6-1.8,3.1-9.5,5.1-18.3l0,0l0.3,0.4c0.5,0.7,1.9,2.7,2.5,3.7
			c2.8,4.5,4.9,9.4,6.5,14.5C1081.7,292.9,1081.4,306,1077.2,318.1z"/>
		<path id="Path_8575" d="M1051.6,294.5c-0.1,0.3-1,1.3-1.9,2c-2.7,2-7.6,3.8-12.5,4.7c-2.8,0.5-5.6,0.6-6.5,0.2
			c-0.6-0.3-0.6-0.5-0.4-1.2c0.4-1.5,1.8-3.1,3.8-4.6c1.1-0.8,5.4-3.4,7.4-4.5c3.3-1.8,6-2.9,7.8-3.2c0.6-0.1,1.3-0.1,1.5,0
			c0.4,0.1,0.7,1.2,0.9,2.4C1051.8,291,1051.7,294,1051.6,294.5z"/>
		<path id="Path_8576" d="M1005.2,301c-0.1,0.2-0.7,0.5-1.4,0.6c-0.7,0.1-2.7,0-3.9-0.1c-4.2-0.6-8.6-1.8-11.9-3.4
			c-1.8-0.9-3.1-1.8-4.1-2.7l-0.6-0.6l-0.1-0.7c-0.1-1.3-0.1-3.4,0.1-4.1c0.1-0.6,0.3-1.2,0.6-1.7c0.2-0.2,0.2-0.2,0.9-0.2
			c0.9,0,1.6,0.1,2.8,0.5c2.4,0.7,6,2.6,10.4,5.2c3.6,2.2,5,3.2,6,4.7C1004.9,299.4,1005.4,300.6,1005.2,301z"/>
		<path id="Path_8577" d="M1033.1,328.5c0,0.1-0.2,1-0.5,2.1c-0.3,1.1-0.5,2-0.5,2.1c-0.2,0-0.4,0-0.6,0h-0.6l-0.9,2.1
			c-0.5,1.1-0.9,2.2-1,2.3l-0.1,0.3l-0.4-0.7l-0.4-0.7v-5.5l-0.2,0c-0.3,0.1-2.7,0.4-3.8,0.5c-4.3,0.4-8.7,0.3-13-0.3
			c-0.7-0.1-1.3-0.2-1.3-0.2c0,0,0,1.3,0,2.8l0.1,2.8l-0.3,0.5c-0.2,0.3-0.4,0.5-0.4,0.5c-0.1,0.1-0.3-0.3-0.7-1.2
			c-0.5-0.9-0.8-2-1.1-3l-0.1-0.6l-0.6,0l-0.6,0.1l-0.2-0.7c-0.1-0.4-0.2-1-0.2-1.3l-0.1-0.6l-0.5-0.5c-0.3-0.3-0.6-0.5-0.7-0.6
			c-0.1-0.1-0.1-0.2-0.1-0.3v-0.2l2.5,0l2.5,0l0.1,0.3l0.1,0.3l0.8,0c0.5,0,2,0.1,3.3,0.1l2.5,0.1l0.6-1l0.7-1h0.8l0-2.1l0-2.1
			l-1.1-0.5c-3.5-1.5-5.5-3.3-6.3-5.4c-0.2-0.4-0.2-0.6-0.2-2.6c0-2,0-2.1,0.1-2.6c0.3-1,1-1.8,2-2c0.3-0.1,1.2-0.1,5.9-0.1l5.5,0
			l0.6,0.3c0.7,0.4,1.1,0.6,1.5,1.2c0.5,0.6,0.6,1.1,0.6,2.3c0,1.7-0.1,3.2-0.3,3.8c-0.3,0.8-0.7,1.6-1.1,2.3
			c-1,1.3-2.8,2.5-4.4,3.1l-0.5,0.2l0,2.1l0,2.1l0.4,0l0.4,0l0.6,0.9l0.6,0.9h2.6c1.5,0,2.7,0,2.9,0c0.2,0,0.2,0,0.4-0.3l0.2-0.4
			h2.3C1032.6,328.4,1033.1,328.4,1033.1,328.5z"/>
		<path id="Path_8578" d="M1022.7,334.1c-0.4,0.2-0.6,0.3-0.7,0.3c-0.1,0-0.3-0.3-0.6-0.5l-0.5-0.4l-0.6,0.6
			c-1.2,1.3-1.2,1.4-1.6,1.4c-0.6,0.1-0.7,0-1.3-1c-0.4-0.5-0.6-0.9-0.6-0.9s-0.3,0-0.6-0.1l-0.6-0.1l-0.3,0.5l-0.3,0.5l-0.5-0.1
			c-0.4-0.1-0.7-0.3-1-0.4l-0.6-0.3v-1.1l5.2,0l5.2,0l0,0.5C1023.5,333.7,1023.6,333.7,1022.7,334.1z"/>
	</g>
	<path id="Path_8579" class="st1" d="M1072,310.1c0-0.1,0-0.2,0-0.4c-4.7-0.5-18.2-0.8-30.8,9.5c0,0-4-18.5-23-18.5
		c-18.9,0-26,18.5-26,18.5c-10.6-11.4-24.8-10.6-29.9-9.8c0,0.1,0,0.3,0,0.4c-0.2,2.9-0.1,4.2,0.4,6c1.5,5.6,6,11.8,13.2,17.9
		c11.7,9.9,27.5,17.1,39.6,17.9c12.5,0.8,31-6.5,43.3-17.2c1.9-1.7,3.7-3.5,5.4-5.5c1.2-1.4,3-3.9,2.9-3.9c0,0,0,0,0.1-0.1
		c0.1,0,0.1-0.1,0.1-0.1c0,0,0-0.1,0.1-0.1c0.1,0,0.1-0.1,0.1-0.1c0,0,0-0.1,0.1-0.1c0.1,0,0.1-0.1,0.1-0.1c0,0,0-0.1,0-0.1
		s0.1-0.1,0.1-0.1c0,0,0-0.1,0.1-0.1s0.1,0,0.1-0.1c0.1-0.2,0.2-0.3,0.3-0.5c0.3-0.5,1.5-2.6,1.6-2.9c1.1-2.5,1.8-4.8,2.2-7.1
		C1072,312.5,1072.1,310.6,1072,310.1z M1022.7,334.1c-0.4,0.2-0.6,0.3-0.7,0.3c-0.1,0-0.3-0.3-0.6-0.5l-0.5-0.4l-0.6,0.6
		c-1.2,1.3-1.2,1.4-1.6,1.4c-0.6,0.1-0.7,0-1.3-1c-0.4-0.5-0.6-0.9-0.6-0.9s-0.3,0-0.6-0.1l-0.6-0.1l-0.3,0.5l-0.3,0.5l-0.5-0.1
		c-0.4-0.1-0.7-0.3-1-0.4l-0.6-0.3v-1.1l5.2,0l5.2,0l0,0.5C1023.5,333.7,1023.6,333.7,1022.7,334.1z M1032.6,330.6
		c-0.3,1.1-0.5,2-0.5,2.1c-0.2,0-0.4,0-0.6,0h-0.6l-0.8,2.1c-0.5,1.1-0.9,2.2-1,2.3l-0.1,0.3l-0.4-0.7l-0.4-0.7v-5.5l-0.2,0
		c-0.3,0.1-2.7,0.4-3.8,0.5c-4.3,0.4-8.7,0.3-13-0.3c-0.7-0.1-1.3-0.2-1.3-0.2c0,0,0,1.3,0,2.8l0.1,2.8l-0.3,0.5
		c-0.2,0.3-0.4,0.5-0.4,0.5c-0.1,0.1-0.3-0.3-0.7-1.2c-0.5-0.9-0.8-2-1.1-3l-0.1-0.6l-0.6,0l-0.6,0.1l-0.2-0.7
		c-0.1-0.4-0.2-1-0.2-1.3l-0.1-0.6l-0.5-0.5c-0.3-0.3-0.6-0.5-0.7-0.6c-0.1-0.1-0.1-0.2-0.1-0.3v-0.2l2.5,0l2.5,0l0.1,0.3l0.1,0.3
		l0.8,0c0.5,0,2,0.1,3.3,0.1l2.5,0.1l0.6-1l0.7-1h0.8l0-2.1l0-2.1l-1.1-0.5c-3.5-1.5-5.5-3.3-6.3-5.4c-0.2-0.4-0.2-0.6-0.2-2.6
		c0-2,0-2.1,0.1-2.6c0.3-1,1-1.8,2-2c0.3-0.1,1.2-0.1,5.9-0.1l5.5,0l0.6,0.3c0.7,0.4,1.1,0.6,1.5,1.2c0.5,0.6,0.6,1.1,0.6,2.3
		c0,1.7-0.1,3.2-0.3,3.8c-0.3,0.8-0.7,1.6-1.1,2.3c-1,1.3-2.8,2.5-4.4,3.1l-0.5,0.2l0,2.1l0,2.1l0.4,0l0.4,0l0.6,0.9l0.6,0.9h2.6
		c1.5,0,2.7,0,2.9,0c0.2,0,0.2,0,0.4-0.3l0.2-0.4h2.3c1.8,0,2.3,0,2.3,0.1C1033.1,328.5,1032.8,329.5,1032.6,330.6z"/>
	<path id="Path_8580" class="st2" d="M962.3,309.3c-1.2,0.2-2,0.4-2,0.4"/>
	<path id="Path_8581" class="st2" d="M1073.7,309.9c0,0-0.6-0.1-1.8-0.3"/>
	<path id="Path_8582" class="st3" d="M1071.8,308.1c0-0.9-0.1-2.1-0.2-2.7c-0.8-9-3.1-16.3-7.5-24c-0.2-0.3-0.3-0.6-0.4-0.8
		c0-0.1-0.1-0.1-0.1-0.2l0,0c0.6-1.8,3.1-9.5,5.1-18.3c2.7-11.9,4.4-25.8-0.8-30c0,0-9.1-0.7-21.2,11.2c-3.3,3.3-6.3,6.9-9,10.7
		l-0.8-0.3c-4.9-1.6-10-2.6-15.1-2.9c-1.5-0.1-7.3-0.1-9.2,0c-5.7,0.4-10,1.2-14.9,2.9c-0.2,0.1-0.4,0.1-0.6,0.2
		c-2.8-3.8-5.9-7.3-9.3-10.6c-12.6-12-22-11.3-22-11.3c-5.6,4.3-3.7,18.9-0.8,31.2c1.9,8.1,4.2,15.3,5.1,17.9
		c-0.1,0.1-0.1,0.3-0.2,0.4c-4.6,9.3-7.1,18.3-7.7,27.8c5.1-0.7,19.3-1.6,30,9.8c0,0,7-18.5,26-18.5s23,18.5,23,18.5
		c12.5-10.4,26.1-10,30.8-9.5C1071.9,309.3,1071.9,308.7,1071.8,308.1z M973.9,273.6c0,0-7.4-18.4-5.5-29l0,0
		c0.3-1.8,0.9-3.3,1.8-4.5c0,0,8.4,0.8,21.9,15.8c0,0-2.6,1.2-6,3.9c0,0,0,0,0,0C982.3,262.7,977.6,267.3,973.9,273.6L973.9,273.6z
		 M1005.2,301c-0.1,0.2-0.7,0.5-1.4,0.6c-0.7,0.1-2.7,0-3.9-0.1c-4.2-0.6-8.6-1.8-11.9-3.4c-1.8-0.9-3.1-1.8-4.1-2.7l-0.6-0.6
		l-0.1-0.7c-0.1-1.3-0.1-3.4,0.1-4.1c0.1-0.6,0.3-1.2,0.6-1.7c0.2-0.2,0.2-0.2,0.9-0.2c0.9,0,1.6,0.1,2.8,0.5
		c2.4,0.7,6,2.6,10.4,5.2c3.6,2.2,5,3.2,6,4.7C1004.9,299.4,1005.4,300.6,1005.2,301z M1051.6,294.5c-0.1,0.3-1,1.3-1.9,2
		c-2.7,2-7.6,3.8-12.5,4.7c-2.8,0.5-5.6,0.6-6.5,0.2c-0.6-0.3-0.6-0.5-0.4-1.2c0.4-1.5,1.8-3.1,3.8-4.6c1.1-0.8,5.4-3.4,7.4-4.5
		c3.3-1.8,6-2.9,7.8-3.2c0.6-0.1,1.3-0.1,1.5,0c0.4,0.1,0.7,1.2,0.9,2.4C1051.8,291,1051.7,294,1051.6,294.5z M1048.4,259.9
		L1048.4,259.9c-3.4-2.7-5.8-3.9-5.8-3.9c13-15,21.1-15.8,21.1-15.8c0.9,1.2,1.5,2.7,1.8,4.5l0,0c1.8,10.5-5.3,29-5.3,29
		C1057.1,268.3,1053.1,263.6,1048.4,259.9L1048.4,259.9z"/>
	<path id="Path_8583" class="st2" d="M1037.7,253.9c0,0-0.1,0.1-0.1,0.1"/>
	<path id="Path_8584" class="st2" d="M1063.7,280.3c-0.1,0.3-0.1,0.4-0.1,0.4"/>
	<g id="Group_934">
		<g id="Group_933">
			<g id="Group_932">
				<path id="Path_8585" class="st4" d="M1065.4,244.7c-1.5-0.2-8.8-0.2-17.1,15.2l0,0c-3.3-2.6-5.8-3.9-5.8-3.9
					c13-15,21.1-15.8,21.1-15.8C1064.5,241.3,1065.1,242.9,1065.4,244.7z"/>
			</g>
			<path id="Path_8586" class="st5" d="M1060.1,273.6c-3-5.3-7-10-11.8-13.8c8.2-15.4,15.5-15.4,17.1-15.2l0,0
				C1067.3,255.2,1060.1,273.6,1060.1,273.6z"/>
			<path id="Path_8587" class="st5" d="M1065.7,244.7c-0.1,0-0.2,0-0.3-0.1L1065.7,244.7z"/>
		</g>
	</g>
	<path id="Path_8588" class="st2" d="M997.8,254.7c-0.2-0.3-0.4-0.6-0.6-0.8"/>
	<path id="Path_8589" class="st2" d="M970.2,281.1c0.2,0.7,0.4,1,0.4,1"/>
	<g id="Group_937">
		<g id="Group_936">
			<g id="Group_935">
				<path id="Path_8590" class="st4" d="M992.1,256c0,0-2.6,1.2-6,3.9c0,0,0,0,0,0c-8.5-15.5-16.1-15.4-17.7-15.2
					c0.3-1.8,0.9-3.3,1.8-4.5C970.2,240.1,978.6,241,992.1,256z"/>
			</g>
			<path id="Path_8591" class="st5" d="M986.1,259.9c-3.7,2.9-8.5,7.4-12.2,13.8c0,0-7.4-18.4-5.5-29l0,0
				C970,244.5,977.5,244.4,986.1,259.9z"/>
			<path id="Path_8592" class="st5" d="M968.4,244.7c-0.1,0-0.2,0-0.3,0.1L968.4,244.7z"/>
		</g>
	</g>
	<path id="Path_8593" class="st1" d="M1040.2,283.9c0,0-6.3,0.4-5.5-4.5c0.8-4.9,5.7-5.5,7.1-5.3s6.9,2.2,5.9,6.3
		c-1,4.1-2.4,3.4-3.2,3.5C1043.7,284.1,1040.2,283.9,1040.2,283.9z"/>
	<path id="Path_8594" class="st1" d="M993.6,283.9c0,0-6.3,0.4-5.5-4.5c0.8-4.9,5.7-5.5,7.1-5.3s6.9,2.2,5.9,6.3
		c-1,4.1-2.4,3.4-3.2,3.5C997.2,284.1,993.6,283.9,993.6,283.9z"/>
</g>
<g>
	<g>
		<g>
			
				<radialGradient id="SVGID_1_" cx="64.0677" cy="16.9068" r="20.7049" gradientTransform="matrix(0.908 1.654726e-02 -7.044248e-03 0.2179 4.3734 31.8219)" gradientUnits="userSpaceOnUse">
				<stop  offset="0" style="stop-color:#525458"/>
				<stop  offset="1" style="stop-color:#2B2D31"/>
			</radialGradient>
			<path class="st6" d="M108.7,41.4l-88.2-0.7c0,0,1.5-0.7,3.7-1.5c1.5-0.5,3.3-1.1,5.2-1.4c0.4-0.1,0.8-0.1,1.2-0.2
				c4.9-0.6,17.7,0.6,33.3,0.6c15.7,0,30.9-1,35-0.4c0.3,0.1,0.6,0.1,0.9,0.2c2.1,0.4,3.8,0.9,5.1,1.4
				C107.6,40.5,108.7,41.4,108.7,41.4z"/>
			<path class="st7" d="M99.9,38c-3.1,0-7.6,0.2-12.7,0.4c-6.9,0.3-15.5,0.7-23.9,0.7c-9,0-17-0.5-23.4-0.8
				c-4.3-0.2-7.8-0.4-10.5-0.5c-1.8,0.3-3.7,0.9-5.2,1.4c0.6-0.1,1.2-0.2,1.9-0.3c2.7-0.3,7.6,0,13.7,0.3c6.5,0.4,14.5,0.8,23.5,0.8
				c8.4,0,17-0.4,23.9-0.7c7.7-0.3,13.8-0.6,16.2-0.2c0.5,0.1,1,0.2,1.5,0.3C103.7,39,102,38.4,99.9,38z"/>
		</g>
		<g>
			<linearGradient id="SVGID_2_" gradientUnits="userSpaceOnUse" x1="64" y1="77.8221" x2="64" y2="24.7525">
				<stop  offset="0" style="stop-color:#2C2E32"/>
				<stop  offset="8.428930e-02" style="stop-color:#55575B"/>
				<stop  offset="0.3288" style="stop-color:#2A2C30"/>
				<stop  offset="0.521" style="stop-color:#54565A"/>
				<stop  offset="1" style="stop-color:#26252B"/>
			</linearGradient>
			<path class="st8" d="M113.1,49.6c-2-9.3-5.9-10.6-18.2-10c-5.6,0.3-12.5,0.6-18.4,0.8c-8.4,0.3-16.7,0.3-25.1,0
				c-5.8-0.2-12.7-0.5-18.4-0.8c-12.3-0.7-16.2,0.6-18.2,10c-2,9.3-1,25.7,6.6,27c7.6,1.3,23.9,0.8,34.2,0.4
				c5.5-0.2,11.1-0.2,16.6,0c10.3,0.3,28.7,0.9,34.2-0.4C113.9,74.9,115.2,59,113.1,49.6z"/>
			
				<radialGradient id="SVGID_3_" cx="65.3476" cy="49.7521" r="40.4986" gradientTransform="matrix(0.9083 0 0 1.3152 4.2372 -6.4681)" gradientUnits="userSpaceOnUse">
				<stop  offset="0" style="stop-color:#3FB6FF"/>
				<stop  offset="9.795301e-02" style="stop-color:#3EB1F8"/>
				<stop  offset="0.2456" style="stop-color:#3BA3E3"/>
				<stop  offset="0.4245" style="stop-color:#378CC1"/>
				<stop  offset="0.6278" style="stop-color:#316C92"/>
				<stop  offset="0.8489" style="stop-color:#294356"/>
				<stop  offset="1" style="stop-color:#24252A"/>
			</radialGradient>
			<path class="st9" d="M92,75.2c-6.8,0-14.2-0.2-19.6-0.4c-2.8-0.1-5.6-0.1-8.4-0.1c-2.8,0-5.6,0-8.4,0.1l-0.8,0
				C49.5,75,43,75.2,36.9,75.2c-6.8,0-11.7-0.3-14.7-0.8c-1.6-0.3-3.6-3-4.6-8.6C16.7,61,16.8,54.8,17.9,50
				c1.6-7.2,3.7-8.2,10.6-8.2c1.2,0,2.7,0,4.4,0.1c4.8,0.3,11,0.5,18.4,0.8C55.5,42.9,59.8,43,64,43c4.2,0,8.5-0.1,12.7-0.2
				c7.4-0.3,13.6-0.6,18.4-0.8c1.7-0.1,3.2-0.1,4.4-0.1c6.9,0,9,1,10.6,8.2c1,4.7,1.1,10.8,0.2,15.7c-1.1,5.9-3.3,8.5-4.8,8.9
				C104.2,74.9,100.7,75.2,92,75.2C92,75.2,92,75.2,92,75.2z"/>
			
				<radialGradient id="SVGID_4_" cx="76.0542" cy="23.1818" r="60.4295" gradientTransform="matrix(0.9083 0 0 0.6819 4.2372 25.0365)" gradientUnits="userSpaceOnUse">
				<stop  offset="0" style="stop-color:#525458"/>
				<stop  offset="1" style="stop-color:#2B2D31"/>
			</radialGradient>
			<path class="st10" d="M92,74.6c-6.7,0-14.2-0.2-19.6-0.4c-2.8-0.1-5.6-0.1-8.5-0.1s-5.6,0-8.4,0.1l-0.8,0
				c-5.2,0.2-11.7,0.4-17.8,0.4c-6.7,0-11.6-0.3-14.5-0.8c-1-0.2-3-2.5-4-8.1c-0.9-4.8-0.7-11,0.3-15.7c1.5-6.9,3.3-7.7,9.8-7.7
				c1.2,0,2.6,0,4.4,0.1c4.8,0.3,11,0.5,18.4,0.8c4.2,0.2,8.5,0.2,12.7,0.2c4.2,0,8.5-0.1,12.7-0.2c7.5-0.3,13.7-0.6,18.4-0.8
				c1.7-0.1,3.2-0.1,4.4-0.1c6.4,0,8.2,0.8,9.8,7.7c1,4.6,1.1,10.7,0.2,15.5c-1,5.6-3.1,8.1-4.2,8.3C104.2,74.2,101.1,74.6,92,74.6z
				"/>
			
				<radialGradient id="SVGID_5_" cx="73.0842" cy="377.5006" r="28.2898" gradientTransform="matrix(0.8664 7.160461e-03 -5.798224e-04 3.954536e-02 0.2191 27.6459)" gradientUnits="userSpaceOnUse">
				<stop  offset="0.1947" style="stop-color:#3FACFF"/>
				<stop  offset="0.2658" style="stop-color:#3591D7"/>
				<stop  offset="0.41" style="stop-color:#225E8C"/>
				<stop  offset="0.5389" style="stop-color:#143650"/>
				<stop  offset="0.6478" style="stop-color:#091924"/>
				<stop  offset="0.7324" style="stop-color:#02070A"/>
				<stop  offset="0.7824" style="stop-color:#000000"/>
			</radialGradient>
			<path class="st11" d="M87.8,43.3c0,1.1-11,2-24.6,1.8C49.6,45,38.6,44,38.6,42.9c0-1.1,11-2,24.6-1.8
				C76.8,41.1,87.8,42.2,87.8,43.3z"/>
			
				<radialGradient id="SVGID_6_" cx="73.6051" cy="459.5814" r="28.2898" gradientTransform="matrix(0.8664 7.160461e-03 -5.798224e-04 3.954536e-02 -0.1955 55.925)" gradientUnits="userSpaceOnUse">
				<stop  offset="0.1946" style="stop-color:#3FACFF"/>
				<stop  offset="0.2657" style="stop-color:#3591D7"/>
				<stop  offset="0.4099" style="stop-color:#225E8C"/>
				<stop  offset="0.5389" style="stop-color:#143650"/>
				<stop  offset="0.6478" style="stop-color:#091924"/>
				<stop  offset="0.7324" style="stop-color:#02070A"/>
				<stop  offset="0.7824" style="stop-color:#000000"/>
			</radialGradient>
			<path class="st12" d="M87.8,74.8c0,1.1-11,2-24.6,1.8c-13.6-0.1-24.6-1.1-24.5-2.2c0-1.1,11-2,24.6-1.8
				C76.8,72.7,87.8,73.7,87.8,74.8z"/>
		</g>
	</g>
</g>
<g>
	<path class="st13" d="M194.6,94.1L192,60.4c0-0.7-0.1-1.4-0.1-2.2c0-0.8-0.1-1.6-0.1-2.3c0-0.7,0-1.4-0.1-2.1c0-0.6,0-1.1,0-1.5
		h-0.1c-0.1,0.7-0.4,1.8-0.7,3.2c-0.3,1.4-0.7,2.8-1.1,4.2l-9.9,34.4h-6l-9.1-32.8c-0.5-1.9-1-3.7-1.4-5.5c-0.4-1.7-0.7-2.9-0.8-3.6
		h-0.1c0,0.4,0,1-0.1,1.8c0,0.8-0.1,1.6-0.1,2.4c0,0.9-0.1,1.7-0.1,2.6c0,0.9-0.1,1.6-0.1,2.2l-2.5,32.8h-6.8l4.5-49.6h9.7l8.4,30.5
		c0.5,2,0.9,3.7,1.2,5.2s0.5,2.4,0.6,3h0.1c0.1-0.6,0.3-1.7,0.6-3.1c0.3-1.4,0.7-3,1.2-4.7l8.6-30.8h9.8l4.2,49.6H194.6z"/>
	<path class="st13" d="M213.4,94.1V55.5h24.2l-0.9,5.7h-16.3v9.9h13.6v5.7h-13.5v11.4h17.9v5.9H213.4z"/>
	<path class="st13" d="M270.8,61.2h-11.2v33h-6.8v-33h-11v-5.7h30L270.8,61.2z"/>
	<path class="st13" d="M302.1,94.1L298.5,84H284l-3.7,10.1h-7.1l14.4-38.7h8l14.1,38.7H302.1z M291.3,61.2l-5.6,17.4h11.2
		L291.3,61.2z"/>
	<path class="st13" d="M367.4,79.7c0,1.7-0.4,3.5-1.1,5.3c-0.7,1.8-1.8,3.5-3.4,5c-1.5,1.5-3.5,2.7-5.8,3.7s-5.2,1.4-8.4,1.4
		c-2.9,0-5.7-0.4-8.3-1.1c-2.7-0.7-5.2-1.8-7.7-3.4l2.7-5.3c2.2,1.3,4.3,2.4,6.4,3.1c2.1,0.7,4.5,1,6.9,1c3.3,0,5.9-0.8,7.8-2.3
		c1.9-1.5,2.9-3.6,2.9-6.3c0-4-2.7-6.8-8.2-8.4l-5.2-1.5c-3.7-1.1-6.6-2.6-8.7-4.6c-2-1.9-3.1-4.7-3.1-8.2c0-2.2,0.4-4.1,1.2-5.9
		c0.8-1.7,1.9-3.3,3.3-4.5c1.4-1.3,3.1-2.3,5.2-2.9c2-0.7,4.2-1,6.7-1c2.7,0,5.4,0.4,8,1.2s5,2,7.2,3.5l-3.1,4.9
		c-2.3-1.4-4.3-2.4-6.1-3c-1.8-0.6-3.7-0.9-5.7-0.9c-2.8,0-5,0.7-6.6,2c-1.6,1.3-2.4,3.2-2.4,5.5c0,1.8,0.6,3.2,1.7,4.3
		c1.1,1.1,3,2,5.7,2.8l5.8,1.7c1.6,0.5,3.2,1.1,4.7,1.9c1.5,0.8,2.8,1.8,3.9,2.9c1.1,1.2,1.9,2.5,2.6,4
		C367.1,76,367.4,77.7,367.4,79.7z"/>
	<path class="st13" d="M400.8,94.1V76.5h-15.3v17.6h-7V55.5h7v15.3h15.3V55.5h7v38.7H400.8z"/>
	<path class="st13" d="M421.5,94.1V55.5h7v38.7H421.5z"/>
	<path class="st13" d="M471.7,83.3c0,2.2-0.6,4.1-1.9,5.9c-1.3,1.8-3,3-5.1,3.8c-0.7,0.2-1.3,0.4-1.9,0.6c-0.6,0.1-1.3,0.3-2,0.3
		c-0.7,0.1-1.5,0.1-2.3,0.1c-0.8,0-1.8,0-2.8,0h-13.5V55.5h12.4c1.2,0,2.2,0,3,0.1c0.9,0,1.6,0.1,2.3,0.2c0.6,0.1,1.2,0.2,1.7,0.3
		c0.5,0.1,1,0.3,1.5,0.5c2,0.7,3.6,1.8,4.9,3.3c1.2,1.5,1.8,3.3,1.8,5.3c0,1.1-0.2,2.1-0.6,3c-0.4,0.9-0.9,1.7-1.6,2.4
		c-0.7,0.7-1.4,1.3-2.3,1.8s-1.8,0.9-2.8,1.1c1.3,0.2,2.4,0.6,3.5,1.2c1.1,0.5,2.1,1.2,2.9,2.1c0.8,0.8,1.5,1.8,2,2.9
		S471.7,82,471.7,83.3z M462.5,66.2c0-1.1-0.2-1.9-0.7-2.6c-0.5-0.7-1.1-1.2-1.8-1.6c-0.7-0.4-1.6-0.6-2.4-0.7
		c-0.9-0.1-1.8-0.2-2.6-0.2h-6v10.2h6.4c0.9,0,1.8-0.1,2.7-0.2c0.9-0.1,1.6-0.4,2.3-0.7c0.6-0.4,1.2-0.9,1.6-1.5
		C462.3,68.2,462.5,67.3,462.5,66.2z M464.1,82.8c0-1.2-0.3-2.2-0.8-3c-0.5-0.8-1.2-1.4-2-1.8c-0.8-0.4-1.7-0.7-2.7-0.9
		c-1-0.2-2-0.3-3-0.3H449v11.7h6.5c1,0,2-0.1,3-0.2c1-0.1,1.9-0.4,2.8-0.8c0.8-0.4,1.5-1,2-1.8C463.8,85.1,464.1,84,464.1,82.8z"/>
	<path class="st13" d="M506,94.1L502.3,84h-14.5l-3.7,10.1H477l14.4-38.7h8l14.1,38.7H506z M495.2,61.2l-5.6,17.4h11.2L495.2,61.2z"
		/>
	<path class="st13" d="M539.1,94.1V44.5h7v49.6H539.1z"/>
	<path class="st13" d="M582.1,94.1l-10.9-19.3c-0.5-1-1.1-2.1-1.8-3.4c-0.6-1.3-1.3-2.6-1.8-3.8c-0.7-1.4-1.3-2.8-2-4.2
		c0.1,1.4,0.2,2.9,0.4,4.3c0.1,1.2,0.2,2.6,0.3,4c0.1,1.4,0.1,2.7,0.2,3.9l0.3,18.5h-6.8V55.5h7.8L578.7,75c0.5,1,1.1,2.1,1.7,3.3
		c0.6,1.2,1.2,2.3,1.7,3.4c0.6,1.2,1.1,2.5,1.7,3.7c-0.1-1.4-0.3-2.8-0.4-4.2c-0.1-1.2-0.2-2.5-0.3-3.9c-0.1-1.4-0.2-2.6-0.2-3.8
		l-0.2-18.1h6.6v38.7H582.1z"/>
	<path class="st13" d="M632.5,80.4c0,1.5-0.1,2.8-0.2,3.9c-0.1,1.1-0.3,2-0.6,2.8c-0.3,0.8-0.6,1.5-1.1,2.1c-0.5,0.6-1,1.2-1.6,1.8
		c-1.3,1.2-2.9,2.1-4.7,2.7s-4.1,0.9-6.8,0.9c-3.7,0-6.7-0.6-8.8-1.8s-3.7-2.6-4.6-4.3c-0.3-0.5-0.5-1.1-0.8-1.6
		c-0.2-0.5-0.4-1.1-0.5-1.7c-0.1-0.6-0.2-1.3-0.2-2.1c0-0.8-0.1-1.7-0.1-2.8V55.5h7v23.8c0,1.4,0,2.6,0.1,3.6c0.1,1,0.2,1.8,0.5,2.3
		c0.5,1.2,1.4,2.2,2.8,2.9c1.3,0.7,2.9,1,4.8,1c1.5,0,2.8-0.2,3.9-0.6c1.1-0.4,1.9-1,2.5-1.8c0.5-0.7,0.9-1.5,1.1-2.4
		c0.2-0.9,0.3-2.3,0.3-4.1V55.5h7V80.4z"/>
</g>
</svg>
